<?xml version="1.0" encoding="UTF-8" standalone="no"?>
<!-- Created with Inkscape (http://www.inkscape.org/) -->

<svg
   xmlns:dc="http://purl.org/dc/elements/1.1/"
   xmlns:cc="http://creativecommons.org/ns#"
   xmlns:rdf="http://www.w3.org/1999/02/22-rdf-syntax-ns#"
   xmlns:svg="http://www.w3.org/2000/svg"
   xmlns="http://www.w3.org/2000/svg"
   xmlns:xlink="http://www.w3.org/1999/xlink"
   xmlns:sodipodi="http://sodipodi.sourceforge.net/DTD/sodipodi-0.dtd"
   xmlns:inkscape="http://www.inkscape.org/namespaces/inkscape"
   version="1.1"
   width="202.59589"
   height="65"
   id="svg2"
   inkscape:version="0.48.3.1 r9886"
   sodipodi:docname="logo-proposals-pdf.svg">
  <sodipodi:namedview
     pagecolor="#ffffff"
     bordercolor="#666666"
     borderopacity="1"
     objecttolerance="10"
     gridtolerance="10"
     guidetolerance="10"
     inkscape:pageopacity="0"
     inkscape:pageshadow="2"
     inkscape:window-width="1920"
     inkscape:window-height="1030"
     id="namedview18"
     showgrid="false"
     inkscape:zoom="3.2478448"
     inkscape:cx="151.73867"
     inkscape:cy="22.407695"
     inkscape:window-x="-1"
     inkscape:window-y="21"
     inkscape:window-maximized="1"
     inkscape:current-layer="layer1" />
  <defs
     id="defs4">
    <linearGradient
       x1="2682.7632"
       y1="340.84061"
       x2="2682.7632"
       y2="239.56624"
       id="linearGradient5060"
       xlink:href="#linearGradient7034-2-7-5-3-0"
       gradientUnits="userSpaceOnUse"
       gradientTransform="matrix(0.62565693,0,0,0.62565693,-1277.0158,-514.51484)" />
    <linearGradient
       id="linearGradient7034-2-7-5-3-0">
      <stop
         id="stop7036-4-3-0-7-8"
         style="stop-color:#333333;stop-opacity:1"
         offset="0" />
      <stop
         id="stop7038-6-6-7-0-6"
         style="stop-color:#6c6c6c;stop-opacity:1"
         offset="1" />
    </linearGradient>
    <linearGradient
       x1="2682.7632"
       y1="340.84061"
       x2="2682.7632"
       y2="239.56624"
       id="linearGradient3038"
       xlink:href="#linearGradient7034-2-7-5-3-0"
       gradientUnits="userSpaceOnUse"
       gradientTransform="matrix(0.62565693,0,0,0.62565693,-1277.0158,-514.51484)" />
    <linearGradient
       x1="2682.7632"
       y1="340.84061"
       x2="2682.7632"
       y2="239.56624"
       id="linearGradient3051"
       xlink:href="#linearGradient7034-2-7-5-3-0"
       gradientUnits="userSpaceOnUse"
       gradientTransform="matrix(0.62565693,0,0,0.62565693,-1277.0158,-514.51484)" />
    <linearGradient
       x1="2682.7632"
       y1="340.84061"
       x2="2682.7632"
       y2="239.56624"
       id="linearGradient3054"
       xlink:href="#linearGradient7034-2-7-5-3-0"
       gradientUnits="userSpaceOnUse"
       gradientTransform="matrix(0.63267092,0,0,0.63267092,-1364.7361,278.30694)" />
  </defs>
  <metadata
     id="metadata7">
    <rdf:RDF>
      <cc:Work
         rdf:about="">
        <dc:format>image/svg+xml</dc:format>
        <dc:type
           rdf:resource="http://purl.org/dc/dcmitype/StillImage" />
        <dc:title />
      </cc:Work>
    </rdf:RDF>
  </metadata>
  <g
     transform="translate(-282.98777,-429.86219)"
     id="layer1">
    <path
       d="m 132.46875,8.0625 2.84375,13.25 1.90625,0 2.8125,-13.25 -1.875,0 -1.40625,7.09375 -0.5,3.3125 -0.46875,-3.3125 -1.40625,-7.09375 -1.90625,0 z m 19.59375,0 0,13.25 5.1875,0 0,-1.4375 -3.3125,0 0,-4.71875 2.375,0 0,-1.40625 -2.375,0 0,-4.25 3.3125,0 0,-1.4375 -5.1875,0 z m 5.53125,0 0,13.25 1.875,0 0,-13.25 -1.875,0 z m 19.4375,0.0625 -1.40625,2.84375 1.40625,0 0.9375,-1.875 0.96875,1.875 1.40625,0 -1.40625,-2.84375 -1.90625,0 z m -36.6875,0.4375 0,1.875 1.875,0 0,-1.875 -1.875,0 z m 26.71875,0 0,3.28125 -0.96875,0 0,1.4375 0.96875,0 0,5.875 c 0.01,0.76783 0.1653,1.33975 0.5,1.71875 0.33961,0.37899 0.88177,0.5625 1.625,0.5625 0.30516,0 0.68373,-0.03465 1.15625,-0.09375 l 0,-1.53125 c -0.28548,0.0492 -0.48719,0.0625 -0.625,0.0625 -0.31501,0 -0.52164,-0.07281 -0.625,-0.25 -0.10334,-0.17719 -0.15626,-0.46475 -0.15625,-0.84375 l 0,-5.5 1.40625,0 0,-1.4375 -1.40625,0 0,-3.28125 -1.875,0 z m 21.25,0 0,1.875 1.90625,0 0,-1.875 -1.90625,0 z m -42.40625,3.15625 c -0.88597,10e-6 -1.59663,0.27602 -2.09375,0.8125 -0.49712,0.53651 -0.74,1.25061 -0.75,2.15625 l 1.875,0 c 0,-0.10828 0.0263,-0.1959 0.0312,-0.25 0.0197,-0.39375 0.0809,-0.68475 0.21875,-0.90625 0.14274,-0.22641 0.39389,-0.34374 0.71875,-0.34375 0.36422,10e-6 0.6171,0.14047 0.75,0.40625 0.13294,0.26087 0.1875,0.61632 0.1875,1.09375 l 0,0.6875 c -0.0443,0.0197 -0.0989,0.05935 -0.1875,0.09375 -0.51189,0.20181 -0.88703,0.31765 -1.09375,0.40625 -0.20673,0.0886 -0.50265,0.25882 -0.90625,0.5 -0.40361,0.23626 -0.70273,0.46109 -0.875,0.6875 -0.17227,0.22149 -0.3425,0.53218 -0.5,0.90625 -0.15257,0.37408 -0.21875,0.79225 -0.21875,1.25 0,0.57095 0.16702,1.07351 0.53125,1.53125 0.36915,0.45283 0.8171,0.6875 1.34375,0.6875 0.21165,0 0.41655,-0.02975 0.59375,-0.09375 0.17719,-0.06399 0.31937,-0.13505 0.4375,-0.21875 0.11812,-0.0886 0.25687,-0.2175 0.375,-0.375 0.11813,-0.16243 0.1909,-0.29797 0.25,-0.40625 0.064,-0.10829 0.1516,-0.27187 0.25,-0.46875 l 0.25,1.4375 1.875,0 c -0.16244,-0.59063 -0.25001,-1.3906 -0.25,-2.375 l 0,-4.25 c -1e-5,-0.89087 -0.24304,-1.61482 -0.75,-2.15625 -0.50205,-0.54633 -1.18147,-0.81249 -2.0625,-0.8125 z m 17.21875,0 c -0.44298,10e-6 -0.8528,0.07603 -1.1875,0.21875 -0.32977,0.13783 -0.60578,0.33117 -0.8125,0.5625 -0.2018,0.23134 -0.34078,0.5157 -0.46875,0.875 -0.12798,0.35931 -0.22715,0.74109 -0.28125,1.125 -0.0492,0.379 -0.0789,0.82031 -0.0937,1.3125 -0.0148,0.41345 -0.0148,0.80531 0,1.21875 0.01,0.52666 0.0182,1.00757 0.0625,1.40625 0.0492,0.39376 0.15819,0.78882 0.28125,1.1875 0.12304,0.39376 0.27187,0.71281 0.46875,0.96875 0.2018,0.25103 0.4778,0.4675 0.8125,0.625 0.33961,0.15746 0.72975,0.21875 1.1875,0.21875 0.9401,0 1.64092,-0.26444 2.09375,-0.78125 0.45282,-0.5168 0.7057,-1.27224 0.75,-2.28125 l 0,-0.375 -1.875,0 0,0.40625 c -0.005,0.23134 -0.0379,0.40992 -0.0625,0.5625 -0.0246,0.15258 -0.061,0.31617 -0.125,0.46875 -0.0591,0.15259 -0.15329,0.26495 -0.28125,0.34375 -0.12798,0.07385 -0.27188,0.09375 -0.46875,0.09375 -0.15751,0 -0.31938,-0.01995 -0.4375,-0.09375 -0.11321,-0.07382 -0.186,-0.18452 -0.25,-0.3125 -0.064,-0.12797 -0.11195,-0.27015 -0.15625,-0.4375 -0.0443,-0.17227 -0.0838,-0.34421 -0.0937,-0.53125 -0.01,-0.18703 -0.0213,-0.37054 -0.0312,-0.5625 -0.005,-0.19687 -0.01,-0.41163 0,-0.59375 l 0,-0.28125 0,-0.46875 3.78125,0 0,-0.21875 c 0,-0.46759 -0.002,-0.89068 -0.0312,-1.25 -0.0246,-0.35929 -0.0873,-0.72459 -0.15625,-1.09375 -0.0689,-0.37406 -0.17469,-0.70788 -0.3125,-0.96875 -0.1329,-0.26086 -0.29328,-0.47585 -0.5,-0.6875 -0.20181,-0.21656 -0.43992,-0.39663 -0.75,-0.5 -0.30517,-0.10832 -0.6589,-0.15624 -1.0625,-0.15625 z m 11.84375,0 c -0.44791,10e-6 -0.88086,0.15695 -1.25,0.4375 -0.36423,0.27564 -0.62054,0.59469 -0.8125,0.96875 l 0,-1.28125 -1.90625,0 0,9.46875 1.90625,0 0,-6.375 c 0,-0.38883 0.10257,-0.70124 0.34375,-0.9375 0.24117,-0.23625 0.57499,-0.37499 0.96875,-0.375 0.34946,10e-6 0.68178,0.08094 1.03125,0.21875 l 0,-2.09375 c -0.18704,-0.0195 -0.26645,-0.03124 -0.28125,-0.03125 z m 3,0 c -1.01394,10e-6 -1.71819,0.31562 -2.15625,0.90625 -0.43806,0.59064 -0.65625,1.41889 -0.65625,2.53125 l 0,2.84375 c 0,1.11238 0.21819,1.97186 0.65625,2.5625 0.43806,0.59064 1.14231,0.875 2.15625,0.875 1.01392,0 1.74944,-0.28436 2.1875,-0.875 0.43805,-0.59064 0.65624,-1.45012 0.65625,-2.5625 l 0,-2.84375 c -1e-5,-1.11236 -0.2182,-1.94061 -0.65625,-2.53125 -0.43806,-0.59063 -1.17358,-0.90624 -2.1875,-0.90625 z m 8,0 c -0.35439,10e-6 -0.71625,0.06446 -1.03125,0.1875 -0.31009,0.11814 -0.54156,0.23719 -0.71875,0.375 -0.17719,0.1329 -0.40695,0.33782 -0.6875,0.59375 l 0,-1.03125 -1.875,0 0,9.46875 1.875,0 0,-7.46875 c 0.14766,-0.12304 0.26505,-0.22715 0.34375,-0.28125 0.0788,-0.05905 0.18625,-0.1235 0.34375,-0.1875 0.16243,-0.06886 0.33757,-0.09375 0.5,-0.09375 0.28547,0 0.469,0.06617 0.5625,0.21875 0.0935,0.14767 0.15625,0.38898 0.15625,0.71875 l 0,7.09375 1.875,0 0,-8.0625 c -1e-5,-0.42821 -0.12398,-0.79842 -0.375,-1.09375 -0.25102,-0.29531 -0.56516,-0.43749 -0.96875,-0.4375 z m 7.6875,0 c -0.45775,10e-6 -0.87913,0.09743 -1.21875,0.25 -0.33469,0.15259 -0.57945,0.34766 -0.78125,0.59375 -0.19688,0.24119 -0.37203,0.5536 -0.5,0.9375 -0.12305,0.379 -0.2008,0.74109 -0.25,1.125 -0.0443,0.38392 -0.0838,0.84171 -0.0937,1.34375 -0.0148,0.41345 -0.0148,0.81023 0,1.21875 0.01,0.50697 0.0495,0.95984 0.0937,1.34375 0.0492,0.37899 0.12695,0.77234 0.25,1.15625 0.12305,0.379 0.29819,0.6914 0.5,0.9375 0.2018,0.2461 0.44656,0.44116 0.78125,0.59375 0.33962,0.15257 0.761,0.21875 1.21875,0.21875 0.49712,0 0.92194,-0.07109 1.28125,-0.21875 0.36422,-0.15258 0.65843,-0.37077 0.875,-0.65625 0.22149,-0.28547 0.36046,-0.62101 0.46875,-1 0.10828,-0.38392 0.1727,-0.81537 0.1875,-1.3125 l 0,-0.25 -1.875,0 0,0.21875 c 0,0.20672 -0.0213,0.39343 -0.0312,0.53125 -0.01,0.13289 -0.0231,0.28 -0.0625,0.4375 -0.0345,0.15751 -0.0923,0.2815 -0.15625,0.375 -0.064,0.09352 -0.1582,0.15475 -0.28125,0.21875 -0.11813,0.064 -0.23891,0.09375 -0.40625,0.09375 -0.18212,0 -0.34078,-0.02164 -0.46875,-0.125 -0.12797,-0.10336 -0.2436,-0.25046 -0.3125,-0.4375 -0.064,-0.19196 -0.0955,-0.39195 -0.125,-0.59375 -0.0296,-0.20672 -0.0525,-0.44804 -0.0625,-0.71875 -0.0197,-1.23049 -0.0197,-2.17092 0,-2.78125 0.005,-0.28547 0.033,-0.53342 0.0625,-0.75 0.0295,-0.22148 0.061,-0.41827 0.125,-0.625 0.0689,-0.20671 0.15327,-0.36046 0.28125,-0.46875 0.12797,-0.11321 0.31296,-0.18749 0.5,-0.1875 0.18703,10e-6 0.34077,0.05785 0.46875,0.15625 0.13289,0.09353 0.22215,0.22906 0.28125,0.40625 0.064,0.1772 0.1004,0.35407 0.125,0.53125 0.0295,0.1772 0.0575,0.38876 0.0625,0.625 l 0,0.25 1.875,0 0,-0.25 c -0.0295,-1.0533 -0.25437,-1.83849 -0.6875,-2.375 -0.43314,-0.53648 -1.13076,-0.81249 -2.125,-0.8125 z m 5.875,0 c -0.88596,10e-6 -1.59663,0.27602 -2.09375,0.8125 -0.49712,0.53651 -0.74,1.25061 -0.75,2.15625 l 1.875,0 c 0,-0.10828 0.0263,-0.1959 0.0312,-0.25 0.0197,-0.39375 0.0809,-0.68475 0.21875,-0.90625 0.14273,-0.22641 0.3939,-0.34374 0.71875,-0.34375 0.36423,10e-6 0.58585,0.14047 0.71875,0.40625 0.13284,0.26087 0.21874,0.61632 0.21875,1.09375 l 0,0.6875 c -0.0443,0.0197 -0.13015,0.05935 -0.21875,0.09375 -0.5119,0.20181 -0.85578,0.31765 -1.0625,0.40625 -0.20673,0.0886 -0.50265,0.25882 -0.90625,0.5 -0.40361,0.23626 -0.70274,0.46109 -0.875,0.6875 -0.17227,0.22149 -0.3425,0.53218 -0.5,0.90625 -0.15258,0.37408 -0.21875,0.79225 -0.21875,1.25 0,0.57095 0.16703,1.07351 0.53125,1.53125 0.36915,0.45283 0.81709,0.6875 1.34375,0.6875 0.21164,0 0.41655,-0.02975 0.59375,-0.09375 0.17718,-0.06399 0.31936,-0.13505 0.4375,-0.21875 0.11812,-0.0886 0.22562,-0.2175 0.34375,-0.375 0.11812,-0.16243 0.22215,-0.29797 0.28125,-0.40625 0.064,-0.10829 0.1515,-0.27187 0.25,-0.46875 l 0.25,1.4375 1.875,0 c -0.16244,-0.59063 -0.25,-1.3906 -0.25,-2.375 l 0,-4.25 c 0,-0.89087 -0.24304,-1.61482 -0.75,-2.15625 -0.50204,-0.54633 -1.18146,-0.81249 -2.0625,-0.8125 z m -59.1875,0.125 0,9.46875 1.875,0 0,-9.46875 -1.875,0 z m 47.96875,0 0,9.46875 1.90625,0 0,-9.46875 -1.90625,0 z m -25.1875,1.4375 c 0.18703,0 0.34077,0.05785 0.46875,0.15625 0.12797,0.09844 0.22215,0.21922 0.28125,0.40625 0.064,0.18704 0.1004,0.37547 0.125,0.5625 0.0246,0.18704 0.0263,0.40524 0.0312,0.65625 l 0,0.5625 -1.875,0 0,-0.5 c 0.005,-0.26085 0.0379,-0.50046 0.0625,-0.6875 0.0246,-0.18703 0.0659,-0.37053 0.125,-0.5625 0.064,-0.19687 0.15328,-0.33413 0.28125,-0.4375 0.13289,-0.10334 0.30804,-0.15625 0.5,-0.15625 z m 14.84375,0 c 0.13289,0 0.24525,0.0231 0.34375,0.0625 0.10335,0.03938 0.186,0.0659 0.25,0.125 0.0689,0.05415 0.1432,0.1368 0.1875,0.25 0.0443,0.10829 0.0692,0.2288 0.0937,0.3125 0.0246,0.08368 0.0525,0.18625 0.0625,0.34375 0.01,0.15751 -1e-5,0.2815 0,0.375 0.005,0.0886 0.0312,0.22415 0.0312,0.40625 l 0,2.84375 c 0,0.18212 -0.0263,0.31275 -0.0312,0.40625 0,0.0886 0.01,0.2175 0,0.375 -0.01,0.15751 -0.0379,0.2913 -0.0625,0.375 -0.0246,0.08367 -0.0495,0.16804 -0.0937,0.28125 -0.0443,0.10828 -0.1186,0.1909 -0.1875,0.25 -0.064,0.05418 -0.14665,0.11685 -0.25,0.15625 -0.0985,0.0394 -0.21086,0.03125 -0.34375,0.03125 -0.1329,0 -0.24039,0.0082 -0.34375,-0.03125 -0.0984,-0.03938 -0.1811,-0.10215 -0.25,-0.15625 -0.064,-0.05906 -0.11195,-0.14172 -0.15625,-0.25 -0.0443,-0.11321 -0.1004,-0.19755 -0.125,-0.28125 -0.0246,-0.08367 -0.0213,-0.21749 -0.0312,-0.375 -0.01,-0.1575 -0.0263,-0.2864 -0.0312,-0.375 l 0,-0.40625 0,-2.84375 0,-0.40625 c 0.005,-0.09351 0.0213,-0.21749 0.0312,-0.375 0.01,-0.1575 0.007,-0.26005 0.0312,-0.34375 0.0246,-0.08367 0.0807,-0.20421 0.125,-0.3125 0.0443,-0.1132 0.0923,-0.1959 0.15625,-0.25 0.0689,-0.05906 0.1516,-0.0856 0.25,-0.125 0.10336,-0.0394 0.21085,-0.0625 0.34375,-0.0625 z m -31.125,3.3125 0,2.59375 c -0.01,0.0099 -0.0164,0.0379 -0.0312,0.0625 -0.0935,0.12305 -0.186,0.20745 -0.25,0.28125 -0.064,0.07383 -0.15328,0.1712 -0.28125,0.25 -0.12305,0.07873 -0.24211,0.09375 -0.375,0.09375 -0.63002,0 -0.96875,-0.37365 -0.96875,-1.15625 0,-0.18211 0.061,-0.3639 0.125,-0.53125 0.064,-0.16734 0.13505,-0.29304 0.21875,-0.40625 0.0837,-0.11812 0.19116,-0.25194 0.34375,-0.375 0.15257,-0.12796 0.26672,-0.21235 0.375,-0.28125 0.10828,-0.07382 0.25538,-0.16804 0.4375,-0.28125 0.18211,-0.1132 0.32745,-0.1959 0.40625,-0.25 z m 53.625,0 0,2.59375 c -0.01,0.0099 -0.0164,0.0379 -0.0312,0.0625 -0.0935,0.12305 -0.186,0.20745 -0.25,0.28125 -0.064,0.07383 -0.15328,0.1712 -0.28125,0.25 -0.12306,0.07873 -0.24211,0.09375 -0.375,0.09375 -0.63002,0 -0.96875,-0.37365 -0.96875,-1.15625 0,-0.18211 0.0298,-0.3639 0.0937,-0.53125 0.064,-0.16734 0.13505,-0.29304 0.21875,-0.40625 0.0837,-0.11812 0.22242,-0.25194 0.375,-0.375 0.15258,-0.12796 0.26671,-0.21235 0.375,-0.28125 0.10828,-0.07382 0.25538,-0.16804 0.4375,-0.28125 0.18211,-0.1132 0.32745,-0.1959 0.40625,-0.25 z m -29.75,15.28125 c -0.79484,10e-6 -1.45591,0.2294 -1.9375,0.6875 -0.4816,0.45811 -0.71875,1.06851 -0.71875,1.84375 0,0.53251 0.1089,1.01856 0.3125,1.4375 0.20752,0.41504 0.46794,0.76109 0.8125,1.03125 l 1.90625,1.5 c 0.17619,0.14096 0.30444,0.2771 0.40625,0.375 0.10179,0.09397 0.21845,0.21447 0.34375,0.375 0.12529,0.15662 0.22255,0.30815 0.28125,0.5 0.0627,0.18794 0.0937,0.40182 0.0937,0.625 -1e-5,0.75176 -0.37325,1.125 -1.125,1.125 -0.92796,0 -1.45685,-0.74648 -1.53125,-2.25 l -1.5,0.375 c 0.0587,0.96319 0.34649,1.72526 0.84375,2.28125 0.50117,0.55599 1.23996,0.84375 2.1875,0.84375 0.80265,0 1.43248,-0.22164 1.90625,-0.65625 0.47768,-0.43461 0.71874,-1.04117 0.71875,-1.8125 -1e-5,-1.12764 -0.49766,-2.09576 -1.5,-2.90625 l -1.875,-1.5 c -0.50118,-0.39937 -0.78126,-0.90877 -0.78125,-1.5 -1e-5,-0.36021 0.11673,-0.64405 0.3125,-0.84375 0.19577,-0.20359 0.48352,-0.28124 0.84375,-0.28125 0.45026,1e-5 0.76899,0.14777 1,0.4375 0.23492,0.28583 0.40215,0.64733 0.46875,1.125 0.0157,0.13313 0.0273,0.2459 0.0312,0.3125 l 1.5,-0.375 c -0.0156,-0.14486 -0.0508,-0.26155 -0.0625,-0.34375 -0.11746,-0.7635 -0.40117,-1.36621 -0.90625,-1.78125 -0.50118,-0.41894 -1.1777,-0.62499 -2.03125,-0.625 z m 10.1875,0 c -2.04385,10e-6 -3.0625,1.29866 -3.0625,3.875 l 0,2.65625 c 0,0.52467 0.0116,1.00296 0.0625,1.40625 0.0509,0.40329 0.14812,0.79212 0.28125,1.15625 0.13312,0.36414 0.30807,0.64007 0.53125,0.875 0.22318,0.23492 0.52261,0.42546 0.875,0.5625 0.3563,0.13705 0.7684,0.21875 1.25,0.21875 0.70869,0 1.20634,-0.42776 1.5,-1.25 l 0.375,1.125 1.125,0 0,-5.25 -3,0 0,1.125 1.5,0 0,0.375 c 0,0.30149 -0.008,0.57757 -0.0312,0.8125 -0.0196,0.23492 -0.0623,0.47992 -0.125,0.71875 -0.0626,0.23885 -0.14038,0.43714 -0.25,0.59375 -0.10572,0.1527 -0.25348,0.2771 -0.4375,0.375 -0.18403,0.09793 -0.40567,0.125 -0.65625,0.125 -0.21144,0 -0.39806,-0.03105 -0.5625,-0.09375 C 180.12071,41.21469 179.98463,41.12138 179.875,41 c -0.10572,-0.12529 -0.20685,-0.25355 -0.28125,-0.40625 -0.0704,-0.1527 -0.11705,-0.32373 -0.15625,-0.53125 -0.0352,-0.21143 -0.078,-0.42531 -0.0937,-0.625 -0.0155,-0.2036 0,-0.43691 0,-0.6875 l 0,-3.375 c 0,-0.34064 0.0155,-0.65174 0.0625,-0.90625 0.047,-0.25841 0.10912,-0.47606 0.21875,-0.6875 0.11355,-0.21534 0.29248,-0.39036 0.5,-0.5 0.21143,-0.11352 0.47584,-0.15624 0.78125,-0.15625 0.22318,0 0.40196,0.02725 0.5625,0.09375 0.16444,0.06266 0.30835,0.14038 0.40625,0.25 0.0979,0.10572 0.16395,0.23398 0.21875,0.40625 0.0588,0.17229 0.1054,0.35115 0.125,0.53125 0.0235,0.1762 0.0273,0.40959 0.0312,0.65625 l 0,0.3125 1.5,0 c 0,-0.14486 0.004,-0.27325 0,-0.34375 -0.0196,-0.49725 -0.074,-0.90536 -0.1875,-1.28125 -0.11355,-0.37979 -0.30807,-0.71808 -0.53125,-1 -0.22318,-0.2819 -0.51479,-0.51137 -0.875,-0.65625 -0.36022,-0.14878 -0.76058,-0.21874 -1.25,-0.21875 z m 16,0 c -0.68912,10e-6 -1.24905,0.22165 -1.65625,0.65625 -0.4072,0.43462 -0.59375,1.01398 -0.59375,1.71875 0,0.27409 0.0389,0.56961 0.125,0.875 0.0861,0.30149 0.1599,0.52691 0.25,0.71875 0.09,0.18795 0.23397,0.43286 0.40625,0.75 0.17227,0.31324 0.28895,0.54271 0.34375,0.65625 -1.00235,0.88489 -1.5,1.88019 -1.5,3 0,0.71261 0.19046,1.28806 0.59375,1.71875 0.40329,0.4307 0.9593,0.65625 1.65625,0.65625 0.49334,0 0.9327,-0.09723 1.3125,-0.28125 0.3837,-0.18794 0.69082,-0.43677 0.9375,-0.75 L 198.9375,41.75 c 0.0979,0.09395 0.1679,0.14055 0.1875,0.15625 0.0196,0.01566 0.0661,0.07405 0.15625,0.15625 0.09,0.08228 0.1483,0.13275 0.1875,0.15625 0.0392,0.01958 0.1014,0.0624 0.1875,0.125 0.09,0.05874 0.15605,0.1015 0.21875,0.125 0.0626,0.0195 0.1599,0.0312 0.25,0.0625 0.09,0.0352 0.1639,0.0545 0.25,0.0625 0.09,0.0116 0.18335,0.03125 0.28125,0.03125 l 0,-1.625 c -0.3289,0 -0.64385,-0.16319 -0.9375,-0.53125 0.2545,-0.3837 0.47222,-0.83083 0.65625,-1.34375 0.18404,-0.51292 0.28124,-1.02232 0.28125,-1.5 l -1.5,0 c -0.0431,0.36414 -0.0742,0.61688 -0.0937,0.75 -0.0156,0.12921 -0.0428,0.29632 -0.0937,0.53125 -0.0509,0.23492 -0.117,0.43713 -0.1875,0.59375 l -1.5,-2.25 c 0.18793,-0.18794 0.36295,-0.35121 0.5,-0.5 0.14095,-0.1527 0.28081,-0.35098 0.46875,-0.59375 0.18794,-0.24666 0.35129,-0.49948 0.46875,-0.71875 0.12138,-0.21925 0.2264,-0.46808 0.3125,-0.75 0.0861,-0.2819 0.12499,-0.53841 0.125,-0.8125 -1e-5,-0.60688 -0.22555,-1.11244 -0.65625,-1.46875 -0.42678,-0.36021 -0.94771,-0.53124 -1.59375,-0.53125 z M 132.5625,32 l 1.875,10.5 1.5,0 0.75,-4.875 0.375,-3 0.375,3 0.75,4.875 1.5,0 1.875,-10.5 -1.5,0 -0.75,4.875 -0.375,3 -0.375,-3 -0.75,-4.875 -1.5,0 -0.75,4.875 -0.375,3 -0.375,-3 -0.75,-4.875 -1.5,0 z m 9.84375,0 0,10.5 4.125,0 0,-1.125 -2.625,0 0,-3.75 1.875,0 0,-1.125 -1.875,0 0,-3.375 2.625,0 0,-1.125 -4.125,0 z m 5.0625,0 0,10.5 2.625,0 c 0.92795,0 1.65109,-0.24484 2.1875,-0.78125 0.54033,-0.54033 0.81249,-1.2908 0.8125,-2.21875 -1e-5,-0.74393 -0.15553,-1.31938 -0.46875,-1.71875 -0.31324,-0.40329 -0.77979,-0.69873 -1.40625,-0.90625 0.57947,-0.16053 1.00325,-0.40935 1.28125,-0.75 0.27799,-0.34455 0.40625,-0.8422 0.40625,-1.5 0,-0.45418 -0.0621,-0.84685 -0.21875,-1.1875 -0.15271,-0.34063 -0.36651,-0.63623 -0.65625,-0.84375 C 151.74542,32.38624 151.38371,32.22681 151,32.125 150.61628,32.0232 150.20425,32.00001 149.71875,32 l -2.25,0 z m 9.15625,0 0,10.5 2.34375,0 c 1.09239,0 1.85439,-0.26434 2.3125,-0.8125 0.46201,-0.55207 0.6875,-1.40745 0.6875,-2.5625 l 0,-4.125 c 0,-1.10414 -0.23332,-1.89347 -0.6875,-2.34375 -0.45028,-0.45027 -1.21227,-0.65624 -2.3125,-0.65625 l -2.34375,0 z m 6.65625,0 0,10.5 4.15625,0 0,-1.125 -2.65625,0 0,-3.75 1.875,0 0,-1.125 -1.875,0 0,-3.375 2.65625,0 0,-1.125 -4.15625,0 z m 11.625,0 0,10.5 0.15625,0 -0.78125,2.34375 0.8125,0 1.59375,-2.40625 -0.28125,0 0,-10.4375 -1.5,0 z m 10.15625,0 0,10.5 1.5,0 0,-7 2.6875,7 1.0625,0 0,-10.5 -1.5,0 0,6.5 -2.625,-6.5 -1.125,0 z m -36.09375,1.125 c 0.26624,0 0.44888,-0.004 0.59375,0 0.14487,0.0039 0.34715,0.01165 0.5625,0.03125 0.21926,0.0156 0.38253,0.05465 0.5,0.09375 0.11746,0.03917 0.23404,0.08185 0.375,0.15625 0.14486,0.07049 0.27325,0.17554 0.34375,0.28125 0.0705,0.10572 0.10535,0.21447 0.15625,0.375 0.0508,0.15662 0.0937,0.35499 0.0937,0.5625 -1e-5,1.25294 -0.62208,1.875 -1.875,1.875 l -0.75,0 0,-3.375 z m 9.1875,0 0.78125,0 c 0.16444,0 0.30437,0.0078 0.4375,0.03125 0.13312,0.0196 0.24585,0.0273 0.34375,0.0625 0.1018,0.03133 0.20685,0.08575 0.28125,0.15625 0.0783,0.06657 0.1366,0.15615 0.1875,0.21875 0.0548,0.06265 0.0897,0.13646 0.125,0.25 0.0352,0.10964 0.0742,0.2224 0.0937,0.3125 0.0196,0.09006 0.0232,0.18714 0.0312,0.34375 0.0116,0.15271 0.0312,0.29272 0.0312,0.40625 0.004,0.11356 0,0.2769 0,0.46875 l 0,3.375 0,0.21875 c 0,0.30932 0.004,0.53871 0,0.6875 -0.004,0.14487 -0.0351,0.33541 -0.0625,0.5625 -0.0235,0.2271 -0.0624,0.39037 -0.125,0.5 -0.0626,0.10572 -0.14037,0.22238 -0.25,0.34375 -0.10964,0.11747 -0.26131,0.203 -0.4375,0.25 -0.1762,0.0431 -0.37833,0.0625 -0.625,0.0625 l -0.8125,0 0,-8.25 z m 38.75,0 c 0.22709,1e-5 0.39421,0.05047 0.53125,0.1875 0.13706,0.13705 0.21874,0.33541 0.21875,0.5625 -1e-5,0.45811 -0.0933,0.91291 -0.28125,1.40625 -0.18403,0.48943 -0.40567,0.90552 -0.65625,1.21875 -0.11355,-0.27407 -0.21465,-0.49955 -0.28125,-0.6875 -0.0666,-0.19185 -0.1209,-0.45242 -0.1875,-0.75 -0.0665,-0.29757 -0.0937,-0.55799 -0.0937,-0.8125 0,-0.30931 0.0661,-0.59323 0.1875,-0.8125 0.12529,-0.22317 0.30799,-0.31249 0.5625,-0.3125 z m -47.9375,4.5 0.75,0 c 0.64995,0 1.10475,0.13602 1.40625,0.4375 0.30148,0.29757 0.46874,0.78363 0.46875,1.4375 -1e-5,0.65388 -0.16727,1.13602 -0.46875,1.4375 -0.3015,0.29757 -0.7563,0.4375 -1.40625,0.4375 l -0.75,0 0,-3.75 z m 47.375,0.75 c 0.0392,0.11746 0.0974,0.23797 0.1875,0.375 0.0901,0.13313 0.19112,0.27697 0.3125,0.4375 0.12529,0.15662 0.23035,0.2928 0.28125,0.375 l 0.71875,1.0625 c -0.39938,0.50117 -0.83482,0.75 -1.3125,0.75 -0.26625,0 -0.44504,-0.10107 -0.5625,-0.3125 -0.11749,-0.21143 -0.1875,-0.4836 -0.1875,-0.8125 0,-0.36022 0.0545,-0.69844 0.15625,-1.03125 0.10571,-0.33281 0.23397,-0.61665 0.40625,-0.84375 z m -44.8125,7.09375 c -0.56387,1e-5 -1.0636,0.08711 -1.46875,0.25 -0.40097,0.16291 -0.69943,0.39297 -0.9375,0.71875 -0.23808,0.32162 -0.42265,0.71769 -0.53125,1.15625 -0.10859,0.43857 -0.15625,0.94233 -0.15625,1.53125 l 0,4.0625 c 0,0.58893 0.0477,1.11559 0.15625,1.5625 0.1086,0.44275 0.29317,0.82628 0.53125,1.15625 0.23807,0.32997 0.53653,0.57876 0.9375,0.75 0.40515,0.17128 0.90488,0.28125 1.46875,0.28125 0.55969,0 1.03652,-0.11 1.4375,-0.28125 0.40515,-0.17542 0.73066,-0.42003 0.96875,-0.75 0.23807,-0.33414 0.39139,-0.7135 0.5,-1.15625 0.11276,-0.44691 0.18749,-0.98192 0.1875,-1.5625 l 0,-4.0625 c -1e-5,-1.1862 -0.23424,-2.09222 -0.71875,-2.71875 -0.48451,-0.62651 -1.28068,-0.93749 -2.375,-0.9375 z m 38.875,0 c -0.47198,1e-5 -0.8908,0.05386 -1.25,0.1875 -0.35921,0.13367 -0.64528,0.32861 -0.875,0.5625 -0.22973,0.23391 -0.41632,0.51998 -0.5625,0.875 -0.14202,0.35086 -0.254,0.72404 -0.3125,1.125 -0.0585,0.40099 -0.0937,0.86961 -0.0937,1.375 l 0,3.1875 c 0,0.5054 0.0352,0.97403 0.0937,1.375 0.0585,0.40098 0.17048,0.76997 0.3125,1.125 0.14618,0.35085 0.33277,0.63693 0.5625,0.875 0.22972,0.2339 0.51579,0.42884 0.875,0.5625 0.3592,0.13369 0.77802,0.21875 1.25,0.21875 0.55133,0 1.0178,-0.10582 1.40625,-0.28125 0.39262,-0.17543 0.71195,-0.41585 0.9375,-0.75 0.22972,-0.33832 0.39975,-0.74893 0.5,-1.1875 0.10443,-0.43856 0.15624,-0.95067 0.15625,-1.53125 l 0,-0.375 -1.625,0 0,0.375 c 0,0.27567 -0.0146,0.54116 -0.0312,0.75 -0.0167,0.20884 -0.0352,0.40363 -0.0937,0.625 -0.0543,0.22138 -0.14976,0.42049 -0.25,0.5625 -0.0961,0.14201 -0.20375,0.25185 -0.375,0.34375 -0.17125,0.09193 -0.38693,0.125 -0.625,0.125 -0.23808,0 -0.4454,-0.0373 -0.625,-0.125 -0.17543,-0.09188 -0.3289,-0.19756 -0.4375,-0.34375 -0.10442,-0.14619 -0.1832,-0.31823 -0.25,-0.53125 -0.0668,-0.21719 -0.0999,-0.43906 -0.125,-0.65625 -0.0209,-0.2172 -0.0312,-0.48268 -0.0312,-0.75 l 0,-4 c 0,-0.30907 -0.0167,-0.57241 0,-0.78125 0.0167,-0.21301 0.0707,-0.43487 0.125,-0.65625 0.0585,-0.22136 0.14558,-0.37051 0.25,-0.5 0.10442,-0.13365 0.22247,-0.26015 0.40625,-0.34375 0.18795,-0.0835 0.42853,-0.12499 0.6875,-0.125 0.20048,0 0.38088,0.0166 0.53125,0.0625 0.15036,0.04178 0.2789,0.12265 0.375,0.21875 0.10023,0.0919 0.15605,0.19973 0.21875,0.3125 0.0669,0.1086 0.12285,0.23919 0.15625,0.40625 0.0334,0.16708 0.05,0.34129 0.0625,0.5 0.0126,0.15455 0.0273,0.34113 0.0312,0.5625 l 0,0.34375 1.625,0 c 0,-0.16706 -0.0273,-0.2956 -0.0312,-0.375 -0.0209,-0.53045 -0.0706,-0.9782 -0.1875,-1.375 -0.11278,-0.39679 -0.30153,-0.76176 -0.53125,-1.0625 -0.22555,-0.30072 -0.52617,-0.53295 -0.90625,-0.6875 -0.3801,-0.15451 -0.82165,-0.21874 -1.34375,-0.21875 z m -57.46875,0.125 0,11.21875 1.59375,0 0,-11.21875 -1.59375,0 z m 3.34375,0 0,11.21875 1.59375,0 0,-7.46875 2.875,7.46875 1.125,0 0,-11.21875 -1.59375,0 0,6.9375 -2.8125,-6.9375 -1.1875,0 z m 7.21875,0 0,11.21875 1.59375,0 0,-5.21875 2,0 0,-1.1875 -2,0 0,-3.625 2.8125,0 0,-1.1875 -4.40625,0 z m 12.53125,0 0,11.21875 1.59375,0 0,-5.21875 1.1875,0 1.625,5.21875 1.59375,0 -1.8125,-5.625 c 0.45945,-0.16706 0.82442,-0.45515 1.0625,-0.90625 0.23807,-0.45109 0.34374,-1.0192 0.34375,-1.6875 -1e-5,-1.07761 -0.30061,-1.84887 -0.90625,-2.3125 -0.60564,-0.46362 -1.49294,-0.68749 -2.6875,-0.6875 l -2,0 z m 6.9375,0 0,11.21875 1.59375,0 0,-8.875 1.59375,8.875 1.21875,0 1.59375,-8.875 0,8.875 1.625,0 0,-11.21875 -2.21875,0 -1.59375,8.59375 -1.59375,-8.59375 -2.21875,0 z m 10.90625,0 -2.40625,11.21875 1.625,0 0.59375,-2.8125 2,0 0.59375,2.8125 1.625,0 -2.40625,-11.21875 -1.625,0 z m 3.8125,0 0,1.40625 2,0 0,9.8125 1.625,0 0,-9.8125 2,0 0,-1.40625 -5.625,0 z m 6.5,0 0,11.21875 1.59375,0 0,-11.21875 -1.59375,0 z m 11.96875,0 -2.40625,11.21875 1.625,0 0.59375,-2.8125 2,0 0.59375,2.8125 1.625,0 -2.40625,-11.21875 -1.625,0 z m -44.625,1.1875 c 0.56804,1e-5 0.94323,0.1784 1.15625,0.5 0.21301,0.32163 0.3125,0.78592 0.3125,1.4375 l 0,4.875 c 0,0.65994 -0.0953,1.16168 -0.3125,1.5 -0.21302,0.33832 -0.59238,0.5 -1.15625,0.5 -0.56387,0 -0.97031,-0.16168 -1.1875,-0.5 -0.21302,-0.33832 -0.3125,-0.84006 -0.3125,-1.5 l 0,-4.875 c 0,-0.65158 0.0995,-1.11587 0.3125,-1.4375 0.21301,-0.3216 0.61945,-0.49999 1.1875,-0.5 z m 6.09375,0 0.40625,0 c 0.66828,1e-5 1.16585,0.15349 1.5,0.4375 0.33414,0.27986 0.5,0.73596 0.5,1.375 0,0.63906 -0.16586,1.09099 -0.5,1.375 -0.33415,0.27986 -0.83172,0.43751 -1.5,0.4375 l -0.40625,0 0,-3.625 z M 174.6875,48 l 0.8125,4.8125 -1.625,0 L 174.6875,48 z m 22.28125,0 0.8125,4.8125 -1.625,0 0.8125,-4.8125 z"
       transform="translate(282.98777,429.86219)"
       id="path3113"
       style="font-size:12.02816009999999913px;font-style:normal;font-variant:normal;font-weight:normal;font-stretch:normal;text-align:start;line-height:125%;letter-spacing:0px;word-spacing:0px;text-anchor:start;fill:#4d4d4d;fill-opacity:1;stroke:none;font-family:Oswald;-inkscape-font-specification:Oswald" />
    <path
       d="m 407,437.875 0,0.5 0,47.96875 0,0.5 1,0 0,-0.5 0,-47.96875 0,-0.5 -1,0 z"
       id="path6907-6-7"
       style="font-size:medium;font-style:normal;font-variant:normal;font-weight:normal;font-stretch:normal;text-indent:0;text-align:start;text-decoration:none;line-height:normal;letter-spacing:normal;word-spacing:normal;text-transform:none;direction:ltr;block-progression:tb;writing-mode:lr-tb;text-anchor:start;baseline-shift:baseline;color:#000000;fill:#cccccc;fill-opacity:1;fill-rule:nonzero;stroke:none;stroke-width:1;marker:none;visibility:visible;display:inline;overflow:visible;enable-background:accumulate;font-family:Sans;-inkscape-font-specification:Sans" />
    <path
       d="m 358.33511,442.2315 6.06726,8.56369 33.43315,0 0,-8.56369 -33.46475,0 -6.03566,0 z m 11.12331,15.67376 6.06727,8.56369 4.01324,0 18.29659,0 0,-8.56369 -18.29659,0 -10.08051,0 z m -26.38627,15.70537 0,8.56369 26.07027,0 -5.46686,-7.64728 a 2.8604217,2.8604217 0 0 1 -0.1264,-0.2212 2.8604217,2.8604217 0 0 1 -0.0632,-0.1264 l -0.4108,-0.56881 -20.00301,0 z m 37.50959,0 4.39245,6.13046 a 2.8604217,2.8604217 0 0 1 0,0.0316 l 1.70641,2.40163 11.15492,0 0,-8.56369 -17.25378,0 z"
       id="path6605"
       style="font-size:medium;font-style:normal;font-variant:normal;font-weight:normal;font-stretch:normal;text-indent:0;text-align:start;text-decoration:none;line-height:normal;letter-spacing:normal;word-spacing:normal;text-transform:none;direction:ltr;block-progression:tb;writing-mode:lr-tb;text-anchor:start;baseline-shift:baseline;color:#000000;fill:#ff5300;fill-opacity:1;stroke:none;stroke-width:25;marker:none;visibility:visible;display:inline;overflow:visible;enable-background:accumulate;font-family:Sans;-inkscape-font-specification:Sans" />
    <path
       style="font-size:medium;font-style:normal;font-variant:normal;font-weight:normal;font-stretch:normal;text-indent:0;text-align:start;text-decoration:none;line-height:normal;letter-spacing:normal;word-spacing:normal;text-transform:none;direction:ltr;block-progression:tb;writing-mode:lr-tb;text-anchor:start;baseline-shift:baseline;color:#000000;fill:#4d4d4d;fill-opacity:1;stroke:none;stroke-width:25;marker:none;visibility:visible;display:inline;overflow:visible;enable-background:accumulate;font-family:Sans;-inkscape-font-specification:Sans"
       d="M 0 0 L 38.34375 54.03125 L 46.125 65 L 46.125 51.5625 L 46.125 8.5625 L 58.625 8.5625 L 83.03125 42.96875 L 89.125 51.53125 L 98.5 64.75 L 109 64.75 L 99.625 51.53125 L 93.53125 42.96875 L 64.34375 1.8125 L 63.0625 0 L 37.5625 0 L 37.5625 4.28125 L 37.5625 38.125 L 10.5 0 L 0 0 z M 48.625 11.0625 L 48.625 14.71875 L 57.1875 14.71875 L 57.1875 11.0625 L 48.625 11.0625 z M 48.625 17.5 L 48.625 64.75 L 57.1875 64.75 L 57.1875 17.5 L 48.625 17.5 z "
       transform="translate(282.98777,429.86219)"
       id="path6607" />
  </g>
</svg>
