<?xml version="1.0" encoding="UTF-8" standalone="no"?>
<!-- Created with Inkscape (http://www.inkscape.org/) -->

<svg
   xmlns:dc="http://purl.org/dc/elements/1.1/"
   xmlns:cc="http://creativecommons.org/ns#"
   xmlns:rdf="http://www.w3.org/1999/02/22-rdf-syntax-ns#"
   xmlns:svg="http://www.w3.org/2000/svg"
   xmlns="http://www.w3.org/2000/svg"
   xmlns:sodipodi="http://sodipodi.sourceforge.net/DTD/sodipodi-0.dtd"
   xmlns:inkscape="http://www.inkscape.org/namespaces/inkscape"
   inkscape:export-ydpi="90"
   inkscape:export-xdpi="90"
   inkscape:export-filename="orcamento-preview.png"
   sodipodi:docname="icon-start.svg"
   inkscape:version="0.48.4 r9939"
   version="1.1"
   id="svg2"
   height="16"
   width="16">
  <sodipodi:namedview
     id="base"
     pagecolor="#d6cfc9"
     bordercolor="#cfcfcf"
     borderopacity="1"
     inkscape:pageopacity="0"
     inkscape:pageshadow="2"
     inkscape:zoom="32"
     inkscape:cx="14.165574"
     inkscape:cy="6.9775528"
     inkscape:document-units="px"
     inkscape:current-layer="layer1"
     showgrid="true"
     inkscape:window-width="1920"
     inkscape:window-height="1025"
     inkscape:window-x="-4"
     inkscape:window-y="31"
     inkscape:window-maximized="1"
     inkscape:snap-bbox="true"
     inkscape:bbox-paths="true"
     inkscape:bbox-nodes="true"
     inkscape:snap-bbox-edge-midpoints="true"
     inkscape:snap-bbox-midpoints="true"
     inkscape:snap-nodes="true"
     inkscape:object-paths="true"
     inkscape:snap-intersection-paths="true"
     inkscape:object-nodes="true"
     inkscape:snap-smooth-nodes="true"
     inkscape:snap-midpoints="true"
     inkscape:snap-object-midpoints="true"
     inkscape:snap-center="true"
     inkscape:showpageshadow="false"
     inkscape:snap-global="true"
     showborder="true"
     showguides="true"
     inkscape:guide-bbox="true"
     fit-margin-top="0"
     fit-margin-left="0"
     fit-margin-right="0"
     fit-margin-bottom="0"
     inkscape:snap-page="true">
    <sodipodi:guide
       id="guide3752"
       position="-400,3009.9999"
       orientation="1,0" />
    <inkscape:grid
       originy="2110px"
       originx="-370px"
       snapvisiblegridlinesonly="true"
       enabled="true"
       visible="true"
       empspacing="5"
       id="grid3754"
       type="xygrid" />
    <sodipodi:guide
       id="guide3756"
       position="-400,3009.9999"
       orientation="0,1" />
    <sodipodi:guide
       id="guide3758"
       position="560,3009.9999"
       orientation="1,0" />
    <sodipodi:guide
       id="guide5025"
       position="1780.3622,2906.0944"
       orientation="0,1" />
    <sodipodi:guide
       id="guide5027"
       position="1780.3622,2161.9999"
       orientation="0,1" />
    <sodipodi:guide
       id="guide5029"
       position="728,2617.9999"
       orientation="1,0" />
    <sodipodi:guide
       id="guide5031"
       position="1780.3622,2648.9999"
       orientation="1,0" />
    <sodipodi:guide
       id="guide5033"
       position="763.4331,2870.6613"
       orientation="0,1" />
    <sodipodi:guide
       id="guide5035"
       position="763.4331,2906.0944"
       orientation="1,0" />
    <sodipodi:guide
       id="guide5037"
       position="1744.9292,2197.433"
       orientation="1,0" />
    <sodipodi:guide
       id="guide5039"
       position="1744.9292,2197.433"
       orientation="0,1" />
    <sodipodi:guide
       id="guide5093"
       position="1500,2789.9999"
       orientation="0,1" />
    <sodipodi:guide
       id="guide4160"
       position="1510,2754.5669"
       orientation="0,1" />
  </sodipodi:namedview>
  <defs
     id="defs4" />
  <metadata
     id="metadata7">
    <rdf:RDF>
      <cc:Work
         rdf:about="">
        <dc:format>image/svg+xml</dc:format>
        <dc:type
           rdf:resource="http://purl.org/dc/dcmitype/StillImage" />
        <dc:title />
      </cc:Work>
    </rdf:RDF>
  </metadata>
  <g
     transform="translate(-370,-3146.3623)"
     id="layer1"
     inkscape:groupmode="layer"
     inkscape:label="Camada 1">
    <path
       inkscape:connector-curvature="0"
       id="rect3004"
       d="m 372.5,3148.3623 c -0.27702,0 -0.5,0.223 -0.5,0.5 l 0,1 c 0,0.2771 0.22298,0.5 0.5,0.5 l 1,0 c 0.27701,0 0.5,-0.2229 0.5,-0.5 l 0,-1 c 0,-0.277 -0.22299,-0.5 -0.5,-0.5 l -1,0 z m 5,0 c -0.27702,0 -0.5,0.223 -0.5,0.5 l 0,1 c 0,0.2771 0.22298,0.5 0.5,0.5 l 1,0 c 0.27701,0 0.5,-0.2229 0.5,-0.5 l 0,-1 c 0,-0.277 -0.22299,-0.5 -0.5,-0.5 l -1,0 z m 5,0 c -0.27702,0 -0.5,0.223 -0.5,0.5 l 0,1 c 0,0.2771 0.22298,0.5 0.5,0.5 l 1,0 c 0.27702,0 0.5,-0.2229 0.5,-0.5 l 0,-1 c 0,-0.277 -0.22298,-0.5 -0.5,-0.5 l -1,0 z m -10,5 c -0.27702,0 -0.5,0.223 -0.5,0.5 l 0,1 c 0,0.2771 0.22298,0.5 0.5,0.5 l 1,0 c 0.27701,0 0.5,-0.2229 0.5,-0.5 l 0,-1 c 0,-0.277 -0.22299,-0.5 -0.5,-0.5 l -1,0 z m 5,0 c -0.27702,0 -0.5,0.223 -0.5,0.5 l 0,1 c 0,0.2771 0.22298,0.5 0.5,0.5 l 1,0 c 0.27701,0 0.5,-0.2229 0.5,-0.5 l 0,-1 c 0,-0.277 -0.22299,-0.5 -0.5,-0.5 l -1,0 z m 5,0 c -0.27702,0 -0.5,0.223 -0.5,0.5 l 0,1 c 0,0.2771 0.22298,0.5 0.5,0.5 l 1,0 c 0.27702,0 0.5,-0.2229 0.5,-0.5 l 0,-1 c 0,-0.277 -0.22298,-0.5 -0.5,-0.5 l -1,0 z m -10,5 c -0.27702,0 -0.5,0.223 -0.5,0.5 l 0,1 c 0,0.277 0.22298,0.5 0.5,0.5 l 1,0 c 0.27702,0 0.5,-0.223 0.5,-0.5 l 0,-1 c 0,-0.277 -0.22298,-0.5 -0.5,-0.5 l -1,0 z m 5,0 c -0.27702,0 -0.5,0.223 -0.5,0.5 l 0,1 c 0,0.2771 0.22298,0.5 0.5,0.5 l 1,0 c 0.27701,0 0.5,-0.2229 0.5,-0.5 l 0,-1 c 0,-0.277 -0.22299,-0.5 -0.5,-0.5 l -1,0 z m 5,0 c -0.27702,0 -0.5,0.223 -0.5,0.5 l 0,1 c 0,0.2771 0.22298,0.5 0.5,0.5 l 1,0 c 0.27702,0 0.5,-0.2229 0.5,-0.5 l 0,-1 c 0,-0.277 -0.22298,-0.5 -0.5,-0.5 l -1,0 z"
       style="color:#000000;fill:#000000;fill-opacity:1;fill-rule:nonzero;stroke:none;stroke-width:1;marker:none;visibility:visible;display:inline;overflow:visible;enable-background:accumulate"
       class="vui_change_color" />
  </g>
</svg>
