<?xml version="1.0" encoding="UTF-8" standalone="no"?>
<svg
   xmlns:dc="http://purl.org/dc/elements/1.1/"
   xmlns:cc="http://creativecommons.org/ns#"
   xmlns:rdf="http://www.w3.org/1999/02/22-rdf-syntax-ns#"
   xmlns:svg="http://www.w3.org/2000/svg"
   xmlns="http://www.w3.org/2000/svg"
   xmlns:sodipodi="http://sodipodi.sourceforge.net/DTD/sodipodi-0.dtd"
   xmlns:inkscape="http://www.inkscape.org/namespaces/inkscape"
   viewBox="0 0 93.749629 93.75013"
   width="26.458334mm"
   version="1.1"
   height="26.458332mm"
   id="svg27"
   sodipodi:docname="itau.svg"
   inkscape:version="0.92.1 r">
  <metadata
     id="metadata31">
    <rdf:RDF>
      <cc:Work
         rdf:about="">
        <dc:format>image/svg+xml</dc:format>
        <dc:type
           rdf:resource="http://purl.org/dc/dcmitype/StillImage" />
        <dc:title></dc:title>
      </cc:Work>
    </rdf:RDF>
  </metadata>
  <sodipodi:namedview
     pagecolor="#ffffff"
     bordercolor="#666666"
     borderopacity="1"
     objecttolerance="10"
     gridtolerance="10"
     guidetolerance="10"
     inkscape:pageopacity="0"
     inkscape:pageshadow="2"
     inkscape:window-width="640"
     inkscape:window-height="480"
     id="namedview29"
     showgrid="false"
     inkscape:snap-page="true"
     fit-margin-top="0"
     fit-margin-left="0"
     fit-margin-right="0"
     fit-margin-bottom="0"
     inkscape:zoom="3.8934522"
     inkscape:cx="10.716874"
     inkscape:cy="48.592003"
     inkscape:current-layer="svg27" />
  <defs
     id="defs5">
    <clipPath
       id="a"
       clipPathUnits="userSpaceOnUse">
      <path
         d="M 0,0 H 339.98 V 340 H 0 Z"
         id="path2"
         inkscape:connector-curvature="0" />
    </clipPath>
  </defs>
  <g
     id="g4578"
     transform="matrix(0.30382503,0,0,0.30382503,-5.9055725e-4,0)"
     style="stroke-width:3.29136801">
    <path
       id="rect4557"
       d="M 51.046521,0 H 257.51806 c 28.28022,0 51.04733,22.767107 51.04733,51.047325 V 257.51887 c 0,28.28022 -22.76711,51.04732 -51.04733,51.04732 H 51.046521 c -28.280219,0 -51.04732555106,-22.7671 -51.04732555106,-51.04732 V 51.047325 C -8.0455106e-4,22.767107 22.766302,0 51.046521,0 Z"
       style="color:#000000;clip-rule:nonzero;display:inline;overflow:visible;visibility:visible;opacity:1;isolation:auto;mix-blend-mode:normal;color-interpolation:sRGB;color-interpolation-filters:linearRGB;solid-color:#000000;solid-opacity:1;vector-effect:none;fill:#1a5493;fill-opacity:1;fill-rule:nonzero;stroke:none;stroke-width:3.08566189;stroke-linecap:butt;stroke-linejoin:miter;stroke-miterlimit:4;stroke-dasharray:none;stroke-dashoffset:0;stroke-opacity:1;marker:none;color-rendering:auto;image-rendering:auto;shape-rendering:auto;text-rendering:auto;enable-background:accumulate"
       inkscape:connector-curvature="0" />
    <path
       style="fill:#fff212;fill-rule:evenodd;stroke-width:2.92398953"
       inkscape:connector-curvature="0"
       id="path9"
       d="M 29.146168,255.0331 H 52.495433 V 153.75248 H 29.146168 Z" />
    <path
       style="fill:#fff212;fill-rule:evenodd;stroke-width:2.92398953"
       inkscape:connector-curvature="0"
       id="path11"
       d="m 157.12064,176.91522 h -1.33374 l -1.31608,0.0447 -1.2984,0.0536 -1.25425,0.0804 -1.23658,0.0715 -1.21891,0.11616 -1.20125,0.13403 -1.18358,0.13402 -1.14826,0.16977 -1.12175,0.16977 -1.11292,0.18764 -1.08642,0.20551 -1.0511,0.21445 -1.03342,0.22338 -1.01576,0.25018 -0.98927,0.25019 -0.96276,0.25912 -0.93627,0.26806 -0.90094,0.28592 -0.88327,0.28593 -0.8656,0.28593 -0.82144,0.30379 -0.80378,0.3038 -0.77728,0.32167 -0.75078,0.3038 -0.72428,0.32166 -0.69779,0.32167 -0.68011,0.32167 -0.63596,0.32167 -0.61829,0.32166 -0.58296,0.33061 -0.56529,0.32166 4.39869,14.92181 0.50346,-0.3038 0.52996,-0.3038 0.5388,-0.30379 0.56529,-0.28593 0.58296,-0.28593 0.60063,-0.28592 0.61829,-0.28593 0.63595,-0.25912 0.66245,-0.26806 0.67129,-0.26805 0.68012,-0.26806 0.68895,-0.24125 0.69778,-0.23232 0.71545,-0.24125 0.72428,-0.23231 0.73312,-0.20551 0.75078,-0.21445 0.75078,-0.18764 0.76845,-0.18764 0.75078,-0.16977 0.77727,-0.16976 0.78612,-0.1519 0.76844,-0.13403 0.78611,-0.13403 0.76845,-0.11616 0.79494,-0.0893 0.78611,-0.0983 0.76845,-0.0536 0.78611,-0.0625 0.76844,-0.0536 0.79495,-0.0179 h 0.76844 l 1.23658,0.0179 1.20125,0.0536 1.12176,0.0983 1.05109,0.11616 1.01576,0.16977 0.96276,0.18764 0.90094,0.22338 0.83911,0.25019 0.81261,0.28592 0.75078,0.3038 0.68895,0.32167 0.63595,0.33953 0.60063,0.36635 0.56529,0.37528 0.52996,0.40208 0.46814,0.39315 0.4328,0.41996 0.4063,0.43782 0.36215,0.41996 0.31797,0.43782 0.28265,0.4557 0.26498,0.43782 0.22082,0.42889 0.20315,0.43783 0.17666,0.43782 0.12365,0.41996 0.11483,0.41995 0.0972,0.39315 0.0707,0.40209 0.0442,0.37528 0.0353,0.36634 v 0.33954 0.8131 l -2.79996,0.0268 -2.73814,0.0715 -2.66748,0.13403 -2.58799,0.18764 -2.51732,0.25018 -2.43782,0.32167 -2.38484,0.35741 -2.28767,0.43782 -2.21701,0.47357 -2.11985,0.55398 -2.06685,0.6076 -1.9697,0.6612 -1.87253,0.72376 -1.80187,0.77736 -1.73121,0.83991 -1.63405,0.89352 -1.5369,0.94713 -1.44856,1.00075 -1.36907,1.06329 -1.25424,1.1437 -1.18359,1.17677 -1.06875,1.23395 -0.98044,1.30991 -0.90093,1.34832 -0.76845,1.40461 -0.68895,1.48146 -0.58296,1.51899 -0.46813,1.59493 -0.37981,1.63247 -0.28264,1.69054 -0.15016,1.7656 -0.053,1.80402 0.0177,1.08205 0.0707,1.08205 0.13249,1.08206 0.19432,1.06329 0.23848,1.06329 0.28265,1.06329 0.33564,1.04453 0.39748,1.02576 0.4328,1.0061 0.50346,0.98734 0.54763,0.96858 0.58296,0.94892 0.63595,0.93016 0.69779,0.89262 0.75078,0.87387 0.78611,0.83544 0.83911,0.79702 0.88327,0.75949 0.9451,0.72197 0.9716,0.68354 1.03342,0.64512 1.08643,0.6076 1.13058,0.55041 1.18359,0.49411 1.21891,0.4557 1.25424,0.39851 1.33374,0.34222 1.35141,0.28414 1.4044,0.22785 1.44856,0.17155 1.50156,0.0947 1.53689,0.0375 0.93627,-0.0188 0.92744,-0.0375 0.90093,-0.0384 0.90094,-0.076 0.87444,-0.0947 0.88327,-0.11437 0.8656,-0.13224 0.86561,-0.1519 0.83911,-0.19032 0.83027,-0.18943 0.82144,-0.20908 0.81261,-0.22785 0.78611,-0.24661 0.78611,-0.26627 0.76845,-0.3038 0.75078,-0.3038 0.73311,-0.32256 0.73312,-0.34222 0.71545,-0.34132 0.69778,-0.37975 0.67129,-0.39851 0.65362,-0.3994 0.66245,-0.43604 0.61829,-0.43693 0.61829,-0.4557 0.60062,-0.47446 0.58296,-0.49411 0.54763,-0.51289 0.5388,-0.51198 0.52996,-0.53165 0.50346,-0.5513 0.4858,-0.56917 h 0.26498 l 2.55266,7.87996 h 18.99915 v -44.88782 l -0.0265,-1.70663 -0.0883,-1.67088 -0.13249,-1.65302 -0.18549,-1.63514 -0.24732,-1.60834 -0.31797,-1.58153 -0.35331,-1.53686 -0.4328,-1.50111 -0.5123,-1.47431 -0.5388,-1.42964 -0.64478,-1.38496 -0.68896,-1.34921 -0.76844,-1.30454 -0.83028,-1.25987 -0.9186,-1.21519 -0.9716,-1.15264 -1.05109,-1.10797 -1.14825,-1.03648 -1.21891,-0.99181 -1.29841,-0.92926 -1.36907,-0.87565 -1.46623,-0.79523 -1.53689,-0.74163 -1.63405,-0.6612 -1.70472,-0.6076 -1.81953,-0.51824 -1.89904,-0.4557 -1.98736,-0.37527 -2.08452,-0.28593 -2.18167,-0.20551 -2.27001,-0.13403 z m 13.31972,50.11135 v 0.4557 l -0.0177,0.47446 -0.0353,0.47446 -0.0353,0.49411 -0.0618,0.47446 -0.053,0.49412 -0.0795,0.47446 -0.10599,0.47446 -0.0442,0.17066 -0.0707,0.24751 -0.053,0.22785 -0.0618,0.1519 -0.0707,0.18942 -0.0795,0.19032 -0.20315,0.47446 -0.22965,0.4557 -0.23848,0.45569 -0.26498,0.4557 -0.28265,0.43693 -0.30031,0.4557 -0.31798,0.43603 -0.33564,0.41817 -0.36214,0.41728 -0.35331,0.41817 -0.39747,0.39851 -0.40631,0.39851 -0.41513,0.37974 -0.43281,0.36098 -0.46813,0.36099 -0.46813,0.34132 -0.49464,0.32346 -0.4858,0.32256 -0.52112,0.28503 -0.52997,0.28414 -0.53879,0.26627 -0.5653,0.22785 -0.56529,0.22785 -0.60062,0.20908 -0.60063,0.17066 -0.60062,0.17067 -0.63596,0.13313 -0.63595,0.11348 -0.64479,0.0956 -0.67129,0.0563 -0.68011,0.0572 h -0.67129 -0.60062 l -0.58296,-0.0375 -0.5653,-0.0384 -0.56529,-0.076 -0.53879,-0.0947 -0.52997,-0.0947 -0.52113,-0.13314 -0.51229,-0.1519 -0.46814,-0.1519 -0.4858,-0.19032 -0.45046,-0.20819 -0.43281,-0.22784 -0.4328,-0.22785 -0.38864,-0.26627 -0.39747,-0.28503 -0.35331,-0.28414 -0.36214,-0.32346 -0.31798,-0.34132 -0.31798,-0.34222 -0.28264,-0.37975 -0.26498,-0.39851 -0.25615,-0.39851 -0.22965,-0.43693 -0.20315,-0.43693 -0.16783,-0.4557 -0.16782,-0.49322 -0.13249,-0.49412 -0.11482,-0.51199 -0.0972,-0.5513 -0.053,-0.55041 -0.0353,-0.56917 -0.0177,-0.58883 0.0177,-0.66478 0.053,-0.62636 0.0972,-0.62636 0.10599,-0.60759 0.15015,-0.57007 0.19432,-0.56917 0.22082,-0.53165 0.24732,-0.53164 0.28264,-0.51288 0.30032,-0.47446 0.33564,-0.47536 0.37097,-0.45569 0.39747,-0.43604 0.43281,-0.39941 0.45047,-0.39851 0.48579,-0.37974 0.5123,-0.37975 0.52113,-0.34132 0.56529,-0.32346 0.58296,-0.32256 0.60063,-0.3038 0.63595,-0.28503 0.63596,-0.26538 0.68012,-0.24661 0.70661,-0.2475 0.71545,-0.20819 0.73312,-0.20909 0.76844,-0.20908 0.76845,-0.17066 0.81261,-0.17067 0.80377,-0.1519 0.84794,-0.13313 0.78612,-0.11437 0.82144,-0.11348 0.83027,-0.0947 0.86561,-0.0956 0.85677,-0.0563 0.90094,-0.076 0.90093,-0.0384 0.92744,-0.0375 0.55646,-0.0197 0.56529,-0.0188 0.58296,-0.0188 h 0.56529 0.58296 0.57413 0.58296 0.60062 z" />
    <path
       style="fill:#fff212;fill-rule:evenodd;stroke-width:2.92398953"
       inkscape:connector-curvature="0"
       id="path13"
       d="m 256.29429,179.14009 v 44.48753 0.66478 l -0.0353,0.64512 -0.0618,0.62725 -0.0883,0.6076 -0.0972,0.60759 -0.13249,0.56917 -0.16782,0.57007 -0.20315,0.53164 -0.16783,0.43604 -0.21198,0.43693 -0.22082,0.43694 -0.22965,0.43693 -0.23848,0.41727 -0.26498,0.43693 -0.28265,0.43694 -0.30031,0.41727 -0.31798,0.41817 -0.31798,0.41727 -0.36214,0.41817 -0.35331,0.39851 -0.37097,0.37975 -0.39747,0.37974 -0.41514,0.36099 -0.4328,0.36009 -0.45047,0.34221 -0.45047,0.34133 -0.4858,0.3038 -0.4858,0.30379 -0.52996,0.26627 -0.52113,0.26538 -0.54763,0.2475 -0.56529,0.2082 -0.57413,0.20908 -0.60062,0.17066 -0.62712,0.1519 -0.63596,0.11437 -0.63595,0.11348 -0.68012,0.0572 -0.67129,0.0572 h -0.71545 l -0.8656,-0.0188 -0.83911,-0.0572 -0.83027,-0.0947 -0.78611,-0.1519 -0.75078,-0.17156 -0.73312,-0.22785 -0.68895,-0.26537 -0.66245,-0.3038 -0.63596,-0.32256 -0.60062,-0.37975 -0.58296,-0.41816 -0.54763,-0.4557 -0.50346,-0.47446 -0.50347,-0.53165 -0.45047,-0.5504 -0.4328,-0.58883 -0.41514,-0.62636 -0.37097,-0.66478 -0.34448,-0.70231 -0.33564,-0.72197 -0.28265,-0.75949 -0.28264,-0.79702 -0.23849,-0.83544 -0.21198,-0.8551 -0.18549,-0.89174 -0.16782,-0.91139 -0.13249,-0.94981 -0.11482,-0.98734 -0.0883,-1.00611 -0.0618,-1.04452 -0.0353,-1.06329 -0.0177,-1.10082 V 179.10434 H 204.9587 v 44.37137 1.12047 l 0.0353,1.08206 0.0442,1.04452 0.053,1.04453 0.0795,1.02487 0.0883,1.0061 0.11482,0.96858 0.11483,0.96858 0.15015,0.93015 0.15016,0.9114 0.16782,0.89262 0.20315,0.87297 0.21199,0.8551 0.22082,0.83545 0.22965,0.81578 0.25615,0.77915 0.26498,0.77826 0.30031,0.75949 0.28265,0.74073 0.31797,0.72107 0.31798,0.70231 0.31798,0.68354 0.36214,0.66478 0.35331,0.66478 0.35331,0.62636 0.3798,0.62636 0.39747,0.60759 0.40631,0.57007 0.41514,0.56917 0.4328,0.55131 0.4328,0.53164 0.45047,0.51199 0.46813,0.51288 0.4858,0.47446 0.4858,0.47535 0.49463,0.43604 0.52113,0.43693 0.5123,0.41817 0.53879,0.39851 0.54763,0.37975 0.5653,0.36098 0.55646,0.34132 0.58296,0.32257 0.58295,0.32345 0.60063,0.28414 0.61829,0.28503 0.61829,0.24662 0.64479,0.2475 0.65362,0.22785 0.63595,0.20819 0.68012,0.20908 0.65362,0.17067 0.69778,0.17155 0.67129,0.1519 0.69778,0.1519 0.71545,0.11348 0.70662,0.11437 0.71545,0.0947 0.73311,0.076 0.73312,0.0759 0.75078,0.0572 0.75078,0.0188 0.76844,0.0375 h 0.76845 0.68012 l 0.65362,-0.0188 0.63595,-0.0188 0.63596,-0.0384 0.64479,-0.0563 0.61829,-0.0572 0.61829,-0.0572 0.60062,-0.0947 0.58296,-0.076 0.58296,-0.11437 0.58296,-0.0947 0.55646,-0.13314 0.54763,-0.11347 0.54762,-0.1519 0.5388,-0.1519 0.52996,-0.1519 1.00693,-0.34222 0.9981,-0.36009 0.93626,-0.37974 0.9186,-0.37975 0.88328,-0.41817 0.84794,-0.41727 0.80377,-0.4557 0.76845,-0.45569 0.73311,-0.47536 0.71545,-0.47446 0.68012,-0.49322 0.65362,-0.49412 0.61829,-0.51288 0.58296,-0.53164 0.54763,-0.53165 0.52113,-0.55041 0.50346,-0.53164 0.47697,-0.53165 0.42397,-0.51288 0.41513,-0.49322 0.39748,-0.47446 0.3533,-0.47536 0.31798,-0.43604 0.30031,-0.45569 2.93246,10.7848 h 18.50453 v -75.89301 z" />
    <path
       style="fill:#fff212;fill-rule:evenodd;stroke-width:2.92398953"
       inkscape:connector-curvature="0"
       id="path15"
       d="m 74.399667,153.75516 v 25.34919 h -10.64253 v 17.29857 h 10.64253 v 30.87026 l 0.01855,0.94982 0.01855,0.93015 0.01943,0.93016 0.0371,0.89263 0.05653,0.89262 0.07508,0.87297 0.07508,0.85421 0.09363,0.8551 0.09363,0.81578 0.113058,0.81668 0.131608,0.79792 0.150156,0.77825 0.150156,0.7595 0.168704,0.75949 0.168705,0.72107 0.188137,0.72197 0.205802,0.7023 0.225234,0.68355 0.225234,0.66478 0.244666,0.64512 0.262332,0.64602 0.263214,0.60759 0.28088,0.60759 0.300313,0.56918 0.300312,0.57006 0.319744,0.55041 0.337409,0.53165 0.356842,0.53164 0.356841,0.49412 0.37539,0.47446 0.393939,0.47446 0.393939,0.43693 0.37539,0.37975 0.37539,0.37974 0.393939,0.36099 0.394822,0.36009 0.431036,0.34221 0.431919,0.34133 0.469017,0.34222 0.4699,0.32256 0.469017,0.32256 0.506998,0.3038 0.506114,0.28503 0.525546,0.3038 0.544978,0.26627 0.544095,0.26537 0.582075,0.26627 0.562644,0.22785 0.600624,0.24661 0.600624,0.20909 0.619173,0.20819 0.620056,0.19032 0.637722,0.18942 0.657153,0.1519 0.656271,0.1519 0.680118,0.13314 0.671286,0.13313 0.697784,0.11348 0.688951,0.0759 0.71545,0.076 0.715449,0.0759 0.733115,0.0384 0.733115,0.0188 0.75078,0.0188 1.236577,-0.0188 1.13942,-0.0375 1.07759,-0.0572 0.9716,-0.076 0.9186,-0.0947 0.84794,-0.11437 0.80378,-0.13313 0.73311,-0.1519 0.71545,-0.1519 0.65362,-0.17066 0.61829,-0.18943 0.61829,-0.19032 1.16592,-0.41727 1.14825,-0.43693 v -17.639 l -0.30031,0.11347 -0.39747,0.11437 -0.46814,0.11348 -0.58295,0.0947 -0.65363,0.0956 -0.73311,0.0563 -0.78611,0.0572 -0.84794,0.0188 -0.75078,-0.0188 -0.69779,-0.0375 -0.67128,-0.0759 -0.63596,-0.11437 -0.60062,-0.13313 -0.56529,-0.1519 -0.54763,-0.18943 -0.50347,-0.22785 -0.46813,-0.24661 -0.45047,-0.26627 -0.4328,-0.32256 -0.37981,-0.32256 -0.370971,-0.36098 -0.335643,-0.37975 -0.317977,-0.41817 -0.282647,-0.45569 -0.264981,-0.4557 -0.247316,-0.51199 -0.220818,-0.51288 -0.211985,-0.55041 -0.167821,-0.58883 -0.167822,-0.58883 -0.13249,-0.64512 -0.132491,-0.64602 -0.08833,-0.68354 -0.09716,-0.72107 -0.07066,-0.72197 -0.06183,-0.75949 -0.03533,-0.79702 -0.03533,-0.79792 -0.01766,-0.83544 v -0.8542 -26.90214 h 14.485632 v -17.2986 H 97.07588 v -25.34919 z" />
    <path
       style="fill:#fff212;fill-rule:evenodd;stroke-width:2.92398953"
       inkscape:connector-curvature="0"
       id="path17"
       d="m 247.6824,153.73729 -14.07934,20.47057 h 16.28751 l 19.8471,-20.47057 z" />
  </g>
</svg>
