<?xml version="1.0" encoding="UTF-8" standalone="no"?>
<!-- Created with Inkscape (http://www.inkscape.org/) -->

<svg
   xmlns:dc="http://purl.org/dc/elements/1.1/"
   xmlns:cc="http://creativecommons.org/ns#"
   xmlns:rdf="http://www.w3.org/1999/02/22-rdf-syntax-ns#"
   xmlns:svg="http://www.w3.org/2000/svg"
   xmlns="http://www.w3.org/2000/svg"
   xmlns:xlink="http://www.w3.org/1999/xlink"
   xmlns:sodipodi="http://sodipodi.sourceforge.net/DTD/sodipodi-0.dtd"
   xmlns:inkscape="http://www.inkscape.org/namespaces/inkscape"
   inkscape:export-ydpi="90"
   inkscape:export-xdpi="90"
   inkscape:export-filename="orcamento-preview.png"
   sodipodi:docname="logo-login.svg"
   inkscape:version="0.48.3.1 r9886"
   version="1.1"
   id="svg2"
   height="61.319904"
   width="195.659">
  <sodipodi:namedview
     id="base"
     pagecolor="#d6cfc9"
     bordercolor="#cfcfcf"
     borderopacity="1"
     inkscape:pageopacity="0"
     inkscape:pageshadow="2"
     inkscape:zoom="5.6568542"
     inkscape:cx="94.135536"
     inkscape:cy="9.1574708"
     inkscape:document-units="px"
     inkscape:current-layer="layer1"
     showgrid="false"
     inkscape:window-width="1920"
     inkscape:window-height="1023"
     inkscape:window-x="-10"
     inkscape:window-y="35"
     inkscape:window-maximized="1"
     inkscape:snap-bbox="true"
     inkscape:bbox-paths="true"
     inkscape:bbox-nodes="true"
     inkscape:snap-bbox-edge-midpoints="true"
     inkscape:snap-bbox-midpoints="true"
     inkscape:snap-nodes="true"
     inkscape:object-paths="true"
     inkscape:snap-intersection-paths="true"
     inkscape:object-nodes="true"
     inkscape:snap-smooth-nodes="true"
     inkscape:snap-midpoints="true"
     inkscape:snap-object-midpoints="true"
     inkscape:snap-center="true"
     inkscape:showpageshadow="false"
     inkscape:snap-global="false"
     showborder="true"
     showguides="true"
     inkscape:guide-bbox="true"
     fit-margin-top="0"
     fit-margin-left="0"
     fit-margin-right="0"
     fit-margin-bottom="0"
     inkscape:snap-page="true">
    <sodipodi:guide
       id="guide3752"
       position="-401.17048,3009.5017"
       orientation="1,0" />
    <inkscape:grid
       originy="2109.5018px"
       originx="-371.17048px"
       snapvisiblegridlinesonly="true"
       enabled="true"
       visible="true"
       empspacing="5"
       id="grid3754"
       type="xygrid" />
    <sodipodi:guide
       id="guide3756"
       position="-401.17048,3009.5017"
       orientation="0,1" />
    <sodipodi:guide
       id="guide3758"
       position="558.82952,3009.5017"
       orientation="1,0" />
    <sodipodi:guide
       id="guide5025"
       position="1779.1917,2905.5962"
       orientation="0,1" />
    <sodipodi:guide
       id="guide5027"
       position="1779.1917,2161.5017"
       orientation="0,1" />
    <sodipodi:guide
       id="guide5029"
       position="726.82952,2617.5017"
       orientation="1,0" />
    <sodipodi:guide
       id="guide5031"
       position="1779.1917,2648.5017"
       orientation="1,0" />
    <sodipodi:guide
       id="guide5033"
       position="762.26262,2870.1631"
       orientation="0,1" />
    <sodipodi:guide
       id="guide5035"
       position="762.26262,2905.5962"
       orientation="1,0" />
    <sodipodi:guide
       id="guide5037"
       position="1743.7587,2196.9348"
       orientation="1,0" />
    <sodipodi:guide
       id="guide5039"
       position="1743.7587,2196.9348"
       orientation="0,1" />
    <sodipodi:guide
       id="guide5093"
       position="1498.8295,2789.5017"
       orientation="0,1" />
    <sodipodi:guide
       id="guide4160"
       position="1508.8295,2754.0687"
       orientation="0,1" />
  </sodipodi:namedview>
  <defs
     id="defs4">
    <linearGradient
       id="linearGradient3100"
       class="vui_change_color">
      <stop
         id="stop3102"
         offset="0"
         style="stop-color:#6ea3e3;stop-opacity:0.24017857" />
      <stop
         style="stop-color:#6ea3e3;stop-opacity:0.94285715"
         offset="0.25"
         id="stop3104" />
      <stop
         style="stop-color:#6ea3e3;stop-opacity:0.67850226;"
         offset="0.48324397"
         id="stop3106" />
      <stop
         id="stop3108"
         offset="0.70021975"
         style="stop-color:#6ea3e3;stop-opacity:0.94285715" />
      <stop
         id="stop3110"
         offset="1"
         style="stop-color:#6ea3e3;stop-opacity:1" />
    </linearGradient>
    <linearGradient
       inkscape:collect="always"
       xlink:href="#linearGradient3100"
       id="linearGradient3264"
       gradientUnits="userSpaceOnUse"
       gradientTransform="matrix(1.1473879,0,0,1.1473879,753.70452,3097.649)"
       x1="-560.13208"
       y1="-2662.781"
       x2="-560.13208"
       y2="-2699.3811" />
  </defs>
  <metadata
     id="metadata7">
    <rdf:RDF>
      <cc:Work
         rdf:about="">
        <dc:format>image/svg+xml</dc:format>
        <dc:type
           rdf:resource="http://purl.org/dc/dcmitype/StillImage" />
        <dc:title />
      </cc:Work>
    </rdf:RDF>
  </metadata>
  <g
     transform="translate(-371.17048,-3100.5442)"
     id="layer1"
     inkscape:groupmode="layer"
     inkscape:label="Camada 1">
    <path
       style="font-size:69.37084198px;font-style:normal;font-variant:normal;font-weight:normal;font-stretch:normal;text-align:start;line-height:125%;letter-spacing:0px;word-spacing:0px;writing-mode:lr-tb;text-anchor:start;fill:#000000;fill-opacity:1;stroke:none;font-family:Baumans;-inkscape-font-specification:Baumans"
       d="m 435.34375,3100.9375 c -1.90785,0 -3.46875,1.561 -3.46875,3.4687 0,1.9084 1.55676,3.4376 3.46875,3.4376 1.91193,0 3.4375,-1.5256 3.4375,-3.4376 0,-1.9118 -1.52963,-3.4686 -3.4375,-3.4687 z m 49.5625,7.5937 c -4.71199,2e-4 -8.59972,1.6343 -11.8125,4.9376 -3.16699,3.2574 -4.78126,7.238 -4.78125,12 -10e-6,4.8606 1.53373,8.8702 4.5625,12.125 3.01993,3.2003 6.98761,4.8124 12.03125,4.8124 3.85803,0 7.28529,-1.2035 10.3125,-3.5312 l -3.5625,-3.5312 c -1.8741,1.3477 -4.1312,2.0311 -6.75,2.0312 -3.28228,0 -5.96316,-1.0832 -7.9375,-3.25 -1.92262,-2.211 -2.87501,-5.1128 -2.875,-8.6562 -10e-6,-3.5434 0.94794,-6.4569 2.875,-8.625 1.97352,-2.2142 4.65381,-3.3126 7.9375,-3.3126 2.58282,0 4.85949,0.7034 6.8125,2.0938 l 3.53125,-3.5625 c -3.03458,-2.3424 -6.46883,-3.5311 -10.34375,-3.5313 z m 12.65625,0.6876 0,32.4687 5.28125,0 0,-27.0625 a 0.41822345,0.41822345 0 0 1 0.40625,-0.4062 l 12.125,0 a 0.41822345,0.41822345 0 0 1 0.40625,0.4062 l 0,27.0625 5.3125,0 0,-27.0625 a 0.41822345,0.41822345 0 0 1 0.40625,-0.4062 l 2.84375,0 c 3.4012,0 5.64189,0.2527 6.90625,0.9374 2.33277,1.2409 3.49996,3.8384 3.5,7.5313 l 0,19 5.28125,0 0,-19 c -4e-5,-2.7425 -0.33928,-5.0976 -0.96875,-7.0313 -0.57038,-1.8864 -1.79655,-3.4178 -3.71875,-4.625 -1.8539,-1.1915 -4.36339,-1.8123 -7.59375,-1.8124 l -30.1875,0 z m 55.59375,0 c -3.03067,10e-5 -5.55959,0.7465 -7.65625,2.2187 -2.0712,1.4101 -3.12501,3.4134 -3.125,6.125 -10e-6,2.1312 0.60493,3.8655 1.78125,5.3125 1.24399,1.4217 2.74601,2.4864 4.46875,3.1562 1.84066,0.6443 3.67208,1.2122 5.46875,1.7188 1.87663,0.5161 3.45914,1.1414 4.75,1.9062 1.3744,0.7855 2.12498,1.885 2.125,3.1563 -10e-6,1.286 -0.65969,2.3358 -1.84375,2.9687 -1.18406,0.633 -2.85181,0.9064 -5.0625,0.9063 l -11.59375,0 0,5 11.59375,0 c 4.20421,0 7.29615,-0.7825 9.3125,-2.25 2.01635,-1.4675 3.03124,-3.6218 3.03125,-6.625 -3e-5,-0.8481 -0.1017,-1.6781 -0.28125,-2.5313 -0.17094,-0.8546 -0.58694,-1.7408 -1.25,-2.625 a 0.41822345,0.41822345 0 0 1 0,-0.031 c -0.59852,-0.8977 -1.46449,-1.5953 -2.65625,-2.125 -1.22435,-0.5441 -3.13748,-1.2329 -5.71875,-2.0625 -2.58751,-0.8316 -4.09,-1.2955 -4.40625,-1.375 a 0.41822345,0.41822345 0 0 1 -0.0625,-0.031 c -0.32094,-0.1373 -0.81979,-0.3467 -1.46875,-0.625 a 0.41822345,0.41822345 0 0 1 -0.0312,0 c -0.62109,-0.3342 -1.11454,-0.665 -1.46875,-0.9687 a 0.41822345,0.41822345 0 0 1 0,-0.031 c -0.31164,-0.3116 -0.62694,-0.7096 -0.875,-1.1562 -0.25907,-0.5179 -0.37501,-1.076 -0.375,-1.6875 -10e-6,-1.075 0.62416,-1.9742 1.6875,-2.5313 1.03763,-0.5434 2.25841,-0.8124 3.65625,-0.8124 l 11.875,0 0,-5 -11.875,0 z m -122.125,2.125 c -0.55247,-0.01 -1.10315,7e-4 -1.6875,0.031 -3.49996,0.2187 -6.9873,1.1126 -10.46875,4.5938 l -22.96875,22.9374 c -1.44134,1.4418 -2.68823,2.2809 -3.90625,3.0626 a 0.41822345,0.41822345 0 0 1 -0.5,-0.031 c -2.95236,-2.5492 -5.80543,-7.7887 -11.15625,-17.0625 l -8.46875,0 c 3.80683,6.613 6.31019,11.2093 8.34375,14.0312 1.05355,1.462 1.99508,2.4925 2.9375,3.125 0.94242,0.6326 1.88424,0.9063 3.03125,0.9063 l 9.875,0 c 2.15358,0 3.55407,-0.399 4.8125,-1.1563 1.25843,-0.7572 2.40111,-1.9009 3.9375,-3.4374 l 22.9375,-22.9376 c 2.17411,-2.1738 4.21927,-3.3485 6.3125,-4.0312 l -1.3125,0 c -0.60425,0 -1.1638,-0.023 -1.71875,-0.031 z m 10.125,4.0624 c -2.15358,0 -3.53079,0.3993 -4.78125,1.1563 -1.25046,0.757 -2.4006,1.9005 -3.9375,3.4375 l -18.90625,18.9062 c -2.17412,2.174 -4.21924,3.3486 -6.3125,4.0313 l 1.3125,0 c 1.20232,0 2.24939,0.065 3.40625,0 3.49997,-0.2188 6.98729,-1.1125 10.46875,-4.5937 l 18.90625,-18.9063 c 1.44352,-1.4439 2.72222,-2.2826 3.9375,-3.0625 a 0.41822345,0.41822345 0 0 1 0.5,0.031 c 2.95484,2.5516 5.77471,7.8203 11.125,17.0938 l 8.5,0 c -3.8073,-6.6134 -6.33387,-11.233 -8.375,-14.0625 -1.05748,-1.4659 -1.99195,-2.4582 -2.9375,-3.0937 -0.94555,-0.6356 -1.88468,-0.9376 -3.03125,-0.9376 l -9.875,0 z"
       id="path3014" />
    <path
       style="font-size:69.37084197999999446px;font-style:normal;font-variant:normal;font-weight:normal;font-stretch:normal;text-align:start;line-height:125%;letter-spacing:0px;word-spacing:0px;writing-mode:lr-tb;text-anchor:start;fill:url(#linearGradient3264);fill-opacity:1;stroke:none;font-family:Baumans;-inkscape-font-specification:Baumans"
       d="M 64.1875 0 C 62.05245 0 60.3125 1.7399 60.3125 3.875 C 60.3125 6.0104 62.05245 7.71875 64.1875 7.71875 C 66.32255 7.71875 68.03125 6.01 68.03125 3.875 C 68.03125 1.7399 66.32255 0 64.1875 0 z M 113.75 7.59375 C 108.94028 7.59385 104.90854 9.28025 101.625 12.65625 C 98.38768 15.98605 96.74999 20.0816 96.75 24.9375 C 96.74999 29.886 98.30768 34.01395 101.40625 37.34375 C 104.50481 40.62735 108.61655 42.28125 113.75 42.28125 C 117.86598 42.28125 121.52766 40.9648 124.71875 38.375 L 120.5625 34.28125 C 118.71258 35.71495 116.43232 36.4375 113.75 36.4375 C 110.55893 36.4375 108.02112 35.3936 106.125 33.3125 C 104.2751 31.1851 103.34374 28.4061 103.34375 24.9375 C 103.34374 21.469 104.2751 18.67495 106.125 16.59375 C 108.02112 14.46645 110.55893 13.40625 113.75 13.40625 C 116.38607 13.40625 118.68259 14.1452 120.625 15.625 L 124.71875 11.46875 C 121.52766 8.87895 117.86598 7.59385 113.75 7.59375 z M 126 8.28125 L 126 41.5625 L 132.09375 41.5625 L 132.09375 14.09375 L 144.21875 14.09375 L 144.21875 41.5625 L 150.34375 41.5625 L 150.34375 14.09375 L 153.1875 14.09375 C 156.56351 14.09375 158.79628 14.3988 159.90625 15 C 162.07983 16.1562 163.18746 18.54895 163.1875 22.15625 L 163.1875 41.5625 L 169.28125 41.5625 L 169.28125 22.15625 C 169.28121 19.38145 168.95992 16.9887 168.3125 15 C 167.71124 13.0114 166.39483 11.40505 164.40625 10.15625 C 162.46382 8.90765 159.87727 8.28135 156.59375 8.28125 L 126 8.28125 z M 182 8.28125 C 178.90142 8.28135 176.26737 9.0363 174.09375 10.5625 C 171.92013 12.0424 170.81249 14.21015 170.8125 17.03125 C 170.81249 19.25105 171.43882 21.0989 172.6875 22.625 C 173.98241 24.1049 175.5401 25.21255 177.34375 25.90625 C 179.19363 26.55375 181.00884 27.1163 182.8125 27.625 C 184.66237 28.1337 186.22005 28.7601 187.46875 29.5 C 188.76365 30.24 189.40623 31.17135 189.40625 32.28125 C 189.40623 34.59365 187.25347 35.75 182.90625 35.75 L 170.90625 35.75 L 170.90625 41.5625 L 182.90625 41.5625 C 191.41572 41.5625 195.65622 38.47845 195.65625 32.28125 C 195.65622 31.40265 195.55996 30.53495 195.375 29.65625 C 195.18999 28.73125 194.75618 27.8 194.0625 26.875 C 193.41501 25.9038 192.4674 25.14875 191.21875 24.59375 C 189.97005 24.03875 188.05858 23.3324 185.46875 22.5 C 182.87889 21.6675 181.40121 21.218 181.03125 21.125 C 180.7075 20.9863 180.20995 20.7775 179.5625 20.5 C 178.96128 20.1763 178.51122 19.87125 178.1875 19.59375 C 177.91001 19.31625 177.63747 18.94755 177.40625 18.53125 C 177.175 18.06885 177.06249 17.58625 177.0625 17.03125 C 177.06249 16.10625 177.56005 15.3837 178.53125 14.875 C 179.50243 14.3663 180.65882 14.09375 182 14.09375 L 194.28125 14.09375 L 194.28125 8.28125 L 182 8.28125 z M 59.875 10.40625 C 59.312466 10.39775 58.74954 10.4035 58.15625 10.4375 C 54.60048 10.6598 50.99287 11.60105 47.4375 15.15625 L 24.46875 38.09375 C 23.05596 39.50695 21.83936 40.31435 20.625 41.09375 C 17.76371 38.62305 14.88148 33.3674 9.4375 23.9375 L 0 23.9375 C 8.09056 37.9508 10.16469 42.8125 15.03125 42.8125 L 24.90625 42.8125 C 29.31762 42.8125 30.86788 41.16365 33.9375 38.09375 L 56.875 15.15625 C 60.43077 11.60095 63.57815 10.6598 67.1875 10.4375 L 61.59375 10.4375 C 61.000455 10.4375 60.437534 10.41475 59.875 10.40625 z M 70 14.46875 C 65.58863 14.46875 64.06963 16.1177 61 19.1875 L 42.09375 38.09375 C 38.53798 41.64915 35.3902 42.5902 31.78125 42.8125 L 37.375 42.8125 C 38.56158 42.8125 39.62592 42.8795 40.8125 42.8125 C 44.36826 42.5903 47.97587 41.64895 51.53125 38.09375 L 70.4375 19.1875 C 71.85028 17.7743 73.09814 16.9669 74.3125 16.1875 C 77.17378 18.6583 80.02438 23.9452 85.46875 33.375 L 94.9375 33.375 C 86.84693 19.3617 84.74156 14.46875 79.875 14.46875 L 70 14.46875 z "
       id="path3210"
       transform="translate(371.17048,3100.5442)" />
    <path
       style="font-size:15.72906112999999984px;font-style:italic;font-variant:normal;font-weight:normal;font-stretch:normal;text-align:start;line-height:125%;letter-spacing:0px;word-spacing:0px;writing-mode:lr-tb;text-anchor:start;fill:#000000;fill-opacity:1;stroke:none;font-family:Federo;-inkscape-font-specification:Federo Italic"
       d="M 78.53125 46.6875 L 76.25 58.09375 L 79.90625 58.09375 C 80.72035 58.09375 81.40606 58.01785 82 57.84375 C 82.59393 57.66455 83.0955 57.40095 83.5 57.09375 C 83.9096 56.78655 84.23322 56.44595 84.46875 56.03125 C 84.70427 55.61645 84.87145 55.1637 84.96875 54.6875 C 85.15818 53.7352 85.0233 52.9587 84.5625 52.375 C 84.1068 51.7861 83.2975 51.4241 82.125 51.25 L 82.125 51.21875 C 82.62677 51.15735 83.04783 51.04455 83.40625 50.90625 C 83.76977 50.76295 84.07696 50.59575 84.3125 50.40625 C 84.55314 50.21165 84.74187 50.01175 84.875 49.78125 C 85.00812 49.55085 85.10505 49.3031 85.15625 49.0625 C 85.22755 48.6989 85.23305 48.39075 85.15625 48.09375 C 85.07944 47.79685 84.89689 47.5224 84.65625 47.3125 C 84.41559 47.1026 84.08121 46.95645 83.65625 46.84375 C 83.23639 46.73085 82.73941 46.6875 82.125 46.6875 L 78.53125 46.6875 z M 117.625 46.6875 L 115.34375 58.09375 L 116.90625 58.09375 L 118.125 52.0625 C 118.60117 51.8628 119.01658 51.71725 119.375 51.65625 C 119.7334 51.58925 120.02012 51.5625 120.28125 51.5625 C 120.43997 51.5625 120.56405 51.59525 120.65625 51.65625 C 120.74841 51.71255 120.834 51.783 120.875 51.875 C 120.9159 51.9672 120.93749 52.0698 120.9375 52.1875 C 120.9375 52.3053 120.92675 52.41865 120.90625 52.53125 L 119.78125 58.09375 L 121.34375 58.09375 L 122.5 52.3125 C 122.61264 51.7544 122.5798 51.34465 122.375 51.09375 C 122.17018 50.84285 121.82504 50.71875 121.34375 50.71875 C 121.14918 50.71875 120.93379 50.724 120.71875 50.75 C 120.50882 50.7704 120.28213 50.814 120.03125 50.875 C 119.78035 50.9314 119.51572 50.99675 119.21875 51.09375 C 118.92178 51.18595 118.60328 51.32545 118.25 51.46875 L 119.1875 46.6875 L 117.625 46.6875 z M 136.6875 46.6875 L 134.40625 58.09375 L 135.9375 58.09375 L 137.15625 52.0625 C 137.63242 51.8628 138.04784 51.71725 138.40625 51.65625 C 138.76466 51.58925 139.08261 51.5625 139.34375 51.5625 C 139.50246 51.5625 139.62655 51.59525 139.71875 51.65625 C 139.8109 51.71255 139.86525 51.783 139.90625 51.875 C 139.94715 51.9672 139.96875 52.0698 139.96875 52.1875 C 139.96875 52.3053 139.958 52.41865 139.9375 52.53125 L 138.84375 58.09375 L 140.40625 58.09375 L 141.5625 52.3125 C 141.67514 51.7544 141.61105 51.34465 141.40625 51.09375 C 141.20144 50.84285 140.85629 50.71875 140.375 50.71875 C 140.18043 50.71875 139.99629 50.724 139.78125 50.75 C 139.57132 50.7704 139.34463 50.814 139.09375 50.875 C 138.84286 50.9314 138.54696 50.99675 138.25 51.09375 C 137.95302 51.18595 137.63454 51.32545 137.28125 51.46875 L 138.21875 46.6875 L 136.6875 46.6875 z M 163.09375 46.6875 L 162.1875 51.25 C 161.92125 51.0759 161.65095 50.93075 161.34375 50.84375 C 161.03653 50.75725 160.756 50.71875 160.5 50.71875 C 159.84974 50.71875 159.26201 50.78955 158.75 50.96875 C 158.2431 51.14275 157.81127 51.40645 157.4375 51.71875 C 157.06885 52.02595 156.76677 52.3824 156.53125 52.8125 C 156.29572 53.2375 156.10241 53.71705 156 54.21875 C 155.9334 54.55675 155.91645 54.8649 155.90625 55.1875 C 155.90113 55.5101 155.9232 55.8332 156 56.125 C 156.08192 56.4117 156.22705 56.66555 156.40625 56.90625 C 156.58546 57.14685 156.81779 57.35195 157.125 57.53125 C 157.43221 57.70525 157.80967 57.8405 158.25 57.9375 C 158.69545 58.0344 159.23445 58.09375 159.84375 58.09375 L 162.375 58.09375 L 164.65625 46.6875 L 163.09375 46.6875 z M 172.34375 46.6875 L 170.0625 58.09375 L 171.625 58.09375 L 172.8125 52.0625 C 173.28867 51.8628 173.70409 51.71725 174.0625 51.65625 C 174.42091 51.58925 174.73887 51.5625 175 51.5625 C 175.15872 51.5625 175.2828 51.59525 175.375 51.65625 C 175.46716 51.71255 175.55275 51.783 175.59375 51.875 C 175.63465 51.9672 175.65624 52.0698 175.65625 52.1875 C 175.65625 52.3053 175.6455 52.41865 175.625 52.53125 L 174.5 58.09375 L 176.0625 58.09375 L 177.21875 52.3125 C 177.33138 51.7544 177.29854 51.34465 177.09375 51.09375 C 176.88893 50.84285 176.54378 50.71875 176.0625 50.71875 C 175.86793 50.71875 175.65254 50.724 175.4375 50.75 C 175.22757 50.7704 175.00088 50.814 174.75 50.875 C 174.49911 50.9314 174.23446 50.99675 173.9375 51.09375 C 173.64053 51.18595 173.29079 51.32545 172.9375 51.46875 L 173.90625 46.6875 L 172.34375 46.6875 z M 80.09375 47.4375 L 81.21875 47.4375 C 81.60275 47.4375 81.95303 47.444 82.25 47.5 C 82.54697 47.5512 82.7793 47.65325 82.96875 47.78125 C 83.15819 47.90925 83.3033 48.06615 83.375 48.28125 C 83.4467 48.49115 83.4364 48.7501 83.375 49.0625 C 83.30842 49.4004 83.20532 49.7071 83.03125 49.9375 C 82.85715 50.1679 82.65713 50.3567 82.40625 50.5 C 82.15535 50.6383 81.84869 50.7465 81.53125 50.8125 C 81.21891 50.8735 80.88453 50.875 80.53125 50.875 L 79.375 50.875 L 80.09375 47.4375 z M 114.96875 48.0625 L 113.40625 48.5 L 112.90625 50.875 L 111.90625 50.875 L 111.78125 51.5625 L 112.78125 51.5625 L 111.46875 58.09375 L 112.9375 58.09375 L 114.25 51.5625 L 115.28125 51.5625 L 115.4375 50.875 L 114.40625 50.875 L 114.96875 48.0625 z M 179.96875 48.71875 L 179.78125 49.65625 L 181.34375 49.65625 L 181.53125 48.71875 L 179.96875 48.71875 z M 98.5 50.71875 C 98.39759 50.71875 98.29502 50.729 98.1875 50.75 C 98.07997 50.7702 97.95074 50.819 97.8125 50.875 C 97.67937 50.9262 97.51783 50.9705 97.34375 51.0625 C 97.16966 51.1547 96.98041 51.2942 96.75 51.4375 L 96.84375 50.84375 L 95.28125 50.84375 L 93.84375 58.09375 L 95.40625 58.09375 L 96.625 52 C 96.84004 51.8924 97.03389 51.796 97.1875 51.75 C 97.34622 51.704 97.48622 51.6875 97.59375 51.6875 C 97.77807 51.6875 97.8812 51.75265 97.9375 51.90625 C 97.9938 52.05995 98.0256 52.3189 98 52.6875 L 99.40625 52.3125 C 99.4728 51.8056 99.45586 51.4015 99.3125 51.125 C 99.17425 50.8485 98.89937 50.71875 98.5 50.71875 z M 105.4375 50.71875 C 105.24292 50.71875 105.02754 50.724 104.8125 50.75 C 104.60257 50.7704 104.37588 50.814 104.125 50.875 C 103.87411 50.9314 103.60946 50.99675 103.3125 51.09375 C 103.01553 51.18595 102.69704 51.32545 102.34375 51.46875 L 102.4375 50.875 L 100.875 50.875 L 99.4375 58.09375 L 101 58.09375 L 102.21875 52.0625 C 102.69492 51.8628 103.08421 51.71725 103.4375 51.65625 C 103.79591 51.58925 104.11386 51.5625 104.375 51.5625 C 104.53372 51.5625 104.6578 51.59525 104.75 51.65625 C 104.84215 51.71255 104.92775 51.783 104.96875 51.875 C 105.01485 51.9672 105.03125 52.0698 105.03125 52.1875 C 105.03125 52.3053 105.0205 52.41865 105 52.53125 L 103.875 58.09375 L 105.4375 58.09375 L 106.59375 52.3125 C 106.70638 51.7544 106.67355 51.34465 106.46875 51.09375 C 106.26394 50.84285 105.91878 50.71875 105.4375 50.71875 z M 127.8125 50.71875 C 127.26464 50.71875 126.74718 50.82135 126.28125 51.03125 C 125.82044 51.23615 125.42091 51.49555 125.0625 51.84375 C 124.70409 52.18685 124.39689 52.612 124.15625 53.0625 C 123.9156 53.5131 123.75355 53.9562 123.65625 54.4375 C 123.53845 55.0161 123.4959 55.5494 123.5625 56 C 123.63418 56.4505 123.82239 56.8127 124.09375 57.125 C 124.37024 57.4373 124.73233 57.67985 125.21875 57.84375 C 125.70515 58.00745 126.31443 58.09375 127.03125 58.09375 L 128.65625 58.09375 L 128.78125 57.46875 L 127.1875 57.46875 C 126.7062 57.46875 126.32309 57.3718 126.03125 57.1875 C 125.7394 56.998 125.49735 56.75035 125.34375 56.46875 C 125.19526 56.18715 125.11935 55.8953 125.09375 55.5625 C 125.06815 55.2297 125.0687 54.9117 125.125 54.625 L 129.875 54.625 L 129.9375 54.28125 C 130.0297 53.80505 130.0779 53.33115 130.0625 52.90625 C 130.05226 52.47615 129.97633 52.10895 129.8125 51.78125 C 129.64865 51.45355 129.38506 51.1894 129.0625 51 C 128.73992 50.8052 128.33475 50.71875 127.8125 50.71875 z M 146.96875 50.71875 C 146.54889 50.71875 146.10629 50.7405 145.625 50.8125 C 145.1437 50.879 144.64831 50.99755 144.1875 51.15625 L 144.28125 51.65625 C 144.41438 51.62025 144.55437 51.5935 144.6875 51.5625 C 144.82574 51.5265 144.97139 51.49475 145.125 51.46875 C 145.2786 51.44375 145.44067 51.42125 145.625 51.40625 C 145.80932 51.39325 146.03548 51.375 146.28125 51.375 C 146.67037 51.375 146.97757 51.40775 147.1875 51.46875 C 147.39742 51.53015 147.538 51.62175 147.625 51.71875 C 147.71715 51.81085 147.74999 51.90845 147.75 52.03125 C 147.75 52.14905 147.73925 52.2573 147.71875 52.375 L 147.53125 53.34375 C 147.265 53.16965 146.9947 53.05575 146.6875 52.96875 C 146.38029 52.88215 146.09975 52.8125 145.84375 52.8125 C 145.37269 52.8125 144.9255 52.8822 144.53125 53 C 144.14212 53.1126 143.80209 53.2748 143.5 53.5 C 143.20303 53.7202 142.95481 54.01605 142.75 54.34375 C 142.55032 54.67145 142.3995 55.03865 142.3125 55.46875 C 142.246 55.81695 142.2357 56.15135 142.3125 56.46875 C 142.39442 56.78115 142.58774 57.0667 142.84375 57.3125 C 143.10487 57.5531 143.45056 57.7316 143.90625 57.875 C 144.36194 58.018 144.9389 58.09375 145.625 58.09375 L 148.15625 58.09375 L 149.28125 52.40625 C 149.34785 52.07855 149.37445 51.80875 149.34375 51.59375 C 149.31302 51.37355 149.20021 51.22175 149.03125 51.09375 C 148.86228 50.96065 148.61917 50.8685 148.28125 50.8125 C 147.94844 50.7565 147.50635 50.71875 146.96875 50.71875 z M 154.8125 50.71875 C 154.71009 50.71875 154.60752 50.729 154.5 50.75 C 154.39248 50.7702 154.26324 50.819 154.125 50.875 C 153.99188 50.9262 153.83033 50.9705 153.65625 51.0625 C 153.48216 51.1547 153.2929 51.2942 153.0625 51.4375 L 153.15625 50.84375 L 151.59375 50.84375 L 150.15625 58.09375 L 151.71875 58.09375 L 152.9375 52 C 153.15254 51.8924 153.34639 51.796 153.5 51.75 C 153.65872 51.704 153.79872 51.6875 153.90625 51.6875 C 154.09057 51.6875 154.1937 51.75265 154.25 51.90625 C 154.3063 52.05995 154.3381 52.3189 154.3125 52.6875 L 155.71875 52.3125 C 155.7853 51.8056 155.76836 51.4015 155.625 51.125 C 155.48675 50.8485 155.21187 50.71875 154.8125 50.71875 z M 167.8125 50.71875 C 167.48993 50.71875 167.1981 50.73525 166.90625 50.78125 C 166.61952 50.82215 166.35541 50.8925 166.125 51 C 165.89971 51.1024 165.72122 51.23225 165.5625 51.40625 C 165.40889 51.58035 165.3012 51.8014 165.25 52.0625 C 165.219 52.2213 165.20335 52.372 165.21875 52.5 C 165.23923 52.628 165.28235 52.76285 165.34375 52.90625 C 165.40519 53.04965 165.4811 53.22195 165.59375 53.40625 C 165.71151 53.59065 165.87252 53.82235 166.03125 54.09375 L 166.65625 55 C 166.87129 55.297 167.04925 55.5667 167.1875 55.8125 C 167.32574 56.0583 167.3586 56.30595 167.3125 56.53125 C 167.24594 56.85385 167.08898 57.081 166.8125 57.25 C 166.54113 57.4194 166.16879 57.5 165.6875 57.5 C 165.39565 57.5 165.131 57.44615 164.875 57.34375 C 164.61899 57.23625 164.36617 57.1229 164.15625 57 L 163.96875 57.71875 C 164.22988 57.89285 164.5263 58.00175 164.84375 58.09375 C 165.16119 58.19065 165.53353 58.25 165.96875 58.25 C 166.28107 58.25 166.58368 58.22325 166.90625 58.15625 C 167.22882 58.08965 167.53601 57.961 167.8125 57.8125 C 168.08898 57.6589 168.33156 57.4856 168.53125 57.25 C 168.73093 57.0145 168.8658 56.713 168.9375 56.375 C 168.9682 56.201 168.95745 56.0491 168.90625 55.875 C 168.86016 55.6958 168.7848 55.4917 168.6875 55.3125 C 168.59021 55.1333 168.47687 54.96555 168.34375 54.78125 C 168.21062 54.59175 168.07062 54.3872 167.9375 54.1875 L 167.3125 53.25 C 167.10769 52.9684 166.9569 52.7519 166.875 52.5625 C 166.7935 52.3731 166.75565 52.1957 166.78125 52.0625 C 166.80173 51.9448 166.8556 51.86325 166.9375 51.78125 C 167.02454 51.69935 167.14248 51.63975 167.25 51.59375 C 167.35752 51.54225 167.45497 51.48975 167.5625 51.46875 C 167.67514 51.44775 167.76695 51.4375 167.84375 51.4375 C 168.20727 51.4375 168.52524 51.46525 168.78125 51.53125 C 169.03725 51.59785 169.27471 51.69425 169.5 51.78125 L 169.625 51.09375 C 169.46627 51.03715 169.34675 50.9835 169.21875 50.9375 C 169.09075 50.8916 168.94562 50.8485 168.8125 50.8125 C 168.67938 50.7765 168.53372 50.765 168.375 50.75 C 168.22139 50.729 168.02754 50.71875 167.8125 50.71875 z M 186.5625 50.71875 C 186.30136 50.71875 185.97317 50.75675 185.625 50.84375 C 185.28195 50.93085 184.95269 51.0708 184.625 51.25 L 184.71875 50.875 L 183.15625 50.875 L 181.0625 61.3125 L 182.71875 60.875 L 183.25 58.09375 L 184.25 58.09375 C 185.16138 58.09375 185.92759 57.99625 186.5625 57.78125 C 187.20251 57.56615 187.74151 57.26465 188.15625 56.90625 C 188.57609 56.54785 188.89971 56.1534 189.125 55.6875 C 189.3554 55.2164 189.52259 54.72565 189.625 54.21875 C 189.7274 53.71705 189.754 53.2375 189.6875 52.8125 C 189.62605 52.3824 189.46962 52.02595 189.21875 51.71875 C 188.97297 51.40645 188.62782 51.14275 188.1875 50.96875 C 187.75228 50.78995 187.21275 50.71875 186.5625 50.71875 z M 193.84375 50.71875 C 193.52117 50.71875 193.22935 50.73525 192.9375 50.78125 C 192.65077 50.82215 192.38665 50.8925 192.15625 51 C 191.93096 51.1024 191.72122 51.23225 191.5625 51.40625 C 191.40889 51.58035 191.33245 51.8014 191.28125 52.0625 C 191.25025 52.2213 191.2346 52.372 191.25 52.5 C 191.27048 52.628 191.3136 52.76285 191.375 52.90625 C 191.43644 53.04965 191.51235 53.22195 191.625 53.40625 C 191.74276 53.59065 191.87252 53.82235 192.03125 54.09375 L 192.6875 55 C 192.90255 55.297 193.0805 55.5667 193.21875 55.8125 C 193.35699 56.0583 193.38985 56.30595 193.34375 56.53125 C 193.27719 56.85385 193.12023 57.081 192.84375 57.25 C 192.57238 57.4194 192.20004 57.5 191.71875 57.5 C 191.4269 57.5 191.131 57.44615 190.875 57.34375 C 190.61899 57.23625 190.39742 57.1229 190.1875 57 L 189.96875 57.71875 C 190.22988 57.89285 190.5263 58.00175 190.84375 58.09375 C 191.16119 58.19065 191.53353 58.25 191.96875 58.25 C 192.28107 58.25 192.61493 58.22325 192.9375 58.15625 C 193.26007 58.08965 193.56725 57.961 193.84375 57.8125 C 194.12023 57.6589 194.33156 57.4856 194.53125 57.25 C 194.73093 57.0145 194.8658 56.713 194.9375 56.375 C 194.9682 56.201 194.95745 56.0491 194.90625 55.875 C 194.86017 55.6958 194.81605 55.4917 194.71875 55.3125 C 194.62146 55.1333 194.50812 54.96555 194.375 54.78125 C 194.24187 54.59175 194.10187 54.3872 193.96875 54.1875 L 193.3125 53.25 C 193.10769 52.9684 192.98815 52.7519 192.90625 52.5625 C 192.82475 52.3731 192.7869 52.1957 192.8125 52.0625 C 192.83298 51.9448 192.88685 51.86325 192.96875 51.78125 C 193.05579 51.69935 193.14247 51.63975 193.25 51.59375 C 193.35752 51.54225 193.45497 51.48975 193.5625 51.46875 C 193.67514 51.44775 193.7982 51.4375 193.875 51.4375 C 194.23852 51.4375 194.52524 51.46525 194.78125 51.53125 C 195.03725 51.59785 195.27471 51.69425 195.5 51.78125 L 195.65625 51.09375 C 195.49752 51.03715 195.34675 50.9835 195.21875 50.9375 C 195.09074 50.8916 194.97687 50.8485 194.84375 50.8125 C 194.71062 50.7765 194.56497 50.765 194.40625 50.75 C 194.25264 50.729 194.05879 50.71875 193.84375 50.71875 z M 87.21875 50.84375 L 86.0625 56.65625 C 85.94985 57.21435 86.01906 57.6241 86.21875 57.875 C 86.42355 58.1208 86.7687 58.21875 87.25 58.21875 C 87.43944 58.21875 87.62871 58.2135 87.84375 58.1875 C 88.0588 58.1673 88.28036 58.14975 88.53125 58.09375 C 88.78214 58.03735 89.0519 57.93575 89.34375 57.84375 C 89.64072 57.74655 89.98022 57.6433 90.34375 57.5 L 90.21875 58.09375 L 91.78125 58.09375 L 93.21875 50.84375 L 91.65625 50.84375 L 90.46875 56.90625 C 89.99258 57.10595 89.57716 57.21425 89.21875 57.28125 C 88.86034 57.34225 88.54237 57.375 88.28125 57.375 C 88.1174 57.375 87.99845 57.3685 87.90625 57.3125 C 87.8192 57.251 87.75975 57.1545 87.71875 57.0625 C 87.67785 56.9703 87.65625 56.8626 87.65625 56.75 C 87.65625 56.6322 87.6619 56.52395 87.6875 56.40625 L 88.78125 50.84375 L 87.21875 50.84375 z M 179.53125 50.875 L 178.09375 58.09375 L 179.65625 58.09375 L 181.09375 50.875 L 179.53125 50.875 z M 160.5 51.34375 C 160.82257 51.34375 161.1241 51.39175 161.375 51.46875 C 161.631 51.54045 161.87869 51.6641 162.09375 51.8125 L 160.9375 57.46875 L 159.96875 57.46875 C 159.51305 57.46875 159.1197 57.39385 158.8125 57.28125 C 158.50529 57.16855 158.24682 57.02815 158.0625 56.84375 C 157.87817 56.65435 157.74845 56.44915 157.65625 56.21875 C 157.56918 55.98315 157.5256 55.7406 157.5 55.5 C 157.4795 55.2542 157.4795 55.0378 157.5 54.8125 C 157.5256 54.5821 157.55795 54.3616 157.59375 54.1875 C 157.66542 53.8137 157.76341 53.463 157.9375 53.125 C 158.11158 52.782 158.34286 52.47985 158.59375 52.21875 C 158.84976 51.95755 159.14617 51.74735 159.46875 51.59375 C 159.79643 51.43465 160.12111 51.34375 160.5 51.34375 z M 186.25 51.34375 C 186.634 51.34375 186.95762 51.43505 187.21875 51.59375 C 187.48499 51.74735 187.69526 51.95755 187.84375 52.21875 C 187.99735 52.47985 188.0891 52.782 188.125 53.125 C 188.1608 53.463 188.16545 53.8137 188.09375 54.1875 C 188.0579 54.3616 187.97795 54.5821 187.90625 54.8125 C 187.83968 55.0378 187.74788 55.2542 187.625 55.5 C 187.50723 55.7406 187.37182 55.98315 187.1875 56.21875 C 187.00829 56.44915 186.76625 56.65435 186.5 56.84375 C 186.23887 57.02815 185.94703 57.16855 185.59375 57.28125 C 185.24558 57.39425 184.83581 57.46875 184.375 57.46875 L 183.375 57.46875 L 184.53125 51.8125 C 184.80261 51.664 185.06726 51.54575 185.34375 51.46875 C 185.62536 51.39155 185.9223 51.34375 186.25 51.34375 z M 127.59375 51.40625 C 127.88047 51.40635 128.09639 51.46575 128.25 51.59375 C 128.40871 51.71655 128.52715 51.88375 128.59375 52.09375 C 128.66035 52.30365 128.6977 52.5411 128.6875 52.8125 C 128.6772 53.0839 128.64495 53.3905 128.59375 53.6875 L 128.5 54 L 125.25 54 C 125.3268 53.662 125.4345 53.34355 125.5625 53.03125 C 125.69562 52.71375 125.86793 52.45425 126.0625 52.21875 C 126.25706 51.97815 126.46785 51.7684 126.71875 51.625 C 126.97475 51.4819 127.27629 51.40635 127.59375 51.40625 z M 79.25 51.65625 L 79.71875 51.65625 C 80.32292 51.65625 80.87781 51.6947 81.34375 51.8125 C 81.8148 51.9303 82.17178 52.10315 82.46875 52.34375 C 82.76571 52.58445 82.9811 52.90235 83.09375 53.28125 C 83.20645 53.65505 83.22739 54.113 83.125 54.625 C 83.03795 55.05 82.88717 55.4121 82.6875 55.75 C 82.49292 56.088 82.23446 56.3895 81.9375 56.625 C 81.64052 56.8606 81.30049 57.03345 80.90625 57.15625 C 80.51711 57.27965 80.10117 57.34375 79.625 57.34375 L 78.09375 57.34375 L 79.25 51.65625 z M 145.84375 53.46875 C 146.16631 53.46875 146.46786 53.4905 146.71875 53.5625 C 146.97475 53.6342 147.1912 53.75775 147.40625 53.90625 L 146.71875 57.46875 L 145.6875 57.46875 C 145.32397 57.46875 145.01677 57.42075 144.78125 57.34375 C 144.55084 57.26185 144.35699 57.15925 144.21875 57.03125 C 144.08051 56.90325 143.9989 56.7787 143.9375 56.625 C 143.88117 56.4663 143.8279 56.30985 143.8125 56.15625 C 143.8026 56.00265 143.82835 55.85185 143.84375 55.71875 C 143.86425 55.58555 143.8596 55.457 143.875 55.375 C 143.93644 55.0883 144.04361 54.82925 144.15625 54.59375 C 144.27401 54.35825 144.39865 54.1689 144.5625 54 C 144.73146 53.831 144.9412 53.68575 145.15625 53.59375 C 145.37129 53.50145 145.58774 53.46875 145.84375 53.46875 z "
       transform="translate(371.17048,3100.5442)"
       id="path3217" />
    <path
       inkscape:connector-curvature="0"
       style="font-size:15.72906113px;font-style:italic;font-variant:normal;font-weight:normal;font-stretch:normal;text-align:start;line-height:125%;letter-spacing:0px;word-spacing:0px;writing-mode:lr-tb;text-anchor:start;fill:#699cd8;fill-opacity:0.40803576;stroke:none;font-family:Federo;-inkscape-font-specification:Federo Italic"
       d="m 449.70173,3147.232 -2.28125,11.4062 3.65625,0 c 0.8141,0 1.49981,-0.076 2.09375,-0.25 0.59393,-0.1792 1.0955,-0.4427 1.5,-0.75 0.4096,-0.3072 0.73322,-0.6478 0.96875,-1.0625 0.23552,-0.4148 0.4027,-0.8675 0.5,-1.3437 0.18943,-0.9523 0.0546,-1.7288 -0.40625,-2.3125 -0.4557,-0.5889 -1.265,-0.9509 -2.4375,-1.125 l 0,-0.031 c 0.50177,-0.061 0.92283,-0.1742 1.28125,-0.3125 0.36352,-0.1433 0.67071,-0.3105 0.90625,-0.5 0.24064,-0.1945 0.42937,-0.3944 0.5625,-0.625 0.13312,-0.2303 0.23005,-0.4781 0.28125,-0.7187 0.0713,-0.3636 0.0768,-0.6718 0,-0.9688 -0.0768,-0.2968 -0.25936,-0.5713 -0.5,-0.7812 -0.24066,-0.2099 -0.57504,-0.356 -1,-0.4688 -0.41986,-0.1129 -0.91684,-0.1562 -1.53125,-0.1562 l -3.59375,0 z m 39.09375,0 -2.28125,11.4062 1.5625,0 1.21875,-6.0312 c 0.47617,-0.1997 0.89158,-0.3452 1.25,-0.4063 0.3584,-0.067 0.64512,-0.094 0.90625,-0.094 0.15872,0 0.2828,0.033 0.375,0.094 0.0922,0.056 0.17775,0.1268 0.21875,0.2188 0.0409,0.092 0.0625,0.1948 0.0625,0.3125 0,0.1178 -0.0108,0.2311 -0.0312,0.3437 l -1.125,5.5625 1.5625,0 1.1562,-5.7812 c 0.11264,-0.5581 0.0798,-0.9679 -0.125,-1.2188 -0.20482,-0.2509 -0.54996,-0.375 -1.03125,-0.375 -0.19457,0 -0.40996,0.01 -0.625,0.031 -0.20993,0.02 -0.43662,0.064 -0.6875,0.125 -0.2509,0.056 -0.51553,0.1217 -0.8125,0.2187 -0.29697,0.092 -0.61547,0.2317 -0.96875,0.375 l 0.9375,-4.7812 -1.5625,0 z m 19.0625,0 -2.28125,11.4062 1.53125,0 1.21875,-6.0312 c 0.47617,-0.1997 0.89159,-0.3452 1.25,-0.4063 0.35841,-0.067 0.67636,-0.094 0.9375,-0.094 0.15871,0 0.2828,0.033 0.375,0.094 0.0922,0.056 0.1465,0.1268 0.1875,0.2188 0.0409,0.092 0.0625,0.1948 0.0625,0.3125 0,0.1178 -0.0108,0.2311 -0.0312,0.3437 l -1.09375,5.5625 1.5625,0 1.15625,-5.7812 c 0.11264,-0.5581 0.0486,-0.9679 -0.15625,-1.2188 -0.20481,-0.2509 -0.54996,-0.375 -1.03125,-0.375 -0.19457,0 -0.37871,0.01 -0.59375,0.031 -0.20993,0.02 -0.43662,0.064 -0.6875,0.125 -0.25089,0.056 -0.54679,0.1217 -0.84375,0.2187 -0.29698,0.092 -0.61546,0.2317 -0.96875,0.375 l 0.9375,-4.7812 -1.53125,0 z m 26.40625,0 -0.90625,4.5625 c -0.26625,-0.1741 -0.53655,-0.3193 -0.84375,-0.4063 -0.30722,-0.086 -0.58775,-0.125 -0.84375,-0.125 -0.65026,0 -1.23799,0.071 -1.75,0.25 -0.5069,0.174 -0.93873,0.4377 -1.3125,0.75 -0.36865,0.3073 -0.67073,0.6637 -0.90625,1.0938 -0.23553,0.425 -0.42884,0.9046 -0.53125,1.4062 -0.0666,0.3381 -0.0836,0.6462 -0.0937,0.9688 -0.005,0.3226 0.017,0.6457 0.0937,0.9375 0.0819,0.2867 0.22705,0.5406 0.40625,0.7812 0.17921,0.2407 0.41154,0.4458 0.71875,0.625 0.30721,0.174 0.68467,0.3093 1.125,0.4063 0.44545,0.097 0.98445,0.1562 1.59375,0.1562 l 2.53125,0 2.28125,-11.4062 -1.5625,0 z m 9.25,0 -2.28125,11.4062 1.5625,0 1.1875,-6.0312 c 0.47617,-0.1997 0.89159,-0.3452 1.25,-0.4063 0.35841,-0.067 0.67637,-0.094 0.9375,-0.094 0.15872,0 0.2828,0.033 0.375,0.094 0.0922,0.056 0.17775,0.1268 0.21875,0.2188 0.0409,0.092 0.0625,0.1948 0.0625,0.3125 0,0.1178 -0.0108,0.2311 -0.0312,0.3437 l -1.125,5.5625 1.5625,0 1.15625,-5.7812 c 0.11263,-0.5581 0.0798,-0.9679 -0.125,-1.2188 -0.20482,-0.2509 -0.54997,-0.375 -1.03125,-0.375 -0.19457,0 -0.40996,0.01 -0.625,0.031 -0.20993,0.02 -0.43662,0.064 -0.6875,0.125 -0.25089,0.056 -0.51554,0.1217 -0.8125,0.2187 -0.29697,0.092 -0.64671,0.2317 -1,0.375 l 0.96875,-4.7812 -1.5625,0 z m -92.25,0.75 1.125,0 c 0.384,0 0.73428,0.01 1.03125,0.062 0.29697,0.051 0.5293,0.1532 0.71875,0.2812 0.18944,0.1281 0.33455,0.285 0.40625,0.5 0.0717,0.2099 0.0614,0.4689 0,0.7813 -0.0666,0.3379 -0.16968,0.6446 -0.34375,0.875 -0.1741,0.2304 -0.37412,0.4192 -0.625,0.5625 -0.2509,0.1383 -0.55756,0.2465 -0.875,0.3125 -0.31234,0.061 -0.64672,0.062 -1,0.062 l -1.15625,0 0.71875,-3.4375 z m 34.875,0.625 -1.5625,0.4375 -0.5,2.375 -1,0 -0.125,0.6875 1,0 -1.3125,6.5312 1.46875,0 1.3125,-6.5312 1.03125,0 0.15625,-0.6875 -1.03125,0 0.5625,-2.8125 z m 65,0.6562 -0.1875,0.9375 1.5625,0 0.1875,-0.9375 -1.5625,0 z m -81.46875,2 c -0.10241,0 -0.20498,0.01 -0.3125,0.031 -0.10753,0.02 -0.23676,0.069 -0.375,0.125 -0.13313,0.051 -0.29467,0.096 -0.46875,0.1875 -0.17409,0.092 -0.36334,0.2317 -0.59375,0.375 l 0.0937,-0.5938 -1.5625,0 -1.4375,7.25 1.5625,0 1.21875,-6.0937 c 0.21504,-0.1076 0.40889,-0.204 0.5625,-0.25 0.15872,-0.046 0.29872,-0.062 0.40625,-0.062 0.18432,0 0.28745,0.065 0.34375,0.2187 0.0563,0.1537 0.0881,0.4127 0.0625,0.7813 l 1.40625,-0.375 c 0.0666,-0.5069 0.0496,-0.911 -0.0937,-1.1875 -0.13825,-0.2765 -0.41313,-0.4063 -0.8125,-0.4063 z m 6.9375,0 c -0.19458,0 -0.40996,0.01 -0.625,0.031 -0.20993,0.02 -0.43662,0.064 -0.6875,0.125 -0.25089,0.056 -0.51554,0.1217 -0.8125,0.2187 -0.29697,0.092 -0.61546,0.2317 -0.96875,0.375 l 0.0937,-0.5937 -1.5625,0 -1.4375,7.2187 1.5625,0 1.21875,-6.0312 c 0.47617,-0.1997 0.86546,-0.3452 1.21875,-0.4063 0.35841,-0.067 0.67636,-0.094 0.9375,-0.094 0.15872,0 0.2828,0.033 0.375,0.094 0.0922,0.056 0.17775,0.1268 0.21875,0.2188 0.0461,0.092 0.0625,0.1948 0.0625,0.3125 0,0.1178 -0.0108,0.2311 -0.0312,0.3437 l -1.125,5.5625 1.5625,0 1.15625,-5.7812 c 0.11263,-0.5581 0.0798,-0.9679 -0.125,-1.2188 -0.20481,-0.2509 -0.54997,-0.375 -1.03125,-0.375 z m 22.375,0 c -0.54786,0 -1.06532,0.1027 -1.53125,0.3125 -0.46081,0.205 -0.86034,0.4644 -1.21875,0.8125 -0.35841,0.3431 -0.66561,0.7683 -0.90625,1.2188 -0.24065,0.4506 -0.4027,0.8937 -0.5,1.375 -0.1178,0.5786 -0.16035,1.1119 -0.0937,1.5625 0.0717,0.4505 0.25989,0.8127 0.53125,1.125 0.27649,0.3123 0.63858,0.5548 1.125,0.7187 0.4864,0.1637 1.09568,0.25 1.8125,0.25 l 1.625,0 0.125,-0.625 -1.59375,0 c -0.4813,0 -0.86441,-0.097 -1.15625,-0.2812 -0.29185,-0.1895 -0.5339,-0.4372 -0.6875,-0.7188 -0.14849,-0.2815 -0.2244,-0.5734 -0.25,-0.9062 -0.0256,-0.3328 -0.025,-0.6508 0.0312,-0.9375 l 4.75,0 0.0625,-0.3438 c 0.0922,-0.4762 0.1404,-0.9501 0.125,-1.375 -0.0102,-0.4301 -0.0862,-0.7973 -0.25,-1.125 -0.16385,-0.3276 -0.42744,-0.5918 -0.75,-0.7812 -0.32258,-0.1948 -0.72775,-0.2813 -1.25,-0.2813 z m 19.15625,0 c -0.41986,0 -0.86246,0.022 -1.34375,0.094 -0.4813,0.067 -0.97669,0.185 -1.4375,0.3437 l 0.0937,0.5 c 0.13313,-0.036 0.27312,-0.063 0.40625,-0.094 0.13824,-0.036 0.28389,-0.068 0.4375,-0.094 0.1536,-0.025 0.31567,-0.048 0.5,-0.062 0.18432,-0.013 0.41048,-0.031 0.65625,-0.031 0.38912,0 0.69632,0.033 0.90625,0.094 0.20992,0.061 0.3505,0.153 0.4375,0.25 0.0922,0.092 0.12499,0.1897 0.125,0.3125 0,0.1178 -0.0108,0.2261 -0.0312,0.3438 l -0.1875,0.9687 c -0.26625,-0.1741 -0.53655,-0.288 -0.84375,-0.375 -0.30721,-0.087 -0.58775,-0.1562 -0.84375,-0.1562 -0.47106,0 -0.91825,0.07 -1.3125,0.1875 -0.38913,0.1126 -0.72916,0.2748 -1.03125,0.5 -0.29697,0.2202 -0.54519,0.5161 -0.75,0.8437 -0.19968,0.3277 -0.3505,0.6949 -0.4375,1.125 -0.0665,0.3482 -0.0768,0.6827 0,1 0.0819,0.3124 0.27524,0.598 0.53125,0.8438 0.26112,0.2406 0.60681,0.4191 1.0625,0.5625 0.45569,0.143 1.03265,0.2187 1.71875,0.2187 l 2.53125,0 1.125,-5.6875 c 0.0666,-0.3276 0.0932,-0.5974 0.0625,-0.8125 -0.0307,-0.2202 -0.14354,-0.3719 -0.3125,-0.5 -0.16897,-0.1331 -0.41208,-0.2252 -0.75,-0.2812 -0.33281,-0.056 -0.7749,-0.094 -1.3125,-0.094 z m 7.84375,0 c -0.10241,0 -0.20498,0.01 -0.3125,0.031 -0.10752,0.02 -0.23676,0.069 -0.375,0.125 -0.13312,0.051 -0.29467,0.096 -0.46875,0.1875 -0.17409,0.092 -0.36335,0.2317 -0.59375,0.375 l 0.0937,-0.5938 -1.5625,0 -1.4375,7.25 1.5625,0 1.2188,-6.0937 c 0.21504,-0.1076 0.40889,-0.204 0.5625,-0.25 0.15872,-0.046 0.29872,-0.062 0.40625,-0.062 0.18432,0 0.28745,0.065 0.34375,0.2187 0.0563,0.1537 0.0881,0.4127 0.0625,0.7813 l 1.40625,-0.375 c 0.0666,-0.5069 0.0496,-0.911 -0.0937,-1.1875 -0.13825,-0.2765 -0.41313,-0.4063 -0.8125,-0.4063 z m 13,0 c -0.32257,0 -0.6144,0.017 -0.90625,0.062 -0.28673,0.041 -0.55084,0.1113 -0.78125,0.2188 -0.22529,0.1024 -0.40378,0.2322 -0.5625,0.4062 -0.15361,0.1742 -0.2613,0.3952 -0.3125,0.6563 -0.031,0.1588 -0.0466,0.3095 -0.0312,0.4375 0.0205,0.128 0.0636,0.2628 0.125,0.4062 0.0614,0.1434 0.13735,0.3158 0.25,0.5 0.11776,0.1845 0.27877,0.4161 0.4375,0.6875 l 0.62495,0.9063 c 0.21504,0.297 0.393,0.5667 0.53125,0.8125 0.13824,0.2458 0.1711,0.4934 0.125,0.7187 -0.0666,0.3226 -0.22352,0.5498 -0.5,0.7188 -0.27137,0.1694 -0.64371,0.25 -1.125,0.25 -0.29185,0 -0.5565,-0.054 -0.8125,-0.1563 -0.25601,-0.1075 -0.50883,-0.2208 -0.71875,-0.3437 l -0.1875,0.7187 c 0.26113,0.1742 0.55755,0.283 0.875,0.375 0.31744,0.097 0.68978,0.1563 1.125,0.1563 0.31232,0 0.61493,-0.027 0.9375,-0.094 0.32257,-0.067 0.62976,-0.1952 0.90625,-0.3437 0.27648,-0.1536 0.51906,-0.3269 0.71875,-0.5625 0.19968,-0.2355 0.33455,-0.537 0.40625,-0.875 0.0307,-0.174 0.0199,-0.3259 -0.0312,-0.5 -0.0461,-0.1792 -0.12145,-0.3833 -0.21875,-0.5625 -0.0973,-0.1792 -0.21063,-0.347 -0.34375,-0.5313 -0.13313,-0.1895 -0.27313,-0.394 -0.40625,-0.5937 l -0.625,-0.9375 c -0.20481,-0.2816 -0.3556,-0.4981 -0.4375,-0.6875 -0.0815,-0.1894 -0.11935,-0.3668 -0.0937,-0.5 0.0205,-0.1177 0.0744,-0.1993 0.15625,-0.2813 0.087,-0.082 0.20498,-0.1415 0.3125,-0.1875 0.10752,-0.052 0.20497,-0.1039 0.3125,-0.125 0.11264,-0.021 0.20445,-0.031 0.28125,-0.031 0.36352,0 0.68149,0.028 0.9375,0.094 0.256,0.067 0.49346,0.163 0.71875,0.25 l 0.125,-0.6875 c -0.15873,-0.057 -0.27825,-0.1102 -0.40625,-0.1562 -0.128,-0.046 -0.27313,-0.089 -0.40625,-0.125 -0.13312,-0.036 -0.27878,-0.047 -0.4375,-0.062 -0.15361,-0.021 -0.34746,-0.031 -0.5625,-0.031 z m 18.75,0 c -0.26114,0 -0.58933,0.038 -0.9375,0.125 -0.34305,0.087 -0.67231,0.2271 -1,0.4063 l 0.0937,-0.375 -1.5625,0 -2.09375,10.4375 1.65625,-0.4375 0.53125,-2.7813 1,0 c 0.91138,0 1.67759,-0.097 2.3125,-0.3125 0.64001,-0.215 1.17901,-0.5166 1.59375,-0.875 0.41984,-0.3584 0.74346,-0.7528 0.96875,-1.2187 0.2304,-0.4711 0.39759,-0.9619 0.5,-1.4688 0.1024,-0.5016 0.129,-0.9812 0.0625,-1.4062 -0.0615,-0.4301 -0.21788,-0.7865 -0.46875,-1.0938 -0.24578,-0.3123 -0.59093,-0.576 -1.03125,-0.75 -0.43522,-0.1788 -0.97475,-0.25 -1.625,-0.25 z m 7.28125,0 c -0.32258,0 -0.6144,0.017 -0.90625,0.062 -0.28673,0.041 -0.55085,0.1113 -0.78125,0.2188 -0.22529,0.1024 -0.43503,0.2322 -0.59375,0.4062 -0.15361,0.1742 -0.23005,0.3952 -0.28125,0.6563 -0.031,0.1588 -0.0466,0.3095 -0.0312,0.4375 0.0205,0.128 0.0636,0.2628 0.125,0.4062 0.0614,0.1434 0.13735,0.3158 0.25,0.5 0.11776,0.1845 0.24752,0.4161 0.40625,0.6875 l 0.6562,0.9063 c 0.21505,0.297 0.393,0.5667 0.53125,0.8125 0.13824,0.2458 0.1711,0.4934 0.125,0.7187 -0.0666,0.3226 -0.22352,0.5498 -0.5,0.7188 -0.27137,0.1694 -0.64371,0.25 -1.125,0.25 -0.29185,0 -0.58775,-0.054 -0.84375,-0.1563 -0.25601,-0.1075 -0.47758,-0.2208 -0.6875,-0.3437 l -0.21875,0.7187 c 0.26113,0.1742 0.55755,0.283 0.875,0.375 0.31744,0.097 0.68978,0.1563 1.125,0.1563 0.31232,0 0.64618,-0.027 0.96875,-0.094 0.32257,-0.067 0.62975,-0.1952 0.90625,-0.3437 0.27648,-0.1536 0.48781,-0.3269 0.6875,-0.5625 0.19968,-0.2355 0.33455,-0.537 0.40625,-0.875 0.0307,-0.174 0.0199,-0.3259 -0.0312,-0.5 -0.0461,-0.1792 -0.0902,-0.3833 -0.1875,-0.5625 -0.0973,-0.1792 -0.21063,-0.347 -0.34375,-0.5313 -0.13313,-0.1895 -0.27313,-0.394 -0.40625,-0.5937 l -0.6563,-0.9375 c -0.20481,-0.2816 -0.32435,-0.4981 -0.40625,-0.6875 -0.0815,-0.1894 -0.11935,-0.3668 -0.0937,-0.5 0.0205,-0.1177 0.0744,-0.1993 0.15625,-0.2813 0.087,-0.082 0.17372,-0.1415 0.28125,-0.1875 0.10752,-0.052 0.20497,-0.1039 0.3125,-0.125 0.11264,-0.021 0.2357,-0.031 0.3125,-0.031 0.36352,0 0.65024,0.028 0.90625,0.094 0.256,0.067 0.49346,0.163 0.71875,0.25 l 0.15625,-0.6875 c -0.15873,-0.057 -0.3095,-0.1102 -0.4375,-0.1562 -0.12801,-0.046 -0.24188,-0.089 -0.375,-0.125 -0.13313,-0.036 -0.27878,-0.047 -0.4375,-0.062 -0.15361,-0.021 -0.34746,-0.031 -0.5625,-0.031 z m -106.625,0.125 -1.15625,5.8125 c -0.11265,0.5582 -0.0434,0.9679 0.15625,1.2188 0.2048,0.2458 0.54995,0.3437 1.03125,0.3437 0.18944,0 0.37871,-0.01 0.59375,-0.031 0.21505,-0.02 0.43661,-0.038 0.6875,-0.094 0.25089,-0.056 0.52065,-0.1579 0.8125,-0.25 0.29697,-0.097 0.63647,-0.2004 1,-0.3437 l -0.125,0.5937 1.5625,0 1.4375,-7.25 -1.5625,0 -1.1875,6.0625 c -0.47617,0.1998 -0.89159,0.308 -1.25,0.375 -0.35841,0.061 -0.67638,0.094 -0.9375,0.094 -0.16385,0 -0.2828,-0.01 -0.375,-0.062 -0.087,-0.061 -0.1465,-0.158 -0.1875,-0.25 -0.0409,-0.092 -0.0625,-0.1999 -0.0625,-0.3125 0,-0.1178 0.006,-0.2261 0.0312,-0.3438 l 1.09375,-5.5625 -1.5625,0 z m 92.3125,0.031 -1.4375,7.2187 1.5625,0 1.4375,-7.2187 -1.5625,0 z m -19.03125,0.4687 c 0.32257,0 0.6241,0.048 0.875,0.125 0.256,0.072 0.50369,0.1954 0.71875,0.3438 l -1.15625,5.6562 -0.96875,0 c -0.4557,0 -0.84905,-0.075 -1.15625,-0.1875 -0.30721,-0.1127 -0.56568,-0.253 -0.75,-0.4375 -0.18433,-0.1894 -0.31405,-0.3946 -0.40625,-0.625 -0.0871,-0.2356 -0.13065,-0.4781 -0.15625,-0.7187 -0.0205,-0.2458 -0.0205,-0.4622 0,-0.6875 0.0256,-0.2304 0.058,-0.4509 0.0937,-0.625 0.0717,-0.3738 0.16966,-0.7245 0.34375,-1.0625 0.17408,-0.343 0.40536,-0.6451 0.65625,-0.9063 0.25601,-0.2611 0.55242,-0.4713 0.875,-0.625 0.32768,-0.159 0.65236,-0.25 1.03125,-0.25 z m 25.75,0 c 0.384,0 0.70762,0.091 0.96875,0.25 0.26624,0.1537 0.47651,0.3639 0.625,0.625 0.1536,0.2612 0.24535,0.5633 0.28125,0.9063 0.0358,0.338 0.0404,0.6887 -0.0312,1.0625 -0.0359,0.1741 -0.1158,0.3946 -0.1875,0.625 -0.0666,0.2253 -0.15837,0.4417 -0.28125,0.6875 -0.11777,0.2406 -0.25318,0.4831 -0.4375,0.7187 -0.17921,0.2304 -0.42125,0.4356 -0.6875,0.625 -0.26113,0.1845 -0.55297,0.3248 -0.90625,0.4375 -0.34817,0.113 -0.75794,0.1875 -1.21875,0.1875 l -1,0 1.15625,-5.6562 c 0.27136,-0.1485 0.53601,-0.2667 0.8125,-0.3438 0.28161,-0.077 0.57855,-0.125 0.90625,-0.125 z m -58.65625,0.062 c 0.28672,2e-4 0.50264,0.059 0.65625,0.1875 0.15871,0.1229 0.27715,0.29 0.34375,0.5 0.0666,0.2099 0.10395,0.4474 0.0937,0.7188 -0.0103,0.2714 -0.0426,0.578 -0.0937,0.875 l -0.0937,0.3125 -3.25,0 c 0.0768,-0.338 0.1845,-0.6565 0.3125,-0.9688 0.13312,-0.3175 0.30543,-0.577 0.5,-0.8125 0.19456,-0.2406 0.40535,-0.4503 0.65625,-0.5937 0.256,-0.1431 0.55754,-0.2186 0.875,-0.2188 z m -48.34375,0.25 0.46875,0 c 0.60417,0 1.15906,0.038 1.625,0.1563 0.47105,0.1178 0.82803,0.2906 1.125,0.5312 0.29696,0.2407 0.51235,0.5586 0.625,0.9375 0.1127,0.3738 0.13364,0.8318 0.0312,1.3438 -0.087,0.425 -0.23783,0.7871 -0.4375,1.125 -0.19458,0.338 -0.45304,0.6395 -0.75,0.875 -0.29698,0.2356 -0.63701,0.4084 -1.03125,0.5312 -0.38914,0.1234 -0.80508,0.1875 -1.28125,0.1875 l -1.53125,0 1.15625,-5.6875 z m 66.59375,1.8125 c 0.32256,0 0.62411,0.022 0.875,0.094 0.256,0.072 0.47245,0.1953 0.6875,0.3437 l -0.6875,3.5625 -1.03125,0 c -0.36353,0 -0.67073,-0.048 -0.90625,-0.125 -0.23041,-0.082 -0.42426,-0.1844 -0.5625,-0.3125 -0.13824,-0.128 -0.21985,-0.2525 -0.28125,-0.4062 -0.0563,-0.1587 -0.1096,-0.3151 -0.125,-0.4688 -0.01,-0.1536 0.0159,-0.3044 0.0312,-0.4375 0.0205,-0.1332 0.0159,-0.2617 0.0312,-0.3437 0.0614,-0.2867 0.16861,-0.5458 0.28125,-0.7813 0.11776,-0.2354 0.2424,-0.4248 0.40625,-0.5937 0.16896,-0.169 0.3787,-0.3142 0.59375,-0.4063 0.21504,-0.092 0.43149,-0.125 0.6875,-0.125 z"
       id="path3217-9"
       class="vui_change_color" />
  </g>
</svg>
