<?xml version="1.0" encoding="UTF-8" standalone="no"?>
<!-- Created with Inkscape (http://www.inkscape.org/) -->

<svg
   xmlns:dc="http://purl.org/dc/elements/1.1/"
   xmlns:cc="http://creativecommons.org/ns#"
   xmlns:rdf="http://www.w3.org/1999/02/22-rdf-syntax-ns#"
   xmlns:svg="http://www.w3.org/2000/svg"
   xmlns="http://www.w3.org/2000/svg"
   xmlns:sodipodi="http://sodipodi.sourceforge.net/DTD/sodipodi-0.dtd"
   xmlns:inkscape="http://www.inkscape.org/namespaces/inkscape"
   id="svg2"
   height="48.0001"
   width="48"
   version="1.1"
   inkscape:version="0.92.1 r"
   sodipodi:docname="icon-car.svg">
  <defs
     id="defs8" />
  <sodipodi:namedview
     pagecolor="#ffffff"
     bordercolor="#666666"
     borderopacity="1"
     objecttolerance="10"
     gridtolerance="10"
     guidetolerance="10"
     inkscape:pageopacity="0"
     inkscape:pageshadow="2"
     inkscape:window-width="1920"
     inkscape:window-height="1017"
     id="namedview6"
     showgrid="true"
     inkscape:zoom="13.906405"
     inkscape:cx="24.104743"
     inkscape:cy="23.079034"
     inkscape:window-x="-5"
     inkscape:window-y="26"
     inkscape:window-maximized="1"
     inkscape:current-layer="svg2"
     inkscape:snap-bbox="true"
     inkscape:snap-global="false">
    <inkscape:grid
       type="xygrid"
       id="grid2989" />
  </sodipodi:namedview>
  <metadata
     id="metadata7">
    <rdf:RDF>
      <cc:Work
         rdf:about="">
        <dc:format>image/svg+xml</dc:format>
        <dc:type
           rdf:resource="http://purl.org/dc/dcmitype/StillImage" />
        <dc:title></dc:title>
      </cc:Work>
    </rdf:RDF>
  </metadata>
  <path
     style="color:#000000;clip-rule:nonzero;display:inline;overflow:visible;visibility:visible;opacity:1;isolation:auto;mix-blend-mode:normal;color-interpolation:sRGB;color-interpolation-filters:linearRGB;solid-color:#000000;solid-opacity:1;vector-effect:none;fill:#000000;fill-opacity:1;fill-rule:nonzero;stroke:none;stroke-width:1.88976383;stroke-linecap:butt;stroke-linejoin:miter;stroke-miterlimit:4;stroke-dasharray:none;stroke-dashoffset:0;stroke-opacity:1;marker:none;color-rendering:auto;image-rendering:auto;shape-rendering:auto;text-rendering:auto;enable-background:accumulate"
     d="M 24,4 C 12.954305,4 4,12.954305 4,24 4,35.045695 12.954305,44 24,44 35.045695,44 44,35.045695 44,24 44,12.954305 35.045695,4 24,4 Z m 0.0039,7.988281 c 4.552108,0 5.917969,0.529297 5.917969,0.529297 0.815839,0.232306 2.302964,0.705276 2.767578,1.761719 0.29868,0.67756 1.32724,3.569059 2.167969,5.966797 h 1.121094 c 0.500566,0 1.041426,0.409918 1.21289,0.916015 L 37.5,22.080078 c 0.171466,0.508861 -0.09237,0.917969 -0.595703,0.917969 h -1.089844 c 0.14382,0.414834 0.230469,0.664062 0.230469,0.664062 0.0885,0.146573 0.148437,0.835054 0.148437,1.017579 v 8.357421 c 0,0.536518 -0.424903,0.97461 -0.953125,0.97461 h -3.507812 c -0.528221,0 -0.957031,-0.438092 -0.957031,-0.97461 V 31.259766 H 17.224609 v 1.777343 c 0,0.536518 -0.428809,0.97461 -0.957031,0.97461 h -3.503906 c -0.530987,0 -0.957031,-0.438092 -0.957031,-0.97461 v -8.357421 c 0,-0.182525 0.0619,-0.868239 0.15039,-1.017579 0,0 0.08161,-0.249228 0.222657,-0.664062 H 11.09375 c -0.497796,0 -0.76245,-0.409108 -0.59375,-0.917969 l 0.308594,-0.917969 c 0.171466,-0.506097 0.717042,-0.916015 1.214844,-0.916015 h 1.099609 c 0.851791,-2.464112 1.897584,-5.438715 2.146484,-5.919922 0.525457,-1.023257 1.859523,-1.482259 2.816407,-1.808594 0,0 1.365861,-0.529297 5.917968,-0.529297 z M 24,14.025391 c -6.886237,0 -7.017974,1.06332 -7.15625,1.40625 -0.171466,0.475676 -0.946641,2.174666 -1.660156,5.183593 0,0 2.925768,1.006707 8.816406,1.003907 5.88787,0 8.794922,-1.007813 8.794922,-1.007813 C 32.120126,17.837475 31.279355,15.896329 31.066406,15.251953 31.052579,15.238126 30.886237,14.025391 24,14.025391 Z m -9.679688,10.128906 c -0.600124,0 -1.160156,0.03662 -1.160156,1.015625 v 1.015625 c 0,0.835199 1.296706,1.013672 2.59375,1.013672 h 1.449219 c 1.095162,0 1.418816,-0.268359 1.416016,-0.857422 0,-0.630547 -0.934333,-0.948431 -1.769532,-1.330078 -0.768825,-0.351226 -1.937467,-0.857422 -2.529297,-0.857422 z m 19.353516,0 c -0.589064,0 -1.754613,0.508961 -2.523437,0.857422 -0.832433,0.381647 -1.773438,0.696766 -1.773438,1.330078 0,0.589063 0.326386,0.857422 1.416016,0.857422 h 1.451172 c 1.297045,0 2.59375,-0.175707 2.59375,-1.013672 v -1.015625 c 0,-0.978991 -0.56117,-1.015625 -1.164063,-1.015625 z"
     id="path4483"
     inkscape:connector-curvature="0"
     sodipodi:nodetypes="sssssscccsccsccsssssccsssssccsccscccsscccccssssssccsscssssss" />
</svg>
