<?xml version="1.0" encoding="UTF-8" standalone="no"?>
<!-- Generator: Adobe Illustrator 16.0.0, SVG Export Plug-In . SVG Version: 6.00 Build 0)  -->

<svg
   xmlns:dc="http://purl.org/dc/elements/1.1/"
   xmlns:cc="http://creativecommons.org/ns#"
   xmlns:rdf="http://www.w3.org/1999/02/22-rdf-syntax-ns#"
   xmlns:svg="http://www.w3.org/2000/svg"
   xmlns="http://www.w3.org/2000/svg"
   xmlns:sodipodi="http://sodipodi.sourceforge.net/DTD/sodipodi-0.dtd"
   xmlns:inkscape="http://www.inkscape.org/namespaces/inkscape"
   version="1.1"
   id="Layer_1"
   x="0px"
   y="0px"
   width="100"
   height="100"
   viewBox="0 0 100 100"
   enable-background="new 0 0 130 43"
   xml:space="preserve"
   sodipodi:docname="icon-1x1-rodobens-consorcio.svg"
   inkscape:version="0.92.1 r"><metadata
     id="metadata43"><rdf:RDF><cc:Work
         rdf:about=""><dc:format>image/svg+xml</dc:format><dc:type
           rdf:resource="http://purl.org/dc/dcmitype/StillImage" /><dc:title></dc:title></cc:Work></rdf:RDF></metadata><defs
     id="defs41" /><sodipodi:namedview
     pagecolor="#ffffff"
     bordercolor="#666666"
     borderopacity="1"
     objecttolerance="10"
     gridtolerance="10"
     guidetolerance="10"
     inkscape:pageopacity="0"
     inkscape:pageshadow="2"
     inkscape:window-width="640"
     inkscape:window-height="480"
     id="namedview39"
     showgrid="false"
     fit-margin-top="0"
     fit-margin-left="0"
     fit-margin-right="0"
     fit-margin-bottom="0"
     inkscape:zoom="8.8"
     inkscape:cx="32.5"
     inkscape:cy="15.022724"
     inkscape:current-layer="Layer_1" /><g
     id="g4525"
     transform="scale(2.3218998)"
     style="stroke-width:0.43068179"><rect
       y="0"
       x="0"
       height="43.06818"
       width="43.06818"
       id="rect4520"
       style="color:#000000;clip-rule:nonzero;display:inline;overflow:visible;visibility:visible;opacity:0.00100002;isolation:auto;mix-blend-mode:normal;color-interpolation:sRGB;color-interpolation-filters:linearRGB;solid-color:#000000;solid-opacity:1;vector-effect:none;fill:#fde100;fill-opacity:0.00392157;fill-rule:nonzero;stroke:none;stroke-width:0.43068179;stroke-linecap:butt;stroke-linejoin:miter;stroke-miterlimit:4;stroke-dasharray:none;stroke-dashoffset:0;stroke-opacity:1;marker:none;color-rendering:auto;image-rendering:auto;shape-rendering:auto;text-rendering:auto;enable-background:accumulate" /><path
       style="fill:#a0bd06;stroke-width:0.43068179"
       inkscape:connector-curvature="0"
       id="path2"
       d="m 10.852085,4.6927304 c 14.017502,-1.978876 25.384161,1.550027 26.402908,8.9712756 0.456,3.311084 -0.934829,5.39671 -4.263808,7.405821 5.153593,-1.927044 7.61315,-4.367472 6.841222,-9.027426 C 38.676674,5.0648109 27.229182,1.2748962 13.987928,3.1445545 9.453235,3.7862854 5.3350502,5.5004475 1.8863636,7.1677137 4.0645464,6.5198123 8.4351042,5.0345755 10.852085,4.6927304" /><path
       style="fill:#008996;stroke-width:0.43068179"
       inkscape:connector-curvature="0"
       id="path4"
       d="M 24.989927,39.324727 19.205861,28.998387 C 18.788115,28.278777 18.84534,28.366045 18.391828,27.675048 17.740889,26.682185 15.758025,26.879613 15.042707,26.879613 V 39.324727 H 9.8409091 V 9.6690466 C 12.105608,8.515953 14.709368,7.9909091 17.25018,7.9909091 c 5.578054,0 11.194736,1.937083 11.194736,9.4221769 0,4.057288 -2.745393,7.663924 -6.115974,8.294835 v 0.09156 c 0.914177,0.04435 1.911331,1.713904 2.329078,2.434945 l 6.495093,11.0903 z M 17.500542,12.815018 c -0.834062,0 -1.626635,0.0887 -2.457835,0.27039 v 9.467958 h 2.333369 c 3.080162,0 5.618112,-1.758253 5.618112,-5.27619 0,-3.427807 -2.456404,-4.462158 -5.493646,-4.462158" /></g></svg>