<?xml version="1.0" encoding="UTF-8" standalone="no"?>
<!-- Created with Inkscape (http://www.inkscape.org/) -->
<svg id="svg2" xmlns:rdf="http://www.w3.org/1999/02/22-rdf-syntax-ns#" xmlns="http://www.w3.org/2000/svg" height="48.0001" width="48" version="1.1" xmlns:cc="http://creativecommons.org/ns#" xmlns:dc="http://purl.org/dc/elements/1.1/">
	<metadata id="metadata7">
		<rdf:RDF>
			<cc:Work rdf:about="">
				<dc:format>image/svg+xml</dc:format>
				<dc:type rdf:resource="http://purl.org/dc/dcmitype/StillImage"/>
				<dc:title/>
			</cc:Work>
		</rdf:RDF>
	</metadata>
	<path id="path5853" style="color:#000000" d="m24 4c-5.52083 0-10.21875 1.968734-14.125 5.875-3.906253 3.90627-5.875 8.6042-5.875 14.125s1.968747 10.21873 5.875 14.125c3.90625 3.90627 8.60417 5.875 14.125 5.875s10.21875-1.96873 14.125-5.875 5.875-8.6042 5.875-14.125-1.96875-10.21873-5.875-14.125c-3.90625-3.906266-8.60417-5.875-14.125-5.875zm-4.90625 8.45703v0.00195c0.22014-0.01974 0.41006 0.1354 0.42969 0.35547l0.58984 6.57422c0.0198 0.22019-0.13724 0.4161-0.35742 0.43555l-1.98633 0.17578c-0.22019 0.01986-0.41787-0.13729-0.4375-0.35742l-0.58789-6.58008c-0.01483-0.1652 0.07358-0.3137 0.21094-0.38672 0.04577-0.02535 0.09729-0.03647 0.15234-0.04297l1.98633-0.17578zm-2.88281 0.52539c-0.0035 0.04397-0.0041 0.08548 0 0.13086l0.58984 6.53711c-1.19136 0.59427-1.97066 4.14167 0.44531 8.32617 2.41598 4.18463 5.8761 5.2836 6.98633 4.54883l5.36524 3.7793c0.03733 0.02606 0.07728 0.045 0.11718 0.06445-0.58554 0.87516-1.60472 1.67389-2.89062 1.67383-2.42038 0-8.19974-2.76455-11.70508-8.83594-3.50538-6.07145-3.01488-12.46248-1.80469-14.55859 0.29525-0.5114 0.70903-0.88868 1.17188-1.15625 0.54506-0.31532 1.15689-0.47205 1.72461-0.50977zm13.65039 1.26172c1.11979 0 2.11458 0.23698 2.98437 0.71094 0.875 0.46875 1.54948 1.13802 2.02344 2.00781 0.47917 0.86459 0.71875 1.86198 0.71875 2.99219 0 0.73958-0.11458 1.41666-0.34375 2.03125-0.22917 0.61458-0.55208 1.09115-0.96875 1.42969s-0.89583 0.50781-1.4375 0.50781c-0.44792 0-0.82552-0.13542-1.13281-0.40625-0.30729-0.27084-0.48959-0.61719-0.54688-1.03906h-0.0625c-0.20833 0.45312-0.50781 0.80729-0.89843 1.0625-0.38542 0.2552-0.84375 0.38281-1.375 0.38281-0.78125 0-1.39323-0.26563-1.83594-0.79688-0.4375-0.53646-0.65625-1.26302-0.65625-2.17968 0-1.0625 0.30729-1.92448 0.92187-2.58594 0.61459-0.66667 1.42188-1 2.42188-1 0.35417 0 0.75521 0.03385 1.20312 0.10156 0.44792 0.0625 0.85157 0.15104 1.21094 0.26563l-0.19531 3.67187v0.17188c0 0.92708 0.34635 1.39062 1.03906 1.39062 0.47396 0 0.85938-0.27865 1.15625-0.83594 0.29688-0.5625 0.44531-1.29166 0.44531-2.1875 0-0.94271-0.1927-1.76823-0.57812-2.47656s-0.9349-1.2526-1.64844-1.63281c-0.70833-0.38542-1.52344-0.57813-2.44531-0.57813-1.16146 0-2.17188 0.24219-3.03125 0.72657-0.85938 0.47916-1.51563 1.16666-1.96875 2.0625-0.45313 0.89062-0.67969 1.92187-0.67969 3.09375 0 1.58854 0.41927 2.80989 1.25781 3.66406 0.83855 0.85416 2.04688 1.28125 3.625 1.28125 1.09375 0 2.22917-0.22396 3.40625-0.67188v1.03907c-1 0.4375-2.13541 0.65625-3.40625 0.65625-1.89062 0-3.35937-0.51823-4.40625-1.55469-1.04166-1.04167-1.5625-2.49479-1.5625-4.35938 0-1.35416 0.27865-2.55989 0.83594-3.61718s1.35156-1.875 2.38281-2.45313c1.03125-0.58333 2.21355-0.875 3.54688-0.875zm-0.1875 4.07813c-0.67709 0-1.20833 0.23437-1.59375 0.70312-0.38021 0.46875-0.57031 1.11979-0.57031 1.95313 0 1.32291 0.50781 1.98437 1.52343 1.98437 1.07813 0 1.66407-0.8151 1.75782-2.44531l0.10937-2.03906c-0.375-0.10417-0.78385-0.15625-1.22656-0.15625zm-3.78125 11.38671c0.07653 0.00153 0.15874 0.02453 0.22656 0.07227l5.39258 3.80078c0.18079 0.12719 0.2229 0.37973 0.0957 0.56055l-1.14258 1.62304c-0.1272 0.18077-0.37393 0.22881-0.55468 0.10157l-5.40039-3.79883c-0.18074-0.12719-0.22095-0.37393-0.09375-0.55469l1.14257-1.63672c0.03181-0.0452 0.07115-0.08167 0.11524-0.10937v0.00781c0.06593-0.04132 0.14222-0.06641 0.21875-0.06641z"/>
</svg>
