<?xml version="1.0" encoding="UTF-8" standalone="no"?>
<!-- Created with Inkscape (http://www.inkscape.org/) -->

<svg
   xmlns:dc="http://purl.org/dc/elements/1.1/"
   xmlns:cc="http://creativecommons.org/ns#"
   xmlns:rdf="http://www.w3.org/1999/02/22-rdf-syntax-ns#"
   xmlns:svg="http://www.w3.org/2000/svg"
   xmlns="http://www.w3.org/2000/svg"
   xmlns:xlink="http://www.w3.org/1999/xlink"
   xmlns:sodipodi="http://sodipodi.sourceforge.net/DTD/sodipodi-0.dtd"
   xmlns:inkscape="http://www.inkscape.org/namespaces/inkscape"
   id="svg2"
   height="48.0001"
   width="48"
   version="1.1"
   inkscape:version="0.92.1 r"
   sodipodi:docname="icon-flame.svg">
  <defs
     id="defs8">
    <linearGradient
       x1="0"
       y1="0"
       x2="1"
       y2="0"
       gradientUnits="userSpaceOnUse"
       gradientTransform="matrix(77.0073,-2376.18,-2376.18,-77.0073,8572.91,10269.3)"
       spreadMethod="pad"
       id="linearGradient44">
      <stop
         style="stop-opacity:1;stop-color:#fae017"
         offset="0"
         id="stop38" />
      <stop
         style="stop-opacity:1;stop-color:#fae017"
         offset="0.0121212"
         id="stop40" />
      <stop
         style="stop-opacity:1;stop-color:#f1511d"
         offset="1"
         id="stop42" />
    </linearGradient>
    <linearGradient
       x1="0"
       y1="0"
       x2="1"
       y2="0"
       gradientUnits="userSpaceOnUse"
       gradientTransform="matrix(-0.28874578,-46.641337,46.641337,-0.28874578,23.389492,47.046875)"
       spreadMethod="pad"
       id="linearGradient26">
      <stop
         style="stop-opacity:1;stop-color:#ee2c21"
         offset="0"
         id="stop22" />
      <stop
         style="stop-opacity:1;stop-color:#fab318"
         offset="1"
         id="stop24" />
    </linearGradient>
    <linearGradient
       inkscape:collect="always"
       xlink:href="#linearGradient44"
       id="linearGradient4526"
       gradientUnits="userSpaceOnUse"
       gradientTransform="matrix(1.0108163,31.190309,-31.190309,1.0108163,23.419945,15.362364)"
       x1="0.13725719"
       y1="0.24652593"
       x2="1"
       y2="0"
       spreadMethod="pad" />
  </defs>
  <sodipodi:namedview
     pagecolor="#ffffff"
     bordercolor="#666666"
     borderopacity="1"
     objecttolerance="10"
     gridtolerance="10"
     guidetolerance="10"
     inkscape:pageopacity="0"
     inkscape:pageshadow="2"
     inkscape:window-width="1920"
     inkscape:window-height="1017"
     id="namedview6"
     showgrid="false"
     inkscape:zoom="13.906405"
     inkscape:cx="24.236946"
     inkscape:cy="20.747032"
     inkscape:window-x="-5"
     inkscape:window-y="26"
     inkscape:window-maximized="1"
     inkscape:current-layer="svg2"
     inkscape:snap-global="false" />
  <metadata
     id="metadata7">
    <rdf:RDF>
      <cc:Work
         rdf:about="">
        <dc:format>image/svg+xml</dc:format>
        <dc:type
           rdf:resource="http://purl.org/dc/dcmitype/StillImage" />
        <dc:title></dc:title>
      </cc:Work>
    </rdf:RDF>
  </metadata>
  <path
     style="fill:url(#linearGradient26);fill-opacity:1;fill-rule:nonzero;stroke:none;stroke-width:0.1333333;opacity:0.899"
     d="m 21.431641,1.9746094 c 1.933932,3.5504558 2.005444,6.6673938 1.43164,9.1308596 -0.318528,1.36751 -0.825509,2.536331 -1.296875,3.480469 -0.471366,0.944137 -0.909473,1.679182 -1.076172,2.103515 -0.56515,1.437985 -0.507273,3.481846 -0.126953,4.623047 a 0.33776227,0.33776227 0 0 1 -0.638672,0.216797 C 19.394401,20.572969 19.146578,19.575659 18.685547,18.75 c -0.265323,-0.475166 -0.609108,-0.886088 -1.070313,-1.224609 0.406081,0.744836 0.561364,1.504883 0.65625,2.160156 0.311456,2.148408 -0.935629,4.07164 -2.833984,5.691406 -6.43e-4,5.85e-4 -0.0013,0.0014 -0.002,0.002 -0.0022,0.0019 -0.0037,0.004 -0.0059,0.0059 -0.73504,0.669483 -1.51082,1.539725 -1.994141,2.482422 -0.485014,0.945997 -0.677835,1.938652 -0.304688,2.933593 a 0.33776227,0.33776227 0 0 1 -0.533203,0.376953 c -0.581753,-0.490129 -1.490421,-1.705882 -1.541015,-3.597656 -0.346733,1.0298 -0.527344,2.075349 -0.527344,3.072266 0,1.437022 0.503966,3.34378 1.603515,5.042968 a 0.33776227,0.33776227 0 0 1 -0.429687,0.488282 c -0.25458,-0.122167 -0.745104,-0.370639 -1.255859,-0.978516 -0.199749,-0.237731 -0.404919,-0.584801 -0.6093754,-0.947266 0.1076594,0.498514 0.2351864,0.977221 0.4687504,1.564454 1.379777,3.468217 3.827432,6.139411 6.40039,7.941406 2.178149,1.525487 4.418519,2.37889 6.154297,2.617187 -3.374403,-2.024082 -6.081071,-5.751589 -5.720703,-10.167968 0.4185,-5.130588 4.212339,-9.473306 6.416016,-13.501953 0.448695,-0.820066 0.891898,-2.116663 1.033203,-3.449219 0.141305,-1.332556 -0.01905,-2.69189 -0.699219,-3.69336 a 0.33776227,0.33776227 0 0 1 0.517578,-0.429687 c 1.948058,1.938068 2.557956,4.191532 2.550781,6.53125 -0.0072,2.339718 -0.605852,4.784124 -1.058593,7.226562 -0.165983,0.89826 -0.03376,1.850227 0.300781,2.587891 0.02338,-0.348951 0.0707,-0.70518 0.175781,-1.056641 0.227673,-0.761498 0.691895,-1.498178 1.501953,-1.976562 a 0.33776227,0.33776227 0 0 1 0.490235,0.402344 c -0.467144,1.343761 -0.353974,2.167259 0.30664,3.632812 0.586074,1.300754 1.504161,2.489209 2.078125,3.964844 a 0.33776227,0.33776227 0 0 1 0.0039,0.0078 c 1.068296,2.958567 0.124711,5.871572 -2.292968,8.150391 -0.429917,0.404918 -0.975986,0.833065 -1.539063,1.232422 1.832909,-0.645506 3.648684,-1.67275 5.183594,-3.009766 1.79775,-1.565968 3.170348,-3.513406 3.8125,-5.597656 -0.306116,0.331471 -0.630023,0.648591 -0.955078,0.910156 -0.371684,0.299086 -0.73519,0.541391 -1.060547,0.703125 -0.325357,0.161735 -0.599256,0.297233 -0.939453,0.169922 a 0.33776227,0.33776227 0 0 1 -0.105469,-0.568359 c 1.133629,-1.005598 1.837904,-1.996772 2.515625,-3.216797 a 0.33776227,0.33776227 0 0 1 0.002,-0.0059 C 36.122252,33.94273 36.929649,32.191691 37,29.810547 c 0.06333,-2.143472 -0.539287,-4.841357 -2.300781,-8.132813 -0.343822,3.091256 -2.05823,5.772635 -3.03125,7.09961 a 0.33776227,0.33776227 0 0 1 -0.578125,-0.337891 c 1.141128,-2.515313 1.490983,-4.185597 1.625,-5.056641 a 0.33776227,0.33776227 0 0 1 0.002,-0.0098 c 0.228819,-1.242393 0.256127,-3.520181 -0.283203,-6.064453 -0.437303,-2.062965 -1.273472,-4.296361 -2.626953,-6.345703 0.125047,0.825461 0.153533,1.660629 -0.0059,2.5 A 0.33779017,0.33779017 0 0 1 29.134766,13.349609 C 29.173169,13.101878 29.004459,12.249508 28.583984,11.21875 28.16351,10.187992 27.519181,8.9295037 26.708984,7.6503906 25.338235,5.4862944 23.470679,3.3188935 21.431641,1.9746094 Z"
     id="path28" />
  <path
     style="fill:url(#linearGradient4526);fill-opacity:1;fill-rule:nonzero;stroke:none;stroke-width:0.1333333"
     d="m 24.452357,45.247289 c -3.18297,-1.612372 -5.867489,-4.995834 -5.549631,-8.891232 0.350303,-4.294562 3.786371,-8.417171 6.136619,-12.672077 -0.198528,1.523285 -0.56025,3.172092 -0.878407,4.888473 a 1.4316206,1.4316206 0 0 0 0,1.83e-4 c -0.338137,1.825329 -0.012,3.821672 1.458345,5.107774 a 1.4316206,1.4316206 0 0 0 1.725281,0.120443 c 0.638464,1.25979 1.356568,2.263417 1.753866,3.276382 0.824581,2.302571 0.19486,4.319591 -1.847313,6.244654 l -2.37e-4,2.1e-4 c -0.745279,0.701891 -1.908046,1.53387 -2.798504,1.925249 z"
     id="path4520"
     inkscape:connector-curvature="0" />
</svg>
