<?xml version="1.0" encoding="UTF-8" standalone="no"?>
<!-- Created with Inkscape (http://www.inkscape.org/) -->

<svg
   xmlns:dc="http://purl.org/dc/elements/1.1/"
   xmlns:cc="http://creativecommons.org/ns#"
   xmlns:rdf="http://www.w3.org/1999/02/22-rdf-syntax-ns#"
   xmlns:svg="http://www.w3.org/2000/svg"
   xmlns="http://www.w3.org/2000/svg"
   xmlns:sodipodi="http://sodipodi.sourceforge.net/DTD/sodipodi-0.dtd"
   xmlns:inkscape="http://www.inkscape.org/namespaces/inkscape"
   id="svg2"
   height="48.0001"
   width="48"
   version="1.1"
   inkscape:version="0.92.1 r"
   sodipodi:docname="icon-car.svg">
  <defs
     id="defs8" />
  <sodipodi:namedview
     pagecolor="#ffffff"
     bordercolor="#666666"
     borderopacity="1"
     objecttolerance="10"
     gridtolerance="10"
     guidetolerance="10"
     inkscape:pageopacity="0"
     inkscape:pageshadow="2"
     inkscape:window-width="1920"
     inkscape:window-height="1017"
     id="namedview6"
     showgrid="true"
     inkscape:zoom="13.906405"
     inkscape:cx="9.1116517"
     inkscape:cy="23.079034"
     inkscape:window-x="-5"
     inkscape:window-y="26"
     inkscape:window-maximized="1"
     inkscape:current-layer="svg2"
     inkscape:snap-bbox="true"
     inkscape:snap-global="false">
    <inkscape:grid
       type="xygrid"
       id="grid2989" />
  </sodipodi:namedview>
  <metadata
     id="metadata7">
    <rdf:RDF>
      <cc:Work
         rdf:about="">
        <dc:format>image/svg+xml</dc:format>
        <dc:type
           rdf:resource="http://purl.org/dc/dcmitype/StillImage" />
        <dc:title></dc:title>
      </cc:Work>
    </rdf:RDF>
  </metadata>
  <path
     style="color:#000000;clip-rule:nonzero;display:inline;overflow:visible;visibility:visible;opacity:1;isolation:auto;mix-blend-mode:normal;color-interpolation:sRGB;color-interpolation-filters:linearRGB;solid-color:#000000;solid-opacity:1;vector-effect:none;fill:#000000;fill-opacity:1;fill-rule:nonzero;stroke:none;stroke-width:1.88976383;stroke-linecap:butt;stroke-linejoin:miter;stroke-miterlimit:4;stroke-dasharray:none;stroke-dashoffset:0;stroke-opacity:1;marker:none;color-rendering:auto;image-rendering:auto;shape-rendering:auto;text-rendering:auto;enable-background:accumulate"
     d="m 24.005483,6.5540984 c -6.79853,0 -8.838431,0.7905002 -8.838431,0.7905002 -1.429097,0.4873783 -3.421513,1.1728936 -4.206278,2.7011184 -0.37173,0.718678 -1.933612,5.161221 -3.205754,8.841349 H 6.112764 c -0.7434627,0 -1.5582754,0.612209 -1.8143583,1.36806 l -0.4608823,1.370978 c -0.2519519,0.75998 0.1433004,1.370979 0.8867602,1.370979 H 6.346122 c -0.2106539,0.61955 -0.3325362,0.99177 -0.3325362,0.99177 -0.132159,0.223038 -0.2246061,1.247146 -0.2246061,1.519745 v 12.481731 c 0,0.801285 0.6362928,1.455571 1.429317,1.455571 h 5.2330513 c 0.788895,0 1.429317,-0.654286 1.429317,-1.455571 v -2.654445 h 20.237968 v 2.654445 c 0,0.801285 0.640424,1.455571 1.429317,1.455571 h 5.238885 c 0.788895,0 1.423484,-0.654286 1.423484,-1.455571 V 25.508598 c 0,-0.272601 -0.08952,-1.300839 -0.22169,-1.519745 0,0 -0.129411,-0.37222 -0.344203,-0.99177 h 1.627672 c 0.751723,0 1.14576,-0.610999 0.889677,-1.370979 l -0.460882,-1.370978 c -0.25608,-0.755851 -1.06385,-1.36806 -1.81144,-1.36806 h -1.674344 c -1.255621,-3.581 -2.791766,-7.899427 -3.237842,-8.9113563 -0.693896,-1.5777879 -2.914904,-2.2841642 -4.133352,-2.6311111 0,0 -2.039901,-0.7905002 -8.838432,-0.7905002 z m -0.0058,3.042405 c 10.284532,0 10.532962,1.8112086 10.553613,1.8318586 0.318037,0.96237 1.573721,3.861454 2.581522,8.004178 0,0 -4.341655,1.505159 -13.135135,1.505159 -8.797613,0.0042 -13.167221,-1.499326 -13.167221,-1.499326 1.065628,-4.493804 2.223345,-7.03123 2.479428,-7.741648 0.206514,-0.512163 0.403262,-2.1002216 10.687793,-2.1002216 z M 9.5431242,24.723931 c 0.8838938,0 2.6292488,0.755999 3.7774818,1.280552 1.247362,0.569987 2.64278,1.044743 2.64278,1.986459 0.0042,0.879761 -0.479193,1.280552 -2.114807,1.280552 h -2.164395 c -1.9371236,0 -3.8737421,-0.266547 -3.8737421,-1.513909 v -1.516827 c 0,-1.462135 0.8364056,-1.516827 1.7326823,-1.516827 z m 28.9042978,0 c 0.900415,0 1.738518,0.05471 1.738518,1.516827 v 1.516827 c 0,1.251493 -1.936617,1.513909 -3.873742,1.513909 h -2.167312 c -1.627352,0 -2.114807,-0.400791 -2.114807,-1.280552 0,-0.945845 1.405382,-1.416472 2.648613,-1.986459 1.148232,-0.520423 2.888969,-1.280552 3.76873,-1.280552 z"
     id="path4489"
     inkscape:connector-curvature="0" />
</svg>
