<?xml version="1.0" encoding="UTF-8" standalone="no"?>
<!-- Created with Inkscape (http://www.inkscape.org/) -->

<svg
   xmlns:dc="http://purl.org/dc/elements/1.1/"
   xmlns:cc="http://creativecommons.org/ns#"
   xmlns:rdf="http://www.w3.org/1999/02/22-rdf-syntax-ns#"
   xmlns:svg="http://www.w3.org/2000/svg"
   xmlns="http://www.w3.org/2000/svg"
   xmlns:sodipodi="http://sodipodi.sourceforge.net/DTD/sodipodi-0.dtd"
   xmlns:inkscape="http://www.inkscape.org/namespaces/inkscape"
   id="svg2"
   height="48.0001"
   width="48"
   version="1.1"
   inkscape:version="0.92.1 r"
   sodipodi:docname="icon-find.svg">
  <defs
     id="defs8" />
  <sodipodi:namedview
     pagecolor="#ffffff"
     bordercolor="#666666"
     borderopacity="1"
     objecttolerance="10"
     gridtolerance="10"
     guidetolerance="10"
     inkscape:pageopacity="0"
     inkscape:pageshadow="2"
     inkscape:window-width="1920"
     inkscape:window-height="1017"
     id="namedview6"
     showgrid="true"
     inkscape:zoom="13.906405"
     inkscape:cx="18.106501"
     inkscape:cy="21.933225"
     inkscape:window-x="-5"
     inkscape:window-y="26"
     inkscape:window-maximized="1"
     inkscape:current-layer="svg2"
     inkscape:snap-bbox="true"
     inkscape:bbox-paths="true"
     inkscape:bbox-nodes="true"
     inkscape:snap-bbox-edge-midpoints="true"
     inkscape:snap-bbox-midpoints="true"
     inkscape:object-paths="true"
     inkscape:snap-intersection-paths="true"
     inkscape:snap-smooth-nodes="true"
     inkscape:snap-midpoints="true"
     inkscape:snap-object-midpoints="true"
     inkscape:snap-center="true"
     inkscape:snap-text-baseline="true"
     inkscape:snap-page="true"
     showguides="true"
     inkscape:guide-bbox="true"
     inkscape:snap-global="false">
    <inkscape:grid
       type="xygrid"
       id="grid2989" />
    <sodipodi:guide
       position="24,24"
       orientation="-0.70710678,0.70710678"
       id="guide4506"
       inkscape:locked="false" />
  </sodipodi:namedview>
  <metadata
     id="metadata7">
    <rdf:RDF>
      <cc:Work
         rdf:about="">
        <dc:format>image/svg+xml</dc:format>
        <dc:type
           rdf:resource="http://purl.org/dc/dcmitype/StillImage" />
        <dc:title></dc:title>
      </cc:Work>
    </rdf:RDF>
  </metadata>
  <path
     style="color:#000000;clip-rule:nonzero;display:inline;overflow:visible;visibility:visible;opacity:1;isolation:auto;mix-blend-mode:normal;color-interpolation:sRGB;color-interpolation-filters:linearRGB;solid-color:#000000;solid-opacity:1;vector-effect:none;fill:#000000;fill-opacity:1;fill-rule:nonzero;stroke:none;stroke-width:1.25;stroke-linecap:butt;stroke-linejoin:miter;stroke-miterlimit:4;stroke-dasharray:none;stroke-dashoffset:0;stroke-opacity:1;marker:none;color-rendering:auto;image-rendering:auto;shape-rendering:auto;text-rendering:auto;enable-background:accumulate"
     d="m 29,5 c -7.71422,0 -14,6.28578 -14,14 0,3.239592 1.160001,6.184391 3.019531,8.558594 l -5.90039,5.90039 c -0.289229,-0.126156 -0.635748,-0.07519 -0.873047,0.16211 l -7.0957034,7.095703 c -0.3098648,0.309865 -0.3098648,0.809275 0,1.119141 l 2.0136719,2.013671 c 0.3098648,0.309864 0.8092759,0.309864 1.1191406,0 l 7.0957029,-7.095703 c 0.2373,-0.2373 0.288266,-0.583819 0.16211,-0.873047 l 5.90039,-5.90039 C 22.815609,31.839997 25.760408,33 29,33 36.71422,33 43,26.71422 43,19 43,11.28578 36.71422,5 29,5 Z m 0,3 c 6.092899,0 11,4.907101 11,11 0,6.092899 -4.907101,11 -11,11 C 22.907101,30 18,25.092899 18,19 18,12.907101 22.907101,8 29,8 Z"
     id="rect4489"
     inkscape:connector-curvature="0"
     sodipodi:nodetypes="ssccsscccsccssssssss" />
</svg>
