<?xml version="1.0" encoding="UTF-8" standalone="no"?>
<!-- Created with Inkscape (http://www.inkscape.org/) -->

<svg
   xmlns:dc="http://purl.org/dc/elements/1.1/"
   xmlns:cc="http://creativecommons.org/ns#"
   xmlns:rdf="http://www.w3.org/1999/02/22-rdf-syntax-ns#"
   xmlns:svg="http://www.w3.org/2000/svg"
   xmlns="http://www.w3.org/2000/svg"
   xmlns:sodipodi="http://sodipodi.sourceforge.net/DTD/sodipodi-0.dtd"
   xmlns:inkscape="http://www.inkscape.org/namespaces/inkscape"
   id="svg2"
   height="48.0001"
   width="48"
   version="1.1"
   inkscape:version="0.92.1 r"
   sodipodi:docname="icon-instagram.svg">
  <defs
     id="defs8" />
  <sodipodi:namedview
     pagecolor="#ffffff"
     bordercolor="#666666"
     borderopacity="1"
     objecttolerance="10"
     gridtolerance="10"
     guidetolerance="10"
     inkscape:pageopacity="0"
     inkscape:pageshadow="2"
     inkscape:window-width="1920"
     inkscape:window-height="1017"
     id="namedview6"
     showgrid="true"
     inkscape:zoom="13.906405"
     inkscape:cx="18.608547"
     inkscape:cy="26.415585"
     inkscape:window-x="-5"
     inkscape:window-y="26"
     inkscape:window-maximized="1"
     inkscape:current-layer="svg2"
     inkscape:snap-bbox="true">
    <inkscape:grid
       type="xygrid"
       id="grid2989" />
  </sodipodi:namedview>
  <metadata
     id="metadata7">
    <rdf:RDF>
      <cc:Work
         rdf:about="">
        <dc:format>image/svg+xml</dc:format>
        <dc:type
           rdf:resource="http://purl.org/dc/dcmitype/StillImage" />
        <dc:title></dc:title>
      </cc:Work>
    </rdf:RDF>
  </metadata>
  <path
     style="color:#000000;clip-rule:nonzero;display:inline;overflow:visible;visibility:visible;opacity:1;isolation:auto;mix-blend-mode:normal;color-interpolation:sRGB;color-interpolation-filters:linearRGB;solid-color:#000000;solid-opacity:1;vector-effect:none;fill:#000000;fill-opacity:1;fill-rule:nonzero;stroke:none;stroke-width:1.25000012;stroke-linecap:butt;stroke-linejoin:miter;stroke-miterlimit:4;stroke-dasharray:none;stroke-dashoffset:0;stroke-opacity:1;marker:none;color-rendering:auto;image-rendering:auto;shape-rendering:auto;text-rendering:auto;enable-background:accumulate"
     d="m 9.2213432,2.926719 c -3.4549721,0 -6.2008741,2.4844576 -6.2008741,5.5710976 V 39.502186 c 0,3.086794 2.745902,5.571097 6.2008741,5.571097 H 38.917715 c 3.454972,0 6.249318,-2.484303 6.249318,-5.571097 V 8.4978166 c 0,-3.08664 -2.794346,-5.5710976 -6.249318,-5.5710976 z M 9.0760103,5.3973797 H 38.820826 c 2.061172,0 3.730214,1.6690427 3.730214,3.7302135 v 7.2666488 h -9.979532 c -2.227664,-2.161004 -5.225863,-3.487991 -8.574646,-3.487991 -3.140277,0 -6.005313,1.17274 -8.18709,3.100437 H 5.3457968 V 9.1275932 c 0,-2.0611708 1.6690427,-3.7302135 3.7302135,-3.7302135 z M 34.896836,7.383597 c -0.753406,0 -1.356441,0.603035 -1.356441,1.3564414 v 4.4084326 c 0,0.753407 0.603035,1.356443 1.356441,1.356443 h 4.456878 c 0.753407,0 1.356441,-0.603036 1.356441,-1.356443 V 8.7400384 c 0,-0.7534064 -0.603034,-1.3564414 -1.356441,-1.3564414 z m -10.948418,8.671534 c 5.136959,0 9.301311,4.164507 9.301311,9.301311 0,5.136959 -4.164352,9.301311 -9.301311,9.301311 -5.136959,0 -9.30131,-4.164352 -9.30131,-9.301311 0,-5.136804 4.164351,-9.301311 9.30131,-9.301311 z M 5.3457968,19.543123 h 7.6542042 c -0.901298,1.716557 -1.404886,3.691458 -1.404886,5.764875 0,6.833363 5.568385,12.353303 12.401747,12.353303 6.833364,0 12.353304,-5.51994 12.353304,-12.353303 0,-1.91669 -0.433208,-3.757962 -1.211108,-5.37732 h 7.411982 v 18.941731 c 0,2.061171 -1.669042,3.730214 -3.730214,3.730214 H 9.0760103 c -2.0611708,0 -3.7302135,-1.669043 -3.7302135,-3.730214 z"
     id="rect4483"
     inkscape:connector-curvature="0" />
</svg>
