<?xml version="1.0" encoding="UTF-8" standalone="no"?>
<!-- Created with Inkscape (http://www.inkscape.org/) -->

<svg
   xmlns:dc="http://purl.org/dc/elements/1.1/"
   xmlns:cc="http://creativecommons.org/ns#"
   xmlns:rdf="http://www.w3.org/1999/02/22-rdf-syntax-ns#"
   xmlns:svg="http://www.w3.org/2000/svg"
   xmlns="http://www.w3.org/2000/svg"
   xmlns:sodipodi="http://sodipodi.sourceforge.net/DTD/sodipodi-0.dtd"
   xmlns:inkscape="http://www.inkscape.org/namespaces/inkscape"
   id="svg2"
   height="48.0001"
   width="48"
   version="1.1"
   inkscape:version="0.92.1 r"
   sodipodi:docname="icon-homecar.svg">
  <defs
     id="defs8" />
  <sodipodi:namedview
     pagecolor="#ffffff"
     bordercolor="#666666"
     borderopacity="1"
     objecttolerance="10"
     gridtolerance="10"
     guidetolerance="10"
     inkscape:pageopacity="0"
     inkscape:pageshadow="2"
     inkscape:window-width="1920"
     inkscape:window-height="1017"
     id="namedview6"
     showgrid="true"
     inkscape:zoom="13.906405"
     inkscape:cx="8.866428"
     inkscape:cy="21.293841"
     inkscape:window-x="-5"
     inkscape:window-y="26"
     inkscape:window-maximized="1"
     inkscape:current-layer="svg2"
     inkscape:snap-bbox="true"
     inkscape:snap-global="false">
    <inkscape:grid
       type="xygrid"
       id="grid2989" />
  </sodipodi:namedview>
  <metadata
     id="metadata7">
    <rdf:RDF>
      <cc:Work
         rdf:about="">
        <dc:format>image/svg+xml</dc:format>
        <dc:type
           rdf:resource="http://purl.org/dc/dcmitype/StillImage" />
        <dc:title></dc:title>
      </cc:Work>
    </rdf:RDF>
  </metadata>
  <path
     style="color:#000000;clip-rule:nonzero;display:inline;overflow:visible;visibility:visible;opacity:1;isolation:auto;mix-blend-mode:normal;color-interpolation:sRGB;color-interpolation-filters:linearRGB;solid-color:#000000;solid-opacity:1;vector-effect:none;fill:#000000;fill-opacity:1;fill-rule:nonzero;stroke:none;stroke-width:1.25;stroke-linecap:butt;stroke-linejoin:miter;stroke-miterlimit:4;stroke-dasharray:none;stroke-dashoffset:0;stroke-opacity:1;marker:none;color-rendering:auto;image-rendering:auto;shape-rendering:auto;text-rendering:auto;enable-background:accumulate"
     d="M 23.884205,7.7157705 3.0182381,15.519353 v 4.181809 L 5.1045274,18.922649 V 37.760793 H 7.1938936 V 18.137983 L 23.884205,11.89758 40.577593,18.137983 v 19.62281 h 2.086289 V 18.922649 l 2.089365,0.778513 V 15.519353 Z M 17.693034,19.784244 12.397307,25.09228 c -0.583403,-0.58766 -1.253393,-0.81236 -1.815503,-0.81236 -0.6132091,0 -1.1011987,0.271456 -1.2246948,0.646195 -0.5961752,1.81834 2.3109188,2.483238 2.3109188,2.483238 v 4.23412 c 0,1.12422 1.256274,2.317073 2.806336,2.317073 h 9.409841 9.412916 c 1.550062,0 2.806336,-1.188596 2.806336,-2.317073 v -4.23412 c 0,0 2.902838,-0.660639 2.310919,-2.483238 -0.123487,-0.378997 -0.611486,-0.646195 -1.224695,-0.646195 -0.56211,0 -1.2321,0.228957 -1.815503,0.81236 l -5.295727,-5.308036 h -6.194246 z m 0.640041,0.904674 h 5.557284 5.56036 c 0.229955,0 0.558226,0.136658 0.720046,0.298481 l 2.606323,2.612476 c 0.166076,0.166079 0.261059,0.461437 0.218476,0.661582 -0.04684,0.200145 -0.273513,0.363101 -0.507726,0.363101 l -8.603633,-0.03077 -8.597481,0.03077 c -0.229955,0 -0.458987,-0.162956 -0.50157,-0.363101 -0.04684,-0.200145 0.05238,-0.495503 0.218476,-0.661582 l 2.606322,-2.612476 c 0.166079,-0.166079 0.48891,-0.298481 0.723123,-0.298481 z m -4.083341,7.237392 c 0.383258,0 0.79811,0.138627 1.160075,0.415411 0.736705,0.566369 0.975217,1.50099 0.532343,2.080134 -0.225697,0.289571 -0.580597,0.436952 -0.972372,0.436952 -0.383256,0 -0.801187,-0.141699 -1.163152,-0.418489 -0.736705,-0.566367 -0.975215,-1.491759 -0.532341,-2.070903 0.225697,-0.29383 0.583674,-0.443105 0.975447,-0.443105 z m 19.272017,0 c 0.396032,0 0.749752,0.149277 0.975448,0.443105 0.442874,0.579144 0.204363,1.504536 -0.532342,2.070903 -0.361965,0.276797 -0.779895,0.418489 -1.163152,0.418489 -0.396032,0 -0.749752,-0.147371 -0.975449,-0.436952 -0.442874,-0.579144 -0.204362,-1.509507 0.532343,-2.080134 0.361965,-0.281056 0.779894,-0.415411 1.163152,-0.415411 z m -14.422472,1.430861 h 4.784926 4.788001 c 0.800581,0 1.452402,0.65064 1.452402,1.455479 0,0.804839 -0.651821,1.455478 -1.452402,1.455478 h -4.788001 -4.784926 c -0.804839,0 -1.452402,-0.650639 -1.452402,-1.455478 0,-0.804839 0.651821,-1.455479 1.452402,-1.455479 z m -7.431251,2.907881 v 1.043145 c 0,0.520262 0.277355,1.049422 0.720048,1.47394 l -0.187705,-0.0093 v 1.273929 l 0.209243,0.206166 h 4.797234 l 0.209245,-0.206166 V 35.6252 h 6.468112 6.471188 v 0.206167 c 0,0.114979 0.09119,0.209826 0.206167,0.418488 h 4.80031 c 0.114979,-0.208662 0.209244,-0.303509 0.209244,-0.418488 v -1.24008 c 0.331717,-0.387048 0.532343,-0.83813 0.532343,-1.28316 v -1.043145 c -0.0043,1.12422 -1.256274,2.317073 -2.806336,2.317073 h -9.412916 -9.409841 c -1.550062,0 -2.806336,-1.192853 -2.806336,-2.317073 z"
     id="rect4483"
     inkscape:connector-curvature="0" />
</svg>
