<?xml version="1.0" encoding="UTF-8" standalone="no"?>
<!-- Created with Inkscape (http://www.inkscape.org/) -->

<svg
   xmlns:dc="http://purl.org/dc/elements/1.1/"
   xmlns:cc="http://creativecommons.org/ns#"
   xmlns:rdf="http://www.w3.org/1999/02/22-rdf-syntax-ns#"
   xmlns:svg="http://www.w3.org/2000/svg"
   xmlns="http://www.w3.org/2000/svg"
   xmlns:sodipodi="http://sodipodi.sourceforge.net/DTD/sodipodi-0.dtd"
   xmlns:inkscape="http://www.inkscape.org/namespaces/inkscape"
   version="1.1"
   id="svg2"
   xml:space="preserve"
   width="100"
   height="100"
   viewBox="0 0 99.999999 99.999999"
   sodipodi:docname="icon-1x1-vw.svg"
   inkscape:version="0.92.1 r"><metadata
     id="metadata8"><rdf:RDF><cc:Work
         rdf:about=""><dc:format>image/svg+xml</dc:format><dc:type
           rdf:resource="http://purl.org/dc/dcmitype/StillImage" /><dc:title></dc:title></cc:Work></rdf:RDF></metadata><defs
     id="defs6" /><sodipodi:namedview
     pagecolor="#ffffff"
     bordercolor="#666666"
     borderopacity="1"
     objecttolerance="10"
     gridtolerance="10"
     guidetolerance="10"
     inkscape:pageopacity="0"
     inkscape:pageshadow="2"
     inkscape:window-width="640"
     inkscape:window-height="480"
     id="namedview4"
     showgrid="false"
     fit-margin-top="0"
     fit-margin-left="0"
     fit-margin-right="0"
     fit-margin-bottom="0"
     inkscape:zoom="6.9326422"
     inkscape:cx="27.81929"
     inkscape:cy="47.685871"
     inkscape:current-layer="g4501" /><g
     id="g10"
     inkscape:groupmode="layer"
     inkscape:label="ink_ext_XXXXXX"
     transform="matrix(1.3333333,0,0,-1.3333333,0,100)"><g
       id="g4501"
       transform="scale(0.38909296)"
       style="stroke-width:2.57008004"><path
         d="M 0,192.756 H 192.756 V 0 H 0 v 192.756"
         style="fill:#ffffff;fill-opacity:0.00392157;fill-rule:evenodd;stroke:none;stroke-width:0.25700799;opacity:0.001"
         id="path14"
         inkscape:connector-curvature="0" /><path
         d="m 96.416544,190.12202 c 51.615456,0 93.705476,-42.09002 93.705476,-93.782699 0,-51.53812 -42.09002,-93.7059385 -93.705476,-93.7059385 -51.615343,0 -93.7831615,42.1678185 -93.7831615,93.7059385 0,51.692679 42.1678185,93.782699 93.7831615,93.782699"
         style="fill:#2058af;fill-opacity:1;fill-rule:evenodd;stroke:none;stroke-width:0.25700799"
         id="path16"
         inkscape:connector-curvature="0" /><path
         d="m 96.416544,178.21681 c 45.009386,0 81.800266,-36.79088 81.800266,-81.877489 0,-45.009622 -36.79088,-81.723513 -81.800266,-81.723513 -45.009623,0 -81.800736,36.713891 -81.800736,81.723513 0,45.086609 36.791113,81.877489 81.800736,81.877489 z M 41.652143,140.35066 70.992764,64.233534 81.745824,92.038121 h 28.188366 l 10.75387,-27.804587 29.64776,77.039126 c -5.22308,6.29835 -11.52143,11.6747 -18.58732,15.82251 L 111.1639,100.41026 H 102.02351 91.270221 82.130184 L 61.468836,157.32567 C 53.864951,152.94736 47.182359,147.18606 41.652143,140.35066 Z M 162.16497,121.22511 128.75318,34.048141 c 22.42741,11.751693 37.86615,35.254962 37.86615,62.29118 0,8.756729 -1.53627,17.128399 -4.45436,24.885789 z m -48.00575,-92.860811 -0.2305,1.766533 -18.126917,47.006538 -18.126915,-47.006538 -0.0764,-1.459396 c 5.990627,-1.689662 12.289211,-2.534785 18.818059,-2.534785 6.145193,0 12.058593,0.768369 17.742673,2.227648 z m -51.461369,6.45221 -32.567019,84.872341 c -2.611539,-7.2964 -3.994181,-15.13102 -3.994181,-23.349529 0,-26.421477 14.747124,-49.617609 36.5612,-61.522812 z M 96.416544,166.61933 c 6.145196,0 12.211876,-0.76872 17.973166,-2.30499 L 96.646926,115.23449 78.827031,164.39157 c 5.607088,1.45904 11.521311,2.22776 17.589513,2.22776"
         style="fill:#ffffff;fill-opacity:1;fill-rule:evenodd;stroke:none;stroke-width:0.25700799"
         id="path18"
         inkscape:connector-curvature="0" /></g></g></svg>