<?xml version="1.0" encoding="UTF-8" standalone="no"?>
<!-- Created with Inkscape (http://www.inkscape.org/) -->

<svg
   xmlns:dc="http://purl.org/dc/elements/1.1/"
   xmlns:cc="http://creativecommons.org/ns#"
   xmlns:rdf="http://www.w3.org/1999/02/22-rdf-syntax-ns#"
   xmlns:svg="http://www.w3.org/2000/svg"
   xmlns="http://www.w3.org/2000/svg"
   xmlns:sodipodi="http://sodipodi.sourceforge.net/DTD/sodipodi-0.dtd"
   xmlns:inkscape="http://www.inkscape.org/namespaces/inkscape"
   id="svg2"
   height="48.0001"
   width="48"
   version="1.1"
   inkscape:version="0.92.1 r"
   sodipodi:docname="icon-homecar.svg">
  <defs
     id="defs8" />
  <sodipodi:namedview
     pagecolor="#ffffff"
     bordercolor="#666666"
     borderopacity="1"
     objecttolerance="10"
     gridtolerance="10"
     guidetolerance="10"
     inkscape:pageopacity="0"
     inkscape:pageshadow="2"
     inkscape:window-width="1920"
     inkscape:window-height="1017"
     id="namedview6"
     showgrid="true"
     inkscape:zoom="4.9166565"
     inkscape:cx="6.3283557"
     inkscape:cy="30.40191"
     inkscape:window-x="-5"
     inkscape:window-y="26"
     inkscape:window-maximized="1"
     inkscape:current-layer="svg2"
     inkscape:snap-bbox="true"
     inkscape:snap-global="false">
    <inkscape:grid
       type="xygrid"
       id="grid2989" />
  </sodipodi:namedview>
  <metadata
     id="metadata7">
    <rdf:RDF>
      <cc:Work
         rdf:about="">
        <dc:format>image/svg+xml</dc:format>
        <dc:type
           rdf:resource="http://purl.org/dc/dcmitype/StillImage" />
        <dc:title></dc:title>
      </cc:Work>
    </rdf:RDF>
  </metadata>
  <path
     style="color:#000000;clip-rule:nonzero;display:inline;overflow:visible;visibility:visible;opacity:1;isolation:auto;mix-blend-mode:normal;color-interpolation:sRGB;color-interpolation-filters:linearRGB;solid-color:#000000;solid-opacity:1;vector-effect:none;fill:#000000;fill-opacity:1;fill-rule:nonzero;stroke:none;stroke-width:1.88976383;stroke-linecap:butt;stroke-linejoin:miter;stroke-miterlimit:4;stroke-dasharray:none;stroke-dashoffset:0;stroke-opacity:1;marker:none;color-rendering:auto;image-rendering:auto;shape-rendering:auto;text-rendering:auto;enable-background:accumulate"
     d="M 24 4 C 12.954305 4 4 12.954305 4 24 C 4 35.045695 12.954305 44 24 44 C 35.045695 44 44 35.045695 44 24 C 44 12.954305 35.045695 4 24 4 z M 23.884766 13.203125 L 37.130859 18.15625 L 37.130859 20.810547 L 35.804688 20.316406 L 35.804688 32.273438 L 34.480469 32.273438 L 34.480469 19.818359 L 23.884766 15.857422 L 13.291016 19.818359 L 13.291016 32.273438 L 11.964844 32.273438 L 11.964844 20.316406 L 10.640625 20.810547 L 10.640625 18.15625 L 23.884766 13.203125 z M 19.955078 20.863281 L 23.884766 20.863281 L 27.816406 20.863281 L 31.177734 24.232422 C 31.548034 23.862122 31.973293 23.716797 32.330078 23.716797 C 32.719297 23.716797 33.029042 23.886394 33.107422 24.126953 C 33.483128 25.283801 31.640625 25.703125 31.640625 25.703125 L 31.640625 28.390625 C 31.640625 29.106897 30.843237 29.861328 29.859375 29.861328 L 23.884766 29.861328 L 17.912109 29.861328 C 16.928247 29.861328 16.130859 29.104195 16.130859 28.390625 L 16.130859 25.703125 C 16.130859 25.703125 14.285654 25.281098 14.664062 24.126953 C 14.742447 23.889097 15.052187 23.716797 15.441406 23.716797 C 15.798191 23.716797 16.22345 23.85942 16.59375 24.232422 L 19.955078 20.863281 z M 20.361328 21.4375 C 20.212667 21.4375 20.007758 21.521539 19.902344 21.626953 L 18.248047 23.285156 C 18.142629 23.39057 18.079645 23.578041 18.109375 23.705078 C 18.136404 23.832115 18.281776 23.935547 18.427734 23.935547 L 23.884766 23.916016 L 29.345703 23.935547 C 29.494364 23.935547 29.638239 23.832115 29.667969 23.705078 C 29.694998 23.578041 29.63471 23.39057 29.529297 23.285156 L 27.875 21.626953 C 27.772289 21.524239 27.563927 21.4375 27.417969 21.4375 L 23.888672 21.4375 L 20.361328 21.4375 z M 17.769531 26.03125 C 17.520863 26.03125 17.293646 26.125999 17.150391 26.3125 C 16.869288 26.680097 17.020676 27.267466 17.488281 27.626953 C 17.718029 27.802639 17.9833 27.892578 18.226562 27.892578 C 18.475231 27.892578 18.700495 27.799032 18.84375 27.615234 C 19.124853 27.247637 18.973464 26.65441 18.505859 26.294922 C 18.276111 26.119236 18.012794 26.03125 17.769531 26.03125 z M 30.001953 26.03125 C 29.75869 26.03125 29.49342 26.116529 29.263672 26.294922 C 28.796067 26.657113 28.644678 27.247637 28.925781 27.615234 C 29.069036 27.799034 29.293551 27.892578 29.544922 27.892578 C 29.788185 27.892578 30.053455 27.802643 30.283203 27.626953 C 30.750808 27.267466 30.902197 26.680097 30.621094 26.3125 C 30.477839 26.125997 30.253324 26.03125 30.001953 26.03125 z M 20.847656 26.939453 C 20.339508 26.939453 19.925781 27.35243 19.925781 27.863281 C 19.925781 28.374132 20.336805 28.787109 20.847656 28.787109 L 23.884766 28.787109 L 26.923828 28.787109 C 27.431976 28.787109 27.845703 28.374132 27.845703 27.863281 C 27.845703 27.35243 27.431976 26.939453 26.923828 26.939453 L 23.884766 26.939453 L 20.847656 26.939453 z M 16.130859 28.785156 C 16.130859 29.498726 16.928247 30.255859 17.912109 30.255859 L 23.884766 30.255859 L 29.859375 30.255859 C 30.843237 30.255859 31.637925 29.498726 31.640625 28.785156 L 31.640625 29.447266 C 31.640625 29.729737 31.513283 30.01605 31.302734 30.261719 L 31.302734 31.048828 C 31.302734 31.121808 31.242905 31.18201 31.169922 31.314453 L 28.123047 31.314453 C 28.050067 31.18201 27.992188 31.121807 27.992188 31.048828 L 27.992188 30.917969 L 23.884766 30.917969 L 19.779297 30.917969 L 19.779297 31.185547 L 19.646484 31.316406 L 16.601562 31.316406 L 16.46875 31.185547 L 16.46875 30.376953 L 16.587891 30.382812 C 16.306903 30.11336 16.130859 29.777489 16.130859 29.447266 L 16.130859 28.785156 z "
     id="path4483" />
</svg>
