<?xml version="1.0" encoding="UTF-8" standalone="no"?>
<!-- Created with Inkscape (http://www.inkscape.org/) -->

<svg
   xmlns:dc="http://purl.org/dc/elements/1.1/"
   xmlns:cc="http://creativecommons.org/ns#"
   xmlns:rdf="http://www.w3.org/1999/02/22-rdf-syntax-ns#"
   xmlns:svg="http://www.w3.org/2000/svg"
   xmlns="http://www.w3.org/2000/svg"
   xmlns:sodipodi="http://sodipodi.sourceforge.net/DTD/sodipodi-0.dtd"
   xmlns:inkscape="http://www.inkscape.org/namespaces/inkscape"
   id="svg2"
   height="48.0001"
   width="48"
   version="1.1"
   inkscape:version="0.92.1 r"
   sodipodi:docname="icon-share.svg">
  <defs
     id="defs8" />
  <sodipodi:namedview
     pagecolor="#ffffff"
     bordercolor="#666666"
     borderopacity="1"
     objecttolerance="10"
     gridtolerance="10"
     guidetolerance="10"
     inkscape:pageopacity="0"
     inkscape:pageshadow="2"
     inkscape:window-width="1920"
     inkscape:window-height="1017"
     id="namedview6"
     showgrid="false"
     inkscape:zoom="9.8333133"
     inkscape:cx="33.125743"
     inkscape:cy="17.456368"
     inkscape:window-x="-5"
     inkscape:window-y="26"
     inkscape:window-maximized="1"
     inkscape:current-layer="svg2"
     inkscape:snap-bbox="true"
     inkscape:snap-global="false"
     inkscape:bbox-paths="true"
     inkscape:bbox-nodes="true"
     inkscape:snap-bbox-edge-midpoints="true"
     inkscape:snap-bbox-midpoints="true"
     inkscape:object-paths="true"
     inkscape:snap-intersection-paths="true"
     inkscape:snap-smooth-nodes="true"
     inkscape:snap-midpoints="true"
     inkscape:snap-object-midpoints="true"
     inkscape:snap-center="true"
     inkscape:snap-text-baseline="true">
    <inkscape:grid
       type="xygrid"
       id="grid2989" />
  </sodipodi:namedview>
  <metadata
     id="metadata7">
    <rdf:RDF>
      <cc:Work
         rdf:about="">
        <dc:format>image/svg+xml</dc:format>
        <dc:type
           rdf:resource="http://purl.org/dc/dcmitype/StillImage" />
        <dc:title />
      </cc:Work>
    </rdf:RDF>
  </metadata>
  <path
     style="color:#000000;font-style:normal;font-variant:normal;font-weight:normal;font-stretch:normal;font-size:medium;line-height:normal;font-family:sans-serif;font-variant-ligatures:normal;font-variant-position:normal;font-variant-caps:normal;font-variant-numeric:normal;font-variant-alternates:normal;font-feature-settings:normal;text-indent:0;text-align:start;text-decoration:none;text-decoration-line:none;text-decoration-style:solid;text-decoration-color:#000000;letter-spacing:normal;word-spacing:normal;text-transform:none;writing-mode:lr-tb;direction:ltr;text-orientation:mixed;dominant-baseline:auto;baseline-shift:baseline;text-anchor:start;white-space:normal;shape-padding:0;clip-rule:nonzero;display:inline;overflow:visible;visibility:visible;opacity:1;isolation:auto;mix-blend-mode:normal;color-interpolation:sRGB;color-interpolation-filters:linearRGB;solid-color:#000000;solid-opacity:1;vector-effect:none;fill:#000000;fill-opacity:1;fill-rule:nonzero;stroke:none;stroke-width:2.00000024;stroke-linecap:round;stroke-linejoin:round;stroke-miterlimit:4;stroke-dasharray:none;stroke-dashoffset:0;stroke-opacity:1;marker:none;color-rendering:auto;image-rendering:auto;shape-rendering:auto;text-rendering:auto;enable-background:accumulate"
     d="M 28.839844 6.7265625 C 26.236087 6.7265625 24.103516 8.857593 24.103516 11.460938 C 24.103516 11.772334 24.139085 12.076002 24.197266 12.371094 C 23.758162 12.666174 23.317806 12.975054 22.876953 13.310547 C 20.72123 14.951068 18.689844 16.82417 17.853516 17.660156 C 17.043151 18.47019 15.263104 20.406858 13.660156 22.486328 C 13.026967 22.278123 12.352398 22.162109 11.652344 22.162109 C 8.090305 22.162109 5.1699219 25.081017 5.1699219 28.642578 C 5.1699219 32.204139 8.090305 35.123047 11.652344 35.123047 C 13.554293 35.123047 15.267848 34.28661 16.457031 32.96875 C 18.889097 33.970756 21.406848 34.757713 22.515625 35.054688 C 23.276353 35.258441 24.740683 35.589521 26.419922 35.890625 C 26.902423 40.261313 30.637344 43.695312 35.130859 43.695312 C 39.948506 43.695312 43.898438 39.748636 43.898438 34.931641 C 43.898438 30.439394 40.462475 26.704166 36.091797 26.220703 C 35.790926 24.543126 35.459627 23.080473 35.255859 22.320312 C 34.949742 21.178332 34.126393 18.541122 33.080078 16.042969 C 32.863823 15.526642 32.635845 15.026553 32.402344 14.539062 C 33.122391 13.707543 33.576172 12.639559 33.576172 11.460938 C 33.576172 8.857593 31.443601 6.7265625 28.839844 6.7265625 z M 28.839844 8.7265625 C 30.363174 8.7265625 31.576172 9.9389276 31.576172 11.460938 C 31.576172 12.982947 30.363174 14.197266 28.839844 14.197266 C 27.316513 14.197266 26.103516 12.982947 26.103516 11.460938 C 26.103516 9.9389276 27.316513 8.7265625 28.839844 8.7265625 z M 25.03125 14.242188 C 25.895316 15.419586 27.276981 16.197266 28.839844 16.197266 C 29.522434 16.197266 30.167968 16.044476 30.755859 15.78125 C 30.916389 16.124121 31.080515 16.447102 31.234375 16.814453 C 32.230467 19.192697 33.053326 21.827316 33.324219 22.837891 C 33.490087 23.456666 33.768171 24.777985 34.041016 26.242188 C 30.090937 26.73977 26.938914 29.89211 26.441406 33.841797 C 24.975524 33.569129 23.652596 33.290898 23.033203 33.125 C 22.101622 32.875486 19.79462 32.146497 17.576172 31.255859 C 17.932927 30.454891 18.134766 29.571306 18.134766 28.642578 C 18.134766 26.505725 17.079114 24.606394 15.46875 23.423828 C 16.946079 21.541699 18.584953 19.754611 19.267578 19.072266 C 20.007673 18.332474 22.037594 16.464121 24.089844 14.902344 C 24.409778 14.658871 24.717554 14.460494 25.03125 14.242188 z M 11.652344 25.162109 C 13.593747 25.162109 15.134766 26.703023 15.134766 28.642578 C 15.134766 30.582133 13.593747 32.123047 11.652344 32.123047 C 9.7109403 32.123047 8.1699219 30.582133 8.1699219 28.642578 C 8.1699219 26.703023 9.7109402 25.162109 11.652344 25.162109 z M 35.130859 30.166016 C 37.78764 30.166016 39.898438 32.277299 39.898438 34.931641 C 39.898438 37.585982 37.78764 39.695312 35.130859 39.695312 C 32.474079 39.695312 30.365234 37.585982 30.365234 34.931641 C 30.365234 32.277299 32.474079 30.166016 35.130859 30.166016 z "
     id="path4694" />
</svg>
