<?xml version="1.0" encoding="UTF-8" standalone="no"?>
<!-- Created with Inkscape (http://www.inkscape.org/) -->

<svg
   xmlns:dc="http://purl.org/dc/elements/1.1/"
   xmlns:cc="http://creativecommons.org/ns#"
   xmlns:rdf="http://www.w3.org/1999/02/22-rdf-syntax-ns#"
   xmlns:svg="http://www.w3.org/2000/svg"
   xmlns="http://www.w3.org/2000/svg"
   xmlns:sodipodi="http://sodipodi.sourceforge.net/DTD/sodipodi-0.dtd"
   xmlns:inkscape="http://www.inkscape.org/namespaces/inkscape"
   version="1.1"
   id="svg2"
   xml:space="preserve"
   width="100"
   height="97.932587"
   viewBox="0 0 100 97.932585"
   sodipodi:docname="icon-1x1-porto-seguro.svg"
   inkscape:version="0.92.1 r"><metadata
     id="metadata8"><rdf:RDF><cc:Work
         rdf:about=""><dc:format>image/svg+xml</dc:format><dc:type
           rdf:resource="http://purl.org/dc/dcmitype/StillImage" /><dc:title></dc:title></cc:Work></rdf:RDF></metadata><defs
     id="defs6"><clipPath
       clipPathUnits="userSpaceOnUse"
       id="clipPath18"><path
         d="M 0,77 H 202.5 V 0 H 0 Z"
         id="path16"
         inkscape:connector-curvature="0" /></clipPath></defs><sodipodi:namedview
     pagecolor="#ffffff"
     bordercolor="#666666"
     borderopacity="1"
     objecttolerance="10"
     gridtolerance="10"
     guidetolerance="10"
     inkscape:pageopacity="0"
     inkscape:pageshadow="2"
     inkscape:window-width="640"
     inkscape:window-height="480"
     id="namedview4"
     showgrid="false"
     inkscape:zoom="4.237037"
     inkscape:cx="74.342391"
     inkscape:cy="37.575759"
     inkscape:current-layer="g10"
     fit-margin-top="0"
     fit-margin-left="0"
     fit-margin-right="0"
     fit-margin-bottom="0" /><g
     id="g10"
     inkscape:groupmode="layer"
     inkscape:label="porto-seguro-seeklogo.com"
     transform="matrix(1.3333333,0,0,-1.3333333,-179.60866,109.80205)"><g
       id="g4524"
       transform="matrix(1.2595939,0,0,1.2595939,-34.968991,-2.3109312)"
       style="stroke-width:0.79390663"><path
         d="m 136.9725,67.2141 h 55.011 c 1.246,0 2.266,-1.02 2.266,-2.266 v -53.78 c 0,-1.247 -1.02,-2.266 -2.266,-2.266 h -55.011 c -1.246,0 -2.266,1.019 -2.266,2.266 v 53.78 c 0,1.246 1.02,2.266 2.266,2.266"
         style="fill:#3ab6e7;fill-opacity:1;fill-rule:evenodd;stroke:none;stroke-width:0.79390663"
         id="path66"
         inkscape:connector-curvature="0" /><path
         d="m 138.0054,63.4376 c 2.081,0.1 27.347,0.995 41.849,-13.29 0,0 -11.513,8.644 -37.476,4.811 -1.288,3.361 -2.788,6.184 -4.373,8.479"
         style="fill:#ffffff;fill-opacity:1;fill-rule:evenodd;stroke:none;stroke-width:0.79390663"
         id="path70"
         inkscape:connector-curvature="0" /><path
         d="m 186.5905,40.6532 c -7.847,8.875 -33.251,4.528 -41.084,2.354 -0.493,3.073 -1.149,5.885 -1.927,8.443 5.664,0.865 38.006,5.074 43.011,-10.797"
         style="fill:#ffffff;fill-opacity:1;fill-rule:evenodd;stroke:none;stroke-width:0.79390663"
         id="path74"
         inkscape:connector-curvature="0" /><path
         d="m 146.0354,39.0043 c 6.168,1.701 40.977,10.519 44.462,-6.096 -10.976,7.362 -37.177,-0.888 -44.069,-3.441 0.065,2.094 0.024,4.332 -0.144,6.725 -0.067,0.958 -0.153,1.893 -0.249,2.812"
         style="fill:#ffffff;fill-opacity:1;fill-rule:evenodd;stroke:none;stroke-width:0.79390663"
         id="path78"
         inkscape:connector-curvature="0" /><path
         d="m 146.0871,24.8461 c 14.848,6.156 61.079,17.749 40.836,-7.927 4.367,8.102 1.857,9.155 -4.076,8.833 -11.335,-0.617 -34.711,-10.561 -40.458,-13.379 1.718,3.152 3.075,7.264 3.698,12.473"
         style="fill:#ffffff;fill-opacity:1;fill-rule:evenodd;stroke:none;stroke-width:0.79390663"
         id="path82"
         inkscape:connector-curvature="0" /></g></g></svg>