<?xml version="1.0" encoding="UTF-8" standalone="no"?>
<!-- Created with Inkscape (http://www.inkscape.org/) -->

<svg
   xmlns:dc="http://purl.org/dc/elements/1.1/"
   xmlns:cc="http://creativecommons.org/ns#"
   xmlns:rdf="http://www.w3.org/1999/02/22-rdf-syntax-ns#"
   xmlns:svg="http://www.w3.org/2000/svg"
   xmlns="http://www.w3.org/2000/svg"
   xmlns:sodipodi="http://sodipodi.sourceforge.net/DTD/sodipodi-0.dtd"
   xmlns:inkscape="http://www.inkscape.org/namespaces/inkscape"
   id="svg2"
   height="48.0001"
   width="48"
   version="1.1"
   inkscape:version="0.48.4 r9939"
   sodipodi:docname="icon-youtube.svg">
  <defs
     id="defs8" />
  <sodipodi:namedview
     pagecolor="#ffffff"
     bordercolor="#666666"
     borderopacity="1"
     objecttolerance="10"
     gridtolerance="10"
     guidetolerance="10"
     inkscape:pageopacity="0"
     inkscape:pageshadow="2"
     inkscape:window-width="1920"
     inkscape:window-height="1017"
     id="namedview6"
     showgrid="false"
     inkscape:zoom="9.833313"
     inkscape:cx="-0.35377883"
     inkscape:cy="24.009757"
     inkscape:window-x="-5"
     inkscape:window-y="26"
     inkscape:window-maximized="1"
     inkscape:current-layer="svg2" />
  <metadata
     id="metadata7">
    <rdf:RDF>
      <cc:Work
         rdf:about="">
        <dc:format>image/svg+xml</dc:format>
        <dc:type
           rdf:resource="http://purl.org/dc/dcmitype/StillImage" />
        <dc:title />
      </cc:Work>
    </rdf:RDF>
  </metadata>
  <path
     id="path4891"
     d="M 24.000038,4.0000454 C 12.952045,4.0000454 4,12.952132 4,24.000133 4,35.047967 12.952045,44.000054 24.000038,44.000054 35.047955,44.000054 44,35.047967 44,24.000133 44,12.952132 35.047955,4.0000454 24.000038,4.0000454 z m -2.532585,11.6686976 0.142011,0 0.142019,0 0.165711,0 0.189354,0 0.189345,0 0.189352,0 0.236696,0 0.260304,0 0.331364,0 1.396499,0 0.331355,0 0.260321,0 0.213054,0 0.212979,0 0.189353,0 0.165719,0 0.165637,0 0.165711,0 0.14201,0 0,0.02342 0.142011,0 0.142019,0 0.118302,0 0.142011,0 0.118385,0 0.118302,0 0.09468,0 0.118377,0 0.09468,0 0.118302,0 0,0.02342 0.09468,0 0.118386,0 0.09467,0 0.09468,0 0.07117,0 0.09468,0 0.09468,0 0.07117,0 0.09468,0 0,0.02342 0.07117,0 0.09468,0 0.07117,0 0.07117,0 0.07117,0 0.09468,0 0.07117,0 0.07117,0 0.07117,0 0,0.02342 0.07117,0 0.07117,0 0.047,0 0.07117,0 0.07117,0 0.07117,0 0.07117,0 0.047,0 0.07117,0 0.047,0 0,0.02342 0.07117,0 0.047,0 0.07117,0 0.047,0 0.07117,0 0.047,0 0.047,0 0.07117,0 0.047,0 0,0.02342 0.04692,0 0.047,0 0.047,0 0.07117,0 0.04692,0 0.047,0 0.047,0 0.047,0 0.047,0 0.047,0 0,0.02342 0.047,0 0.047,0 0.047,0 0.047,0 0.047,0 0.0235,0 0.07117,0 0.0235,0 0.047,0 0,0.02342 0.047,0 0.047,0 0.0235,0 0.047,0 0.047,0 0.047,0 0.0235,0 0.047,0 0.047,0 0.0235,0 0.047,0 0.0235,0 0,0.02342 0.047,0 0.0235,0 0.047,0 0.0235,0 0.047,0 0.047,0 0.0235,0 0.0235,0 0.047,0 0.0235,0 0,0.02342 0.047,0 0.0235,0 0.047,0 0.0235,0 0.0235,0 0.0235,0 0.0235,0 0.0235,0 0.0235,0 0,0.02342 0.0235,0 0.0235,0 0.0235,0 0.0235,0 0.0235,0 0.0235,0 0.0235,0 0.0235,0 0.0235,0 0.0235,0 0,0.02342 0.0235,0 0.0235,0 0.0235,0 0.0235,0 0.0235,0 0.0235,0 0.0235,0 0,0.02342 0.0235,0 0.0235,0 0.0235,0 0.0235,0 0.0235,0 0.0235,0 0,0.02342 0.0235,0 0.0235,0 0.0235,0 0.0235,0 0.0235,0 0,0.02342 0.0235,0 0.0235,0 0.0235,0 0.0235,0 0,0.02342 0.0235,0 0.0235,0 0.0235,0 0,0.02342 0.0235,0 0.0235,0 0.0235,0 0.0235,0 0.0235,0 0,0.02342 0.0235,0 0.0235,0 0.0235,0 0,0.02342 0.0235,0 0.0235,0 0.0235,0 0,0.02342 0.0235,0 0.0235,0 0,0.02342 0.0235,0 0.0235,0 0.0235,0 0,0.02342 0.0235,0 0.0235,0 0,0.02342 0.0235,0 0.0235,0 0,0.02342 0.0235,0 0.0235,0 0,0.02342 0.0235,0 0.0235,0 0.0235,0 0,0.02342 0.0235,0 0,0.02342 0.0235,0 0.0235,0 0,0.02342 0.0235,0 0.0235,0 0,0.02342 0.0235,0 0.0235,0 0,0.02342 0.0235,0 0.0235,0 0,0.02342 0.0235,0 0,0.02342 0.0235,0 0.0235,0 0,0.02342 0.0235,0 0,0.02342 0.0235,0 0.0235,0 0,0.02342 0.0235,0 0,0.02342 0.0235,0 0,0.02342 0.0235,0 0.0235,0 0,0.02342 0.0235,0 0,0.02342 0.0235,0 0,0.02342 0.0235,0 0,0.02342 0.0235,0 0.0235,0 0,0.02342 0.0235,0 0,0.02342 0.0235,0 0,0.02342 0.0235,0 0,0.02342 0.0235,0 0,0.02342 0.0235,0 0,0.02342 0.0235,0 0,0.02342 0.0235,0 0,0.02342 0.0235,0 0,0.02342 0.0235,0 0,0.02342 0.0235,0 0,0.02342 0.0235,0 0,0.02342 0.0235,0 0,0.02342 0.0235,0 0,0.02342 0.0235,0 0,0.02342 0.0235,0 0,0.02342 0.0235,0 0,0.02342 0,0.02342 0.0235,0 0,0.02342 0.0235,0 0,0.02342 0.0235,0 0,0.02342 0.0235,0 0,0.02342 0,0.02342 0.0235,0 0,0.02342 0.0235,0 0,0.02342 0,0.02342 0.0235,0 0,0.02342 0.0235,0 0,0.02342 0,0.02342 0.0235,0 0,0.02342 0.0235,0 0,0.02342 0.0235,0 0,0.02342 0,0.02342 0.0235,0 0,0.02342 0,0.02342 0.0235,0 0,0.02342 0,0.02342 0.0235,0 0,0.02342 0,0.02342 0.0235,0 0,0.02342 0,0.02342 0.0235,0 0,0.02342 0,0.02342 0.0235,0 0,0.02342 0,0.02342 0.0235,0 0,0.02342 0,0.02342 0.0235,0 0,0.02342 0,0.02342 0.0235,0 0,0.02342 0,0.02342 0,0.02342 0.0235,0 0,0.02342 0,0.02342 0.0235,0 0,0.02342 0,0.02342 0,0.02342 0.0235,0 0,0.02342 0,0.02342 0.0235,0 0,0.02342 0,0.02342 0,0.02342 0.0235,0 0,0.02342 0,0.02342 0,0.02342 0.0235,0 0,0.02342 0,0.02342 0,0.02342 0.0235,0 0,0.02342 0,0.02342 0,0.02342 0,0.02342 0.0235,0 0,0.02342 0,0.02342 0,0.02342 0.0235,0 0,0.02342 0,0.02342 0,0.02342 0,0.02342 0.0235,0 0,0.02342 0,0.02342 0,0.02342 0.0235,0 0,0.02342 0,0.02342 0,0.02342 0,0.02342 0.0235,0 0,0.02342 0,0.02342 0,0.02342 0,0.02342 0.0235,0 0,0.02342 0,0.02342 0,0.02342 0,0.02342 0,0.02342 0.0235,0 0,0.02342 0,0.02342 0,0.02342 0,0.02342 0,0.02342 0.0235,0 0,0.02342 0,0.02342 0,0.02342 0,0.02342 0,0.02342 0.0235,0 0,0.02342 0,0.02342 0,0.02342 0,0.02342 0,0.02342 0,0.02342 0,0.02342 0.0235,0 0,0.02342 0,0.02342 0,0.02342 0,0.02342 0,0.02342 0,0.02342 0,0.02342 0,0.02342 0,0.02342 0.0235,0 0,0.02342 0,0.02342 0,0.02342 0,0.02342 0,0.02342 0,0.02342 0,0.02342 0,0.02342 0,0.02342 0,0.02342 0.0235,0 0,0.02342 0,0.02342 0,0.02342 0,0.02342 0,0.02342 0,0.02342 0,0.04767 0,0.02342 0,0.02342 0.0235,0 0,0.02342 0,0.02342 0,0.02342 0,0.02342 0,0.02342 0,0.02342 0,0.02342 0,0.02342 0,0.02342 0,0.02342 0.0235,0 0,0.02342 0,0.04683 0,0.02342 0,0.02342 0,0.02342 0,0.02342 0,0.02342 0,0.02342 0,0.04683 0,0.02342 0,0.02342 0.0235,0 0,0.02342 0,0.04767 0,0.02342 0,0.02342 0,0.02342 0,0.04683 0,0.02342 0,0.02342 0,0.04683 0,0.02342 0.0235,0 0,0.02342 0,0.04683 0,0.02342 0,0.02342 0,0.04683 0,0.02342 0,0.04767 0,0.02342 0,0.04683 0,0.02342 0,0.04683 0.0235,0 0,0.02342 0,0.04683 0,0.04683 0,0.02342 0,0.04683 0,0.04767 0,0.02342 0,0.04683 0,0.04683 0,0.04683 0.0235,0 0,0.04683 0,0.04683 0,0.04683 0,0.04683 0,0.04683 0,0.07108 0,0.04683 0,0.04767 0,0.07108 0,0.07108 0,0.04767 0.0235,0 0,0.09467 0,0.07108 0,0.09467 0,0.09467 0,0.118419 0,2.627127 0,0.142086 0,0.09467 0,0.09467 0,0.07108 0,0.07108 -0.0235,0 0,0.07108 0,0.07108 0,0.04683 0,0.07108 0,0.04767 0,0.04683 0,0.04767 0,0.07108 0,0.04683 0,0.04683 0,0.04683 -0.0235,0 0,0.02342 0,0.04767 0,0.04683 0,0.04767 0,0.04683 0,0.02342 0,0.04683 0,0.04683 0,0.02342 0,0.04683 -0.0235,0 0,0.02342 0,0.04683 0,0.02342 0,0.04767 0,0.02342 0,0.04683 0,0.02342 0,0.04683 0,0.02342 0,0.02342 0,0.04683 -0.0235,0 0,0.02342 0,0.02342 0,0.04683 0,0.02342 0,0.02342 0,0.02342 0,0.04683 0,0.02342 0,0.02342 0,0.02342 -0.0235,0 0,0.04767 0,0.02342 0,0.02342 0,0.02342 0,0.02342 0,0.04683 0,0.02342 0,0.02342 0,0.02342 0,0.02342 0,0.02342 -0.0235,0 0,0.02342 0,0.02342 0,0.04683 0,0.02342 0,0.02342 0,0.02342 0,0.02342 0,0.02342 0,0.02342 0,0.02342 -0.0235,0 0,0.02342 0,0.02342 0,0.02342 0,0.02342 0,0.02342 0,0.02342 0,0.02342 0,0.02342 0,0.02342 0,0.02342 -0.0235,0 0,0.02342 0,0.02342 0,0.02342 0,0.02342 0,0.02342 0,0.02342 0,0.02342 0,0.02342 0,0.02342 0,0.02342 -0.0235,0 0,0.02342 0,0.02342 0,0.02342 0,0.02342 0,0.02342 0,0.02342 0,0.02342 0,0.02342 0,0.02342 -0.0235,0 0,0.02342 0,0.02342 0,0.02342 0,0.02342 0,0.02342 0,0.02342 -0.0235,0 0,0.02342 0,0.02342 0,0.02342 0,0.02342 0,0.02342 0,0.02342 -0.0235,0 0,0.02342 0,0.02342 0,0.02342 0,0.02342 -0.0235,0 0,0.02342 0,0.02342 0,0.02342 0,0.02342 0,0.02342 -0.0235,0 0,0.02342 0,0.02342 0,0.02342 0,0.02342 -0.0235,0 0,0.02342 0,0.02342 0,0.02342 0,0.02342 -0.0235,0 0,0.02342 0,0.02342 0,0.02342 0,0.02342 -0.0235,0 0,0.02342 0,0.02342 0,0.02342 0,0.02342 -0.0235,0 0,0.02342 0,0.02342 0,0.02342 -0.0235,0 0,0.02342 0,0.02342 0,0.02342 -0.0235,0 0,0.02342 0,0.02342 0,0.02342 0,0.02342 -0.0235,0 0,0.02342 0,0.02342 -0.0235,0 0,0.02342 0,0.02342 0,0.02342 -0.0235,0 0,0.02342 0,0.02342 0,0.02342 -0.0235,0 0,0.02342 0,0.02342 -0.0235,0 0,0.02342 0,0.02342 0,0.02342 -0.0235,0 0,0.02342 0,0.02342 -0.0235,0 0,0.02342 0,0.02342 0,0.02342 -0.0235,0 0,0.02342 0,0.02342 -0.0235,0 0,0.02342 0,0.02342 -0.0235,0 0,0.02342 0,0.02342 -0.0235,0 0,0.02342 0,0.02342 -0.0235,0 0,0.02342 0,0.02342 -0.0235,0 0,0.02342 0,0.02342 -0.0235,0 0,0.02342 0,0.02342 -0.0235,0 0,0.02342 -0.0235,0 0,0.02342 0,0.02342 -0.0235,0 0,0.02342 -0.0235,0 0,0.02342 -0.0235,0 0,0.02342 0,0.02342 -0.0235,0 0,0.02342 0,0.02342 -0.0235,0 0,0.02342 -0.0235,0 0,0.02342 -0.0235,0 0,0.02342 0,0.02342 -0.0235,0 0,0.02342 -0.0235,0 0,0.02342 -0.0235,0 0,0.02342 -0.0235,0 0,0.02342 0,0.02342 -0.0235,0 0,0.02342 -0.0235,0 0,0.02342 -0.0235,0 0,0.02342 -0.0235,0 0,0.02342 -0.0235,0 0,0.02342 -0.0235,0 0,0.02342 -0.0235,0 0,0.02342 -0.0235,0 0,0.02342 -0.0235,0 0,0.02342 -0.0235,0 0,0.02342 -0.0235,0 0,0.02342 -0.0235,0 0,0.02342 -0.0235,0 -0.0235,0 0,0.02342 -0.0235,0 0,0.02342 -0.0235,0 0,0.02342 -0.0235,0 0,0.02342 -0.0235,0 0,0.02342 -0.0235,0 0,0.02342 -0.0235,0 -0.0235,0 0,0.02342 -0.0235,0 0,0.02342 -0.0235,0 0,0.02342 -0.0235,0 -0.0235,0 0,0.02342 -0.0235,0 0,0.02342 -0.0235,0 -0.0235,0 0,0.02342 -0.0235,0 0,0.02342 -0.0235,0 -0.0235,0 0,0.02342 -0.0235,0 -0.0235,0 0,0.02342 -0.0235,0 0,0.02342 -0.0235,0 -0.0235,0 0,0.02342 -0.0235,0 -0.0235,0 0,0.02342 -0.0235,0 -0.0235,0 -0.0235,0 0,0.02342 -0.0235,0 -0.0235,0 0,0.02342 -0.0235,0 -0.0235,0 0,0.02342 -0.0235,0 -0.0235,0 0,0.02342 -0.0235,0 -0.0235,0 0,0.02342 -0.0235,0 -0.0235,0 0,0.02342 -0.0235,0 -0.0235,0 -0.0235,0 0,0.02342 -0.0235,0 -0.0235,0 -0.0235,0 0,0.02342 -0.0235,0 -0.0235,0 -0.0235,0 -0.0235,0 0,0.02342 -0.0235,0 -0.0235,0 -0.0235,0 0,0.02342 -0.0235,0 -0.0235,0 -0.0235,0 -0.0235,0 0,0.02342 -0.0235,0 -0.0235,0 -0.0235,0 -0.0235,0 -0.0235,0 0,0.02342 -0.0235,0 -0.0235,0 -0.0235,0 -0.0235,0 -0.0235,0 0,0.02342 -0.0235,0 -0.0235,0 -0.0235,0 -0.0235,0 -0.0235,0 -0.0235,0 -0.0235,0 0,0.02342 -0.0235,0 -0.0235,0 -0.0235,0 -0.0235,0 -0.0235,0 -0.0235,0 -0.0235,0 -0.0235,0 0,0.02342 -0.0235,0 -0.0235,0 -0.047,0 -0.0235,0 -0.0235,0 -0.0235,0 -0.0235,0 0,0.02342 -0.0235,0 -0.0235,0 -0.047,0 -0.0235,0 -0.047,0 -0.0235,0 -0.0235,0 -0.047,0 -0.0235,0 -0.047,0 -0.0235,0 -0.047,0 -0.0235,0 0,0.02342 -0.047,0 -0.0235,0 -0.047,0 -0.0235,0 -0.047,0 -0.047,0 -0.0235,0 -0.047,0 -0.047,0 0,0.02342 -0.0235,0 -0.047,0 -0.0235,0 -0.047,0 -0.047,0 -0.047,0 -0.047,0 -0.047,0 -0.0235,0 -0.047,0 0,0.02342 -0.047,0 -0.047,0 -0.047,0 -0.047,0 -0.047,0 -0.047,0 -0.047,0 -0.047,0 -0.047,0 0,0.02342 -0.047,0 -0.047,0 -0.047,0 -0.047,0 -0.047,0 -0.047,0 -0.07117,0 -0.047,0 -0.047,0 0,0.02342 -0.047,0 -0.07117,0 -0.047,0 -0.047,0 -0.07117,0 -0.047,0 -0.07117,0 -0.047,0 -0.07117,0 -0.047,0 0,0.02342 -0.07117,0 -0.07117,0 -0.07117,0 -0.047,0 -0.07117,0 -0.07117,0 -0.07117,0 -0.07117,0 -0.07117,0 0,0.02342 -0.07117,0 -0.07117,0 -0.07117,0 -0.07117,0 -0.07117,0 -0.07117,0 -0.09467,0 -0.07117,0 -0.09467,0 0,0.02342 -0.07117,0 -0.09467,0 -0.07117,0 -0.09467,0 -0.09468,0 -0.09468,0 -0.09468,0 -0.09467,0 -0.09468,0 -0.118386,0 0,0.02342 -0.09467,0 -0.11831,0 -0.09468,0 -0.118376,0 -0.118303,0 -0.118385,0 -0.118302,0 -0.14201,0 -0.14202,0 -0.14201,0 -0.142011,0 -0.16572,0 0,0.02342 -0.165636,0 -0.165719,0 -0.189354,0 -0.189345,0 -0.236687,0 -0.260321,0 -0.30773,0 -0.710054,0 -0.212987,0 -0.189345,0 -0.189352,0 -0.189345,0 -0.16572,0 -0.165644,0 -0.165711,0 -0.142011,0 0,-0.02342 -0.165645,0 -0.14201,0 -0.142011,0 -0.142011,0 -0.118377,0 -0.142019,0 -0.118302,0 -0.142011,0 -0.118385,0 -0.118302,0 -0.118377,0 -0.11831,0 0,-0.02342 -0.118378,0 -0.11831,0 -0.09467,0 -0.118386,0 -0.09468,0 -0.09467,0 -0.118311,0 -0.09468,0 -0.09467,0 -0.09468,0 0,-0.02342 -0.09468,0 -0.09468,0 -0.09467,0 -0.09468,0 -0.07117,0 -0.09468,0 -0.07117,0 -0.09468,0 -0.07117,0 0,-0.02342 -0.09468,0 -0.07117,0 -0.07117,0 -0.07117,0 -0.07117,0 -0.09468,0 -0.07117,0 -0.07117,0 -0.047,0 0,-0.02342 -0.07117,0 -0.07117,0 -0.07117,0 -0.07117,0 -0.047,0 -0.07117,0 -0.07117,0 -0.047,0 -0.07117,0 -0.04692,0 0,-0.02342 -0.07117,0 -0.047,0 -0.07117,0 -0.047,0 -0.047,0 -0.047,0 -0.07117,0 -0.047,0 -0.047,0 0,-0.02342 -0.047,0 -0.047,0 -0.047,0 -0.047,0 -0.047,0 -0.047,0 -0.0235,0 -0.047,0 -0.047,0 -0.047,0 0,-0.02342 -0.047,0 -0.0235,0 -0.047,0 -0.047,0 -0.0235,0 -0.047,0 -0.0235,0 -0.047,0 -0.0235,0 0,-0.02342 -0.047,0 -0.0235,0 -0.0235,0 -0.047,0 -0.0235,0 -0.0235,0 -0.047,0 -0.0235,0 -0.0235,0 0,-0.02342 -0.047,0 -0.0235,0 -0.0235,0 -0.0235,0 -0.0235,0 -0.0235,0 -0.0235,0 -0.0235,0 -0.0235,0 -0.0235,0 -0.0235,0 0,-0.02342 -0.0235,0 -0.0235,0 -0.0235,0 -0.0235,0 -0.0235,0 -0.0235,0 0,-0.02342 -0.0235,0 -0.0235,0 -0.0235,0 -0.0235,0 -0.0235,0 -0.0235,0 -0.0235,0 -0.0235,0 0,-0.02342 -0.0235,0 -0.0235,0 -0.0235,0 -0.0235,0 -0.0235,0 -0.0235,0 -0.0235,0 0,-0.02342 -0.0235,0 -0.0235,0 -0.0235,0 -0.0235,0 -0.0235,0 -0.0235,0 0,-0.02342 -0.0235,0 -0.0235,0 -0.0235,0 -0.0235,0 -0.0235,0 0,-0.02342 -0.0235,0 -0.0235,0 -0.0235,0 -0.0235,0 -0.0235,0 0,-0.02342 -0.0235,0 -0.0235,0 -0.0235,0 -0.0235,0 0,-0.02342 -0.0235,0 -0.0235,0 -0.0235,0 -0.0235,0 -0.0235,0 0,-0.02342 -0.0235,0 -0.0235,0 -0.0235,0 0,-0.02342 -0.0235,0 -0.0235,0 -0.0235,0 -0.0235,0 0,-0.02342 -0.0235,0 -0.0235,0 0,-0.02342 -0.0235,0 -0.0235,0 -0.0235,0 0,-0.02342 -0.0235,0 -0.0235,0 -0.0235,0 0,-0.02342 -0.0235,0 -0.0235,0 0,-0.02342 -0.0235,0 -0.0235,0 0,-0.02342 -0.0235,0 -0.0235,0 -0.0235,0 0,-0.02342 -0.0235,0 -0.0235,0 0,-0.02342 -0.0235,0 -0.0235,0 0,-0.02342 -0.0235,0 -0.0235,0 0,-0.02342 -0.0235,0 -0.0235,0 0,-0.02342 -0.0235,0 0,-0.02342 -0.0235,0 -0.0235,0 0,-0.02342 -0.0235,0 -0.0235,0 0,-0.02342 -0.0235,0 -0.0235,0 0,-0.02342 -0.0235,0 0,-0.02342 -0.0235,0 -0.0235,0 0,-0.02342 -0.0235,0 0,-0.02342 -0.0235,0 -0.0235,0 0,-0.02342 -0.0235,0 0,-0.02342 -0.0235,0 0,-0.02342 -0.0235,0 0,-0.02342 -0.0235,0 -0.0235,0 0,-0.02342 -0.0235,0 0,-0.02342 -0.0235,0 0,-0.02342 -0.0235,0 0,-0.02342 -0.0235,0 0,-0.02342 -0.0235,0 0,-0.02342 -0.0235,0 0,-0.02342 -0.0235,0 0,-0.02342 -0.0235,0 0,-0.02342 -0.0235,0 0,-0.02342 -0.0235,0 0,-0.02342 -0.0235,0 0,-0.02342 -0.0235,0 0,-0.02342 -0.0235,0 0,-0.02342 -0.0235,0 0,-0.02342 -0.0235,0 0,-0.02342 -0.0235,0 0,-0.02342 0,-0.02342 -0.0235,0 0,-0.02342 -0.0235,0 0,-0.02342 -0.0235,0 0,-0.02342 -0.0235,0 0,-0.02342 0,-0.02342 -0.0235,0 0,-0.02342 -0.0235,0 0,-0.02342 0,-0.02342 -0.0235,0 0,-0.02342 0,-0.02342 -0.0235,0 0,-0.02342 -0.0235,0 0,-0.02342 0,-0.02342 -0.0235,0 0,-0.02342 -0.0235,0 0,-0.02342 0,-0.02342 -0.0235,0 0,-0.02342 0,-0.02342 -0.0235,0 0,-0.02342 0,-0.02342 -0.0235,0 0,-0.02342 0,-0.02342 -0.0235,0 0,-0.02342 0,-0.02342 -0.0235,0 0,-0.02342 0,-0.02342 -0.0235,0 0,-0.02342 -0.0235,0 0,-0.02342 0,-0.02342 -0.0235,0 0,-0.02342 0,-0.02342 0,-0.02342 -0.0235,0 0,-0.02342 0,-0.02342 -0.0235,0 0,-0.02342 0,-0.02342 0,-0.02342 -0.0235,0 0,-0.02342 0,-0.02342 0,-0.02342 -0.0235,0 0,-0.02342 0,-0.02342 -0.0235,0 0,-0.02342 0,-0.02342 0,-0.02342 -0.0235,0 0,-0.02342 0,-0.02342 0,-0.02342 -0.0235,0 0,-0.02342 0,-0.02342 0,-0.02342 -0.0235,0 0,-0.02342 0,-0.02342 0,-0.02342 0,-0.02342 -0.0235,0 0,-0.02342 0,-0.02342 0,-0.02342 0,-0.02342 -0.0235,0 0,-0.02342 0,-0.02342 0,-0.02342 -0.0235,0 0,-0.02342 0,-0.02342 0,-0.02342 0,-0.02342 -0.0235,0 0,-0.02342 0,-0.02342 0,-0.02342 0,-0.02342 -0.0235,0 0,-0.02342 0,-0.02342 0,-0.02342 0,-0.02342 0,-0.02342 -0.0235,0 0,-0.02342 0,-0.02342 0,-0.02342 0,-0.02342 -0.0235,0 0,-0.02342 0,-0.02342 0,-0.02342 0,-0.02342 0,-0.02342 0,-0.02342 -0.0235,0 0,-0.02342 0,-0.02342 0,-0.02342 0,-0.02342 0,-0.02342 -0.0235,0 0,-0.02342 0,-0.02342 0,-0.02342 0,-0.02342 0,-0.02342 0,-0.02342 0,-0.02342 0,-0.02342 -0.0235,0 0,-0.02342 0,-0.02342 0,-0.02342 0,-0.02342 0,-0.02342 0,-0.02342 0,-0.02342 0,-0.02342 0,-0.02342 0,-0.02342 -0.0235,0 0,-0.02342 0,-0.02342 0,-0.02342 0,-0.02342 0,-0.02342 0,-0.02342 0,-0.02342 0,-0.02342 0,-0.02342 0,-0.02342 -0.0235,0 0,-0.02342 0,-0.02342 0,-0.02342 0,-0.02342 0,-0.02342 0,-0.02342 0,-0.02342 0,-0.02342 0,-0.02342 0,-0.02342 0,-0.02342 -0.0235,0 0,-0.02342 0,-0.02342 0,-0.02342 0,-0.04767 0,-0.02342 0,-0.02342 0,-0.02342 0,-0.02342 0,-0.02342 0,-0.02342 -0.0235,0 0,-0.02342 0,-0.02342 0,-0.04683 0,-0.02342 0,-0.02342 0,-0.04683 0,-0.02342 0,-0.02342 0,-0.02342 0,-0.02342 -0.0235,0 0,-0.04767 0,-0.02342 0,-0.02342 0,-0.04767 0,-0.02342 0,-0.02342 0,-0.04767 0,-0.02342 0,-0.02342 0,-0.04767 0,-0.02342 -0.0235,0 0,-0.04683 0,-0.02342 0,-0.04683 0,-0.02342 0,-0.04683 0,-0.04683 0,-0.02342 0,-0.04683 0,-0.02342 0,-0.04683 -0.0235,0 0,-0.04683 0,-0.04683 0,-0.04683 0,-0.02342 0,-0.04683 0,-0.04767 0,-0.04683 0,-0.04767 0,-0.04683 0,-0.07108 0,-0.04683 -0.0235,0 0,-0.04683 0,-0.07108 0,-0.07108 0,-0.04683 0,-0.07108 0,-0.09475 0,-0.07108 0,-0.118335 0,-0.09475 0,-0.141919 -0.0235,0 0,-2.461542 0.0235,0 0,-0.142086 0,-0.118252 0,-0.09467 0,-0.09467 0,-0.07108 0,-0.07108 0,-0.07108 0,-0.07108 0,-0.04683 0,-0.07108 0.0235,0 0,-0.04767 0,-0.04683 0,-0.04767 0,-0.04683 0,-0.04767 0,-0.04683 0,-0.04767 0,-0.04683 0,-0.04767 0,-0.04683 0,-0.02342 0.0235,0 0,-0.04683 0,-0.04683 0,-0.02342 0,-0.04683 0,-0.04767 0,-0.02342 0,-0.04683 0,-0.02342 0,-0.04683 0,-0.02342 0.0235,0 0,-0.04683 0,-0.02342 0,-0.02342 0,-0.04683 0,-0.02342 0,-0.04767 0,-0.02342 0,-0.02342 0,-0.04767 0,-0.02342 0,-0.02342 0.0235,0 0,-0.02342 0,-0.04683 0,-0.02342 0,-0.02342 0,-0.02342 0,-0.04683 0,-0.02342 0,-0.02342 0,-0.02342 0,-0.02342 0.0235,0 0,-0.02342 0,-0.02342 0,-0.04683 0,-0.02342 0,-0.02342 0,-0.02342 0,-0.02342 0,-0.02342 0,-0.02342 0,-0.02342 0.0235,0 0,-0.02342 0,-0.02342 0,-0.04683 0,-0.02342 0,-0.02342 0,-0.02342 0,-0.02342 0,-0.02342 0,-0.02342 0,-0.02342 0,-0.02342 0.0235,0 0,-0.02342 0,-0.02342 0,-0.02342 0,-0.02342 0,-0.02342 0,-0.02342 0,-0.02342 0,-0.02342 0,-0.02342 0,-0.02342 0.0235,0 0,-0.02342 0,-0.02342 0,-0.02342 0,-0.02342 0,-0.02342 0,-0.02342 0,-0.02342 0,-0.02342 0,-0.02342 0.0235,0 0,-0.02342 0,-0.02342 0,-0.02342 0,-0.02342 0,-0.02342 0,-0.02342 0,-0.02342 0,-0.02342 0.0235,0 0,-0.02342 0,-0.02342 0,-0.02342 0,-0.02342 0,-0.02342 0,-0.02342 0.0235,0 0,-0.02342 0,-0.02342 0,-0.02342 0,-0.02342 0,-0.02342 0.0235,0 0,-0.02342 0,-0.02342 0,-0.02342 0,-0.02342 0,-0.02342 0.0235,0 0,-0.02342 0,-0.02342 0,-0.02342 0,-0.02342 0.0235,0 0,-0.02342 0,-0.02342 0,-0.02342 0,-0.02342 0.0235,0 0,-0.02342 0,-0.02342 0,-0.02342 0,-0.02342 0,-0.02342 0.0235,0 0,-0.02342 0,-0.02342 0,-0.02342 0.0235,0 0,-0.02342 0,-0.02342 0,-0.02342 0,-0.02342 0.0235,0 0,-0.02342 0,-0.02342 0,-0.02342 0.0235,0 0,-0.02342 0,-0.02342 0,-0.02342 0.0235,0 0,-0.02342 0,-0.02342 0,-0.02342 0.0235,0 0,-0.02342 0,-0.02342 0,-0.02342 0.0235,0 0,-0.02342 0,-0.02342 0,-0.02342 0.0235,0 0,-0.02342 0,-0.02342 0.0235,0 0,-0.02342 0,-0.02342 0,-0.02342 0.0235,0 0,-0.02342 0,-0.02342 0,-0.02342 0.0235,0 0,-0.02342 0,-0.02342 0.0235,0 0,-0.02342 0,-0.02342 0,-0.02342 0.0235,0 0,-0.02342 0.0235,0 0,-0.02342 0,-0.02342 0.0235,0 0,-0.02342 0,-0.02342 0.0235,0 0,-0.02342 0,-0.02342 0.0235,0 0,-0.02342 0,-0.02342 0.0235,0 0,-0.02342 0,-0.02342 0.0235,0 0,-0.02342 0.0235,0 0,-0.02342 0,-0.02342 0.0235,0 0,-0.02342 0,-0.02342 0.0235,0 0,-0.02342 0.0235,0 0,-0.02342 0,-0.02342 0.0235,0 0,-0.02342 0.0235,0 0,-0.02342 0,-0.02342 0.0235,0 0,-0.02342 0.0235,0 0,-0.02342 0,-0.02342 0.0235,0 0,-0.02342 0.0235,0 0,-0.02342 0.0235,0 0,-0.02342 0.0235,0 0,-0.02342 0.0235,0 0,-0.02342 0,-0.02342 0.0235,0 0,-0.02342 0.0235,0 0,-0.02342 0.0235,0 0,-0.02342 0.0235,0 0,-0.02342 0.0235,0 0,-0.02342 0.0235,0 0,-0.02342 0.0235,0 0,-0.02342 0.0235,0 0,-0.02342 0.0235,0 0,-0.02342 0.0235,0 0,-0.02342 0.0235,0 0,-0.02342 0.0235,0 0,-0.02342 0.0235,0 0.0235,0 0,-0.02342 0.0235,0 0,-0.02342 0.0235,0 0,-0.02342 0.0235,0 0,-0.02342 0.0235,0 0,-0.02342 0.0235,0 0,-0.02342 0.0235,0 0.0235,0 0,-0.02342 0.0235,0 0,-0.02342 0.0235,0 0.0235,0 0,-0.02342 0.0235,0 0,-0.02342 0.0235,0 0.0235,0 0,-0.02342 0.0235,0 0,-0.02342 0.0235,0 0.0235,0 0,-0.02342 0.0235,0 0,-0.02342 0.0235,0 0.0235,0 0,-0.02342 0.0235,0 0.0235,0 0,-0.02342 0.0235,0 0,-0.02342 0.0235,0 0.0235,0 0,-0.02342 0.0235,0 0.0235,0 0.0235,0 0,-0.02342 0.0235,0 0.0235,0 0,-0.02342 0.0235,0 0.0235,0 0,-0.02342 0.0235,0 0.0235,0 0,-0.02342 0.0235,0 0.0235,0 0.0235,0 0,-0.02342 0.0235,0 0.0235,0 0,-0.02342 0.0235,0 0.0235,0 0.0235,0 0,-0.02342 0.0235,0 0.0235,0 0.0235,0 0,-0.02342 0.0235,0 0.0235,0 0.0235,0 0.0235,0 0,-0.02342 0.0235,0 0.0235,0 0.0235,0 0.0235,0 0,-0.02342 0.0235,0 0.0235,0 0.0235,0 0.0235,0 0,-0.02342 0.0235,0 0.0235,0 0.0235,0 0.0235,0 0.0235,0 0,-0.02342 0.0235,0 0.0235,0 0.0235,0 0.0235,0 0.0235,0 0,-0.02342 0.0235,0 0.0235,0 0.0235,0 0.0235,0 0.0235,0 0.0235,0 0,-0.02342 0.0235,0 0.0235,0 0.0235,0 0.0235,0 0.0235,0 0.0235,0 0.0235,0 0.0235,0 0.0235,0 0.0235,0 0,-0.02342 0.0235,0 0.0235,0 0.0235,0 0.0235,0 0.0235,0 0.0235,0 0.047,0 0.0235,0 0,-0.02342 0.0235,0 0.047,0 0.0235,0 0.047,0 0.0235,0 0.047,0 0.0235,0 0.047,0 0.0235,0 0.047,0 0.0235,0 0.047,0 0.0235,0 0,-0.02342 0.047,0 0.0235,0 0.047,0 0.047,0 0.047,0 0.0235,0 0.047,0 0.047,0 0.0235,0 0,-0.02342 0.047,0 0.047,0 0.047,0 0.047,0 0.0235,0 0.047,0 0.047,0 0.047,0 0.047,0 0,-0.02342 0.047,0 0.047,0 0.047,0 0.047,0 0.047,0 0.047,0 0.047,0 0.047,0 0.047,0 0.047,0 0,-0.02342 0.047,0 0.07117,0 0.047,0 0.047,0 0.047,0 0.07117,0 0.047,0 0.047,0 0.07117,0 0,-0.02342 0.04692,0 0.07117,0 0.07117,0 0.047,0 0.07117,0 0.047,0 0.07117,0 0.07117,0 0.047,0 0,-0.02342 0.07117,0 0.07117,0 0.07117,0 0.07117,0 0.07117,0 0.07117,0 0.07117,0 0.07117,0 0.07117,0 0.09468,0 0,-0.02342 0.07117,0 0.07117,0 0.09467,0 0.07117,0 0.09467,0 0.07117,0 0.118302,0 0.07117,0 0.09468,0 0,-0.02342 0.09468,0 0.118377,0 0.09468,0 0.09468,0 0.118302,0 0.09468,0 0.118378,0 0.11831,0 0.118377,0 0.11831,0 0.142011,0 0.118377,0 0.165645,0 0,-0.02342 z m 0.09468,4.425991 0,6.366857 0,0.591677 0.0235,0 0,-0.02342 0.0235,0 0.0235,0 0,-0.02342 0.0235,0 0.0235,0 0,-0.02342 0.0235,0 0.0235,0 0,-0.02342 0.0235,0 0,-0.02342 0.0235,0 0.0235,0 0.0235,0 0,-0.02342 0.0235,0 0.0235,0 0,-0.02342 0.0235,0 0,-0.02342 0.0235,0 0.0235,0 0,-0.02342 0.0235,0 0.0235,0 0,-0.02342 0.0235,0 0.0235,0 0,-0.02342 0.0235,0 0.0235,0 0,-0.02342 0.0235,0 0,-0.02342 0.0235,0 0.0235,0 0,-0.02342 0.0235,0 0.0235,0 0,-0.02342 0.0235,0 0.0235,0 0,-0.02342 0.0235,0 0.0235,0 0,-0.02342 0.0235,0 0.0235,0 0,-0.02342 0.0235,0 0.0235,0 0,-0.02342 0.0235,0 0,-0.02342 0.0235,0 0.0235,0 0,-0.02342 0.0235,0 0.0235,0 0,-0.02342 0.0235,0 0.0235,0 0,-0.02342 0.0235,0 0.0235,0 0,-0.02342 0.0235,0 0.0235,0 0,-0.02342 0.0235,0 0.0235,0 0,-0.02342 0.0235,0 0.0235,0 0,-0.02342 0.0235,0 0,-0.02342 0.0235,0 0.0235,0 0,-0.02342 0.0235,0 0.0235,0 0,-0.02342 0.0235,0 0.0235,0 0,-0.02342 0.0235,0 0.0235,0 0,-0.02342 0.0235,0 0.0235,0 0,-0.02342 0.0235,0 0.0235,0 0,-0.02342 0.0235,0 0,-0.02342 0.0235,0 0.0235,0 0,-0.02342 0.0235,0 0.0235,0 0,-0.02342 0.0235,0 0.0235,0 0,-0.02342 0.0235,0 0,-0.02342 0.0235,0 0.0235,0 0,-0.02342 0.0235,0 0.0235,0 0,-0.02342 0.0235,0 0.0235,0 0,-0.02342 0.0235,0 0.0235,0 0,-0.02342 0.0235,0 0.0235,0 0,-0.02342 0.0235,0 0.0235,0 0,-0.02342 0.0235,0 0.0235,0 0,-0.02342 0.0235,0 0.0235,0 0,-0.02342 0.0235,0 0,-0.02342 0.0235,0 0.0235,0 0,-0.02342 0.0235,0 0.0235,0 0,-0.02342 0.0235,0 0.0235,0 0,-0.02342 0.0235,0 0.0235,0 0,-0.02342 0.0235,0 0.0235,0 0,-0.02342 0.0235,0 0.0235,0 0,-0.02342 0.0235,0 0,-0.02342 0.0235,0 0.0235,0 0,-0.02342 0.0235,0 0.0235,0 0,-0.02342 0.0235,0 0.0235,0 0,-0.02342 0.0235,0 0,-0.02342 0.0235,0 0.0235,0 0.0235,0 0,-0.02342 0.0235,0 0.0235,0 0,-0.02342 0.0235,0 0,-0.02342 0.0235,0 0.0235,0 0,-0.02342 0.0235,0 0.0235,0 0,-0.02342 0.0235,0 0.0235,0 0,-0.02342 0.0235,0 0.0235,0 0,-0.02342 0.0235,0 0.0235,0 0,-0.02342 0.0235,0 0.0235,0 0,-0.02342 0.0235,0 0.0235,0 0,-0.02342 0.0235,0 0,-0.02342 0.0235,0 0.0235,0 0,-0.02342 0.0235,0 0.0235,0 0,-0.02342 0.0235,0 0.0235,0 0,-0.02342 0.0235,0 0.0235,0 0,-0.02342 0.0235,0 0,-0.02342 0.0235,0 0.0235,0 0,-0.02342 0.0235,0 0.0235,0 0,-0.02342 0.0235,0 0.0235,0 0,-0.02342 0.0235,0 0.0235,0 0,-0.02342 0.0235,0 0.0235,0 0,-0.02342 0.0235,0 0.0235,0 0,-0.02342 0.0235,0 0,-0.02342 0.0235,0 0.0235,0 0,-0.02342 0.0235,0 0.0235,0 0,-0.02342 0.0235,0 0.0235,0 0,-0.02342 0.0235,0 0.0235,0 0,-0.02342 0.0235,0 0.0235,0 0,-0.02342 0.0235,0 0.0235,0 0,-0.02342 0.0235,0 0.0235,0 0,-0.02342 0.0235,0 0,-0.02342 0.0235,0 0.0235,0 0,-0.02342 0.0235,0 0.0235,0 0,-0.02342 0.0235,0 0.0235,0 0,-0.02342 0.0235,0 0.0235,0 0,-0.02342 0.0235,0 0,-0.02342 0.0235,0 0.0235,0 0.0235,0 0,-0.02342 0.0235,0 0.0235,0 0,-0.02342 0.0235,0 0,-0.02342 0.0235,0 0.0235,0 0,-0.02342 0.0235,0 0.0235,0 0,-0.02342 0.0235,0 0.0235,0 0,-0.02342 0.0235,0 0,-0.02342 0.0235,0 0.0235,0 0,-0.02342 0.0235,0 0.0235,0 0.0235,0 0,-0.02342 0.0235,0 0,-0.02342 0.0235,0 0.0235,0 0,-0.02342 0.0235,0 0.0235,0 0,-0.02342 0.0235,0 0.0235,0 0,-0.02342 0.0235,0 0,-0.02342 0.0235,0 0.0235,0 0,-0.02342 0.0235,0 0.0235,0 0,-0.02342 0.0235,0 0.0235,0 0.0235,0 0,-0.02342 0.0235,0 0,-0.02342 0.0235,0 0.0235,0 0,-0.02342 0.0235,0 0.0235,0 0,-0.02342 0.0235,0 0.0235,0 0,-0.02342 0.0235,0 0.0235,0 0,-0.02342 0.0235,0 0,-0.02342 0.0235,0 0.0235,0 0,-0.02342 0.0235,0 0.0235,0 0,-0.02342 0.0235,0 0.0235,0 0,-0.02342 0.0235,0 0.0235,0 0,-0.02342 0.0235,0 0.0235,0 0,-0.02342 0.0235,0 0,-0.02342 0.0235,0 0.0235,0 0,-0.02342 0.0235,0 0.0235,0 0,-0.02342 0.0235,0 0.0235,0 0,-0.02342 0.0235,0 0.0235,0 0,-0.02342 0.0235,0 0,-0.02342 0.0235,0 0.0235,0 0.0235,0 0,-0.02342 0.0235,0 0,-0.02342 0.0235,0 0.0235,0 0,-0.02342 0.0235,0 0.0235,0 0,-0.02342 0.0235,0 0.0235,0 0,-0.02342 0.0235,0 0.0235,0 0,-0.02342 0.0235,0 0.0235,0 0,-0.02342 0.0235,0 0,-0.02342 0.0235,0 0.0235,0 0.0235,0 0,-0.02342 0.0235,0 0.0235,0 0,-0.02342 0.0235,0 0,-0.02342 0.0235,0 0.0235,0 0,-0.02342 0.0235,0 0.0235,0 0,-0.02342 0.0235,0 0.0235,0 0,-0.02342 0.0235,0 0,-0.02342 0.0235,0 0.0235,0 0,-0.02342 0.0235,0 0.0235,0 0,-0.02342 0.0235,0 0.0235,0 0,-0.02342 -0.0235,0 -0.0235,0 0,-0.02342 -0.0235,0 -0.0235,0 0,-0.02342 -0.0235,0 -0.0235,0 0,-0.02342 -0.0235,0 0,-0.02342 -0.0235,0 -0.0235,0 0,-0.02342 -0.0235,0 -0.0235,0 0,-0.02342 -0.0235,0 -0.0235,0 0,-0.02342 -0.0235,0 0,-0.02342 -0.0235,0 -0.0235,0 -0.0235,0 0,-0.02342 -0.0235,0 0,-0.02342 -0.0235,0 -0.0235,0 0,-0.02342 -0.0235,0 -0.0235,0 0,-0.02342 -0.0235,0 -0.0235,0 0,-0.02342 -0.0235,0 -0.0235,0 0,-0.02342 -0.0235,0 -0.0235,0 0,-0.02342 -0.0235,0 0,-0.02342 -0.0235,0 -0.0235,0 -0.0235,0 0,-0.02342 -0.0235,0 0,-0.02342 -0.0235,0 -0.0235,0 0,-0.02342 -0.0235,0 -0.0235,0 0,-0.02342 -0.0235,0 -0.0235,0 0,-0.02342 -0.0235,0 -0.0235,0 0,-0.02342 -0.0235,0 0,-0.02342 -0.0235,0 -0.0235,0 0,-0.02342 -0.0235,0 -0.0235,0 0,-0.02342 -0.0235,0 0,-0.02342 -0.0235,0 -0.0235,0 0,-0.02342 -0.0235,0 -0.0235,0 -0.0235,0 0,-0.02342 -0.0235,0 0,-0.02342 -0.0235,0 -0.0235,0 0,-0.02342 -0.0235,0 -0.0235,0 0,-0.02342 -0.0235,0 -0.0235,0 0,-0.02342 -0.0235,0 0,-0.02342 -0.0235,0 -0.0235,0 0,-0.02342 -0.0235,0 -0.0235,0 0,-0.02342 -0.0235,0 -0.0235,0 0,-0.02342 -0.0235,0 -0.0235,0 -0.0235,0 0,-0.02342 -0.0235,0 0,-0.02342 -0.0235,0 -0.0235,0 0,-0.02342 -0.0235,0 -0.0235,0 0,-0.02342 -0.0235,0 0,-0.02342 -0.0235,0 -0.0235,0 0,-0.02342 -0.0235,0 -0.0235,0 0,-0.02342 -0.0235,0 -0.0235,0 0,-0.02342 -0.0235,0 -0.0235,0 0,-0.02342 -0.0235,0 -0.0235,0 0,-0.02342 -0.0235,0 -0.0235,0 0,-0.02342 -0.0235,0 0,-0.02342 -0.0235,0 -0.0235,0 0,-0.02342 -0.0235,0 -0.0235,0 0,-0.02342 -0.0235,0 -0.0235,0 0,-0.02342 -0.0235,0 -0.0235,0 0,-0.02342 -0.0235,0 -0.0235,0 0,-0.02342 -0.0235,0 0,-0.02342 -0.0235,0 -0.0235,0 0,-0.02342 -0.0235,0 -0.0235,0 0,-0.02342 -0.0235,0 -0.0235,0 0,-0.02342 -0.0235,0 -0.0235,0 0,-0.02342 -0.0235,0 0,-0.02342 -0.0235,0 -0.0235,0 -0.0235,0 0,-0.02342 -0.0235,0 -0.0235,0 0,-0.02342 -0.0235,0 -0.0235,0 0,-0.02342 -0.0235,0 0,-0.02342 -0.0235,0 -0.0235,0 0,-0.02342 -0.0235,0 -0.0235,0 0,-0.02342 -0.0235,0 -0.0235,0 0,-0.02342 -0.0235,0 0,-0.02342 -0.0235,0 -0.0235,0 0,-0.02342 -0.0235,0 -0.0235,0 0,-0.02342 -0.0235,0 -0.0235,0 0,-0.02342 -0.0235,0 -0.0235,0 0,-0.02342 -0.0235,0 -0.0235,0 0,-0.02342 -0.0235,0 -0.0235,0 0,-0.02342 -0.0235,0 0,-0.02342 -0.0235,0 -0.0235,0 0,-0.02342 -0.0235,0 -0.0235,0 0,-0.02342 -0.0235,0 0,-0.02342 -0.0235,0 -0.0235,0 0,-0.02342 -0.0235,0 -0.0235,0 0,-0.02342 -0.0235,0 -0.0235,0 -0.0235,0 0,-0.02342 -0.0235,0 0,-0.02342 -0.0235,0 -0.0235,0 0,-0.02342 -0.0235,0 -0.0235,0 0,-0.02342 -0.0235,0 -0.0235,0 0,-0.02342 -0.0235,0 -0.0235,0 0,-0.02342 -0.0235,0 0,-0.02342 -0.0235,0 -0.0235,0 0,-0.02342 -0.0235,0 -0.0235,0 0,-0.02342 -0.0235,0 -0.0235,0 0,-0.02342 -0.0235,0 -0.0235,0 0,-0.02342 -0.0235,0 -0.0235,0 0,-0.02342 -0.0235,0 0,-0.02342 -0.0235,0 -0.0235,0 0,-0.02342 -0.0235,0 -0.0235,0 0,-0.02342 -0.0235,0 -0.0235,0 0,-0.02342 -0.0235,0 -0.0235,0 0,-0.02342 -0.0235,0 -0.0235,0 0,-0.02342 -0.0235,0 -0.0235,0 0,-0.02342 -0.0235,0 0,-0.02342 -0.0235,0 -0.0235,0 0,-0.02342 -0.0235,0 -0.0235,0 0,-0.02342 -0.0235,0 -0.0235,0 0,-0.02342 -0.0235,0 0,-0.02342 -0.0235,0 -0.0235,0 0,-0.02342 -0.0235,0 -0.0235,0 0,-0.02342 -0.0235,0 -0.0235,0 0,-0.02342 -0.0235,0 -0.0235,0 0,-0.02342 -0.0235,0 -0.0235,0 0,-0.02342 -0.0235,0 -0.0235,0 0,-0.02342 -0.0235,0 -0.0235,0 0,-0.02342 -0.0235,0 -0.0235,0 0,-0.02342 -0.0235,0 0,-0.02342 -0.0235,0 -0.0235,0 0,-0.02342 -0.0235,0 -0.0235,0 0,-0.02342 -0.0235,0 -0.0235,0 0,-0.02342 -0.0235,0 -0.0235,0 0,-0.02342 -0.0235,0 -0.0235,0 0,-0.02342 -0.0235,0 0,-0.02342 -0.0235,0 -0.0235,0 0,-0.02342 -0.0235,0 -0.0235,0 0,-0.02342 -0.0235,0 -0.0235,0 0,-0.02342 -0.0235,0 -0.0235,0 0,-0.02342 -0.0235,0 -0.0235,0 0,-0.02342 -0.0235,0 -0.0235,0 0,-0.02342 -0.0235,0 0,-0.02342 -0.0235,0 -0.0235,0 0,-0.02342 -0.0235,0 -0.0235,0 0,-0.02342 -0.0235,0 -0.0235,0 0,-0.02342 -0.0235,0 -0.0235,0 0,-0.02342 -0.0235,0 0,-0.02342 -0.0235,0 -0.0235,0 0,-0.02342 -0.0235,0 -0.0235,0 0,-0.02342 -0.0235,0 -0.0235,0 0,-0.02342 -0.0235,0 -0.0235,0 0,-0.02342 -0.0235,0 -0.0235,0 0,-0.02342 -0.0235,0 -0.0235,0 0,-0.02342 -0.0235,0 0,-0.02342 -0.0235,0 -0.0235,0 0,-0.02342 -0.0235,0 -0.0235,0 0,-0.02342 -0.0235,0 -0.0235,0 0,-0.02342 -0.0235,0 -0.0235,0 0,-0.02342 -0.0235,0 -0.0235,0 0,-0.02342 -0.0235,0 -0.0235,0 0,-0.02342 -0.0235,0 0,-0.02342 -0.0235,0 -0.0235,0 0,-0.02342 -0.0235,0 -0.0235,0 0,-0.02342 -0.0235,0 -0.0235,0 0,-0.02342 -0.0235,0 z"
     style="color:#000000;fill:#eb4c4e;fill-opacity:1;fill-rule:nonzero;stroke:none;stroke-width:2.66490579;marker:none;visibility:visible;display:inline;overflow:visible;enable-background:accumulate"
     inkscape:connector-curvature="0" />
</svg>
