<?xml version="1.0" encoding="UTF-8" standalone="no"?>
<!-- Created with Inkscape (http://www.inkscape.org/) -->

<svg
   xmlns:dc="http://purl.org/dc/elements/1.1/"
   xmlns:cc="http://creativecommons.org/ns#"
   xmlns:rdf="http://www.w3.org/1999/02/22-rdf-syntax-ns#"
   xmlns:svg="http://www.w3.org/2000/svg"
   xmlns="http://www.w3.org/2000/svg"
   xmlns:sodipodi="http://sodipodi.sourceforge.net/DTD/sodipodi-0.dtd"
   xmlns:inkscape="http://www.inkscape.org/namespaces/inkscape"
   id="svg2"
   height="48"
   width="48"
   version="1.1"
   inkscape:version="0.91 r13725"
   sodipodi:docname="icon-contact.svg">
  <defs
     id="defs7" />
  <sodipodi:namedview
     pagecolor="#ffffff"
     bordercolor="#666666"
     borderopacity="1"
     objecttolerance="10"
     gridtolerance="10"
     guidetolerance="10"
     inkscape:pageopacity="0"
     inkscape:pageshadow="2"
     inkscape:window-width="640"
     inkscape:window-height="480"
     id="namedview5"
     showgrid="true"
     inkscape:zoom="15.687468"
     inkscape:cx="31.20743"
     inkscape:cy="23.025909"
     inkscape:current-layer="svg2"
     inkscape:snap-bbox="true"
     inkscape:bbox-paths="true"
     inkscape:bbox-nodes="true"
     inkscape:snap-bbox-edge-midpoints="true"
     inkscape:snap-bbox-midpoints="true"
     inkscape:object-paths="true"
     inkscape:snap-intersection-paths="true"
     inkscape:object-nodes="true"
     inkscape:snap-smooth-nodes="true"
     inkscape:snap-midpoints="true"
     inkscape:snap-object-midpoints="true"
     inkscape:snap-center="true"
     inkscape:snap-text-baseline="true">
    <inkscape:grid
       type="xygrid"
       id="grid4157" />
  </sodipodi:namedview>
  <metadata
     id="metadata7">
    <rdf:RDF>
      <cc:Work
         rdf:about="">
        <dc:format>image/svg+xml</dc:format>
        <dc:type
           rdf:resource="http://purl.org/dc/dcmitype/StillImage" />
        <dc:title></dc:title>
      </cc:Work>
    </rdf:RDF>
  </metadata>
  <path
     style="color:#000000;fill:none;stroke:#000000;stroke-width:1"
     d="m 24,1.4999999 c -6.210933,0 -11.496093,2.2148258 -15.890625,6.609375 C 3.7148404,12.503929 1.5,17.7891 1.5,24 1.5,30.2109 3.7148404,35.496072 8.109375,39.890625 12.503907,44.285179 17.789067,46.5 24,46.5 30.210934,46.5 35.496094,44.285179 39.890625,39.890625 44.285157,35.496072 46.5,30.2109 46.5,24 46.5,17.7891 44.285157,12.503929 39.890625,8.1093749 35.496094,3.7148257 30.210934,1.4999999 24,1.4999999 Z"
     id="path4154"
     inkscape:connector-curvature="0" />
  <path
     style="color:#000000;fill:#000000"
     d="m 20.41131,8.4537347 -2.413828,0.2136129 c -0.0669,0.0079 -0.129511,0.021412 -0.185132,0.052218 -0.166923,0.088736 -0.274357,0.2691947 -0.256335,0.4699493 l 0.714416,7.996253 c 0.02386,0.267507 0.26408,0.458482 0.53166,0.434347 l 2.413829,-0.213613 c 0.267567,-0.02364 0.458408,-0.261706 0.434347,-0.529286 L 20.933477,8.8880829 C 20.909622,8.6206491 20.678829,8.4321208 20.41131,8.4561093 l 0,-0.00243 z m -3.503255,0.6384666 c -0.689906,0.045838 -1.433415,0.236295 -2.095784,0.6194787 -0.562465,0.325157 -1.065293,0.783634 -1.424088,1.4051 -1.470649,2.547238 -2.066717,10.31376 2.193096,17.691918 4.259766,7.378085 11.282967,10.737623 14.224265,10.737623 1.562653,7.3e-5 2.801189,-0.970558 3.51275,-2.034072 -0.04849,-0.02364 -0.09705,-0.04665 -0.142409,-0.07832 L 26.655936,32.841244 C 25.30676,33.734153 21.10195,32.398662 18.165999,27.313409 15.23006,22.228315 16.177078,17.917435 17.624845,17.195265 l -0.71679,-7.9440374 c -0.005,-0.055147 -0.0043,-0.1055906 0,-0.1590227 z M 28.673394,29.418682 c -0.093,-1.2e-5 -0.185711,0.03049 -0.26583,0.0807 l 0,-0.0095 c -0.05358,0.03366 -0.101374,0.07798 -0.140035,0.132915 l -1.388486,1.988976 c -0.154576,0.219664 -0.105712,0.519504 0.113927,0.674068 l 6.562671,4.616419 c 0.219652,0.154625 0.519493,0.09626 0.674069,-0.123421 l 1.388486,-1.972362 c 0.154576,-0.219736 0.103403,-0.526625 -0.116297,-0.681189 l -6.553181,-4.618811 c -0.08242,-0.05802 -0.182323,-0.086 -0.275324,-0.08782 z"
     id="path4152"
     inkscape:connector-curvature="0" />
</svg>
