<?xml version="1.0" encoding="UTF-8" standalone="no"?>
<!-- Created with Inkscape (http://www.inkscape.org/) -->

<svg
   xmlns:dc="http://purl.org/dc/elements/1.1/"
   xmlns:cc="http://creativecommons.org/ns#"
   xmlns:rdf="http://www.w3.org/1999/02/22-rdf-syntax-ns#"
   xmlns:svg="http://www.w3.org/2000/svg"
   xmlns="http://www.w3.org/2000/svg"
   xmlns:sodipodi="http://sodipodi.sourceforge.net/DTD/sodipodi-0.dtd"
   xmlns:inkscape="http://www.inkscape.org/namespaces/inkscape"
   id="svg2"
   height="48.0001"
   width="48"
   version="1.1"
   inkscape:version="0.92.1 r"
   sodipodi:docname="icon-college.svg">
  <defs
     id="defs8" />
  <sodipodi:namedview
     pagecolor="#ffffff"
     bordercolor="#666666"
     borderopacity="1"
     objecttolerance="10"
     gridtolerance="10"
     guidetolerance="10"
     inkscape:pageopacity="0"
     inkscape:pageshadow="2"
     inkscape:window-width="1920"
     inkscape:window-height="1017"
     id="namedview6"
     showgrid="true"
     inkscape:zoom="19.666626"
     inkscape:cx="23.004773"
     inkscape:cy="23.133486"
     inkscape:window-x="-5"
     inkscape:window-y="26"
     inkscape:window-maximized="1"
     inkscape:current-layer="svg2"
     inkscape:snap-bbox="true"
     inkscape:snap-global="false">
    <inkscape:grid
       type="xygrid"
       id="grid2989" />
  </sodipodi:namedview>
  <metadata
     id="metadata7">
    <rdf:RDF>
      <cc:Work
         rdf:about="">
        <dc:format>image/svg+xml</dc:format>
        <dc:type
           rdf:resource="http://purl.org/dc/dcmitype/StillImage" />
        <dc:title></dc:title>
      </cc:Work>
    </rdf:RDF>
  </metadata>
  <path
     style="color:#000000;fill:#000000;fill-opacity:1;fill-rule:nonzero;stroke-width:0.99999994;enable-background:accumulate"
     d="m 24.053615,15.427472 10.610275,3.261677 c 5.842536,1.794725 10.690756,3.342158 10.767464,3.418867 0.274893,0.274892 -0.215412,0.459118 -4.794272,1.650487 l -4.637083,1.17892 -0.15719,2.47573 c -0.113427,1.916452 -0.147758,3.587122 -0.550162,4.126219 -7.444357,2.62149 -14.539933,2.821357 -21.37774,0 -0.832575,-0.06344 -1.234879,-0.823546 -1.257514,-2.515029 l -0.457628,-2.972656 c 2.534221,0.546256 8.580091,0.586011 12.490576,-0.01872 C 15.383325,25.92696 11.000304,24.717546 10.024473,24.426557 7.618094,23.708643 7.7452286,23.563966 7.7452286,27.295262 c 0,1.801263 0.1328564,3.594918 0.2750813,3.969028 0.1833455,0.483263 0.1664319,0.773749 -0.039297,1.021731 C 7.64337,32.693078 6.7044471,32.715147 6.2126333,32.403913 5.9132192,32.214154 5.9258572,31.972585 6.173336,31.146398 6.8435179,31.866889 6.7030506,25.376751 6.1340387,23.7978 5.957358,23.651174 5.8660625,23.358614 4.9551192,23.129746 3.1683175,22.680939 2.4965534,22.365932 2.7544696,22.108016 2.8441303,22.018355 7.6705323,20.478089 13.482637,18.689149 Z"
     id="path5853"
     inkscape:connector-curvature="0"
     sodipodi:nodetypes="ccccccccccccsccccccccc" />
</svg>
