<?xml version="1.0" encoding="UTF-8" standalone="no"?>
<!-- Created with Inkscape (http://www.inkscape.org/) -->

<svg
   xmlns:dc="http://purl.org/dc/elements/1.1/"
   xmlns:cc="http://creativecommons.org/ns#"
   xmlns:rdf="http://www.w3.org/1999/02/22-rdf-syntax-ns#"
   xmlns:svg="http://www.w3.org/2000/svg"
   xmlns="http://www.w3.org/2000/svg"
   xmlns:sodipodi="http://sodipodi.sourceforge.net/DTD/sodipodi-0.dtd"
   xmlns:inkscape="http://www.inkscape.org/namespaces/inkscape"
   id="svg2"
   height="48"
   width="48"
   version="1.1"
   inkscape:version="0.92.1 r"
   sodipodi:docname="icon-contact.svg">
  <defs
     id="defs7" />
  <sodipodi:namedview
     pagecolor="#ffffff"
     bordercolor="#666666"
     borderopacity="1"
     objecttolerance="10"
     gridtolerance="10"
     guidetolerance="10"
     inkscape:pageopacity="0"
     inkscape:pageshadow="2"
     inkscape:window-width="640"
     inkscape:window-height="480"
     id="namedview5"
     showgrid="true"
     inkscape:zoom="11.092715"
     inkscape:cx="34.918938"
     inkscape:cy="19.915986"
     inkscape:current-layer="svg2"
     inkscape:snap-bbox="true"
     inkscape:bbox-paths="true"
     inkscape:bbox-nodes="true"
     inkscape:snap-bbox-edge-midpoints="true"
     inkscape:snap-bbox-midpoints="true"
     inkscape:object-paths="true"
     inkscape:snap-intersection-paths="true"
     inkscape:object-nodes="true"
     inkscape:snap-smooth-nodes="true"
     inkscape:snap-midpoints="true"
     inkscape:snap-object-midpoints="true"
     inkscape:snap-center="true"
     inkscape:snap-text-baseline="true"
     inkscape:snap-global="false">
    <inkscape:grid
       type="xygrid"
       id="grid4157" />
  </sodipodi:namedview>
  <metadata
     id="metadata7">
    <rdf:RDF>
      <cc:Work
         rdf:about="">
        <dc:format>image/svg+xml</dc:format>
        <dc:type
           rdf:resource="http://purl.org/dc/dcmitype/StillImage" />
        <dc:title></dc:title>
      </cc:Work>
    </rdf:RDF>
  </metadata>
  <path
     style="color:#000000;fill:#000000;stroke-width:1"
     d="m 19.131618,2.910086 -3.274576,0.2897852 c -0.09076,0.010717 -0.175693,0.029047 -0.251148,0.070838 -0.226446,0.1203784 -0.37219,0.3651869 -0.347742,0.6375287 l 0.96917,10.8476411 c 0.03237,0.362897 0.358248,0.621971 0.721245,0.589231 l 3.274577,-0.289786 c 0.362979,-0.03207 0.621872,-0.355029 0.589231,-0.718024 L 19.839985,3.4993186 C 19.807623,3.1365205 19.494532,2.8807648 19.131618,2.9133074 v -0.0033 z M 14.379136,3.7762237 C 13.443216,3.8384071 12.434579,4.0967792 11.536015,4.6166026 10.772981,5.0577074 10.090849,5.6796729 9.6041112,6.5227477 7.6090429,9.9783063 6.8004228,20.514296 12.579244,30.523434 18.358002,40.532473 27.885609,45.08999 31.875746,45.08999 c 2.11988,9.9e-5 3.800066,-1.31665 4.765362,-2.759402 -0.06578,-0.03207 -0.131657,-0.06329 -0.19319,-0.106249 l -8.8449,-6.230392 C 25.772738,37.205259 20.068533,35.393545 16.085651,28.494939 12.102784,21.596549 13.387499,15.748451 15.351526,14.768762 L 14.379136,3.9919573 c -0.0068,-0.074812 -0.0058,-0.1432432 0,-0.2157287 z M 30.339882,31.350932 c -0.126163,-1.6e-5 -0.251934,0.04136 -0.360623,0.109477 v -0.01289 c -0.07269,0.04566 -0.137523,0.105786 -0.18997,0.180311 l -1.883607,2.698225 c -0.209696,0.297995 -0.143407,0.704755 0.154553,0.914435 l 8.902856,6.262589 c 0.297978,0.209763 0.704739,0.130586 0.914436,-0.167431 l 1.883606,-2.675688 c 0.209697,-0.298091 0.140276,-0.714414 -0.157767,-0.924094 l -8.889982,-6.265835 c -0.111811,-0.07871 -0.247338,-0.116667 -0.373502,-0.119136 z"
     id="path4152"
     inkscape:connector-curvature="0"
     class="vui_change_color" />
</svg>
