<?xml version="1.0" encoding="UTF-8" standalone="no"?>
<!-- Created with Inkscape (http://www.inkscape.org/) -->

<svg
   xmlns:dc="http://purl.org/dc/elements/1.1/"
   xmlns:cc="http://creativecommons.org/ns#"
   xmlns:rdf="http://www.w3.org/1999/02/22-rdf-syntax-ns#"
   xmlns:svg="http://www.w3.org/2000/svg"
   xmlns="http://www.w3.org/2000/svg"
   xmlns:sodipodi="http://sodipodi.sourceforge.net/DTD/sodipodi-0.dtd"
   xmlns:inkscape="http://www.inkscape.org/namespaces/inkscape"
   id="svg2"
   height="48.0001"
   width="48"
   version="1.1"
   inkscape:version="0.92.1 r"
   sodipodi:docname="icon-map-mark.svg">
  <defs
     id="defs8" />
  <sodipodi:namedview
     pagecolor="#ffffff"
     bordercolor="#666666"
     borderopacity="1"
     objecttolerance="10"
     gridtolerance="10"
     guidetolerance="10"
     inkscape:pageopacity="0"
     inkscape:pageshadow="2"
     inkscape:window-width="1920"
     inkscape:window-height="1017"
     id="namedview6"
     showgrid="true"
     inkscape:zoom="13.906405"
     inkscape:cx="17.59695"
     inkscape:cy="21.928485"
     inkscape:window-x="-5"
     inkscape:window-y="26"
     inkscape:window-maximized="1"
     inkscape:current-layer="svg2"
     inkscape:snap-bbox="true"
     inkscape:snap-global="false">
    <inkscape:grid
       type="xygrid"
       id="grid2989" />
  </sodipodi:namedview>
  <metadata
     id="metadata7">
    <rdf:RDF>
      <cc:Work
         rdf:about="">
        <dc:format>image/svg+xml</dc:format>
        <dc:type
           rdf:resource="http://purl.org/dc/dcmitype/StillImage" />
        <dc:title></dc:title>
      </cc:Work>
    </rdf:RDF>
  </metadata>
  <path
     style="color:#000000;clip-rule:nonzero;display:inline;overflow:visible;visibility:visible;opacity:1;isolation:auto;mix-blend-mode:normal;color-interpolation:sRGB;color-interpolation-filters:linearRGB;solid-color:#000000;solid-opacity:1;vector-effect:none;fill:#000000;fill-opacity:1;fill-rule:nonzero;stroke:none;stroke-width:1.25;stroke-linecap:butt;stroke-linejoin:miter;stroke-miterlimit:4;stroke-dasharray:none;stroke-dashoffset:0;stroke-opacity:1;marker:none;color-rendering:auto;image-rendering:auto;shape-rendering:auto;text-rendering:auto;enable-background:accumulate"
     d="M 24 2.9355469 C 15.27528 2.9355468 8.2011719 10.011347 8.2011719 18.736328 C 8.2011719 19.281674 8.223436 19.849735 8.28125 20.380859 L 8.28125 20.460938 C 8.33523 20.963888 8.4272889 21.453596 8.5273438 21.941406 C 9.8875423 30.059163 16.140171 38.320197 24 45.064453 C 31.859962 38.320197 38.108418 30.059163 39.46875 21.941406 C 39.56749 21.453729 39.662817 20.964019 39.716797 20.460938 L 39.716797 20.380859 C 39.770777 19.849735 39.798828 19.281674 39.798828 18.736328 C 39.798832 10.011347 32.724455 2.936862 24 2.9355469 z M 24 6.5058594 C 30.794978 6.5068836 36.228519 11.94097 36.228516 18.736328 C 36.228516 19.159262 36.206685 19.619376 36.166016 20.019531 A 3.5701233 3.5701233 0 0 0 36.158203 20.134766 C 36.123797 20.431241 36.061363 20.784655 35.970703 21.232422 A 3.5701233 3.5701233 0 0 0 35.947266 21.351562 C 34.941979 27.350594 30.256688 34.157889 24 40.113281 C 17.742384 34.157477 13.053834 27.349507 12.048828 21.351562 A 3.5701233 3.5701233 0 0 0 12.023438 21.224609 C 11.935043 20.793653 11.873327 20.437564 11.837891 20.126953 A 3.5701233 3.5701233 0 0 0 11.830078 19.994141 C 11.791226 19.637218 11.771484 19.184515 11.771484 18.736328 C 11.771484 11.940896 17.205348 6.5058593 24 6.5058594 z M 24 13.46875 C 21.000474 13.46875 18.568359 15.898916 18.568359 18.898438 C 18.568359 21.897962 21.000472 24.330078 24 24.330078 C 26.99939 24.330078 29.431641 21.897962 29.431641 18.898438 C 29.431641 15.898916 26.999392 13.46875 24 13.46875 z "
     id="path4487" />
</svg>
