<?xml version="1.0" encoding="UTF-8" standalone="no"?>
<!-- Created with Inkscape (http://www.inkscape.org/) -->

<svg
   xmlns:dc="http://purl.org/dc/elements/1.1/"
   xmlns:cc="http://creativecommons.org/ns#"
   xmlns:rdf="http://www.w3.org/1999/02/22-rdf-syntax-ns#"
   xmlns:svg="http://www.w3.org/2000/svg"
   xmlns="http://www.w3.org/2000/svg"
   xmlns:sodipodi="http://sodipodi.sourceforge.net/DTD/sodipodi-0.dtd"
   xmlns:inkscape="http://www.inkscape.org/namespaces/inkscape"
   id="svg2"
   height="48.0001"
   width="48"
   version="1.1"
   inkscape:version="0.48.3.1 r9886"
   sodipodi:docname="icon-gplus.svg">
  <defs
     id="defs8" />
  <sodipodi:namedview
     pagecolor="#ffffff"
     bordercolor="#666666"
     borderopacity="1"
     objecttolerance="10"
     gridtolerance="10"
     guidetolerance="10"
     inkscape:pageopacity="0"
     inkscape:pageshadow="2"
     inkscape:window-width="1920"
     inkscape:window-height="1023"
     id="namedview6"
     showgrid="false"
     inkscape:zoom="9.833313"
     inkscape:cx="32.640515"
     inkscape:cy="19.919243"
     inkscape:window-x="-10"
     inkscape:window-y="35"
     inkscape:window-maximized="1"
     inkscape:current-layer="svg2" />
  <metadata
     id="metadata7">
    <rdf:RDF>
      <cc:Work
         rdf:about="">
        <dc:format>image/svg+xml</dc:format>
        <dc:type
           rdf:resource="http://purl.org/dc/dcmitype/StillImage" />
        <dc:title />
      </cc:Work>
    </rdf:RDF>
  </metadata>
  <path
     style="color:#000000;fill:#cf3e35;fill-opacity:1;fill-rule:nonzero;enable-background:accumulate"
     d="M 24,0 C 10.74521,0 0,10.74511 0,24 0,37.25479 10.7452,48 24,48 37.25488,48 48,37.2548 48,24 48,10.74511 37.25488,0 24,0 z m -0.03125,11.40625 c 0.148847,-0.01003 0.315539,0 0.46875,0 l 7.28125,0 -1.5,1.46875 -1.9375,0 c 1.60757,1.366455 2.3125,2.834995 2.3125,4.53125 0,2.472343 -1.386895,3.69426 -2.375,4.53125 -0.1801,0.160837 -0.690141,0.518721 -0.96875,0.8125 -0.157927,0.180201 -0.59375,0.654397 -0.59375,1.375 0,0.503077 0.166537,0.92171 1.03125,1.59375 2.940795,2.203446 4.125,3.481629 4.125,5.8125 0,3.306624 -3.150158,6.65625 -9.21875,6.65625 -5.126191,0 -7.5625,-2.484057 -7.5625,-5.03125 0,-2.908898 2.696028,-5.622487 9.40625,-6.03125 -0.709596,-0.80388 -1.0625,-1.3201 -1.0625,-2.25 0,-0.630602 0.28125,-1.28125 0.28125,-1.28125 l -1,0 c -3.899731,0 -5.78125,-2.986403 -5.78125,-5.625 0,-3.357594 2.480972,-6.377383 7.09375,-6.5625 z m 12.28125,0 1.90625,0 0,4.4375 4.46875,0 0,1.875 -4.46875,0 0,4.46875 -1.90625,0 0,-4.46875 -4.4375,0 0,-1.875 4.4375,0 z M 23.09375,12.5 c -1.714245,0 -3.15625,1.299083 -3.15625,3.71875 0,2.68164 1.288328,4.934527 2.59375,5.78125 0.587559,0.401839 1.295709,0.5625 1.875,0.5625 1.183476,0 3.34375,-0.779166 3.34375,-3.59375 0,-2.608196 -1.379749,-4.715585 -2.25,-5.5 C 24.715615,12.815973 23.983446,12.5 23.09375,12.5 z m 1.9375,15.6875 c -5.034785,0.07124 -6.875,1.981144 -6.875,4.1875 0,2.66358 2.68414,4.28125 6.1875,4.28125 3.191591,0 5.15625,-1.656767 5.15625,-3.78125 0,-1.545151 -0.908023,-2.427516 -2.34375,-3.5625 -0.616726,-0.471271 -1.46875,-1.09375 -1.46875,-1.09375 0,0 -0.282142,-0.03125 -0.65625,-0.03125 z"
     id="path5853"
     inkscape:connector-curvature="0"
     sodipodi:nodetypes="ssssscscccsccscssscscssccccccccccccccsscsscscsssccc" />
</svg>
