<?xml version="1.0" encoding="UTF-8" standalone="no"?>
<!-- Created with Inkscape (http://www.inkscape.org/) -->

<svg
   xmlns:dc="http://purl.org/dc/elements/1.1/"
   xmlns:cc="http://creativecommons.org/ns#"
   xmlns:rdf="http://www.w3.org/1999/02/22-rdf-syntax-ns#"
   xmlns:svg="http://www.w3.org/2000/svg"
   xmlns="http://www.w3.org/2000/svg"
   xmlns:sodipodi="http://sodipodi.sourceforge.net/DTD/sodipodi-0.dtd"
   xmlns:inkscape="http://www.inkscape.org/namespaces/inkscape"
   id="svg2"
   height="48.0001"
   width="48"
   version="1.1"
   inkscape:version="0.92.1 r"
   sodipodi:docname="icon-home.svg">
  <defs
     id="defs8" />
  <sodipodi:namedview
     pagecolor="#ffffff"
     bordercolor="#666666"
     borderopacity="1"
     objecttolerance="10"
     gridtolerance="10"
     guidetolerance="10"
     inkscape:pageopacity="0"
     inkscape:pageshadow="2"
     inkscape:window-width="1920"
     inkscape:window-height="1017"
     id="namedview6"
     showgrid="true"
     inkscape:zoom="9.833313"
     inkscape:cx="22.203938"
     inkscape:cy="27.16681"
     inkscape:window-x="-5"
     inkscape:window-y="26"
     inkscape:window-maximized="1"
     inkscape:current-layer="svg2"
     inkscape:snap-bbox="true"
     inkscape:snap-global="false">
    <inkscape:grid
       type="xygrid"
       id="grid2989" />
  </sodipodi:namedview>
  <metadata
     id="metadata7">
    <rdf:RDF>
      <cc:Work
         rdf:about="">
        <dc:format>image/svg+xml</dc:format>
        <dc:type
           rdf:resource="http://purl.org/dc/dcmitype/StillImage" />
        <dc:title></dc:title>
      </cc:Work>
    </rdf:RDF>
  </metadata>
  <path
     style="color:#000000;clip-rule:nonzero;display:inline;overflow:visible;visibility:visible;opacity:1;isolation:auto;mix-blend-mode:normal;color-interpolation:sRGB;color-interpolation-filters:linearRGB;solid-color:#000000;solid-opacity:1;vector-effect:none;fill:#000000;fill-opacity:1;fill-rule:nonzero;stroke:none;stroke-width:1.88976383;stroke-linecap:butt;stroke-linejoin:miter;stroke-miterlimit:4;stroke-dasharray:none;stroke-dashoffset:0;stroke-opacity:1;marker:none;color-rendering:auto;image-rendering:auto;shape-rendering:auto;text-rendering:auto;enable-background:accumulate"
     d="M 24 4 C 12.954305 4 4 12.954305 4 24 C 4 35.045695 12.954305 44 24 44 C 35.045695 44 44 35.045695 44 24 C 44 12.954305 35.045695 4 24 4 z M 24.117188 9.8203125 L 34.394531 18.546875 L 38.167969 27.580078 L 24.117188 16.318359 L 9.8320312 27.580078 L 13.542969 18.609375 L 15.972656 16.589844 L 16.337891 20.097656 L 21.958984 15.699219 L 21.970703 13.689453 L 22.150391 11.457031 L 24.117188 9.8203125 z M 16.863281 11.148438 L 21.773438 11.148438 L 21.585938 13.466797 L 16.060547 13.466797 L 16.863281 11.148438 z M 17.601562 11.642578 L 17.167969 12.974609 L 20.814453 12.974609 L 20.970703 11.642578 L 17.601562 11.642578 z M 16.060547 13.728516 L 21.589844 13.728516 L 21.589844 15.416016 L 16.638672 19.292969 L 16.060547 13.728516 z M 24 17.462891 L 34.457031 25.660156 L 33.037109 36.179688 L 14.90625 36.179688 L 13.669922 25.660156 L 24 17.462891 z M 19.298828 24.332031 L 19.574219 28.908203 L 23.628906 28.908203 L 23.628906 24.332031 L 19.298828 24.332031 z M 24.373047 24.332031 L 24.373047 28.908203 L 28.398438 28.908203 L 28.705078 24.332031 L 24.373047 24.332031 z M 19.619141 29.650391 L 19.855469 33.613281 L 23.628906 33.613281 L 23.628906 29.650391 L 19.619141 29.650391 z M 24.373047 29.650391 L 24.373047 33.613281 L 28.083984 33.613281 L 28.349609 29.650391 L 24.373047 29.650391 z "
     id="path4483" />
</svg>
