<?xml version="1.0" encoding="UTF-8" standalone="no"?>
<!-- Created with Inkscape (http://www.inkscape.org/) -->

<svg
   xmlns:dc="http://purl.org/dc/elements/1.1/"
   xmlns:cc="http://creativecommons.org/ns#"
   xmlns:rdf="http://www.w3.org/1999/02/22-rdf-syntax-ns#"
   xmlns:svg="http://www.w3.org/2000/svg"
   xmlns="http://www.w3.org/2000/svg"
   xmlns:sodipodi="http://sodipodi.sourceforge.net/DTD/sodipodi-0.dtd"
   xmlns:inkscape="http://www.inkscape.org/namespaces/inkscape"
   version="1.1"
   id="svg2"
   xml:space="preserve"
   width="100"
   height="100.00003"
   viewBox="0 0 100 100.00003"
   sodipodi:docname="icon-1x1-bradesco.svg"
   inkscape:version="0.92.1 r"><metadata
     id="metadata8"><rdf:RDF><cc:Work
         rdf:about=""><dc:format>image/svg+xml</dc:format><dc:type
           rdf:resource="http://purl.org/dc/dcmitype/StillImage" /><dc:title></dc:title></cc:Work></rdf:RDF></metadata><defs
     id="defs6" /><sodipodi:namedview
     pagecolor="#ffffff"
     bordercolor="#666666"
     borderopacity="1"
     objecttolerance="10"
     gridtolerance="10"
     guidetolerance="10"
     inkscape:pageopacity="0"
     inkscape:pageshadow="2"
     inkscape:window-width="640"
     inkscape:window-height="480"
     id="namedview4"
     showgrid="false"
     inkscape:zoom="1.5248905"
     inkscape:cx="13.593512"
     inkscape:cy="86.563429"
     inkscape:current-layer="g10"
     fit-margin-top="0"
     fit-margin-left="0"
     fit-margin-right="0"
     fit-margin-bottom="0" /><g
     id="g10"
     inkscape:groupmode="layer"
     inkscape:label="ink_ext_XXXXXX"
     transform="matrix(1.3333333,0,0,-1.3333333,198.70279,96.721248)"><g
       id="g41"
       transform="matrix(0.51476356,0,0,0.51476356,-182.40869,-40.375023)"
       style="stroke-width:1.94263947"><path
         d="M 210.54636,73.656994 H 96.739036 c 0,0 -31.890638,0 -31.890638,31.891006 V 219.355 H 178.65563 c 0,0 31.89073,0 31.89073,-31.891 v -113.807006 0"
         style="fill:#e5143c;fill-opacity:1;fill-rule:nonzero;stroke:none;stroke-width:0.19426391"
         id="path30"
         inkscape:connector-curvature="0" /><g
         id="g46"
         style="stroke-width:1.94263947"><path
           inkscape:connector-curvature="0"
           id="path32"
           style="fill:#ffffff;fill-opacity:1;fill-rule:nonzero;stroke:none;stroke-width:0.19426391"
           d="m 131.124,94.133997 h -7.173 V 130.89 h 7.173 v -36.756003 0" /><path
           inkscape:connector-curvature="0"
           id="path34"
           style="fill:#ffffff;fill-opacity:1;fill-rule:nonzero;stroke:none;stroke-width:0.19426391"
           d="M 149.397,94.133997 H 137.648 V 144.586 h 11.749 v -50.452003 0" /><path
           inkscape:connector-curvature="0"
           id="path36"
           style="fill:#ffffff;fill-opacity:1;fill-rule:nonzero;stroke:none;stroke-width:0.19426391"
           d="m 117.516,179.726 c 0,0 11.844,11.58 31.808,7.77 0,0 8.783,-1.367 15.516,-7.348 0,0 1.002,-0.937 1.772,-0.168 0,0 0.976,0.766 -0.111,1.912 0,0 -5.786,8.029 -17.218,11.578 0,0 -15.695,5.621 -31.823,-1.972 0,0 -9.926,-4.114 -15.431,-15.323 0,0 -7.8481,-2.535 -13.731003,-5.837 0,0 -1.7406,-0.686 -1.0824,-2.04 0,0 0.5625,-0.968 2.084003,-0.248 0,0 5.464102,1.885 10.7314,3.061 0,0 -4.2361,-10.986 0.187,-24.617 1.969,-6.073 5.56,-12.25201 11.049,-17.219 0,0 0.893,-0.939 1.869,-0.297 0,0 0.846,0.615 0.251,1.621 0,0 -4.377,6.588 -6.078,15.955 -1.416,7.643 -0.748,18.192 4.557,26.554 0,0 20.2,2.819 37.417,-3.665 0,0 29.247,-9.542 21.885,-27.24201 0,0 -2.142,-6.153 -10.213,-11.709 0,0 -1.353,-0.789 -0.618,-1.91799 0,0 0.609,-0.88101 1.992,-0.319 0,0 12.363,4.024 17.698,13.956 0,0 10.826,16.562 -14.698,30.076 0,0 -7.019,3.751 -16.046,5.756 0,0 -16.252,4.021 -31.767,1.683" /></g></g></g></svg>