<?xml version="1.0" encoding="UTF-8" standalone="no"?>
<!-- Created with Inkscape (http://www.inkscape.org/) -->

<svg
   xmlns:dc="http://purl.org/dc/elements/1.1/"
   xmlns:cc="http://creativecommons.org/ns#"
   xmlns:rdf="http://www.w3.org/1999/02/22-rdf-syntax-ns#"
   xmlns:svg="http://www.w3.org/2000/svg"
   xmlns="http://www.w3.org/2000/svg"
   xmlns:sodipodi="http://sodipodi.sourceforge.net/DTD/sodipodi-0.dtd"
   xmlns:inkscape="http://www.inkscape.org/namespaces/inkscape"
   version="1.1"
   id="svg2"
   xml:space="preserve"
   width="100"
   height="100"
   viewBox="0 0 100 99.999999"
   sodipodi:docname="icon-1x1-banco-panamericano.svg"
   inkscape:version="0.92.1 r"><metadata
     id="metadata8"><rdf:RDF><cc:Work
         rdf:about=""><dc:format>image/svg+xml</dc:format><dc:type
           rdf:resource="http://purl.org/dc/dcmitype/StillImage" /><dc:title></dc:title></cc:Work></rdf:RDF></metadata><defs
     id="defs6" /><sodipodi:namedview
     pagecolor="#ffffff"
     bordercolor="#666666"
     borderopacity="1"
     objecttolerance="10"
     gridtolerance="10"
     guidetolerance="10"
     inkscape:pageopacity="0"
     inkscape:pageshadow="2"
     inkscape:window-width="640"
     inkscape:window-height="480"
     id="namedview4"
     showgrid="false"
     inkscape:zoom="2.911139"
     inkscape:cx="159.53549"
     inkscape:cy="83.176136"
     inkscape:current-layer="g4515"
     fit-margin-top="0"
     fit-margin-left="0"
     fit-margin-right="0"
     fit-margin-bottom="0" /><g
     id="g10"
     inkscape:groupmode="layer"
     inkscape:label="ink_ext_XXXXXX"
     transform="matrix(1.3333333,0,0,-1.3333333,-326.33272,5.1917557)"><g
       id="g4515"
       transform="matrix(0.29888492,0,0,0.29888492,171.5976,-49.853619)"
       style="stroke-width:3.34576941;fill:#3972c1;fill-opacity:1;opacity:1"><path
         transform="scale(1,-1)"
         style="color:#000000;clip-rule:nonzero;display:inline;overflow:visible;visibility:visible;opacity:1;isolation:auto;mix-blend-mode:normal;color-interpolation:sRGB;color-interpolation-filters:linearRGB;solid-color:#000000;solid-opacity:1;vector-effect:none;fill:#3c74c2;fill-opacity:1;fill-rule:nonzero;stroke:none;stroke-width:2.50932717;stroke-linecap:butt;stroke-linejoin:miter;stroke-miterlimit:4;stroke-dasharray:none;stroke-dashoffset:0;stroke-opacity:1;marker:none;color-rendering:auto;image-rendering:auto;shape-rendering:auto;text-rendering:auto;enable-background:accumulate"
         d="m 265.43693,-179.82652 h 209.55794 c 11.46081,0 20.68738,9.22657 20.68738,20.68738 V 50.418802 c 0,11.460811 -9.22657,20.687384 -20.68738,20.687384 H 265.43693 c -11.46081,0 -20.68739,-9.226573 -20.68739,-20.687384 V -159.13914 c 0,-11.46081 9.22658,-20.68738 20.68739,-20.68738 z"
         id="rect4518" /><g
         style="stroke-width:4.50525761;fill:#3972c1;fill-opacity:1"
         transform="matrix(0.74263664,0,0,0.74263664,51.404355,-0.50986595)"
         id="g4508"><path
           inkscape:connector-curvature="0"
           id="path14"
           style="fill:#ffffff;fill-opacity:1;fill-rule:evenodd;stroke:none;stroke-width:0.45052576"
           d="m 567.273,30.6609 c 0,31.5223 0,63.0446 0,94.6691 7.647,0 14.571,0 21.813,0 0.098,-1.907 0.252,-3.529 0.253,-5.15 0.012,-37.4792 -0.081,-74.9589 0.124,-112.43703 0.023,-4.26914 -1.404,-5.69805 -5.275,-6.54805 -17.043,-3.74687 -28.441,1.20313 -37.199,16.55308 -14.247,24.968 -28.469,49.9508 -42.722,74.9165 -0.858,1.5011 -1.884,2.9062 -3.784,4.082 0,-31.5301 0,-63.0606 0,-95.39142 -7.106,0 -13.708,-0.14414 -20.286,0.18711 -0.801,0.03984 -2.08,2.62695 -2.107,4.0539 -0.19,9.65701 -0.104,19.31991 -0.104,28.98281 0.002,28.4832 0.059,56.9676 -0.057,85.4511 -0.015,3.624 0.712,5.609 4.798,5.736 5.259,0.163 10.598,1.666 15.732,1.086 10.167,-1.15 17.047,-7.538 21.963,-16.246 14.625,-25.9052 29.28,-51.7951 43.93,-77.688 0.48,-0.8481 1.025,-1.659 1.54,-2.4871 0.46,0.0761 0.921,0.1523 1.381,0.23" /><path
           inkscape:connector-curvature="0"
           id="path16"
           style="fill:#ffffff;fill-opacity:1;fill-rule:evenodd;stroke:none;stroke-width:0.45052576"
           d="m 438.59,82.5641 c -6.926,-2.6575 -13.535,-5.1914 -20.74,-7.9551 -2.588,6.3933 -5.022,12.8496 -7.854,19.1269 -0.842,1.868 -2.803,3.2313 -4.252,4.825 -1.375,-1.4902 -3.315,-2.7488 -4.036,-4.5066 -6.928,-16.9016 -13.652,-33.8848 -20.418,-50.8512 -0.278,-0.698 -0.384,-1.464 -0.946,-3.6883 25.072,25.4172 54.615,37.4094 88.717,40.1606 0,-8.0274 0,-15.4484 0,-23.2754 -5.943,-0.7988 -11.779,-1.5832 -18.415,-2.4738 7.233,-17.6453 14.2,-34.641 21.542,-52.55511 -8.25,0 -15.977,-0.26289 -23.65,0.25079 -1.327,0.08828 -2.755,3.3371 -3.587,5.35429 -5.313,12.88283 -10.622,25.77263 -15.584,38.79293 -1.332,3.4942 -2.942,3.5985 -5.998,2.6485 -19.643,-6.1094 -36.612,-16.6285 -50.784,-31.4047 -3.175,-3.3098 -4.503,-8.34806 -6.937,-12.43907 -0.794,-1.33789 -2.36,-3.06992 -3.64,-3.12578 -6.94,-0.30821 -13.901,-0.1461 -21.743,-0.1461 3.366,8.1461 6.425,15.61715 9.536,23.06795 12.329,29.5281 24.85,58.9774 36.941,88.6021 6.366,15.6 18.918,18.325 29.822,12.524 2.907,-1.544 5.12,-4.593 7.288,-7.248 1.214,-1.49 1.732,-3.569 2.482,-5.414 4.061,-9.987 8.094,-19.9828 12.256,-30.2699" /><path
           inkscape:connector-curvature="0"
           id="path18"
           style="fill:#ffffff;fill-opacity:1;fill-rule:evenodd;stroke:none;stroke-width:0.45052576"
           d="m 292.288,100.431 c 0,-7.8212 0.087,-15.6443 -0.047,-23.4638 -0.047,-2.7527 1.024,-4.0684 3.689,-4.0879 6.148,-0.0449 12.384,-0.7148 18.425,0.082 13.065,1.7219 22.593,8.3496 26.206,21.7336 3.843,14.2461 -1.765,26.4341 -14.79,31.2301 -9.729,3.584 -19.847,3.476 -29.993,1.767 -2.877,-0.485 -3.624,-2.017 -3.558,-4.796 0.176,-7.484 0.059,-14.976 0.068,-22.465 z m -0.006,-46.4326 c 0,-10.9433 0.001,-21.7234 -10e-4,-32.5043 0,-5.4953 -0.103,-10.9921 0.037,-16.48199 0.074,-2.84414 -1.047,-3.84102 -3.824,-3.75703 -4.658,0.14101 -9.338,0.26875 -13.98,-0.04219 -4.018,-0.266796 -5.198,1.31211 -5.168,5.1543 0.134,16.98081 0.077,33.96371 0.048,50.94571 -0.046,26.8039 -0.054,53.6081 -0.263,80.4121 -0.035,4.474 1.335,6.441 5.984,7.182 19.513,3.105 38.955,4.949 58.204,-1.282 17.704,-5.732 28.62,-19.01 29.965,-36.061 1.631,-20.6827 -6.999,-37.8878 -23.708,-46.3046 -12.697,-6.3965 -26.154,-9.3176 -40.457,-7.2989 -1.953,0.2762 -3.978,0.0379 -6.837,0.0379" /></g></g></g></svg>