<?xml version="1.0" encoding="UTF-8" standalone="no"?>
<!-- Created with Inkscape (http://www.inkscape.org/) -->

<svg
   xmlns:dc="http://purl.org/dc/elements/1.1/"
   xmlns:cc="http://creativecommons.org/ns#"
   xmlns:rdf="http://www.w3.org/1999/02/22-rdf-syntax-ns#"
   xmlns:svg="http://www.w3.org/2000/svg"
   xmlns="http://www.w3.org/2000/svg"
   xmlns:sodipodi="http://sodipodi.sourceforge.net/DTD/sodipodi-0.dtd"
   xmlns:inkscape="http://www.inkscape.org/namespaces/inkscape"
   id="svg2"
   height="48.0001"
   width="48"
   version="1.1"
   inkscape:version="0.48.3.1 r9886"
   sodipodi:docname="icon-twitter.svg">
  <defs
     id="defs8" />
  <sodipodi:namedview
     pagecolor="#ffffff"
     bordercolor="#666666"
     borderopacity="1"
     objecttolerance="10"
     gridtolerance="10"
     guidetolerance="10"
     inkscape:pageopacity="0"
     inkscape:pageshadow="2"
     inkscape:window-width="1920"
     inkscape:window-height="1023"
     id="namedview6"
     showgrid="false"
     inkscape:zoom="9.833313"
     inkscape:cx="14.90049"
     inkscape:cy="24.009757"
     inkscape:window-x="-10"
     inkscape:window-y="35"
     inkscape:window-maximized="1"
     inkscape:current-layer="svg2" />
  <metadata
     id="metadata7">
    <rdf:RDF>
      <cc:Work
         rdf:about="">
        <dc:format>image/svg+xml</dc:format>
        <dc:type
           rdf:resource="http://purl.org/dc/dcmitype/StillImage" />
        <dc:title />
      </cc:Work>
    </rdf:RDF>
  </metadata>
  <path
     id="path4891"
     d="M 24.00005,-2.5502e-4 C 10.742459,-2.5502e-4 5e-6,10.742249 5e-6,23.99985 c 0,13.257401 10.742454,23.999905 24.000045,23.999905 13.257501,0 23.999955,-10.742504 23.999955,-23.999905 0,-13.257601 -10.742454,-24.00010502 -23.999955,-24.00010502 z m -3.039101,14.00243702 0.170413,0 0.170422,0 0.198854,0 0.227224,0 0.227214,0 0.227223,0 0.284035,0 0.312365,0 0.397637,0 1.675799,0 0.397626,0 0.312385,0 0.255665,0 0.255574,0 0.227224,0 0.198863,0 0.198764,0 0.198853,0 0.170413,0 0,0.0281 0.170413,0 0.170423,0 0.141962,0 0.170413,0 0.142062,0 0.141963,0 0.113612,0 0.142052,0 0.113612,0 0.141962,0 0,0.0281 0.113612,0 0.142063,0 0.113602,0 0.113612,0 0.0854,0 0.113612,0 0.113611,0 0.0854,0 0.113612,0 0,0.0281 0.0854,0 0.113612,0 0.0854,0 0.0854,0 0.0854,0 0.113612,0 0.0854,0 0.0854,0 0.0854,0 0,0.0281 0.0854,0 0.0854,0 0.0564,0 0.0854,0 0.0854,0 0.0854,0 0.0854,0 0.0564,0 0.0854,0 0.0564,0 0,0.0281 0.0854,0 0.0564,0 0.0854,0 0.0564,0 0.0854,0 0.0564,0 0.0564,0 0.0854,0 0.0564,0 0,0.0281 0.0563,0 0.0564,0 0.0564,0 0.0854,0 0.0563,0 0.0564,0 0.0564,0 0.0564,0 0.0564,0 0.0564,0 0,0.0281 0.0564,0 0.0564,0 0.0564,0 0.0564,0 0.0564,0 0.0282,0 0.0854,0 0.0282,0 0.0564,0 0,0.0281 0.0564,0 0.0564,0 0.0282,0 0.0564,0 0.0564,0 0.0564,0 0.0282,0 0.0564,0 0.0564,0 0.0282,0 0.0564,0 0.0282,0 0,0.0281 0.0564,0 0.0282,0 0.0564,0 0.0282,0 0.0564,0 0.0564,0 0.0282,0 0.0282,0 0.0564,0 0.0282,0 0,0.0281 0.0564,0 0.0282,0 0.0564,0 0.0282,0 0.0282,0 0.0282,0 0.0282,0 0.0282,0 0.0282,0 0,0.0281 0.0282,0 0.0282,0 0.0282,0 0.0282,0 0.0282,0 0.0282,0 0.0282,0 0.0282,0 0.0282,0 0.0282,0 0,0.0281 0.0282,0 0.0282,0 0.0282,0 0.0282,0 0.0282,0 0.0282,0 0.0282,0 0,0.0281 0.0282,0 0.0282,0 0.0282,0 0.0282,0 0.0282,0 0.0282,0 0,0.0281 0.0282,0 0.0282,0 0.0282,0 0.0282,0 0.0282,0 0,0.0281 0.0282,0 0.0282,0 0.0282,0 0.0282,0 0,0.0281 0.0282,0 0.0282,0 0.0282,0 0,0.0281 0.0282,0 0.0282,0 0.0282,0 0.0282,0 0.0282,0 0,0.0281 0.0282,0 0.0282,0 0.0282,0 0,0.0281 0.0282,0 0.0282,0 0.0282,0 0,0.0281 0.0282,0 0.0282,0 0,0.0281 0.0282,0 0.0282,0 0.0282,0 0,0.0281 0.0282,0 0.0282,0 0,0.0281 0.0282,0 0.0282,0 0,0.0281 0.0282,0 0.0282,0 0,0.0281 0.0282,0 0.0282,0 0.0282,0 0,0.0281 0.0282,0 0,0.0281 0.0282,0 0.0282,0 0,0.0281 0.0282,0 0.0282,0 0,0.0281 0.0282,0 0.0282,0 0,0.0281 0.0282,0 0.0282,0 0,0.0281 0.0282,0 0,0.0281 0.0282,0 0.0282,0 0,0.0281 0.0282,0 0,0.0281 0.0282,0 0.0282,0 0,0.0281 0.0282,0 0,0.0281 0.0282,0 0,0.0281 0.0282,0 0.0282,0 0,0.0281 0.0282,0 0,0.0281 0.0282,0 0,0.0281 0.0282,0 0,0.0281 0.0282,0 0.0282,0 0,0.0281 0.0282,0 0,0.0281 0.0282,0 0,0.0281 0.0282,0 0,0.0281 0.0282,0 0,0.0281 0.0282,0 0,0.0281 0.0282,0 0,0.0281 0.0282,0 0,0.0281 0.0282,0 0,0.0281 0.0282,0 0,0.0281 0.0282,0 0,0.0281 0.0282,0 0,0.0281 0.0282,0 0,0.0281 0.0282,0 0,0.0281 0.0282,0 0,0.0281 0.0282,0 0,0.0281 0.0282,0 0,0.0281 0,0.0281 0.0282,0 0,0.0281 0.0282,0 0,0.0281 0.0282,0 0,0.0281 0.0282,0 0,0.0281 0,0.0281 0.0282,0 0,0.0281 0.0282,0 0,0.0281 0,0.0281 0.0282,0 0,0.0281 0.0282,0 0,0.0281 0,0.0281 0.0282,0 0,0.0281 0.0282,0 0,0.0281 0.0282,0 0,0.0281 0,0.0281 0.0282,0 0,0.0281 0,0.0281 0.0282,0 0,0.0281 0,0.0281 0.0282,0 0,0.0281 0,0.0281 0.0282,0 0,0.0281 0,0.0281 0.0282,0 0,0.0281 0,0.0281 0.0282,0 0,0.0281 0,0.0281 0.0282,0 0,0.0281 0,0.0281 0.0282,0 0,0.0281 0,0.0281 0.0282,0 0,0.0281 0,0.0281 0,0.0281 0.0282,0 0,0.0281 0,0.0281 0.0282,0 0,0.0281 0,0.0281 0,0.0281 0.0282,0 0,0.0281 0,0.0281 0.0282,0 0,0.0281 0,0.0281 0,0.0281 0.0282,0 0,0.0281 0,0.0281 0,0.0281 0.0282,0 0,0.0281 0,0.0281 0,0.0281 0.0282,0 0,0.0281 0,0.0281 0,0.0281 0,0.0281 0.0282,0 0,0.0281 0,0.0281 0,0.0281 0.0282,0 0,0.0281 0,0.0281 0,0.0281 0,0.0281 0.0282,0 0,0.0281 0,0.0281 0,0.0281 0.0282,0 0,0.0281 0,0.0281 0,0.0281 0,0.0281 0.0282,0 0,0.0281 0,0.0281 0,0.0281 0,0.0281 0.0282,0 0,0.0281 0,0.0281 0,0.0281 0,0.0281 0,0.0281 0.0282,0 0,0.0281 0,0.0281 0,0.0281 0,0.0281 0,0.0281 0.0282,0 0,0.0281 0,0.0281 0,0.0281 0,0.0281 0,0.0281 0.0282,0 0,0.0281 0,0.0281 0,0.0281 0,0.0281 0,0.0281 0,0.0281 0,0.0281 0.0282,0 0,0.0281 0,0.0281 0,0.0281 0,0.0281 0,0.0281 0,0.0281 0,0.0281 0,0.0281 0,0.0281 0.0282,0 0,0.0281 0,0.0281 0,0.0281 0,0.0281 0,0.0281 0,0.0281 0,0.0281 0,0.0281 0,0.0281 0,0.0281 0.0282,0 0,0.0281 0,0.0281 0,0.0281 0,0.0281 0,0.0281 0,0.0281 0,0.0572 0,0.0281 0,0.0281 0.0282,0 0,0.0281 0,0.0281 0,0.0281 0,0.0281 0,0.0281 0,0.0281 0,0.0281 0,0.0281 0,0.0281 0,0.0281 0.0282,0 0,0.0281 0,0.0562 0,0.0281 0,0.0281 0,0.0281 0,0.0281 0,0.0281 0,0.0281 0,0.0562 0,0.0281 0,0.0281 0.0282,0 0,0.0281 0,0.0572 0,0.0281 0,0.0281 0,0.0281 0,0.0562 0,0.0281 0,0.0281 0,0.0562 0,0.0281 0.0282,0 0,0.0281 0,0.0562 0,0.0281 0,0.0281 0,0.0562 0,0.0281 0,0.0572 0,0.0281 0,0.0562 0,0.0281 0,0.0562 0.0282,0 0,0.0281 0,0.0562 0,0.0562 0,0.0281 0,0.0562 0,0.0572 0,0.0281 0,0.0562 0,0.0562 0,0.0562 0.0282,0 0,0.0562 0,0.0562 0,0.0562 0,0.0562 0,0.0562 0,0.0853 0,0.0562 0,0.0572 0,0.0853 0,0.0853 0,0.0572 0.0282,0 0,0.113602 0,0.0853 0,0.113601 0,0.113602 0,0.142103 0,3.152553 0,0.170503 0,0.113602 0,0.113602 0,0.0853 0,0.0853 -0.0282,0 0,0.0853 0,0.0853 0,0.0562 0,0.0853 0,0.0572 0,0.0562 0,0.0572 0,0.0853 0,0.0562 0,0.0562 0,0.0562 -0.0282,0 0,0.0281 0,0.0572 0,0.0562 0,0.0572 0,0.0562 0,0.0281 0,0.0562 0,0.0562 0,0.0281 0,0.0562 -0.0282,0 0,0.0281 0,0.0562 0,0.0281 0,0.0572 0,0.0281 0,0.0562 0,0.0281 0,0.0562 0,0.0281 0,0.0281 0,0.0562 -0.0282,0 0,0.0281 0,0.0281 0,0.0562 0,0.0281 0,0.0281 0,0.0281 0,0.0562 0,0.0281 0,0.0281 0,0.0281 -0.0282,0 0,0.0572 0,0.0281 0,0.0281 0,0.0281 0,0.0281 0,0.0562 0,0.0281 0,0.0281 0,0.0281 0,0.0281 0,0.0281 -0.0282,0 0,0.0281 0,0.0281 0,0.0562 0,0.0281 0,0.0281 0,0.0281 0,0.0281 0,0.0281 0,0.0281 0,0.0281 -0.0282,0 0,0.0281 0,0.0281 0,0.0281 0,0.0281 0,0.0281 0,0.0281 0,0.0281 0,0.0281 0,0.0281 0,0.0281 -0.0282,0 0,0.0281 0,0.0281 0,0.0281 0,0.0281 0,0.0281 0,0.0281 0,0.0281 0,0.0281 0,0.0281 0,0.0281 -0.0282,0 0,0.0281 0,0.0281 0,0.0281 0,0.0281 0,0.0281 0,0.0281 0,0.0281 0,0.0281 0,0.0281 -0.0282,0 0,0.0281 0,0.0281 0,0.0281 0,0.0281 0,0.0281 0,0.0281 -0.0282,0 0,0.0281 0,0.0281 0,0.0281 0,0.0281 0,0.0281 0,0.0281 -0.0282,0 0,0.0281 0,0.0281 0,0.0281 0,0.0281 -0.0282,0 0,0.0281 0,0.0281 0,0.0281 0,0.0281 0,0.0281 -0.0282,0 0,0.0281 0,0.0281 0,0.0281 0,0.0281 -0.0282,0 0,0.0281 0,0.0281 0,0.0281 0,0.0281 -0.0282,0 0,0.0281 0,0.0281 0,0.0281 0,0.0281 -0.0282,0 0,0.0281 0,0.0281 0,0.0281 0,0.0281 -0.0282,0 0,0.0281 0,0.0281 0,0.0281 -0.0282,0 0,0.0281 0,0.0281 0,0.0281 -0.0282,0 0,0.0281 0,0.0281 0,0.0281 0,0.0281 -0.0282,0 0,0.0281 0,0.0281 -0.0282,0 0,0.0281 0,0.0281 0,0.0281 -0.0282,0 0,0.0281 0,0.0281 0,0.0281 -0.0282,0 0,0.0281 0,0.0281 -0.0282,0 0,0.0281 0,0.0281 0,0.0281 -0.0282,0 0,0.0281 0,0.0281 -0.0282,0 0,0.0281 0,0.0281 0,0.0281 -0.0282,0 0,0.0281 0,0.0281 -0.0282,0 0,0.0281 0,0.0281 -0.0282,0 0,0.0281 0,0.0281 -0.0282,0 0,0.0281 0,0.0281 -0.0282,0 0,0.0281 0,0.0281 -0.0282,0 0,0.0281 0,0.0281 -0.0282,0 0,0.0281 0,0.0281 -0.0282,0 0,0.0281 -0.0282,0 0,0.0281 0,0.0281 -0.0282,0 0,0.0281 -0.0282,0 0,0.0281 -0.0282,0 0,0.0281 0,0.0281 -0.0282,0 0,0.0281 0,0.0281 -0.0282,0 0,0.0281 -0.0282,0 0,0.0281 -0.0282,0 0,0.0281 0,0.0281 -0.0282,0 0,0.0281 -0.0282,0 0,0.0281 -0.0282,0 0,0.0281 -0.0282,0 0,0.0281 0,0.0281 -0.0282,0 0,0.0281 -0.0282,0 0,0.0281 -0.0282,0 0,0.0281 -0.0282,0 0,0.0281 -0.0282,0 0,0.0281 -0.0282,0 0,0.0281 -0.0282,0 0,0.0281 -0.0282,0 0,0.0281 -0.0282,0 0,0.0281 -0.0282,0 0,0.0281 -0.0282,0 0,0.0281 -0.0282,0 0,0.0281 -0.0282,0 -0.0282,0 0,0.0281 -0.0282,0 0,0.0281 -0.0282,0 0,0.0281 -0.0282,0 0,0.0281 -0.0282,0 0,0.0281 -0.0282,0 0,0.0281 -0.0282,0 -0.0282,0 0,0.0281 -0.0282,0 0,0.0281 -0.0282,0 0,0.0281 -0.0282,0 -0.0282,0 0,0.0281 -0.0282,0 0,0.0281 -0.0282,0 -0.0282,0 0,0.0281 -0.0282,0 0,0.0281 -0.0282,0 -0.0282,0 0,0.0281 -0.0282,0 -0.0282,0 0,0.0281 -0.0282,0 0,0.0281 -0.0282,0 -0.0282,0 0,0.0281 -0.0282,0 -0.0282,0 0,0.0281 -0.0282,0 -0.0282,0 -0.0282,0 0,0.0281 -0.0282,0 -0.0282,0 0,0.0281 -0.0282,0 -0.0282,0 0,0.0281 -0.0282,0 -0.0282,0 0,0.0281 -0.0282,0 -0.0282,0 0,0.0281 -0.0282,0 -0.0282,0 0,0.0281 -0.0282,0 -0.0282,0 -0.0282,0 0,0.0281 -0.0282,0 -0.0282,0 -0.0282,0 0,0.0281 -0.0282,0 -0.0282,0 -0.0282,0 -0.0282,0 0,0.0281 -0.0282,0 -0.0282,0 -0.0282,0 0,0.0281 -0.0282,0 -0.0282,0 -0.0282,0 -0.0282,0 0,0.0281 -0.0282,0 -0.0282,0 -0.0282,0 -0.0282,0 -0.0282,0 0,0.0281 -0.0282,0 -0.0282,0 -0.0282,0 -0.0282,0 -0.0282,0 0,0.0281 -0.0282,0 -0.0282,0 -0.0282,0 -0.0282,0 -0.0282,0 -0.0282,0 -0.0282,0 0,0.0281 -0.0282,0 -0.0282,0 -0.0282,0 -0.0282,0 -0.0282,0 -0.0282,0 -0.0282,0 -0.0282,0 0,0.0281 -0.0282,0 -0.0282,0 -0.0564,0 -0.0282,0 -0.0282,0 -0.0282,0 -0.0282,0 0,0.0281 -0.0282,0 -0.0282,0 -0.0564,0 -0.0282,0 -0.0564,0 -0.0282,0 -0.0282,0 -0.0564,0 -0.0282,0 -0.0564,0 -0.0282,0 -0.0564,0 -0.0282,0 0,0.0281 -0.0564,0 -0.0282,0 -0.0564,0 -0.0282,0 -0.0564,0 -0.0564,0 -0.0282,0 -0.0564,0 -0.0564,0 0,0.0281 -0.0282,0 -0.0564,0 -0.0282,0 -0.0564,0 -0.0564,0 -0.0564,0 -0.0564,0 -0.0564,0 -0.0282,0 -0.0564,0 0,0.0281 -0.0564,0 -0.0564,0 -0.0564,0 -0.0564,0 -0.0564,0 -0.0564,0 -0.0564,0 -0.0564,0 -0.0564,0 0,0.0281 -0.0564,0 -0.0564,0 -0.0564,0 -0.0564,0 -0.0564,0 -0.0564,0 -0.0854,0 -0.0564,0 -0.0564,0 0,0.0281 -0.0564,0 -0.0854,0 -0.0564,0 -0.0564,0 -0.0854,0 -0.0564,0 -0.0854,0 -0.0564,0 -0.0854,0 -0.0564,0 0,0.0281 -0.0854,0 -0.0854,0 -0.0854,0 -0.0564,0 -0.0854,0 -0.0854,0 -0.0854,0 -0.0854,0 -0.0854,0 0,0.0281 -0.0854,0 -0.0854,0 -0.0854,0 -0.0854,0 -0.0854,0 -0.0854,0 -0.113602,0 -0.0854,0 -0.113602,0 0,0.0281 -0.0854,0 -0.113602,0 -0.0854,0 -0.113602,0 -0.113612,0 -0.113612,0 -0.113611,0 -0.113602,0 -0.113612,0 -0.142063,0 0,0.0281 -0.113602,0 -0.141972,0 -0.113612,0 -0.142052,0 -0.141963,0 -0.142062,0 -0.141963,0 -0.170412,0 -0.170423,0 -0.170413,0 -0.170413,0 -0.198864,0 0,0.0281 -0.198763,0 -0.198863,0 -0.227224,0 -0.227214,0 -0.284025,0 -0.312385,0 -0.369276,0 -0.852065,0 -0.255584,0 -0.227214,0 -0.227223,0 -0.227214,0 -0.198864,0 -0.198773,0 -0.198853,0 -0.170413,0 0,-0.0281 -0.198774,0 -0.170412,0 -0.170413,0 -0.170413,0 -0.142053,0 -0.170423,0 -0.141962,0 -0.170413,0 -0.142062,0 -0.141962,0 -0.142053,0 -0.141972,0 0,-0.0281 -0.142053,0 -0.141972,0 -0.113602,0 -0.142063,0 -0.113611,0 -0.113602,0 -0.141973,0 -0.113612,0 -0.113601,0 -0.113612,0 0,-0.0281 -0.113612,0 -0.113612,0 -0.113602,0 -0.113612,0 -0.0854,0 -0.113612,0 -0.0854,0 -0.113612,0 -0.0854,0 0,-0.0281 -0.113612,0 -0.0854,0 -0.0854,0 -0.0854,0 -0.0854,0 -0.113612,0 -0.0854,0 -0.0854,0 -0.0564,0 0,-0.0281 -0.0854,0 -0.0854,0 -0.0854,0 -0.0854,0 -0.0564,0 -0.0854,0 -0.0854,0 -0.0564,0 -0.0854,0 -0.0563,0 0,-0.0281 -0.0854,0 -0.0564,0 -0.0854,0 -0.0564,0 -0.0564,0 -0.0564,0 -0.0854,0 -0.0564,0 -0.0564,0 0,-0.0281 -0.0564,0 -0.0564,0 -0.0564,0 -0.0564,0 -0.0564,0 -0.0564,0 -0.0282,0 -0.0564,0 -0.0564,0 -0.0564,0 0,-0.0281 -0.0564,0 -0.0282,0 -0.0564,0 -0.0564,0 -0.0282,0 -0.0564,0 -0.0282,0 -0.0564,0 -0.0282,0 0,-0.0281 -0.0564,0 -0.0282,0 -0.0282,0 -0.0564,0 -0.0282,0 -0.0282,0 -0.0564,0 -0.0282,0 -0.0282,0 0,-0.0281 -0.0564,0 -0.0282,0 -0.0282,0 -0.0282,0 -0.0282,0 -0.0282,0 -0.0282,0 -0.0282,0 -0.0282,0 -0.0282,0 -0.0282,0 0,-0.0281 -0.0282,0 -0.0282,0 -0.0282,0 -0.0282,0 -0.0282,0 -0.0282,0 0,-0.0281 -0.0282,0 -0.0282,0 -0.0282,0 -0.0282,0 -0.0282,0 -0.0282,0 -0.0282,0 -0.0282,0 0,-0.0281 -0.0282,0 -0.0282,0 -0.0282,0 -0.0282,0 -0.0282,0 -0.0282,0 -0.0282,0 0,-0.0281 -0.0282,0 -0.0282,0 -0.0282,0 -0.0282,0 -0.0282,0 -0.0282,0 0,-0.0281 -0.0282,0 -0.0282,0 -0.0282,0 -0.0282,0 -0.0282,0 0,-0.0281 -0.0282,0 -0.0282,0 -0.0282,0 -0.0282,0 -0.0282,0 0,-0.0281 -0.0282,0 -0.0282,0 -0.0282,0 -0.0282,0 0,-0.0281 -0.0282,0 -0.0282,0 -0.0282,0 -0.0282,0 -0.0282,0 0,-0.0281 -0.0282,0 -0.0282,0 -0.0282,0 0,-0.0281 -0.0282,0 -0.0282,0 -0.0282,0 -0.0282,0 0,-0.0281 -0.0282,0 -0.0282,0 0,-0.0281 -0.0282,0 -0.0282,0 -0.0282,0 0,-0.0281 -0.0282,0 -0.0282,0 -0.0282,0 0,-0.0281 -0.0282,0 -0.0282,0 0,-0.0281 -0.0282,0 -0.0282,0 0,-0.0281 -0.0282,0 -0.0282,0 -0.0282,0 0,-0.0281 -0.0282,0 -0.0282,0 0,-0.0281 -0.0282,0 -0.0282,0 0,-0.0281 -0.0282,0 -0.0282,0 0,-0.0281 -0.0282,0 -0.0282,0 0,-0.0281 -0.0282,0 0,-0.0281 -0.0282,0 -0.0282,0 0,-0.0281 -0.0282,0 -0.0282,0 0,-0.0281 -0.0282,0 -0.0282,0 0,-0.0281 -0.0282,0 0,-0.0281 -0.0282,0 -0.0282,0 0,-0.0281 -0.0282,0 0,-0.0281 -0.0282,0 -0.0282,0 0,-0.0281 -0.0282,0 0,-0.0281 -0.0282,0 0,-0.0281 -0.0282,0 0,-0.0281 -0.0282,0 -0.0282,0 0,-0.0281 -0.0282,0 0,-0.0281 -0.0282,0 0,-0.0281 -0.0282,0 0,-0.0281 -0.0282,0 0,-0.0281 -0.0282,0 0,-0.0281 -0.0282,0 0,-0.0281 -0.0282,0 0,-0.0281 -0.0282,0 0,-0.0281 -0.0282,0 0,-0.0281 -0.0282,0 0,-0.0281 -0.0282,0 0,-0.0281 -0.0282,0 0,-0.0281 -0.0282,0 0,-0.0281 -0.0282,0 0,-0.0281 -0.0282,0 0,-0.0281 -0.0282,0 0,-0.0281 0,-0.0281 -0.0282,0 0,-0.0281 -0.0282,0 0,-0.0281 -0.0282,0 0,-0.0281 -0.0282,0 0,-0.0281 0,-0.0281 -0.0282,0 0,-0.0281 -0.0282,0 0,-0.0281 0,-0.0281 -0.0282,0 0,-0.0281 0,-0.0281 -0.0282,0 0,-0.0281 -0.0282,0 0,-0.0281 0,-0.0281 -0.0282,0 0,-0.0281 -0.0282,0 0,-0.0281 0,-0.0281 -0.0282,0 0,-0.0281 0,-0.0281 -0.0282,0 0,-0.0281 0,-0.0281 -0.0282,0 0,-0.0281 0,-0.0281 -0.0282,0 0,-0.0281 0,-0.0281 -0.0282,0 0,-0.0281 0,-0.0281 -0.0282,0 0,-0.0281 -0.0282,0 0,-0.0281 0,-0.0281 -0.0282,0 0,-0.0281 0,-0.0281 0,-0.0281 -0.0282,0 0,-0.0281 0,-0.0281 -0.0282,0 0,-0.0281 0,-0.0281 0,-0.0281 -0.0282,0 0,-0.0281 0,-0.0281 0,-0.0281 -0.0282,0 0,-0.0281 0,-0.0281 -0.0282,0 0,-0.0281 0,-0.0281 0,-0.0281 -0.0282,0 0,-0.0281 0,-0.0281 0,-0.0281 -0.0282,0 0,-0.0281 0,-0.0281 0,-0.0281 -0.0282,0 0,-0.0281 0,-0.0281 0,-0.0281 0,-0.0281 -0.0282,0 0,-0.0281 0,-0.0281 0,-0.0281 0,-0.0281 -0.0282,0 0,-0.0281 0,-0.0281 0,-0.0281 -0.0282,0 0,-0.0281 0,-0.0281 0,-0.0281 0,-0.0281 -0.0282,0 0,-0.0281 0,-0.0281 0,-0.0281 0,-0.0281 -0.0282,0 0,-0.0281 0,-0.0281 0,-0.0281 0,-0.0281 0,-0.0281 -0.0282,0 0,-0.0281 0,-0.0281 0,-0.0281 0,-0.0281 -0.0282,0 0,-0.0281 0,-0.0281 0,-0.0281 0,-0.0281 0,-0.0281 0,-0.0281 -0.0282,0 0,-0.0281 0,-0.0281 0,-0.0281 0,-0.0281 0,-0.0281 -0.0282,0 0,-0.0281 0,-0.0281 0,-0.0281 0,-0.0281 0,-0.0281 0,-0.0281 0,-0.0281 0,-0.0281 -0.0282,0 0,-0.0281 0,-0.0281 0,-0.0281 0,-0.0281 0,-0.0281 0,-0.0281 0,-0.0281 0,-0.0281 0,-0.0281 0,-0.0281 -0.0282,0 0,-0.0281 0,-0.0281 0,-0.0281 0,-0.0281 0,-0.0281 0,-0.0281 0,-0.0281 0,-0.0281 0,-0.0281 0,-0.0281 -0.0282,0 0,-0.0281 0,-0.0281 0,-0.0281 0,-0.0281 0,-0.0281 0,-0.0281 0,-0.0281 0,-0.0281 0,-0.0281 0,-0.0281 0,-0.0281 -0.0282,0 0,-0.0281 0,-0.0281 0,-0.0281 0,-0.0572 0,-0.0281 0,-0.0281 0,-0.0281 0,-0.0281 0,-0.0281 0,-0.0281 -0.0282,0 0,-0.0281 0,-0.0281 0,-0.0562 0,-0.0281 0,-0.0281 0,-0.0562 0,-0.0281 0,-0.0281 0,-0.0281 0,-0.0281 -0.028199,0 0,-0.0572 0,-0.0281 0,-0.0281 0,-0.0572 0,-0.0281 0,-0.0281 0,-0.0572 0,-0.0281 0,-0.0281 0,-0.0572 0,-0.0281 -0.0282,0 0,-0.0562 0,-0.0281 0,-0.0562 0,-0.0281 0,-0.0562 0,-0.0562 0,-0.0281 0,-0.0562 0,-0.0281 0,-0.0562 -0.0282,0 0,-0.0562 0,-0.0562 0,-0.0562 0,-0.0281 0,-0.0562 0,-0.0572 0,-0.0562 0,-0.0572 0,-0.0562 0,-0.0853 0,-0.0562 -0.0282,0 0,-0.0562 0,-0.0853 0,-0.0853 0,-0.0562 0,-0.0853 0,-0.113702 0,-0.0853 0,-0.142002 0,-0.113702 0,-0.170303 -0.0282,0 0,-2.95385 0.0282,0 0,-0.170503 0,-0.141902 0,-0.113602 0,-0.113601 0,-0.0853 0,-0.0853 0,-0.0853 0,-0.0853 0,-0.0562 0,-0.0853 0.0282,0 0,-0.0572 0,-0.0562 0,-0.0572 0,-0.0562 0,-0.0572 0,-0.0562 0,-0.0572 0,-0.0562 0,-0.0572 0,-0.0562 0,-0.0281 0.0282,0 0,-0.0562 0,-0.0562 0,-0.0281 0,-0.0562 0,-0.0572 0,-0.0281 0,-0.0562 0,-0.0281 0,-0.0562 0,-0.0281 0.0282,0 0,-0.0562 0,-0.0281 0,-0.0281 0,-0.0562 0,-0.0281 0,-0.0572 0,-0.0281 0,-0.0281 0,-0.0572 0,-0.0281 0,-0.0281 0.028199,0 0,-0.0281 0,-0.0562 0,-0.0281 0,-0.0281 0,-0.0281 0,-0.0562 0,-0.0281 0,-0.0281 0,-0.0281 0,-0.0281 0.0282,0 0,-0.0281 0,-0.0281 0,-0.0562 0,-0.0281 0,-0.0281 0,-0.0281 0,-0.0281 0,-0.0281 0,-0.0281 0,-0.0281 0.0282,0 0,-0.0281 0,-0.0281 0,-0.0562 0,-0.0281 0,-0.0281 0,-0.0281 0,-0.0281 0,-0.0281 0,-0.0281 0,-0.0281 0,-0.0281 0.0282,0 0,-0.0281 0,-0.0281 0,-0.0281 0,-0.0281 0,-0.0281 0,-0.0281 0,-0.0281 0,-0.0281 0,-0.0281 0,-0.0281 0.0282,0 0,-0.0281 0,-0.0281 0,-0.0281 0,-0.0281 0,-0.0281 0,-0.0281 0,-0.0281 0,-0.0281 0,-0.0281 0.0282,0 0,-0.0281 0,-0.0281 0,-0.0281 0,-0.0281 0,-0.0281 0,-0.0281 0,-0.0281 0,-0.0281 0.0282,0 0,-0.0281 0,-0.0281 0,-0.0281 0,-0.0281 0,-0.0281 0,-0.0281 0.0282,0 0,-0.0281 0,-0.0281 0,-0.0281 0,-0.0281 0,-0.0281 0.0282,0 0,-0.0281 0,-0.0281 0,-0.0281 0,-0.0281 0,-0.0281 0.0282,0 0,-0.0281 0,-0.0281 0,-0.0281 0,-0.0281 0.0282,0 0,-0.0281 0,-0.0281 0,-0.0281 0,-0.0281 0.0282,0 0,-0.0281 0,-0.0281 0,-0.0281 0,-0.0281 0,-0.0281 0.0282,0 0,-0.0281 0,-0.0281 0,-0.0281 0.0282,0 0,-0.0281 0,-0.0281 0,-0.0281 0,-0.0281 0.0282,0 0,-0.0281 0,-0.0281 0,-0.0281 0.0282,0 0,-0.0281 0,-0.0281 0,-0.0281 0.0282,0 0,-0.0281 0,-0.0281 0,-0.0281 0.0282,0 0,-0.0281 0,-0.0281 0,-0.0281 0.0282,0 0,-0.0281 0,-0.0281 0,-0.0281 0.0282,0 0,-0.0281 0,-0.0281 0.0282,0 0,-0.0281 0,-0.0281 0,-0.0281 0.0282,0 0,-0.0281 0,-0.0281 0,-0.0281 0.0282,0 0,-0.0281 0,-0.0281 0.0282,0 0,-0.0281 0,-0.0281 0,-0.0281 0.0282,0 0,-0.0281 0.0282,0 0,-0.0281 0,-0.0281 0.0282,0 0,-0.0281 0,-0.0281 0.0282,0 0,-0.0281 0,-0.0281 0.0282,0 0,-0.0281 0,-0.0281 0.0282,0 0,-0.0281 0,-0.0281 0.0282,0 0,-0.0281 0.0282,0 0,-0.0281 0,-0.0281 0.0282,0 0,-0.0281 0,-0.0281 0.0282,0 0,-0.0281 0.0282,0 0,-0.0281 0,-0.0281 0.0282,0 0,-0.0281 0.0282,0 0,-0.0281 0,-0.0281 0.0282,0 0,-0.0281 0.0282,0 0,-0.0281 0,-0.0281 0.0282,0 0,-0.0281 0.0282,0 0,-0.0281 0.0282,0 0,-0.0281 0.0282,0 0,-0.0281 0.0282,0 0,-0.0281 0,-0.0281 0.0282,0 0,-0.0281 0.0282,0 0,-0.0281 0.0282,0 0,-0.0281 0.0282,0 0,-0.0281 0.0282,0 0,-0.0281 0.0282,0 0,-0.0281 0.0282,0 0,-0.0281 0.0282,0 0,-0.0281 0.0282,0 0,-0.0281 0.0282,0 0,-0.0281 0.0282,0 0,-0.0281 0.0282,0 0,-0.0281 0.0282,0 0.0282,0 0,-0.0281 0.0282,0 0,-0.0281 0.0282,0 0,-0.0281 0.0282,0 0,-0.0281 0.0282,0 0,-0.0281 0.0282,0 0,-0.0281 0.0282,0 0.0282,0 0,-0.0281 0.0282,0 0,-0.0281 0.0282,0 0.0282,0 0,-0.0281 0.0282,0 0,-0.0281 0.0282,0 0.0282,0 0,-0.0281 0.0282,0 0,-0.0281 0.0282,0 0.0282,0 0,-0.0281 0.0282,0 0,-0.0281 0.0282,0 0.0282,0 0,-0.0281 0.0282,0 0.0282,0 0,-0.0281 0.0282,0 0,-0.0281 0.0282,0 0.0282,0 0,-0.0281 0.0282,0 0.0282,0 0.0282,0 0,-0.0281 0.0282,0 0.0282,0 0,-0.0281 0.0282,0 0.0282,0 0,-0.0281 0.0282,0 0.0282,0 0,-0.0281 0.0282,0 0.0282,0 0.0282,0 0,-0.0281 0.0282,0 0.0282,0 0,-0.0281 0.0282,0 0.0282,0 0.0282,0 0,-0.0281 0.0282,0 0.0282,0 0.0282,0 0,-0.0281 0.0282,0 0.0282,0 0.0282,0 0.0282,0 0,-0.0281 0.0282,0 0.0282,0 0.0282,0 0.0282,0 0,-0.0281 0.0282,0 0.0282,0 0.0282,0 0.0282,0 0,-0.0281 0.0282,0 0.0282,0 0.0282,0 0.0282,0 0.0282,0 0,-0.0281 0.0282,0 0.0282,0 0.0282,0 0.0282,0 0.0282,0 0,-0.0281 0.0282,0 0.0282,0 0.0282,0 0.0282,0 0.0282,0 0.0282,0 0,-0.0281 0.0282,0 0.0282,0 0.0282,0 0.0282,0 0.0282,0 0.0282,0 0.0282,0 0.0282,0 0.0282,0 0.0282,0 0,-0.0281 0.0282,0 0.0282,0 0.0282,0 0.0282,0 0.0282,0 0.0282,0 0.0564,0 0.0282,0 0,-0.0281 0.0282,0 0.0564,0 0.0282,0 0.0564,0 0.0282,0 0.0564,0 0.0282,0 0.0564,0 0.0282,0 0.0564,0 0.0282,0 0.0564,0 0.0282,0 0,-0.0281 0.0564,0 0.0282,0 0.0564,0 0.0564,0 0.0564,0 0.0282,0 0.0564,0 0.0564,0 0.0282,0 0,-0.0281 0.0564,0 0.0564,0 0.0564,0 0.0564,0 0.0282,0 0.0564,0 0.0564,0 0.0564,0 0.0564,0 0,-0.0281 0.0564,0 0.0564,0 0.0564,0 0.0564,0 0.0564,0 0.0564,0 0.0564,0 0.0564,0 0.0564,0 0.0564,0 0,-0.0281 0.0564,0 0.0854,0 0.0564,0 0.0564,0 0.0564,0 0.0854,0 0.0564,0 0.0564,0 0.0854,0 0,-0.0281 0.0563,0 0.0854,0 0.0854,0 0.0564,0 0.0854,0 0.0564,0 0.0854,0 0.0854,0 0.0564,0 0,-0.0281 0.0854,0 0.0854,0 0.0854,0 0.0854,0 0.0854,0 0.0854,0 0.0854,0 0.0854,0 0.0854,0 0.113612,0 0,-0.0281 0.0854,0 0.0854,0 0.113601,0 0.0854,0 0.113602,0 0.0854,0 0.141962,0 0.0854,0 0.113612,0 0,-0.0281 0.113612,0 0.142052,0 0.113612,0 0.113612,0 0.141962,0 0.113612,0 0.142053,0 0.141972,0 0.142053,0 0.141972,0 0.170413,0 0.142052,0 0.198774,0 0,-0.0281 z m 0.113612,5.311189 0,7.640229 0,0.710012 0.0282,0 0,-0.0281 0.0282,0 0.0282,0 0,-0.0281 0.0282,0 0.0282,0 0,-0.0281 0.0282,0 0.0282,0 0,-0.0281 0.0282,0 0,-0.0281 0.0282,0 0.0282,0 0.0282,0 0,-0.0281 0.0282,0 0.0282,0 0,-0.0281 0.0282,0 0,-0.0281 0.0282,0 0.0282,0 0,-0.0281 0.0282,0 0.0282,0 0,-0.0281 0.0282,0 0.0282,0 0,-0.0281 0.0282,0 0.0282,0 0,-0.0281 0.0282,0 0,-0.0281 0.0282,0 0.0282,0 0,-0.0281 0.0282,0 0.0282,0 0,-0.0281 0.0282,0 0.0282,0 0,-0.0281 0.0282,0 0.0282,0 0,-0.0281 0.0282,0 0.0282,0 0,-0.0281 0.0282,0 0.0282,0 0,-0.0281 0.0282,0 0,-0.0281 0.0282,0 0.0282,0 0,-0.0281 0.0282,0 0.0282,0 0,-0.0281 0.0282,0 0.0282,0 0,-0.0281 0.0282,0 0.0282,0 0,-0.0281 0.0282,0 0.0282,0 0,-0.0281 0.0282,0 0.0282,0 0,-0.0281 0.0282,0 0.0282,0 0,-0.0281 0.0282,0 0,-0.0281 0.0282,0 0.0282,0 0,-0.0281 0.0282,0 0.0282,0 0,-0.0281 0.0282,0 0.0282,0 0,-0.0281 0.0282,0 0.0282,0 0,-0.0281 0.0282,0 0.0282,0 0,-0.0281 0.0282,0 0.0282,0 0,-0.0281 0.0282,0 0,-0.0281 0.0282,0 0.0282,0 0,-0.0281 0.0282,0 0.0282,0 0,-0.0281 0.0282,0 0.0282,0 0,-0.0281 0.0282,0 0,-0.0281 0.0282,0 0.0282,0 0,-0.0281 0.0282,0 0.0282,0 0,-0.0281 0.0282,0 0.0282,0 0,-0.0281 0.0282,0 0.0282,0 0,-0.0281 0.0282,0 0.0282,0 0,-0.0281 0.0282,0 0.0282,0 0,-0.0281 0.0282,0 0.0282,0 0,-0.0281 0.0282,0 0.0282,0 0,-0.0281 0.0282,0 0,-0.0281 0.0282,0 0.0282,0 0,-0.0281 0.0282,0 0.0282,0 0,-0.0281 0.0282,0 0.0282,0 0,-0.0281 0.0282,0 0.0282,0 0,-0.0281 0.0282,0 0.0282,0 0,-0.0281 0.0282,0 0.0282,0 0,-0.0281 0.0282,0 0,-0.0281 0.0282,0 0.0282,0 0,-0.0281 0.0282,0 0.0282,0 0,-0.0281 0.0282,0 0.0282,0 0,-0.0281 0.0282,0 0,-0.0281 0.0282,0 0.0282,0 0.0282,0 0,-0.0281 0.0282,0 0.0282,0 0,-0.0281 0.0282,0 0,-0.0281 0.0282,0 0.0282,0 0,-0.0281 0.0282,0 0.0282,0 0,-0.0281 0.0282,0 0.0282,0 0,-0.0281 0.0282,0 0.0282,0 0,-0.0281 0.0282,0 0.0282,0 0,-0.0281 0.0282,0 0.0282,0 0,-0.0281 0.0282,0 0.0282,0 0,-0.0281 0.0282,0 0,-0.0281 0.0282,0 0.0282,0 0,-0.0281 0.0282,0 0.0282,0 0,-0.0281 0.0282,0 0.0282,0 0,-0.0281 0.0282,0 0.0282,0 0,-0.0281 0.0282,0 0,-0.0281 0.0282,0 0.0282,0 0,-0.0281 0.0282,0 0.0282,0 0,-0.0281 0.0282,0 0.0282,0 0,-0.0281 0.0282,0 0.0282,0 0,-0.0281 0.0282,0 0.0282,0 0,-0.0281 0.0282,0 0.0282,0 0,-0.0281 0.0282,0 0,-0.0281 0.0282,0 0.0282,0 0,-0.0281 0.0282,0 0.0282,0 0,-0.0281 0.0282,0 0.0282,0 0,-0.0281 0.0282,0 0.0282,0 0,-0.0281 0.0282,0 0.0282,0 0,-0.0281 0.0282,0 0.0282,0 0,-0.0281 0.0282,0 0.0282,0 0,-0.0281 0.0282,0 0,-0.0281 0.0282,0 0.0282,0 0,-0.0281 0.0282,0 0.0282,0 0,-0.0281 0.0282,0 0.0282,0 0,-0.0281 0.0282,0 0.0282,0 0,-0.0281 0.0282,0 0,-0.0281 0.0282,0 0.0282,0 0.0282,0 0,-0.0281 0.0282,0 0.0282,0 0,-0.0281 0.0282,0 0,-0.0281 0.0282,0 0.0282,0 0,-0.0281 0.0282,0 0.0282,0 0,-0.0281 0.0282,0 0.0282,0 0,-0.0281 0.0282,0 0,-0.0281 0.0282,0 0.0282,0 0,-0.0281 0.0282,0 0.0282,0 0.0282,0 0,-0.0281 0.0282,0 0,-0.0281 0.0282,0 0.0282,0 0,-0.0281 0.0282,0 0.0282,0 0,-0.0281 0.0282,0 0.0282,0 0,-0.0281 0.0282,0 0,-0.0281 0.0282,0 0.0282,0 0,-0.0281 0.0282,0 0.0282,0 0,-0.0281 0.0282,0 0.0282,0 0.0282,0 0,-0.0281 0.0282,0 0,-0.0281 0.0282,0 0.0282,0 0,-0.0281 0.0282,0 0.0282,0 0,-0.0281 0.0282,0 0.0282,0 0,-0.0281 0.0282,0 0.0282,0 0,-0.0281 0.0282,0 0,-0.0281 0.0282,0 0.0282,0 0,-0.0281 0.0282,0 0.0282,0 0,-0.0281 0.0282,0 0.0282,0 0,-0.0281 0.0282,0 0.0282,0 0,-0.0281 0.0282,0 0.0282,0 0,-0.0281 0.0282,0 0,-0.0281 0.0282,0 0.0282,0 0,-0.0281 0.0282,0 0.0282,0 0,-0.0281 0.0282,0 0.0282,0 0,-0.0281 0.0282,0 0.0282,0 0,-0.0281 0.0282,0 0,-0.0281 0.0282,0 0.0282,0 0.0282,0 0,-0.0281 0.0282,0 0,-0.0281 0.0282,0 0.0282,0 0,-0.0281 0.0282,0 0.0282,0 0,-0.0281 0.0282,0 0.0282,0 0,-0.0281 0.0282,0 0.0282,0 0,-0.0281 0.0282,0 0.0282,0 0,-0.0281 0.0282,0 0,-0.0281 0.0282,0 0.0282,0 0.0282,0 0,-0.0281 0.0282,0 0.0282,0 0,-0.0281 0.0282,0 0,-0.0281 0.0282,0 0.0282,0 0,-0.0281 0.0282,0 0.0282,0 0,-0.0281 0.0282,0 0.0282,0 0,-0.0281 0.0282,0 0,-0.0281 0.0282,0 0.0282,0 0,-0.0281 0.0282,0 0.0282,0 0,-0.0281 0.0282,0 0.0282,0 0,-0.0281 -0.0282,0 -0.0282,0 0,-0.0281 -0.0282,0 -0.0282,0 0,-0.0281 -0.0282,0 -0.0282,0 0,-0.0281 -0.0282,0 0,-0.0281 -0.0282,0 -0.0282,0 0,-0.0281 -0.0282,0 -0.0282,0 0,-0.0281 -0.0282,0 -0.0282,0 0,-0.0281 -0.0282,0 0,-0.0281 -0.0282,0 -0.0282,0 -0.0282,0 0,-0.0281 -0.0282,0 0,-0.0281 -0.0282,0 -0.0282,0 0,-0.0281 -0.0282,0 -0.0282,0 0,-0.0281 -0.0282,0 -0.0282,0 0,-0.0281 -0.0282,0 -0.0282,0 0,-0.0281 -0.0282,0 -0.0282,0 0,-0.0281 -0.0282,0 0,-0.0281 -0.0282,0 -0.0282,0 -0.0282,0 0,-0.0281 -0.0282,0 0,-0.0281 -0.0282,0 -0.0282,0 0,-0.0281 -0.0282,0 -0.0282,0 0,-0.0281 -0.0282,0 -0.0282,0 0,-0.0281 -0.0282,0 -0.0282,0 0,-0.0281 -0.0282,0 0,-0.0281 -0.0282,0 -0.0282,0 0,-0.0281 -0.0282,0 -0.0282,0 0,-0.0281 -0.0282,0 0,-0.0281 -0.0282,0 -0.0282,0 0,-0.0281 -0.0282,0 -0.0282,0 -0.0282,0 0,-0.0281 -0.0282,0 0,-0.0281 -0.0282,0 -0.0282,0 0,-0.0281 -0.0282,0 -0.0282,0 0,-0.0281 -0.0282,0 -0.0282,0 0,-0.0281 -0.0282,0 0,-0.0281 -0.0282,0 -0.0282,0 0,-0.0281 -0.0282,0 -0.0282,0 0,-0.0281 -0.0282,0 -0.0282,0 0,-0.0281 -0.0282,0 -0.0282,0 -0.0282,0 0,-0.0281 -0.0282,0 0,-0.0281 -0.0282,0 -0.0282,0 0,-0.0281 -0.0282,0 -0.0282,0 0,-0.0281 -0.0282,0 0,-0.0281 -0.0282,0 -0.0282,0 0,-0.0281 -0.0282,0 -0.0282,0 0,-0.0281 -0.0282,0 -0.0282,0 0,-0.0281 -0.0282,0 -0.0282,0 0,-0.0281 -0.0282,0 -0.0282,0 0,-0.0281 -0.0282,0 -0.0282,0 0,-0.0281 -0.0282,0 0,-0.0281 -0.0282,0 -0.0282,0 0,-0.0281 -0.0282,0 -0.0282,0 0,-0.0281 -0.0282,0 -0.0282,0 0,-0.0281 -0.0282,0 -0.0282,0 0,-0.0281 -0.0282,0 -0.0282,0 0,-0.0281 -0.0282,0 0,-0.0281 -0.0282,0 -0.0282,0 0,-0.0281 -0.0282,0 -0.0282,0 0,-0.0281 -0.0282,0 -0.0282,0 0,-0.0281 -0.0282,0 -0.0282,0 0,-0.0281 -0.0282,0 0,-0.0281 -0.0282,0 -0.0282,0 -0.0282,0 0,-0.0281 -0.0282,0 -0.0282,0 0,-0.0281 -0.0282,0 -0.0282,0 0,-0.0281 -0.0282,0 0,-0.0281 -0.0282,0 -0.0282,0 0,-0.0281 -0.0282,0 -0.0282,0 0,-0.0281 -0.0282,0 -0.0282,0 0,-0.0281 -0.0282,0 0,-0.0281 -0.0282,0 -0.0282,0 0,-0.0281 -0.0282,0 -0.0282,0 0,-0.0281 -0.0282,0 -0.0282,0 0,-0.0281 -0.0282,0 -0.0282,0 0,-0.0281 -0.0282,0 -0.0282,0 0,-0.0281 -0.0282,0 -0.0282,0 0,-0.0281 -0.0282,0 0,-0.0281 -0.0282,0 -0.0282,0 0,-0.0281 -0.0282,0 -0.0282,0 0,-0.0281 -0.0282,0 0,-0.0281 -0.0282,0 -0.0282,0 0,-0.0281 -0.0282,0 -0.0282,0 0,-0.0281 -0.0282,0 -0.0282,0 -0.0282,0 0,-0.0281 -0.0282,0 0,-0.0281 -0.0282,0 -0.0282,0 0,-0.0281 -0.0282,0 -0.0282,0 0,-0.0281 -0.0282,0 -0.0282,0 0,-0.0281 -0.0282,0 -0.0282,0 0,-0.0281 -0.0282,0 0,-0.0281 -0.0282,0 -0.0282,0 0,-0.0281 -0.0282,0 -0.0282,0 0,-0.0281 -0.0282,0 -0.0282,0 0,-0.0281 -0.0282,0 -0.0282,0 0,-0.0281 -0.0282,0 -0.0282,0 0,-0.0281 -0.0282,0 0,-0.0281 -0.0282,0 -0.0282,0 0,-0.0281 -0.0282,0 -0.0282,0 0,-0.0281 -0.0282,0 -0.0282,0 0,-0.0281 -0.0282,0 -0.0282,0 0,-0.0281 -0.0282,0 -0.0282,0 0,-0.0281 -0.0282,0 -0.0282,0 0,-0.0281 -0.0282,0 0,-0.0281 -0.0282,0 -0.0282,0 0,-0.0281 -0.0282,0 -0.0282,0 0,-0.0281 -0.0282,0 -0.0282,0 0,-0.0281 -0.0282,0 0,-0.0281 -0.0282,0 -0.0282,0 0,-0.0281 -0.0282,0 -0.0282,0 0,-0.0281 -0.0282,0 -0.0282,0 0,-0.0281 -0.0282,0 -0.0282,0 0,-0.0281 -0.0282,0 -0.0282,0 0,-0.0281 -0.0282,0 -0.0282,0 0,-0.0281 -0.0282,0 -0.0282,0 0,-0.0281 -0.0282,0 -0.0282,0 0,-0.0281 -0.0282,0 0,-0.0281 -0.0282,0 -0.0282,0 0,-0.0281 -0.0282,0 -0.0282,0 0,-0.0281 -0.0282,0 -0.0282,0 0,-0.0281 -0.0282,0 -0.0282,0 0,-0.0281 -0.0282,0 -0.0282,0 0,-0.0281 -0.0282,0 0,-0.0281 -0.0282,0 -0.0282,0 0,-0.0281 -0.0282,0 -0.0282,0 0,-0.0281 -0.0282,0 -0.0282,0 0,-0.0281 -0.0282,0 -0.0282,0 0,-0.0281 -0.0282,0 -0.0282,0 0,-0.0281 -0.0282,0 -0.0282,0 0,-0.0281 -0.0282,0 0,-0.0281 -0.0282,0 -0.0282,0 0,-0.0281 -0.0282,0 -0.0282,0 0,-0.0281 -0.0282,0 -0.0282,0 0,-0.0281 -0.0282,0 -0.0282,0 0,-0.0281 -0.0282,0 0,-0.0281 -0.0282,0 -0.0282,0 0,-0.0281 -0.0282,0 -0.0282,0 0,-0.0281 -0.0282,0 -0.0282,0 0,-0.0281 -0.0282,0 -0.0282,0 0,-0.0281 -0.0282,0 -0.0282,0 0,-0.0281 -0.0282,0 -0.0282,0 0,-0.0281 -0.0282,0 0,-0.0281 -0.0282,0 -0.0282,0 0,-0.0281 -0.0282,0 -0.0282,0 0,-0.0281 -0.0282,0 -0.0282,0 0,-0.0281 -0.0282,0 -0.0282,0 0,-0.0281 -0.0282,0 -0.0282,0 0,-0.0281 -0.0282,0 -0.0282,0 0,-0.0281 -0.0282,0 0,-0.0281 -0.0282,0 -0.0282,0 0,-0.0281 -0.0282,0 -0.0282,0 0,-0.0281 -0.0282,0 -0.0282,0 0,-0.0281 -0.0282,0 z"
     style="color:#000000;fill:#eb4c4e;fill-opacity:1;fill-rule:nonzero;stroke:none;stroke-width:2.66490579;marker:none;visibility:visible;display:inline;overflow:visible;enable-background:accumulate"
     inkscape:connector-curvature="0" />
</svg>
