<?xml version="1.0" encoding="UTF-8" standalone="no"?>
<!-- Created with Inkscape (http://www.inkscape.org/) -->

<svg
   xmlns:dc="http://purl.org/dc/elements/1.1/"
   xmlns:cc="http://creativecommons.org/ns#"
   xmlns:rdf="http://www.w3.org/1999/02/22-rdf-syntax-ns#"
   xmlns:svg="http://www.w3.org/2000/svg"
   xmlns="http://www.w3.org/2000/svg"
   xmlns:sodipodi="http://sodipodi.sourceforge.net/DTD/sodipodi-0.dtd"
   xmlns:inkscape="http://www.inkscape.org/namespaces/inkscape"
   id="svg2"
   height="51.231365"
   width="193.19969"
   version="1.1"
   inkscape:version="0.91 r13725"
   sodipodi:docname="top-logo.svg">
  <defs
     id="defs26" />
  <sodipodi:namedview
     pagecolor="#ffffff"
     bordercolor="#666666"
     borderopacity="1"
     objecttolerance="10"
     gridtolerance="10"
     guidetolerance="10"
     inkscape:pageopacity="0"
     inkscape:pageshadow="2"
     inkscape:window-width="640"
     inkscape:window-height="480"
     id="namedview24"
     showgrid="false"
     fit-margin-top="0"
     fit-margin-left="0"
     fit-margin-right="0"
     fit-margin-bottom="0"
     inkscape:zoom="4"
     inkscape:cx="133.78849"
     inkscape:cy="26.689936"
     inkscape:current-layer="svg2"
     showborder="false" />
  <metadata
     id="metadata7">
    <rdf:RDF>
      <cc:Work
         rdf:about="">
        <dc:format>image/svg+xml</dc:format>
        <dc:type
           rdf:resource="http://purl.org/dc/dcmitype/StillImage" />
        <dc:title></dc:title>
      </cc:Work>
    </rdf:RDF>
  </metadata>
  <path
     style="font-style:normal;font-variant:normal;font-weight:300;font-stretch:normal;font-size:medium;line-height:125%;font-family:'Open Sans';-inkscape-font-specification:'Open Sans Light';letter-spacing:4.19841051px;word-spacing:0px;fill:#2d4450;fill-opacity:1;stroke:none;stroke-width:1px;stroke-linecap:butt;stroke-linejoin:miter;stroke-opacity:1"
     d="m 83.590015,33.771638 0,10.940198 0.436831,0 0.194148,-1.15194 0.06471,0 c 0.25308,0.412423 0.596359,0.729598 1.032216,0.954556 0.435858,0.224958 0.9254,0.336522 1.469048,0.336522 1.03106,0 1.830637,-0.343282 2.39772,-1.032217 0.571768,-0.688934 0.857483,-1.668017 0.857483,-2.938094 0,-1.29351 -0.271768,-2.274378 -0.815418,-2.944566 -0.538963,-0.674876 -1.342109,-1.012803 -2.410663,-1.012803 -0.576454,0 -1.069567,0.108002 -1.48199,0.32358 -0.407738,0.215585 -0.757823,0.550275 -1.048396,1.009565 l -0.04854,0 0.01942,-0.595384 c 0.01874,-0.346811 0.02913,-0.726575 0.02913,-1.138997 l 0,-2.75042 -0.695694,0 z m 80.108395,0 0,2.75042 c 0,0.567081 0.0139,1.143866 0.0421,1.734381 l -0.0421,0 c -0.31869,-0.487408 -0.68094,-0.83069 -1.08399,-1.032216 -0.40305,-0.201526 -0.88043,-0.300929 -1.43346,-0.300929 -1.05449,0 -1.85764,0.346852 -2.41065,1.045161 -0.55303,0.698307 -0.83161,1.710302 -0.83161,3.031933 0,1.256016 0.28036,2.210778 0.83808,2.866906 0.5577,0.656129 1.36263,0.98368 2.41713,0.98368 1.0873,0 1.92335,-0.435544 2.5045,-1.307258 l 0.055,0 0.17473,1.16812 0.45625,0 0,-10.940198 -0.68599,0 z M 31.739753,36.923294 c -0.86234,0 -1.536408,0.165557 -2.019131,0.498313 -0.478037,0.332751 -0.715109,0.784024 -0.715109,1.355794 0,0.360871 0.07508,0.669123 0.229741,0.9222 0.159345,0.248391 0.396084,0.471519 0.705401,0.673044 0.309318,0.196839 0.844266,0.43536 1.608187,0.711873 0.712368,0.25308 1.224446,0.510902 1.533763,0.773353 0.314005,0.262451 0.46919,0.586432 0.46919,0.970735 0,0.417113 -0.195237,0.750018 -0.588914,1.003095 -0.388991,0.248392 -0.960419,0.372115 -1.714967,0.372115 -0.852968,0 -1.664705,-0.191666 -2.433313,-0.57597 l 0,0.753939 c 0.599889,0.314005 1.411627,0.469189 2.433313,0.469189 0.956073,0 1.693062,-0.18129 2.213279,-0.546848 0.520216,-0.370245 0.779824,-0.89805 0.779824,-1.5823 0,-0.342123 -0.0801,-0.639999 -0.239448,-0.893077 C 33.84691,41.57567 33.613408,41.352544 33.299403,41.155706 32.985399,40.95418 32.483697,40.727817 31.794762,40.479427 30.969914,40.184168 30.414216,39.91597 30.128331,39.67695 c -0.281198,-0.239018 -0.420652,-0.556192 -0.420652,-0.954556 0,-0.365559 0.181291,-0.651272 0.546848,-0.857484 0.365557,-0.206212 0.861904,-0.310637 1.485226,-0.310637 0.642069,0 1.337222,0.156645 2.087083,0.465955 l 0.258863,-0.634216 c -0.740488,-0.309317 -1.521098,-0.462718 -2.345946,-0.462718 z m 14.321597,0 c -1.016999,0 -1.823717,0.367602 -2.423606,1.103405 -0.599889,0.731115 -0.899548,1.706627 -0.899548,2.925152 0,1.232584 0.306799,2.18913 0.925435,2.873379 0.623322,0.684249 1.490841,1.025744 2.601574,1.025744 0.440542,0 0.844625,-0.03325 1.210183,-0.103545 0.365558,-0.06561 0.762837,-0.194357 1.194008,-0.381822 l 0,-0.63098 c -0.506158,0.201526 -0.925971,0.33384 -1.258723,0.394766 -0.328064,0.06094 -0.709612,0.09061 -1.145468,0.09061 -0.895148,0 -1.584946,-0.278575 -2.067668,-0.831597 -0.478021,-0.553023 -0.718666,-1.354385 -0.728052,-2.404191 l 5.504073,0 0,-0.559789 c 0,-1.077926 -0.259609,-1.9315 -0.779824,-2.559509 -0.520217,-0.628009 -1.232551,-0.941615 -2.132384,-0.941615 z m 14.858737,0 c -1.016999,0 -1.826953,0.367602 -2.426841,1.103405 -0.599889,0.731115 -0.899549,1.706627 -0.899549,2.925152 0,1.232584 0.310035,2.18913 0.928671,2.873379 0.623322,0.684249 1.490841,1.025744 2.601574,1.025744 0.440543,0 0.84139,-0.03325 1.206948,-0.103545 0.365557,-0.06561 0.766073,-0.194357 1.197243,-0.381822 l 0,-0.63098 c -0.506157,0.201526 -0.925971,0.33384 -1.258722,0.394766 -0.328065,0.06094 -0.709614,0.09061 -1.145469,0.09061 -0.895147,0 -1.584946,-0.278575 -2.067669,-0.831597 -0.47802,-0.553023 -0.7219,-1.354385 -0.731289,-2.404191 l 5.504075,0 0,-0.559789 c 0,-1.077926 -0.259607,-1.9315 -0.779823,-2.559509 -0.520217,-0.628009 -1.229316,-0.941615 -2.129149,-0.941615 z m 41.084793,0 c -1.017,0 -1.82695,0.367602 -2.426836,1.103405 -0.599889,0.731115 -0.899555,1.706627 -0.899555,2.925152 0,1.232584 0.310041,2.18913 0.928669,2.873379 0.623332,0.684249 1.490852,1.025744 2.601582,1.025744 0.44054,0 0.84138,-0.03325 1.20695,-0.103545 0.36556,-0.06561 0.76607,-0.194357 1.19723,-0.381822 l 0,-0.63098 c -0.50615,0.201526 -0.92597,0.33384 -1.25872,0.394766 -0.32806,0.06094 -0.70961,0.09061 -1.14546,0.09061 -0.89515,0 -1.58495,-0.278575 -2.06767,-0.831597 -0.478021,-0.553023 -0.7219,-1.354385 -0.731289,-2.404191 l 5.504069,0 0,-0.559789 c 0,-1.077926 -0.25961,-1.9315 -0.77982,-2.559509 -0.52022,-0.628009 -1.22932,-0.941615 -2.12915,-0.941615 z m 28.49111,0 c -1.05449,0 -1.88375,0.346852 -2.48831,1.045161 -0.60458,0.69362 -0.90603,1.665563 -0.90603,2.912208 0,0.792041 0.13588,1.488978 0.40771,2.093555 0.27182,0.604576 0.66052,1.06801 1.17135,1.391389 0.51085,0.323378 1.10302,0.485367 1.77322,0.485367 1.06386,0 1.89668,-0.34685 2.50126,-1.045159 0.60458,-0.702994 0.90926,-1.678508 0.90926,-2.925152 0,-1.227897 -0.3029,-2.193035 -0.90279,-2.89603 -0.5952,-0.707681 -1.41586,-1.061339 -2.46567,-1.061339 z m 15.85536,0 c -1.27008,0 -2.15332,0.39728 -2.65011,1.194006 l -0.0421,0 -0.13267,-1.048394 -0.59215,0 0,7.64293 0.6957,0 0,-4.219467 c 0,-1.035746 0.21241,-1.78311 0.63421,-2.2424 0.42648,-0.463977 1.09553,-0.695696 2.00942,-0.695696 0.67957,0 1.18126,0.175937 1.50465,0.527433 0.32337,0.34681 0.48536,0.904295 0.48536,1.672904 l 0,4.957226 0.68923,0 0,-4.999292 c 0,-1.860594 -0.86752,-2.78925 -2.60157,-2.78925 z m -33.65219,0.14561 2.92515,7.64293 c -0.0563,0.154655 -0.18175,0.485779 -0.37858,0.996622 -0.19216,0.51553 -0.36453,0.891723 -0.5145,1.126055 -0.14528,0.239018 -0.30906,0.414955 -0.49184,0.527433 -0.18278,0.112475 -0.39519,0.168261 -0.63421,0.168261 -0.314,0 -0.60507,-0.03827 -0.8769,-0.113254 l 0,0.605094 c 0.32807,0.09842 0.62594,0.14884 0.89308,0.14884 0.35618,0 0.65762,-0.06437 0.90602,-0.190913 0.25308,-0.12654 0.47263,-0.316421 0.6601,-0.569499 0.18746,-0.253077 0.41919,-0.740833 0.6957,-1.462575 l 3.42346,-8.879001 -0.71511,0 -1.6179,4.24859 c -0.44522,1.199777 -0.76742,2.100542 -0.96426,2.705117 l -0.0421,0 c -0.13124,-0.459288 -0.44305,-1.346107 -0.93514,-2.663052 l -1.61467,-4.290655 -0.71835,0 z m -66.63781,0.472425 c 0.679562,0 1.210939,0.249232 1.595242,0.750702 0.384305,0.496783 0.579208,1.188366 0.579208,2.07414 l -4.724251,0 c 0.07498,-0.913894 0.334595,-1.61083 0.779824,-2.093555 0.445231,-0.48741 1.034175,-0.731287 1.769977,-0.731287 z m 14.858737,0 c 0.679561,0 1.210939,0.249232 1.595242,0.750702 0.384305,0.496783 0.575971,1.188366 0.575971,2.07414 l -4.72425,0 c 0.07498,-0.913894 0.334595,-1.610832 0.779825,-2.093555 0.445231,-0.48741 1.03741,-0.731287 1.773212,-0.731287 z m 41.084793,0 c 0.67957,0 1.21094,0.249232 1.59524,0.750702 0.38431,0.496783 0.57597,1.188366 0.57597,2.07414 l -4.724248,0 c 0.07498,-0.913894 0.334596,-1.61083 0.779828,-2.093555 0.44523,-0.48741 1.03741,-0.731287 1.77321,-0.731287 z m -15.201727,0.01293 c 1.668442,0 2.501263,1.106043 2.501263,3.313447 0,1.077926 -0.209181,1.908963 -0.630978,2.494792 -0.421797,0.581142 -1.052243,0.870426 -1.886465,0.870426 -0.857654,0 -1.488435,-0.249232 -1.89617,-0.750701 -0.403051,-0.50147 -0.605094,-1.328937 -0.605094,-2.481849 l 0,-0.119732 c 0,-1.185717 0.193452,-2.037506 0.582443,-2.553035 0.38899,-0.515529 1.035167,-0.773354 1.935001,-0.773354 z m 43.663717,0 c 0.84359,0 1.4969,0.292522 1.96089,0.873662 0.46866,0.581144 0.7054,1.398237 0.7054,2.452728 0,1.049806 -0.23172,1.868683 -0.6957,2.459199 -0.45929,0.585828 -1.11082,0.880134 -1.95442,0.880134 -0.84359,0 -1.50013,-0.294306 -1.96412,-0.880134 -0.45929,-0.590516 -0.68922,-1.409393 -0.68922,-2.459199 0,-1.059179 0.22815,-1.876271 0.68275,-2.452728 0.45929,-0.581142 1.11082,-0.873662 1.95442,-0.873662 z m 30.71409,0 c 0.88578,0 1.52515,0.25961 1.91882,0.779826 0.39837,0.51553 0.59863,1.365533 0.59863,2.546564 l 0,0.119731 c 0,1.152912 -0.20204,1.980379 -0.60509,2.48185 -0.40305,0.501468 -1.03707,0.750701 -1.89941,0.750701 -1.6825,0 -2.52391,-1.083504 -2.52391,-3.24873 0,-1.115419 0.21062,-1.963973 0.62774,-2.5498 0.4218,-0.585831 1.049,-0.880135 1.88322,-0.880135 z"
     id="path4203"
     inkscape:connector-curvature="0" />
  <path
     style="font-style:normal;font-variant:normal;font-weight:300;font-stretch:normal;font-size:medium;line-height:125%;font-family:'Open Sans';-inkscape-font-specification:'Open Sans Light';letter-spacing:0px;word-spacing:0px;fill:#2d4450;fill-opacity:1;stroke:none;stroke-width:1px;stroke-linecap:butt;stroke-linejoin:miter;stroke-opacity:1"
     d="M 12.081566,0 C 8.3432915,0 5.3921636,1.2357853 3.2278994,3.7074742 1.0759321,6.1668646 0,9.5422178 0,13.833854 c 0,4.303936 1.0697839,7.703881 3.2094542,10.200165 2.1396704,2.483984 5.0846501,3.725918 8.8352218,3.725918 3.762868,0 6.713997,-1.241934 8.853666,-3.725918 2.139672,-2.496284 3.209455,-5.883933 3.209455,-10.163274 0,-4.2916372 -1.063637,-7.673138 -3.191008,-10.1448269 C 18.789415,1.2419333 15.844435,0 12.081566,0 Z m 18.205354,0.4242393 0,26.9667947 1.881401,0 0,-11.140865 4.168604,0 c 3.246397,0 5.754853,-0.694746 7.525617,-2.084302 1.770762,-1.389556 2.656101,-3.387715 2.656101,-5.9946691 0,-5.164724 -3.209353,-7.7469586 -9.628365,-7.7469586 l -6.603358,0 z m 22.134167,0 0,26.9667947 14.737665,0 0,-1.733843 -12.856263,0 0,-11.565104 12.136904,0 0,-1.733844 -12.136904,0 0,-10.2001606 12.856263,0 0,-1.7338431 -14.737665,0 z m 20.879897,0 0,26.9667947 1.807622,0 0,-17.4859922 c 0,-1.4510413 -0.07378,-3.6029073 -0.221342,-6.4557996 l 0.147562,0 15.973492,23.9417918 1.899849,0 0,-26.9667947 -1.826068,0 0,17.5966637 c 0,1.992105 0.05534,4.094783 0.166,6.308238 l -0.110658,0 -15.955047,-23.9049017 -1.881403,0 z M 12.081566,1.8260699 c 3.221803,0 5.687224,1.0390427 7.396501,3.1172274 1.721574,2.0658886 2.582318,5.0416085 2.582318,8.9274477 2e-6,3.898135 -0.860744,6.892302 -2.582318,8.982784 -1.709277,2.090481 -4.186994,3.135675 -7.433391,3.135675 -3.2218026,0 -5.6933722,-1.051341 -7.414946,-3.15412 -1.7215738,-2.115076 -2.5823195,-5.103095 -2.5823195,-8.964339 0,-3.848949 0.8668939,-6.8185208 2.6007646,-8.9090014 C 6.3943427,2.8712607 8.8720604,1.8260699 12.081566,1.8260699 Z m 20.086755,0.2951223 4.463726,0 c 2.680735,0 4.660451,0.5041513 5.939333,1.5125014 1.278885,0.9960517 1.918294,2.5330979 1.918294,4.6112848 0,2.2503426 -0.676297,3.8796086 -2.028962,4.8879606 -1.352666,0.996053 -3.547567,1.494058 -6.584917,1.494058 l -3.707474,0 0,-12.5058048 z"
     id="path4165"
     inkscape:connector-curvature="0" />
  <path
     style="font-style:normal;font-variant:normal;font-weight:normal;font-stretch:normal;font-size:medium;line-height:125%;font-family:Audiowide;-inkscape-font-specification:Audiowide;letter-spacing:0px;word-spacing:0px;fill:#008ec9;fill-opacity:1;stroke:none;stroke-width:1px;stroke-linecap:butt;stroke-linejoin:miter;stroke-opacity:1"
     d="M 97.630122,0 110.574,26.404218 c 0.21638,0.407305 0.52307,0.735755 0.91764,0.977592 0.4073,0.254565 0.84788,0.378127 1.31882,0.378127 0.48368,0 0.91965,-0.12355 1.31423,-0.378127 0.4073,-0.241837 0.71399,-0.570287 0.91764,-0.977592 L 128.00465,0 122.4711,0 112.81046,19.722467 103.18672,0 97.630122,0 Z m 33.261198,0 0,27.38181 4.96174,0 0,-27.38181 -4.96174,0 z m 9.54535,0 0,4.9663547 16.81736,0 -16.41617,18.2699113 c -0.3182,0.356392 -0.5242,0.775206 -0.6133,1.258881 -0.0764,0.483674 -0.004,0.951728 0.21211,1.397219 0.20366,0.445491 0.50572,0.80824 0.91303,1.088264 0.42003,0.267293 0.87205,0.40118 1.35572,0.40118 l 22.37856,0 0,-4.966352 -16.78046,0 16.37929,-18.2699139 c 0.33093,-0.3436615 0.53231,-0.7567594 0.60868,-1.2404341 0.0764,-0.4964027 0.0203,-0.9701754 -0.17062,-1.4156659 -0.20366,-0.4454882 -0.51606,-0.8025224 -0.9361,-1.0698158 C 163.77747,0.1396046 163.33578,0 162.85211,0 l -22.41545,0 z m 27.87522,0 0,4.9663547 16.81736,0 -16.41618,18.2699113 c -0.3182,0.356392 -0.52419,0.775206 -0.6133,1.258881 -0.0764,0.483674 -0.004,0.951728 0.21211,1.397219 0.20366,0.445491 0.50573,0.808242 0.91303,1.088264 0.42004,0.267293 0.87205,0.40118 1.35572,0.40118 l 22.37857,0 0,-4.966352 -16.78508,0 16.38389,-18.2699139 c 0.33095,-0.3436639 0.53233,-0.7567594 0.6087,-1.2404341 0.0764,-0.4964027 0.0203,-0.9701754 -0.17063,-1.4156659 C 192.79243,1.0439559 192.48002,0.6869217 192.05999,0.4196283 191.65268,0.1396046 191.20639,0 190.72271,0 l -22.41083,0 z"
     id="path4174"
     inkscape:connector-curvature="0" />
  <text
     xml:space="preserve"
     style="font-style:normal;font-variant:normal;font-weight:normal;font-stretch:normal;font-size:16px;line-height:125%;font-family:'Open Sans';-inkscape-font-specification:'Open Sans';letter-spacing:0px;word-spacing:0px;fill:#000000;fill-opacity:1;stroke:none;stroke-width:1px;stroke-linecap:butt;stroke-linejoin:miter;stroke-opacity:1"
     x="13.435029"
     y="-12.408246"
     id="text4135"
     sodipodi:linespacing="125%"><tspan
       sodipodi:role="line"
       id="tspan4137"
       x="13.435029"
       y="-12.408246" /></text>
</svg>
