<?xml version="1.0" encoding="UTF-8" standalone="no"?>
<!-- Created with Inkscape (http://www.inkscape.org/) -->

<svg
   xmlns:dc="http://purl.org/dc/elements/1.1/"
   xmlns:cc="http://creativecommons.org/ns#"
   xmlns:rdf="http://www.w3.org/1999/02/22-rdf-syntax-ns#"
   xmlns:svg="http://www.w3.org/2000/svg"
   xmlns="http://www.w3.org/2000/svg"
   xmlns:xlink="http://www.w3.org/1999/xlink"
   xmlns:sodipodi="http://sodipodi.sourceforge.net/DTD/sodipodi-0.dtd"
   xmlns:inkscape="http://www.inkscape.org/namespaces/inkscape"
   inkscape:export-ydpi="90"
   inkscape:export-xdpi="90"
   inkscape:export-filename="orcamento-preview.png"
   sodipodi:docname="top-logo.svg"
   inkscape:version="0.48.3.1 r9886"
   version="1.1"
   id="svg2"
   height="61.312801"
   width="195.6563">
  <sodipodi:namedview
     id="base"
     pagecolor="#d6cfc9"
     bordercolor="#cfcfcf"
     borderopacity="1"
     inkscape:pageopacity="0"
     inkscape:pageshadow="2"
     inkscape:zoom="5.6568542"
     inkscape:cx="121.75266"
     inkscape:cy="30.524198"
     inkscape:document-units="px"
     inkscape:current-layer="layer1"
     showgrid="false"
     inkscape:window-width="1920"
     inkscape:window-height="1023"
     inkscape:window-x="-10"
     inkscape:window-y="35"
     inkscape:window-maximized="1"
     inkscape:snap-bbox="true"
     inkscape:bbox-paths="true"
     inkscape:bbox-nodes="true"
     inkscape:snap-bbox-edge-midpoints="true"
     inkscape:snap-bbox-midpoints="true"
     inkscape:snap-nodes="true"
     inkscape:object-paths="true"
     inkscape:snap-intersection-paths="true"
     inkscape:object-nodes="true"
     inkscape:snap-smooth-nodes="true"
     inkscape:snap-midpoints="true"
     inkscape:snap-object-midpoints="true"
     inkscape:snap-center="true"
     inkscape:showpageshadow="false"
     inkscape:snap-global="false"
     showborder="true"
     showguides="true"
     inkscape:guide-bbox="true"
     fit-margin-top="0"
     fit-margin-left="0"
     fit-margin-right="0"
     fit-margin-bottom="0"
     inkscape:snap-page="true">
    <inkscape:grid
       originy="2208.432px"
       originx="-291.68608px"
       snapvisiblegridlinesonly="true"
       enabled="true"
       visible="true"
       empspacing="5"
       id="grid3754"
       type="xygrid" />
  </sodipodi:namedview>
  <defs
     id="defs4">
    <linearGradient
       id="linearGradient3100"
       class="vui_change_color">
      <stop
         style="stop-color:#6ea3e3;stop-opacity:1;"
         offset="0"
         id="stop3104" />
      <stop
         id="stop3110"
         offset="1"
         style="stop-color:#6ea3e3;stop-opacity:1" />
    </linearGradient>
    <linearGradient
       inkscape:collect="always"
       xlink:href="#linearGradient3100"
       id="linearGradient3019"
       gradientUnits="userSpaceOnUse"
       gradientTransform="matrix(1.1473879,0,0,1.1473879,753.70452,3097.649)"
       x1="-682.36627"
       y1="-2545.7761"
       x2="-682.36627"
       y2="-2624.2783" />
    <linearGradient
       inkscape:collect="always"
       xlink:href="#linearGradient3100-9"
       id="linearGradient3264-7"
       gradientUnits="userSpaceOnUse"
       gradientTransform="matrix(1.1473879,0,0,1.1473879,1045.3907,6297.1305)"
       x1="-560.13208"
       y1="-2662.781"
       x2="-560.13208"
       y2="-2699.3811" />
    <linearGradient
       id="linearGradient3100-9"
       class="vui_change_color">
      <stop
         id="stop3102"
         offset="0"
         style="stop-color:#6ea3e3;stop-opacity:0.24017857" />
      <stop
         style="stop-color:#6ea3e3;stop-opacity:0.94285715"
         offset="0.25"
         id="stop3104-1" />
      <stop
         style="stop-color:#6ea3e3;stop-opacity:0.67850226;"
         offset="0.48324397"
         id="stop3106" />
      <stop
         id="stop3108"
         offset="0.70021975"
         style="stop-color:#6ea3e3;stop-opacity:0.94285715" />
      <stop
         id="stop3110-5"
         offset="1"
         style="stop-color:#6ea3e3;stop-opacity:1" />
    </linearGradient>
  </defs>
  <metadata
     id="metadata7">
    <rdf:RDF>
      <cc:Work
         rdf:about="">
        <dc:format>image/svg+xml</dc:format>
        <dc:type
           rdf:resource="http://purl.org/dc/dcmitype/StillImage" />
        <dc:title />
      </cc:Work>
    </rdf:RDF>
  </metadata>
  <g
     transform="translate(-291.68608,-3199.4815)"
     id="layer1"
     inkscape:groupmode="layer"
     inkscape:label="Camada 1">
    <path
       inkscape:connector-curvature="0"
       style="font-size:69.37084198px;font-style:normal;font-variant:normal;font-weight:normal;font-stretch:normal;text-align:start;line-height:125%;letter-spacing:0px;word-spacing:0px;writing-mode:lr-tb;text-anchor:start;fill:#000000;fill-opacity:1;stroke:none;font-family:Baumans;-inkscape-font-specification:Baumans"
       d="m 355.85935,3199.8748 c -1.90785,0 -3.46875,1.561 -3.46875,3.4687 0,1.9084 1.55676,3.4376 3.46875,3.4376 1.91193,0 3.4375,-1.5256 3.4375,-3.4376 0,-1.9118 -1.52963,-3.4686 -3.4375,-3.4687 z m 49.5625,7.5937 c -4.71199,2e-4 -8.59972,1.6343 -11.8125,4.9376 -3.16699,3.2574 -4.78126,7.238 -4.78125,12 -1e-5,4.8606 1.53373,8.8702 4.5625,12.125 3.01993,3.2003 6.98761,4.8124 12.03125,4.8124 3.85803,0 7.28529,-1.2035 10.3125,-3.5312 l -3.5625,-3.5312 c -1.8741,1.3477 -4.1312,2.0311 -6.75,2.0312 -3.28228,0 -5.96316,-1.0832 -7.9375,-3.25 -1.92262,-2.211 -2.87501,-5.1128 -2.875,-8.6562 -1e-5,-3.5434 0.94794,-6.4569 2.875,-8.625 1.97352,-2.2142 4.65381,-3.3126 7.9375,-3.3126 2.58282,0 4.85949,0.7034 6.8125,2.0938 l 3.53125,-3.5625 c -3.03458,-2.3424 -6.46883,-3.5311 -10.34375,-3.5313 z m 12.65625,0.6876 0,32.4687 5.28125,0 0,-27.0625 a 0.41822345,0.41822345 0 0 1 0.40625,-0.4062 l 12.125,0 a 0.41822345,0.41822345 0 0 1 0.40625,0.4062 l 0,27.0625 5.3125,0 0,-27.0625 a 0.41822345,0.41822345 0 0 1 0.40625,-0.4062 l 2.84375,0 c 3.4012,0 5.64189,0.2527 6.90625,0.9374 2.33277,1.2409 3.49996,3.8384 3.5,7.5313 l 0,19 5.28125,0 0,-19 c -4e-5,-2.7425 -0.33928,-5.0976 -0.96875,-7.0313 -0.57038,-1.8864 -1.79655,-3.4178 -3.71875,-4.625 -1.8539,-1.1915 -4.36339,-1.8123 -7.59375,-1.8124 l -30.1875,0 z m 55.59375,0 c -3.03067,10e-5 -5.55959,0.7465 -7.65625,2.2187 -2.0712,1.4101 -3.12501,3.4134 -3.125,6.125 -1e-5,2.1312 0.60493,3.8655 1.78125,5.3125 1.24399,1.4217 2.74601,2.4864 4.46875,3.1562 1.84066,0.6443 3.67208,1.2122 5.46875,1.7188 1.87663,0.5161 3.45914,1.1414 4.75,1.9062 1.3744,0.7855 2.12498,1.885 2.125,3.1563 -1e-5,1.286 -0.65969,2.3358 -1.84375,2.9687 -1.18406,0.633 -2.85181,0.9064 -5.0625,0.9063 l -11.59375,0 0,5 11.59375,0 c 4.20421,0 7.29615,-0.7825 9.3125,-2.25 2.01635,-1.4675 3.03124,-3.6218 3.03125,-6.625 -3e-5,-0.8481 -0.1017,-1.6781 -0.28125,-2.5313 -0.17094,-0.8546 -0.58694,-1.7408 -1.25,-2.625 a 0.41822345,0.41822345 0 0 1 0,-0.031 c -0.59852,-0.8977 -1.46449,-1.5953 -2.65625,-2.125 -1.22435,-0.5441 -3.13748,-1.2329 -5.71875,-2.0625 -2.58751,-0.8316 -4.09,-1.2955 -4.40625,-1.375 a 0.41822345,0.41822345 0 0 1 -0.0625,-0.031 c -0.32094,-0.1373 -0.81979,-0.3467 -1.46875,-0.625 a 0.41822345,0.41822345 0 0 1 -0.0312,0 c -0.62109,-0.3342 -1.11454,-0.665 -1.46875,-0.9687 a 0.41822345,0.41822345 0 0 1 0,-0.031 c -0.31164,-0.3116 -0.62694,-0.7096 -0.875,-1.1562 -0.25907,-0.5179 -0.37501,-1.076 -0.375,-1.6875 -10e-6,-1.075 0.62416,-1.9742 1.6875,-2.5313 1.03763,-0.5434 2.25841,-0.8124 3.65625,-0.8124 l 11.875,0 0,-5 -11.875,0 z m -122.125,2.125 c -0.55247,-0.01 -1.10315,7e-4 -1.6875,0.031 -3.49996,0.2187 -6.9873,1.1126 -10.46875,4.5938 l -22.96875,22.9374 c -1.44134,1.4418 -2.68823,2.2809 -3.90625,3.0626 a 0.41822345,0.41822345 0 0 1 -0.5,-0.031 c -2.95236,-2.5492 -5.80543,-7.7887 -11.15625,-17.0625 l -8.46875,0 c 3.80683,6.613 6.31019,11.2093 8.34375,14.0312 1.05355,1.462 1.99508,2.4925 2.9375,3.125 0.94242,0.6326 1.88424,0.9063 3.03125,0.9063 l 9.875,0 c 2.15358,0 3.55407,-0.399 4.8125,-1.1563 1.25843,-0.7572 2.40111,-1.9009 3.9375,-3.4374 l 22.9375,-22.9376 c 2.17411,-2.1738 4.21927,-3.3485 6.3125,-4.0312 l -1.3125,0 c -0.60425,0 -1.1638,-0.023 -1.71875,-0.031 z m 10.125,4.0624 c -2.15358,0 -3.53079,0.3993 -4.78125,1.1563 -1.25046,0.757 -2.4006,1.9005 -3.9375,3.4375 l -18.90625,18.9062 c -2.17412,2.174 -4.21924,3.3486 -6.3125,4.0313 l 1.3125,0 c 1.20232,0 2.24939,0.065 3.40625,0 3.49997,-0.2188 6.98729,-1.1125 10.46875,-4.5937 l 18.90625,-18.9063 c 1.44352,-1.4439 2.72222,-2.2826 3.9375,-3.0625 a 0.41822345,0.41822345 0 0 1 0.5,0.031 c 2.95484,2.5516 5.77471,7.8203 11.125,17.0938 l 8.5,0 c -3.8073,-6.6134 -6.33387,-11.233 -8.375,-14.0625 -1.05748,-1.4659 -1.99195,-2.4582 -2.9375,-3.0937 -0.94555,-0.6356 -1.88468,-0.9376 -3.03125,-0.9376 l -9.875,0 z"
       id="path3014" />
    <path
       inkscape:connector-curvature="0"
       style="font-size:69.37084198px;font-style:normal;font-variant:normal;font-weight:normal;font-stretch:normal;text-align:start;line-height:125%;letter-spacing:0px;word-spacing:0px;writing-mode:lr-tb;text-anchor:start;fill:url(#linearGradient3264-7);fill-opacity:1;stroke:none;font-family:Baumans;-inkscape-font-specification:Baumans"
       d="m 355.87358,3199.4815 c -2.13505,0 -3.875,1.7399 -3.875,3.875 0,2.1354 1.73995,3.8438 3.875,3.8438 2.13505,0 3.84375,-1.7088 3.84375,-3.8438 0,-2.1351 -1.7087,-3.875 -3.84375,-3.875 z m 49.5625,7.5938 c -4.80972,1e-4 -8.84146,1.6865 -12.125,5.0625 -3.23732,3.3298 -4.87501,7.4253 -4.875,12.2812 -1e-5,4.9485 1.55768,9.0765 4.65625,12.4063 3.09856,3.2836 7.2103,4.9375 12.34375,4.9375 4.11598,0 7.77766,-1.3165 10.96875,-3.9063 l -4.15625,-4.0937 c -1.84992,1.4337 -4.13018,2.1562 -6.8125,2.1562 -3.19107,0 -5.72888,-1.0439 -7.625,-3.125 -1.8499,-2.1274 -2.78126,-4.9064 -2.78125,-8.375 -1e-5,-3.4685 0.93135,-6.2625 2.78125,-8.3437 1.89612,-2.1273 4.43393,-3.1875 7.625,-3.1875 2.63607,0 4.93259,0.7389 6.875,2.2187 l 4.09375,-4.1562 c -3.19109,-2.5898 -6.85277,-3.8749 -10.96875,-3.875 z m 12.25,0.6875 0,33.2812 6.09375,0 0,-27.4687 12.125,0 0,27.4687 6.125,0 0,-27.4687 2.84375,0 c 3.37601,0 5.60878,0.305 6.71875,0.9062 2.17358,1.1562 3.28121,3.549 3.28125,7.1563 l 0,19.4062 6.09375,0 0,-19.4062 c -4e-5,-2.7748 -0.32133,-5.1676 -0.96875,-7.1563 -0.60126,-1.9886 -1.91767,-3.5949 -3.90625,-4.8437 -1.94243,-1.2486 -4.52898,-1.8749 -7.8125,-1.875 l -30.59375,0 z m 56,0 c -3.09858,1e-4 -5.73263,0.755 -7.90625,2.2812 -2.17362,1.4799 -3.28126,3.6477 -3.28125,6.4688 -1e-5,2.2198 0.62632,4.0676 1.875,5.5937 1.29491,1.4799 2.8526,2.5876 4.65625,3.2813 1.84988,0.6475 3.66509,1.21 5.46875,1.7187 1.84987,0.5087 3.40755,1.1351 4.65625,1.875 1.2949,0.74 1.93748,1.6714 1.9375,2.7813 -2e-5,2.3124 -2.15278,3.4687 -6.5,3.4687 l -12,0 0,5.8125 12,0 c 8.50947,0 12.74997,-3.084 12.75,-9.2812 -3e-5,-0.8786 -0.0963,-1.7463 -0.28125,-2.625 -0.18501,-0.925 -0.61882,-1.8563 -1.3125,-2.7813 -0.64749,-0.9712 -1.5951,-1.7262 -2.84375,-2.2812 -1.2487,-0.555 -3.16017,-1.2614 -5.75,-2.0938 -2.58986,-0.8325 -4.06754,-1.282 -4.4375,-1.375 -0.32375,-0.1387 -0.8213,-0.3475 -1.46875,-0.625 -0.60122,-0.3237 -1.05128,-0.6287 -1.375,-0.9062 -0.27749,-0.2775 -0.55003,-0.6462 -0.78125,-1.0625 -0.23125,-0.4624 -0.34376,-0.945 -0.34375,-1.5 -1e-5,-0.925 0.49755,-1.6476 1.46875,-2.1563 0.97118,-0.5087 2.12757,-0.7812 3.46875,-0.7812 l 12.28125,0 0,-5.8125 -12.28125,0 z m -122.125,2.125 c -0.56253,-0.01 -1.12546,0 -1.71875,0.031 -3.55577,0.2223 -7.16338,1.1636 -10.71875,4.7188 l -22.96875,22.9375 c -1.41279,1.4132 -2.62939,2.2206 -3.84375,3 -2.86129,-2.4707 -5.74352,-7.7264 -11.1875,-17.1563 l -9.4375,0 c 8.09056,14.0133 10.16469,18.875 15.03125,18.875 l 9.875,0 c 4.41137,0 5.96163,-1.6488 9.03125,-4.7187 l 22.9375,-22.9375 c 3.55577,-3.5553 6.70315,-4.4965 10.3125,-4.7188 l -5.59375,0 c -0.5933,0 -1.15622,-0.023 -1.71875,-0.031 z m 10.125,4.0625 c -4.41137,0 -5.93037,1.6489 -9,4.7187 l -18.90625,18.9063 c -3.55577,3.5554 -6.70355,4.4964 -10.3125,4.7187 l 5.59375,0 c 1.18658,0 2.25092,0.067 3.4375,0 3.55576,-0.2222 7.16337,-1.1635 10.71875,-4.7187 l 18.90625,-18.9063 c 1.41278,-1.4132 2.66064,-2.2206 3.875,-3 2.86128,2.4708 5.71188,7.7577 11.15625,17.1875 l 9.46875,0 c -8.09057,-14.0133 -10.19594,-18.9062 -15.0625,-18.9062 l -9.875,0 z"
       id="path3210" />
    <path
       inkscape:connector-curvature="0"
       style="font-size:15.72906113px;font-style:italic;font-variant:normal;font-weight:normal;font-stretch:normal;text-align:start;line-height:125%;letter-spacing:0px;word-spacing:0px;writing-mode:lr-tb;text-anchor:start;fill:#000000;fill-opacity:1;stroke:none;font-family:Federo;-inkscape-font-specification:Federo Italic"
       d="m 370.21733,3246.169 -2.28125,11.4063 3.65625,0 c 0.8141,0 1.49981,-0.076 2.09375,-0.25 0.59393,-0.1792 1.0955,-0.4428 1.5,-0.75 0.4096,-0.3072 0.73322,-0.6478 0.96875,-1.0625 0.23552,-0.4148 0.4027,-0.8676 0.5,-1.3438 0.18943,-0.9523 0.0546,-1.7288 -0.40625,-2.3125 -0.4557,-0.5889 -1.265,-0.9509 -2.4375,-1.125 l 0,-0.031 c 0.50177,-0.061 0.92283,-0.1742 1.28125,-0.3125 0.36352,-0.1433 0.67071,-0.3105 0.90625,-0.5 0.24064,-0.1946 0.42937,-0.3945 0.5625,-0.625 0.13312,-0.2304 0.23005,-0.4782 0.28125,-0.7188 0.0713,-0.3636 0.0768,-0.6717 0,-0.9687 -0.0768,-0.2969 -0.25936,-0.5714 -0.5,-0.7813 -0.24066,-0.2099 -0.57504,-0.356 -1,-0.4687 -0.41986,-0.1129 -0.91684,-0.1563 -1.53125,-0.1563 l -3.59375,0 z m 39.09375,0 -2.28125,11.4063 1.5625,0 1.21875,-6.0313 c 0.47617,-0.1997 0.89158,-0.3452 1.25,-0.4062 0.3584,-0.067 0.64512,-0.094 0.90625,-0.094 0.15872,0 0.2828,0.033 0.375,0.094 0.0922,0.056 0.17775,0.1267 0.21875,0.2187 0.0409,0.092 0.0625,0.1948 0.0625,0.3125 0,0.1178 -0.0108,0.2312 -0.0312,0.3438 l -1.125,5.5625 1.5625,0 1.1562,-5.7813 c 0.11264,-0.5581 0.0798,-0.9678 -0.125,-1.2187 -0.20482,-0.2509 -0.54996,-0.375 -1.03125,-0.375 -0.19457,0 -0.40996,0.01 -0.625,0.031 -0.20993,0.02 -0.43662,0.064 -0.6875,0.125 -0.2509,0.056 -0.51553,0.1218 -0.8125,0.2188 -0.29697,0.092 -0.61547,0.2317 -0.96875,0.375 l 0.9375,-4.7813 -1.5625,0 z m 19.0625,0 -2.28125,11.4063 1.53125,0 1.21875,-6.0313 c 0.47617,-0.1997 0.89159,-0.3452 1.25,-0.4062 0.35841,-0.067 0.67636,-0.094 0.9375,-0.094 0.15871,0 0.2828,0.033 0.375,0.094 0.0922,0.056 0.1465,0.1267 0.1875,0.2187 0.0409,0.092 0.0625,0.1948 0.0625,0.3125 0,0.1178 -0.0108,0.2312 -0.0312,0.3438 l -1.09375,5.5625 1.5625,0 1.15625,-5.7813 c 0.11264,-0.5581 0.0486,-0.9678 -0.15625,-1.2187 -0.20481,-0.2509 -0.54996,-0.375 -1.03125,-0.375 -0.19457,0 -0.37871,0.01 -0.59375,0.031 -0.20993,0.02 -0.43662,0.064 -0.6875,0.125 -0.25089,0.056 -0.54679,0.1218 -0.84375,0.2188 -0.29698,0.092 -0.61546,0.2317 -0.96875,0.375 l 0.9375,-4.7813 -1.53125,0 z m 26.40625,0 -0.90625,4.5625 c -0.26625,-0.1741 -0.53655,-0.3192 -0.84375,-0.4062 -0.30722,-0.086 -0.58775,-0.125 -0.84375,-0.125 -0.65026,0 -1.23799,0.071 -1.75,0.25 -0.5069,0.174 -0.93873,0.4377 -1.3125,0.75 -0.36865,0.3072 -0.67073,0.6636 -0.90625,1.0937 -0.23553,0.425 -0.42884,0.9046 -0.53125,1.4063 -0.0666,0.338 -0.0836,0.6461 -0.0937,0.9687 -0.005,0.3226 0.017,0.6457 0.0937,0.9375 0.0819,0.2867 0.22705,0.5406 0.40625,0.7813 0.17921,0.2406 0.41154,0.4457 0.71875,0.625 0.30721,0.174 0.68467,0.3092 1.125,0.4062 0.44545,0.097 0.98445,0.1563 1.59375,0.1563 l 2.53125,0 2.28125,-11.4063 -1.5625,0 z m 9.25,0 -2.28125,11.4063 1.5625,0 1.1875,-6.0313 c 0.47617,-0.1997 0.89159,-0.3452 1.25,-0.4062 0.35841,-0.067 0.67637,-0.094 0.9375,-0.094 0.15872,0 0.2828,0.033 0.375,0.094 0.0922,0.056 0.17775,0.1267 0.21875,0.2187 0.0409,0.092 0.0625,0.1948 0.0625,0.3125 0,0.1178 -0.0108,0.2312 -0.0312,0.3438 l -1.125,5.5625 1.5625,0 1.15625,-5.7813 c 0.11263,-0.5581 0.0798,-0.9678 -0.125,-1.2187 -0.20482,-0.2509 -0.54997,-0.375 -1.03125,-0.375 -0.19457,0 -0.40996,0.01 -0.625,0.031 -0.20993,0.02 -0.43662,0.064 -0.6875,0.125 -0.25089,0.056 -0.51554,0.1218 -0.8125,0.2188 -0.29697,0.092 -0.64671,0.2317 -1,0.375 l 0.96875,-4.7813 -1.5625,0 z m -92.25,0.75 1.125,0 c 0.384,0 0.73428,0.01 1.03125,0.062 0.29697,0.051 0.5293,0.1533 0.71875,0.2813 0.18944,0.128 0.33455,0.2849 0.40625,0.5 0.0717,0.2099 0.0614,0.4688 0,0.7812 -0.0666,0.3379 -0.16968,0.6446 -0.34375,0.875 -0.1741,0.2304 -0.37412,0.4192 -0.625,0.5625 -0.2509,0.1383 -0.55756,0.2465 -0.875,0.3125 -0.31234,0.061 -0.64672,0.062 -1,0.062 l -1.15625,0 0.71875,-3.4375 z m 34.875,0.625 -1.5625,0.4375 -0.5,2.375 -1,0 -0.125,0.6875 1,0 -1.3125,6.5313 1.46875,0 1.3125,-6.5313 1.03125,0 0.15625,-0.6875 -1.03125,0 0.5625,-2.8125 z m 65,0.6563 -0.1875,0.9375 1.5625,0 0.1875,-0.9375 -1.5625,0 z m -81.46875,2 c -0.10241,0 -0.20498,0.01 -0.3125,0.031 -0.10753,0.02 -0.23676,0.069 -0.375,0.125 -0.13313,0.051 -0.29467,0.095 -0.46875,0.1875 -0.17409,0.092 -0.36334,0.2317 -0.59375,0.375 l 0.0937,-0.5937 -1.5625,0 -1.4375,7.25 1.5625,0 1.21875,-6.0938 c 0.21504,-0.1076 0.40889,-0.204 0.5625,-0.25 0.15872,-0.046 0.29872,-0.062 0.40625,-0.062 0.18432,0 0.28745,0.065 0.34375,0.2188 0.0563,0.1537 0.0881,0.4126 0.0625,0.7812 l 1.40625,-0.375 c 0.0666,-0.5069 0.0496,-0.911 -0.0937,-1.1875 -0.13825,-0.2765 -0.41313,-0.4062 -0.8125,-0.4062 z m 6.9375,0 c -0.19458,0 -0.40996,0.01 -0.625,0.031 -0.20993,0.02 -0.43662,0.064 -0.6875,0.125 -0.25089,0.056 -0.51554,0.1218 -0.8125,0.2188 -0.29697,0.092 -0.61546,0.2317 -0.96875,0.375 l 0.0937,-0.5938 -1.5625,0 -1.4375,7.2188 1.5625,0 1.21875,-6.0313 c 0.47617,-0.1997 0.86546,-0.3452 1.21875,-0.4062 0.35841,-0.067 0.67636,-0.094 0.9375,-0.094 0.15872,0 0.2828,0.033 0.375,0.094 0.0922,0.056 0.17775,0.1267 0.21875,0.2187 0.0461,0.092 0.0625,0.1948 0.0625,0.3125 0,0.1178 -0.0108,0.2312 -0.0312,0.3438 l -1.125,5.5625 1.5625,0 1.15625,-5.7813 c 0.11263,-0.5581 0.0798,-0.9678 -0.125,-1.2187 -0.20481,-0.2509 -0.54997,-0.375 -1.03125,-0.375 z m 22.375,0 c -0.54786,0 -1.06532,0.1026 -1.53125,0.3125 -0.46081,0.2049 -0.86034,0.4643 -1.21875,0.8125 -0.35841,0.3431 -0.66561,0.7682 -0.90625,1.2187 -0.24065,0.4506 -0.4027,0.8937 -0.5,1.375 -0.1178,0.5786 -0.16035,1.1119 -0.0937,1.5625 0.0717,0.4505 0.25989,0.8127 0.53125,1.125 0.27649,0.3123 0.63858,0.5549 1.125,0.7188 0.4864,0.1637 1.09568,0.25 1.8125,0.25 l 1.625,0 0.125,-0.625 -1.59375,0 c -0.4813,0 -0.86441,-0.097 -1.15625,-0.2813 -0.29185,-0.1895 -0.5339,-0.4371 -0.6875,-0.7187 -0.14849,-0.2816 -0.2244,-0.5735 -0.25,-0.9063 -0.0256,-0.3328 -0.025,-0.6508 0.0312,-0.9375 l 4.75,0 0.0625,-0.3437 c 0.0922,-0.4762 0.1404,-0.9501 0.125,-1.375 -0.0102,-0.4301 -0.0862,-0.7973 -0.25,-1.125 -0.16385,-0.3277 -0.42744,-0.5919 -0.75,-0.7813 -0.32258,-0.1948 -0.72775,-0.2812 -1.25,-0.2812 z m 19.15625,0 c -0.41986,0 -0.86246,0.022 -1.34375,0.094 -0.4813,0.066 -0.97669,0.1851 -1.4375,0.3438 l 0.0937,0.5 c 0.13313,-0.036 0.27312,-0.063 0.40625,-0.094 0.13824,-0.036 0.28389,-0.068 0.4375,-0.094 0.1536,-0.025 0.31567,-0.047 0.5,-0.062 0.18432,-0.013 0.41048,-0.031 0.65625,-0.031 0.38912,0 0.69632,0.033 0.90625,0.094 0.20992,0.061 0.3505,0.153 0.4375,0.25 0.0922,0.092 0.12499,0.1897 0.125,0.3125 0,0.1178 -0.0108,0.226 -0.0312,0.3437 l -0.1875,0.9688 c -0.26625,-0.1741 -0.53655,-0.288 -0.84375,-0.375 -0.30721,-0.087 -0.58775,-0.1563 -0.84375,-0.1563 -0.47106,0 -0.91825,0.07 -1.3125,0.1875 -0.38913,0.1126 -0.72916,0.2748 -1.03125,0.5 -0.29697,0.2202 -0.54519,0.5161 -0.75,0.8438 -0.19968,0.3277 -0.3505,0.6949 -0.4375,1.125 -0.0665,0.3482 -0.0768,0.6826 0,1 0.0819,0.3124 0.27524,0.5979 0.53125,0.8437 0.26112,0.2406 0.60681,0.4191 1.0625,0.5625 0.45569,0.143 1.03265,0.2188 1.71875,0.2188 l 2.53125,0 1.125,-5.6875 c 0.0666,-0.3277 0.0932,-0.5975 0.0625,-0.8125 -0.0307,-0.2202 -0.14354,-0.372 -0.3125,-0.5 -0.16897,-0.1331 -0.41208,-0.2253 -0.75,-0.2813 -0.33281,-0.056 -0.7749,-0.094 -1.3125,-0.094 z m 7.84375,0 c -0.10241,0 -0.20498,0.01 -0.3125,0.031 -0.10752,0.02 -0.23676,0.069 -0.375,0.125 -0.13312,0.051 -0.29467,0.095 -0.46875,0.1875 -0.17409,0.092 -0.36335,0.2317 -0.59375,0.375 l 0.0937,-0.5937 -1.5625,0 -1.4375,7.25 1.5625,0 1.2188,-6.0938 c 0.21504,-0.1076 0.40889,-0.204 0.5625,-0.25 0.15872,-0.046 0.29872,-0.062 0.40625,-0.062 0.18432,0 0.28745,0.065 0.34375,0.2188 0.0563,0.1537 0.0881,0.4126 0.0625,0.7812 l 1.40625,-0.375 c 0.0666,-0.5069 0.0496,-0.911 -0.0937,-1.1875 -0.13825,-0.2765 -0.41313,-0.4062 -0.8125,-0.4062 z m 13,0 c -0.32257,0 -0.6144,0.017 -0.90625,0.062 -0.28673,0.041 -0.55084,0.1112 -0.78125,0.2187 -0.22529,0.1024 -0.40378,0.2323 -0.5625,0.4063 -0.15361,0.1741 -0.2613,0.3951 -0.3125,0.6562 -0.031,0.1588 -0.0466,0.3095 -0.0312,0.4375 0.0205,0.128 0.0636,0.2629 0.125,0.4063 0.0614,0.1434 0.13735,0.3157 0.25,0.5 0.11776,0.1844 0.27877,0.4161 0.4375,0.6875 l 0.62495,0.9062 c 0.21504,0.297 0.393,0.5667 0.53125,0.8125 0.13824,0.2458 0.1711,0.4935 0.125,0.7188 -0.0666,0.3226 -0.22352,0.5497 -0.5,0.7187 -0.27137,0.1694 -0.64371,0.25 -1.125,0.25 -0.29185,0 -0.5565,-0.054 -0.8125,-0.1562 -0.25601,-0.1075 -0.50883,-0.2209 -0.71875,-0.3438 l -0.1875,0.7188 c 0.26113,0.1741 0.55755,0.283 0.875,0.375 0.31744,0.097 0.68978,0.1562 1.125,0.1562 0.31232,0 0.61493,-0.027 0.9375,-0.094 0.32257,-0.067 0.62976,-0.1953 0.90625,-0.3438 0.27648,-0.1536 0.51906,-0.3269 0.71875,-0.5625 0.19968,-0.2355 0.33455,-0.537 0.40625,-0.875 0.0307,-0.174 0.0199,-0.3259 -0.0312,-0.5 -0.0461,-0.1792 -0.12145,-0.3833 -0.21875,-0.5625 -0.0973,-0.1792 -0.21063,-0.3469 -0.34375,-0.5312 -0.13313,-0.1895 -0.27313,-0.3941 -0.40625,-0.5938 l -0.625,-0.9375 c -0.20481,-0.2816 -0.3556,-0.4981 -0.4375,-0.6875 -0.0815,-0.1894 -0.11935,-0.3668 -0.0937,-0.5 0.0205,-0.1177 0.0744,-0.1992 0.15625,-0.2812 0.087,-0.082 0.20498,-0.1415 0.3125,-0.1875 0.10752,-0.052 0.20497,-0.104 0.3125,-0.125 0.11264,-0.021 0.20445,-0.031 0.28125,-0.031 0.36352,0 0.68149,0.028 0.9375,0.094 0.256,0.067 0.49346,0.163 0.71875,0.25 l 0.125,-0.6875 c -0.15873,-0.057 -0.27825,-0.1103 -0.40625,-0.1563 -0.128,-0.046 -0.27313,-0.089 -0.40625,-0.125 -0.13312,-0.036 -0.27878,-0.048 -0.4375,-0.062 -0.15361,-0.021 -0.34746,-0.031 -0.5625,-0.031 z m 18.75,0 c -0.26114,0 -0.58933,0.038 -0.9375,0.125 -0.34305,0.087 -0.67231,0.227 -1,0.4062 l 0.0937,-0.375 -1.5625,0 -2.09375,10.4375 1.65625,-0.4375 0.53125,-2.7812 1,0 c 0.91138,0 1.67759,-0.097 2.3125,-0.3125 0.64001,-0.2151 1.17901,-0.5166 1.59375,-0.875 0.41984,-0.3584 0.74346,-0.7529 0.96875,-1.2188 0.2304,-0.4711 0.39759,-0.9618 0.5,-1.4687 0.1024,-0.5017 0.129,-0.9813 0.0625,-1.4063 -0.0615,-0.4301 -0.21788,-0.7865 -0.46875,-1.0937 -0.24578,-0.3123 -0.59093,-0.576 -1.03125,-0.75 -0.43522,-0.1788 -0.97475,-0.25 -1.625,-0.25 z m 7.28125,0 c -0.32258,0 -0.6144,0.017 -0.90625,0.062 -0.28673,0.041 -0.55085,0.1112 -0.78125,0.2187 -0.22529,0.1024 -0.43503,0.2323 -0.59375,0.4063 -0.15361,0.1741 -0.23005,0.3951 -0.28125,0.6562 -0.031,0.1588 -0.0466,0.3095 -0.0312,0.4375 0.0205,0.128 0.0636,0.2629 0.125,0.4063 0.0614,0.1434 0.13735,0.3157 0.25,0.5 0.11776,0.1844 0.24752,0.4161 0.40625,0.6875 l 0.6562,0.9062 c 0.21505,0.297 0.393,0.5667 0.53125,0.8125 0.13824,0.2458 0.1711,0.4935 0.125,0.7188 -0.0666,0.3226 -0.22352,0.5497 -0.5,0.7187 -0.27137,0.1694 -0.64371,0.25 -1.125,0.25 -0.29185,0 -0.58775,-0.054 -0.84375,-0.1562 -0.25601,-0.1075 -0.47758,-0.2209 -0.6875,-0.3438 l -0.21875,0.7188 c 0.26113,0.1741 0.55755,0.283 0.875,0.375 0.31744,0.097 0.68978,0.1562 1.125,0.1562 0.31232,0 0.64618,-0.027 0.96875,-0.094 0.32257,-0.067 0.62975,-0.1953 0.90625,-0.3438 0.27648,-0.1536 0.48781,-0.3269 0.6875,-0.5625 0.19968,-0.2355 0.33455,-0.537 0.40625,-0.875 0.0307,-0.174 0.0199,-0.3259 -0.0312,-0.5 -0.0461,-0.1792 -0.0902,-0.3833 -0.1875,-0.5625 -0.0973,-0.1792 -0.21063,-0.3469 -0.34375,-0.5312 -0.13313,-0.1895 -0.27313,-0.3941 -0.40625,-0.5938 l -0.6563,-0.9375 c -0.20481,-0.2816 -0.32435,-0.4981 -0.40625,-0.6875 -0.0815,-0.1894 -0.11935,-0.3668 -0.0937,-0.5 0.0205,-0.1177 0.0744,-0.1992 0.15625,-0.2812 0.087,-0.082 0.17372,-0.1415 0.28125,-0.1875 0.10752,-0.052 0.20497,-0.104 0.3125,-0.125 0.11264,-0.021 0.2357,-0.031 0.3125,-0.031 0.36352,0 0.65024,0.028 0.90625,0.094 0.256,0.067 0.49346,0.163 0.71875,0.25 l 0.15625,-0.6875 c -0.15873,-0.057 -0.3095,-0.1103 -0.4375,-0.1563 -0.12801,-0.046 -0.24188,-0.089 -0.375,-0.125 -0.13313,-0.036 -0.27878,-0.048 -0.4375,-0.062 -0.15361,-0.021 -0.34746,-0.031 -0.5625,-0.031 z m -106.625,0.125 -1.15625,5.8125 c -0.11265,0.5581 -0.0434,0.9678 0.15625,1.2187 0.2048,0.2458 0.54995,0.3438 1.03125,0.3438 0.18944,0 0.37871,-0.01 0.59375,-0.031 0.21505,-0.02 0.43661,-0.038 0.6875,-0.094 0.25089,-0.056 0.52065,-0.158 0.8125,-0.25 0.29697,-0.097 0.63647,-0.2005 1,-0.3438 l -0.125,0.5938 1.5625,0 1.4375,-7.25 -1.5625,0 -1.1875,6.0625 c -0.47617,0.1997 -0.89159,0.308 -1.25,0.375 -0.35841,0.061 -0.67638,0.094 -0.9375,0.094 -0.16385,0 -0.2828,-0.01 -0.375,-0.062 -0.087,-0.062 -0.1465,-0.158 -0.1875,-0.25 -0.0409,-0.092 -0.0625,-0.1999 -0.0625,-0.3125 0,-0.1178 0.006,-0.226 0.0312,-0.3437 l 1.09375,-5.5625 -1.5625,0 z m 92.3125,0.031 -1.4375,7.2188 1.5625,0 1.4375,-7.2188 -1.5625,0 z m -19.03125,0.4688 c 0.32257,0 0.6241,0.048 0.875,0.125 0.256,0.072 0.50369,0.1953 0.71875,0.3437 l -1.15625,5.6563 -0.96875,0 c -0.4557,0 -0.84905,-0.075 -1.15625,-0.1875 -0.30721,-0.1127 -0.56568,-0.2531 -0.75,-0.4375 -0.18433,-0.1894 -0.31405,-0.3946 -0.40625,-0.625 -0.0871,-0.2356 -0.13065,-0.4782 -0.15625,-0.7188 -0.0205,-0.2458 -0.0205,-0.4622 0,-0.6875 0.0256,-0.2304 0.058,-0.4509 0.0937,-0.625 0.0717,-0.3738 0.16966,-0.7245 0.34375,-1.0625 0.17408,-0.343 0.40536,-0.6451 0.65625,-0.9062 0.25601,-0.2612 0.55242,-0.4714 0.875,-0.625 0.32768,-0.1591 0.65236,-0.25 1.03125,-0.25 z m 25.75,0 c 0.384,0 0.70762,0.091 0.96875,0.25 0.26624,0.1536 0.47651,0.3638 0.625,0.625 0.1536,0.2611 0.24535,0.5632 0.28125,0.9062 0.0358,0.338 0.0404,0.6887 -0.0312,1.0625 -0.0359,0.1741 -0.1158,0.3946 -0.1875,0.625 -0.0666,0.2253 -0.15837,0.4417 -0.28125,0.6875 -0.11777,0.2406 -0.25318,0.4832 -0.4375,0.7188 -0.17921,0.2304 -0.42125,0.4356 -0.6875,0.625 -0.26113,0.1844 -0.55297,0.3248 -0.90625,0.4375 -0.34817,0.113 -0.75794,0.1875 -1.21875,0.1875 l -1,0 1.15625,-5.6563 c 0.27136,-0.1485 0.53601,-0.2667 0.8125,-0.3437 0.28161,-0.077 0.57855,-0.125 0.90625,-0.125 z m -58.65625,0.062 c 0.28672,1e-4 0.50264,0.06 0.65625,0.1875 0.15871,0.1228 0.27715,0.29 0.34375,0.5 0.0666,0.2099 0.10395,0.4473 0.0937,0.7187 -0.0103,0.2714 -0.0426,0.578 -0.0937,0.875 l -0.0937,0.3125 -3.25,0 c 0.0768,-0.338 0.1845,-0.6564 0.3125,-0.9687 0.13312,-0.3175 0.30543,-0.577 0.5,-0.8125 0.19456,-0.2406 0.40535,-0.4504 0.65625,-0.5938 0.256,-0.1431 0.55754,-0.2186 0.875,-0.2187 z m -48.34375,0.25 0.46875,0 c 0.60417,0 1.15906,0.038 1.625,0.1562 0.47105,0.1178 0.82803,0.2907 1.125,0.5313 0.29696,0.2407 0.51235,0.5586 0.625,0.9375 0.1127,0.3738 0.13364,0.8317 0.0312,1.3437 -0.087,0.425 -0.23783,0.7871 -0.4375,1.125 -0.19458,0.338 -0.45304,0.6395 -0.75,0.875 -0.29698,0.2356 -0.63701,0.4085 -1.03125,0.5313 -0.38914,0.1234 -0.80508,0.1875 -1.28125,0.1875 l -1.53125,0 1.15625,-5.6875 z m 66.59375,1.8125 c 0.32256,0 0.62411,0.022 0.875,0.094 0.256,0.072 0.47245,0.1953 0.6875,0.3438 l -0.6875,3.5625 -1.03125,0 c -0.36353,0 -0.67073,-0.048 -0.90625,-0.125 -0.23041,-0.082 -0.42426,-0.1845 -0.5625,-0.3125 -0.13824,-0.128 -0.21985,-0.2526 -0.28125,-0.4063 -0.0563,-0.1587 -0.1096,-0.3151 -0.125,-0.4687 -0.01,-0.1536 0.0159,-0.3044 0.0312,-0.4375 0.0205,-0.1332 0.0159,-0.2618 0.0312,-0.3438 0.0614,-0.2867 0.16861,-0.5457 0.28125,-0.7812 0.11776,-0.2355 0.2424,-0.4249 0.40625,-0.5938 0.16896,-0.169 0.3787,-0.3142 0.59375,-0.4062 0.21504,-0.092 0.43149,-0.125 0.6875,-0.125 z"
       id="path3217" />
    <path
       inkscape:connector-curvature="0"
       style="font-size:15.72906113px;font-style:italic;font-variant:normal;font-weight:normal;font-stretch:normal;text-align:start;line-height:125%;letter-spacing:0px;word-spacing:0px;writing-mode:lr-tb;text-anchor:start;fill:#699cd8;fill-opacity:0.40803576;stroke:none;font-family:Federo;-inkscape-font-specification:Federo Italic"
       d="m 370.21733,3246.1693 -2.28125,11.4062 3.65625,0 c 0.8141,0 1.49981,-0.076 2.09375,-0.25 0.59393,-0.1792 1.0955,-0.4427 1.5,-0.75 0.4096,-0.3072 0.73322,-0.6478 0.96875,-1.0625 0.23552,-0.4148 0.4027,-0.8675 0.5,-1.3437 0.18943,-0.9523 0.0546,-1.7288 -0.40625,-2.3125 -0.4557,-0.5889 -1.265,-0.9509 -2.4375,-1.125 l 0,-0.031 c 0.50177,-0.061 0.92283,-0.1742 1.28125,-0.3125 0.36352,-0.1433 0.67071,-0.3105 0.90625,-0.5 0.24064,-0.1945 0.42937,-0.3944 0.5625,-0.625 0.13312,-0.2303 0.23005,-0.4781 0.28125,-0.7187 0.0713,-0.3636 0.0768,-0.6718 0,-0.9688 -0.0768,-0.2968 -0.25936,-0.5713 -0.5,-0.7812 -0.24066,-0.2099 -0.57504,-0.356 -1,-0.4688 -0.41986,-0.1129 -0.91684,-0.1562 -1.53125,-0.1562 l -3.59375,0 z m 39.09375,0 -2.28125,11.4062 1.5625,0 1.21875,-6.0312 c 0.47617,-0.1997 0.89158,-0.3452 1.25,-0.4063 0.3584,-0.067 0.64512,-0.094 0.90625,-0.094 0.15872,0 0.2828,0.033 0.375,0.094 0.0922,0.056 0.17775,0.1268 0.21875,0.2188 0.0409,0.092 0.0625,0.1948 0.0625,0.3125 0,0.1178 -0.0108,0.2311 -0.0312,0.3437 l -1.125,5.5625 1.5625,0 1.1562,-5.7812 c 0.11264,-0.5581 0.0798,-0.9679 -0.125,-1.2188 -0.20482,-0.2509 -0.54996,-0.375 -1.03125,-0.375 -0.19457,0 -0.40996,0.01 -0.625,0.031 -0.20993,0.02 -0.43662,0.064 -0.6875,0.125 -0.2509,0.056 -0.51553,0.1217 -0.8125,0.2187 -0.29697,0.092 -0.61547,0.2317 -0.96875,0.375 l 0.9375,-4.7812 -1.5625,0 z m 19.0625,0 -2.28125,11.4062 1.53125,0 1.21875,-6.0312 c 0.47617,-0.1997 0.89159,-0.3452 1.25,-0.4063 0.35841,-0.067 0.67636,-0.094 0.9375,-0.094 0.15871,0 0.2828,0.033 0.375,0.094 0.0922,0.056 0.1465,0.1268 0.1875,0.2188 0.0409,0.092 0.0625,0.1948 0.0625,0.3125 0,0.1178 -0.0108,0.2311 -0.0312,0.3437 l -1.09375,5.5625 1.5625,0 1.15625,-5.7812 c 0.11264,-0.5581 0.0486,-0.9679 -0.15625,-1.2188 -0.20481,-0.2509 -0.54996,-0.375 -1.03125,-0.375 -0.19457,0 -0.37871,0.01 -0.59375,0.031 -0.20993,0.02 -0.43662,0.064 -0.6875,0.125 -0.25089,0.056 -0.54679,0.1217 -0.84375,0.2187 -0.29698,0.092 -0.61546,0.2317 -0.96875,0.375 l 0.9375,-4.7812 -1.53125,0 z m 26.40625,0 -0.90625,4.5625 c -0.26625,-0.1741 -0.53655,-0.3193 -0.84375,-0.4063 -0.30722,-0.086 -0.58775,-0.125 -0.84375,-0.125 -0.65026,0 -1.23799,0.071 -1.75,0.25 -0.5069,0.174 -0.93873,0.4377 -1.3125,0.75 -0.36865,0.3073 -0.67073,0.6637 -0.90625,1.0938 -0.23553,0.425 -0.42884,0.9046 -0.53125,1.4062 -0.0666,0.3381 -0.0836,0.6462 -0.0937,0.9688 -0.005,0.3226 0.017,0.6457 0.0937,0.9375 0.0819,0.2867 0.22705,0.5406 0.40625,0.7812 0.17921,0.2407 0.41154,0.4458 0.71875,0.625 0.30721,0.174 0.68467,0.3093 1.125,0.4063 0.44545,0.097 0.98445,0.1562 1.59375,0.1562 l 2.53125,0 2.28125,-11.4062 -1.5625,0 z m 9.25,0 -2.28125,11.4062 1.5625,0 1.1875,-6.0312 c 0.47617,-0.1997 0.89159,-0.3452 1.25,-0.4063 0.35841,-0.067 0.67637,-0.094 0.9375,-0.094 0.15872,0 0.2828,0.033 0.375,0.094 0.0922,0.056 0.17775,0.1268 0.21875,0.2188 0.0409,0.092 0.0625,0.1948 0.0625,0.3125 0,0.1178 -0.0108,0.2311 -0.0312,0.3437 l -1.125,5.5625 1.5625,0 1.15625,-5.7812 c 0.11263,-0.5581 0.0798,-0.9679 -0.125,-1.2188 -0.20482,-0.2509 -0.54997,-0.375 -1.03125,-0.375 -0.19457,0 -0.40996,0.01 -0.625,0.031 -0.20993,0.02 -0.43662,0.064 -0.6875,0.125 -0.25089,0.056 -0.51554,0.1217 -0.8125,0.2187 -0.29697,0.092 -0.64671,0.2317 -1,0.375 l 0.96875,-4.7812 -1.5625,0 z m -92.25,0.75 1.125,0 c 0.384,0 0.73428,0.01 1.03125,0.062 0.29697,0.051 0.5293,0.1532 0.71875,0.2812 0.18944,0.1281 0.33455,0.285 0.40625,0.5 0.0717,0.2099 0.0614,0.4689 0,0.7813 -0.0666,0.3379 -0.16968,0.6446 -0.34375,0.875 -0.1741,0.2304 -0.37412,0.4192 -0.625,0.5625 -0.2509,0.1383 -0.55756,0.2465 -0.875,0.3125 -0.31234,0.061 -0.64672,0.062 -1,0.062 l -1.15625,0 0.71875,-3.4375 z m 34.875,0.625 -1.5625,0.4375 -0.5,2.375 -1,0 -0.125,0.6875 1,0 -1.3125,6.5312 1.46875,0 1.3125,-6.5312 1.03125,0 0.15625,-0.6875 -1.03125,0 0.5625,-2.8125 z m 65,0.6562 -0.1875,0.9375 1.5625,0 0.1875,-0.9375 -1.5625,0 z m -81.46875,2 c -0.10241,0 -0.20498,0.01 -0.3125,0.031 -0.10753,0.02 -0.23676,0.069 -0.375,0.125 -0.13313,0.051 -0.29467,0.096 -0.46875,0.1875 -0.17409,0.092 -0.36334,0.2317 -0.59375,0.375 l 0.0937,-0.5938 -1.5625,0 -1.4375,7.25 1.5625,0 1.21875,-6.0937 c 0.21504,-0.1076 0.40889,-0.204 0.5625,-0.25 0.15872,-0.046 0.29872,-0.062 0.40625,-0.062 0.18432,0 0.28745,0.065 0.34375,0.2187 0.0563,0.1537 0.0881,0.4127 0.0625,0.7813 l 1.40625,-0.375 c 0.0666,-0.5069 0.0496,-0.911 -0.0937,-1.1875 -0.13825,-0.2765 -0.41313,-0.4063 -0.8125,-0.4063 z m 6.9375,0 c -0.19458,0 -0.40996,0.01 -0.625,0.031 -0.20993,0.02 -0.43662,0.064 -0.6875,0.125 -0.25089,0.056 -0.51554,0.1217 -0.8125,0.2187 -0.29697,0.092 -0.61546,0.2317 -0.96875,0.375 l 0.0937,-0.5937 -1.5625,0 -1.4375,7.2187 1.5625,0 1.21875,-6.0312 c 0.47617,-0.1997 0.86546,-0.3452 1.21875,-0.4063 0.35841,-0.067 0.67636,-0.094 0.9375,-0.094 0.15872,0 0.2828,0.033 0.375,0.094 0.0922,0.056 0.17775,0.1268 0.21875,0.2188 0.0461,0.092 0.0625,0.1948 0.0625,0.3125 0,0.1178 -0.0108,0.2311 -0.0312,0.3437 l -1.125,5.5625 1.5625,0 1.15625,-5.7812 c 0.11263,-0.5581 0.0798,-0.9679 -0.125,-1.2188 -0.20481,-0.2509 -0.54997,-0.375 -1.03125,-0.375 z m 22.375,0 c -0.54786,0 -1.06532,0.1027 -1.53125,0.3125 -0.46081,0.205 -0.86034,0.4644 -1.21875,0.8125 -0.35841,0.3431 -0.66561,0.7683 -0.90625,1.2188 -0.24065,0.4506 -0.4027,0.8937 -0.5,1.375 -0.1178,0.5786 -0.16035,1.1119 -0.0937,1.5625 0.0717,0.4505 0.25989,0.8127 0.53125,1.125 0.27649,0.3123 0.63858,0.5548 1.125,0.7187 0.4864,0.1637 1.09568,0.25 1.8125,0.25 l 1.625,0 0.125,-0.625 -1.59375,0 c -0.4813,0 -0.86441,-0.097 -1.15625,-0.2812 -0.29185,-0.1895 -0.5339,-0.4372 -0.6875,-0.7188 -0.14849,-0.2815 -0.2244,-0.5734 -0.25,-0.9062 -0.0256,-0.3328 -0.025,-0.6508 0.0312,-0.9375 l 4.75,0 0.0625,-0.3438 c 0.0922,-0.4762 0.1404,-0.9501 0.125,-1.375 -0.0102,-0.4301 -0.0862,-0.7973 -0.25,-1.125 -0.16385,-0.3276 -0.42744,-0.5918 -0.75,-0.7812 -0.32258,-0.1948 -0.72775,-0.2813 -1.25,-0.2813 z m 19.15625,0 c -0.41986,0 -0.86246,0.022 -1.34375,0.094 -0.4813,0.067 -0.97669,0.185 -1.4375,0.3437 l 0.0937,0.5 c 0.13313,-0.036 0.27312,-0.063 0.40625,-0.094 0.13824,-0.036 0.28389,-0.068 0.4375,-0.094 0.1536,-0.025 0.31567,-0.048 0.5,-0.062 0.18432,-0.013 0.41048,-0.031 0.65625,-0.031 0.38912,0 0.69632,0.033 0.90625,0.094 0.20992,0.061 0.3505,0.153 0.4375,0.25 0.0922,0.092 0.12499,0.1897 0.125,0.3125 0,0.1178 -0.0108,0.2261 -0.0312,0.3438 l -0.1875,0.9687 c -0.26625,-0.1741 -0.53655,-0.288 -0.84375,-0.375 -0.30721,-0.087 -0.58775,-0.1562 -0.84375,-0.1562 -0.47106,0 -0.91825,0.07 -1.3125,0.1875 -0.38913,0.1126 -0.72916,0.2748 -1.03125,0.5 -0.29697,0.2202 -0.54519,0.5161 -0.75,0.8437 -0.19968,0.3277 -0.3505,0.6949 -0.4375,1.125 -0.0665,0.3482 -0.0768,0.6827 0,1 0.0819,0.3124 0.27524,0.598 0.53125,0.8438 0.26112,0.2406 0.60681,0.4191 1.0625,0.5625 0.45569,0.143 1.03265,0.2187 1.71875,0.2187 l 2.53125,0 1.125,-5.6875 c 0.0666,-0.3276 0.0932,-0.5974 0.0625,-0.8125 -0.0307,-0.2202 -0.14354,-0.3719 -0.3125,-0.5 -0.16897,-0.1331 -0.41208,-0.2252 -0.75,-0.2812 -0.33281,-0.056 -0.7749,-0.094 -1.3125,-0.094 z m 7.84375,0 c -0.10241,0 -0.20498,0.01 -0.3125,0.031 -0.10752,0.02 -0.23676,0.069 -0.375,0.125 -0.13312,0.051 -0.29467,0.096 -0.46875,0.1875 -0.17409,0.092 -0.36335,0.2317 -0.59375,0.375 l 0.0937,-0.5938 -1.5625,0 -1.4375,7.25 1.5625,0 1.2188,-6.0937 c 0.21504,-0.1076 0.40889,-0.204 0.5625,-0.25 0.15872,-0.046 0.29872,-0.062 0.40625,-0.062 0.18432,0 0.28745,0.065 0.34375,0.2187 0.0563,0.1537 0.0881,0.4127 0.0625,0.7813 l 1.40625,-0.375 c 0.0666,-0.5069 0.0496,-0.911 -0.0937,-1.1875 -0.13825,-0.2765 -0.41313,-0.4063 -0.8125,-0.4063 z m 13,0 c -0.32257,0 -0.6144,0.017 -0.90625,0.062 -0.28673,0.041 -0.55084,0.1113 -0.78125,0.2188 -0.22529,0.1024 -0.40378,0.2322 -0.5625,0.4062 -0.15361,0.1742 -0.2613,0.3952 -0.3125,0.6563 -0.031,0.1588 -0.0466,0.3095 -0.0312,0.4375 0.0205,0.128 0.0636,0.2628 0.125,0.4062 0.0614,0.1434 0.13735,0.3158 0.25,0.5 0.11776,0.1845 0.27877,0.4161 0.4375,0.6875 l 0.62495,0.9063 c 0.21504,0.297 0.393,0.5667 0.53125,0.8125 0.13824,0.2458 0.1711,0.4934 0.125,0.7187 -0.0666,0.3226 -0.22352,0.5498 -0.5,0.7188 -0.27137,0.1694 -0.64371,0.25 -1.125,0.25 -0.29185,0 -0.5565,-0.054 -0.8125,-0.1563 -0.25601,-0.1075 -0.50883,-0.2208 -0.71875,-0.3437 l -0.1875,0.7187 c 0.26113,0.1742 0.55755,0.283 0.875,0.375 0.31744,0.097 0.68978,0.1563 1.125,0.1563 0.31232,0 0.61493,-0.027 0.9375,-0.094 0.32257,-0.067 0.62976,-0.1952 0.90625,-0.3437 0.27648,-0.1536 0.51906,-0.3269 0.71875,-0.5625 0.19968,-0.2355 0.33455,-0.537 0.40625,-0.875 0.0307,-0.174 0.0199,-0.3259 -0.0312,-0.5 -0.0461,-0.1792 -0.12145,-0.3833 -0.21875,-0.5625 -0.0973,-0.1792 -0.21063,-0.347 -0.34375,-0.5313 -0.13313,-0.1895 -0.27313,-0.394 -0.40625,-0.5937 l -0.625,-0.9375 c -0.20481,-0.2816 -0.3556,-0.4981 -0.4375,-0.6875 -0.0815,-0.1894 -0.11935,-0.3668 -0.0937,-0.5 0.0205,-0.1177 0.0744,-0.1993 0.15625,-0.2813 0.087,-0.082 0.20498,-0.1415 0.3125,-0.1875 0.10752,-0.052 0.20497,-0.1039 0.3125,-0.125 0.11264,-0.021 0.20445,-0.031 0.28125,-0.031 0.36352,0 0.68149,0.028 0.9375,0.094 0.256,0.067 0.49346,0.163 0.71875,0.25 l 0.125,-0.6875 c -0.15873,-0.057 -0.27825,-0.1102 -0.40625,-0.1562 -0.128,-0.046 -0.27313,-0.089 -0.40625,-0.125 -0.13312,-0.036 -0.27878,-0.047 -0.4375,-0.062 -0.15361,-0.021 -0.34746,-0.031 -0.5625,-0.031 z m 18.75,0 c -0.26114,0 -0.58933,0.038 -0.9375,0.125 -0.34305,0.087 -0.67231,0.2271 -1,0.4063 l 0.0937,-0.375 -1.5625,0 -2.09375,10.4375 1.65625,-0.4375 0.53125,-2.7813 1,0 c 0.91138,0 1.67759,-0.097 2.3125,-0.3125 0.64001,-0.215 1.17901,-0.5166 1.59375,-0.875 0.41984,-0.3584 0.74346,-0.7528 0.96875,-1.2187 0.2304,-0.4711 0.39759,-0.9619 0.5,-1.4688 0.1024,-0.5016 0.129,-0.9812 0.0625,-1.4062 -0.0615,-0.4301 -0.21788,-0.7865 -0.46875,-1.0938 -0.24578,-0.3123 -0.59093,-0.576 -1.03125,-0.75 -0.43522,-0.1788 -0.97475,-0.25 -1.625,-0.25 z m 7.28125,0 c -0.32258,0 -0.6144,0.017 -0.90625,0.062 -0.28673,0.041 -0.55085,0.1113 -0.78125,0.2188 -0.22529,0.1024 -0.43503,0.2322 -0.59375,0.4062 -0.15361,0.1742 -0.23005,0.3952 -0.28125,0.6563 -0.031,0.1588 -0.0466,0.3095 -0.0312,0.4375 0.0205,0.128 0.0636,0.2628 0.125,0.4062 0.0614,0.1434 0.13735,0.3158 0.25,0.5 0.11776,0.1845 0.24752,0.4161 0.40625,0.6875 l 0.6562,0.9063 c 0.21505,0.297 0.393,0.5667 0.53125,0.8125 0.13824,0.2458 0.1711,0.4934 0.125,0.7187 -0.0666,0.3226 -0.22352,0.5498 -0.5,0.7188 -0.27137,0.1694 -0.64371,0.25 -1.125,0.25 -0.29185,0 -0.58775,-0.054 -0.84375,-0.1563 -0.25601,-0.1075 -0.47758,-0.2208 -0.6875,-0.3437 l -0.21875,0.7187 c 0.26113,0.1742 0.55755,0.283 0.875,0.375 0.31744,0.097 0.68978,0.1563 1.125,0.1563 0.31232,0 0.64618,-0.027 0.96875,-0.094 0.32257,-0.067 0.62975,-0.1952 0.90625,-0.3437 0.27648,-0.1536 0.48781,-0.3269 0.6875,-0.5625 0.19968,-0.2355 0.33455,-0.537 0.40625,-0.875 0.0307,-0.174 0.0199,-0.3259 -0.0312,-0.5 -0.0461,-0.1792 -0.0902,-0.3833 -0.1875,-0.5625 -0.0973,-0.1792 -0.21063,-0.347 -0.34375,-0.5313 -0.13313,-0.1895 -0.27313,-0.394 -0.40625,-0.5937 l -0.6563,-0.9375 c -0.20481,-0.2816 -0.32435,-0.4981 -0.40625,-0.6875 -0.0815,-0.1894 -0.11935,-0.3668 -0.0937,-0.5 0.0205,-0.1177 0.0744,-0.1993 0.15625,-0.2813 0.087,-0.082 0.17372,-0.1415 0.28125,-0.1875 0.10752,-0.052 0.20497,-0.1039 0.3125,-0.125 0.11264,-0.021 0.2357,-0.031 0.3125,-0.031 0.36352,0 0.65024,0.028 0.90625,0.094 0.256,0.067 0.49346,0.163 0.71875,0.25 l 0.15625,-0.6875 c -0.15873,-0.057 -0.3095,-0.1102 -0.4375,-0.1562 -0.12801,-0.046 -0.24188,-0.089 -0.375,-0.125 -0.13313,-0.036 -0.27878,-0.047 -0.4375,-0.062 -0.15361,-0.021 -0.34746,-0.031 -0.5625,-0.031 z m -106.625,0.125 -1.15625,5.8125 c -0.11265,0.5582 -0.0434,0.9679 0.15625,1.2188 0.2048,0.2458 0.54995,0.3437 1.03125,0.3437 0.18944,0 0.37871,-0.01 0.59375,-0.031 0.21505,-0.02 0.43661,-0.038 0.6875,-0.094 0.25089,-0.056 0.52065,-0.1579 0.8125,-0.25 0.29697,-0.097 0.63647,-0.2004 1,-0.3437 l -0.125,0.5937 1.5625,0 1.4375,-7.25 -1.5625,0 -1.1875,6.0625 c -0.47617,0.1998 -0.89159,0.308 -1.25,0.375 -0.35841,0.061 -0.67638,0.094 -0.9375,0.094 -0.16385,0 -0.2828,-0.01 -0.375,-0.062 -0.087,-0.061 -0.1465,-0.158 -0.1875,-0.25 -0.0409,-0.092 -0.0625,-0.1999 -0.0625,-0.3125 0,-0.1178 0.006,-0.2261 0.0312,-0.3438 l 1.09375,-5.5625 -1.5625,0 z m 92.3125,0.031 -1.4375,7.2187 1.5625,0 1.4375,-7.2187 -1.5625,0 z m -19.03125,0.4687 c 0.32257,0 0.6241,0.048 0.875,0.125 0.256,0.072 0.50369,0.1954 0.71875,0.3438 l -1.15625,5.6562 -0.96875,0 c -0.4557,0 -0.84905,-0.075 -1.15625,-0.1875 -0.30721,-0.1127 -0.56568,-0.253 -0.75,-0.4375 -0.18433,-0.1894 -0.31405,-0.3946 -0.40625,-0.625 -0.0871,-0.2356 -0.13065,-0.4781 -0.15625,-0.7187 -0.0205,-0.2458 -0.0205,-0.4622 0,-0.6875 0.0256,-0.2304 0.058,-0.4509 0.0937,-0.625 0.0717,-0.3738 0.16966,-0.7245 0.34375,-1.0625 0.17408,-0.343 0.40536,-0.6451 0.65625,-0.9063 0.25601,-0.2611 0.55242,-0.4713 0.875,-0.625 0.32768,-0.159 0.65236,-0.25 1.03125,-0.25 z m 25.75,0 c 0.384,0 0.70762,0.091 0.96875,0.25 0.26624,0.1537 0.47651,0.3639 0.625,0.625 0.1536,0.2612 0.24535,0.5633 0.28125,0.9063 0.0358,0.338 0.0404,0.6887 -0.0312,1.0625 -0.0359,0.1741 -0.1158,0.3946 -0.1875,0.625 -0.0666,0.2253 -0.15837,0.4417 -0.28125,0.6875 -0.11777,0.2406 -0.25318,0.4831 -0.4375,0.7187 -0.17921,0.2304 -0.42125,0.4356 -0.6875,0.625 -0.26113,0.1845 -0.55297,0.3248 -0.90625,0.4375 -0.34817,0.113 -0.75794,0.1875 -1.21875,0.1875 l -1,0 1.15625,-5.6562 c 0.27136,-0.1485 0.53601,-0.2667 0.8125,-0.3438 0.28161,-0.077 0.57855,-0.125 0.90625,-0.125 z m -58.65625,0.062 c 0.28672,2e-4 0.50264,0.059 0.65625,0.1875 0.15871,0.1229 0.27715,0.29 0.34375,0.5 0.0666,0.2099 0.10395,0.4474 0.0937,0.7188 -0.0103,0.2714 -0.0426,0.578 -0.0937,0.875 l -0.0937,0.3125 -3.25,0 c 0.0768,-0.338 0.1845,-0.6565 0.3125,-0.9688 0.13312,-0.3175 0.30543,-0.577 0.5,-0.8125 0.19456,-0.2406 0.40535,-0.4503 0.65625,-0.5937 0.256,-0.1431 0.55754,-0.2186 0.875,-0.2188 z m -48.34375,0.25 0.46875,0 c 0.60417,0 1.15906,0.038 1.625,0.1563 0.47105,0.1178 0.82803,0.2906 1.125,0.5312 0.29696,0.2407 0.51235,0.5586 0.625,0.9375 0.1127,0.3738 0.13364,0.8318 0.0312,1.3438 -0.087,0.425 -0.23783,0.7871 -0.4375,1.125 -0.19458,0.338 -0.45304,0.6395 -0.75,0.875 -0.29698,0.2356 -0.63701,0.4084 -1.03125,0.5312 -0.38914,0.1234 -0.80508,0.1875 -1.28125,0.1875 l -1.53125,0 1.15625,-5.6875 z m 66.59375,1.8125 c 0.32256,0 0.62411,0.022 0.875,0.094 0.256,0.072 0.47245,0.1953 0.6875,0.3437 l -0.6875,3.5625 -1.03125,0 c -0.36353,0 -0.67073,-0.048 -0.90625,-0.125 -0.23041,-0.082 -0.42426,-0.1844 -0.5625,-0.3125 -0.13824,-0.128 -0.21985,-0.2525 -0.28125,-0.4062 -0.0563,-0.1587 -0.1096,-0.3151 -0.125,-0.4688 -0.01,-0.1536 0.0159,-0.3044 0.0312,-0.4375 0.0205,-0.1332 0.0159,-0.2617 0.0312,-0.3437 0.0614,-0.2867 0.16861,-0.5458 0.28125,-0.7813 0.11776,-0.2354 0.2424,-0.4248 0.40625,-0.5937 0.16896,-0.169 0.3787,-0.3142 0.59375,-0.4063 0.21504,-0.092 0.43149,-0.125 0.6875,-0.125 z"
       id="path3217-9"
       class="vui_change_color" />
  </g>
</svg>
