<?xml version="1.0" encoding="UTF-8" standalone="no"?>
<!-- Created with Inkscape (http://www.inkscape.org/) -->

<svg
   xmlns:dc="http://purl.org/dc/elements/1.1/"
   xmlns:cc="http://creativecommons.org/ns#"
   xmlns:rdf="http://www.w3.org/1999/02/22-rdf-syntax-ns#"
   xmlns:svg="http://www.w3.org/2000/svg"
   xmlns="http://www.w3.org/2000/svg"
   xmlns:xlink="http://www.w3.org/1999/xlink"
   xmlns:sodipodi="http://sodipodi.sourceforge.net/DTD/sodipodi-0.dtd"
   xmlns:inkscape="http://www.inkscape.org/namespaces/inkscape"
   inkscape:export-ydpi="90"
   inkscape:export-xdpi="90"
   inkscape:export-filename="orcamento-preview.png"
   sodipodi:docname="top-logo.svg"
   inkscape:version="0.48.3.1 r9886"
   version="1.1"
   id="svg2"
   height="89.094017"
   width="195.21864">
  <sodipodi:namedview
     id="base"
     pagecolor="#d6cfc9"
     bordercolor="#cfcfcf"
     borderopacity="1"
     inkscape:pageopacity="0"
     inkscape:pageshadow="2"
     inkscape:zoom="5.6568542"
     inkscape:cx="104.10288"
     inkscape:cy="40.425258"
     inkscape:document-units="px"
     inkscape:current-layer="layer1"
     showgrid="false"
     inkscape:window-width="1920"
     inkscape:window-height="1023"
     inkscape:window-x="-10"
     inkscape:window-y="35"
     inkscape:window-maximized="1"
     inkscape:snap-bbox="true"
     inkscape:bbox-paths="true"
     inkscape:bbox-nodes="true"
     inkscape:snap-bbox-edge-midpoints="true"
     inkscape:snap-bbox-midpoints="true"
     inkscape:snap-nodes="true"
     inkscape:object-paths="true"
     inkscape:snap-intersection-paths="true"
     inkscape:object-nodes="true"
     inkscape:snap-smooth-nodes="true"
     inkscape:snap-midpoints="true"
     inkscape:snap-object-midpoints="true"
     inkscape:snap-center="true"
     inkscape:showpageshadow="false"
     inkscape:snap-global="false"
     showborder="true"
     showguides="true"
     inkscape:guide-bbox="true"
     fit-margin-top="0"
     fit-margin-left="0"
     fit-margin-right="0"
     fit-margin-bottom="0"
     inkscape:snap-page="true">
    <inkscape:grid
       originy="2227.5254px"
       originx="-287.59233px"
       snapvisiblegridlinesonly="true"
       enabled="true"
       visible="true"
       empspacing="5"
       id="grid3754"
       type="xygrid" />
  </sodipodi:namedview>
  <defs
     id="defs4">
    <linearGradient
       id="linearGradient3100"
       class="vui_change_color">
      <stop
         style="stop-color:#6ea3e3;stop-opacity:1;"
         offset="0"
         id="stop3104" />
      <stop
         id="stop3110"
         offset="1"
         style="stop-color:#6ea3e3;stop-opacity:1" />
    </linearGradient>
    <linearGradient
       inkscape:collect="always"
       xlink:href="#linearGradient3100"
       id="linearGradient3019"
       gradientUnits="userSpaceOnUse"
       gradientTransform="matrix(1.1473879,0,0,1.1473879,753.70452,3097.649)"
       x1="-682.36627"
       y1="-2545.7761"
       x2="-682.36627"
       y2="-2624.2783" />
    <linearGradient
       inkscape:collect="always"
       xlink:href="#linearGradient3100-9"
       id="linearGradient3264-7"
       gradientUnits="userSpaceOnUse"
       gradientTransform="matrix(1.1473879,0,0,1.1473879,1045.3907,6297.1305)"
       x1="-560.13208"
       y1="-2662.781"
       x2="-560.13208"
       y2="-2699.3811" />
    <linearGradient
       id="linearGradient3100-9"
       class="vui_change_color">
      <stop
         id="stop3102"
         offset="0"
         style="stop-color:#6ea3e3;stop-opacity:0.24017857" />
      <stop
         style="stop-color:#6ea3e3;stop-opacity:0.94285715"
         offset="0.25"
         id="stop3104-1" />
      <stop
         style="stop-color:#6ea3e3;stop-opacity:0.67850226;"
         offset="0.48324397"
         id="stop3106" />
      <stop
         id="stop3108"
         offset="0.70021975"
         style="stop-color:#6ea3e3;stop-opacity:0.94285715" />
      <stop
         id="stop3110-5"
         offset="1"
         style="stop-color:#6ea3e3;stop-opacity:1" />
    </linearGradient>
  </defs>
  <metadata
     id="metadata7">
    <rdf:RDF>
      <cc:Work
         rdf:about="">
        <dc:format>image/svg+xml</dc:format>
        <dc:type
           rdf:resource="http://purl.org/dc/dcmitype/StillImage" />
        <dc:title />
      </cc:Work>
    </rdf:RDF>
  </metadata>
  <g
     transform="translate(-287.59233,-3190.7937)"
     id="layer1"
     inkscape:groupmode="layer"
     inkscape:label="Camada 1">
    <path
       style="color:#000000;fill:#6b98ca;fill-opacity:1;fill-rule:nonzero;stroke:none;stroke-width:1.19999993;marker:none;visibility:visible;display:inline;overflow:visible;enable-background:accumulate"
       d="m 39.90625,-8.6875 c -0.7014,0.01 -1.4213,0.0195 -2.125,0.0625 -0.8039,0.049 -1.60015,0.12475 -2.40625,0.21875 -0.8062,0.094 -1.6301,0.20455 -2.4375,0.34375 -0.8072,0.1392 -1.59875,0.3148 -2.40625,0.5 -0.7494,0.1718 -1.48725,0.3554 -2.21875,0.5625 -0.7316,0.2071 -1.44325,0.4462 -2.15625,0.6875 -0.6597,0.2234 -1.32545,0.4358 -1.96875,0.6875 -0.2059,0.081 -0.38955,0.1666 -0.59375,0.25 -0.3287,0.1348 -0.6752,0.26385 -1,0.40625 -0.2794,0.1221 -0.5365,0.2475 -0.8125,0.375 -0.5951,0.2748 -1.20245,0.576 -1.78125,0.875 -0.5527,0.2855 -1.0876,0.59935 -1.625,0.90625 -0.3155,0.1801 -0.6274,0.34385 -0.9375,0.53125 -0.039,0.024 -0.0865,0.06975 -0.125,0.09375 -0.4471,0.2719 -0.8769,0.526 -1.3125,0.8125 -0.1375,0.091 -0.3011,0.18905 -0.4375,0.28125 -0.3926,0.2646 -0.77335,0.5363 -1.15625,0.8125 -0.5866,0.4232 -1.1869,0.8629 -1.75,1.3125 -0.1764,0.1411 -0.35705,0.2938 -0.53125,0.4375 -0.3793,0.3126 -0.72585,0.6132 -1.09375,0.9375 C 10.49225,2.88115 9.98265,3.3759 9.46875,3.875 8.95465,4.3741 8.4258,4.9154 7.9375,5.4375 7.4978,5.9076 7.07455,6.3871 6.65625,6.875 6.56425,6.9828 6.4662,7.04765 6.375,7.15625 c -0.1841,0.2186 -0.35155,0.4653 -0.53125,0.6875 -0.2244,0.2774 -0.47,0.56125 -0.6875,0.84375 -0.1314,0.1704 -0.2461,0.3276 -0.375,0.5 -0.3034,0.406 -0.5858,0.8342 -0.875,1.25 -0.1184,0.1699 -0.2591,0.3284 -0.375,0.5 -0.2769,0.4102 -0.51815,0.8309 -0.78125,1.25 -0.3789,0.6033 -0.74395,1.22295 -1.09375,1.84375 -0.3139,0.5572 -0.61645,1.1171 -0.90625,1.6875 -0.059,0.1155 -0.1298,0.22765 -0.1875,0.34375 -0.075,0.1512 -0.1768,0.31655 -0.25,0.46875 -0.2119,0.4384 -0.39625,0.8671 -0.59375,1.3125 -0.2275,0.5128 -0.44805,1.0409 -0.65625,1.5625 -0.1111,0.2777 -0.2073,0.5324 -0.3125,0.8125 -0.098,0.26 -0.18855,0.5501 -0.28125,0.8125 -0.098,0.2758 -0.22,0.5346 -0.3125,0.8125 -0.082,0.2497 -0.14045,0.4984 -0.21875,0.75 -0.2168,0.6975 -0.41055,1.4133 -0.59375,2.125 -0.1513,0.5881 -0.34105,1.18395 -0.46875,1.78125 -0.08,0.3737 -0.1172,0.7478 -0.1875,1.125 -0.081,0.4268 -0.15065,0.85115 -0.21875,1.28125 -0.012,0.064 -0.02225,0.1237 -0.03125,0.1875 -0.3343,2.2004 -0.53125,4.4563 -0.53125,6.75 0,0.7689 0.0245,1.52195 0.0625,2.28125 0.039,0.7593 0.1112,1.5012 0.1875,2.25 0.063,0.6221 0.1615,1.2607 0.25,1.875 0.05,0.3419 0.068,0.6607 0.125,1 0.025,0.1511 0.06675,0.31765 0.09375,0.46875 0.1088,0.6 0.241,1.212 0.375,1.8125 0.019,0.085 0.01225,0.1651 0.03125,0.25 L 14.4375,41.8125 C 13.9961,39.8872 13.75,37.90295 13.75,35.84375 c 0,-14.7451 11.97365,-26.6875 26.71875,-26.6875 10.8347,0 20.15845,6.44575 24.34375,15.71875 L 81.09375,17.5 C 80.88675,17.0418 80.6582,16.60435 80.4375,16.15625 80.4125,16.10625 80.399,16.0504 80.375,16 80.1402,15.5281 79.90595,15.05415 79.65625,14.59375 79.64325,14.56875 79.638,14.55525 79.625,14.53125 79.2956,13.92645 78.9169,13.3346 78.5625,12.75 78.3472,12.3956 78.13095,12.0353 77.90625,11.6875 77.49745,11.0535 77.0625,10.45225 76.625,9.84375 76.4291,9.57195 76.2644,9.2672 76.0625,9 75.4986,8.2522 74.88725,7.5811 74.28125,6.875 c -0.093,-0.1086 -0.1557,-0.23605 -0.25,-0.34375 -0.1886,-0.2155 -0.37,-0.44475 -0.5625,-0.65625 -0.5273,-0.5801 -1.0681,-1.136 -1.625,-1.6875 -0.051,-0.05 -0.10555,-0.10655 -0.15625,-0.15625 -0.7116,-0.6963 -1.46525,-1.3555 -2.21875,-2 C 68.70915,1.38165 67.924,0.7204 67.125,0.125 67.074,0.087 67.01945,0.06845 66.96875,0.03125 66.92375,-0.00175 66.8572,-0.0295 66.8125,-0.0625 66.0323,-0.6342 65.2516,-1.1686 64.4375,-1.6875 64.4085,-1.7065 64.404,-1.732 64.375,-1.75 c -0.2644,-0.1677 -0.5449,-0.338 -0.8125,-0.5 -1.4436,-0.8734 -2.9056,-1.6705 -4.4375,-2.375 -0.1027,-0.048 -0.2092,-0.10955 -0.3125,-0.15625 -0.3237,-0.1459 -0.6729,-0.26815 -1,-0.40625 -1.5199,-0.6421 -3.07055,-1.18505 -4.65625,-1.65625 -0.1027,-0.03 -0.2097,-0.0958 -0.3125,-0.125 -0.1229,-0.035 -0.2519,-0.0285 -0.375,-0.0625 -0.897,-0.2511 -1.80525,-0.4925 -2.71875,-0.6875 -0.1015,-0.022 -0.211,-0.0425 -0.3125,-0.0625 -0.9394,-0.1936 -1.8587,-0.367 -2.8125,-0.5 -1.0568,-0.1473 -2.1164,-0.2415 -3.1875,-0.3125 -0.9839,-0.065 -1.97595,-0.09455 -2.96875,-0.09375 -0.088,0 -0.19325,-6e-4 -0.28125,0 -0.1003,6e-4 -0.18125,0 -0.28125,0 z m 73.46875,29.625 c -1.9137,0 -2.9375,1.001 -2.9375,2.25 0,1.2147 0.8093,1.77285 1.875,2.09375 l 1.59375,0.5 c 0.7563,0.2291 1.0625,0.52705 1.0625,1.03125 0,0.699 -0.51665,1.09375 -1.59375,1.09375 -1.3064,0 -1.6875,-0.676 -1.6875,-1.375 l 0,-0.25 -1.375,0.03125 c -0.023,0.1261 -0.0312,0.2604 -0.0312,0.375 0,0.9397 0.4498,2.375 3.0625,2.375 2.0398,0 3.09375,-1.00935 3.09375,-2.28125 0,-1.1574 -0.69165,-1.7583 -1.90625,-2.125 l -1.5938,-0.46875 c -0.6188,-0.1833 -1.0625,-0.40105 -1.0625,-1.03125 0,-0.6303 0.3947,-1.09375 1.4375,-1.09375 1.249,0 1.53125,0.56035 1.53125,1.15625 0,0.069 -0.008,0.1749 -0.0312,0.3125 L 116.1875,23.5 c 0.023,-0.126 0.0312,-0.28025 0.0312,-0.40625 0,-0.8366 -0.42585,-2.15625 -2.84375,-2.15625 z m 53.4375,0 c -2.4294,0 -3.78125,1.4842 -3.78125,4.0625 0,2.5669 1.35185,4.0625 3.78125,4.0625 2.4293,0 3.8125,-1.4956 3.8125,-4.0625 0,-2.5783 -1.3832,-4.0625 -3.8125,-4.0625 z m -67.71875,0.09375 0,7.90625 2.78125,0 c 2.6127,0 3.96875,-1.3363 3.96875,-3.9375 0,-2.5898 -1.35605,-3.96875 -3.96875,-3.96875 l -2.78125,0 z m 8.3125,0 0,7.90625 1.375,0 0,-7.90625 -1.375,0 z m 9.75,0 0,1.15625 2.53125,0 0,6.75 1.375,0 0,-6.75 2.5,0 0,-1.15625 -6.40625,0 z m 7.59375,0 0,7.90625 1.40625,0 0,-2.84375 1.1875,0 c 0.3667,0.2177 1.81145,2.63745 2.28125,2.84375 l 1.5625,0 0,-0.15625 c -0.3782,-0.149 -1.93645,-2.48225 -2.40625,-2.90625 l 0,-0.0625 c 1.0542,-0.2521 1.75,-1.178 1.75,-2.3125 0,-1.547 -1.0176,-2.46875 -3,-2.46875 l -2.78125,0 z m 7.5625,0 0,7.90625 1.40625,0 0,-7.90625 -1.40625,0 z m 3.375,0 0,7.90625 3,0 c 1.9137,0 2.9375,-0.6811 2.9375,-2.125 0,-1.2834 -0.88425,-1.72925 -1.46875,-1.84375 l 0,-0.0625 c 0.573,-0.149 1.3125,-0.76135 1.3125,-1.78125 0,-1.4439 -0.9165,-2.09375 -2.75,-2.09375 l -3.03125,0 z m 7.46875,0 0,4.40625 c 0,2.6815 1.1405,3.625 3.375,3.625 2.1888,0 3.375,-0.9435 3.375,-3.625 l 0,-4.40625 -1.40625,0 0,4.34375 c 0,1.9824 -0.61655,2.53125 -1.96875,2.53125 -1.3751,0 -2,-0.54885 -2,-2.53125 l 0,-4.34375 -1.375,0 z m 8.65625,0 0,7.90625 1.375,0 0,-7.90625 -1.375,0 z m 3.34375,0 0,7.90625 2.78125,0 c 2.6127,0 3.96875,-1.3363 3.96875,-3.9375 0,-2.5898 -1.35605,-3.96875 -3.96875,-3.96875 l -2.78125,0 z m 17,0 0,7.90625 1.40625,0 0,-2.84375 1.1875,0 c 0.3666,0.2177 1.81145,2.63745 2.28125,2.84375 l 1.5625,0 0,-0.15625 c -0.3782,-0.149 -1.93645,-2.48225 -2.40625,-2.90625 l 0,-0.0625 c 1.0543,-0.2521 1.75,-1.178 1.75,-2.3125 0,-1.547 -1.0176,-2.46875 -3,-2.46875 l -2.78125,0 z m 9.65625,0 -2.875,7.90625 1.4375,0 0.6875,-1.90625 3.15625,0 0.6875,1.90625 1.4375,0 -2.875,-7.90625 -1.65625,0 z m -15,1.03125 c 1.5584,0 2.34375,1.0124 2.34375,2.9375 0,1.9137 -0.78535,2.90625 -2.34375,2.90625 -1.5585,0 -2.3125,-0.99255 -2.3125,-2.90625 0,-1.9251 0.754,-2.9375 2.3125,-2.9375 z m -29.78125,0.0625 1.5,0 c 1.1344,0 1.53125,0.426 1.53125,1.125 0,0.7563 -0.37285,1.1875 -1.65625,1.1875 l -1.375,0 0,-2.3125 z m -10.90625,0.03125 1.3125,0 c 1.1688,0 1.65625,0.63845 1.65625,1.40625 0,0.8251 -0.40715,1.40625 -1.65625,1.40625 l -1.3125,0 0,-2.8125 z m 47.40625,0 1.3125,0 c 1.1689,0 1.65625,0.63845 1.65625,1.40625 0,0.8251 -0.40715,1.40625 -1.65625,1.40625 l -1.3125,0 0,-2.8125 z m -73.0625,0.03125 1.375,0 c 1.8105,0 2.5625,0.9561 2.5625,2.8125 0,1.8679 -0.752,2.8125 -2.5625,2.8125 l -1.375,0 0,-5.625 z m 56.0625,0 1.375,0 c 1.8106,0 2.5625,0.9561 2.5625,2.8125 0,1.8679 -0.7519,2.8125 -2.5625,2.8125 l -1.375,0 0,-5.625 z m 26.0625,0.09375 0.0937,0 c 0.1375,0.5729 0.25735,0.9624 0.40625,1.375 l 0.8125,2.3125 -2.5625,0 0.84375,-2.3125 c 0.149,-0.4126 0.28025,-0.8135 0.40625,-1.375 z m -45.5625,3.21875 1.40625,0 c 1.3408,0 1.78125,0.42285 1.78125,1.15625 0,0.8709 -0.48745,1.1875 -1.65625,1.1875 l -1.53125,0 0,-2.34375 z m 43.5625,5.96875 -1.8125,2.8125 4.75,0 3,-2.8125 -5.9375,0 z m -140.125,2.46875 0,2.5 44.53125,0 0,-0.59375 c 0,-0.6428 -0.0062,-1.27005 -0.03125,-1.90625 l -44.5,0 z m 66.8125,0.9375 c -1.1634,0 -2.2536,0.10845 -3.3125,0.34375 -1.0588,0.2222 -2.0486,0.59415 -2.9375,1.15625 -0.8758,0.5621 -1.57095,1.35025 -2.09375,2.34375 -0.5229,0.9934 -0.78125,2.2234 -0.78125,3.6875 0,1.5294 0.2634,2.8059 0.8125,3.8125 0.5621,0.9934 1.31675,1.75835 2.21875,2.28125 0.9019,0.5229 1.8553,0.8795 2.875,1.0625 1.0326,0.1961 2.1127,0.28125 3.25,0.28125 1.5948,0 2.8946,-0.13175 3.875,-0.40625 0.9804,-0.2614 1.81225,-0.7345 2.53125,-1.375 l 0.625,1.28125 2.375,0 0,-7.96875 -7.84375,0 0,3.1875 2.25,0 c -0.2092,0.5621 -0.5657,0.9988 -1.0625,1.3125 -0.4967,0.3007 -1.16845,0.4375 -2.03125,0.4375 -2.7451,0 -4.125,-1.32825 -4.125,-3.96875 0,-1.3726 0.32825,-2.3726 0.96875,-3 0.6405,-0.6406 1.54225,-0.96875 2.71875,-0.96875 0.7974,0 1.44875,0.12145 1.90625,0.34375 0.5752,0.2875 0.9187,0.7708 1.0625,1.4375 l 6.25,0 c -0.2222,-1.8171 -1.0955,-3.1503 -2.625,-4 -1.5163,-0.8628 -3.83435,-1.28125 -6.90625,-1.28125 z m 11.65625,0.46875 0,8.6875 c -1e-4,1.1111 0.1601,2.03615 0.5,2.78125 0.3398,0.7451 0.85145,1.33675 1.53125,1.78125 0.6797,0.4313 1.56105,0.77265 2.59375,0.96875 1.0457,0.1961 2.2859,0.28125 3.75,0.28125 1.4641,0 2.7172,-0.08495 3.75,-0.28125 1.0457,-0.1961 1.91405,-0.53745 2.59375,-0.96875 0.6798,-0.4445 1.19135,-1.03615 1.53125,-1.78125 0.3398,-0.7451 0.4999,-1.67015 0.5,-2.78125 l 0,-8.6875 -5.53125,0 0,8.46875 c 0,0.8628 -0.24815,1.47765 -0.71875,1.84375 -0.4706,0.3529 -1.1707,0.53125 -2.125,0.53125 -0.9543,0 -1.6544,-0.17835 -2.125,-0.53125 -0.4706,-0.3661 -0.71875,-0.98095 -0.71875,-1.84375 l 0,-8.46875 -5.53125,0 z m 23.125,0 -5.9375,14 5.875,0 0.59375,-1.59375 5.75,0 0.59375,1.59375 5.875,0 -5.9375,-14 -6.8125,0 z m 13.46875,0 0,14 5.53125,0 0,-4.3125 3.9375,0 c 0.4836,0 0.8403,0.1499 1.0625,0.4375 0.2222,0.2745 0.3488,0.7009 0.375,1.25 0.013,0.2745 0.0182,0.50965 0.0312,0.71875 0.039,0.6013 0.0677,1.01975 0.0937,1.28125 0.026,0.2614 0.0784,0.4681 0.15625,0.625 l 6.03125,0 5.5625,0 0.59375,-1.59375 5.75,0 0.59375,1.59375 5.875,0 -5.96875,-14 -6.78125,0 -5.84375,13.6875 c -0.088,-0.1387 -0.17794,-0.279 -0.25,-0.4375 -0.1177,-0.2876 -0.19265,-0.5744 -0.21875,-0.875 l -0.21875,-3.0625 c -0.052,-0.5883 -0.24365,-1.0715 -0.53125,-1.4375 C 171.0249,42.85265 170.6813,42.6177 170.25,42.5 l 0,-0.0625 c 0.745,-0.2222 1.2851,-0.63055 1.625,-1.21875 0.353,-0.5883 0.53125,-1.23675 0.53125,-1.96875 0,-0.7451 -0.1965,-1.435 -0.5625,-2.0625 -0.366,-0.6274 -0.80785,-1.051 -1.34375,-1.3125 -0.3791,-0.183 -0.82085,-0.32785 -1.34375,-0.40625 -0.5098,-0.078 -1.17135,-0.125 -1.96875,-0.125 l -11.65625,0 z m 5.53125,3.53125 3.84375,0 c 0.5098,0 0.913,0.1165 1.1875,0.3125 0.2876,0.183 0.4375,0.5033 0.4375,1 0,0.8758 -0.51165,1.3125 -1.53125,1.3125 l -3.9375,0 0,-2.625 z m -15.625,0.71875 0.0625,0 1.625,4.75 -3.3125,0 1.625,-4.75 z m 36.3125,0 0.0312,0 1.65625,4.75 -3.34375,0 1.65625,-4.75 z M 66.46875,41.875 c -0.264,1.1436 -0.56305,2.26165 -0.96875,3.34375 l 16.71875,6.21875 c 0.013,-0.037 0.01825,-0.05755 0.03125,-0.09375 0.023,-0.063 0.07075,-0.1242 0.09375,-0.1875 0.2986,-0.8159 0.52975,-1.63125 0.78125,-2.46875 0.2355,-0.7894 0.4325,-1.5767 0.625,-2.375 0.033,-0.1371 0.0924,-0.26855 0.125,-0.40625 L 66.46875,41.875 z m -51,3.375 -16.6875,6.28125 c 0.294,0.782 0.601,1.5499 0.9375,2.3125 0.2419,0.5472 0.4869,1.05845 0.75,1.59375 0.2178,0.4446 0.4553,0.90705 0.6875,1.34375 0.1763,0.3305 0.34695,0.64345 0.53125,0.96875 0.1356,0.2402 0.26635,0.48115 0.40625,0.71875 0.3165,0.5354 0.6618,1.07315 1,1.59375 0.099,0.1524 0.18085,0.2864 0.28125,0.4375 0.05,0.075 0.10545,0.1752 0.15625,0.25 0.3878,0.5766 0.80425,1.1295 1.21875,1.6875 0.4804,0.645 0.95485,1.2576 1.46875,1.875 0.023,0.027 0.0405,0.06675 0.0625,0.09375 0.3945,0.4717 0.80545,0.95145 1.21875,1.40625 0.4794,0.5274 0.96485,1.02735 1.46875,1.53125 0.2391,0.2391 0.47425,0.48495 0.71875,0.71875 L 22.03125,55.15625 c -2.8707,-2.7425 -5.1378,-6.12085 -6.5625,-9.90625 z m 47,5.71875 c -0.6937,1.0073 -1.4281,1.9742 -2.25,2.875 L 73.375,65.875 c 0.024,-0.026 0.07075,-0.0365 0.09375,-0.0625 0.6671,-0.7339 1.28865,-1.50385 1.90625,-2.28125 0.079,-0.099 0.172,-0.2127 0.25,-0.3125 0.4687,-0.5991 0.90915,-1.1934 1.34375,-1.8125 0.077,-0.1101 0.14245,-0.2017 0.21875,-0.3125 l -14.71875,-10.125 z m -7.8125,7.46875 c -1.1333,0.7125 -2.3231,1.3366 -3.5625,1.875 L 58.25,76.6875 c 1.0217,-0.4447 2.0093,-0.9228 3,-1.4375 0.1499,-0.078 0.31975,-0.1704 0.46875,-0.25 0.3454,-0.1877 0.69135,-0.3661 1.03125,-0.5625 0.2787,-0.159 0.5378,-0.30325 0.8125,-0.46875 0.2022,-0.1228 0.39365,-0.28025 0.59375,-0.40625 l -9.5,-15.125 z M 26.4375,58.5625 17.09375,73.75 c 0.024,0.015 0.0395,0.0475 0.0625,0.0625 0.8202,0.5053 1.6456,0.9851 2.5,1.4375 0.2083,0.1103 0.4151,0.17425 0.625,0.28125 0.7213,0.3674 1.47535,0.7339 2.21875,1.0625 0.128,0.057 0.2464,0.1319 0.375,0.1875 0.8364,0.3603 1.7003,0.6904 2.5625,1 0.2293,0.083 0.4567,0.1711 0.6875,0.25 0.7483,0.2559 1.488,0.4724 2.25,0.6875 0.1536,0.043 0.31445,0.11475 0.46875,0.15625 l 4.625,-17.28125 C 30.96395,60.91355 28.5921,59.8961 26.4375,58.5625 z m 17.71875,3.71875 c -1.2052,0.1664 -2.4366,0.28125 -3.6875,0.28125 l -0.0625,0 0,17.84375 0.0625,0 c 0.5039,0 0.9999,-0.01425 1.5,-0.03125 0.2648,-0.01 0.51685,-0.01625 0.78125,-0.03125 0.012,-6e-4 0.0505,7e-4 0.0625,0 0.5571,-0.029 1.10475,-0.10735 1.65625,-0.15625 0.1875,-0.018 0.3751,-0.01025 0.5625,-0.03125 0.5331,-0.054 1.06635,-0.1147 1.59375,-0.1875 l -2.46875,-17.6875 z"
       transform="translate(291.68608,3199.4815)"
       id="path3012"
       class="vui_change_color"
       inkscape:connector-curvature="0" />
  </g>
</svg>
