<?xml version="1.0" encoding="UTF-8" standalone="no"?>
<!-- Created with Inkscape (http://www.inkscape.org/) -->

<svg
   xmlns:dc="http://purl.org/dc/elements/1.1/"
   xmlns:cc="http://creativecommons.org/ns#"
   xmlns:rdf="http://www.w3.org/1999/02/22-rdf-syntax-ns#"
   xmlns:svg="http://www.w3.org/2000/svg"
   xmlns="http://www.w3.org/2000/svg"
   xmlns:sodipodi="http://sodipodi.sourceforge.net/DTD/sodipodi-0.dtd"
   xmlns:inkscape="http://www.inkscape.org/namespaces/inkscape"
   id="svg2"
   height="55.135551"
   width="195"
   version="1.1"
   inkscape:version="0.91 r13725"
   sodipodi:docname="top-logo.svg">
  <defs
     id="defs26" />
  <sodipodi:namedview
     pagecolor="#ffffff"
     bordercolor="#666666"
     borderopacity="1"
     objecttolerance="10"
     gridtolerance="10"
     guidetolerance="10"
     inkscape:pageopacity="0"
     inkscape:pageshadow="2"
     inkscape:window-width="640"
     inkscape:window-height="480"
     id="namedview24"
     showgrid="false"
     fit-margin-top="0"
     fit-margin-left="0"
     fit-margin-right="0"
     fit-margin-bottom="0"
     inkscape:zoom="1"
     inkscape:cx="94.220811"
     inkscape:cy="33.827241"
     inkscape:current-layer="svg2" />
  <metadata
     id="metadata7">
    <rdf:RDF>
      <cc:Work
         rdf:about="">
        <dc:format>image/svg+xml</dc:format>
        <dc:type
           rdf:resource="http://purl.org/dc/dcmitype/StillImage" />
        <dc:title></dc:title>
      </cc:Work>
    </rdf:RDF>
  </metadata>
  <g
     id="layer1"
     transform="matrix(1.5740724,0,0,1.5740724,-523.81631,-5071.7704)">
    <g
       id="g4482"
       transform="matrix(1.25,0,0,-1.25,237.0554,3288.81)">
      <g
         id="g4579"
         style="color:#000000;isolation:auto;mix-blend-mode:normal;solid-color:#000000;fill:#152c38;color-rendering:auto;image-rendering:auto;shape-rendering:auto"
         transform="translate(1.25,-44.6625)">
        <g
           id="g4190"
           style="color:#000000;isolation:auto;mix-blend-mode:normal;solid-color:#000000;color-rendering:auto;image-rendering:auto;shape-rendering:auto"
           transform="translate(96.6299,98.05496)">
          <path
             id="path4192"
             style="color:#000000;isolation:auto;mix-blend-mode:normal;solid-color:#000000;fill:#152c38;color-rendering:auto;image-rendering:auto;shape-rendering:auto"
             d="m 0,0 c -0.485,-1.508 -1.052,-2.994 -1.701,-4.458 -0.65,-1.465 -1.395,-2.86 -2.237,-4.187 -0.843,-1.327 -1.784,-2.553 -2.824,-3.682 -1.041,-1.128 -2.191,-2.103 -3.452,-2.923 -1.26,-0.819 -2.631,-1.464 -4.111,-1.932 -1.481,-0.467 -3.086,-0.702 -4.814,-0.702 -0.298,0 -0.578,0.055 -0.842,0.165 -0.265,0.111 -0.496,0.262 -0.694,0.454 -0.198,0.193 -0.352,0.419 -0.462,0.678 -0.111,0.258 -0.165,0.536 -0.165,0.833 l 0,15.754 4.293,0 0,-13.425 c 1.046,0 2.051,0.226 3.014,0.677 0.963,0.451 1.874,1.049 2.733,1.792 0.859,0.743 1.654,1.588 2.386,2.534 0.732,0.947 1.384,1.919 1.957,2.915 0.572,0.996 1.059,1.973 1.461,2.932 0.402,0.957 0.702,1.815 0.9,2.575 L 0,0 Z"
             inkscape:connector-curvature="0" />
        </g>
        <path
           id="path4194"
           style="color:#000000;isolation:auto;mix-blend-mode:normal;solid-color:#000000;color-rendering:auto;image-rendering:auto;shape-rendering:auto"
           d="m 103.708,80.20396 -4.293004,0 0,17.851 4.293004,0 0,-17.851 z"
           inkscape:connector-curvature="0" />
        <g
           id="g4196"
           style="color:#000000;isolation:auto;mix-blend-mode:normal;solid-color:#000000;color-rendering:auto;image-rendering:auto;shape-rendering:auto"
           transform="translate(124.2227,96.73466)">
          <path
             id="path4198"
             style="color:#000000;isolation:auto;mix-blend-mode:normal;solid-color:#000000;fill:#152c38;color-rendering:auto;image-rendering:auto;shape-rendering:auto"
             d="m 0,0 c 0.176,-0.408 0.223,-0.82 0.141,-1.239 -0.083,-0.418 -0.273,-0.782 -0.57,-1.09 l -9.925,-9.907 10.321,0 0,-4.294 -15.489,0 c -0.441,0 -0.84,0.124 -1.198,0.371 -0.358,0.248 -0.625,0.564 -0.801,0.95 -0.165,0.407 -0.206,0.822 -0.124,1.247 0.083,0.423 0.284,0.795 0.603,1.114 l 9.875,9.875 -10.32,0 0,4.293 15.522,0 c 0.429,0 0.823,-0.115 1.181,-0.346 C -0.427,0.742 -0.165,0.418 0,0"
             inkscape:connector-curvature="0" />
        </g>
        <g
           id="g4200"
           style="color:#000000;isolation:auto;mix-blend-mode:normal;solid-color:#000000;color-rendering:auto;image-rendering:auto;shape-rendering:auto"
           transform="translate(144.7197,96.73466)">
          <path
             id="path4202"
             style="color:#000000;isolation:auto;mix-blend-mode:normal;solid-color:#000000;fill:#152c38;color-rendering:auto;image-rendering:auto;shape-rendering:auto"
             d="M 0,0 C 0.176,-0.408 0.223,-0.82 0.141,-1.239 0.058,-1.657 -0.133,-2.021 -0.43,-2.329 l -9.924,-9.907 10.321,0 0,-4.294 -15.489,0 c -0.441,0 -0.84,0.124 -1.198,0.371 -0.358,0.248 -0.625,0.564 -0.801,0.95 -0.165,0.407 -0.207,0.822 -0.124,1.247 0.083,0.423 0.284,0.795 0.603,1.114 l 9.875,9.875 -10.32,0 0,4.293 15.522,0 c 0.43,0 0.822,-0.115 1.181,-0.346 C -0.427,0.742 -0.166,0.418 0,0"
             inkscape:connector-curvature="0" />
        </g>
      </g>
      <g
         id="g4608"
         style="color:#000000;isolation:auto;mix-blend-mode:normal;solid-color:#000000;fill:#0076b1;color-rendering:auto;image-rendering:auto;shape-rendering:auto"
         transform="translate(1.17699,-44.6625)">
        <g
           id="g4572"
           style="color:#000000;isolation:auto;mix-blend-mode:normal;solid-color:#000000;fill:#0076b1;color-rendering:auto;image-rendering:auto;shape-rendering:auto">
          <path
             id="path4204"
             style="color:#000000;isolation:auto;mix-blend-mode:normal;solid-color:#000000;color-rendering:auto;image-rendering:auto;shape-rendering:auto"
             d="m 151.889,80.20396 -4.294,0 0,17.851 4.294,0 0,-17.851 z"
             inkscape:connector-curvature="0" />
          <g
             id="g4206"
             style="color:#000000;isolation:auto;mix-blend-mode:normal;solid-color:#000000;color-rendering:auto;image-rendering:auto;shape-rendering:auto"
             transform="translate(170.2139,92.01106)">
            <path
               id="path4208"
               style="color:#000000;isolation:auto;mix-blend-mode:normal;solid-color:#000000;fill:#0076b1;color-rendering:auto;image-rendering:auto;shape-rendering:auto"
               d="m 0,0 c 0,0.595 -0.148,1.035 -0.446,1.321 -0.298,0.286 -0.727,0.43 -1.288,0.43 l -7.711,0 c -0.574,0 -1.008,-0.147 -1.305,-0.438 -0.298,-0.292 -0.446,-0.718 -0.446,-1.28 l 0,-5.812 c 0,-0.562 0.148,-0.992 0.446,-1.288 0.297,-0.297 0.731,-0.446 1.305,-0.446 l 7.711,0 c 0.584,0 1.018,0.149 1.304,0.446 C -0.144,-6.771 0,-6.341 0,-5.779 L 0,0 Z m 4.293,-5.779 c 0,-0.738 -0.094,-1.402 -0.28,-1.99 -0.188,-0.589 -0.435,-1.107 -0.743,-1.552 -0.309,-0.447 -0.666,-0.826 -1.074,-1.14 -0.407,-0.313 -0.834,-0.569 -1.28,-0.768 -0.445,-0.198 -0.897,-0.344 -1.354,-0.437 -0.457,-0.094 -0.889,-0.141 -1.296,-0.141 l -7.745,0 c -0.594,0 -1.244,0.105 -1.949,0.314 -0.705,0.209 -1.356,0.554 -1.957,1.032 -0.599,0.48 -1.1,1.101 -1.502,1.866 -0.402,0.765 -0.603,1.703 -0.603,2.816 l 0,5.812 c 0,1.101 0.201,2.034 0.603,2.799 0.402,0.766 0.903,1.388 1.502,1.866 0.601,0.479 1.252,0.823 1.957,1.032 0.705,0.209 1.355,0.314 1.949,0.314 l 7.745,0 c 1.101,0 2.037,-0.198 2.807,-0.595 C 1.844,5.054 2.465,4.555 2.939,3.955 3.412,3.355 3.756,2.703 3.971,1.999 4.186,1.294 4.293,0.639 4.293,0.033 l 0,-5.812 z"
               inkscape:connector-curvature="0" />
          </g>
          <g
             id="g4210"
             style="color:#000000;isolation:auto;mix-blend-mode:normal;solid-color:#000000;color-rendering:auto;image-rendering:auto;shape-rendering:auto"
             transform="translate(166.3291,87.60766)">
            <path
               id="path4212"
               style="color:#000000;isolation:auto;mix-blend-mode:normal;solid-color:#000000;fill:#0076b1;color-rendering:auto;image-rendering:auto;shape-rendering:auto"
               d="m 0,0 c 0,-0.232 -0.188,-0.42 -0.42,-0.42 l -2.783,0 c -0.233,0 -0.42,0.188 -0.42,0.42 l 0,2.783 c 0,0.232 0.187,0.42 0.42,0.42 l 2.783,0 C -0.188,3.203 0,3.015 0,2.783 L 0,0 Z"
               inkscape:connector-curvature="0" />
          </g>
        </g>
      </g>
      <text
         id="text3407"
         style="color:#000000;font-size:8.99088001px;line-height:125%;font-family:Baumans;letter-spacing:0px;word-spacing:0px;isolation:auto;mix-blend-mode:normal;solid-color:#000000;fill:#152c38;color-rendering:auto;image-rendering:auto;shape-rendering:auto;text-rendering:auto"
         xml:space="preserve"
         transform="scale(1,-1)"
         line-height="125%"
         font-size="8.99088px"
         y="-27.420618"
         x="100.26398"
         sodipodi:linespacing="125%"><tspan
           id="tspan3409"
           x="100.26398"
           dx="0 1.2202567 1.2202567 1.2202567 1.2202567 1.2202567 1.2202567 1.2202567 1.2202567 1.2202567"
           y="-27.420618">tecnologi<tspan
   id="tspan4704"
   style="fill:#152c38">a</tspan></tspan></text>
    </g>
  </g>
</svg>
