<?xml version="1.0" encoding="UTF-8" standalone="no"?>
<!-- Created with Inkscape (http://www.inkscape.org/) -->
<svg xmlns:dc="http://purl.org/dc/elements/1.1/" xmlns:cc="http://creativecommons.org/ns#" xmlns:rdf="http://www.w3.org/1999/02/22-rdf-syntax-ns#" xmlns:svg="http://www.w3.org/2000/svg" xmlns="http://www.w3.org/2000/svg" xmlns:sodipodi="http://sodipodi.sourceforge.net/DTD/sodipodi-0.dtd" xmlns:inkscape="http://www.inkscape.org/namespaces/inkscape" id="svg2" height="48.0001" width="48" version="1.1" inkscape:version="0.48.4 r9939" sodipodi:docname="icon-calendar.svg">
  <defs id="defs8"/>
  <sodipodi:namedview pagecolor="#ffffff" bordercolor="#666666" borderopacity="1" objecttolerance="10" gridtolerance="10" guidetolerance="10" inkscape:pageopacity="0" inkscape:pageshadow="2" inkscape:window-width="1920" inkscape:window-height="1017" id="namedview6" showgrid="true" inkscape:zoom="6.9532023" inkscape:cx="72.508942" inkscape:cy="23.376291" inkscape:window-x="-5" inkscape:window-y="26" inkscape:window-maximized="1" inkscape:current-layer="svg2" inkscape:snap-bbox="true">
    <inkscape:grid type="xygrid" id="grid2989"/>
  </sodipodi:namedview>
  <metadata id="metadata7">
    <rdf:RDF>
      <cc:Work rdf:about="">
        <dc:format>image/svg+xml</dc:format>
        <dc:type rdf:resource="http://purl.org/dc/dcmitype/StillImage"/>
        <dc:title/>
      </cc:Work>
    </rdf:RDF>
  </metadata>
  <path style="color:#000000;fill:#69748a;fill-opacity:1;fill-rule:nonzero;enable-background:accumulate" d="M 24,4 C 18.4792,4 13.781266,5.9687333 9.875,9.875 5.968733,13.781267 4,18.4792 4,24 4,29.5208 5.968733,34.249983 9.875,38.15625 13.781266,42.062517 18.4792,44 24,44 29.5208,44 34.218733,42.062517 38.125,38.15625 42.031267,34.249983 44,29.5208 44,24 44,18.4792 42.031267,13.781267 38.125,9.875 34.218733,5.9687333 29.5208,4 24,4 z m -7.03125,7.4375 2.09375,0 0,3.90625 -2.09375,0 z m 11.96875,0 2.09375,0 0,3.90625 -2.09375,0 z m -16.1875,1.875 2.75,0 0,3.5 5.0625,0 0,-3.5 6.875,0 0,3.5 5.0625,0 0,-3.5 2.75,0 0,5.53125 -22.5,0 z m 0,6.9375 22.5,0 0,16.34375 -22.5,0 z m 8.8125,3.84375 c -0.833333,0 -1.526067,0.213517 -2.125,0.65625 -0.599067,0.442667 -0.948,1.072917 -1,1.90625 l 1.8125,0 c 0,-0.7292 0.416667,-1.10425 1.25,-1.15625 0.7292,0 1.09375,0.4271 1.09375,1.3125 0,0.833267 -0.687483,1.2395 -2.09375,1.1875 l 0,1.40625 c 0.833333,0 1.375033,0.06248 1.6875,0.21875 0.416667,0.156267 0.625,0.5625 0.625,1.1875 0,0.989667 -0.4271,1.5105 -1.3125,1.5625 -0.729267,0 -1.1355,-0.46865 -1.1875,-1.40625 l -1.875,0 c 0,1.875 1.041667,2.8125 3.125,2.8125 0.781333,0 1.5,-0.26045 2.125,-0.78125 0.625,-0.520867 0.948,-1.197917 1,-2.03125 0,-1.1458 -0.6355,-1.916583 -1.9375,-2.28125 0.7812,-0.260333 1.302033,-0.677 1.5625,-1.25 0.208467,-0.468667 0.197967,-1.05205 -0.0625,-1.78125 -0.416667,-1.041667 -1.3333,-1.5625 -2.6875,-1.5625 z M 27.90625,24.25 c -0.625,0.572867 -1.406283,1.052083 -2.34375,1.46875 l 0,1.5625 c 0.833333,-0.260467 1.5625,-0.677133 2.1875,-1.25 l 0,7.59375 1.8125,0 0,-9.375 z" id="path5853" inkscape:connector-curvature="0" sodipodi:nodetypes="sssssssssccccccccccccccccccccccccccccsccccscccscccscccccscccccccc" class="vui_change_color"/>
</svg>
