<?xml version="1.0" encoding="UTF-8" standalone="no"?>
<!-- Created with Inkscape (http://www.inkscape.org/) -->
<svg xmlns:dc="http://purl.org/dc/elements/1.1/" xmlns:cc="http://creativecommons.org/ns#" xmlns:rdf="http://www.w3.org/1999/02/22-rdf-syntax-ns#" xmlns:svg="http://www.w3.org/2000/svg" xmlns="http://www.w3.org/2000/svg" xmlns:sodipodi="http://sodipodi.sourceforge.net/DTD/sodipodi-0.dtd" xmlns:inkscape="http://www.inkscape.org/namespaces/inkscape" id="svg2" height="48.0001" width="48" version="1.1" inkscape:version="0.48.4 r9939" sodipodi:docname="icon-announce.svg">
  <defs id="defs8"/>
  <sodipodi:namedview pagecolor="#ffffff" bordercolor="#666666" borderopacity="1" objecttolerance="10" gridtolerance="10" guidetolerance="10" inkscape:pageopacity="0" inkscape:pageshadow="2" inkscape:window-width="1920" inkscape:window-height="1017" id="namedview6" showgrid="true" inkscape:zoom="9.833313" inkscape:cx="32.964921" inkscape:cy="22.703649" inkscape:window-x="-5" inkscape:window-y="26" inkscape:window-maximized="1" inkscape:current-layer="svg2" inkscape:snap-bbox="true">
    <inkscape:grid type="xygrid" id="grid2989"/>
  </sodipodi:namedview>
  <metadata id="metadata7">
    <rdf:RDF>
      <cc:Work rdf:about="">
        <dc:format>image/svg+xml</dc:format>
        <dc:type rdf:resource="http://purl.org/dc/dcmitype/StillImage"/>
        <dc:title/>
      </cc:Work>
    </rdf:RDF>
  </metadata>
  <path style="color:#000000;fill:#14181d;fill-opacity:1;fill-rule:nonzero;enable-background:accumulate" d="M 24,4 C 12.9543,4 4,12.9543 4,24 4,35.0457 12.9543,44 24,44 35.0457,44 44,35.0457 44,24 44,12.9543 35.0457,4 24,4 z m -9.5,6.40625 19.15625,0 c 2.2287,0 4.03125,1.60265 4.03125,3.59375 l 0,20 c 0,1.9912 -1.80255,3.59375 -4.03125,3.59375 l -19.15625,0 c -2.2287,0 -4,-1.60255 -4,-3.59375 l 0,-20 c 0,-1.9911 1.7713,-3.59375 4,-3.59375 z M 14.40625,12 C 13.07665,12 12,13.07665 12,14.40625 l 0,4.4375 6.75,0 c 1.4074,-1.2435 3.25555,-2 5.28125,-2 2.1602,0 4.09425,0.856 5.53125,2.25 l 6.4375,0 0,-4.6875 C 36,13.07665 34.92335,12 33.59375,12 z m 16.65625,1.28125 2.875,0 c 0.486,0 0.875,0.389 0.875,0.875 l 0,2.84375 c 0,0.486 -0.389,0.875 -0.875,0.875 l -2.875,0 c -0.486,0 -0.875,-0.389 -0.875,-0.875 l 0,-2.84375 c 0,-0.486 0.389,-0.875 0.875,-0.875 z M 24,18.875 c -3.3137,0 -6,2.6864 -6,6 0,3.3137 2.6863,6 6,6 3.3137,0 6,-2.6863 6,-6 0,-3.3136 -2.6863,-6 -6,-6 z m -12,2.25 0,12.46875 C 12,34.92335 13.07665,36 14.40625,36 l 19.1875,0 C 34.92335,36 36,34.92335 36,33.59375 l 0,-12.21875 -4.78125,0 C 31.72055,22.4196 32,23.60735 32,24.84375 c 0,4.408 -3.56075,7.96875 -7.96875,7.96875 -4.408,0 -8,-3.56075 -8,-7.96875 0,-1.3375 0.32485,-2.61145 0.90625,-3.71875 z" id="path5853" inkscape:connector-curvature="0" sodipodi:nodetypes="ssssssssssssssssccsccssssssssssssssssscssssccssscc" class="vui_change_color"/>
</svg>
