<?xml version="1.0" encoding="UTF-8" standalone="no"?>
<!-- Created with Inkscape (http://www.inkscape.org/) -->

<svg
   xmlns:dc="http://purl.org/dc/elements/1.1/"
   xmlns:cc="http://creativecommons.org/ns#"
   xmlns:rdf="http://www.w3.org/1999/02/22-rdf-syntax-ns#"
   xmlns:svg="http://www.w3.org/2000/svg"
   xmlns="http://www.w3.org/2000/svg"
   xmlns:sodipodi="http://sodipodi.sourceforge.net/DTD/sodipodi-0.dtd"
   xmlns:inkscape="http://www.inkscape.org/namespaces/inkscape"
   inkscape:export-ydpi="90"
   inkscape:export-xdpi="90"
   inkscape:export-filename="orcamento-preview.png"
   sodipodi:docname="top-logo.svg"
   inkscape:version="0.48.4 r9939"
   version="1.1"
   id="svg2"
   height="262.1875"
   width="176.875">
  <sodipodi:namedview
     id="base"
     pagecolor="#ffffff"
     bordercolor="#cfcfcf"
     borderopacity="1"
     inkscape:pageopacity="0"
     inkscape:pageshadow="2"
     inkscape:zoom="1.9999999"
     inkscape:cx="238.30176"
     inkscape:cy="124.28223"
     inkscape:document-units="px"
     inkscape:current-layer="g3519"
     showgrid="true"
     inkscape:window-width="1920"
     inkscape:window-height="1013"
     inkscape:window-x="-5"
     inkscape:window-y="30"
     inkscape:window-maximized="1"
     inkscape:snap-bbox="true"
     inkscape:bbox-paths="true"
     inkscape:bbox-nodes="true"
     inkscape:snap-bbox-edge-midpoints="true"
     inkscape:snap-bbox-midpoints="true"
     inkscape:snap-nodes="true"
     inkscape:object-paths="true"
     inkscape:snap-intersection-paths="true"
     inkscape:object-nodes="true"
     inkscape:snap-smooth-nodes="true"
     inkscape:snap-midpoints="true"
     inkscape:snap-object-midpoints="true"
     inkscape:snap-center="true"
     inkscape:showpageshadow="false"
     inkscape:snap-global="false"
     showborder="false"
     showguides="true"
     inkscape:guide-bbox="true"
     fit-margin-top="0"
     fit-margin-left="0"
     fit-margin-right="0"
     fit-margin-bottom="0"
     inkscape:snap-page="true">
    <inkscape:grid
       originy="2491.0595px"
       originx="-405.06248px"
       snapvisiblegridlinesonly="true"
       enabled="true"
       visible="true"
       empspacing="5"
       id="grid3754"
       type="xygrid" />
  </sodipodi:namedview>
  <defs
     id="defs4" />
  <metadata
     id="metadata7">
    <rdf:RDF>
      <cc:Work
         rdf:about="">
        <dc:format>image/svg+xml</dc:format>
        <dc:type
           rdf:resource="http://purl.org/dc/dcmitype/StillImage" />
        <dc:title />
      </cc:Work>
    </rdf:RDF>
  </metadata>
  <g
     transform="translate(-405.06248,-3281.2344)"
     id="layer1"
     inkscape:groupmode="layer"
     inkscape:label="Camada 1">
    <g
       id="g3519"
       transform="matrix(0.45140775,0,0,0.45140775,-850.71031,1942.6062)"
       style="fill:#000000;display:inline"
       inkscape:export-filename="images/logo.png"
       inkscape:export-xdpi="150"
       inkscape:export-ydpi="150">
      <g
         style="display:inline"
         id="g5005"
         transform="matrix(1.9971334,0,0,1.9971334,1200.3677,-2683.1727)">
        <path
           inkscape:connector-curvature="0"
           style="font-size:medium;font-style:normal;font-variant:normal;font-weight:normal;font-stretch:normal;text-indent:0;text-align:start;text-decoration:none;line-height:normal;letter-spacing:normal;word-spacing:normal;text-transform:none;direction:ltr;block-progression:tb;writing-mode:lr-tb;text-anchor:start;baseline-shift:baseline;color:#000000;fill:#172980;fill-opacity:1;fill-rule:evenodd;stroke:none;stroke-width:12.87992668000000052;marker:none;visibility:visible;display:inline;overflow:visible;enable-background:accumulate;font-family:Sans;-inkscape-font-specification:Sans"
           d="m 889.875,2817.8125 -2.46875,1.625 c -21.5048,14.2174 -49.99703,23.6745 -81.625,25.5937 l -4.21875,0.25 0,4.25 0,142.6876 c 0,48.4455 39.66534,87.7812 88.4375,87.7812 48.77284,0 88.4375,-39.3357 88.4375,-87.7812 l 0,-142.5313 0,-4.25 -4.21875,-0.25 c -31.74184,-1.9261 -60.31253,-11.4466 -81.84375,-25.75 l -2.5,-1.625 z m -79.3125,81.5 158.84375,0 0,92.9063 c 0,43.5344 -35.46726,78.7812 -79.40625,78.7812 -43.93824,0 -79.4375,-35.2468 -79.4375,-78.7812 l 0,-92.9063 z"
           transform="matrix(1.1092359,0,0,1.1092359,-97.218973,-297.25232)"
           id="path5012" />
        <path
           style="font-size:medium;font-style:normal;font-variant:normal;font-weight:normal;font-stretch:normal;text-indent:0;text-align:start;text-decoration:none;line-height:normal;letter-spacing:normal;word-spacing:normal;text-transform:none;direction:ltr;block-progression:tb;writing-mode:lr-tb;text-anchor:start;baseline-shift:baseline;color:#000000;fill:#4d71b9;fill-opacity:1;fill-rule:nonzero;stroke:#557dcb;stroke-width:10;stroke-linecap:butt;stroke-linejoin:miter;stroke-miterlimit:4;stroke-opacity:1;stroke-dasharray:none;stroke-dashoffset:0;marker:none;visibility:visible;display:inline;overflow:visible;enable-background:accumulate;font-family:sans-serif"
           d="m 889.99023,2925.3047 0.002,0.01 c -0.0224,0 -0.0446,0 -0.0664,0.01 -0.006,-1e-4 -0.0117,-1e-4 -0.0176,0 l -0.006,0 c -0.009,0 -0.0183,0.01 -0.0273,0.01 l -0.008,0 c -0.0133,0 -0.0263,0.01 -0.0391,0.016 -0.01,0.01 -0.0198,0.011 -0.0293,0.018 l -0.008,0 c -0.009,0.01 -0.0185,0.013 -0.0273,0.019 -0.0181,0.014 -0.0351,0.029 -0.0508,0.045 -0.005,0 -0.009,0.01 -0.0137,0.012 l -0.004,0.01 c -0.008,0.01 -0.0147,0.018 -0.0215,0.027 l -0.006,0.01 c -0.007,0.01 -0.0134,0.019 -0.0195,0.029 -0.004,0.01 -0.008,0.014 -0.0117,0.021 -0.003,0.01 -0.005,0.01 -0.008,0.016 l -0.002,0.01 c -0.006,0.012 -0.0109,0.023 -0.0156,0.035 l -0.002,0 c -0.005,0.013 -0.008,0.026 -0.0117,0.039 -12.32612,37.7443 -26.17298,74.4893 -50.66407,104.5254 -0.18686,0.2308 -0.0835,0.5773 0.19922,0.668 21.00413,6.6998 37.13801,18.2593 50.56836,32.5683 0.004,0 0.009,0.01 0.0137,0.014 0.0152,0.015 0.0315,0.029 0.0488,0.041 0.006,0 0.0116,0.01 0.0176,0.012 0.006,0 0.0129,0.01 0.0195,0.012 0.006,0 0.0116,0.01 0.0176,0.01 0.008,0 0.0155,0.01 0.0234,0.014 0.0197,0.01 0.0399,0.013 0.0605,0.018 0.0186,0.01 0.0375,0.01 0.0566,0.012 0.007,2e-4 0.0143,2e-4 0.0215,0 0.007,2e-4 0.0143,2e-4 0.0215,0 0.007,2e-4 0.013,2e-4 0.0195,0 0.007,2e-4 0.0143,2e-4 0.0215,0 0.0184,0 0.0367,-0.01 0.0547,-0.01 0.008,0 0.0157,-0.01 0.0234,-0.01 l 0.0117,0 c 0.0119,0 0.0236,-0.01 0.0352,-0.012 0.026,-0.01 0.0508,-0.024 0.0742,-0.039 0.006,0 0.0118,-0.01 0.0176,-0.012 0.006,0 0.0118,-0.01 0.0176,-0.014 0.005,0 0.0105,-0.01 0.0156,-0.014 0.009,-0.01 0.0186,-0.016 0.0273,-0.025 13.43036,-14.309 29.56501,-25.8685 50.56836,-32.5683 0.28275,-0.091 0.38608,-0.4372 0.19922,-0.668 -24.49871,-30.0464 -38.3453,-66.8065 -50.67383,-104.5644 -0.0266,-0.078 -0.0755,-0.1467 -0.14062,-0.1973 l -0.006,-0.01 c -0.009,-0.01 -0.0193,-0.013 -0.0293,-0.019 l -0.008,0 c -0.0102,-0.01 -0.0206,-0.012 -0.0312,-0.018 -0.014,-0.01 -0.0283,-0.014 -0.043,-0.019 -0.0383,-0.014 -0.0784,-0.023 -0.11914,-0.025 l -0.006,0 c -0.0137,-7e-4 -0.0273,-7e-4 -0.041,0 z m 0.44336,2.9433 c 12.07916,36.7466 25.78503,72.5181 49.64453,101.9766 -0.20398,0.066 -0.40044,0.1399 -0.60351,0.207 l -16.61719,0 c -1.71679,2.6795 -4.24015,5.3062 -7.38086,8.0098 -6.38591,5.4973 -15.41241,11.4297 -25.88672,18.9512 l 0,4.7285 c -12.78358,-13.4363 -28.03662,-24.4317 -47.52539,-31.168 l 13.34766,0 c -2.01282,-2.9536 -3.05954,-5.9616 -2.85352,-9.1972 -0.13226,-8.9594 5.88079,-15.171 13.46289,-17.6563 1.89953,-0.6226 3.90207,-1.0218 5.94141,-1.1836 0.73887,-0.059 1.48035,-0.084 2.22461,-0.078 5.20984,0.044 10.4797,1.6818 14.77344,5.0234 0.47824,-0.3721 0.97137,-0.7174 1.47265,-1.0468 z m -27.5039,18.6954 c -0.0188,0.017 -0.10194,0.047 -0.31836,0.017 -0.3173,-0.043 -0.55716,0.2727 -0.73438,0.6875 l -0.0176,0 -0.002,0.049 c -0.2063,0.5046 -0.31051,1.074 -0.36133,1.4043 l -0.22656,0.125 -1.38086,0.2461 -3.35156,1.873 -3.10547,2.5117 -3.20508,2.6641 -3.35156,3.4492 -1.52734,1.8242 -3.1543,3.9434 -1.23242,1.6758 -1.57813,2.7109 -2.46289,4.584 -1.18359,2.1191 -1.87305,2.2188 -2.51367,2.1679 -1.92188,1.8243 -2.21875,2.0703 -2.21679,3.0566 -1.03516,1.625 -0.59375,2.0703 -0.34375,0.7403 -1.18359,0.4922 -1.47852,0.7402 -1.57812,1.4785 -1.08399,1.4785 -0.58984,1.1328 -0.64258,0.9864 -0.0488,1.5781 -0.39453,4.3867 -0.14648,2.4629 -0.54297,1.4805 -0.0977,1.6757 0.73828,0.1465 0.68946,-1.5273 1.67773,-1.5274 1.67578,-2.0214 1.97071,-0.6407 1.77539,-1.1328 0.0488,-4.3867 -0.14843,-3.6484 0,-1.084 0.74023,-0.4942 0.39453,-0.5918 0.58985,0.1973 1.23242,1.7754 1.33008,2.168 1.23437,1.875 0.98438,1.8711 0.59179,2.5644 0.29492,0.5918 -0.0488,2.168 -0.19727,1.1836 -0.34375,1.3789 -0.49414,2.1699 0.24609,1.3301 0.83789,1.0351 0.39454,1.7754 0.3457,2.168 0.3457,1.6758 -0.0508,1.9218 0.29688,3.795 0.14843,2.5644 1.23242,0.8867 1.37891,0.1 0.19727,-0.1972 -0.0488,-0.8379 -0.68945,-2.168 -0.34571,-1.332 -0.24609,-3.9434 0,-1.7734 0.16601,-1.9824 0.42774,-3.1055 0.58789,-2.6211 0.53711,-2.6777 0.64062,-2.3535 1.28516,-4.1758 1.125,-3.6387 0.48047,-2.1426 0.26758,-3.2636 0.58984,-1.8731 0.85547,-1.0176 1.71289,-1.498 1.92578,-1.1777 2.46289,-0.9102 2.83594,-1.6055 0.91016,-0.75 1.82226,-1.4453 3.15625,-2.5156 3.58594,-2.8906 1.55273,-1.4981 0.64258,-0.5898 0.69531,-0.2657 0.64258,0.4278 0.10742,0.4805 0.16016,0.5898 -0.32031,0.6426 -0.58985,0.9082 -0.91015,0.9648 -1.01563,0.375 -1.01758,0.5352 -0.96289,0.3203 -0.75,0.2676 -0.32226,0.5351 -0.32031,0.9102 -1.07032,0.1074 -0.37304,0.053 -0.0547,2.1426 0.32031,0.375 0.80274,0 1.01757,-0.5371 0.53516,-0.748 0.375,-0.8575 0.48047,-0.375 1.17773,-0.373 1.23243,-0.375 1.01562,-0.5899 0.96484,-0.6406 0.90821,-1.5527 1.125,-1.3379 0.53515,-1.3398 0.10742,-1.1758 -0.16015,-0.5899 -0.48242,-0.5351 -1.5,-0.1602 -2.72852,-0.375 -0.91015,-0.3203 -0.80274,-1.9277 -1.44531,-2.1934 -1.07031,-1.3926 -0.32032,-1.2851 0.26758,-2.4629 1.60547,-3.4766 1.71289,-2.3027 0.69531,-0.375 0.48243,-0.5879 1.55273,0.053 0.96094,0.75 1.5,0.2129 1.81836,0.055 3.32031,-0.1074 0.53516,0.4824 0.91015,0.2129 0.80274,-0.1602 0.53515,-0.4277 0.32227,-0.75 -0.0391,-0.7187 -2.51367,-2.1211 -2.9082,-1.8223 -3.30273,-2.3672 -1.73047,-0.6543 c -0.64859,-1.9174 -0.20222,-2.017 -0.25586,-1.9687 z m 55.79297,0.051 0,0 c -0.0531,-0.048 0.38135,0.055 -0.23633,1.9121 l -1.74024,0.6582 -3.30078,2.3672 -2.9082,1.8223 -2.51563,2.1211 -0.0371,0.7187 0.32226,0.75 0.53516,0.4277 0.80273,0.1602 0.91016,-0.2129 0.53515,-0.4824 3.31836,0.1074 1.82032,-0.055 1.49804,-0.2129 0.96289,-0.75 1.55274,-0.053 0.48047,0.5879 0.69726,0.375 1.71289,2.3027 1.60547,3.4766 0.26758,2.4629 -0.32227,1.2851 -1.07031,1.3926 -1.44531,2.1934 -0.80274,1.9277 -0.9082,0.3203 -2.73047,0.375 -1.49804,0.1602 -0.48243,0.5351 -0.16015,0.5899 0.10742,1.1757 0.53516,1.3399 1.12304,1.3379 0.91016,1.5527 0.96484,0.6406 1.01563,0.5899 1.23047,0.375 1.17773,0.373 0.48242,0.375 0.37305,0.8575 0.53711,0.748 1.01562,0.5371 0.80274,0 0.32226,-0.375 -0.0547,-2.1426 -0.37305,-0.053 -1.07227,-0.1074 -0.32031,-0.9102 -0.32031,-0.5351 -0.75,-0.2676 -0.96289,-0.3203 -1.01758,-0.5352 -1.01562,-0.375 -0.91211,-0.9648 -0.58789,-0.9082 -0.32032,-0.6426 0.16016,-0.5899 0.10742,-0.4804 0.64063,-0.4278 0.69726,0.2657 0.64063,0.5898 1.55273,1.4981 3.58789,2.8906 3.15625,2.5156 1.82031,1.4453 0.91016,0.75 2.83594,1.6055 2.46289,0.9101 1.92773,1.1778 1.71094,1.498 0.85742,1.0176 0.58985,1.8731 0.26562,3.2636 0.48242,2.1426 1.125,3.6387 1.28321,4.1758 0.64257,2.3535 0.53516,2.6777 0.58789,2.6211 0.42969,3.1055 0.16601,1.9824 0,1.7734 -0.24609,3.9434 -0.3457,1.332 -0.68946,2.168 -0.0508,0.8379 0.19727,0.1972 1.38086,-0.1015 1.23242,-0.8867 0.14844,-2.5625 0.29492,-3.7969 -0.0488,-1.9199 0.3457,-1.6758 0.34375,-2.1699 0.39454,-1.7754 0.83789,-1.0332 0.24609,-1.3301 -0.49219,-2.1699 -0.3457,-1.3789 -0.19727,-1.1836 -0.0488,-2.17 0.29492,-0.5918 0.59179,-2.5624 0.98633,-1.8711 1.23242,-1.875 1.33008,-2.168 1.23242,-1.7754 0.5918,-0.1992 0.39453,0.5918 0.74024,0.4961 0,1.084 -0.14844,3.6484 0.0488,4.3848 1.77539,1.1328 1.9707,0.6406 1.67578,2.0215 1.67774,1.5293 0.68945,1.5254 0.73828,-0.1465 -0.0977,-1.6738 -0.54296,-1.4805 -0.14649,-2.4629 -0.39453,-4.3867 -0.0488,-1.5801 -0.64258,-0.9863 -0.58984,-1.1328 -1.08594,-1.4766 -1.57617,-1.4785 -1.47852,-0.7422 -1.18359,-0.4902 -0.3457,-0.7422 -0.5918,-2.0703 -1.03515,-1.625 -2.2168,-3.0547 -2.21875,-2.0703 -1.92188,-1.8262 -2.51562,-2.166 -1.8711,-2.2207 -1.18359,-2.1172 -2.46484,-4.584 -1.57618,-2.7109 -1.23242,-1.6758 -3.15625,-3.9453 -1.52734,-1.8223 -3.35156,-3.4492 -3.20313,-2.666 -3.10547,-2.5098 -3.35156,-1.873 -1.38086,-0.2461 -0.24805,-0.1348 c -0.0557,-0.3383 -0.15875,-0.8503 -0.33789,-1.3027 l -0.006,-0.1426 -0.0527,0.014 c -0.1749,-0.3885 -0.4049,-0.682 -0.70898,-0.6406 -0.21643,0.029 -0.2996,0 -0.31836,-0.022 z m -28.4375,73.7832 c -0.0183,0.3206 -0.0212,0.6448 -0.0215,0.9707 -7.5e-4,-0.3255 0.004,-0.6504 0.0215,-0.9707 z m -0.0254,1.1348 c 0.006,0.7458 0.0672,1.5006 0.17382,2.2539 -0.10659,-0.7533 -0.16501,-1.5081 -0.17382,-2.2539 z m -35.99415,1.0078 c 0.004,0.115 0.0139,0.2292 0.0215,0.3438 -0.008,-0.1145 -0.0176,-0.229 -0.0215,-0.3438 z m 0.0957,1.0977 c 0.0154,0.112 0.0338,0.2241 0.0527,0.3359 -0.0188,-0.112 -0.0374,-0.2236 -0.0527,-0.3359 z m 0.21094,1.1015 c 0.0247,0.1023 0.0485,0.2046 0.0762,0.3067 -0.0275,-0.102 -0.0516,-0.2045 -0.0762,-0.3067 z m 0.36718,1.2364 c 0.0116,0.032 0.0195,0.065 0.0312,0.098 -0.0118,-0.032 -0.0197,-0.065 -0.0312,-0.098 z m 28.96289,1.8652 c 0.0155,0.055 0.031,0.1075 0.0469,0.1621 -0.0156,-0.054 -0.0317,-0.1075 -0.0469,-0.1621 z m -66.19336,1.1758 0.52735,1.9844 c 1.76542,6.6343 3.96124,13.2676 6.53125,19.9003 l -17.20508,-8.0429 0.39453,0.9902 c 4.10429,10.3172 12.02548,19.8599 23.50781,28.6426 l 0.004,0 -0.63281,3.5391 0.2207,0.1562 c 37.12179,25.9534 75.77296,23.9701 115.25391,2.8965 l 0.26953,-0.1445 -0.6543,-3.7813 c 11.42299,-8.7586 20.5574,-18.8821 24.65625,-29.1855 l 0.39258,-0.9903 -17.20313,8.043 c 2.56944,-6.6319 4.76461,-13.2641 6.5293,-19.8984 l 0.5293,-1.9903 -1.26953,1.6211 c -7.91929,10.1102 -17.38479,19.7729 -28.84571,29.5996 l -0.14257,0.1211 -0.16211,5.7481 c -14.77185,7.7641 -29.20616,11.3394 -43.30469,10.9199 -13.38159,-0.3982 -26.47336,-4.3843 -39.27735,-11.7754 l 0.0313,0 0.0742,-4.5586 c 0.0142,-0.011 0.0288,-0.019 0.043,-0.029 l -0.041,-0.055 0.0391,-2.3633 -0.15039,-0.1289 c -11.4609,-9.8259 -20.92835,-19.4901 -28.84766,-29.5996 z m 68.41602,0.3105 c 0.11678,0.4096 0.2246,0.8269 0.30859,1.2461 -0.084,-0.4195 -0.19162,-0.8363 -0.30859,-1.2461 z m 4.62695,1.4414 c -0.0823,0.073 -0.16493,0.1469 -0.24804,0.2051 0.0834,-0.06 0.16546,-0.1305 0.24804,-0.2051 z m -0.52929,0.3868 c -0.0111,0.01 -0.0221,0.012 -0.0332,0.018 0.0111,-0.01 0.0221,-0.012 0.0332,-0.018 z m 2.52734,0.025 c -0.0675,0.089 -0.1375,0.1726 -0.20703,0.2559 0.0697,-0.083 0.13942,-0.1664 0.20703,-0.2559 z m 14.36328,0.3301 c 0.15064,0.2028 0.29618,0.4061 0.42969,0.6114 -0.13328,-0.2057 -0.27917,-0.4082 -0.42969,-0.6114 z m -14.77539,0.1641 c -0.0716,0.077 -0.14497,0.1493 -0.21875,0.2207 0.0737,-0.071 0.14719,-0.1434 0.21875,-0.2207 z m -0.42383,0.4082 c -0.0758,0.066 -0.15249,0.1298 -0.23047,0.1894 0.0783,-0.06 0.15446,-0.1235 0.23047,-0.1894 z m -0.47851,0.3633 c -0.0699,0.046 -0.13932,0.093 -0.21094,0.1347 0.0716,-0.041 0.14104,-0.089 0.21094,-0.1347 z m -0.50782,0.2871 c -0.0666,0.032 -0.13121,0.066 -0.19921,0.094 0.0677,-0.027 0.13297,-0.062 0.19921,-0.094 z m -71.28906,0.016 c 7.65652,9.5316 16.67013,18.6991 27.48438,27.9844 l -0.0274,1.6289 c -1.09367,0.7216 -2.08503,0.8767 -3.35742,0.3789 -3.0852,-5.6401 -3.72444,-5.5402 -5.625,-7.9141 l -0.0742,-0.094 -0.11328,-0.039 c -0.60846,-0.2182 -1.19121,-0.2745 -1.70703,-0.1758 -0.51582,0.099 -0.96338,0.3506 -1.30078,0.7461 -0.56164,0.6582 -0.803,1.6384 -0.7832,2.8282 l -0.084,-0.064 -0.12109,0.6856 -2.29297,12.8359 c -10.80693,-8.3352 -18.26628,-17.3329 -22.36914,-26.9609 l 17.02344,7.957 -0.38868,-0.9863 c -2.46716,-6.2714 -4.51992,-12.5407 -6.26367,-18.8106 z m 88.4043,0.2344 c 0.0984,0.1882 0.19377,0.3764 0.27734,0.5664 -0.0832,-0.19 -0.17937,-0.3782 -0.27734,-0.5664 z m -17.82813,0.014 c -0.20676,0.052 -0.41547,0.085 -0.625,0.1054 0.20953,-0.021 0.41825,-0.054 0.625,-0.1054 z m 18.24024,0.8964 c 0.0527,0.1352 0.10924,0.2703 0.1543,0.4063 -0.0448,-0.1361 -0.10181,-0.271 -0.1543,-0.4063 z m 0.26758,0.8106 c 0.032,0.1171 0.0695,0.2339 0.0957,0.3515 -0.026,-0.1175 -0.0639,-0.2345 -0.0957,-0.3515 z m 50.17578,0.1621 0,0 c -1.74338,6.2698 -3.7972,12.5398 -6.26367,18.8105 l -0.38672,0.9844 16.99609,-7.9453 c -4.16112,9.6139 -12.70567,19.1582 -23.48242,27.4863 l -2.29297,-13.2343 0.0312,0 c 0.15338,-1.4961 0.14408,-2.6769 -0.30664,-3.5039 -0.22536,-0.4135 -0.60132,-0.7288 -1.06836,-0.8379 -0.46703,-0.1091 -0.99383,-0.036 -1.5957,0.1797 l -0.0918,0.033 -0.0684,0.072 c -2.27356,2.3626 -2.46282,1.9183 -5.59375,7.5899 -1.33713,0.5372 -2.32465,0.6094 -3.41211,-0.088 l 0.043,-1.5606 c 10.81797,-9.2885 19.83373,-18.4557 27.49219,-27.9902 z m -47.84375,4.5762 c -0.59529,0.4674 -1.18372,0.9315 -1.81446,1.4101 0.62975,-0.478 1.22017,-0.9434 1.81446,-1.4101 z m -1.86524,1.4472 c -0.9157,0.6943 -1.86558,1.4024 -2.85156,2.1231 0.98533,-0.7206 1.93654,-1.429 2.85156,-2.1231 z m -72.69726,14.4317 c 0.12899,-0.013 0.26712,-0.01 0.41601,0.012 0.19853,0.023 0.4168,0.073 0.6543,0.1523 1.88748,2.3151 2.41733,2.0867 5.54102,7.8399 l 0.0723,0.1308 0.13672,0.057 c 1.35714,0.5646 2.60072,0.4425 3.76758,-0.166 l -0.0566,3.5546 c -4.04123,-2.3802 -8.05303,-5.0988 -12.03711,-8.1542 l 0.0176,0 c -0.14289,-1.397 0.11149,-2.4041 0.55664,-2.9258 0.24257,-0.2844 0.54466,-0.454 0.93164,-0.4922 z m 105.0039,2.125 0,0 c 0.17615,-0.023 0.32337,-0.022 0.43555,0 0.23945,0.056 0.38328,0.1699 0.51953,0.4199 0.27211,0.4993 0.3552,1.5761 0.20899,3.0078 -3.81908,2.5774 -7.61575,4.8646 -11.39063,6.8887 l 0.0664,-2.4082 c 1.22418,0.5898 2.50404,0.4733 3.87109,-0.096 l 0.13672,-0.061 0.0723,-0.1289 c 3.20309,-5.8277 3.23269,-5.1831 5.46875,-7.4804 0.23011,-0.076 0.43518,-0.1234 0.61132,-0.1465 z m -106.85547,2.0781 c 16.91459,12.9292 34.40761,19.9244 52.43946,20.4609 18.05558,0.5372 36.63116,-5.402 55.67773,-18.1699 l 2.88281,16.6465 c -39.12423,20.7983 -77.15076,22.7342 -113.87695,-2.8281 z m 10.68555,9.4277 -10.10156,7.5957 2.18555,1.2754 2.23242,-1.7597 4.08008,2.3808 -0.50196,2.7735 2.24219,1.3066 2.04492,-12.2988 z m 86.68164,2.0899 -2.12109,1.0957 5.54101,10.1308 7.39844,-3.8222 -0.9414,-1.7207 -5.27539,2.7265 z m -87.04492,0.8457 -0.86719,4.5 -2.78711,-1.625 z m 6.41016,0.8828 -4.83985,10.5684 2.03907,0.8808 3.15625,-6.8887 1.22656,8.7852 2.20508,0.9551 L 860,3076.8848 857.95898,3076 l -3.23242,7.0566 -1.21875,-8.9824 z m 76.98633,0.082 -2.17579,0.9864 5.0293,10.4843 2.17773,-0.9883 z m -6.00196,2.4981 c -0.58366,0.047 -1.22505,0.2008 -1.92187,0.4609 -0.85482,0.3191 -1.53518,0.7174 -2.03907,1.1934 -0.50466,0.4744 -0.82386,1.0127 -0.95507,1.6113 -0.13044,0.5963 -0.0877,1.1718 0.1289,1.7207 0.33773,0.8541 0.96393,1.4537 1.88086,1.793 0.65063,0.2407 1.63753,0.2822 2.95508,0.123 1.02407,-0.1234 1.68584,-0.1884 1.98242,-0.1992 0.43557,-0.01 0.76781,0.045 0.99219,0.166 0.2236,0.1219 0.38813,0.3118 0.48828,0.5664 0.15761,0.3976 0.11056,0.8141 -0.13867,1.2481 -0.24922,0.4324 -0.73303,0.7864 -1.45508,1.0566 -0.68168,0.2531 -1.29278,0.2867 -1.82617,0.1035 -0.53028,-0.1848 -1.0057,-0.6072 -1.41797,-1.2695 l -2.10156,1.0176 c 0.6219,1.1538 1.43789,1.9048 2.43945,2.2558 1.00156,0.3501 2.20369,0.2628 3.60742,-0.2597 0.9643,-0.3595 1.72174,-0.7938 2.26367,-1.2969 0.54115,-0.5039 0.88486,-1.0945 1.02539,-1.7676 0.14054,-0.6708 0.0903,-1.3156 -0.15429,-1.9336 -0.26863,-0.6817 -0.64751,-1.2023 -1.125,-1.5547 -0.47671,-0.3533 -1.034,-0.5684 -1.66211,-0.6406 -0.62655,-0.071 -1.5383,-0.031 -2.72852,0.125 -1.18945,0.1576 -1.97147,0.1775 -2.3457,0.051 -0.2927,-0.097 -0.49359,-0.2785 -0.59375,-0.5332 -0.11025,-0.2779 -0.0806,-0.5454 0.0918,-0.8008 0.26476,-0.396 0.72555,-0.7171 1.37695,-0.9609 0.63122,-0.2345 1.15491,-0.2938 1.56641,-0.168 0.41071,0.1266 0.77695,0.4489 1.08984,0.9668 l 2.20703,-0.9336 c -0.42858,-0.9783 -1.11406,-1.6352 -2.05273,-1.9668 -0.46856,-0.1639 -0.99447,-0.2211 -1.57813,-0.1738 z m -61.31054,1.625 -3.48047,11.0644 4.32421,1.2852 c 0.84707,0.2516 1.55075,0.3711 2.10743,0.3711 0.74457,-0.01 1.37667,-0.1431 1.89453,-0.4024 0.68324,-0.3416 1.29594,-0.8729 1.83398,-1.5918 0.43789,-0.5901 0.80336,-1.3404 1.08985,-2.2519 0.32609,-1.0357 0.47286,-1.9443 0.44726,-2.7246 -0.0256,-0.7802 -0.20005,-1.4876 -0.52148,-2.1172 -0.32299,-0.6266 -0.78894,-1.1392 -1.39453,-1.5274 -0.45187,-0.2889 -1.15514,-0.5744 -2.10157,-0.8554 z m 51.05078,1.7851 -2.45704,0.6387 -1.39648,12.3398 2.46289,-0.6425 0.24805,-2.7832 4.59765,-1.1973 1.70313,2.2754 2.52539,-0.6563 z m -49.33985,0.7715 1.03125,0.3067 c 0.93634,0.2779 1.55188,0.503 1.85156,0.666 0.4014,0.2182 0.70319,0.4978 0.9004,0.8379 0.19953,0.3377 0.3055,0.7617 0.3164,1.2656 0.0109,0.5031 -0.11886,1.1831 -0.38672,2.0371 -0.26941,0.8549 -0.56053,1.5095 -0.87109,1.959 -0.31134,0.448 -0.62578,0.745 -0.93945,0.8886 -0.31211,0.1418 -0.66929,0.2056 -1.06836,0.1856 -0.30746,-0.017 -0.7833,-0.1204 -1.42383,-0.3106 l -1.7168,-0.5097 z m 8.25977,0.5332 -2.0625,11.3926 8.91406,1.5293 0.34766,-1.9199 -6.54883,-1.1231 0.5625,-3.0996 5.88476,1.0098 0.34766,-1.9219 -5.88477,-1.0078 0.45899,-2.5254 6.32422,1.084 0.34961,-1.9278 z m 31.64062,0.9453 0,0 c -0.46535,0 -1.01409,0.042 -1.64453,0.1172 l -5.02148,0.6015 1.45312,11.4785 2.38281,-0.2851 -0.60546,-4.793 0.48437,-0.057 c 0.54891,-0.066 0.95477,-0.07 1.21875,-0.016 0.26087,0.055 0.52192,0.1872 0.77734,0.3945 0.25392,0.2034 0.74509,0.7188 1.46876,1.5371 l 2.03906,2.291 2.85547,-0.3398 -1.72657,-2.0664 c -0.68091,-0.8245 -1.21487,-1.3926 -1.59375,-1.7032 -0.37888,-0.3097 -0.84718,-0.5814 -1.39843,-0.8105 1.01631,-0.2702 1.75203,-0.7173 2.20312,-1.3399 0.448,-0.6235 0.61846,-1.3659 0.50977,-2.2285 -0.0862,-0.6778 -0.33497,-1.2612 -0.74414,-1.748 -0.40994,-0.4844 -0.91622,-0.7974 -1.51172,-0.9356 -0.29853,-0.069 -0.68113,-0.1023 -1.14649,-0.1 z m 8.9043,0.6836 2.72461,3.7324 -3.13672,0.8184 z m -21.57031,0.1563 -4.75586,0.078 0.20508,11.5684 4.05273,-0.066 c 1.52952,-0.034 2.49623,-0.08 2.89453,-0.1289 0.6382,-0.078 1.17261,-0.271 1.60352,-0.5761 0.42935,-0.3036 0.7683,-0.7071 1.00976,-1.2071 0.24146,-0.4993 0.35666,-1.0154 0.34766,-1.541 -0.0124,-0.6677 -0.21889,-1.2479 -0.61719,-1.7363 -0.39829,-0.4868 -0.96001,-0.8258 -1.6875,-1.0176 0.5101,-0.2352 0.91237,-0.5825 1.20508,-1.039 0.28959,-0.4565 0.43085,-0.9573 0.42188,-1.5 -0.009,-0.4992 -0.14023,-0.9486 -0.38868,-1.3477 -0.25,-0.3967 -0.56285,-0.7132 -0.93164,-0.9492 -0.36957,-0.2345 -0.78844,-0.3901 -1.25195,-0.4571 -0.46352,-0.069 -1.16564,-0.094 -2.10742,-0.078 z m 12.24023,1.1465 c 0.39364,0.016 0.71207,0.131 0.95508,0.3437 0.23914,0.212 0.38745,0.5114 0.43555,0.8965 0.0435,0.3439 -0.002,0.6434 -0.13282,0.8926 -0.13043,0.2477 -0.33607,0.4363 -0.60937,0.5644 -0.27174,0.125 -0.98097,0.2598 -2.12305,0.3965 l -1.76562,0.207 -0.36719,-2.9101 1.86133,-0.2227 c 0.96429,-0.1154 1.54966,-0.1679 1.74609,-0.1679 z m -13.17969,0.791 c 1.12966,-0.014 1.81439,-0.01 2.05274,0.012 0.40296,0.04 0.70676,0.1698 0.91406,0.3887 0.20419,0.219 0.31236,0.5088 0.31836,0.8652 0.008,0.3735 -0.10652,0.6792 -0.33789,0.9121 -0.22904,0.2305 -0.55178,0.3767 -0.96094,0.4297 -0.22671,0.03 -0.80935,0.051 -1.74414,0.066 l -1.57422,0.027 -0.0488,-2.6777 1.38085,-0.02 z m -8.95898,4.041 -0.19922,2.209 4.46289,0.3808 0.20117,-2.2109 z m 9.60156,0.5527 c 1.09318,-0.018 1.80402,0.028 2.13477,0.1309 0.32842,0.104 0.58079,0.2772 0.75781,0.5156 0.17702,0.2391 0.27134,0.5327 0.27734,0.8789 0.007,0.4092 -0.0998,0.7414 -0.32031,0.9883 -0.2205,0.2469 -0.51041,0.4056 -0.86523,0.4746 -0.23059,0.049 -0.78003,0.087 -1.64649,0.1016 l -2.22265,0.037 -0.0547,-3.0938 1.93945,-0.031 z"
           id="path5014"
           inkscape:connector-curvature="0"
           sodipodi:nodetypes="cccccccccccccccccccccccccccccccccccccccccccccccccccccccccccccccccccccccccccccccccccccccccccccccccccccccccccccccccccccccccccccccccccccccccccccccccccccccccccccccccccccccccccccccccccccccccccccccccccccccccccccccccccccccccccccccccccccccccccccccccccccccccccccccccccccccccccccccccccccccccccccccccccccccccccccccccccccccccccccccccccccccccccccccccccccccccccccccccccccccccccccccccccccccccccccccccccccccccccccccccccccccccccccccccccccccccccccccscccccccccccccccccccccccccccccccccccccccccccccccccccccccccccccccccccccccccsscccccccccccccccccccccccccccccccccccccccscccccccccccccccccccccccccccccccccccccccccccccccccccccccccccccccccccccccccccccccsccccccccccccccccccccccccccccccccccccccccccccccccccccccccccccccccccccccccccccccccccccccccccccccccccccccccccccccccccccc" />
        <path
           inkscape:connector-curvature="0"
           style="color:#000000;fill:#feeb02;fill-opacity:1;fill-rule:nonzero;stroke:none;stroke-width:10;marker:none;visibility:visible;display:inline;overflow:visible;enable-background:accumulate"
           d="m 887.30469,2872.9141 c -0.13904,0.4634 -0.42221,0.6953 -0.84961,0.6953 -0.14418,0 -0.41671,-0.075 -0.81836,-0.2246 l -0.48047,-0.1778 c -0.4377,-0.1651 -0.84018,-0.2461 -1.21094,-0.2461 -0.71061,0 -1.34958,0.4991 -1.91601,1.4981 l 1.2207,0.8105 c 0.24717,-0.5149 0.56035,-0.7715 0.94141,-0.7715 0.18022,0 0.45275,0.073 0.81836,0.2227 l 0.57226,0.2246 c 0.42225,0.1699 0.81604,0.2559 1.18164,0.2559 0.26262,0 0.5671,-0.1046 0.91211,-0.3106 0.34501,-0.2059 0.63618,-0.5678 0.87305,-1.0879 l -1.24414,-0.8886 z m -57.13672,2.4863 c -0.77241,0 -1.43073,0.1266 -1.97656,0.3789 -0.54584,0.2472 -0.94229,0.5923 -1.18946,1.0352 -0.24202,0.4428 -0.36328,1.1437 -0.36328,2.1015 0,0.6643 0.084,1.2093 0.25391,1.6367 0.17508,0.4274 0.39363,0.7619 0.65625,1.0039 0.26262,0.2421 0.79897,0.6305 1.60742,1.1661 0.80845,0.5303 1.31551,0.9101 1.52148,1.1367 0.20079,0.2265 0.30079,0.707 0.30079,1.4433 0,0.3347 -0.054,0.5879 -0.16211,0.7578 -0.10299,0.17 -0.26225,0.254 -0.47852,0.254 -0.21627,0 -0.36758,-0.065 -0.45508,-0.1993 -0.0824,-0.1338 -0.125,-0.4357 -0.125,-0.9043 l 0,-1.5214 -3.01953,0 0,0.8183 c 0,0.9372 0.0946,1.6601 0.28516,2.1699 0.19052,0.5098 0.5923,0.9302 1.20508,1.2598 0.61792,0.3296 1.36217,0.4941 2.23242,0.4941 0.793,0 1.48859,-0.1425 2.08594,-0.4257 0.59731,-0.2884 0.9991,-0.6422 1.20507,-1.0645 0.21113,-0.4222 0.31641,-1.0799 0.31641,-1.9707 0,-1.2255 -0.18855,-2.1131 -0.56445,-2.6641 -0.37591,-0.5509 -1.2874,-1.2572 -2.73438,-2.1171 -0.50464,-0.2987 -0.80983,-0.5526 -0.91797,-0.7637 -0.11332,-0.2111 -0.16992,-0.5263 -0.16992,-0.9434 0,-0.3244 0.0487,-0.565 0.14648,-0.7246 0.10299,-0.1592 0.25159,-0.2402 0.44727,-0.2402 0.18023,0 0.30952,0.059 0.38672,0.1777 0.0772,0.1184 0.11523,0.3936 0.11523,0.8262 l 0,0.9277 3.02149,0 0,-0.4941 c 0,-0.9939 -0.0992,-1.6974 -0.29492,-2.1094 -0.19053,-0.4171 -0.58432,-0.7622 -1.18164,-1.0352 -0.59218,-0.2729 -1.3098,-0.4101 -2.1543,-0.4101 z m 8.17773,0 c -0.7724,0 -1.43073,0.1266 -1.97656,0.3789 -0.54583,0.2472 -0.94228,0.5923 -1.18945,1.0352 -0.24202,0.4428 -0.36328,1.1437 -0.36328,2.1015 0,0.6643 0.084,1.2093 0.2539,1.6367 0.17508,0.4274 0.39559,0.7619 0.65821,1.0039 0.26261,0.2421 0.79701,0.6305 1.60546,1.1661 0.80846,0.5303 1.31551,0.9101 1.52149,1.1367 0.20078,0.2265 0.30078,0.707 0.30078,1.4433 0,0.3347 -0.054,0.5879 -0.16211,0.7578 -0.10299,0.17 -0.26224,0.254 -0.47852,0.254 -0.21626,0 -0.36757,-0.065 -0.45507,-0.1993 -0.0824,-0.1338 -0.12305,-0.4357 -0.12305,-0.9043 l 0,-1.5214 -3.02148,0 0,0.8183 c 0,0.9372 0.0966,1.6601 0.2871,2.1699 0.19055,0.5098 0.59231,0.9302 1.20508,1.2598 0.61793,0.3296 1.36023,0.4941 2.23047,0.4941 0.79301,0 1.48861,-0.1425 2.08594,-0.4257 0.59733,-0.2884 0.9991,-0.6422 1.20508,-1.0645 0.21112,-0.4222 0.3164,-1.0799 0.3164,-1.9707 0,-1.2255 -0.18659,-2.1131 -0.5625,-2.6641 -0.3759,-0.5509 -1.2874,-1.2572 -2.73437,-2.1171 -0.50464,-0.2987 -0.81179,-0.5526 -0.91992,-0.7637 -0.11332,-0.2111 -0.16992,-0.5263 -0.16992,-0.9434 -2e-5,-0.3244 0.0487,-0.565 0.14648,-0.7246 0.10299,-0.1592 0.25354,-0.2402 0.44922,-0.2402 0.18023,0 0.30756,0.059 0.38476,0.1777 0.0773,0.1184 0.11719,0.3936 0.11719,0.8262 l 0,0.9277 3.01953,0 0,-0.4941 c 0,-0.9939 -0.0973,-1.6974 -0.29297,-2.1094 -0.19052,-0.4171 -0.58431,-0.7622 -1.18164,-1.0352 -0.59217,-0.2729 -1.31175,-0.4101 -2.15625,-0.4101 z m 8.58789,0 c -0.70546,0 -1.32313,0.1159 -1.85351,0.3476 -0.53039,0.2318 -0.95347,0.5655 -1.26758,0.9981 -0.30896,0.4325 -0.49289,0.9103 -0.55469,1.4355 -0.0566,0.5201 -0.0859,1.4077 -0.0859,2.6641 l 0,2.1406 c -2e-5,1.2874 0.032,2.1882 0.0937,2.7032 0.0618,0.5149 0.25372,0.9919 0.57813,1.4296 0.32441,0.4377 0.75282,0.7669 1.2832,0.9883 0.53554,0.2163 1.13723,0.3242 1.80664,0.3242 0.70547,0 1.32313,-0.1159 1.85352,-0.3476 0.53038,-0.2317 0.95078,-0.5636 1.25977,-0.9961 0.31409,-0.4326 0.50004,-0.9096 0.55664,-1.4297 0.0618,-0.5252 0.0918,-1.4154 0.0918,-2.6719 l 0,-2.1406 c 0,-1.2873 -0.03,-2.1882 -0.0918,-2.7031 -0.0618,-0.515 -0.25567,-0.9901 -0.58008,-1.4278 -0.32441,-0.4377 -0.75354,-0.7661 -1.28906,-0.9824 -0.53041,-0.2214 -1.13137,-0.332 -1.80079,-0.332 z m 8.66797,0 c -0.70546,0 -1.33112,0.1213 -1.87695,0.3633 -0.54068,0.2368 -0.96448,0.5653 -1.27344,0.9824 -0.30381,0.4171 -0.48703,0.8515 -0.54883,1.3047 -0.0617,0.448 -0.0937,1.1223 -0.0937,2.0234 l 0,3.6543 c 0,1.2256 0.10191,2.1431 0.30274,2.7559 0.20082,0.6076 0.60864,1.0847 1.22656,1.4297 0.61793,0.345 1.40479,0.5175 2.35742,0.5175 0.91659,0 1.68552,-0.2025 2.3086,-0.6093 0.62822,-0.4068 1.03266,-0.8812 1.21289,-1.4219 0.18534,-0.5407 0.27734,-1.4575 0.27734,-2.75 l 0,-0.4863 -3.25195,0 0,1.5683 c 0,0.6849 -0.038,1.1193 -0.11524,1.3047 -0.0721,0.1854 -0.22868,0.2774 -0.4707,0.2774 -0.25232,0 -0.41423,-0.092 -0.48633,-0.2774 -0.0721,-0.1854 -0.10937,-0.5818 -0.10937,-1.1894 l 0,-5.8086 c 0,-0.6334 0.0373,-1.0458 0.10937,-1.2364 0.0721,-0.1901 0.242,-0.2851 0.50977,-0.2851 0.23687,0 0.38808,0.081 0.45508,0.2402 0.0721,0.1545 0.10742,0.5483 0.10742,1.1817 l 0,2.1777 3.25195,0 0,-1.1895 c 0,-1.1689 -0.0973,-2.0291 -0.29297,-2.58 -0.19567,-0.5562 -0.60544,-1.0199 -1.22851,-1.3907 -0.62308,-0.3707 -1.41331,-0.5566 -2.3711,-0.5566 z m 21.35547,0 c -0.70546,0 -1.33112,0.1213 -1.87695,0.3633 -0.54069,0.2368 -0.96448,0.5653 -1.27344,0.9824 -0.30381,0.4171 -0.48703,0.8515 -0.54883,1.3047 -0.0617,0.448 -0.0937,1.1223 -0.0937,2.0234 l 0,3.6543 c 0,1.0814 0.07,1.9096 0.20899,2.4863 0.14418,0.5716 0.46198,1.0574 0.95117,1.459 0.49434,0.3965 1.18196,0.6368 2.0625,0.7188 l 0,0.7734 0.19922,0 c 0.21627,0 0.37748,0.041 0.48047,0.1231 0.10811,0.088 0.16211,0.2168 0.16211,0.3867 0,0.1545 -0.04,0.2706 -0.11719,0.3476 -0.0721,0.077 -0.18536,0.1153 -0.33985,0.1153 -0.18537,0 -0.31266,-0.108 -0.38476,-0.3242 l -1.14453,0 c 0.22142,0.8136 0.7338,1.2207 1.53711,1.2207 0.44284,0 0.82527,-0.1453 1.14453,-0.4336 0.31926,-0.2833 0.47851,-0.6204 0.47851,-1.0118 0,-0.3141 -0.11593,-0.5626 -0.34765,-0.748 -0.23172,-0.1805 -0.48756,-0.2715 -0.76563,-0.2715 l 0,-0.1465 c 0.94749,-0.057 1.70506,-0.3045 2.27149,-0.7422 0.57158,-0.4428 0.93003,-0.9232 1.07422,-1.4433 0.14414,-0.5253 0.21484,-1.3881 0.21484,-2.5879 l 0,-0.4863 -3.25195,0 0,1.5683 c 0,0.6849 -0.038,1.1193 -0.11524,1.3047 -0.0721,0.1854 -0.22868,0.2774 -0.4707,0.2774 -0.25232,0 -0.41423,-0.092 -0.48633,-0.2774 -0.0721,-0.1854 -0.10937,-0.5818 -0.10937,-1.1894 l 0,-5.8086 c 0,-0.6334 0.0373,-1.0458 0.10937,-1.2364 0.0721,-0.1901 0.242,-0.2851 0.50977,-0.2851 0.23687,0 0.38817,0.081 0.45507,0.2402 0.0721,0.1545 0.10743,0.5483 0.10743,1.1817 l 0,2.1777 3.25195,0 0,-1.1895 c 0,-1.1689 -0.0973,-2.0291 -0.29297,-2.58 -0.19568,-0.5562 -0.60544,-1.0199 -1.22852,-1.3907 -0.62307,-0.3707 -1.41331,-0.5566 -2.37109,-0.5566 z m 16.76953,0 c -0.70546,0 -1.32313,0.1159 -1.85351,0.3476 -0.53039,0.2318 -0.95347,0.5655 -1.26758,0.9981 -0.30896,0.4325 -0.49484,0.9103 -0.55664,1.4355 -0.0566,0.5201 -0.084,1.4077 -0.084,2.6641 l 0,2.1406 c 0,1.2874 0.03,2.1882 0.0918,2.7032 0.0618,0.5149 0.25567,0.9919 0.58008,1.4296 0.32441,0.4377 0.75086,0.7669 1.28125,0.9883 0.53553,0.2163 1.13917,0.3242 1.80859,0.3242 0.70547,0 1.32313,-0.1159 1.85352,-0.3476 0.53038,-0.2317 0.9508,-0.5636 1.25976,-0.9961 0.31412,-0.4326 0.49809,-0.9096 0.55469,-1.4297 0.0617,-0.5252 0.0937,-1.4154 0.0937,-2.6719 l 0,-2.1406 c 0,-1.2873 -0.032,-2.1882 -0.0937,-2.7031 -0.0618,-0.515 -0.25371,-0.9901 -0.57812,-1.4278 -0.32441,-0.4377 -0.75548,-0.7661 -1.29102,-0.9824 -0.53038,-0.2214 -1.12941,-0.332 -1.79883,-0.332 z m 28.04492,0 c -0.70546,0 -1.33112,0.1213 -1.87695,0.3633 -0.54068,0.2368 -0.96447,0.5653 -1.27344,0.9824 -0.30381,0.4171 -0.48702,0.8515 -0.54882,1.3047 -0.0618,0.448 -0.0918,1.1223 -0.0918,2.0234 l 0,3.6543 c 0,1.2256 0.1,2.1431 0.30078,2.7559 0.20083,0.6076 0.61059,1.0847 1.22852,1.4297 0.61792,0.345 1.40283,0.5175 2.35546,0.5175 0.91659,0 1.68552,-0.2025 2.3086,-0.6093 0.62822,-0.4068 1.03266,-0.8812 1.21289,-1.4219 0.1854,-0.5407 0.2793,-1.4575 0.2793,-2.75 l 0,-0.4863 -3.25196,0 0,1.5683 c 0,0.6849 -0.04,1.1193 -0.11718,1.3047 -0.0721,0.1854 -0.22869,0.2774 -0.47071,0.2774 -0.25232,0 -0.41423,-0.092 -0.48633,-0.2774 -0.0721,-0.1854 -0.10742,-0.5818 -0.10742,-1.1894 l 0,-5.8086 c 0,-0.6334 0.0353,-1.0458 0.10742,-1.2364 0.0721,-0.1901 0.242,-0.2851 0.50977,-0.2851 0.23687,0 0.38818,0.081 0.45508,0.2402 0.0721,0.1545 0.10937,0.5483 0.10937,1.1817 l 0,2.1777 3.25196,0 0,-1.1895 c 0,-1.1689 -0.0992,-2.0291 -0.29493,-2.58 -0.19567,-0.5562 -0.60348,-1.0199 -1.22656,-1.3907 -0.62307,-0.3707 -1.41526,-0.5566 -2.37305,-0.5566 z m 13.28907,0 c -0.70547,0 -1.32313,0.1159 -1.85352,0.3476 -0.53038,0.2318 -0.95347,0.5655 -1.26758,0.9981 -0.30896,0.4325 -0.49288,0.9103 -0.55468,1.4355 -0.0566,0.5201 -0.0859,1.4077 -0.0859,2.6641 l 0,2.1406 c 0,1.2874 0.032,2.1882 0.0937,2.7032 0.0618,0.5149 0.25371,0.9919 0.57812,1.4296 0.32441,0.4377 0.75282,0.7669 1.28321,0.9883 0.53553,0.2163 1.13722,0.3242 1.80664,0.3242 0.70546,0 1.32313,-0.1159 1.85351,-0.3476 0.53039,-0.2317 0.95081,-0.5636 1.25977,-0.9961 0.31411,-0.4326 0.50004,-0.9096 0.55664,-1.4297 0.0618,-0.5252 0.0918,-1.4154 0.0918,-2.6719 l 0,-2.1406 c 0,-1.2873 -0.03,-2.1882 -0.0918,-2.7031 -0.0618,-0.515 -0.25567,-0.9901 -0.58008,-1.4278 -0.32441,-0.4377 -0.75353,-0.7661 -1.28906,-0.9824 -0.53039,-0.2214 -1.13136,-0.332 -1.80078,-0.332 z m -115.27735,0.2637 -1.65234,12.5058 3.36719,0 0.19336,-2.248 1.16601,0 0.16211,2.248 3.33008,0 -1.86133,-12.5058 -4.70508,0 z m 40.88282,0 0,12.5058 3.25195,0 0,-12.5058 -3.25195,0 z m 5.46679,0 -1.65234,12.5058 3.36719,0 0.19336,-2.248 1.16601,0 0.16211,2.248 3.33008,0 -1.86133,-12.5058 -4.70508,0 z m 16.80078,0 -1.65429,12.5058 3.36718,0 0.19336,-2.248 1.16602,0 0.16406,2.248 3.32813,0 -1.86133,-12.5058 -4.70313,0 z m 18.54493,0 0,12.5058 2.71875,0 0,-5.6855 1.6914,5.6855 2.84961,0 0,-12.5058 -2.71875,0 0,5.6308 -1.82226,-5.6308 -2.71875,0 z m 9.46875,0 -1.65235,12.5058 3.36719,0 0.19336,-2.248 1.16601,0 0.16211,2.248 3.33008,0 -1.86133,-12.5058 -4.70507,0 z m 15.88867,0 0,12.5058 3.25195,0 0,-12.5058 -3.25195,0 z m 13.19336,0 0,12.5058 2.71875,0 0,-5.6855 1.6914,5.6855 2.84961,0 0,-12.5058 -2.71875,0 0,5.6308 -1.82226,-5.6308 -2.71875,0 z m 9.46875,0 -1.65235,12.5058 3.36719,0 0.19336,-2.248 1.16602,0 0.16211,2.248 3.33007,0 -1.86133,-12.5058 -4.70507,0 z m 7.125,0 0,12.5058 5.22851,0 0,-2.5039 -1.97656,0 0,-10.0019 -3.25195,0 z m -109.67383,1.8535 c 0.20082,0 0.33273,0.083 0.39453,0.248 0.0669,0.1597 0.0996,0.5295 0.0996,1.1114 l 0,5.746 c 0,0.7364 -0.03,1.2028 -0.0918,1.3985 -0.0618,0.196 -0.20436,0.293 -0.42578,0.293 -0.21627,0 -0.35421,-0.084 -0.41601,-0.254 -0.0566,-0.1699 -0.0859,-0.6176 -0.0859,-1.3437 l 0,-5.8398 c 0,-0.6437 0.0434,-1.0296 0.13086,-1.1582 0.0927,-0.1342 0.2246,-0.2012 0.39453,-0.2012 z m 46.79297,0 c 0.20082,0 0.33078,0.083 0.39258,0.248 0.067,0.1597 0.10156,0.5295 0.10156,1.1114 l 0,5.746 c 0,0.7364 -0.0319,1.2028 -0.0937,1.3985 -0.0618,0.196 -0.20241,0.293 -0.42383,0.293 -0.21627,0 -0.35617,-0.084 -0.41797,-0.254 -0.0567,-0.1699 -0.084,-0.6176 -0.084,-1.3437 l 0,-5.8398 c 0,-0.6437 0.0434,-1.0296 0.13086,-1.1582 0.0927,-0.1342 0.2246,-0.2012 0.39453,-0.2012 z m 41.33398,0 c 0.20083,0 0.33273,0.083 0.39453,0.248 0.0669,0.1597 0.0996,0.5295 0.0996,1.1114 l 0,5.746 c 0,0.7364 -0.03,1.2028 -0.0918,1.3985 -0.0618,0.196 -0.20436,0.293 -0.42579,0.293 -0.21627,0 -0.35421,-0.084 -0.41601,-0.254 -0.0566,-0.1699 -0.0859,-0.6176 -0.0859,-1.3437 l 0,-5.8398 c 0,-0.6437 0.0434,-1.0296 0.13086,-1.1582 0.0927,-0.1342 0.2246,-0.2012 0.39453,-0.2012 z m -112.80469,0.9414 c 0.16478,2.0803 0.32938,3.83 0.49414,5.2461 l -1.11328,0 c 0.0824,-1.1071 0.28958,-2.8568 0.61914,-5.2461 z m 46.34961,0 c 0.16478,2.0803 0.32936,3.83 0.49414,5.2461 l -1.11328,0 c 0.0824,-1.1071 0.28958,-2.8568 0.61914,-5.2461 z m 16.79883,0 c 0.16478,2.0803 0.32936,3.83 0.49414,5.2461 l -1.11133,0 c 0.0824,-1.1071 0.28763,-2.8568 0.61719,-5.2461 z m 28.01563,0 c 0.16478,2.0803 0.32936,3.83 0.49414,5.2461 l -1.11328,0 c 0.0824,-1.1071 0.28958,-2.8568 0.61914,-5.2461 z m 38.55078,0 c 0.16478,2.0803 0.32936,3.83 0.49414,5.2461 l -1.11328,0 c 0.0824,-1.1071 0.28958,-2.8568 0.61914,-5.2461 z m -83.8125,12.7617 c -0.60248,0 -1.15019,0.1 -1.64453,0.3008 -0.49434,0.2008 -0.89878,0.5 -1.21289,0.8965 -0.31412,0.3913 -0.52397,0.8098 -0.62696,1.2578 -0.0978,0.4428 -0.14648,1.0898 -0.14648,1.9394 l 0,3.8692 c 0,1.1225 0.0859,1.9667 0.25586,2.5332 0.16993,0.5613 0.52039,1.025 1.05078,1.3906 0.53038,0.3656 1.16403,0.5591 1.90039,0.5801 0,0.4686 0.0407,0.7924 0.12305,0.9726 0.0875,0.1803 0.25212,0.3144 0.49414,0.4024 0.24202,0.093 0.65977,0.1387 1.25195,0.1387 l 2.45508,0 0,-1.5137 -1.12695,0 c -0.37591,0 -0.61577,-0.035 -0.71875,-0.1074 -0.0978,-0.072 -0.15453,-0.2474 -0.16993,-0.5254 0.50979,-0.1236 0.91689,-0.3015 1.22071,-0.5332 0.30896,-0.2369 0.51686,-0.5547 0.625,-0.9512 0.10811,-0.3965 0.16211,-1.1495 0.16211,-2.2617 l 0,-4.0645 c 0,-0.8084 -0.0434,-1.4154 -0.13086,-1.8222 -0.0824,-0.412 -0.26562,-0.8084 -0.54883,-1.1895 -0.27807,-0.3811 -0.70186,-0.6942 -1.27344,-0.9414 -0.56643,-0.2472 -1.21339,-0.3711 -1.93945,-0.3711 z m 17.42187,0 c -0.70546,0 -1.32313,0.1159 -1.85351,0.3477 -0.53039,0.2317 -0.95347,0.5635 -1.26758,0.9961 -0.30896,0.4325 -0.49484,0.9103 -0.55664,1.4355 -0.0567,0.5201 -0.084,1.4096 -0.084,2.666 l 0,2.1387 c 0,1.2873 0.03,2.1882 0.0918,2.7031 0.0618,0.5149 0.25567,0.992 0.58008,1.4297 0.32441,0.4377 0.75086,0.7669 1.28125,0.9883 0.53553,0.2163 1.13917,0.3242 1.80859,0.3242 0.70547,0 1.32313,-0.1159 1.85352,-0.3477 0.53038,-0.2317 0.9508,-0.5633 1.25976,-0.9961 0.31412,-0.4325 0.49809,-0.9076 0.55469,-1.4277 0.0617,-0.5252 0.0937,-1.4174 0.0937,-2.6738 l 0,-2.1387 c 0,-1.2873 -0.032,-2.1882 -0.0937,-2.7031 -0.0618,-0.5149 -0.25371,-0.992 -0.57812,-1.4297 -0.32441,-0.4377 -0.75548,-0.7642 -1.29102,-0.9805 -0.53038,-0.2214 -1.12941,-0.332 -1.79883,-0.332 z m -45.62109,0.2617 0,12.5059 4.10156,0 c 0.77756,0 1.35989,-0.041 1.7461,-0.1231 0.3862,-0.088 0.71003,-0.2381 0.97265,-0.4492 0.26262,-0.2163 0.44584,-0.5128 0.54883,-0.8887 0.10811,-0.381 0.16211,-1.1313 0.16211,-2.2539 l 0,-4.3808 c 0,-1.1844 -0.0353,-1.9773 -0.10742,-2.3789 -0.0721,-0.4068 -0.25265,-0.774 -0.54102,-1.1035 -0.28836,-0.3296 -0.71144,-0.5668 -1.26758,-0.711 -0.55098,-0.1438 -1.61108,-0.2168 -3.18164,-0.2168 l -2.43359,0 z m 8.74805,0 0,12.5059 5.63867,0 0,-2.502 -2.38672,0 0,-2.75 2.03125,0 0,-2.3789 -2.03125,0 0,-2.3711 2.16992,0 0,-2.5039 -5.42187,0 z m 9.34961,0 0,12.5059 5.63867,0 0,-2.502 -2.38672,0 0,-2.75 2.03125,0 0,-2.3789 -2.03125,0 0,-2.3711 2.16992,0 0,-2.5039 -5.42187,0 z m 15.15429,0 0,7.4004 c 0,1.4109 0.0266,2.3384 0.0781,2.7813 0.0515,0.4377 0.21874,0.8535 0.50195,1.25 0.28322,0.3965 0.70967,0.7196 1.28125,0.9668 0.57158,0.2471 1.23186,0.3691 1.97852,0.3691 0.67456,0 1.25761,-0.1026 1.75195,-0.3086 0.49949,-0.2111 0.90126,-0.5163 1.20508,-0.918 0.30381,-0.4068 0.48703,-0.8005 0.54883,-1.1816 0.0617,-0.3862 0.0937,-1.0545 0.0937,-2.002 l 0,-8.3574 -3.25196,0 0,9.2149 c 0,0.623 -0.0319,1.0195 -0.0937,1.1894 -0.0566,0.1651 -0.1866,0.2481 -0.39258,0.2481 -0.18022,0 -0.30148,-0.075 -0.36328,-0.2246 -0.0566,-0.1545 -0.0859,-0.505 -0.0859,-1.0508 l 0,-9.377 -3.25196,0 z m 16.78125,0 0,2.5039 1.92188,0 0,10.002 3.25195,0 0,-10.002 1.93164,0 0,-2.5039 -7.10547,0 z m 7.84766,0 0,12.5059 5.63867,0 0,-2.502 -2.38672,0 0,-2.75 2.03125,0 0,-2.3789 -2.03125,0 0,-2.3711 2.16992,0 0,-2.5039 -5.42187,0 z m 6.58203,0 0,12.5059 3.25,0 0,-5.6387 c 0.448,0 0.72514,0.081 0.82812,0.2402 0.10812,0.1597 0.16211,0.5728 0.16211,1.2422 l 0,4.1563 3.01954,0 0,-3.2988 c 0,-1.0093 -0.0293,-1.6245 -0.0859,-1.8457 -0.0515,-0.2267 -0.18676,-0.4745 -0.40821,-0.7422 -0.22141,-0.2678 -0.65515,-0.481 -1.29882,-0.6407 0.71061,-0.067 1.18766,-0.2668 1.42968,-0.6015 0.24202,-0.3347 0.36329,-0.9897 0.36329,-1.9629 0,-1.0659 -0.17257,-1.8402 -0.51758,-2.3242 -0.33986,-0.4892 -0.78229,-0.7937 -1.32813,-0.9121 -0.54068,-0.1188 -1.57877,-0.1778 -3.11328,-0.1778 l -2.30078,0 z m 9.42188,0 -1.6543,12.5059 3.36914,0 0.1914,-2.2481 1.16797,0 0.16211,2.2481 3.32813,0 -1.86133,-12.5059 -4.70312,0 z m 7.12304,0 0,12.5059 3.25196,0 0,-5.0371 0.87304,0 c 0.71062,0 1.28496,-0.097 1.72266,-0.293 0.44284,-0.1957 0.74733,-0.4762 0.91211,-0.8418 0.16479,-0.3656 0.24609,-0.9479 0.24609,-1.7461 l 0,-1.0879 c 0,-0.7827 -0.0434,-1.3597 -0.13086,-1.7304 -0.0824,-0.376 -0.24431,-0.6964 -0.48633,-0.959 -0.23687,-0.2626 -0.59533,-0.4626 -1.07421,-0.6016 -0.47376,-0.139 -1.15338,-0.209 -2.03907,-0.209 l -3.27539,0 z m 7.94141,0 0,12.5059 3.25195,0 0,-12.5059 -3.25195,0 z m 5.46679,0 -1.65234,12.5059 3.36719,0 0.19336,-2.2481 1.16601,0 0.16211,2.2481 3.33008,0 -1.86133,-12.5059 -4.70508,0 z m -66.07031,1.8535 c 0.20083,0 0.33273,0.083 0.39453,0.2481 0.0669,0.1596 0.0996,0.5294 0.0996,1.1113 l 0,5.7481 c 0,0.7363 -0.03,1.2027 -0.0918,1.3984 -0.0618,0.196 -0.20438,0.293 -0.42578,0.293 -0.2163,0 -0.35422,-0.086 -0.41602,-0.2559 -0.0566,-0.1699 -0.0859,-0.6177 -0.0859,-1.3437 l 0,-5.8399 c 0,-0.6437 0.0434,-1.0295 0.13086,-1.1582 0.0927,-0.1342 0.2246,-0.2012 0.39453,-0.2012 z m 17.29102,0 c 0.20082,0 0.33078,0.083 0.39258,0.2481 0.067,0.1596 0.10156,0.5294 0.10156,1.1113 l 0,5.7481 c 0,0.7363 -0.0319,1.2027 -0.0937,1.3984 -0.0618,0.196 -0.20241,0.293 -0.42383,0.293 -0.21627,0 -0.35617,-0.086 -0.41797,-0.2559 -0.0567,-0.1699 -0.084,-0.6177 -0.084,-1.3437 l 0,-5.8399 c 0,-0.6437 0.0434,-1.0295 0.13086,-1.1582 0.0927,-0.1342 0.2246,-0.2012 0.39453,-0.2012 z m -42.38477,0.2871 c 0.35531,0 0.59783,0.038 0.72656,0.1153 0.12875,0.072 0.2101,0.188 0.2461,0.3476 0.0361,0.1597 0.0547,0.5235 0.0547,1.0899 l 0,4.8574 c 0,0.8342 -0.054,1.3466 -0.16211,1.5371 -0.10814,0.1854 -0.39664,0.2774 -0.86524,0.2774 l 0,-8.2247 z m 64.46094,0 c 0.3759,0 0.6344,0.062 0.77344,0.1856 0.14419,0.1236 0.21679,0.3828 0.21679,0.7793 l 0,0.6875 c 0,0.551 -0.0752,0.8775 -0.22461,0.9805 -0.14416,0.097 -0.40001,0.1464 -0.76562,0.1464 l 0,-2.7793 z m 16.54688,0 c 0.42222,0 0.7001,0.065 0.83398,0.1934 0.13387,0.1287 0.20117,0.4065 0.20117,0.8339 l 0,1.0274 c 0,0.4635 -0.0593,0.7687 -0.17773,0.918 -0.11329,0.1438 -0.31853,0.2168 -0.61719,0.2168 -0.0669,0 -0.14753,2e-4 -0.24023,-0.01 l 0,-3.1797 z m -7.88868,0.6543 c 0.16478,2.0803 0.32936,3.8281 0.49414,5.2441 l -1.11132,0 c 0.0824,-1.1071 0.28762,-2.8548 0.61718,-5.2441 z m 20.53321,0 c 0.16478,2.0803 0.32936,3.8281 0.49414,5.2441 l -1.11328,0 c 0.0824,-1.1071 0.28958,-2.8548 0.61914,-5.2441 z"
           id="path5018" />
        <path
           inkscape:connector-curvature="0"
           style="fill:#cc5c46;fill-opacity:1;fill-rule:evenodd;stroke:#557dcb;stroke-width:10;stroke-miterlimit:4;stroke-opacity:1;stroke-dasharray:none"
           d="m 874.24023,3004.5684 c -0.7197,-0.01 -1.43732,0.018 -2.1504,0.074 -1.90148,0.1487 -3.76653,0.5173 -5.53125,1.0957 -7.05876,2.3137 -12.42426,7.8281 -12.27927,16.0429 a 0.86266876,0.86266876 0 0 1 -0.002,0.07 c -0.336,5.1745 3.02621,9.8886 9.29297,15.2832 6.15867,5.3016 15.06147,11.1859 25.39063,18.5898 10.32895,-7.4035 19.23223,-13.2885 25.39062,-18.5898 6.26678,-5.3946 9.62742,-10.1087 9.29102,-15.2832 a 0.86266876,0.86266876 0 0 1 -0.002,-0.07 c 0.14532,-8.2151 -5.21857,-13.7292 -12.27734,-16.0429 -6.23391,-2.0433 -13.72577,-1.4642 -19.60743,2.1836 l 1.87109,-0.098 a 0.86266876,0.86266876 0 0 1 0.66993,1.457 l -2.14257,2.2559 c 0.72263,2.8154 1.04509,5.9179 -0.0606,8.375 -0.35624,2.9418 0.11649,6.3807 1.70312,8.9395 a 0.86266876,0.86266876 0 0 1 0.0527,0.8086 c -0.92746,2.0646 -2.11382,3.3351 -3.63477,3.7168 -1.52094,0.3817 -3.11009,-0.1195 -4.86717,-0.9786 a 0.86266876,0.86266876 0 0 1 -0.47658,-0.664 c -0.17192,-1.3292 -0.94429,-3.0232 -1.26953,-4.7637 -3.00578,-2.3953 -6.05558,-4.456 -7.86328,-7.8769 a 0.86266876,0.86266876 0 0 1 -0.0586,-0.1348 c -0.75066,-2.3021 0.095,-4.6067 2.20898,-6.4141 a 0.86310254,0.86310254 0 1 1 1.1211,1.3125 c -1.76347,1.5076 -2.20997,2.856 -1.68947,4.5137 1.60958,2.9781 4.45748,4.9237 7.57423,7.4277 a 0.86266876,0.86266876 0 0 1 0.31445,0.5547 c 0.17722,1.2892 0.89648,2.9378 1.23046,4.6231 1.42731,0.6535 2.55484,0.9274 3.35548,0.7265 0.80157,-0.2012 1.54176,-0.9205 2.29297,-2.4433 -1.63194,-2.9266 -2.08671,-6.4706 -1.70704,-9.5762 a 0.86266876,0.86266876 0 0 1 0.084,-0.2793 c 0.95651,-1.9176 0.72424,-5.1028 -0.0586,-7.9258 a 0.86266876,0.86266876 0 0 1 0.20507,-0.8242 l 0.94532,-0.9941 -2.54884,0.1308 a 0.86266876,0.86266876 0 0 1 -0.81445,-0.4336 c -3.98261,-3.2022 -9.00437,-4.743 -13.95312,-4.789 z m 27.87697,16.1718 c 1.72898,0 3.2578,1.267 3.2578,2.9571 0,1.4138 -1.07642,2.519 -2.43944,2.8457 l 0,3.2851 a 0.86266876,0.86266876 0 0 1 0,0.834 l 0,3.502 a 0.86266876,0.86266876 0 0 1 -0.87112,0.8632 l -7.80076,-0.082 -2.48048,5.4063 0.13868,0.061 a 0.86266876,0.86266876 0 1 1 -0.68555,1.582 l -3.28905,-1.4238 a 0.86266876,0.86266876 0 0 1 0.35155,-1.6601 0.86266876,0.86266876 0 0 1 0.33398,0.076 l 1.56837,0.6797 2.72852,-5.9492 a 0.86266876,0.86266876 0 0 1 0.79296,-0.5039 l 7.48829,0.078 0,-2.1972 -5.375,-0.074 a 0.86337955,0.86337955 0 1 1 0.0234,-1.7265 l 5.35157,0.076 0,-2.8496 c -1.32172,-0.3524 -2.35157,-1.4384 -2.35157,-2.8222 0,-1.6901 1.52831,-2.9571 3.25782,-2.9571 z m 2.87109,9.1641 a 0.86266876,0.86266876 0 0 1 0.62108,0.2559 c 1.9226,1.8948 3.10032,3.9302 3.3379,6.041 0.23757,2.1108 -0.51103,4.2273 -2.16408,6.123 a 0.86266876,0.86266876 0 0 1 -0.14062,0.1309 c -2.3932,1.7501 -4.87195,2.3514 -7.16405,1.9277 -2.2921,-0.4236 -4.34285,-1.8323 -6.03517,-3.8711 a 0.86266876,0.86266876 0 1 1 1.32619,-1.1015 c 1.5049,1.8129 3.22213,2.9448 5.02148,3.2773 1.77265,0.3277 3.68129,-0.102 5.74217,-1.5801 1.35923,-1.5924 1.87621,-3.1404 1.69924,-4.7129 -0.18015,-1.6004 -1.10054,-3.2974 -2.83398,-5.0058 a 0.86266876,0.86266876 0 0 1 0.58984,-1.4844 z"
           id="path5020" />
        <g
           transform="translate(43.104565,-15.736478)"
           id="g5022">
          <path
             inkscape:connector-curvature="0"
             style="fill:#ffe209;fill-opacity:1;fill-rule:evenodd;stroke:none;stroke-width:1.93198895000000004;marker:none"
             d="m 806.0625,2899.3125 0,92.9063 c 0,45.99 37.58229,83.2812 83.9375,83.2812 46.3559,0 83.9375,-37.2912 83.9375,-83.2812 l 0,-92.9063 -0.25,0 -167.375,0 -0.25,0 z"
             transform="matrix(1.1092359,0,0,1.1092359,-140.32354,-281.51584)"
             id="path5026" />
          <path
             style="font-size:medium;font-style:normal;font-variant:normal;font-weight:normal;font-stretch:normal;text-indent:0;text-align:start;text-decoration:none;line-height:normal;letter-spacing:normal;word-spacing:normal;text-transform:none;direction:ltr;block-progression:tb;writing-mode:lr-tb;text-anchor:start;baseline-shift:baseline;color:#000000;fill:#17235d;fill-opacity:1;fill-rule:nonzero;stroke:none;stroke-width:1.50000000000000000;marker:none;visibility:visible;display:inline;overflow:visible;enable-background:accumulate;font-family:sans-serif"
             d="m 889.99023,2925.3047 0.002,0.01 c -0.0224,0 -0.0446,0 -0.0664,0.01 -0.006,-1e-4 -0.0117,-1e-4 -0.0176,0 l -0.006,0 c -0.009,0 -0.0183,0.01 -0.0273,0.01 l -0.008,0 c -0.0133,0 -0.0263,0.01 -0.0391,0.016 -0.01,0.01 -0.0198,0.011 -0.0293,0.018 l -0.008,0 c -0.009,0.01 -0.0185,0.013 -0.0273,0.019 -0.0181,0.014 -0.0351,0.029 -0.0508,0.045 -0.005,0 -0.009,0.01 -0.0137,0.012 l -0.004,0.01 c -0.008,0.01 -0.0147,0.018 -0.0215,0.027 l -0.006,0.01 c -0.007,0.01 -0.0134,0.019 -0.0195,0.029 -0.004,0.01 -0.008,0.014 -0.0117,0.021 -0.003,0.01 -0.005,0.01 -0.008,0.016 l -0.002,0.01 c -0.006,0.012 -0.0109,0.023 -0.0156,0.035 l -0.002,0 c -0.005,0.013 -0.008,0.026 -0.0117,0.039 -12.32612,37.7443 -26.17298,74.4893 -50.66407,104.5254 -0.18686,0.2308 -0.0835,0.5773 0.19922,0.668 21.00413,6.6998 37.13801,18.2593 50.56836,32.5683 0.004,0 0.009,0.01 0.0137,0.014 0.0152,0.015 0.0315,0.029 0.0488,0.041 0.006,0 0.0116,0.01 0.0176,0.012 0.006,0 0.0129,0.01 0.0195,0.012 0.006,0 0.0116,0.01 0.0176,0.01 0.008,0 0.0155,0.01 0.0234,0.014 0.0197,0.01 0.0399,0.013 0.0605,0.018 0.0186,0.01 0.0375,0.01 0.0566,0.012 0.007,2e-4 0.0143,2e-4 0.0215,0 0.007,2e-4 0.0143,2e-4 0.0215,0 0.007,2e-4 0.013,2e-4 0.0195,0 0.007,2e-4 0.0143,2e-4 0.0215,0 0.0184,0 0.0367,-0.01 0.0547,-0.01 0.008,0 0.0157,-0.01 0.0234,-0.01 l 0.0117,0 c 0.0119,0 0.0236,-0.01 0.0352,-0.012 0.026,-0.01 0.0508,-0.024 0.0742,-0.039 0.006,0 0.0118,-0.01 0.0176,-0.012 0.006,0 0.0118,-0.01 0.0176,-0.014 0.005,0 0.0105,-0.01 0.0156,-0.014 0.009,-0.01 0.0186,-0.016 0.0273,-0.025 13.43036,-14.309 29.56501,-25.8685 50.56836,-32.5683 0.28275,-0.091 0.38608,-0.4372 0.19922,-0.668 -24.49871,-30.0464 -38.3453,-66.8065 -50.67383,-104.5644 -0.0266,-0.078 -0.0755,-0.1467 -0.14062,-0.1973 l -0.006,-0.01 c -0.009,-0.01 -0.0193,-0.013 -0.0293,-0.019 l -0.008,0 c -0.0102,-0.01 -0.0206,-0.012 -0.0312,-0.018 -0.014,-0.01 -0.0283,-0.014 -0.043,-0.019 -0.0383,-0.014 -0.0784,-0.023 -0.11914,-0.025 l -0.006,0 c -0.0137,-7e-4 -0.0273,-7e-4 -0.041,0 z m 0.44336,2.9433 c 12.07916,36.7466 25.78503,72.5181 49.64453,101.9766 -0.20398,0.066 -0.40044,0.1399 -0.60351,0.207 l -16.61719,0 c -1.71679,2.6795 -4.24015,5.3062 -7.38086,8.0098 -6.38591,5.4973 -15.41241,11.4297 -25.88672,18.9512 l 0,4.7285 c -12.78358,-13.4363 -28.03662,-24.4317 -47.52539,-31.168 l 13.34766,0 c -2.01282,-2.9536 -3.05954,-5.9616 -2.85352,-9.1972 -0.13226,-8.9594 5.88079,-15.171 13.46289,-17.6563 1.89953,-0.6226 3.90207,-1.0218 5.94141,-1.1836 0.73887,-0.059 1.48035,-0.084 2.22461,-0.078 5.20984,0.044 10.4797,1.6818 14.77344,5.0234 0.47824,-0.3721 0.97137,-0.7174 1.47265,-1.0468 z m -27.5039,18.6954 c -0.0188,0.017 -0.10194,0.047 -0.31836,0.017 -0.3173,-0.043 -0.55716,0.2727 -0.73438,0.6875 l -0.0176,0 -0.002,0.049 c -0.2063,0.5046 -0.31051,1.074 -0.36133,1.4043 l -0.22656,0.125 -1.38086,0.2461 -3.35156,1.873 -3.10547,2.5117 -3.20508,2.6641 -3.35156,3.4492 -1.52734,1.8242 -3.1543,3.9434 -1.23242,1.6758 -1.57813,2.7109 -2.46289,4.584 -1.18359,2.1191 -1.87305,2.2188 -2.51367,2.1679 -1.92188,1.8243 -2.21875,2.0703 -2.21679,3.0566 -1.03516,1.625 -0.59375,2.0703 -0.34375,0.7403 -1.18359,0.4922 -1.47852,0.7402 -1.57812,1.4785 -1.08399,1.4785 -0.58984,1.1328 -0.64258,0.9864 -0.0488,1.5781 -0.39453,4.3867 -0.14648,2.4629 -0.54297,1.4805 -0.0977,1.6757 0.73828,0.1465 0.68946,-1.5273 1.67773,-1.5274 1.67578,-2.0214 1.97071,-0.6407 1.77539,-1.1328 0.0488,-4.3867 -0.14843,-3.6484 0,-1.084 0.74023,-0.4942 0.39453,-0.5918 0.58985,0.1973 1.23242,1.7754 1.33008,2.168 1.23437,1.875 0.98438,1.8711 0.59179,2.5644 0.29492,0.5918 -0.0488,2.168 -0.19727,1.1836 -0.34375,1.3789 -0.49414,2.1699 0.24609,1.3301 0.83789,1.0351 0.39454,1.7754 0.3457,2.168 0.3457,1.6758 -0.0508,1.9218 0.29688,3.795 0.14843,2.5644 1.23242,0.8867 1.37891,0.1 0.19727,-0.1972 -0.0488,-0.8379 -0.68945,-2.168 -0.34571,-1.332 -0.24609,-3.9434 0,-1.7734 0.16601,-1.9824 0.42774,-3.1055 0.58789,-2.6211 0.53711,-2.6777 0.64062,-2.3535 1.28516,-4.1758 1.125,-3.6387 0.48047,-2.1426 0.26758,-3.2636 0.58984,-1.8731 0.85547,-1.0176 1.71289,-1.498 1.92578,-1.1777 2.46289,-0.9102 2.83594,-1.6055 0.91016,-0.75 1.82226,-1.4453 3.15625,-2.5156 3.58594,-2.8906 1.55273,-1.4981 0.64258,-0.5898 0.69531,-0.2657 0.64258,0.4278 0.10742,0.4805 0.16016,0.5898 -0.32031,0.6426 -0.58985,0.9082 -0.91015,0.9648 -1.01563,0.375 -1.01758,0.5352 -0.96289,0.3203 -0.75,0.2676 -0.32226,0.5351 -0.32031,0.9102 -1.07032,0.1074 -0.37304,0.053 -0.0547,2.1426 0.32031,0.375 0.80274,0 1.01757,-0.5371 0.53516,-0.748 0.375,-0.8575 0.48047,-0.375 1.17773,-0.373 1.23243,-0.375 1.01562,-0.5899 0.96484,-0.6406 0.90821,-1.5527 1.125,-1.3379 0.53515,-1.3398 0.10742,-1.1758 -0.16015,-0.5899 -0.48242,-0.5351 -1.5,-0.1602 -2.72852,-0.375 -0.91015,-0.3203 -0.80274,-1.9277 -1.44531,-2.1934 -1.07031,-1.3926 -0.32032,-1.2851 0.26758,-2.4629 1.60547,-3.4766 1.71289,-2.3027 0.69531,-0.375 0.48243,-0.5879 1.55273,0.053 0.96094,0.75 1.5,0.2129 1.81836,0.055 3.32031,-0.1074 0.53516,0.4824 0.91015,0.2129 0.80274,-0.1602 0.53515,-0.4277 0.32227,-0.75 -0.0391,-0.7187 -2.51367,-2.1211 -2.9082,-1.8223 -3.30273,-2.3672 -1.73047,-0.6543 c -0.64859,-1.9174 -0.20222,-2.017 -0.25586,-1.9687 z m 55.79297,0.051 0,0 c -0.0531,-0.048 0.38135,0.055 -0.23633,1.9121 l -1.74024,0.6582 -3.30078,2.3672 -2.9082,1.8223 -2.51563,2.1211 -0.0371,0.7187 0.32226,0.75 0.53516,0.4277 0.80273,0.1602 0.91016,-0.2129 0.53515,-0.4824 3.31836,0.1074 1.82032,-0.055 1.49804,-0.2129 0.96289,-0.75 1.55274,-0.053 0.48047,0.5879 0.69726,0.375 1.71289,2.3027 1.60547,3.4766 0.26758,2.4629 -0.32227,1.2851 -1.07031,1.3926 -1.44531,2.1934 -0.80274,1.9277 -0.9082,0.3203 -2.73047,0.375 -1.49804,0.1602 -0.48243,0.5351 -0.16015,0.5899 0.10742,1.1757 0.53516,1.3399 1.12304,1.3379 0.91016,1.5527 0.96484,0.6406 1.01563,0.5899 1.23047,0.375 1.17773,0.373 0.48242,0.375 0.37305,0.8575 0.53711,0.748 1.01562,0.5371 0.80274,0 0.32226,-0.375 -0.0547,-2.1426 -0.37305,-0.053 -1.07227,-0.1074 -0.32031,-0.9102 -0.32031,-0.5351 -0.75,-0.2676 -0.96289,-0.3203 -1.01758,-0.5352 -1.01562,-0.375 -0.91211,-0.9648 -0.58789,-0.9082 -0.32032,-0.6426 0.16016,-0.5899 0.10742,-0.4804 0.64063,-0.4278 0.69726,0.2657 0.64063,0.5898 1.55273,1.4981 3.58789,2.8906 3.15625,2.5156 1.82031,1.4453 0.91016,0.75 2.83594,1.6055 2.46289,0.9101 1.92773,1.1778 1.71094,1.498 0.85742,1.0176 0.58985,1.8731 0.26562,3.2636 0.48242,2.1426 1.125,3.6387 1.28321,4.1758 0.64257,2.3535 0.53516,2.6777 0.58789,2.6211 0.42969,3.1055 0.16601,1.9824 0,1.7734 -0.24609,3.9434 -0.3457,1.332 -0.68946,2.168 -0.0508,0.8379 0.19727,0.1972 1.38086,-0.1015 1.23242,-0.8867 0.14844,-2.5625 0.29492,-3.7969 -0.0488,-1.9199 0.3457,-1.6758 0.34375,-2.1699 0.39454,-1.7754 0.83789,-1.0332 0.24609,-1.3301 -0.49219,-2.1699 -0.3457,-1.3789 -0.19727,-1.1836 -0.0488,-2.17 0.29492,-0.5918 0.59179,-2.5624 0.98633,-1.8711 1.23242,-1.875 1.33008,-2.168 1.23242,-1.7754 0.5918,-0.1992 0.39453,0.5918 0.74024,0.4961 0,1.084 -0.14844,3.6484 0.0488,4.3848 1.77539,1.1328 1.9707,0.6406 1.67578,2.0215 1.67774,1.5293 0.68945,1.5254 0.73828,-0.1465 -0.0977,-1.6738 -0.54296,-1.4805 -0.14649,-2.4629 -0.39453,-4.3867 -0.0488,-1.5801 -0.64258,-0.9863 -0.58984,-1.1328 -1.08594,-1.4766 -1.57617,-1.4785 -1.47852,-0.7422 -1.18359,-0.4902 -0.3457,-0.7422 -0.5918,-2.0703 -1.03515,-1.625 -2.2168,-3.0547 -2.21875,-2.0703 -1.92188,-1.8262 -2.51562,-2.166 -1.8711,-2.2207 -1.18359,-2.1172 -2.46484,-4.584 -1.57618,-2.7109 -1.23242,-1.6758 -3.15625,-3.9453 -1.52734,-1.8223 -3.35156,-3.4492 -3.20313,-2.666 -3.10547,-2.5098 -3.35156,-1.873 -1.38086,-0.2461 -0.24805,-0.1348 c -0.0557,-0.3383 -0.15875,-0.8503 -0.33789,-1.3027 l -0.006,-0.1426 -0.0527,0.014 c -0.1749,-0.3885 -0.4049,-0.682 -0.70898,-0.6406 -0.21643,0.029 -0.2996,0 -0.31836,-0.022 z m -28.4375,73.7832 c -0.0183,0.3206 -0.0212,0.6448 -0.0215,0.9707 -7.5e-4,-0.3255 0.004,-0.6504 0.0215,-0.9707 z m -0.0254,1.1348 c 0.006,0.7458 0.0672,1.5006 0.17382,2.2539 -0.10659,-0.7533 -0.16501,-1.5081 -0.17382,-2.2539 z m -35.99415,1.0078 c 0.004,0.115 0.0139,0.2292 0.0215,0.3438 -0.008,-0.1145 -0.0176,-0.229 -0.0215,-0.3438 z m 0.0957,1.0977 c 0.0154,0.112 0.0338,0.2241 0.0527,0.3359 -0.0188,-0.112 -0.0374,-0.2236 -0.0527,-0.3359 z m 0.21094,1.1015 c 0.0247,0.1023 0.0485,0.2046 0.0762,0.3067 -0.0275,-0.102 -0.0516,-0.2045 -0.0762,-0.3067 z m 0.36718,1.2364 c 0.0116,0.032 0.0195,0.065 0.0312,0.098 -0.0118,-0.032 -0.0197,-0.065 -0.0312,-0.098 z m 28.96289,1.8652 c 0.0155,0.055 0.031,0.1075 0.0469,0.1621 -0.0156,-0.054 -0.0317,-0.1075 -0.0469,-0.1621 z m 2.22266,1.4863 c 0.11678,0.4096 0.2246,0.8269 0.30859,1.2461 -0.084,-0.4195 -0.19162,-0.8363 -0.30859,-1.2461 z m 4.62695,1.4414 c -0.0823,0.073 -0.16493,0.1469 -0.24804,0.2051 0.0834,-0.06 0.16546,-0.1305 0.24804,-0.2051 z m -0.52929,0.3868 c -0.0111,0.01 -0.0221,0.012 -0.0332,0.018 0.0111,-0.01 0.0221,-0.012 0.0332,-0.018 z m 2.52734,0.025 c -0.0675,0.089 -0.1375,0.1726 -0.20703,0.2559 0.0697,-0.083 0.13942,-0.1664 0.20703,-0.2559 z m 14.36328,0.3301 c 0.15064,0.2028 0.29618,0.4061 0.42969,0.6114 -0.13328,-0.2057 -0.27917,-0.4082 -0.42969,-0.6114 z m -14.77539,0.1641 c -0.0716,0.077 -0.14497,0.1493 -0.21875,0.2207 0.0737,-0.071 0.14719,-0.1434 0.21875,-0.2207 z m -0.42383,0.4082 c -0.0758,0.066 -0.15249,0.1298 -0.23047,0.1894 0.0783,-0.06 0.15446,-0.1235 0.23047,-0.1894 z m -0.47851,0.3633 c -0.0699,0.046 -0.13932,0.093 -0.21094,0.1347 0.0716,-0.041 0.14104,-0.089 0.21094,-0.1347 z m -0.50782,0.2871 c -0.0666,0.032 -0.13121,0.066 -0.19921,0.094 0.0677,-0.027 0.13297,-0.062 0.19921,-0.094 z m 17.11524,0.2504 c 0.0984,0.1882 0.19377,0.3764 0.27734,0.5664 -0.0832,-0.19 -0.17937,-0.3782 -0.27734,-0.5664 z m -17.82813,0.014 c -0.20676,0.052 -0.41547,0.085 -0.625,0.1054 0.20953,-0.021 0.41825,-0.054 0.625,-0.1054 z m 18.24024,0.8964 c 0.0527,0.1352 0.10924,0.2703 0.1543,0.4063 -0.0448,-0.1361 -0.10181,-0.271 -0.1543,-0.4063 z m 0.26758,0.8106 c 0.032,0.1171 0.0695,0.2339 0.0957,0.3515 -0.026,-0.1175 -0.0639,-0.2345 -0.0957,-0.3515 z m 2.33203,4.7383 c -0.59529,0.4674 -1.18372,0.9315 -1.81446,1.4101 0.62975,-0.478 1.22017,-0.9434 1.81446,-1.4101 z m -1.86524,1.4472 c -0.9157,0.6943 -1.86558,1.4024 -2.85156,2.1231 0.98533,-0.7206 1.93654,-1.429 2.85156,-2.1231 z"
             id="path5028"
             inkscape:connector-curvature="0"
             sodipodi:nodetypes="ccccccccccccccccccccccccccccccccccccccccccccccccccccccccccccccccccccccccccccccccccccccccccccccccccccccccccccccccccccccccccccccccccccccccccccccccccccccccccccccccccccccccccccccccccccccccccccccccccccccccccccccccccccccccccccccccccccccccccccccccccccccccccccccccccccccccccccccccccccccccccccccccccccccccccccccccccccccccccccccccccccccccccccccccccccccccccccccccccccccccccccccccccccccccccccccccccccccccccccccccccccccccccccccccccccccccccccccccccccccccccccccccccccccccc"
             transform="translate(-43.104565,15.736478)" />
          <path
             inkscape:connector-curvature="0"
             style="fill:#e30318;fill-opacity:1;fill-rule:evenodd;stroke:none"
             d="m 831.13567,3020.3049 c -0.7197,-0.01 -1.43732,0.018 -2.1504,0.074 -1.90148,0.1487 -3.76653,0.5173 -5.53125,1.0957 -7.05876,2.3137 -12.42426,7.8281 -12.27928,16.0429 a 0.86266876,0.86266876 0 0 1 -0.002,0.07 c -0.336,5.1745 3.02621,9.8886 9.29297,15.2832 6.15867,5.3016 15.06148,11.1859 25.39064,18.5898 10.32895,-7.4035 19.23223,-13.2885 25.39061,-18.5898 6.26678,-5.3946 9.62742,-10.1087 9.29102,-15.2832 a 0.86266876,0.86266876 0 0 1 -0.002,-0.07 c 0.14532,-8.2151 -5.21857,-13.7292 -12.27734,-16.0429 -6.23391,-2.0433 -13.72577,-1.4642 -19.60743,2.1836 l 1.87109,-0.098 a 0.86266876,0.86266876 0 0 1 0.66993,1.457 l -2.14257,2.2559 c 0.72263,2.8154 1.04509,5.9179 -0.0606,8.375 -0.35624,2.9418 0.11649,6.3807 1.70312,8.9395 a 0.86266876,0.86266876 0 0 1 0.0527,0.8086 c -0.92746,2.0646 -2.11382,3.3351 -3.63477,3.7168 -1.52094,0.3817 -3.11009,-0.1195 -4.86717,-0.9786 a 0.86266876,0.86266876 0 0 1 -0.47658,-0.664 c -0.17192,-1.3292 -0.94429,-3.0232 -1.26953,-4.7637 -3.00578,-2.3953 -6.05558,-4.456 -7.86327,-7.8769 a 0.86266876,0.86266876 0 0 1 -0.0586,-0.1348 c -0.75066,-2.3021 0.095,-4.6067 2.20898,-6.4141 a 0.86310254,0.86310254 0 1 1 1.1211,1.3125 c -1.76347,1.5076 -2.20997,2.856 -1.68947,4.5137 1.60958,2.9781 4.45748,4.9237 7.57423,7.4277 a 0.86266876,0.86266876 0 0 1 0.31445,0.5547 c 0.17722,1.2892 0.89648,2.9378 1.23046,4.6231 1.42731,0.6535 2.55484,0.9274 3.35548,0.7265 0.80157,-0.2012 1.54176,-0.9205 2.29297,-2.4433 -1.63194,-2.9266 -2.08671,-6.4706 -1.70704,-9.5762 a 0.86266876,0.86266876 0 0 1 0.084,-0.2793 c 0.95651,-1.9176 0.72424,-5.1028 -0.0586,-7.9258 a 0.86266876,0.86266876 0 0 1 0.20507,-0.8242 l 0.94532,-0.9941 -2.54884,0.1308 a 0.86266876,0.86266876 0 0 1 -0.81445,-0.4336 c -3.98261,-3.2022 -9.00437,-4.743 -13.95312,-4.789 z m 27.87696,16.1718 c 1.72898,0 3.25781,1.267 3.25781,2.9571 0,1.4138 -1.07643,2.519 -2.43945,2.8457 l 0,3.2851 a 0.86266876,0.86266876 0 0 1 0,0.834 l 0,3.502 a 0.86266876,0.86266876 0 0 1 -0.87111,0.8632 l -7.80077,-0.082 -2.48048,5.4063 0.13868,0.061 a 0.86266876,0.86266876 0 1 1 -0.68555,1.582 l -3.28905,-1.4238 a 0.86266876,0.86266876 0 0 1 0.35155,-1.6601 0.86266876,0.86266876 0 0 1 0.33398,0.076 l 1.56837,0.6797 2.72852,-5.9492 a 0.86266876,0.86266876 0 0 1 0.79297,-0.5039 l 7.48828,0.078 0,-2.1972 -5.375,-0.074 a 0.86337955,0.86337955 0 1 1 0.0234,-1.7265 l 5.35157,0.076 0,-2.8496 c -1.32172,-0.3524 -2.35157,-1.4384 -2.35157,-2.8222 0,-1.6901 1.52831,-2.9571 3.25782,-2.9571 z m 2.87109,9.1641 a 0.86266876,0.86266876 0 0 1 0.62109,0.2559 c 1.9226,1.8948 3.10032,3.9302 3.3379,6.041 0.23757,2.1108 -0.51103,4.2273 -2.16408,6.123 a 0.86266876,0.86266876 0 0 1 -0.14062,0.1309 c -2.3932,1.7501 -4.87196,2.3514 -7.16405,1.9277 -2.2921,-0.4236 -4.34285,-1.8323 -6.03517,-3.8711 a 0.86266876,0.86266876 0 1 1 1.32618,-1.1015 c 1.5049,1.8129 3.22214,2.9448 5.02149,3.2773 1.77264,0.3277 3.68129,-0.102 5.74217,-1.5801 1.35923,-1.5924 1.87621,-3.1404 1.69923,-4.7129 -0.18014,-1.6004 -1.10053,-3.2974 -2.83398,-5.0058 a 0.86266876,0.86266876 0 0 1 0.58984,-1.4844 z"
             id="path5034" />
          <path
             style="font-size:medium;font-style:normal;font-variant:normal;font-weight:normal;font-stretch:normal;text-indent:0;text-align:start;text-decoration:none;line-height:normal;letter-spacing:normal;word-spacing:normal;text-transform:none;direction:ltr;block-progression:tb;writing-mode:lr-tb;text-anchor:start;baseline-shift:baseline;color:#000000;fill:#172980;fill-opacity:1;fill-rule:nonzero;stroke:none;stroke-width:1.5;marker:none;visibility:visible;display:inline;overflow:visible;enable-background:accumulate;font-family:sans-serif"
             d="m 774.07729,3044.7658 0.53664,2.0193 c 1.79649,6.7511 4.03096,13.5011 6.6462,20.2506 l -17.5079,-8.1845 0.40147,1.0076 c 4.17653,10.4988 12.23714,20.2095 23.92158,29.1468 l 0.004,0 -0.64395,3.6013 0.22459,0.159 c 37.77517,26.4102 77.10664,24.392 117.2825,2.9475 l 0.27427,-0.1471 -0.66582,-3.8478 c 11.62405,-8.9128 20.91923,-19.2145 25.09023,-29.6992 l 0.39949,-1.0077 -17.50593,8.1845 c 2.61467,-6.7486 4.84847,-13.4975 6.64422,-20.2486 l 0.53863,-2.0253 -1.29189,1.6496 c -8.05867,10.2881 -17.69078,20.1209 -29.35342,30.1206 l -0.14507,0.1232 -0.16497,5.8493 c -15.03185,7.9007 -29.72022,11.539 -44.0669,11.1121 -13.61712,-0.4052 -26.93932,-4.4615 -39.96867,-11.9827 l 0.0318,0 0.0755,-4.6388 c 0.0145,-0.011 0.0293,-0.019 0.0438,-0.03 l -0.0417,-0.056 0.0398,-2.4049 -0.15304,-0.1312 c -11.66265,-9.9988 -21.29674,-19.8331 -29.35544,-30.1205 z m 1.96366,3.7975 c 7.79128,9.6993 16.96354,19.0282 27.96813,28.4769 l -0.0279,1.6576 c -1.11292,0.7343 -2.12173,0.8921 -3.41652,0.3855 -3.1395,-5.7393 -3.78999,-5.6377 -5.724,-8.0534 l -0.0755,-0.096 -0.11527,-0.04 c -0.61917,-0.222 -1.21218,-0.2793 -1.73708,-0.1789 -0.5249,0.1007 -0.98034,0.3568 -1.32367,0.7593 -0.57153,0.6697 -0.81714,1.6672 -0.79699,2.8779 l -0.0855,-0.065 -0.12322,0.6977 -2.33333,13.0618 c -10.99713,-8.4819 -18.58778,-17.638 -22.76285,-27.4354 l 17.32307,8.097 -0.39552,-1.0037 c -2.51059,-6.3817 -4.59948,-12.7614 -6.37392,-19.1416 z m 141.71089,2.1545 0,0 c -1.77407,6.3802 -3.86404,12.7605 -6.37393,19.1416 l -0.39352,1.0017 17.29524,-8.0851 c -4.23437,9.7831 -12.9293,19.4954 -23.89574,27.9701 l -2.33332,-13.4673 0.0317,0 c 0.15608,-1.5224 0.14662,-2.724 -0.31204,-3.5655 -0.22932,-0.4208 -0.61189,-0.7417 -1.08716,-0.8527 -0.47525,-0.111 -1.01132,-0.037 -1.62379,0.1829 l -0.0934,0.034 -0.0695,0.073 c -2.31357,2.4042 -2.50617,1.9521 -5.6922,7.7235 -1.36067,0.5467 -2.36557,0.6201 -3.47217,-0.09 l 0.0437,-1.5881 c 11.00838,-9.452 20.18282,-18.7805 27.97608,-28.4828 z m -124.56073,20.8151 c 0.13126,-0.013 0.27182,-0.01 0.42333,0.012 0.20202,0.023 0.42414,0.074 0.66582,0.1549 1.9207,2.3559 2.45987,2.1235 5.63854,7.9779 l 0.0736,0.1331 0.13913,0.058 c 1.38102,0.5746 2.64649,0.4503 3.83389,-0.1689 l -0.0576,3.6172 c -4.11236,-2.4221 -8.19477,-5.1886 -12.24898,-8.2977 l 0.0179,0 c -0.14541,-1.4216 0.11345,-2.4465 0.56643,-2.9773 0.24684,-0.2895 0.55425,-0.462 0.94804,-0.5009 z m 106.85208,2.1625 0,0 c 0.17925,-0.023 0.32906,-0.022 0.44321,0 0.24367,0.057 0.39002,0.1728 0.52868,0.4272 0.27689,0.5081 0.36145,1.6039 0.21266,3.0608 -3.8863,2.6228 -7.74979,4.9502 -11.59112,7.0099 l 0.0676,-2.4506 c 1.24572,0.6002 2.54811,0.4817 3.93921,-0.098 l 0.13914,-0.062 0.0735,-0.1312 c 3.25946,-5.9302 3.28958,-5.2743 5.565,-7.612 0.23416,-0.077 0.44284,-0.1256 0.62208,-0.1491 z m -108.73624,2.1146 c 17.2123,13.1568 35.01322,20.2751 53.36245,20.8211 18.37337,0.5466 37.2759,-5.4971 56.65771,-18.4897 l 2.93356,16.9395 c -39.81286,21.1643 -78.5087,23.1343 -115.88131,-2.8779 z m 10.87362,9.5937 -10.27935,7.7294 2.22402,1.2978 2.27171,-1.7907 4.15189,2.4227 -0.51079,2.8224 2.28165,1.3296 2.08091,-12.5153 z m 88.20733,2.1266 -2.15842,1.115 5.63853,10.3091 7.52867,-3.8894 -0.95797,-1.751 -5.36825,2.7745 z m -88.577,0.8606 -0.88245,4.5792 -2.83617,-1.6536 z m 6.52299,0.8984 -4.92504,10.7544 2.07496,0.8963 3.2118,-7.01 1.24815,8.9399 2.24389,0.9719 4.92505,-10.7531 -2.07694,-0.9004 -3.28932,7.1808 -1.2402,-9.1405 z m 78.34136,0.083 -2.21408,1.0037 5.11782,10.6689 2.21606,-1.0057 z m -6.1076,2.5421 c -0.59392,0.048 -1.24661,0.2043 -1.95569,0.469 -0.86987,0.3247 -1.5622,0.73 -2.07496,1.2144 -0.51354,0.4827 -0.83836,1.0305 -0.97188,1.6396 -0.13274,0.6068 -0.0893,1.1925 0.13117,1.751 0.34367,0.8692 0.9809,1.4793 1.91396,1.8246 0.66208,0.2449 1.66635,0.2871 3.0071,0.1251 1.04209,-0.1255 1.71551,-0.1917 2.01731,-0.2027 0.44323,-0.01 0.78132,0.046 1.00965,0.169 0.22754,0.124 0.39496,0.3172 0.49687,0.5763 0.16038,0.4046 0.11251,0.8285 -0.14111,1.2701 -0.2536,0.44 -0.74592,0.8002 -1.48069,1.0752 -0.69367,0.2575 -1.31553,0.2917 -1.85831,0.1053 -0.53962,-0.1881 -1.0234,-0.6179 -1.44292,-1.2919 l -2.13855,1.0355 c 0.63284,1.1741 1.46319,1.9383 2.48238,2.2955 1.01918,0.3563 2.24247,0.2675 3.67091,-0.2642 0.98128,-0.3659 1.75205,-0.8078 2.30352,-1.3198 0.55067,-0.5127 0.90043,-1.1137 1.04344,-1.7987 0.14301,-0.6826 0.0918,-1.3387 -0.15702,-1.9676 -0.27335,-0.6937 -0.65889,-1.2235 -1.14479,-1.5821 -0.48511,-0.3595 -1.0522,-0.5784 -1.69137,-0.6519 -0.63757,-0.072 -1.56537,-0.032 -2.77654,0.1273 -1.21038,0.1603 -2.00617,0.1806 -2.38698,0.052 -0.29786,-0.099 -0.50229,-0.2834 -0.6042,-0.5426 -0.1122,-0.2828 -0.0821,-0.555 0.0934,-0.8149 0.26943,-0.403 0.73832,-0.7297 1.40119,-0.9778 0.64234,-0.2387 1.17524,-0.299 1.59398,-0.171 0.41794,0.1288 0.79062,0.4568 1.10903,0.9838 l 2.24587,-0.95 c -0.43612,-0.9955 -1.13367,-1.664 -2.08886,-2.0014 -0.4768,-0.1668 -1.01198,-0.225 -1.60591,-0.1769 z m -62.38966,1.6536 -3.54173,11.2591 4.40032,1.3078 c 0.86198,0.2561 1.57804,0.3777 2.14452,0.3777 0.75767,-0.01 1.4009,-0.1457 1.92787,-0.4095 0.69527,-0.3476 1.31875,-0.8883 1.86626,-1.6198 0.4456,-0.6005 0.81751,-1.364 1.10904,-2.2916 0.33183,-1.0539 0.48118,-1.9785 0.45513,-2.7725 -0.026,-0.794 -0.20357,-1.5138 -0.53066,-2.1545 -0.32867,-0.6376 -0.80283,-1.1592 -1.41907,-1.5543 -0.45983,-0.294 -1.17548,-0.5845 -2.13856,-0.8704 z m 51.94932,1.8165 -2.50028,0.6499 -1.42106,12.557 2.50624,-0.6538 0.25241,-2.8322 4.67857,-1.2184 1.73311,2.3155 2.56984,-0.6679 z m -50.20828,0.7851 1.0494,0.312 c 0.95282,0.2828 1.5792,0.5119 1.88415,0.6778 0.40847,0.222 0.71557,0.5065 0.91625,0.8526 0.20304,0.3437 0.31088,0.7751 0.32197,1.2879 0.0111,0.512 -0.12096,1.2039 -0.39353,2.073 -0.27415,0.8699 -0.5704,1.536 -0.88642,1.9934 -0.31682,0.4559 -0.6368,0.7582 -0.95599,0.9043 -0.3176,0.1443 -0.68107,0.2092 -1.08716,0.1888 -0.31287,-0.017 -0.79709,-0.1225 -1.44889,-0.316 l -1.74702,-0.5187 z m 8.40515,0.5425 -2.0988,11.5932 9.07095,1.5562 0.35378,-1.9537 -6.66409,-1.1429 0.5724,-3.1541 5.98834,1.0275 0.35378,-1.9557 -5.98835,-1.0255 0.46707,-2.5699 6.43553,1.1031 0.35576,-1.9617 z m 32.19753,0.962 0,0 c -0.47354,0 -1.03194,0.043 -1.67348,0.1192 l -5.10986,0.6121 1.4787,11.6806 2.42474,-0.2902 -0.61611,-4.8773 0.49289,-0.058 c 0.55858,-0.067 0.97158,-0.071 1.24021,-0.016 0.26546,0.056 0.5311,0.1905 0.79102,0.4014 0.25839,0.207 0.7582,0.7315 1.49461,1.5642 l 2.07495,2.3313 2.90573,-0.3458 -1.75696,-2.1028 c -0.6929,-0.839 -1.23626,-1.4171 -1.6218,-1.7331 -0.38555,-0.3152 -0.86209,-0.5917 -1.42305,-0.8248 1.0342,-0.275 1.78287,-0.7299 2.2419,-1.3635 0.45589,-0.6345 0.62935,-1.3899 0.51874,-2.2677 -0.0877,-0.6898 -0.34086,-1.2834 -0.75724,-1.7788 -0.41715,-0.4929 -0.93234,-0.8114 -1.53832,-0.9521 -0.30379,-0.07 -0.69312,-0.104 -1.16667,-0.1017 z m 9.06102,0.6956 2.77257,3.7981 -3.19193,0.8328 z m -21.94997,0.1591 -4.83957,0.079 0.20869,11.772 4.12407,-0.067 c 1.55644,-0.035 2.54016,-0.081 2.94547,-0.1312 0.64944,-0.079 1.19325,-0.2757 1.63175,-0.5862 0.4369,-0.309 0.78182,-0.7196 1.02753,-1.2284 0.24571,-0.5081 0.36294,-1.0332 0.35378,-1.5681 -0.0126,-0.6794 -0.22274,-1.2699 -0.62805,-1.7669 -0.4053,-0.4953 -0.97691,-0.8403 -1.71721,-1.0355 0.51908,-0.2393 0.92843,-0.5927 1.22629,-1.0572 0.29469,-0.4646 0.43844,-0.9742 0.42931,-1.5265 -0.009,-0.5079 -0.1427,-0.9652 -0.39552,-1.3714 -0.2544,-0.4037 -0.57276,-0.7257 -0.94804,-0.9659 -0.37607,-0.2386 -0.80232,-0.3969 -1.27398,-0.4651 -0.47168,-0.07 -1.18616,-0.096 -2.14452,-0.079 z m 12.45567,1.1666 c 0.40057,0.016 0.72461,0.1333 0.97189,0.3498 0.24335,0.2157 0.39427,0.5204 0.44322,0.9123 0.0443,0.3499 -0.002,0.6547 -0.13516,0.9083 -0.13272,0.252 -0.34198,0.444 -0.62009,0.5743 -0.27653,0.1272 -0.99824,0.2644 -2.16042,0.4035 l -1.7967,0.2106 -0.37365,-2.9613 1.89409,-0.2266 c 0.98126,-0.1174 1.57694,-0.1709 1.77682,-0.1709 z m -13.41166,0.805 c 1.14954,-0.014 1.84632,-0.01 2.08887,0.012 0.41005,0.041 0.7192,0.1728 0.93015,0.3955 0.20778,0.2229 0.31785,0.5178 0.32396,0.8804 0.008,0.3801 -0.1084,0.6912 -0.34384,0.9282 -0.23307,0.2345 -0.56149,0.3833 -0.97785,0.4372 -0.2307,0.031 -0.8236,0.052 -1.77484,0.067 l -1.60193,0.027 -0.0497,-2.7249 1.40516,-0.02 z m -9.11667,4.1121 -0.20273,2.2479 4.54144,0.3875 0.20472,-2.2498 z m 9.77056,0.5624 c 1.11242,-0.018 1.83577,0.028 2.17234,0.1332 0.3342,0.1058 0.59101,0.2821 0.77115,0.5247 0.18014,0.2433 0.27612,0.5421 0.28222,0.8944 0.007,0.4164 -0.10155,0.7544 -0.32595,1.0057 -0.22438,0.2512 -0.51939,0.4127 -0.88046,0.4829 -0.23464,0.05 -0.79375,0.088 -1.67547,0.1034 l -2.26177,0.038 -0.0557,-3.1483 1.97359,-0.032 z"
             id="path5028-5"
             inkscape:connector-curvature="0"
             sodipodi:nodetypes="cccccccccccccccccccsccccccccccccccccccccccccccccccccccsscccccccccccccccccccccccccccccccccscccccccccccccccccccccccccccccccccccccccccccccccccccccccccccccccccccccccccccccccscccccccccccccccccccccccccccccccccccccccccccccccccccccccccccccccccccccccccccccccccccccccccccccccccccccccccccccccccccccccccccc" />
        </g>
      </g>
    </g>
  </g>
</svg>
