<?xml version="1.0" encoding="UTF-8" standalone="no"?>
<!-- Created with Inkscape (http://www.inkscape.org/) -->

<svg
   xmlns:dc="http://purl.org/dc/elements/1.1/"
   xmlns:cc="http://creativecommons.org/ns#"
   xmlns:rdf="http://www.w3.org/1999/02/22-rdf-syntax-ns#"
   xmlns:svg="http://www.w3.org/2000/svg"
   xmlns="http://www.w3.org/2000/svg"
   xmlns:sodipodi="http://sodipodi.sourceforge.net/DTD/sodipodi-0.dtd"
   xmlns:inkscape="http://www.inkscape.org/namespaces/inkscape"
   id="svg2"
   height="48.0001"
   width="48"
   version="1.1"
   inkscape:version="0.48.4 r9939"
   sodipodi:docname="icon-centro-nao-renovado.svg">
  <defs
     id="defs8" />
  <sodipodi:namedview
     pagecolor="#ffffff"
     bordercolor="#666666"
     borderopacity="1"
     objecttolerance="10"
     gridtolerance="10"
     guidetolerance="10"
     inkscape:pageopacity="0"
     inkscape:pageshadow="2"
     inkscape:window-width="1680"
     inkscape:window-height="1018"
     id="namedview6"
     showgrid="true"
     inkscape:zoom="3.4766012"
     inkscape:cx="13.8091"
     inkscape:cy="20.616917"
     inkscape:window-x="1915"
     inkscape:window-y="-5"
     inkscape:window-maximized="1"
     inkscape:current-layer="svg2"
     inkscape:snap-bbox="true"
     inkscape:bbox-paths="true"
     inkscape:bbox-nodes="true"
     inkscape:snap-bbox-edge-midpoints="true"
     inkscape:snap-bbox-midpoints="true"
     inkscape:object-paths="true"
     inkscape:snap-intersection-paths="true"
     inkscape:snap-nodes="true"
     inkscape:object-nodes="true"
     inkscape:snap-smooth-nodes="true"
     inkscape:snap-midpoints="true"
     inkscape:snap-object-midpoints="true"
     inkscape:snap-center="true">
    <inkscape:grid
       type="xygrid"
       id="grid2995" />
  </sodipodi:namedview>
  <metadata
     id="metadata7">
    <rdf:RDF>
      <cc:Work
         rdf:about="">
        <dc:format>image/svg+xml</dc:format>
        <dc:type
           rdf:resource="http://purl.org/dc/dcmitype/StillImage" />
        <dc:title />
      </cc:Work>
    </rdf:RDF>
  </metadata>
  <path
     inkscape:connector-curvature="0"
     style="color:#000000;fill:#000000;fill-opacity:1;fill-rule:nonzero;stroke:none;stroke-width:0.25;marker:none;visibility:visible;display:inline;overflow:visible;enable-background:accumulate"
     d="m 20.854057,3.9909889 c -0.0353,1.42e-4 -0.06979,0.0046 -0.103558,0.0099 -1.080409,0.171077 -2.075438,3.232252 -3.096645,3.624252 -1.021096,0.392 -3.801546,-1.222028 -4.718942,-0.626225 -0.91738,0.595692 -0.597285,3.7876281 -1.370792,4.5611351 -0.773507,0.773396 -3.9703824,0.45835 -4.5660904,1.375747 -0.595692,0.917302 1.018225,3.697735 0.626241,4.718926 -0.392,1.021207 -3.453175,2.016252 -3.624267,3.096645 -0.171109,1.0803 2.413222,2.965806 2.470421,4.058193 0.057,1.092291 -2.31465,3.228401 -2.031558,4.285 0.283109,1.0566 3.40882,1.742264 3.905325,2.71697 0.496599,0.974595 -0.781775,3.898414 -0.09368,4.748512 0.688393,0.849988 3.8048274,0.189302 4.6548304,0.877712 0.850083,0.688299 0.869586,3.906745 1.844165,4.403344 0.974612,0.496584 3.568662,-1.372939 4.625261,-1.089736 1.056583,0.283109 2.374169,3.192205 3.46646,3.249514 1.092403,0.057 2.701664,-2.703667 3.782043,-2.87476 1.08041,-0.171204 3.446374,1.955108 4.46747,1.563108 1.021175,-0.392 1.365633,-3.560993 2.283029,-4.156796 0.917396,-0.595692 3.975021,0.364118 4.748512,-0.409262 0.773506,-0.773506 -0.186431,-3.831227 0.409278,-4.748528 0.595787,-0.917396 3.764811,-1.261822 4.156811,-2.283045 0.392,-1.021207 -1.734232,-3.387123 -1.563124,-4.467438 0.171093,-1.080395 2.93196,-2.689767 2.874745,-3.782059 -0.05698,-1.092291 -2.966405,-2.409971 -3.249498,-3.466475 -0.283093,-1.056599 1.586335,-3.650619 1.089751,-4.62523 -0.496489,-0.974705 -3.71495,-0.994098 -4.40336,-1.844197 -0.688394,-0.850114 -0.02772,-3.9665151 -0.877712,-4.6548311 -0.850113,-0.688378 -3.7739,0.589996 -4.748527,0.0937 -0.974595,-0.496584 -1.660354,-3.622232 -2.716954,-3.905325 -1.056504,-0.283203 -3.187786,2.083929 -4.280077,2.026635 -1.058162,-0.05523 -2.865435,-2.479447 -3.959558,-2.47536 z m 3.14594,5.009861 c 8.28429,0 14.999996,6.7157381 15.000012,15.0000111 0,8.284179 -6.715706,14.999981 -15.000012,14.999981 -8.284273,0 -14.9999954,-6.715802 -14.9999794,-14.999981 0,-8.284289 6.7158174,-14.9999951 14.9999794,-15.0000111 z m 0,1.9970491 c -7.179674,0 -13.002946,5.823162 -13.002946,13.002962 0,7.179596 5.823272,12.998009 13.002946,12.998025 7.179691,0 12.998024,-5.818429 12.998024,-12.998025 0,-7.179784 -5.818318,-13.002962 -12.998024,-13.002962 z m -5.142987,6.316574 1.770207,0 6.854058,10.246529 0,-10.246529 1.656804,0 0,13.047318 -1.775148,0 -6.854057,-10.251469 0,10.251469 -1.651864,0 0,-13.047318 z"
     id="vui_centro_nao_renovado"
     inkscape:label="vui_color" />
</svg>
