<?xml version="1.0" encoding="UTF-8" standalone="no"?>
<!-- Created with Inkscape (http://www.inkscape.org/) -->

<svg
   xmlns:dc="http://purl.org/dc/elements/1.1/"
   xmlns:cc="http://creativecommons.org/ns#"
   xmlns:rdf="http://www.w3.org/1999/02/22-rdf-syntax-ns#"
   xmlns:svg="http://www.w3.org/2000/svg"
   xmlns="http://www.w3.org/2000/svg"
   xmlns:sodipodi="http://sodipodi.sourceforge.net/DTD/sodipodi-0.dtd"
   xmlns:inkscape="http://www.inkscape.org/namespaces/inkscape"
   id="svg2"
   height="48.0001"
   width="48"
   version="1.1"
   inkscape:version="0.48.4 r9939"
   sodipodi:docname="icon-centro-filiado.svg">
  <defs
     id="defs8" />
  <sodipodi:namedview
     pagecolor="#ffffff"
     bordercolor="#666666"
     borderopacity="1"
     objecttolerance="10"
     gridtolerance="10"
     guidetolerance="10"
     inkscape:pageopacity="0"
     inkscape:pageshadow="2"
     inkscape:window-width="1920"
     inkscape:window-height="1017"
     id="namedview6"
     showgrid="true"
     inkscape:zoom="9.833313"
     inkscape:cx="23.284563"
     inkscape:cy="19.614157"
     inkscape:window-x="-5"
     inkscape:window-y="26"
     inkscape:window-maximized="1"
     inkscape:current-layer="svg2"
     inkscape:snap-bbox="true"
     inkscape:bbox-paths="true"
     inkscape:bbox-nodes="true"
     inkscape:snap-bbox-edge-midpoints="true"
     inkscape:snap-bbox-midpoints="true"
     inkscape:object-paths="true"
     inkscape:snap-intersection-paths="true"
     inkscape:snap-nodes="true"
     inkscape:object-nodes="true"
     inkscape:snap-smooth-nodes="true"
     inkscape:snap-midpoints="true"
     inkscape:snap-object-midpoints="true"
     inkscape:snap-center="true">
    <inkscape:grid
       type="xygrid"
       id="grid2995" />
  </sodipodi:namedview>
  <metadata
     id="metadata7">
    <rdf:RDF>
      <cc:Work
         rdf:about="">
        <dc:format>image/svg+xml</dc:format>
        <dc:type
           rdf:resource="http://purl.org/dc/dcmitype/StillImage" />
        <dc:title />
      </cc:Work>
    </rdf:RDF>
  </metadata>
  <path
     style="color:#000000;fill:#000000;fill-opacity:1;fill-rule:nonzero;stroke:none;stroke-width:0.25;marker:none;visibility:visible;display:inline;overflow:visible;enable-background:accumulate"
     d="M 20.75 4 C 19.669628 4.171114 18.677436 7.2330033 17.65625 7.625 C 16.635064 8.0169967 13.85487 6.4042528 12.9375 7 C 12.02013 7.5957472 12.335961 10.789039 11.5625 11.5625 C 10.789039 12.335961 7.5957471 12.02013 7 12.9375 C 6.4042529 13.85487 8.0169967 16.635064 7.625 17.65625 C 7.2330033 18.677436 4.171114 19.669628 4 20.75 C 3.828886 21.830372 6.4115029 23.720161 6.46875 24.8125 C 6.5259971 25.904839 4.1543938 28.037183 4.4375 29.09375 C 4.7206062 30.150317 7.8471577 30.837883 8.34375 31.8125 C 8.8403423 32.787117 7.5616251 35.712428 8.25 36.5625 C 8.9383749 37.412572 12.056178 36.749125 12.90625 37.4375 C 13.756322 38.125875 13.775383 41.347158 14.75 41.84375 C 15.724617 42.340342 18.318433 40.466894 19.375 40.75 C 20.431567 41.033106 21.751411 43.942753 22.84375 44 C 23.936089 44.057247 25.544628 41.296114 26.625 41.125 C 27.705372 40.953886 30.072564 43.079497 31.09375 42.6875 C 32.114936 42.295503 32.45763 39.126997 33.375 38.53125 C 34.29237 37.935503 37.351539 38.898461 38.125 38.125 C 38.898461 37.351539 37.935503 34.29237 38.53125 33.375 C 39.126997 32.45763 42.295503 32.114936 42.6875 31.09375 C 43.079497 30.072564 40.953886 27.705372 41.125 26.625 C 41.296114 25.544628 44.057247 23.936089 44 22.84375 C 43.942753 21.751411 41.033106 20.431567 40.75 19.375 C 40.466894 18.318433 42.340342 15.724617 41.84375 14.75 C 41.347158 13.775383 38.125875 13.756322 37.4375 12.90625 C 36.749125 12.056178 37.412572 8.9383749 36.5625 8.25 C 35.712428 7.5616251 32.787117 8.8403423 31.8125 8.34375 C 30.837883 7.8471577 30.150317 4.7206062 29.09375 4.4375 C 28.037183 4.1543938 25.904839 6.5259971 24.8125 6.46875 C 23.720161 6.4115029 21.830372 3.828886 20.75 4 z M 24 9 C 32.284298 9 39 15.715695 39 24 C 39 32.284249 32.284298 39 24 39 C 15.715751 39 9 32.284242 9 24 C 9 15.715695 15.715758 9 24 9 z M 24 11 C 16.820324 11 11 16.820269 11 24 C 11 31.179676 16.820318 37 24 37 C 31.179725 37 37 31.179683 37 24 C 37 16.820269 31.179725 11 24 11 z M 20.125 16.78125 L 27.875 16.78125 L 27.875 18.21875 L 21.71875 18.21875 L 21.71875 23.3125 L 27.5 23.3125 L 27.5 24.75 L 21.71875 24.75 L 21.71875 30.71875 L 20.125 30.71875 L 20.125 16.78125 z "
     id="vui_change_color"
     inkscape:label="#path2997" />
</svg>
