<?xml version="1.0" encoding="UTF-8" standalone="no"?>
<!-- Created with Inkscape (http://www.inkscape.org/) -->

<svg
   xmlns:dc="http://purl.org/dc/elements/1.1/"
   xmlns:cc="http://creativecommons.org/ns#"
   xmlns:rdf="http://www.w3.org/1999/02/22-rdf-syntax-ns#"
   xmlns:svg="http://www.w3.org/2000/svg"
   xmlns="http://www.w3.org/2000/svg"
   xmlns:sodipodi="http://sodipodi.sourceforge.net/DTD/sodipodi-0.dtd"
   xmlns:inkscape="http://www.inkscape.org/namespaces/inkscape"
   inkscape:export-ydpi="90"
   inkscape:export-xdpi="90"
   inkscape:export-filename="orcamento-preview.png"
   sodipodi:docname="top-logo.svg"
   inkscape:version="0.48.4 r9939"
   version="1.1"
   id="svg2"
   height="262.1875"
   width="176.88">
  <sodipodi:namedview
     id="base"
     pagecolor="#ffffff"
     bordercolor="#cfcfcf"
     borderopacity="1"
     inkscape:pageopacity="0"
     inkscape:pageshadow="2"
     inkscape:zoom="1.9999999"
     inkscape:cx="163.30175"
     inkscape:cy="124.28224"
     inkscape:document-units="px"
     inkscape:current-layer="g3519"
     showgrid="false"
     inkscape:window-width="1920"
     inkscape:window-height="1013"
     inkscape:window-x="-5"
     inkscape:window-y="30"
     inkscape:window-maximized="1"
     inkscape:snap-bbox="true"
     inkscape:bbox-paths="true"
     inkscape:bbox-nodes="true"
     inkscape:snap-bbox-edge-midpoints="true"
     inkscape:snap-bbox-midpoints="true"
     inkscape:snap-nodes="true"
     inkscape:object-paths="true"
     inkscape:snap-intersection-paths="true"
     inkscape:object-nodes="true"
     inkscape:snap-smooth-nodes="true"
     inkscape:snap-midpoints="true"
     inkscape:snap-object-midpoints="true"
     inkscape:snap-center="true"
     inkscape:showpageshadow="false"
     inkscape:snap-global="false"
     showborder="true"
     showguides="false"
     inkscape:guide-bbox="true"
     fit-margin-top="0"
     fit-margin-left="0"
     fit-margin-right="0"
     fit-margin-bottom="0"
     inkscape:snap-page="true">
    <inkscape:grid
       originy="2491.0595px"
       originx="-405.06248px"
       snapvisiblegridlinesonly="true"
       enabled="true"
       visible="true"
       empspacing="5"
       id="grid3754"
       type="xygrid" />
  </sodipodi:namedview>
  <defs
     id="defs4">
    <inkscape:path-effect
       bendpath3-nodetypes="cc"
       bendpath1-nodetypes="cc"
       bendpath4="m 192.51177,3162.0674 0,11.7422"
       bendpath3="m 190.744,3170.0973 c 23.43612,14.2767 67.59106,13.9097 92.38908,0"
       bendpath2="m 281.36531,3162.0674 0,11.7422"
       bendpath1="m 192.51177,3159.0622 c 27.99142,12.9278 57.79127,11.5676 88.85354,0"
       xx="false"
       yy="true"
       is_visible="true"
       id="path-effect4868"
       effect="envelope" />
  </defs>
  <metadata
     id="metadata7">
    <rdf:RDF>
      <cc:Work
         rdf:about="">
        <dc:format>image/svg+xml</dc:format>
        <dc:type
           rdf:resource="http://purl.org/dc/dcmitype/StillImage" />
        <dc:title />
      </cc:Work>
    </rdf:RDF>
  </metadata>
  <g
     transform="translate(-405.06248,-3281.2344)"
     id="layer1"
     inkscape:groupmode="layer"
     inkscape:label="Camada 1">
    <g
       id="g3519"
       transform="matrix(0.45140775,0,0,0.45140775,-850.71031,1942.6062)"
       style="fill:#000000;display:inline"
       inkscape:export-filename="images/logo.png"
       inkscape:export-xdpi="150"
       inkscape:export-ydpi="150">
      <g
         style="stroke-width:0.82323611;display:inline"
         transform="matrix(2.424793,0,0,2.424793,2405.5822,-4327.4271)"
         id="g4948">
        <path
           style="font-size:medium;font-style:normal;font-variant:normal;font-weight:normal;font-stretch:normal;text-indent:0;text-align:start;text-decoration:none;line-height:normal;letter-spacing:normal;word-spacing:normal;text-transform:none;direction:ltr;block-progression:tb;writing-mode:lr-tb;text-anchor:start;baseline-shift:baseline;color:#000000;fill:#ffcc00;fill-opacity:1;fill-rule:nonzero;stroke:none;stroke-width:1.2348541;marker:none;visibility:visible;display:inline;overflow:visible;enable-background:accumulate;font-family:sans-serif"
           d="m 236.1875,3017.2051 0,0.01 0.002,0 z m 0.002,0.01 0,0 c -0.0224,0 -0.0446,-2e-4 -0.0664,0.01 -0.006,-1e-4 -0.0117,-1e-4 -0.0176,0 l -0.006,0 c -0.009,0 -0.0183,0.01 -0.0273,0.01 l -0.008,0 c -0.0133,0 -0.0263,0.01 -0.0391,0.016 -0.01,0.01 -0.0198,0.01 -0.0293,0.017 l -0.008,0 c -0.009,0.01 -0.0185,0.014 -0.0273,0.02 -0.0181,0.014 -0.0351,0.029 -0.0508,0.045 -0.005,0 -0.009,0.01 -0.0137,0.012 l -0.004,0.01 c -0.008,0.01 -0.0147,0.018 -0.0215,0.027 l -0.006,0.01 c -0.007,0.01 -0.0134,0.019 -0.0195,0.029 -0.004,0.01 -0.008,0.015 -0.0117,0.022 -0.003,0.01 -0.005,0.01 -0.008,0.016 l -0.002,0.01 c -0.006,0.012 -0.0109,0.023 -0.0156,0.035 l -0.002,0 c -0.005,0.013 -0.008,0.026 -0.0117,0.039 -12.32612,37.7443 -26.17297,74.4893 -50.66406,104.5254 -0.18686,0.2308 -0.0835,0.5772 0.19922,0.6679 21.00413,6.6998 37.13801,18.2594 50.56836,32.5684 0.004,0 0.009,0.01 0.0137,0.014 0.0152,0.015 0.0315,0.029 0.0488,0.041 0.006,0 0.0116,0.01 0.0176,0.012 0.006,0 0.0129,0.01 0.0195,0.012 0.006,0 0.0116,0.012 0.0176,0.012 0.008,0 0.0155,0.01 0.0234,0.014 0.0197,0.01 0.04,0.013 0.0606,0.018 0.0186,0.01 0.0375,0.01 0.0566,0.012 0.007,2e-4 0.0143,2e-4 0.0215,0 0.007,2e-4 0.0143,2e-4 0.0215,0 0.007,2e-4 0.013,2e-4 0.0195,0 0.007,2e-4 0.0143,2e-4 0.0215,0 0.0184,0 0.0367,-0.01 0.0547,-0.01 0.008,0 0.0157,-0.01 0.0234,-0.01 l 0.0117,0 c 0.0119,0 0.0236,-0.01 0.0351,-0.012 0.026,-0.01 0.0508,-0.024 0.0742,-0.039 0.006,0 0.0118,-0.01 0.0176,-0.012 0.006,0 0.0118,-0.012 0.0176,-0.016 0.005,0 0.0105,-0.01 0.0156,-0.014 0.009,-0.01 0.0187,-0.016 0.0274,-0.025 13.43036,-14.309 29.56501,-25.8666 50.56836,-32.5664 0.28275,-0.091 0.38608,-0.4391 0.19922,-0.6699 -24.49871,-30.0464 -38.3453,-66.8046 -50.67383,-104.5625 -0.0266,-0.078 -0.0755,-0.1487 -0.14063,-0.1993 l -0.006,-0.01 c -0.009,-0.01 -0.0193,-0.012 -0.0293,-0.018 l -0.008,0 c -0.0102,-0.01 -0.0206,-0.014 -0.0312,-0.019 -0.014,-0.01 -0.0283,-0.013 -0.043,-0.018 -0.0383,-0.014 -0.0784,-0.023 -0.11914,-0.025 l -0.006,0 c -0.013,-7e-4 -0.026,-6e-4 -0.0391,0 z"
           id="path6113-4"
           inkscape:connector-curvature="0"
           sodipodi:nodetypes="ccccccccssscccccccccccccccccccccccscccccccsssccccccccccccccccccc" />
        <path
           style="font-size:medium;font-style:normal;font-variant:normal;font-weight:normal;font-stretch:normal;text-indent:0;text-align:start;text-decoration:none;line-height:normal;letter-spacing:normal;word-spacing:normal;text-transform:none;direction:ltr;block-progression:tb;writing-mode:lr-tb;text-anchor:start;baseline-shift:baseline;color:#000000;fill:#4d67af;fill-opacity:1;fill-rule:nonzero;stroke:none;stroke-width:1.2348541;marker:none;visibility:visible;display:inline;overflow:visible;enable-background:accumulate;font-family:sans-serif"
           d="m 236.1875,3017.2051 0,0.01 0.002,0 z m 0.002,0.01 0,0 c -0.0224,0 -0.0446,-2e-4 -0.0664,0.01 -0.006,-1e-4 -0.0117,-1e-4 -0.0176,0 l -0.006,0 c -0.009,0 -0.0183,0.01 -0.0273,0.01 l -0.008,0 c -0.0133,0 -0.0263,0.01 -0.0391,0.016 -0.01,0.01 -0.0198,0.01 -0.0293,0.017 l -0.008,0 c -0.009,0.01 -0.0185,0.014 -0.0273,0.02 -0.0181,0.014 -0.0351,0.029 -0.0508,0.045 -0.005,0 -0.009,0.01 -0.0137,0.012 l -0.004,0.01 c -0.008,0.01 -0.0147,0.018 -0.0215,0.027 l -0.006,0.01 c -0.007,0.01 -0.0134,0.019 -0.0195,0.029 -0.004,0.01 -0.008,0.015 -0.0117,0.022 -0.003,0.01 -0.005,0.01 -0.008,0.016 l -0.002,0.01 c -0.006,0.012 -0.0109,0.023 -0.0156,0.035 l -0.002,0 c -0.005,0.013 -0.008,0.026 -0.0117,0.039 -12.32612,37.7443 -26.17297,74.4893 -50.66406,104.5254 -0.068,0.084 -0.0856,0.1825 -0.082,0.2793 l 16.23828,0 c -1.79383,-2.792 -2.72555,-5.6399 -2.53125,-8.6915 -0.13226,-8.9592 5.88079,-15.1709 13.46289,-17.6562 1.89953,-0.6226 3.90207,-1.0218 5.94141,-1.1836 0.73887,-0.059 1.48035,-0.082 2.22461,-0.076 5.20984,0.044 10.47969,1.6819 14.77343,5.0235 0.47824,-0.3721 0.97138,-0.7175 1.47266,-1.0469 l 0,-78.5684 0,-2.5879 c -0.006,-0.019 -0.0131,-0.039 -0.0195,-0.059 -0.0266,-0.078 -0.0755,-0.1487 -0.14063,-0.1993 l -0.006,-0.01 c -0.009,-0.01 -0.0193,-0.012 -0.0293,-0.018 l -0.008,0 c -0.0102,-0.01 -0.0206,-0.014 -0.0312,-0.019 -0.014,-0.01 -0.0283,-0.013 -0.043,-0.018 -0.0383,-0.014 -0.0784,-0.023 -0.11914,-0.025 l -0.006,0 c -0.013,-7e-4 -0.026,-6e-4 -0.0391,0 z m -27.0625,21.6309 c -0.0188,0.017 -0.10194,0.047 -0.31836,0.017 -0.3173,-0.043 -0.55715,0.2727 -0.73437,0.6875 l -0.0176,0 -0.002,0.049 c -0.2063,0.5046 -0.31051,1.074 -0.36133,1.4043 l -0.22656,0.125 -1.38086,0.246 -3.35156,1.8731 -3.10547,2.5117 -3.20508,2.6641 -3.35156,3.4492 -1.52735,1.8242 -3.1543,3.9434 -1.23242,1.6758 -1.57812,2.7109 -2.46289,4.584 -1.1836,2.1191 -1.87304,2.2188 -2.51367,2.1679 -1.92188,1.8243 -2.21875,2.0703 -2.2168,3.0566 -1.03515,1.625 -0.59375,2.0703 -0.34375,0.7403 -1.1836,0.4921 -1.47851,0.7403 -1.57813,1.4785 -1.08398,1.4785 -0.58985,1.1328 -0.64257,0.9863 -0.0488,1.5782 -0.39453,4.3867 -0.14649,2.4629 -0.54297,1.4805 -0.0977,1.6757 0.73828,0.1465 0.68945,-1.5273 1.67774,-1.5274 1.67578,-2.0215 1.9707,-0.6406 1.77539,-1.1328 0.0488,-4.3867 -0.14844,-3.6485 0,-1.0839 0.74024,-0.4942 0.39453,-0.5918 0.58984,0.1973 1.23242,1.7754 1.33008,2.168 1.23438,1.875 0.98437,1.871 0.5918,2.5645 0.29492,0.5918 -0.0488,2.168 -0.19726,1.1836 -0.34375,1.3789 -0.49414,2.1699 0.24609,1.3301 0.83789,1.0351 0.39453,1.7754 0.3457,2.168 0.34571,1.6758 -0.0508,1.9218 0.29687,3.795 0.14844,2.5644 1.23242,0.8867 1.37891,0.1 0.19726,-0.1972 -0.0488,-0.8379 -0.68945,-2.168 -0.3457,-1.332 -0.2461,-3.9434 0,-1.7734 0.16602,-1.9824 0.42773,-3.1055 0.58789,-2.6211 0.53711,-2.6777 0.64063,-2.3535 1.28516,-4.1758 1.125,-3.6387 0.48046,-2.1426 0.26758,-3.2636 0.58985,-1.8731 0.85547,-1.0176 1.71289,-1.498 1.92578,-1.1778 2.46289,-0.9101 2.83594,-1.6055 0.91015,-0.75 1.82227,-1.4453 3.15625,-2.5156 3.58593,-2.8906 1.55274,-1.4981 0.64258,-0.5898 0.69531,-0.2657 0.64258,0.4278 0.10742,0.4804 0.16016,0.5899 -0.32032,0.6426 -0.58984,0.9082 -0.91016,0.9648 -1.01562,0.375 -1.01758,0.5352 -0.96289,0.3203 -0.75,0.2676 -0.32227,0.5351 -0.32031,0.9102 -1.07031,0.1074 -0.37305,0.055 -0.0547,2.1426 0.32032,0.375 0.80273,0 1.01758,-0.5372 0.53516,-0.748 0.375,-0.8574 0.48046,-0.375 1.17774,-0.3731 1.23242,-0.375 1.01563,-0.5898 0.96484,-0.6406 0.9082,-1.5528 1.125,-1.3379 0.53516,-1.3398 0.10742,-1.1758 -0.16016,-0.5898 -0.48242,-0.5352 -1.5,-0.1601 -2.72851,-0.375 -0.91016,-0.3204 -0.80273,-1.9277 -1.44532,-2.1933 -1.07031,-1.3926 -0.32031,-1.2852 0.26758,-2.4629 1.60547,-3.4765 1.71289,-2.3028 0.69531,-0.375 0.48242,-0.5879 1.55274,0.053 0.96093,0.75 1.5,0.2129 1.81836,0.055 3.32031,-0.1075 0.53516,0.4825 0.91016,0.2128 0.80273,-0.1601 0.53516,-0.4277 0.32226,-0.75 -0.0391,-0.7188 -2.51367,-2.1211 -2.9082,-1.8223 -3.30274,-2.3671 -1.73047,-0.6543 c -0.64859,-1.9174 -0.20222,-2.0171 -0.25586,-1.9688 z m 55.79297,0.049 0,0 c -0.0531,-0.048 0.38135,0.055 -0.23633,1.9121 l -1.74023,0.6582 -3.30078,2.3672 -2.9082,1.8222 -2.51563,2.1211 -0.0371,0.7188 0.32227,0.75 0.53515,0.4277 0.80274,0.1602 0.91015,-0.2129 0.53516,-0.4824 3.31836,0.1074 1.82031,-0.057 1.49805,-0.2129 0.96289,-0.75 1.55273,-0.053 0.48047,0.5879 0.69727,0.375 1.71289,2.3028 1.60547,3.4765 0.26757,2.4629 -0.32226,1.2852 -1.07031,1.3925 -1.44532,2.1934 -0.80273,1.9277 -0.9082,0.3203 -2.73047,0.375 -1.49805,0.1602 -0.48242,0.5352 -0.16016,0.5898 0.10742,1.1758 0.53516,1.3398 1.12305,1.3379 0.91015,1.5528 0.96485,0.6406 1.01562,0.5898 1.23047,0.375 1.17774,0.3731 0.48242,0.375 0.37304,0.8574 0.53711,0.748 1.01563,0.5371 0.80273,0 0.32227,-0.375 -0.0547,-2.1425 -0.37305,-0.053 -1.07226,-0.1074 -0.32031,-0.9101 -0.32032,-0.5352 -0.75,-0.2676 -0.96289,-0.3203 -1.01757,-0.5351 -1.01563,-0.375 -0.91211,-0.9649 -0.58789,-0.9082 -0.32031,-0.6426 0.16015,-0.5898 0.10743,-0.4805 0.64062,-0.4277 0.69727,0.2656 0.64062,0.5898 1.55274,1.4981 3.58789,2.8906 3.15625,2.5156 1.82031,1.4454 0.91016,0.75 2.83593,1.6054 2.46289,0.9102 1.92774,1.1777 1.71094,1.4981 0.85742,1.0175 0.58984,1.8731 0.26563,3.2637 0.48242,2.1425 1.125,3.6387 1.2832,4.1758 0.64258,2.3535 0.53516,2.6777 0.58789,2.6211 0.42968,3.1055 0.16602,1.9824 0,1.7735 -0.24609,3.9433 -0.34571,1.3321 -0.68945,2.1679 -0.0508,0.8379 0.19726,0.1973 1.38086,-0.1016 1.23242,-0.8867 0.14844,-2.5625 0.29492,-3.7969 -0.0488,-1.9199 0.3457,-1.6758 0.34375,-2.1699 0.39453,-1.7754 0.83789,-1.0332 0.24609,-1.3301 -0.49218,-2.1699 -0.34571,-1.3789 -0.19726,-1.1836 -0.0488,-2.1699 0.29492,-0.5918 0.5918,-2.5625 0.98633,-1.8711 1.23242,-1.875 1.33008,-2.168 1.23242,-1.7754 0.5918,-0.1992 0.39453,0.5918 0.74023,0.4961 0,1.084 -0.14844,3.6484 0.0488,4.3848 1.77539,1.1328 1.97071,0.6406 1.67578,2.0215 1.67773,1.5293 0.68945,1.5254 0.73829,-0.1465 -0.0977,-1.6738 -0.54297,-1.4805 -0.14648,-2.4629 -0.39453,-4.3867 -0.0488,-1.5801 -0.64258,-0.9863 -0.58984,-1.1328 -1.08594,-1.4766 -1.57617,-1.4785 -1.47852,-0.7422 -1.18359,-0.4902 -0.34571,-0.7422 -0.59179,-2.0703 -1.03516,-1.625 -2.2168,-3.0547 -2.21875,-2.0703 -1.92187,-1.8262 -2.51563,-2.166 -1.87109,-2.2207 -1.18359,-2.1172 -2.46485,-4.584 -1.57617,-2.7109 -1.23242,-1.6758 -3.15625,-3.9453 -1.52734,-1.8223 -3.35157,-3.4492 -3.20312,-2.666 -3.10547,-2.5098 -3.35156,-1.873 -1.38086,-0.2461 -0.24805,-0.1348 c -0.0557,-0.3383 -0.15875,-0.8503 -0.33789,-1.3027 l -0.006,-0.1426 -0.0527,0.014 c -0.1749,-0.3885 -0.40491,-0.682 -0.70899,-0.6406 -0.21643,0.029 -0.2996,5e-4 -0.31836,-0.021 z m -0.92773,47.3242 c 2.41359,5.0079 5.15657,9.9362 8.36328,14.7578 -2.9637,-4.8083 -5.74165,-9.7334 -8.36328,-14.7578 z m -27.50977,26.4629 c -0.0183,0.3206 -0.0212,0.6448 -0.0215,0.9707 -7.5e-4,-0.3255 0.004,-0.6504 0.0215,-0.9707 z m -36.01953,2.1426 c 0.004,0.115 0.0139,0.2291 0.0215,0.3437 -0.008,-0.1145 -0.0176,-0.2289 -0.0215,-0.3437 z m 0.0957,1.0976 c 0.0154,0.112 0.0338,0.2242 0.0527,0.336 -0.0188,-0.112 -0.0374,-0.2237 -0.0527,-0.336 z m 0.21094,1.1016 c 0.0247,0.1023 0.0485,0.2045 0.0762,0.3066 -0.0275,-0.102 -0.0516,-0.2044 -0.0762,-0.3066 z m 0.36719,1.2363 c 0.0116,0.032 0.0196,0.065 0.0312,0.098 -0.0118,-0.032 -0.0197,-0.065 -0.0312,-0.098 z m 28.96289,1.8652 c 0.0155,0.055 0.031,0.1076 0.0469,0.1622 -0.0156,-0.054 -0.0317,-0.1076 -0.0469,-0.1622 z m 38.95508,2.209 c -1.71679,2.6795 -4.24015,5.3062 -7.38086,8.0098 -6.38591,5.4973 -15.41241,11.4297 -25.88672,18.9512 l 0,4.7285 0,1.168 c 0.0366,0.039 0.0748,0.076 0.11133,0.1152 0.004,0 0.009,0.01 0.0137,0.014 0.0152,0.015 0.0315,0.029 0.0488,0.041 0.006,0 0.0116,0.01 0.0176,0.012 0.006,0 0.0129,0.01 0.0195,0.012 0.006,0 0.0116,0.012 0.0176,0.012 0.008,0 0.0155,0.01 0.0234,0.014 0.0197,0.01 0.04,0.013 0.0606,0.018 0.0186,0.01 0.0375,0.01 0.0566,0.012 0.007,2e-4 0.0143,2e-4 0.0215,0 0.007,2e-4 0.0143,2e-4 0.0215,0 0.007,2e-4 0.013,2e-4 0.0195,0 0.007,2e-4 0.0143,2e-4 0.0215,0 0.0184,0 0.0367,-0.01 0.0547,-0.01 0.008,0 0.0157,-0.01 0.0234,-0.01 l 0.0117,0 c 0.0119,0 0.0236,-0.01 0.0351,-0.012 0.026,-0.01 0.0508,-0.024 0.0742,-0.039 0.006,0 0.0118,-0.01 0.0176,-0.012 0.006,0 0.0118,-0.012 0.0176,-0.016 0.005,0 0.0105,-0.01 0.0156,-0.014 0.009,-0.01 0.0187,-0.016 0.0274,-0.025 13.43036,-14.309 29.56501,-25.8666 50.56836,-32.5664 0.18519,-0.06 0.28439,-0.2283 0.28125,-0.4024 l -1.69531,0 -2.38672,0 z m -32.10547,0.7188 c -0.0823,0.073 -0.16494,0.1469 -0.24805,0.2051 0.0834,-0.06 0.16547,-0.1305 0.24805,-0.2051 z m -0.5293,0.3867 c -0.0111,0.01 -0.0221,0.012 -0.0332,0.018 0.0111,-0.01 0.0221,-0.012 0.0332,-0.018 z m 2.52735,0.023 c -0.0675,0.089 -0.13751,0.1726 -0.20704,0.2559 0.0697,-0.083 0.13943,-0.1664 0.20704,-0.2559 z m 14.36328,0.3301 c 0.15064,0.2028 0.29617,0.406 0.42968,0.6113 -0.13328,-0.2057 -0.27916,-0.4081 -0.42968,-0.6113 z m -14.77539,0.1641 c -0.0716,0.077 -0.14497,0.1493 -0.21875,0.2207 0.0737,-0.071 0.14719,-0.1434 0.21875,-0.2207 z m -0.42383,0.4082 c -0.0758,0.066 -0.15249,0.1298 -0.23047,0.1894 0.0783,-0.06 0.15446,-0.1235 0.23047,-0.1894 z m -0.47852,0.3633 c -0.0699,0.046 -0.13932,0.093 -0.21093,0.1347 0.0716,-0.041 0.14103,-0.089 0.21093,-0.1347 z m -0.50781,0.2871 c -0.0666,0.032 -0.13122,0.068 -0.19922,0.096 0.0677,-0.027 0.13298,-0.064 0.19922,-0.096 z m 17.11523,0.2519 c 0.0984,0.1882 0.19378,0.3764 0.27735,0.5664 -0.0832,-0.19 -0.17938,-0.3782 -0.27735,-0.5664 z m 0.41211,0.9102 c 0.0527,0.1352 0.10924,0.2702 0.1543,0.4062 -0.0448,-0.1361 -0.10181,-0.2709 -0.1543,-0.4062 z m 0.26758,0.8105 c 0.032,0.1171 0.0695,0.234 0.0957,0.3516 -0.026,-0.1175 -0.0639,-0.2346 -0.0957,-0.3516 z m 2.33203,4.7383 c -0.59529,0.4674 -1.18371,0.9316 -1.81445,1.4102 0.62975,-0.478 1.22016,-0.9435 1.81445,-1.4102 z m -1.86523,1.4473 c -0.9157,0.6943 -1.86558,1.4023 -2.85156,2.123 0.98533,-0.7206 1.93654,-1.4289 2.85156,-2.123 z"
           id="path4790"
           inkscape:connector-curvature="0"
           sodipodi:nodetypes="ccccccccsssccccccccccccccccccccccccccccccccccccccccccccccccccccccccccccccccccccccccccccccccccccccccccccccccccccccccccccccccccccccccccccccccccccccccccccccccccccccccccccccccccccccccccccccccccccccccccccccccccccccccccccccccccccccccccccccccccccccccccccccccccccccccccccccccccccccccccccccccccccccccccccccccccccccccccccccccccccccccccccccccccccccccccccccccccccccccccccccccccccccccccccccccccccccccccccccscccccccssscccccccccccccccccccccccccccccccccccccccccccccccccc" />
        <path
           id="path6119-0"
           d="m 220.43821,3096.4697 c -0.7197,-0.01 -1.43732,0.018 -2.1504,0.074 -1.90148,0.1487 -3.76653,0.5173 -5.53125,1.0957 -7.05876,2.3137 -12.42426,7.8281 -12.27928,16.0429 a 0.86266876,0.86266876 0 0 1 -0.002,0.07 c -0.336,5.1745 3.02621,9.8886 9.29297,15.2832 6.15867,5.3016 15.06148,11.1859 25.39064,18.5898 10.32895,-7.4035 19.23224,-13.2885 25.39062,-18.5898 6.26678,-5.3946 9.62742,-10.1087 9.29102,-15.2832 a 0.86266876,0.86266876 0 0 1 -0.002,-0.07 c 0.14532,-8.2151 -5.21857,-13.7292 -12.27734,-16.0429 -6.23392,-2.0433 -13.72578,-1.4642 -19.60744,2.1836 l 1.87109,-0.098 a 0.86266876,0.86266876 0 0 1 0.66993,1.457 l -2.14257,2.2559 c 0.72263,2.8154 1.04509,5.9179 -0.0606,8.375 -0.35624,2.9418 0.11649,6.3807 1.70312,8.9395 a 0.86266876,0.86266876 0 0 1 0.0527,0.8086 c -0.92746,2.0646 -2.11382,3.3351 -3.63477,3.7168 -1.52094,0.3817 -3.11009,-0.1195 -4.86717,-0.9786 a 0.86266876,0.86266876 0 0 1 -0.47658,-0.664 c -0.17192,-1.3292 -0.94429,-3.0232 -1.26953,-4.7637 -3.00578,-2.3953 -6.05558,-4.456 -7.86327,-7.8769 a 0.86266876,0.86266876 0 0 1 -0.0586,-0.1348 c -0.75066,-2.3021 0.095,-4.6067 2.20898,-6.4141 a 0.86310254,0.86310254 0 1 1 1.1211,1.3125 c -1.76347,1.5076 -2.20997,2.856 -1.68947,4.5137 1.60958,2.9781 4.45748,4.9237 7.57423,7.4277 a 0.86266876,0.86266876 0 0 1 0.31445,0.5547 c 0.17722,1.2892 0.89648,2.9378 1.23046,4.6231 1.42731,0.6535 2.55484,0.9274 3.35548,0.7265 0.80157,-0.2012 1.54176,-0.9205 2.29297,-2.4433 -1.63194,-2.9266 -2.08671,-6.4706 -1.70704,-9.5762 a 0.86266876,0.86266876 0 0 1 0.084,-0.2793 c 0.95651,-1.9176 0.72424,-5.1028 -0.0586,-7.9258 a 0.86266876,0.86266876 0 0 1 0.20507,-0.8242 l 0.94532,-0.9941 -2.54884,0.1308 a 0.86266876,0.86266876 0 0 1 -0.81445,-0.4336 c -3.98261,-3.2022 -9.00437,-4.743 -13.95312,-4.789 z m 27.87696,16.1718 c 1.72898,0 3.25781,1.267 3.25781,2.9571 0,1.4138 -1.07643,2.519 -2.43945,2.8457 l 0,3.2851 a 0.86266876,0.86266876 0 0 1 0,0.834 l 0,3.502 a 0.86266876,0.86266876 0 0 1 -0.87111,0.8632 l -7.80077,-0.082 -2.48048,5.4063 0.13868,0.061 a 0.86266876,0.86266876 0 1 1 -0.68555,1.582 l -3.28905,-1.4238 a 0.86266876,0.86266876 0 0 1 0.35155,-1.6601 0.86266876,0.86266876 0 0 1 0.33398,0.076 l 1.56837,0.6797 2.72852,-5.9492 a 0.86266876,0.86266876 0 0 1 0.79297,-0.5039 l 7.48828,0.078 0,-2.1972 -5.375,-0.074 a 0.86337955,0.86337955 0 1 1 0.0234,-1.7265 l 5.35157,0.076 0,-2.8496 c -1.32172,-0.3524 -2.35157,-1.4384 -2.35157,-2.8222 0,-1.6901 1.52831,-2.9571 3.25782,-2.9571 z m 2.87109,9.1641 a 0.86266876,0.86266876 0 0 1 0.62109,0.2559 c 1.9226,1.8948 3.10033,3.9302 3.33791,6.041 0.23757,2.1108 -0.51103,4.2273 -2.16409,6.123 a 0.86266876,0.86266876 0 0 1 -0.14062,0.1309 c -2.3932,1.7501 -4.87196,2.3514 -7.16405,1.9277 -2.2921,-0.4236 -4.34285,-1.8323 -6.03517,-3.8711 a 0.86266876,0.86266876 0 1 1 1.32618,-1.1015 c 1.5049,1.8129 3.22214,2.9448 5.02149,3.2773 1.77264,0.3277 3.68129,-0.102 5.74217,-1.5801 1.35923,-1.5924 1.87621,-3.1404 1.69923,-4.7129 -0.18014,-1.6004 -1.10053,-3.2974 -2.83398,-5.0058 a 0.86266876,0.86266876 0 0 1 0.58984,-1.4844 z"
           style="fill:#cc5c46;fill-opacity:1;fill-rule:evenodd;stroke:none;display:inline"
           inkscape:connector-curvature="0" />
        <g
           id="g5036">
          <g
             transform="translate(0,-10.5)"
             id="g4943"
             style="stroke-width:0.82323611">
            <path
               inkscape:connector-curvature="0"
               style="color:#000000;fill:#ffcc00;fill-opacity:1;fill-rule:nonzero;stroke:none;stroke-width:1.2348541;marker:none;visibility:visible;display:inline;overflow:visible;enable-background:accumulate"
               d="m 163.90625,3121.2988 -0.54297,16.2266 -8.16601,-3.0723 c 6.77794,22.7272 35.40037,35.3801 33.83203,39.6797 l 3.95898,-18.6953 c 1.08142,-3.2941 -22.2886,-9.1604 -29.08203,-34.1387 z m 144.17969,0 c -6.79343,24.9783 -30.1615,30.8446 -29.08008,34.1387 l 3.95898,18.6953 c -1.56834,-4.2996 27.05214,-16.9525 33.83008,-39.6797 l -8.16601,3.0723 -0.54297,-16.2266 z"
               id="path4781" />
            <path
               inkscape:connector-curvature="0"
               style="color:#000000;fill:#d49d00;fill-opacity:1;fill-rule:nonzero;stroke:none;stroke-width:1.2348541;marker:none;visibility:visible;display:inline;overflow:visible;enable-background:accumulate"
               d="m 180.80078,3151.0664 c -0.561,0.01 -0.93011,0.2419 -1.01953,0.8106 l -2.29687,16.4394 c 1.19128,-4.446 10.10988,10.253 11.57812,4.7734 l 3.92578,-17.6523 c -0.52204,2.3256 -9.15807,-4.3989 -12.1875,-4.3711 z m 110.39258,0 c -3.02943,-0.028 -11.66546,6.6967 -12.1875,4.3711 l 3.92578,17.6523 c 1.46824,5.4796 10.38684,-9.2194 11.57813,-4.7734 l -2.29883,-16.4394 c -0.0894,-0.5687 -0.45657,-0.8054 -1.01758,-0.8106 z"
               id="path4772" />
            <path
               inkscape:connector-curvature="0"
               style="color:#000000;fill:#ffcc00;fill-opacity:1;fill-rule:nonzero;stroke:none;stroke-width:1.2348541;marker:none;visibility:visible;display:inline;overflow:visible;enable-background:accumulate"
               d="m 179.78125,3151.877 -2.29687,16.4394 c -10e-6,7.4666 21.83716,24.043 58.51171,24.043 36.67455,0 58.51368,-16.5764 58.51368,-24.043 l -2.29883,-16.4394 c -0.22386,5.5319 -26.27957,18.0312 -56.21485,18.0312 -29.93528,0 -55.99098,-12.4993 -56.21484,-18.0312 z"
               id="path4779" />
          </g>
          <path
             inkscape:original-d="m 266.89138,3162.0674 c -1.07201,0 -1.92618,0.2735 -2.56253,0.8203 -0.63636,0.5469 -0.95453,1.2969 -0.95453,2.25 0,0.7605 0.20069,1.4115 0.60209,1.9532 0.40139,0.5416 1.09159,1.0234 2.07058,1.4453 0.94964,0.4062 1.5762,0.7577 1.87969,1.0547 0.30349,0.2968 0.45524,0.6588 0.45524,1.0859 0,0.4739 -0.16643,0.8515 -0.49929,1.1328 -0.32797,0.2813 -0.8395,0.4219 -1.53459,0.4219 -0.47482,0 -0.98879,-0.07 -1.54193,-0.2109 -0.54824,-0.1407 -1.06711,-0.3334 -1.55661,-0.5782 l 0,1.7656 c 0.77341,0.4011 1.7671,0.6016 2.98106,0.6016 1.21396,0 2.16605,-0.289 2.85624,-0.8672 0.69019,-0.5781 1.03529,-1.375 1.03529,-2.3906 0,-0.5156 -0.0856,-0.9635 -0.25699,-1.3438 -0.17132,-0.3801 -0.44054,-0.7213 -0.80767,-1.0234 -0.36713,-0.3021 -0.94474,-0.6275 -1.73283,-0.9766 -0.69999,-0.3072 -1.1846,-0.5547 -1.45383,-0.7421 -0.26921,-0.1876 -0.46257,-0.3855 -0.58005,-0.5938 -0.11748,-0.2135 -0.17622,-0.4687 -0.17622,-0.7656 0,-0.4323 0.14685,-0.7787 0.44055,-1.0391 0.2937,-0.2656 0.72446,-0.3984 1.29228,-0.3984 0.74894,0 1.60067,0.2135 2.5552,0.6406 l 0.55803,-1.5234 c -1.01817,-0.4792 -2.04122,-0.7188 -3.06918,-0.7188 z m -70.36326,0.1172 -4.01635,11.4688 1.85032,0 1.04997,-3.1719 4.10446,0 1.07201,3.1719 1.865,0 -4.01636,-11.4688 -1.90905,0 z m 60.91162,0 -3.74652,10.6973 -2.56987,-4.2832 c 1.39018,-0.6042 2.08527,-1.6172 2.08527,-3.0391 0,-1.1146 -0.33286,-1.9479 -0.99858,-2.5 -0.66573,-0.5521 -1.69123,-0.8281 -3.07651,-0.8281 l -3.03246,0 0,11.4219 1.75487,0 0,-4.5625 1.73282,0 2.56988,4.5625 1.99716,0 1.1179,0 1.04998,-3.1719 4.10446,0 1.07201,3.1719 1.865,0 -4.01636,-11.4688 -1.90905,0 z m -54.419,0.047 0,11.4219 1.59332,0 0,-5.9375 c 0,-0.8022 -0.0343,-1.6876 -0.1028,-2.6563 l -0.0367,-0.5078 0.0587,0 5.27927,9.1016 2.15135,0 0,-11.4219 -1.60801,0 0,5.9844 c 0,0.4218 0.0147,1.0104 0.0441,1.7656 0.0294,0.75 0.049,1.1849 0.0587,1.3047 l -0.0441,0 -5.26458,-9.0547 -2.12932,0 z m 10.9128,0 0,11.4219 3.00309,0 c 1.8503,0 3.26741,-0.4974 4.25131,-1.4922 0.9839,-1 1.47585,-2.4427 1.47585,-4.3282 0,-1.7759 -0.47482,-3.1536 -1.42446,-4.1328 -0.94962,-0.9791 -2.27861,-1.4687 -3.98697,-1.4687 l -3.31882,0 z m 10.17855,0 0,11.4219 6.07226,0 0,-1.586 -4.3174,0 0,-3.5859 4.04573,0 0,-1.5625 -4.04573,0 0,-3.1094 4.3174,0 0,-1.5781 -6.07226,0 z m 12.92649,0 0,11.4219 3.87685,0 c 1.19927,0 2.13421,-0.2891 2.80483,-0.8672 0.67552,-0.5834 1.01327,-1.388 1.01327,-2.4141 0,-0.7604 -0.17866,-1.3619 -0.536,-1.8047 -0.35244,-0.4479 -0.90558,-0.7474 -1.65941,-0.8984 l 0,-0.078 c 0.60698,-0.1146 1.07201,-0.3932 1.39508,-0.836 0.32307,-0.4426 0.4846,-0.9974 0.4846,-1.664 0,-0.9896 -0.33041,-1.7136 -0.99124,-2.1719 -0.65593,-0.4583 -1.72304,-0.6875 -3.20134,-0.6875 l -3.18664,0 z m 34.31154,0 0,11.4219 1.75486,0 0,-11.4219 -1.75486,0 z m 3.71532,0 0,11.4219 6.29987,0 0,-1.6016 -4.54502,0 0,-9.8203 -1.75485,0 z m -77.59013,1.5625 c 0.049,0.2083 0.13706,0.5364 0.26433,0.9844 0.13216,0.4478 0.23495,0.776 0.30838,0.9843 l 1.00592,3.1094 -3.1279,0 0.96921,-2.9765 c 0.25454,-0.7605 0.4479,-1.461 0.58006,-2.1016 z m 18.21309,0 1.5199,0 c 2.40345,0 3.60517,1.3672 3.60517,4.1016 0,2.7916 -1.29228,4.1874 -3.87684,4.1874 l -1.24823,0 0,-8.289 z m 23.10504,0 1.51989,0 c 0.79301,0 1.37061,0.1198 1.73284,0.3594 0.36713,0.2395 0.55069,0.6276 0.55069,1.164 0,0.5938 -0.16888,1.0156 -0.50663,1.2656 -0.33776,0.2449 -0.87376,0.3672 -1.60801,0.3672 l -1.68878,0 0,-3.1562 z m 19.59348,0 c 0.049,0.2083 0.13707,0.5364 0.26433,0.9844 0.13217,0.4478 0.23496,0.776 0.30839,0.9843 l 1.00592,3.1094 -3.1279,0 0.96921,-2.9765 c 0.25454,-0.7604 0.44789,-1.461 0.58005,-2.1016 z m -10.53098,0.016 1.16011,0 c 0.79788,0 1.39507,0.1406 1.79157,0.4219 0.39649,0.2813 0.59474,0.7448 0.59474,1.3906 0,0.6354 -0.18356,1.1146 -0.55068,1.4375 -0.36713,0.3229 -0.95943,0.4844 -1.77689,0.4844 l -1.21885,0 0,-3.7344 z m -9.0625,4.6563 1.77689,0 c 0.77831,0 1.35837,0.1433 1.74017,0.4297 0.38182,0.2864 0.57272,0.7265 0.57272,1.3203 0,0.6458 -0.18846,1.1198 -0.56537,1.4218 -0.37203,0.2969 -0.92516,0.4453 -1.65941,0.4453 l -1.865,0 0,-3.6171 z"
             inkscape:path-effect="#path-effect4868"
             inkscape:connector-curvature="0"
             id="path4836"
             d="m 266.69135,3160.2556 c -1.07864,0.2851 -1.91226,0.801 -2.49315,1.5556 -0.58089,0.7546 -0.8168,1.6469 -0.70853,2.6819 0.0864,0.8259 0.36299,1.4836 0.82778,1.9701 0.46478,0.4865 1.21201,0.834 2.23685,1.0247 0.99373,0.1818 1.65817,0.3779 1.99745,0.6076 0.33926,0.2295 0.53819,0.5701 0.59855,1.0243 0.067,0.5041 -0.0416,0.955 -0.33056,1.3533 -0.28406,0.3968 -0.7723,0.6993 -1.46781,0.8973 -0.47511,0.1353 -1.00094,0.2035 -1.57662,0.2006 -0.57073,-0 -1.11968,-0.077 -1.64529,-0.2183 0.0759,0.6358 0.1531,1.2712 0.23154,1.9061 0.84036,0.2342 1.8814,0.1832 3.10585,-0.1699 1.22445,-0.3531 2.12921,-0.9602 2.7211,-1.7878 0.5919,-0.8275 0.80193,-1.774 0.6562,-2.8455 -0.074,-0.544 -0.21861,-0.9912 -0.4367,-1.3428 -0.21799,-0.3513 -0.52509,-0.6337 -0.92343,-0.849 -0.39834,-0.2152 -1.00616,-0.3967 -1.82697,-0.5551 -0.72872,-0.1375 -1.23884,-0.2771 -1.52799,-0.4088 -0.28916,-0.132 -0.5043,-0.2961 -0.64495,-0.4915 -0.14125,-0.201 -0.22865,-0.4626 -0.26164,-0.7848 -0.048,-0.469 0.061,-0.8827 0.3267,-1.2415 0.26518,-0.3645 0.68242,-0.6208 1.24946,-0.7722 0.74791,-0.1997 1.61895,-0.1994 2.60621,-0.01 0.13773,-0.6014 0.27985,-1.2039 0.42716,-1.8075 -1.0561,-0.2309 -2.10689,-0.2117 -3.14121,0.062 0,0 0,0 0,0 z m -70.38968,-2.7203 c -1.47346,3.4119 -3.03914,6.6675 -4.99154,9.4732 0.55608,0.3167 1.11794,0.6241 1.68521,0.9225 0.52212,-0.822 1.01747,-1.673 1.49238,-2.5467 1.2647,0.5971 2.55133,1.1578 3.85691,1.684 0.19179,1.1945 0.37216,2.387 0.54695,3.5797 0.60422,0.243 1.21267,0.4778 1.82496,0.7048 -0.7305,-4.3417 -1.47892,-8.6684 -2.55156,-13.097 -0.62184,-0.2346 -1.24295,-0.4748 -1.86331,-0.7205 0,0 0,0 0,0 z m 60.89499,5.0815 c -0.84414,4.1097 -1.71955,8.1951 -2.73681,12.2775 -1.01091,-1.4155 -2.01339,-2.8347 -3.01302,-4.2527 1.38187,-0.8512 1.99463,-2.067 1.85149,-3.5995 -0.1122,-1.2014 -0.53824,-2.0402 -1.26777,-2.5247 -0.72954,-0.4845 -1.79002,-0.6151 -3.18356,-0.4252 -1.01684,0.1386 -2.0337,0.2639 -3.05056,0.3749 0.32516,4.0381 0.55713,8.1108 0.69591,12.2181 0.62233,-0.053 1.244,-0.1104 1.86486,-0.1725 -0.0695,-1.6458 -0.15352,-3.2858 -0.2521,-4.9201 0.59945,-0.066 1.19809,-0.1363 1.79584,-0.211 0.99793,1.528 1.9984,3.0588 3.00669,4.5885 0.70121,-0.097 1.40096,-0.2011 2.09906,-0.3113 0.39075,-0.062 0.78099,-0.1254 1.17068,-0.1912 0.27312,-1.214 0.53532,-2.4281 0.78899,-3.6426 1.40444,-0.2557 2.80153,-0.5366 4.19005,-0.8429 0.48613,1.0677 0.97664,2.1326 1.47489,3.1923 0.63806,-0.149 1.27404,-0.304 1.90779,-0.4651 -1.88096,-3.7741 -3.63782,-7.6422 -5.42239,-11.4953 -0.64,0.1386 -1.28002,0.2729 -1.92004,0.4028 0,0 0,0 0,0 z m -54.54455,-2.7218 c -0.34265,3.9262 -0.80127,7.8138 -1.37587,11.6629 0.52507,0.1899 1.05286,0.3741 1.58314,0.5529 0.28224,-2.0163 0.5402,-4.0393 0.7739,-6.069 0.0947,-0.8226 0.1618,-1.7425 0.19842,-2.7602 0.006,-0.1779 0.0121,-0.3558 0.0179,-0.5338 0.0192,0.01 0.0383,0.012 0.0575,0.018 1.40524,3.6707 2.7617,7.3056 4.21391,10.9277 0.73451,0.1962 1.47215,0.3836 2.21233,0.5628 0.39928,-3.9548 0.78197,-7.9085 1.14808,-11.8611 -0.5317,-0.1246 -1.06297,-0.254 -1.5938,-0.3879 -0.19764,2.0662 -0.4024,4.1326 -0.61429,6.1993 -0.0448,0.437 -0.0929,1.0506 -0.14484,1.8407 -0.0514,0.7848 -0.0792,1.2406 -0.0825,1.3673 -0.0149,-0 -0.0299,-0.01 -0.0448,-0.012 -1.45155,-3.5886 -2.81885,-7.1908 -4.25484,-10.8388 -0.69894,-0.2157 -1.39704,-0.4389 -2.09427,-0.6696 3e-5,0 5e-5,0 7e-5,0 z m 10.78539,2.9388 c -0.34534,3.9657 -0.70049,7.9302 -1.06545,11.8935 1.03861,0.2273 2.08116,0.4378 3.12716,0.6318 1.93341,0.3588 3.463,0.061 4.55738,-0.836 1.09472,-0.9022 1.68935,-2.354 1.79846,-4.3299 0.10276,-1.861 -0.30524,-3.3625 -1.20291,-4.5225 -0.89766,-1.16 -2.19502,-1.871 -3.90366,-2.1806 -1.10645,-0.2005 -2.21032,-0.4194 -3.31098,-0.6563 0,0 0,0 0,0 z m 10.19936,1.6616 c -0.19354,3.9927 -0.38946,7.9854 -0.58778,11.9782 2.14248,0.2377 4.29412,0.4116 6.4508,0.5245 0.0148,-0.5563 0.0293,-1.1125 0.0434,-1.6688 -1.52436,-0.079 -3.04603,-0.1886 -4.56352,-0.3303 0.0533,-1.2547 0.106,-2.5093 0.15816,-3.7639 1.40093,0.1302 2.80531,0.2323 4.21194,0.3065 0.0129,-0.5479 0.0255,-1.0958 0.0377,-1.6437 -1.39629,-0.073 -2.79062,-0.1737 -4.18181,-0.3028 0.0448,-1.0879 0.0892,-2.1758 0.13318,-3.2637 1.46286,0.1355 2.92814,0.2388 4.39442,0.3094 0.0102,-0.5534 0.02,-1.1068 0.0294,-1.6602 -2.0437,-0.097 -4.087,-0.2595 -6.12601,-0.4852 z m 13.04337,0.5663 c 0.10175,4.0263 0.14694,8.0558 0.13557,12.0886 1.38222,-0.018 2.76455,-0.055 4.14554,-0.1139 1.28159,-0.054 2.27568,-0.4238 2.97181,-1.0916 0.70118,-0.6739 1.0279,-1.5677 0.98323,-2.6667 -0.0331,-0.8144 -0.24976,-1.4417 -0.643,-1.8846 -0.38839,-0.4487 -0.97679,-0.7221 -1.76553,-0.8298 -0.001,-0.028 -0.002,-0.055 -0.003,-0.083 0.62456,-0.1645 1.09273,-0.4985 1.40165,-0.997 0.30893,-0.4982 0.44127,-1.1036 0.39838,-1.812 -0.0637,-1.0517 -0.45226,-1.7872 -1.15083,-2.2169 -0.69363,-0.4301 -1.781,-0.5853 -3.26804,-0.5076 -1.0685,0.056 -2.13697,0.094 -3.20539,0.1146 0,0 0,-10e-5 0,-10e-5 z m 34.50769,-5.8682 c 0.23243,4.1292 0.68444,8.162 1.35603,12.0983 0.57557,-0.2032 1.14857,-0.4122 1.71885,-0.6272 -0.70115,-3.8784 -1.13828,-7.8744 -1.31142,-11.9878 -0.58777,0.1747 -1.1756,0.347 -1.76346,0.5167 z m 3.73323,-1.111 c 0.0971,4.0892 0.51126,8.0356 1.24258,11.8391 2.02491,-0.8199 4.0129,-1.7179 5.95782,-2.6979 -0.11271,-0.4883 -0.21534,-0.9813 -0.30789,-1.4789 -1.40102,0.6693 -2.82257,1.3009 -4.26264,1.8958 -0.56088,-3.2446 -0.84988,-6.6128 -0.867,-10.1045 -0.58757,0.1843 -1.1752,0.3664 -1.76287,0.5464 z m -77.79522,1.4634 c 0.0324,0.2312 0.0934,0.5992 0.17803,1.1028 0.0894,0.5052 0.15673,0.8767 0.20698,1.1154 0.22137,1.1767 0.42237,2.3476 0.60932,3.5155 -0.99107,-0.3978 -1.97217,-0.8143 -2.9422,-1.2501 0.42247,-0.8424 0.82942,-1.7023 1.22522,-2.5756 0.30992,-0.6667 0.55015,-1.3045 0.72265,-1.908 0,0 0,0 0,0 z m 17.92668,5.2787 c 0.5082,0.1005 1.01712,0.197 1.52668,0.2897 2.41734,0.4395 3.54606,2.0247 3.36603,4.8874 -0.1838,2.9225 -1.63361,4.2155 -4.3167,3.7179 -0.43194,-0.08 -0.86328,-0.163 -1.29397,-0.2487 0.24213,-2.8816 0.48145,-5.7637 0.71796,-8.6463 0,0 0,0 0,0 z m 23.45133,1.8383 c 0.51522,-0.019 1.03031,-0.042 1.54524,-0.069 0.80602,-0.042 1.39876,0.045 1.78056,0.2738 0.38678,0.228 0.59661,0.6251 0.62515,1.1941 0.0316,0.6299 -0.12138,1.0907 -0.45865,1.3789 -0.33751,0.2829 -0.88736,0.4476 -1.64777,0.4862 -0.58298,0.03 -1.16637,0.055 -1.75014,0.076 -0.0261,-1.1141 -0.0576,-2.2273 -0.0944,-3.3395 0,0 0,0 0,0 z m 19.8299,-2.4995 c 0.073,0.2155 0.19897,0.5526 0.37784,1.0117 0.18378,0.4578 0.32439,0.7922 0.42191,1.0027 0.45493,1.0537 0.91016,2.1073 1.3681,3.1594 -1.05397,0.2281 -2.11229,0.4422 -3.17451,0.6425 0.22524,-1.1392 0.44428,-2.2789 0.65968,-3.4197 0.17208,-0.8757 0.28711,-1.675 0.34698,-2.3966 0,0 0,0 0,0 z m -10.62954,1.7774 c 0.3917,-0.048 0.78327,-0.097 1.17471,-0.1488 0.80766,-0.1064 1.42504,-0.043 1.85389,0.1994 0.42883,0.2428 0.67578,0.7097 0.73664,1.4039 0.0599,0.683 -0.0839,1.2269 -0.43168,1.6271 -0.34776,0.4002 -0.94265,0.6573 -1.78337,0.7615 -0.41784,0.052 -0.83607,0.1014 -1.25465,0.1489 -0.0888,-1.3345 -0.18728,-2.6652 -0.29554,-3.992 z m -9.072,5.6678 c 0.61929,-0.021 1.23814,-0.047 1.85648,-0.078 0.81253,-0.04 1.42208,0.075 1.83149,0.3543 0.40944,0.2796 0.62682,0.7349 0.64746,1.3688 0.0225,0.6894 -0.1619,1.2094 -0.55288,1.5552 -0.38594,0.34 -0.97,0.5305 -1.74969,0.5647 -0.66014,0.029 -1.32072,0.053 -1.98161,0.072 -0.0101,-1.2804 -0.0272,-2.5595 -0.0513,-3.8374 z"
             style="font-size:medium;font-style:normal;font-variant:normal;font-weight:600;font-stretch:normal;line-height:124.00000095%;letter-spacing:-0.92000002px;word-spacing:0px;fill:#7d682c;fill-opacity:1;stroke:none;font-family:Open Sans;-inkscape-font-specification:Open Sans Semi-Bold" />
        </g>
      </g>
      <path
         inkscape:connector-curvature="0"
         style="color:#000000;fill:#4d67af;fill-opacity:1;fill-rule:nonzero;stroke:none;stroke-width:10;marker:none;visibility:visible;display:inline;overflow:visible;enable-background:accumulate"
         d="m 2971.5476,3417.3807 c -0.3248,1.0827 -0.9865,1.6244 -1.9849,1.6244 -0.3369,0 -0.9737,-0.1751 -1.9119,-0.5246 l -1.1226,-0.4154 c -1.0225,-0.3858 -1.9628,-0.575 -2.829,-0.575 -1.6601,0 -3.153,1.1661 -4.4762,3.4999 l 2.8518,1.8936 c 0.5775,-1.203 1.3092,-1.8024 2.1994,-1.8024 0.421,0 1.0577,0.1705 1.9119,0.5203 l 1.3369,0.5247 c 0.9865,0.3969 1.9065,0.5978 2.7606,0.5978 0.6136,0 1.3248,-0.2443 2.1309,-0.7256 0.806,-0.481 1.4863,-1.3265 2.0397,-2.5417 l -2.9066,-2.076 z m -133.4851,5.8086 c -1.8045,0 -3.3426,0.2958 -4.6178,0.8852 -1.2752,0.5776 -2.2012,1.3838 -2.7788,2.4186 -0.5653,1.0344 -0.8487,2.6719 -0.8487,4.9095 0,1.552 0.1963,2.8253 0.5932,3.8237 0.4091,0.9986 0.9196,1.7801 1.5332,2.3455 0.6136,0.5656 1.8666,1.473 3.7553,2.7242 1.8887,1.2389 3.0734,2.1262 3.5546,2.6556 0.4691,0.5292 0.7027,1.6517 0.7027,3.3719 0,0.782 -0.1262,1.3734 -0.3788,1.7703 -0.2406,0.3973 -0.6126,0.5935 -1.1179,0.5935 -0.5053,0 -0.8588,-0.1519 -1.0632,-0.4656 -0.1925,-0.3126 -0.292,-1.018 -0.292,-2.1126 l 0,-3.5545 -7.0543,0 0,1.9118 c 0,2.1895 0.221,3.8784 0.6662,5.0694 0.445,1.1911 1.3838,2.1732 2.8153,2.9433 1.4436,0.77 3.1824,1.1543 5.2155,1.1543 1.8525,0 3.4777,-0.3329 4.8732,-0.9946 1.3955,-0.6738 2.3341,-1.5004 2.8154,-2.4869 0.4932,-0.9864 0.7392,-2.5229 0.7392,-4.604 0,-2.8631 -0.4406,-4.9367 -1.3188,-6.224 -0.8781,-1.2871 -3.0076,-2.9372 -6.3881,-4.946 -1.1789,-0.698 -1.8919,-1.291 -2.1445,-1.7842 -0.2648,-0.4932 -0.3971,-1.2296 -0.3971,-2.204 0,-0.7579 0.1134,-1.32 0.3423,-1.6929 0.2406,-0.3719 0.5877,-0.5612 1.0449,-0.5612 0.4211,0 0.7231,0.1379 0.9035,0.4151 0.1802,0.2768 0.2691,0.9196 0.2691,1.9303 l 0,2.1673 7.0589,0 0,-1.1543 c 0,-2.3219 -0.2316,-3.9655 -0.689,-4.928 -0.445,-0.9745 -1.365,-1.7808 -2.7606,-2.4186 -1.3834,-0.6375 -3.0599,-0.9581 -5.0329,-0.9581 z m 19.1052,0 c -1.8046,0 -3.3425,0.2958 -4.6177,0.8852 -1.2752,0.5776 -2.2015,1.3838 -2.7788,2.4186 -0.5656,1.0344 -0.8487,2.6719 -0.8487,4.9095 0,1.552 0.1961,2.8253 0.5931,3.8237 0.409,0.9986 0.9242,1.7801 1.5378,2.3455 0.6134,0.5656 1.8619,1.473 3.7507,2.7242 1.8887,1.2389 3.0732,2.1262 3.5545,2.6556 0.4691,0.5292 0.7027,1.6517 0.7027,3.3719 0,0.782 -0.1261,1.3734 -0.3788,1.7703 -0.2406,0.3973 -0.6126,0.5935 -1.1178,0.5935 -0.5052,0 -0.8587,-0.1519 -1.0633,-0.4656 -0.1924,-0.3126 -0.2874,-1.018 -0.2874,-2.1126 l 0,-3.5545 -7.0589,0 0,1.9118 c 0,2.1895 0.2257,3.8784 0.6707,5.0694 0.4452,1.1911 1.3838,2.1732 2.8154,2.9433 1.4437,0.77 3.1777,1.1543 5.2109,1.1543 1.8527,0 3.4777,-0.3329 4.8732,-0.9946 1.3956,-0.6738 2.3342,-1.5004 2.8154,-2.4869 0.4933,-0.9864 0.7392,-2.5229 0.7392,-4.604 0,-2.8631 -0.4359,-4.9367 -1.3142,-6.224 -0.8782,-1.2871 -3.0076,-2.9372 -6.3881,-4.946 -1.1789,-0.698 -1.8965,-1.291 -2.1492,-1.7842 -0.2647,-0.4932 -0.3969,-1.2296 -0.3969,-2.204 -1e-4,-0.7579 0.1135,-1.32 0.3422,-1.6929 0.2406,-0.3719 0.5924,-0.5612 1.0496,-0.5612 0.4209,0 0.7185,0.1379 0.8988,0.4151 0.1806,0.2768 0.2737,0.9196 0.2737,1.9303 l 0,2.1673 7.0544,0 0,-1.1543 c 0,-2.3219 -0.2273,-3.9655 -0.6845,-4.928 -0.445,-0.9745 -1.365,-1.7808 -2.7606,-2.4186 -1.3834,-0.6375 -3.0645,-0.9581 -5.0374,-0.9581 z m 20.0634,0 c -1.6482,0 -3.0912,0.2708 -4.3303,0.8122 -1.2392,0.5414 -2.2275,1.3211 -2.9614,2.3317 -0.7218,1.0105 -1.1515,2.1266 -1.2959,3.3537 -0.1323,1.2151 -0.2007,3.2887 -0.2007,6.2239 l 0,5.0011 c 0,3.0077 0.075,5.1121 0.2189,6.3152 0.1444,1.203 0.5928,2.3174 1.3507,3.3399 0.7579,1.0227 1.7587,1.7917 2.9979,2.309 1.2511,0.5054 2.6568,0.7574 4.2208,0.7574 1.6481,0 3.0911,-0.2708 4.3302,-0.8122 1.239,-0.5412 2.2212,-1.3166 2.9431,-2.327 0.7337,-1.0108 1.1682,-2.1251 1.3005,-3.3402 0.1443,-1.2269 0.2143,-3.3066 0.2143,-6.2421 l 0,-5.0011 c 0,-3.0073 -0.07,-5.112 -0.2143,-6.3151 -0.1445,-1.2031 -0.5973,-2.313 -1.3553,-3.3357 -0.7579,-1.0225 -1.7604,-1.7897 -3.0115,-2.2949 -1.2392,-0.5173 -2.6432,-0.7758 -4.207,-0.7758 z m 20.2504,0 c -1.6481,0 -3.1099,0.2835 -4.385,0.8488 -1.2633,0.5533 -2.2533,1.3206 -2.9751,2.2951 -0.7097,0.9746 -1.1377,1.9893 -1.2822,3.0481 -0.1442,1.0467 -0.2189,2.622 -0.2189,4.7271 l 0,8.5373 c 0,2.8633 0.2381,5.0069 0.7072,6.4385 0.4693,1.4195 1.4221,2.5341 2.8655,3.3401 1.4438,0.806 3.282,1.2091 5.5076,1.2091 2.1414,0 3.9378,-0.4732 5.3935,-1.4235 1.4676,-0.9504 2.4125,-2.0588 2.8336,-3.3219 0.4329,-1.2632 0.648,-3.4051 0.648,-6.4246 l 0,-1.1361 -7.5975,0 0,3.6639 c 0,1.6 -0.089,2.6148 -0.2691,3.048 -0.1685,0.4332 -0.5343,0.6481 -1.0998,0.6481 -0.5895,0 -0.9677,-0.2149 -1.1361,-0.6481 -0.1685,-0.4332 -0.2556,-1.3591 -0.2556,-2.7787 l 0,-13.5703 c 0,-1.4797 0.087,-2.4432 0.2556,-2.8885 0.1684,-0.444 0.5653,-0.6661 1.1909,-0.6661 0.5534,0 0.9068,0.1893 1.0633,0.5612 0.1684,0.361 0.2508,1.281 0.2508,2.7608 l 0,5.0876 7.5975,0 0,-2.779 c 0,-2.7308 -0.2274,-4.7405 -0.6845,-6.0275 -0.4572,-1.2994 -1.4145,-2.3828 -2.8702,-3.249 -1.4556,-0.866 -3.3018,-1.3004 -5.5394,-1.3004 z m 49.8914,0 c -1.6481,0 -3.1097,0.2835 -4.3849,0.8488 -1.2633,0.5533 -2.2533,1.3206 -2.9752,2.2951 -0.7097,0.9746 -1.1377,1.9893 -1.2821,3.0481 -0.1442,1.0467 -0.2189,2.622 -0.2189,4.7271 l 0,8.5373 c 0,2.5265 0.1635,4.4614 0.4882,5.8087 0.3369,1.3354 1.0792,2.4704 2.2221,3.4085 1.155,0.9264 2.7614,1.4878 4.8186,1.6794 l 0,1.8067 0.4654,0 c 0.5053,0 0.8819,0.096 1.1224,0.2877 0.2526,0.2055 0.3788,0.5065 0.3788,0.9034 0,0.3609 -0.094,0.6322 -0.2737,0.8121 -0.1684,0.1799 -0.433,0.2694 -0.7941,0.2694 -0.433,0 -0.7304,-0.2523 -0.8988,-0.7574 l -2.6739,0 c 0.5172,1.9008 1.7143,2.8518 3.591,2.8518 1.0347,0 1.9281,-0.3395 2.6739,-1.013 0.7459,-0.6619 1.1179,-1.4495 1.1179,-2.3639 0,-0.7337 -0.2709,-1.3143 -0.8121,-1.7474 -0.5414,-0.4217 -1.1391,-0.6343 -1.7888,-0.6343 l 0,-0.3423 c 2.2137,-0.1332 3.9834,-0.7114 5.3068,-1.7339 1.3354,-1.0345 2.1728,-2.1569 2.5096,-3.372 0.3368,-1.2272 0.502,-3.2428 0.502,-6.0458 l 0,-1.1361 -7.5974,0 0,3.6639 c 0,1.6 -0.089,2.6148 -0.2692,3.048 -0.1684,0.4332 -0.5342,0.6481 -1.0997,0.6481 -0.5895,0 -0.9678,-0.2149 -1.1361,-0.6481 -0.1684,-0.4332 -0.2556,-1.3591 -0.2556,-2.7787 l 0,-13.5703 c 0,-1.4797 0.087,-2.4432 0.2556,-2.8885 0.1684,-0.444 0.5653,-0.6661 1.1908,-0.6661 0.5535,0 0.907,0.1893 1.0633,0.5612 0.1684,0.361 0.2509,1.281 0.2509,2.7608 l 0,5.0876 7.5974,0 0,-2.779 c 0,-2.7308 -0.2273,-4.7405 -0.6845,-6.0275 -0.4571,-1.2994 -1.4144,-2.3828 -2.8701,-3.249 -1.4557,-0.866 -3.3018,-1.3004 -5.5394,-1.3004 z m 39.1777,0 c -1.6481,0 -3.0912,0.2708 -4.3303,0.8122 -1.2392,0.5414 -2.2275,1.3211 -2.9614,2.3317 -0.7218,1.0105 -1.156,2.1266 -1.3003,3.3537 -0.1323,1.2151 -0.1963,3.2887 -0.1963,6.2239 l 0,5.0011 c 0,3.0077 0.07,5.1121 0.2144,6.3152 0.1445,1.203 0.5973,2.3174 1.3552,3.3399 0.7579,1.0227 1.7542,1.7917 2.9934,2.309 1.2511,0.5054 2.6612,0.7574 4.2253,0.7574 1.6481,0 3.091,-0.2708 4.3302,-0.8122 1.2391,-0.5412 2.2214,-1.3166 2.9431,-2.327 0.7338,-1.0108 1.1636,-2.1251 1.2959,-3.3402 0.1441,-1.2269 0.2188,-3.3066 0.2188,-6.2421 l 0,-5.0011 c 0,-3.0073 -0.075,-5.112 -0.2188,-6.3151 -0.1443,-1.2031 -0.5927,-2.313 -1.3506,-3.3357 -0.7579,-1.0225 -1.7651,-1.7897 -3.0161,-2.2949 -1.2392,-0.5173 -2.6386,-0.7758 -4.2025,-0.7758 z m 65.5195,0 c -1.648,0 -3.1098,0.2835 -4.3849,0.8488 -1.2632,0.5533 -2.2533,1.3206 -2.9751,2.2951 -0.7098,0.9746 -1.1378,1.9893 -1.2822,3.0481 -0.1443,1.0467 -0.2144,2.622 -0.2144,4.7271 l 0,8.5373 c 0,2.8633 0.2336,5.0069 0.7027,6.4385 0.4692,1.4195 1.4264,2.5341 2.8701,3.3401 1.4436,0.806 3.2773,1.2091 5.503,1.2091 2.1413,0 3.9378,-0.4732 5.3933,-1.4235 1.4678,-0.9504 2.4125,-2.0588 2.8336,-3.3219 0.4332,-1.2632 0.6525,-3.4051 0.6525,-6.4246 l 0,-1.1361 -7.5973,0 0,3.6639 c 0,1.6 -0.094,2.6148 -0.2738,3.048 -0.1685,0.4332 -0.5343,0.6481 -1.0996,0.6481 -0.5896,0 -0.9677,-0.2149 -1.1363,-0.6481 -0.1684,-0.4332 -0.2508,-1.3591 -0.2508,-2.7787 l 0,-13.5703 c 0,-1.4797 0.082,-2.4432 0.2508,-2.8885 0.1686,-0.444 0.5655,-0.6661 1.1911,-0.6661 0.5532,0 0.9067,0.1893 1.0631,0.5612 0.1684,0.361 0.2555,1.281 0.2555,2.7608 l 0,5.0876 7.5973,0 0,-2.779 c 0,-2.7308 -0.2318,-4.7405 -0.689,-6.0275 -0.4571,-1.2994 -1.4099,-2.3828 -2.8655,-3.249 -1.4557,-0.866 -3.3063,-1.3004 -5.5441,-1.3004 z m 31.0465,0 c -1.6481,0 -3.0912,0.2708 -4.3303,0.8122 -1.239,0.5414 -2.2275,1.3211 -2.9614,2.3317 -0.7217,1.0105 -1.1514,2.1266 -1.2958,3.3537 -0.1321,1.2151 -0.2006,3.2887 -0.2006,6.2239 l 0,5.0011 c 0,3.0077 0.075,5.1121 0.2191,6.3152 0.1443,1.203 0.5927,2.3174 1.3505,3.3399 0.7579,1.0227 1.7587,1.7917 2.9979,2.309 1.2511,0.5054 2.6569,0.7574 4.2208,0.7574 1.6481,0 3.0912,-0.2708 4.3302,-0.8122 1.2392,-0.5412 2.2213,-1.3166 2.9431,-2.327 0.7339,-1.0108 1.1683,-2.1251 1.3005,-3.3402 0.1443,-1.2269 0.2145,-3.3066 0.2145,-6.2421 l 0,-5.0011 c 0,-3.0073 -0.07,-5.112 -0.2145,-6.3151 -0.1444,-1.2031 -0.5973,-2.313 -1.3553,-3.3357 -0.758,-1.0225 -1.7605,-1.7897 -3.0116,-2.2949 -1.2391,-0.5173 -2.6432,-0.7758 -4.2071,-0.7758 z m -269.3154,0.6162 -3.8602,29.2164 7.8665,0 0.4518,-5.2518 2.7241,0 0.3787,5.2518 7.7798,0 -4.3485,-29.2164 -10.9922,0 z m 95.5121,0 0,29.2164 7.5973,0 0,-29.2164 -7.5973,0 z m 12.7717,0 -3.8603,29.2164 7.8666,0 0.4517,-5.2518 2.7241,0 0.3788,5.2518 7.7798,0 -4.3485,-29.2164 -10.9922,0 z m 39.2506,0 -3.8648,29.2164 7.8665,0 0.4517,-5.2518 2.7241,0 0.3834,5.2518 7.7752,0 -4.3484,-29.2164 -10.9877,0 z m 43.3254,0 0,29.2164 6.3516,0 0,-13.2826 3.9515,13.2826 6.6574,0 0,-29.2164 -6.3516,0 0,13.1548 -4.2573,-13.1548 -6.3516,0 z m 22.1212,0 -3.8602,29.2164 7.8665,0 0.4518,-5.2518 2.724,0 0.3787,5.2518 7.7799,0 -4.3485,-29.2164 -10.9922,0 z m 37.1197,0 0,29.2164 7.5974,0 0,-29.2164 -7.5974,0 z m 30.8229,0 0,29.2164 6.3516,0 0,-13.2826 3.9516,13.2826 6.6573,0 0,-29.2164 -6.3516,0 0,13.1548 -4.2573,-13.1548 -6.3516,0 z m 22.1212,0 -3.8602,29.2164 7.8666,0 0.4517,-5.2518 2.7241,0 0.3788,5.2518 7.7797,0 -4.3485,-29.2164 -10.9922,0 z m 16.6458,0 0,29.2164 12.215,0 0,-5.8497 -4.6178,0 0,-23.3667 -7.5972,0 z m -256.2242,4.3301 c 0.4691,0 0.7772,0.1939 0.9216,0.5794 0.1563,0.3732 0.2327,1.2371 0.2327,2.5965 l 0,13.4241 c 0,1.7204 -0.07,2.81 -0.2145,3.2672 -0.1443,0.4579 -0.4773,0.6845 -0.9946,0.6845 -0.5053,0 -0.8275,-0.1962 -0.972,-0.5935 -0.1322,-0.3969 -0.2006,-1.4428 -0.2006,-3.1391 l 0,-13.6432 c 0,-1.5038 0.1018,-2.4053 0.3057,-2.7058 0.2166,-0.3136 0.5247,-0.4701 0.9217,-0.4701 z m 109.3194,0 c 0.4693,0 0.7729,0.1939 0.9172,0.5794 0.1565,0.3732 0.2374,1.2371 0.2374,2.5965 l 0,13.4241 c 0,1.7204 -0.075,2.81 -0.219,3.2672 -0.1444,0.4579 -0.4728,0.6845 -0.9901,0.6845 -0.5053,0 -0.8321,-0.1962 -0.9765,-0.5935 -0.1325,-0.3969 -0.1963,-1.4428 -0.1963,-3.1391 l 0,-13.6432 c 0,-1.5038 0.1018,-2.4053 0.3057,-2.7058 0.2166,-0.3136 0.5247,-0.4701 0.9218,-0.4701 z m 96.5662,0 c 0.4691,0 0.7773,0.1939 0.9217,0.5794 0.1562,0.3732 0.2326,1.2371 0.2326,2.5965 l 0,13.4241 c 0,1.7204 -0.07,2.81 -0.2145,3.2672 -0.1444,0.4579 -0.4775,0.6845 -0.9947,0.6845 -0.5054,0 -0.8277,-0.1962 -0.972,-0.5935 -0.1322,-0.3969 -0.2005,-1.4428 -0.2005,-3.1391 l 0,-13.6432 c 0,-1.5038 0.1018,-2.4053 0.3057,-2.7058 0.2166,-0.3136 0.5248,-0.4701 0.9217,-0.4701 z m -263.5387,2.1994 c 0.3849,4.8601 0.7695,8.9478 1.1544,12.2561 l -2.6008,0 c 0.1924,-2.5864 0.6764,-6.6742 1.4464,-12.2561 z m 108.2836,0 c 0.385,4.8601 0.7696,8.9478 1.1546,12.2561 l -2.601,0 c 0.1925,-2.5864 0.6765,-6.6742 1.4464,-12.2561 z m 39.2461,0 c 0.385,4.8601 0.7696,8.9478 1.1546,12.2561 l -2.5965,0 c 0.1926,-2.5864 0.672,-6.6742 1.4419,-12.2561 z m 65.4513,0 c 0.385,4.8601 0.7693,8.9478 1.1543,12.2561 l -2.6008,0 c 0.1925,-2.5864 0.6766,-6.6742 1.4465,-12.2561 z m 90.0637,0 c 0.385,4.8601 0.7696,8.9478 1.1546,12.2561 l -2.601,0 c 0.1925,-2.5864 0.6765,-6.6742 1.4464,-12.2561 z m -195.8059,29.8144 c -1.4076,0 -2.6871,0.2336 -3.842,0.7027 -1.1549,0.4691 -2.0998,1.1682 -2.8337,2.0944 -0.7338,0.9142 -1.224,1.8919 -1.4646,2.9385 -0.2285,1.0344 -0.3423,2.5461 -0.3423,4.531 l 0,9.0394 c 0,2.6223 0.2007,4.5946 0.5977,5.9181 0.3971,1.3113 1.2158,2.3946 2.4549,3.2487 1.2391,0.8543 2.7195,1.3062 4.4398,1.3554 0,1.0946 0.095,1.8512 0.2875,2.2722 0.2044,0.4212 0.589,0.7345 1.1544,0.9401 0.5655,0.2172 1.5414,0.324 2.925,0.324 l 5.7356,0 0,-3.5363 -2.6329,0 c -0.8782,0 -1.4386,-0.082 -1.6791,-0.251 -0.2286,-0.1681 -0.3612,-0.578 -0.397,-1.2274 1.1909,-0.2888 2.142,-0.7045 2.8518,-1.2457 0.7217,-0.5535 1.2074,-1.296 1.4601,-2.2223 0.2526,-0.9262 0.3789,-2.6855 0.3789,-5.2839 l 0,-9.4955 c 0,-1.8886 -0.1019,-3.3068 -0.3059,-4.2571 -0.1924,-0.9626 -0.6205,-1.8887 -1.2822,-2.779 -0.6496,-0.8904 -1.6397,-1.6218 -2.9751,-2.1993 -1.3232,-0.5776 -2.8347,-0.867 -4.5309,-0.867 z m 40.7017,0 c -1.6481,0 -3.0912,0.2707 -4.3303,0.8124 -1.2391,0.5412 -2.2275,1.3163 -2.9614,2.327 -0.7218,1.0105 -1.156,2.1267 -1.3004,3.3537 -0.1325,1.215 -0.1963,3.2931 -0.1963,6.2284 l 0,4.9965 c 0,3.0074 0.07,5.1121 0.2145,6.3151 0.1443,1.2029 0.5973,2.3175 1.3552,3.3401 0.7579,1.0225 1.7542,1.7917 2.9933,2.3088 1.2511,0.5054 2.6614,0.7575 4.2253,0.7575 1.6482,0 3.0912,-0.2708 4.3303,-0.8123 1.239,-0.5413 2.2212,-1.316 2.9431,-2.327 0.7338,-1.0105 1.1636,-2.1205 1.2959,-3.3356 0.1441,-1.2269 0.2189,-3.3114 0.2189,-6.2466 l 0,-4.9965 c 0,-3.0075 -0.075,-5.1122 -0.2189,-6.3151 -0.1444,-1.2029 -0.5927,-2.3176 -1.3506,-3.3401 -0.758,-1.0227 -1.765,-1.7853 -3.0161,-2.2907 -1.2392,-0.5173 -2.6386,-0.7756 -4.2026,-0.7756 z m -106.5818,0.6113 0,29.2169 9.5821,0 c 1.8167,0 3.1771,-0.096 4.0794,-0.2877 0.9022,-0.2055 1.6588,-0.5562 2.2723,-1.0494 0.6136,-0.5054 1.0416,-1.198 1.2822,-2.0763 0.2525,-0.89 0.3788,-2.6429 0.3788,-5.2656 l 0,-10.2345 c 0,-2.7671 -0.083,-4.6196 -0.2509,-5.5577 -0.1684,-0.9504 -0.5903,-1.8083 -1.264,-2.5782 -0.6737,-0.7699 -1.6621,-1.324 -2.9614,-1.661 -1.2872,-0.3359 -3.7639,-0.5065 -7.433,-0.5065 l -5.6855,0 z m 20.4375,0 0,29.2169 13.1733,0 0,-5.8454 -5.576,0 0,-6.4246 4.7455,0 0,-5.5577 -4.7455,0 0,-5.5395 5.0695,0 0,-5.8497 -12.6668,0 z m 21.8429,0 0,29.2169 13.1733,0 0,-5.8454 -5.576,0 0,-6.4246 4.7456,0 0,-5.5577 -4.7456,0 0,-5.5395 5.0695,0 0,-5.8497 -12.6668,0 z m 35.4041,0 0,17.2891 c 0,3.2962 0.062,5.4632 0.1824,6.4979 0.1204,1.0226 0.5111,1.9939 1.1727,2.9202 0.6616,0.9264 1.6579,1.6813 2.9933,2.2587 1.3353,0.5774 2.878,0.8623 4.6223,0.8623 1.576,0 2.9381,-0.2397 4.0931,-0.721 1.1668,-0.4932 2.1055,-1.2061 2.8152,-2.1446 0.7098,-0.9504 1.1378,-1.8702 1.2822,-2.7605 0.1442,-0.9023 0.219,-2.4636 0.219,-4.6772 l 0,-19.5249 -7.5974,0 0,21.5283 c 0,1.4554 -0.075,2.3818 -0.2189,2.7787 -0.1323,0.3857 -0.4359,0.5796 -0.9172,0.5796 -0.421,0 -0.7043,-0.1752 -0.8487,-0.5247 -0.1321,-0.3609 -0.2007,-1.1798 -0.2007,-2.455 l 0,-21.9069 -7.5973,0 z m 39.205,0 0,5.8497 4.4899,0 0,23.3672 7.5974,0 0,-23.3672 4.5127,0 0,-5.8497 -16.6,0 z m 18.334,0 0,29.2169 13.1732,0 0,-5.8454 -5.576,0 0,-6.4246 4.7456,0 0,-5.5577 -4.7456,0 0,-5.5395 5.0696,0 0,-5.8497 -12.6668,0 z m 15.3772,0 0,29.2169 7.5927,0 0,-13.1735 c 1.0467,0 1.6941,0.1894 1.9347,0.5612 0.2526,0.3731 0.3788,1.3382 0.3788,2.9022 l 0,9.7101 7.0544,0 0,-7.7069 c 0,-2.3579 -0.068,-3.7951 -0.2008,-4.312 -0.1202,-0.5296 -0.4362,-1.1085 -0.9536,-1.734 -0.5173,-0.6255 -1.5306,-1.1237 -3.0344,-1.4967 1.6602,-0.1565 2.7747,-0.6234 3.3401,-1.4053 0.5654,-0.7819 0.8488,-2.3122 0.8488,-4.5858 0,-2.4902 -0.4033,-4.2991 -1.2093,-5.4298 -0.794,-1.1429 -1.8275,-1.8543 -3.1029,-2.131 -1.2631,-0.2776 -3.6884,-0.4154 -7.2733,-0.4154 l -5.3752,0 z m 22.0117,0 -3.8647,29.2169 7.871,0 0.4472,-5.2521 2.7286,0 0.3788,5.2521 7.7752,0 -4.3484,-29.2169 -10.9877,0 z m 16.6412,0 0,29.2169 7.5973,0 0,-11.7679 2.0396,0 c 1.6602,0 3.0021,-0.2267 4.0246,-0.6846 1.0345,-0.4572 1.7459,-1.1125 2.1309,-1.9667 0.3849,-0.854 0.5749,-2.2144 0.5749,-4.0791 l 0,-2.5417 c 0,-1.8286 -0.1018,-3.1766 -0.3057,-4.0427 -0.1925,-0.8784 -0.5708,-1.6269 -1.1362,-2.2404 -0.5535,-0.6135 -1.3909,-1.0807 -2.5096,-1.4055 -1.1068,-0.3247 -2.6946,-0.4883 -4.7637,-0.4883 l -7.6521,0 z m 18.553,0 0,29.2169 7.5973,0 0,-29.2169 -7.5973,0 z m 12.7717,0 -3.8603,29.2169 7.8666,0 0.4517,-5.2521 2.7241,0 0.3787,5.2521 7.7799,0 -4.3485,-29.2169 -10.9922,0 z m -154.356,4.3303 c 0.4692,0 0.7774,0.1939 0.9217,0.5796 0.1562,0.3728 0.2327,1.2368 0.2327,2.5963 l 0,13.4289 c 0,1.7202 -0.07,2.8098 -0.2145,3.267 -0.1443,0.4579 -0.4775,0.6845 -0.9947,0.6845 -0.5053,0 -0.8275,-0.2009 -0.9719,-0.5978 -0.1322,-0.3969 -0.2006,-1.4431 -0.2006,-3.1392 l 0,-13.6434 c 0,-1.504 0.1017,-2.4053 0.3056,-2.7059 0.2167,-0.3135 0.5248,-0.47 0.9218,-0.47 z m 40.396,0 c 0.4691,0 0.7727,0.1939 0.9171,0.5796 0.1565,0.3728 0.2373,1.2368 0.2373,2.5963 l 0,13.4289 c 0,1.7202 -0.075,2.8098 -0.2189,3.267 -0.1444,0.4579 -0.4729,0.6845 -0.9901,0.6845 -0.5053,0 -0.8322,-0.2009 -0.9766,-0.5978 -0.1325,-0.3969 -0.1962,-1.4431 -0.1962,-3.1392 l 0,-13.6434 c 0,-1.504 0.1018,-2.4053 0.3057,-2.7059 0.2166,-0.3135 0.5247,-0.47 0.9217,-0.47 z m -99.021,0.6707 c 0.83,0 1.3967,0.089 1.6975,0.2694 0.3007,0.1681 0.4908,0.4392 0.5749,0.812 0.085,0.3732 0.1277,1.2231 0.1277,2.5463 l 0,11.348 c 0,1.949 -0.1261,3.146 -0.3786,3.5911 -0.2527,0.4332 -0.9268,0.6481 -2.0214,0.6481 l 0,-19.2149 z m 150.5961,0 c 0.8783,0 1.4821,0.1449 1.807,0.4336 0.3369,0.2888 0.5065,0.8943 0.5065,1.8206 l 0,1.6062 c 0,1.2874 -0.1757,2.05 -0.5247,2.2907 -0.3368,0.2266 -0.9347,0.342 -1.7888,0.342 l 0,-6.4931 z m 38.6575,0 c 0.9864,0 1.6356,0.1519 1.9483,0.4518 0.3128,0.3007 0.4701,0.9496 0.4701,1.9482 l 0,2.4003 c 0,1.0829 -0.1385,1.7958 -0.4152,2.1446 -0.2647,0.336 -0.7442,0.5065 -1.442,0.5065 -0.1563,0 -0.3446,4e-4 -0.5612,-0.024 l 0,-7.4285 z m -18.4299,1.5286 c 0.385,4.8601 0.7695,8.9434 1.1545,12.2516 l -2.5964,0 c 0.1926,-2.5867 0.6719,-6.6697 1.4419,-12.2516 z m 47.9706,0 c 0.385,4.8601 0.7693,8.9434 1.1544,12.2516 l -2.6009,0 c 0.1926,-2.5867 0.6765,-6.6697 1.4465,-12.2516 z"
         id="path5018" />
    </g>
  </g>
</svg>
