<?xml version="1.0" encoding="UTF-8" standalone="no"?>
<!-- Created with Inkscape (http://www.inkscape.org/) -->

<svg
   xmlns:dc="http://purl.org/dc/elements/1.1/"
   xmlns:cc="http://creativecommons.org/ns#"
   xmlns:rdf="http://www.w3.org/1999/02/22-rdf-syntax-ns#"
   xmlns:svg="http://www.w3.org/2000/svg"
   xmlns="http://www.w3.org/2000/svg"
   xmlns:sodipodi="http://sodipodi.sourceforge.net/DTD/sodipodi-0.dtd"
   xmlns:inkscape="http://www.inkscape.org/namespaces/inkscape"
   inkscape:export-ydpi="90"
   inkscape:export-xdpi="90"
   inkscape:export-filename="orcamento-preview.png"
   sodipodi:docname="top-logo.svg"
   inkscape:version="0.48.4 r9939"
   version="1.1"
   id="svg2"
   height="262.1875"
   width="176.875">
  <sodipodi:namedview
     id="base"
     pagecolor="#ffffff"
     bordercolor="#cfcfcf"
     borderopacity="1"
     inkscape:pageopacity="0"
     inkscape:pageshadow="2"
     inkscape:zoom="2.828427"
     inkscape:cx="170.21481"
     inkscape:cy="118.62509"
     inkscape:document-units="px"
     inkscape:current-layer="g3519"
     showgrid="true"
     inkscape:window-width="1920"
     inkscape:window-height="1013"
     inkscape:window-x="-5"
     inkscape:window-y="30"
     inkscape:window-maximized="1"
     inkscape:snap-bbox="true"
     inkscape:bbox-paths="true"
     inkscape:bbox-nodes="true"
     inkscape:snap-bbox-edge-midpoints="true"
     inkscape:snap-bbox-midpoints="true"
     inkscape:snap-nodes="true"
     inkscape:object-paths="true"
     inkscape:snap-intersection-paths="true"
     inkscape:object-nodes="true"
     inkscape:snap-smooth-nodes="true"
     inkscape:snap-midpoints="true"
     inkscape:snap-object-midpoints="true"
     inkscape:snap-center="true"
     inkscape:showpageshadow="false"
     inkscape:snap-global="false"
     showborder="false"
     showguides="true"
     inkscape:guide-bbox="true"
     fit-margin-top="0"
     fit-margin-left="0"
     fit-margin-right="0"
     fit-margin-bottom="0"
     inkscape:snap-page="true">
    <inkscape:grid
       originy="2491.0595px"
       originx="-405.06248px"
       snapvisiblegridlinesonly="true"
       enabled="true"
       visible="true"
       empspacing="5"
       id="grid3754"
       type="xygrid" />
  </sodipodi:namedview>
  <defs
     id="defs4" />
  <metadata
     id="metadata7">
    <rdf:RDF>
      <cc:Work
         rdf:about="">
        <dc:format>image/svg+xml</dc:format>
        <dc:type
           rdf:resource="http://purl.org/dc/dcmitype/StillImage" />
        <dc:title />
      </cc:Work>
    </rdf:RDF>
  </metadata>
  <g
     transform="translate(-405.06248,-3281.2344)"
     id="layer1"
     inkscape:groupmode="layer"
     inkscape:label="Camada 1">
    <g
       id="g3519"
       transform="matrix(0.45140775,0,0,0.45140775,-850.71031,1942.6062)"
       style="fill:#000000;display:inline"
       inkscape:export-filename="images/logo.png"
       inkscape:export-xdpi="150"
       inkscape:export-ydpi="150">
      <path
         style="fill:#ffe209;fill-opacity:1;fill-rule:evenodd;stroke:none;stroke-width:1.93198895;marker:none;display:inline"
         d="M 4.5 81.5 L 4.5 174.40625 C 4.5 201.71282 17.750681 225.96797 38.21875 241.15625 C 39.296017 241.95563 40.383619 242.72039 41.5 243.46875 C 43.732763 244.96548 46.05883 246.34283 48.4375 247.625 C 49.626835 248.26609 50.839325 248.88392 52.0625 249.46875 C 63.07107 254.73224 75.400088 257.6875 88.4375 257.6875 C 134.79337 257.6875 172.375 220.39626 172.375 174.40625 L 172.375 81.5 L 172.125 81.5 L 9 81.5 L 4.75 81.5 L 4.5 81.5 z M 88.3125 87.40625 L 88.34375 87.40625 C 88.349167 87.40616 88.369583 87.40616 88.375 87.40625 C 88.394681 87.397222 88.417187 87.40625 88.4375 87.40625 L 88.46875 87.40625 C 88.505449 87.408056 88.527742 87.393611 88.5625 87.40625 C 88.575591 87.410764 88.612361 87.428472 88.625 87.4375 C 88.63448 87.442917 88.647222 87.459722 88.65625 87.46875 C 88.665278 87.474167 88.679375 87.459722 88.6875 87.46875 C 88.74618 87.514387 88.78857 87.58592 88.8125 87.65625 C 99.926926 121.69578 112.41388 154.85006 134.5 181.9375 C 134.66847 182.1456 134.56736 182.44923 134.3125 182.53125 C 115.37752 188.57127 100.8265 198.97512 88.71875 211.875 C 88.71062 211.8831 88.6956 211.89725 88.6875 211.90625 C 88.683 211.90985 88.692 211.9375 88.6875 211.9375 C 88.682083 211.94111 88.661667 211.9375 88.65625 211.9375 C 88.635169 211.95104 88.617223 211.95972 88.59375 211.96875 C 88.58337 211.97055 88.57333 212 88.5625 212 L 88.53125 212 L 88.46875 212 C 88.462882 212.00018 88.44382 212.00018 88.4375 212 C 88.430729 212.00018 88.41257 212.00018 88.40625 212 C 88.389097 211.99819 88.360452 212.00903 88.34375 212 C 88.325333 211.99549 88.298855 211.97778 88.28125 211.96875 L 88.25 211.96875 C 88.244132 211.96694 88.255417 211.9375 88.25 211.9375 C 88.244583 211.93569 88.224167 211.9375 88.21875 211.9375 C 88.203402 211.92667 88.201042 211.91979 88.1875 211.90625 C 88.183437 211.90264 88.160764 211.90625 88.15625 211.90625 C 86.642781 210.29378 85.092739 208.71918 83.5 207.1875 C 72.35083 196.46569 59.162485 187.81627 42.59375 182.53125 C 42.338885 182.4495 42.23783 182.1456 42.40625 181.9375 C 64.485506 154.85931 76.950241 121.7148 88.0625 87.6875 C 88.06566 87.675763 88.089236 87.667987 88.09375 87.65625 C 88.097813 87.645416 88.088333 87.635834 88.09375 87.625 L 88.09375 87.59375 C 88.09691 87.58743 88.120486 87.602778 88.125 87.59375 C 88.1304 87.58472 88.1187 87.5715 88.125 87.5625 C 88.13132 87.554375 88.149027 87.540278 88.15625 87.53125 C 88.160313 87.529444 88.182986 87.5 88.1875 87.5 C 88.201719 87.485555 88.202499 87.481389 88.21875 87.46875 C 88.226424 87.463333 88.241875 87.446528 88.25 87.4375 C 88.258577 87.43118 88.272222 87.446528 88.28125 87.4375 C 88.292535 87.432083 88.300312 87.40625 88.3125 87.40625 z M 88.8125 90.03125 L 88.8125 160.875 C 88.360551 161.17194 87.93114 161.47701 87.5 161.8125 C 87.016136 161.43593 86.509373 161.07883 86 160.75 C 82.434388 158.44819 78.297167 157.31601 74.1875 157.28125 C 73.516528 157.27583 72.853597 157.32182 72.1875 157.375 C 70.349007 157.52089 68.52496 157.87622 66.8125 158.4375 C 59.977103 160.67806 54.568283 166.26667 54.6875 174.34375 C 54.525005 176.89613 55.233193 179.2842 56.625 181.625 C 56.82383 181.9594 57.023173 182.29215 57.25 182.625 L 45.21875 182.625 C 62.788307 188.69792 76.537834 198.63688 88.0625 210.75 L 88.0625 206.46875 C 97.505318 199.68793 105.64922 194.33092 111.40625 189.375 C 114.23766 186.93767 116.51476 184.57187 118.0625 182.15625 L 133.03125 182.15625 C 133.21434 182.09576 133.40985 182.02825 133.59375 181.96875 C 131.5772 179.47899 129.64364 176.92965 127.78125 174.34375 C 127.16045 173.48178 126.5421 172.62206 125.9375 171.75 C 109.00875 147.33237 98.340922 119.01809 88.8125 90.03125 z M 63.59375 106.90625 C 63.642674 106.89101 63.696364 106.89897 63.75 106.90625 C 63.886569 106.92521 63.95987 106.94902 64 106.9375 C 63.934313 107.04684 63.830775 107.44814 64.25 108.6875 L 65.8125 109.28125 L 68.8125 111.40625 L 71.4375 113.03125 L 73.6875 114.96875 L 73.71875 115.59375 L 73.4375 116.28125 L 72.9375 116.65625 L 72.21875 116.8125 L 71.40625 116.625 L 70.9375 116.1875 L 67.9375 116.28125 L 66.28125 116.21875 L 64.9375 116.03125 L 64.0625 115.375 L 62.6875 115.3125 L 62.25 115.84375 L 61.625 116.1875 L 60.0625 118.25 L 58.625 121.40625 L 58.375 123.625 L 58.65625 124.78125 L 59.625 126.03125 L 60.9375 128 L 61.65625 129.75 L 62.46875 130.03125 L 64.9375 130.375 L 66.28125 130.53125 L 66.71875 131 L 66.875 131.53125 L 66.78125 132.59375 L 66.28125 133.8125 L 65.28125 135 L 64.46875 136.40625 L 63.59375 136.96875 L 62.6875 137.5 L 61.5625 137.84375 L 60.5 138.1875 L 60.0625 138.53125 L 59.71875 139.3125 L 59.25 139.96875 L 58.34375 140.46875 L 57.59375 140.46875 L 57.3125 140.125 L 57.375 138.1875 L 57.71875 138.125 L 58.65625 138.03125 L 58.96875 137.21875 L 59.25 136.75 L 59.9375 136.5 L 60.78125 136.21875 L 61.71875 135.71875 L 62.625 135.375 L 63.4375 134.53125 L 63.96875 133.6875 L 64.28125 133.125 L 64.125 132.59375 L 64.03125 132.15625 L 63.4375 131.78125 L 62.8125 132 L 62.25 132.53125 L 60.84375 133.90625 L 57.59375 136.5 L 54.75 138.78125 L 53.125 140.0625 L 52.3125 140.75 L 49.75 142.1875 L 47.53125 143 L 45.78125 144.0625 L 44.25 145.4375 L 43.46875 146.34375 L 42.9375 148.03125 L 42.6875 150.96875 L 42.25 152.90625 L 41.25 156.1875 L 40.09375 159.9375 L 39.5 162.0625 L 39.03125 164.5 L 38.5 166.84375 L 38.125 169.65625 L 37.96875 171.4375 L 37.96875 173.03125 L 38.1875 176.59375 L 38.5 177.78125 L 39.125 179.75 L 39.15625 180.5 L 38.96875 180.6875 L 37.75 180.59375 L 36.625 179.78125 L 36.5 177.46875 L 36.21875 174.0625 L 36.28125 172.3125 L 35.96875 170.8125 L 35.65625 168.84375 L 35.28125 167.25 L 34.53125 166.3125 L 34.3125 165.125 L 34.75 163.15625 L 35.0625 161.9375 L 35.25 160.84375 L 35.28125 158.90625 L 35.03125 158.375 L 34.5 156.0625 L 33.59375 154.375 L 32.5 152.6875 L 31.3125 150.71875 L 30.1875 149.125 L 29.65625 148.9375 L 29.3125 149.46875 L 28.625 149.9375 L 28.625 150.90625 L 28.75 154.1875 L 28.71875 158.15625 L 27.125 159.15625 L 25.34375 159.75 L 23.84375 161.5625 L 22.3125 162.9375 L 21.6875 164.3125 L 21.03125 164.1875 L 21.125 162.6875 L 21.625 161.34375 L 21.75 159.125 L 22.09375 155.15625 L 22.15625 153.75 L 22.71875 152.875 L 23.25 151.84375 L 24.21875 150.5 L 25.65625 149.1875 L 27 148.5 L 28.0625 148.0625 L 28.375 147.40625 L 28.90625 145.53125 L 29.84375 144.0625 L 31.84375 141.3125 L 33.84375 139.4375 L 35.5625 137.78125 L 37.84375 135.84375 L 39.53125 133.84375 L 40.59375 131.9375 L 42.8125 127.8125 L 44.21875 125.34375 L 45.34375 123.84375 L 48.1875 120.28125 L 49.5625 118.65625 L 52.59375 115.53125 L 55.46875 113.125 L 58.28125 110.875 L 61.28125 109.1875 L 62.53125 108.96875 L 62.75 108.84375 C 62.795818 108.546 62.87652 108.04868 63.0625 107.59375 L 63.0625 107.53125 L 63.09375 107.53125 C 63.1337 107.43776 63.172084 107.3604 63.21875 107.28125 C 63.323748 107.10315 63.446978 106.95197 63.59375 106.90625 z M 114.375 106.96875 C 114.41345 106.98496 114.48843 106.98708 114.625 106.96875 C 114.89914 106.93142 115.09232 107.181 115.25 107.53125 L 115.3125 107.53125 L 115.3125 107.65625 C 115.47401 108.0641 115.5748 108.53873 115.625 108.84375 L 115.84375 108.9375 L 117.09375 109.1875 L 120.09375 110.875 L 122.90625 113.125 L 125.78125 115.53125 L 128.8125 118.625 L 130.1875 120.28125 L 133.03125 123.84375 L 134.15625 125.34375 L 135.5625 127.78125 L 137.78125 131.9375 L 138.84375 133.84375 L 140.53125 135.84375 L 142.8125 137.78125 L 144.53125 139.4375 L 146.53125 141.3125 L 148.53125 144.0625 L 149.46875 145.53125 L 150 147.375 L 150.3125 148.0625 L 151.375 148.5 L 152.71875 149.15625 L 154.15625 150.5 L 155.125 151.84375 L 155.65625 152.84375 L 156.21875 153.75 L 156.28125 155.15625 L 156.625 159.125 L 156.75 161.34375 L 157.25 162.6875 L 157.34375 164.1875 L 156.6875 164.3125 L 156.0625 162.9375 L 154.53125 161.5625 L 153.03125 159.75 L 151.25 159.15625 L 149.65625 158.15625 L 149.625 154.1875 L 149.75 150.90625 L 149.75 149.9375 L 149.0625 149.46875 L 148.71875 148.9375 L 148.1875 149.125 L 147.0625 150.71875 L 145.875 152.6875 L 144.78125 154.375 L 143.875 156.0625 L 143.34375 158.375 L 143.0625 158.90625 L 143.125 160.84375 L 143.3125 161.90625 L 143.625 163.15625 L 144.0625 165.125 L 143.84375 166.3125 L 143.0625 167.25 L 142.71875 168.84375 L 142.40625 170.8125 L 142.09375 172.3125 L 142.15625 174.0625 L 141.875 177.46875 L 141.75 179.78125 L 140.625 180.59375 L 139.375 180.6875 L 139.21875 180.5 L 139.25 179.75 L 139.875 177.78125 L 140.1875 176.59375 L 140.40625 173.03125 L 140.40625 171.4375 L 140.25 169.65625 L 139.875 166.84375 L 139.34375 164.46875 L 138.875 162.0625 L 138.28125 159.9375 L 137.125 156.1875 L 136.125 152.90625 L 135.6875 150.96875 L 135.4375 148.03125 L 134.90625 146.34375 L 134.125 145.40625 L 132.59375 144.0625 L 130.84375 143 L 128.625 142.1875 L 126.0625 140.75 L 125.25 140.0625 L 123.625 138.75 L 120.78125 136.5 L 117.53125 133.875 L 116.125 132.53125 L 115.5625 132 L 114.9375 131.75 L 114.34375 132.15625 L 114.25 132.59375 L 114.09375 133.125 L 114.40625 133.6875 L 114.9375 134.5 L 115.75 135.375 L 116.65625 135.71875 L 117.59375 136.21875 L 118.4375 136.5 L 119.125 136.71875 L 119.40625 137.21875 L 119.71875 138.03125 L 120.65625 138.125 L 121 138.1875 L 121.0625 140.125 L 120.78125 140.4375 L 120.03125 140.4375 L 119.125 139.96875 L 118.65625 139.28125 L 118.3125 138.53125 L 117.875 138.1875 L 116.8125 137.84375 L 115.6875 137.5 L 114.78125 136.96875 L 113.90625 136.40625 L 113.09375 135 L 112.09375 133.78125 L 111.59375 132.59375 L 111.5 131.53125 L 111.65625 131 L 112.09375 130.5 L 113.4375 130.375 L 115.90625 130.03125 L 116.71875 129.75 L 117.4375 128 L 118.75 126.03125 L 119.71875 124.78125 L 120 123.59375 L 119.75 121.375 L 118.3125 118.25 L 116.75 116.1875 L 116.125 115.84375 L 115.6875 115.3125 L 114.3125 115.34375 L 113.4375 116.03125 L 112.09375 116.21875 L 110.4375 116.28125 L 107.4375 116.1875 L 106.96875 116.625 L 106.15625 116.8125 L 105.4375 116.65625 L 104.9375 116.28125 L 104.65625 115.59375 L 104.6875 114.9375 L 106.9375 113.03125 L 109.5625 111.40625 L 112.5625 109.25 L 114.125 108.65625 C 114.52426 107.45586 114.43769 107.07449 114.375 106.96875 z M 22.78125 180.90625 L 23.96875 182.375 C 31.233842 191.64931 39.892106 200.51713 50.40625 209.53125 L 50.5625 209.65625 L 50.53125 211.8125 L 50.5625 211.875 C 50.54941 211.8849 50.54434 211.89625 50.53125 211.90625 L 50.4375 216.09375 C 62.17613 222.86545 74.200928 226.50997 86.46875 226.875 C 99.40262 227.25987 112.63597 223.99767 126.1875 216.875 L 126.34375 211.59375 L 126.46875 211.5 C 136.98285 202.48507 145.67241 193.61869 152.9375 184.34375 L 154.09375 182.84375 L 153.59375 184.65625 C 151.97487 190.74249 149.98221 196.85352 147.625 202.9375 L 163.40625 195.5625 L 163.03125 196.46875 C 159.27098 205.92096 150.88555 215.18365 140.40625 223.21875 L 141 226.6875 L 140.78125 226.84375 C 131.7264 231.67693 122.73254 235.4202 113.78125 237.9375 C 112.66234 238.25216 111.52336 238.53625 110.40625 238.8125 C 84.712786 245.1662 59.508391 241.30049 35.03125 224.1875 L 34.84375 224.03125 L 35.40625 220.78125 C 24.87247 212.72407 17.608987 203.96489 13.84375 194.5 L 13.46875 193.59375 L 29.25 200.96875 C 26.892297 194.88395 24.900811 188.80499 23.28125 182.71875 L 22.78125 180.90625 z M 24.5625 184.3125 C 26.162199 190.06438 28.049142 195.84051 30.3125 201.59375 L 30.65625 202.5 L 15.03125 195.1875 C 18.795133 204.02006 25.648367 212.25963 35.5625 219.90625 L 37.65625 208.15625 L 37.78125 207.53125 L 37.84375 207.5625 C 37.825603 206.471 38.047263 205.57251 38.5625 204.96875 C 38.87203 204.60591 39.308039 204.37203 39.78125 204.28125 C 40.254461 204.19074 40.785584 204.2686 41.34375 204.46875 L 41.4375 204.5 L 41.5 204.59375 C 43.243562 206.77157 43.825923 206.66967 46.65625 211.84375 C 47.823545 212.30044 48.746656 212.16199 49.75 211.5 L 49.78125 210 C 39.860391 201.48176 31.586495 193.05663 24.5625 184.3125 z M 152.3125 186.28125 C 145.28993 195.02138 137.01097 203.42239 127.09375 211.9375 L 127.0625 213.375 C 128.06011 214.01519 128.96084 213.9616 130.1875 213.46875 C 133.05976 208.26569 133.22677 208.66743 135.3125 206.5 L 135.375 206.4375 L 135.46875 206.40625 C 136.02091 206.20795 136.50907 206.11872 136.9375 206.21875 C 137.36598 206.31883 137.69955 206.62064 137.90625 207 C 138.31978 207.75864 138.3282 208.84624 138.1875 210.21875 L 138.15625 210.21875 L 140.25 222.34375 C 150.13646 214.70363 157.99513 205.94469 161.8125 197.125 L 146.21875 204.4375 L 146.5625 203.53125 C 148.82518 197.77855 150.71312 192.03313 152.3125 186.28125 z M 40.03125 205.03125 C 39.676218 205.06632 39.378794 205.239 39.15625 205.5 C 38.747861 205.97854 38.525161 206.90591 38.65625 208.1875 C 42.304583 210.98414 45.986903 213.47667 49.6875 215.65625 L 49.71875 212.40625 C 48.648282 212.96451 47.526278 213.08054 46.28125 212.5625 L 46.15625 212.5 L 46.09375 212.375 C 43.228078 207.09714 42.731555 207.31137 41 205.1875 C 40.782151 205.11455 40.588393 205.05201 40.40625 205.03125 C 40.269654 205.01139 40.149564 205.01951 40.03125 205.03125 z M 136.34375 206.96875 C 136.18219 206.98992 135.99233 207.05562 135.78125 207.125 C 133.72987 209.23249 133.71973 208.62255 130.78125 213.96875 L 130.71875 214.09375 L 130.59375 214.15625 C 130.28022 214.2869 129.96128 214.39319 129.65625 214.46875 C 129.35122 214.5443 129.04674 214.58088 128.75 214.59375 C 128.15652 214.6195 127.59278 214.52055 127.03125 214.25 L 126.96875 216.4375 C 130.43181 214.58063 133.90269 212.48952 137.40625 210.125 C 137.54041 208.81158 137.46838 207.83309 137.21875 207.375 C 137.09376 207.14564 136.96966 207.02017 136.75 206.96875 C 136.64708 206.94889 136.50535 206.94799 136.34375 206.96875 z M 38.3125 208.875 L 35.6875 223.65625 C 69.379675 247.10679 104.2641 245.3301 140.15625 226.25 L 137.5 211 C 120.02686 222.71313 103.00146 228.14901 86.4375 227.65625 C 79.200269 227.4409 72.048738 226.10177 65 223.65625 C 63.993037 223.30689 63.002976 222.92514 62 222.53125 C 53.97619 219.38011 46.071139 214.80557 38.3125 208.875 z M 48.125 217.53125 L 50.125 218.71875 L 48.25 230 L 46.1875 228.78125 L 46.65625 226.25 L 42.90625 224.0625 L 40.875 225.6875 L 38.84375 224.5 L 48.125 217.53125 z M 127.65625 219.46875 L 131.875 227.15625 L 136.71875 224.65625 L 137.5625 226.25 L 130.78125 229.75 L 125.6875 220.46875 L 127.65625 219.46875 z M 47.78125 220.21875 L 44.4375 222.875 L 47 224.34375 L 47.78125 220.21875 z M 53.6875 221.03125 L 55.625 221.875 L 56.75 230.125 L 59.71875 223.65625 L 61.59375 224.46875 L 57.15625 234.15625 L 55.125 233.28125 L 54 225.21875 L 51.09375 231.53125 L 49.21875 230.75 L 53.6875 221.03125 z M 124.3125 221.125 L 128.90625 230.71875 L 126.90625 231.625 L 122.3125 222.03125 L 124.3125 221.125 z M 118.78125 223.40625 C 119.31666 223.36291 119.82012 223.41214 120.25 223.5625 C 121.11111 223.86666 121.73182 224.47751 122.125 225.375 L 120.09375 226.21875 C 120.02199 226.09997 119.95277 226.00148 119.875 225.90625 C 119.64169 225.62055 119.37634 225.43083 119.09375 225.34375 C 118.71628 225.22833 118.23536 225.28481 117.65625 225.5 C 117.05868 225.72367 116.64915 226.01166 116.40625 226.375 C 116.24803 226.60928 116.21138 226.87009 116.3125 227.125 C 116.35846 227.24185 116.43568 227.32943 116.53125 227.40625 C 116.62682 227.48308 116.74073 227.54915 116.875 227.59375 C 117.2183 227.70967 117.90881 227.70704 119 227.5625 C 120.09191 227.41886 120.92518 227.37259 121.5 227.4375 C 122.07622 227.50377 122.59393 227.70718 123.03125 228.03125 C 123.4693 228.35455 123.81608 228.81212 124.0625 229.4375 C 124.28685 230.00447 124.34767 230.60335 124.21875 231.21875 C 124.08983 231.83628 123.77771 232.38155 123.28125 232.84375 C 122.78411 233.30531 122.07217 233.70141 121.1875 234.03125 C 119.89972 234.5106 118.7938 234.60243 117.875 234.28125 C 116.95616 233.95922 116.22674 233.27726 115.65625 232.21875 L 117.5625 231.28125 C 117.94073 231.88889 118.38852 232.26791 118.875 232.4375 C 119.36433 232.60556 119.93716 232.57591 120.5625 232.34375 C 121.22494 232.09584 121.64636 231.77165 121.875 231.375 C 122.10364 230.9769 122.14459 230.58353 122 230.21875 C 121.90814 229.98519 121.76762 229.83052 121.5625 229.71875 C 121.35666 229.60793 121.05579 229.55347 120.65625 229.5625 C 120.38414 229.57239 119.78322 229.63683 118.84375 229.75 C 117.63506 229.89603 116.7219 229.84578 116.125 229.625 C 115.28385 229.31371 114.7161 228.75235 114.40625 227.96875 C 114.2075 227.46525 114.16158 226.95331 114.28125 226.40625 C 114.40164 225.85711 114.69329 225.37266 115.15625 224.9375 C 115.61854 224.50081 116.24702 224.13644 117.03125 223.84375 C 117.67049 223.60509 118.24579 223.44959 118.78125 223.40625 z M 62.5625 224.90625 L 66.40625 226.03125 C 67.274488 226.289 67.897927 226.57873 68.3125 226.84375 C 68.868048 227.19996 69.297446 227.64393 69.59375 228.21875 C 69.888655 228.79633 70.070277 229.4717 70.09375 230.1875 C 70.117268 230.9033 69.986648 231.73738 69.6875 232.6875 C 69.42469 233.52373 69.089208 234.20863 68.6875 234.75 C 68.193886 235.40946 67.626825 235.87413 67 236.1875 C 66.524938 236.42535 65.93307 236.55347 65.25 236.5625 C 64.739322 236.5625 64.089598 236.4496 63.3125 236.21875 L 59.34375 235.0625 L 62.5625 224.90625 z M 109.375 226.53125 L 116.4375 235.6875 L 114.125 236.28125 L 112.5625 234.1875 L 108.34375 235.3125 L 108.09375 237.84375 L 105.84375 238.4375 L 107.125 227.125 L 109.375 226.53125 z M 64.125 227.25 L 62 233.96875 L 63.5625 234.4375 C 64.150097 234.61192 64.592915 234.7034 64.875 234.71875 C 65.241092 234.73712 65.588672 234.66135 65.875 234.53125 C 66.162772 234.39953 66.433144 234.12976 66.71875 233.71875 C 67.003679 233.30639 67.284104 232.72173 67.53125 231.9375 C 67.776996 231.15399 67.884931 230.52411 67.875 230.0625 C 67.864979 229.60021 67.776796 229.21614 67.59375 228.90625 C 67.412871 228.59424 67.118213 228.32511 66.75 228.125 C 66.475048 227.97545 65.921484 227.78621 65.0625 227.53125 L 64.125 227.25 z M 71.6875 227.71875 L 79.65625 229.09375 L 79.34375 230.875 L 73.5625 229.875 L 73.125 232.1875 L 78.53125 233.125 L 78.21875 234.875 L 72.8125 233.9375 L 72.28125 236.78125 L 78.3125 237.8125 L 77.96875 239.59375 L 69.8125 238.1875 L 71.6875 227.71875 z M 100.71875 228.59375 C 101.14569 228.59167 101.50738 228.62439 101.78125 228.6875 C 102.32759 228.81435 102.78018 229.11813 103.15625 229.5625 C 103.5316 230.00912 103.76466 230.53439 103.84375 231.15625 C 103.94347 231.94761 103.78601 232.61548 103.375 233.1875 C 102.96115 233.75871 102.27613 234.18959 101.34375 234.4375 C 101.84946 234.64763 102.27742 234.87209 102.625 235.15625 C 102.97258 235.44113 103.46909 235.96237 104.09375 236.71875 L 105.6875 238.625 L 103.0625 238.9375 L 101.1875 236.84375 C 100.52361 236.09306 100.07668 235.62411 99.84375 235.4375 C 99.609424 235.24737 99.364291 235.11297 99.125 235.0625 C 98.88282 235.01294 98.50359 235.03335 98 235.09375 L 97.5625 235.125 L 98.125 239.53125 L 95.9375 239.78125 L 94.59375 229.25 L 99.21875 228.71875 C 99.797094 228.65009 100.29185 228.59375 100.71875 228.59375 z M 108.875 229.21875 L 108.5 233.40625 L 111.375 232.65625 L 108.875 229.21875 z M 89.09375 229.375 C 89.957744 229.3597 90.606024 229.37439 91.03125 229.4375 C 91.456476 229.49898 91.848448 229.6599 92.1875 229.875 C 92.52583 230.09154 92.80189 230.35483 93.03125 230.71875 C 93.259166 231.08498 93.398125 231.51084 93.40625 231.96875 C 93.414466 232.46665 93.265653 232.92489 93 233.34375 C 92.731458 233.76252 92.374224 234.09677 91.90625 234.3125 C 92.573656 234.48846 93.072131 234.77222 93.4375 235.21875 C 93.528854 235.33077 93.615589 235.43994 93.6875 235.5625 C 93.759411 235.68506 93.824325 235.83582 93.875 235.96875 C 93.97635 236.23461 94.025607 236.50624 94.03125 236.8125 C 94.039511 237.29469 93.909006 237.79191 93.6875 238.25 C 93.465949 238.70868 93.175148 239.06519 92.78125 239.34375 C 92.385952 239.62367 91.897976 239.80377 91.3125 239.875 C 90.947131 239.92023 90.059406 239.9684 88.65625 240 L 84.9375 240.0625 L 84.75 229.4375 L 89.09375 229.375 z M 100.34375 230.4375 C 100.16355 230.4375 99.603374 230.45669 98.71875 230.5625 L 97.03125 230.78125 L 97.34375 233.4375 L 98.96875 233.25 C 100.01647 233.1246 100.68819 233.02095 100.9375 232.90625 C 101.18821 232.78879 101.34908 232.60219 101.46875 232.375 C 101.59058 232.14636 101.63347 231.87794 101.59375 231.5625 C 101.5496 231.20918 101.43813 230.94447 101.21875 230.75 C 100.99584 230.55481 100.70488 230.45195 100.34375 230.4375 z M 86.96875 231.15625 L 87.03125 233.625 L 88.46875 233.59375 C 89.326334 233.58025 89.854536 233.55924 90.0625 233.53125 C 90.437891 233.48268 90.727415 233.36764 90.9375 233.15625 C 91.149752 232.94255 91.257223 232.65516 91.25 232.3125 C 91.244493 231.98564 91.156084 231.70097 90.96875 231.5 C 90.778572 231.29926 90.494658 231.19327 90.125 231.15625 C 89.906338 231.13639 89.286297 231.14361 88.25 231.15625 L 86.96875 231.15625 z M 80.03125 234.84375 L 84.125 235.1875 L 83.9375 237.21875 L 79.84375 236.875 L 80.03125 234.84375 z M 88.84375 235.375 L 87.0625 235.40625 L 87.09375 238.21875 L 89.125 238.1875 C 89.919884 238.1736 90.44472 238.13889 90.65625 238.09375 C 90.98176 238.03046 91.235224 237.88272 91.4375 237.65625 C 91.639776 237.42969 91.75632 237.12539 91.75 236.75 C 91.744538 236.43239 91.631167 236.18809 91.46875 235.96875 C 91.306333 235.75004 91.082565 235.56413 90.78125 235.46875 C 90.477814 235.37395 89.846597 235.35875 88.84375 235.375 z "
         transform="matrix(2.2152921,0,0,2.2152921,2781.9035,2965.4524)"
         id="path5026" />
      <path
         sodipodi:nodetypes="cccccssscccccccccccssscccccccccccccccscccscccccccsccccccccccccsscccccscccccccccccccccccccccccccccccccccccccccccccccccccccccccccccccccccccccccccccccccccccccccccccccccccccccccccccccccccccccccccccccccccccccccccccccccccccccccccccccccccccccccccccccccccccccccccccccccccccccccccccccccccccccccccccccccccccccccccccccccccccccccccccccccccccccccccccccccccccccccccccccccccccccccccccccccccccccccccccccccccccccccccccccccccccccccccccccccccccsccccccccccccccccccccccccccccccccccccccccccccccccccccccccccccccccccccccscsccccccccccccccccccccccccccccccccccccccccccccccccccccccccccccccccccccccccccccccccccccccccccccccccccccccccccccccccccccccccccccccccccccccccccccccccccccccccccccccccccccccccccccccccccccccccccccccccccccccccc"
         class="vui_change_color"
         inkscape:connector-curvature="0"
         style="font-size:medium;font-style:normal;font-variant:normal;font-weight:normal;font-stretch:normal;text-indent:0;text-align:start;text-decoration:none;line-height:normal;letter-spacing:normal;word-spacing:normal;text-transform:none;direction:ltr;block-progression:tb;writing-mode:lr-tb;text-anchor:start;baseline-shift:baseline;color:#000000;fill:#1f3391;fill-opacity:1;fill-rule:evenodd;stroke:none;stroke-width:12.87992692000000083;marker:none;visibility:visible;display:inline;overflow:visible;enable-background:accumulate;font-family:Sans;-inkscape-font-specification:Sans"
         d="m 2977.5415,2965.4524 -5.469,3.5998 c -47.6395,31.4958 -110.758,52.4462 -180.8232,56.6977 l -9.3458,0.5538 0,9.415 0,316.0945 c 0,107.3209 87.8703,194.4611 195.9149,194.4611 108.0461,0 195.9149,-87.1402 195.9149,-194.4611 l 0,-315.7484 0,-9.415 -9.3458,-0.5538 c -70.3174,-4.2669 -133.6099,-25.3576 -181.3078,-57.0438 z m -185.6692,180.5463 0.5538,0 9.415,0 351.8853,0 9.4843,0 0.5538,0 0,205.8145 c 0,101.8813 -83.2543,184.4923 -185.9461,184.4923 -102.6904,0 -185.9461,-82.611 -185.9461,-184.4923 z m 185.6692,13.0841 c -0.027,0 -0.044,0.057 -0.069,0.069 -0.02,0.02 -0.05,-0.014 -0.069,0 -0.018,0.02 -0.052,0.057 -0.069,0.069 -0.036,0.028 -0.038,0.037 -0.069,0.069 -0.01,0 -0.06,0.065 -0.069,0.069 -0.016,0.02 -0.055,0.051 -0.069,0.069 -0.014,0.02 0.012,0.049 0,0.069 -0.01,0.02 -0.062,-0.014 -0.069,0 l 0,0.069 c -0.012,0.024 0.01,0.045 0,0.069 -0.01,0.026 -0.062,0.043 -0.069,0.069 -24.6169,75.3804 -52.23,148.8052 -101.142,208.7913 -0.3731,0.461 -0.1492,1.1342 0.4154,1.3153 36.7046,11.7079 65.9206,30.8689 90.6193,54.6208 3.5284,3.3932 6.9622,6.8813 10.3149,10.4534 0.01,0 0.06,-0.01 0.069,0 0.03,0.03 0.035,0.045 0.069,0.069 0.012,0 0.057,0 0.069,0 0.012,0 -0.013,0.065 0,0.069 l 0.069,0 c 0.039,0.02 0.098,0.059 0.1384,0.069 0.037,0.02 0.1005,0 0.1385,0 0.014,4e-4 0.054,4e-4 0.069,0 0.014,4e-4 0.056,4e-4 0.069,0 l 0.1385,0 0.069,0 c 0.024,0 0.046,-0.065 0.069,-0.069 0.052,-0.02 0.092,-0.039 0.1385,-0.069 0.012,0 0.057,0.01 0.069,0 0.01,0 -0.01,-0.061 0,-0.069 0.018,-0.02 0.051,-0.051 0.069,-0.069 26.8222,-28.577 59.057,-51.6246 101.0035,-65.005 0.5646,-0.1817 0.7886,-0.8543 0.4154,-1.3153 -48.9272,-60.0066 -76.5895,-133.453 -101.2112,-208.8605 -0.053,-0.1558 -0.1469,-0.3143 -0.2769,-0.4154 -0.018,-0.02 -0.049,0.012 -0.069,0 -0.02,-0.02 -0.048,-0.057 -0.069,-0.069 -0.028,-0.02 -0.1095,-0.059 -0.1385,-0.069 -0.077,-0.028 -0.1264,0 -0.2077,0 l -0.069,0 c -0.045,0 -0.095,-0.02 -0.1385,0 -0.012,-2e-4 -0.057,-2e-4 -0.069,0 l -0.069,0 z m 1.1076,5.8151 c 21.1083,64.2143 44.7406,126.9387 82.2427,181.0309 1.3394,1.9319 2.7092,3.8364 4.0845,5.7459 4.1257,5.7286 8.4091,11.3761 12.8764,16.8916 -0.4074,0.1318 -0.8405,0.2814 -1.2461,0.4154 l -33.1602,0 c -3.4287,5.3513 -8.4731,10.5922 -14.7455,15.9916 -12.7535,10.9789 -30.7946,22.8462 -51.7132,37.8677 l 0,9.4842 c -25.5305,-26.8341 -55.9898,-48.8518 -94.9115,-62.3051 l 26.6528,0 c -0.5025,-0.7373 -0.9441,-1.4745 -1.3846,-2.2153 -3.0832,-5.1855 -4.6521,-10.4758 -4.2921,-16.1301 -0.2641,-17.8931 11.718,-30.2735 26.8604,-35.237 3.7936,-1.2434 7.8344,-2.0305 11.9072,-2.3537 1.4756,-0.1178 2.9442,-0.2197 4.4306,-0.2077 9.1041,0.077 18.2692,2.5851 26.1681,7.6843 1.1284,0.7285 2.2511,1.5195 3.323,2.3538 0.9551,-0.7433 1.9063,-1.4191 2.9075,-2.0769 z m -55.5207,37.3831 c -0.4753,-0.064 -0.8668,0.3046 -1.1769,0.8307 -0.1034,0.1753 -0.1884,0.3467 -0.2769,0.5538 l -0.069,0 0,0.1385 c -0.412,1.0078 -0.5908,2.1095 -0.6923,2.7691 l -0.4846,0.2769 -2.7691,0.4846 -6.6459,3.7383 -6.2305,4.9844 -6.369,5.3306 -6.7151,6.9228 -3.046,3.5998 -6.2997,7.892 -2.4923,3.3229 -3.1152,5.469 -4.9152,9.1381 -2.3537,4.2229 -3.7383,4.4306 -5.0537,4.2921 -3.8075,3.6691 -4.4306,4.1537 -4.4306,6.092 -2.0768,3.2537 -1.1769,4.1537 -0.6923,1.4538 -2.3537,0.9692 -2.9768,1.523 -3.1845,2.9076 -2.1461,2.9768 -1.1768,2.2845 -1.2461,1.9384 -0.1385,3.1152 -0.7615,8.792 -0.2769,4.9151 -1.1077,2.9768 -0.2076,3.323 1.4537,0.2769 1.3846,-3.046 3.3922,-3.0461 3.3229,-4.0152 3.946,-1.3153 3.5306,-2.2153 0.069,-8.7919 -0.2769,-7.269 0,-2.146 1.523,-1.0385 0.7616,-1.1768 1.1768,0.4153 2.4922,3.5307 2.6307,4.3613 2.423,3.7383 2.0076,3.7383 1.1769,5.1229 0.5538,1.1769 -0.069,4.2921 -0.4153,2.423 -0.6923,2.6999 -0.9692,4.3613 0.4846,2.6307 1.6615,2.0768 0.8307,3.5306 0.6923,4.3614 0.6923,3.3229 -0.1385,3.8768 0.6231,7.5458 0.2769,5.1229 2.4922,1.7999 2.6999,0.2077 0.4153,-0.4154 -0.069,-1.6614 -1.3846,-4.3614 -0.6922,-2.6307 -0.4846,-7.8919 0,-3.5307 0.3461,-3.9459 0.8307,-6.2306 1.1769,-5.192 1.0384,-5.3998 1.3154,-4.7075 2.5614,-8.3074 2.2153,-7.2689 0.9692,-4.2921 0.5538,-6.5074 1.1769,-3.7383 1.7307,-2.0077 3.3921,-3.046 3.8768,-2.3537 4.9152,-1.8 5.6767,-3.1844 1.7999,-1.5231 3.5998,-2.8383 6.2998,-5.0536 7.1997,-5.7459 3.1152,-3.0461 1.2461,-1.1768 1.3846,-0.4846 1.3153,0.8307 0.2077,0.9692 0.3461,1.1769 -0.6922,1.2461 -1.1769,1.8691 -1.7999,1.8692 -2.0076,0.7615 -2.0769,1.1076 -1.8691,0.6231 -1.523,0.5538 -0.6231,1.0384 -0.6923,1.7999 -2.0768,0.2077 -0.7615,0.1385 -0.1385,4.2921 0.6231,0.7615 1.6614,0 2.0077,-1.1076 1.0384,-1.4538 0.7615,-1.7307 0.9692,-0.7615 2.3537,-0.7615 2.4922,-0.7615 2.0076,-1.1769 1.9384,-1.2461 1.7999,-3.1153 2.2153,-2.6306 1.1077,-2.6999 0.2077,-2.3538 -0.3462,-1.1768 -0.9692,-1.0385 -2.9768,-0.3461 -5.469,-0.7615 -1.7999,-0.6231 -1.5922,-3.8767 -2.9076,-4.3614 -2.1461,-2.7691 -0.623,-2.5614 0.5538,-4.9152 3.1845,-6.992 3.4614,-4.569 1.3845,-0.7616 0.9692,-1.1768 3.0461,0.1384 1.9383,1.4538 2.9768,0.4154 3.6691,0.1384 6.6459,-0.2076 1.0384,0.9691 1.7999,0.4154 1.5923,-0.3461 1.1076,-0.8308 0.6231,-1.523 -0.069,-1.3845 -4.9844,-4.2922 -5.8151,-3.5998 -6.6459,-4.7075 -3.4614,-1.3153 c -0.9287,-2.7456 -0.6993,-3.6346 -0.5538,-3.8768 -0.089,0.026 -0.2513,-0.027 -0.5538,-0.069 z m 112.1491,0.1384 c 0.1389,0.2343 0.3307,1.0791 -0.5538,3.7383 l -3.4614,1.3154 -6.6459,4.7767 -5.8151,3.5998 -4.9844,4.2229 -0.069,1.4538 0.623,1.523 1.1077,0.8308 1.5922,0.3461 1.7999,-0.4154 1.0384,-0.9691 6.6459,0.2076 3.6691,-0.1384 2.9768,-0.4154 1.9384,-1.523 3.046,-0.069 0.9692,1.1768 1.3846,0.7616 3.4613,4.569 3.1845,6.9228 0.5539,4.9152 -0.6231,2.6306 -2.1461,2.7691 -2.9075,4.3614 -1.5923,3.8767 -1.7999,0.6231 -5.469,0.7615 -2.9768,0.2769 -0.9692,1.1077 -0.3461,1.1768 0.2077,2.3538 1.1076,2.6306 2.2153,2.6999 1.7999,3.1153 1.9384,1.2461 2.0076,1.1769 2.4922,0.7615 2.3538,0.7615 0.9691,0.7615 0.7616,1.6615 1.0384,1.523 2.0076,1.0384 1.6614,0 0.6231,-0.6923 -0.1385,-4.2921 -0.7615,-0.1385 -2.0768,-0.2077 -0.6923,-1.7999 -0.623,-1.1076 -1.523,-0.4846 -1.8692,-0.6231 -2.0768,-1.1076 -2.0076,-0.7615 -1.8,-1.9384 -1.1768,-1.7999 -0.6923,-1.2461 0.3461,-1.1769 0.2077,-0.9692 1.3153,-0.9 1.3846,0.5539 1.2461,1.1768 3.1152,2.9768 7.1997,5.8152 6.2998,4.9844 3.5998,2.9075 1.8,1.5231 5.6766,3.1844 4.9152,1.8 3.8768,2.3537 3.3922,2.9768 1.7306,2.0769 1.1769,3.7383 0.5538,6.5074 0.9692,4.2921 2.2153,7.2689 2.5615,8.3074 1.3153,4.7075 1.0384,5.3305 1.1769,5.2613 0.8307,6.2306 0.3462,3.9459 0,3.5307 -0.4846,7.8919 -0.6923,2.6307 -1.3846,4.3614 -0.069,1.6614 0.3461,0.4154 2.7692,-0.2077 2.4922,-1.7999 0.2769,-5.1229 0.623,-7.5458 -0.1384,-3.8768 0.6922,-3.3229 0.6923,-4.3614 0.7615,-3.5306 1.7307,-2.0768 0.4846,-2.6307 -0.9692,-4.3613 -0.6923,-2.7692 -0.4153,-2.3537 -0.1385,-4.2921 0.6231,-1.1769 1.1769,-5.1229 2.0076,-3.7383 2.4229,-3.7383 2.6307,-4.3613 2.4922,-3.5307 1.1769,-0.4153 0.7615,1.1768 1.523,1.0385 0,2.146 -0.2769,7.269 0.069,8.7919 3.5306,2.2153 3.946,1.3153 3.323,4.0152 3.3921,3.0461 1.3846,3.046 1.4538,-0.2769 -0.2077,-3.323 -1.1077,-2.9768 -0.2769,-4.9151 -0.7615,-8.792 -0.1384,-3.1152 -1.2461,-2.0076 -1.1769,-2.2153 -2.1461,-2.9768 -3.1845,-2.9768 -2.9768,-1.4538 -2.3537,-0.9692 -0.6923,-1.523 -1.1769,-4.0845 -2.0768,-3.2537 -4.4306,-6.092 -4.4306,-4.1537 -3.8075,-3.6691 -5.0536,-4.2921 -3.7383,-4.4306 -2.3538,-4.2229 -4.9152,-9.2073 -3.1152,-5.3998 -2.4922,-3.3229 -6.2998,-7.892 -3.046,-3.6691 -6.7151,-6.8535 -6.369,-5.3306 -6.2305,-4.9844 -6.6458,-3.7383 -2.7692,-0.5538 -0.4846,-0.2077 c -0.1112,-0.6757 -0.3344,-1.7272 -0.6922,-2.6307 l 0,-0.2769 -0.1385,0 c -0.3493,-0.7759 -0.7772,-1.3288 -1.3845,-1.2461 -0.3026,0.041 -0.4687,0.036 -0.5539,0 z m -202.9069,163.7932 1.1077,4.0152 c 3.5878,13.4828 7.9995,26.9495 13.2225,40.4291 l -34.9601,-16.3378 0.8308,2.0076 c 8.341,20.9675 24.4318,40.3717 47.7672,58.2207 l -1.2461,7.1997 0.4154,0.3461 c 54.224,37.9103 110.0591,46.4739 166.9776,32.3986 2.4747,-0.6119 4.9979,-1.2413 7.4766,-1.9383 19.8297,-5.5766 39.7538,-13.869 59.8129,-24.5759 l 0.4846,-0.3462 -1.3153,-7.6843 c 23.2147,-17.8001 41.7908,-38.3196 50.1209,-59.259 l 0.8308,-2.0076 -34.9601,16.3377 c 5.2219,-13.4778 9.6362,-27.0155 13.2225,-40.4983 l 1.1077,-4.0152 -2.5615,3.323 c -16.0943,20.5467 -35.3442,40.1883 -58.636,60.159 l -0.2769,0.2077 -0.3461,11.6995 c -30.0206,15.7788 -59.3364,23.0055 -87.9887,22.1529 -27.1768,-0.8087 -53.8152,-8.8823 -79.8197,-23.8836 l 0.2077,-9.2766 c 0.029,-0.022 0.04,-0.047 0.069,-0.069 l -0.069,-0.1384 0.069,-4.7768 -0.3461,-0.2769 c -23.2919,-19.9689 -42.4725,-39.6137 -58.5668,-60.159 l -2.6307,-3.2537 z m 3.946,7.5458 c 15.5602,19.3708 33.8893,38.035 55.8669,56.9053 l -0.069,3.323 c -2.2227,1.4665 -4.2677,1.7732 -6.8536,0.7615 -6.27,-11.4621 -7.5601,-11.2364 -11.4226,-16.0609 l -0.1384,-0.2077 -0.2077,-0.069 c -1.2365,-0.4434 -2.4131,-0.6159 -3.4614,-0.4154 -1.0483,0.2011 -2.0142,0.7193 -2.6999,1.5231 -1.1414,1.3375 -1.6324,3.3279 -1.5922,5.7459 l -0.1385,-0.069 -0.2769,1.3846 -4.6383,26.0297 c -21.9627,-16.9395 -37.1446,-35.1926 -45.4827,-54.7593 l 34.6139,16.1994 -0.7615,-2.0077 c -5.014,-12.7451 -9.1941,-25.5409 -12.7379,-38.283 z m 283.0036,4.3614 c -3.5431,12.7421 -7.7255,25.4699 -12.738,38.2138 l -0.7615,2.0076 34.5448,-16.1993 c -8.4566,19.5381 -25.8659,38.9418 -47.7673,55.8669 l -4.6383,-26.8605 0.069,0 c 0.3117,-3.0405 0.293,-5.4498 -0.6231,-7.1304 -0.4579,-0.8404 -1.1968,-1.509 -2.146,-1.7307 -0.9491,-0.2216 -2.0306,-0.024 -3.2537,0.4153 l -0.2077,0.069 -0.1385,0.1384 c -4.6205,4.8015 -4.9905,3.9115 -11.3534,15.4378 -2.7174,1.0918 -4.7127,1.2106 -6.9227,-0.2076 l 0.069,-3.1845 c 21.9695,-18.8635 40.3098,-37.4742 55.8669,-56.8361 z m -248.7358,41.5367 c 0.2621,-0.026 0.5281,-0.044 0.8307,0 0.4035,0.046 0.8328,0.1845 1.3154,0.3461 3.8359,4.705 4.9358,4.2305 11.2841,15.9225 l 0.1385,0.2769 0.2769,0.1384 c 2.7581,1.1476 5.2437,0.8906 7.6151,-0.3461 l -0.069,7.1997 c -8.1979,-4.8284 -16.3553,-10.3501 -24.4374,-16.5455 -0.2904,-2.8391 0.2029,-4.8935 1.1076,-5.9536 0.493,-0.5782 1.1519,-0.9607 1.9384,-1.0384 z m 213.3603,4.2921 c 0.358,-0.046 0.672,-0.044 0.9,0 0.4866,0.1139 0.7615,0.3919 1.0384,0.9 0.553,1.0148 0.7126,3.1824 0.4154,6.0921 -7.7614,5.2381 -15.4504,9.8705 -23.1221,13.984 l 0.1384,-4.846 c 1.244,0.5994 2.4928,0.8186 3.8076,0.7615 0.6573,-0.028 1.3318,-0.1095 2.0076,-0.2769 0.6757,-0.1674 1.3822,-0.4028 2.0768,-0.6923 l 0.2769,-0.1384 0.1385,-0.2769 c 6.5096,-11.8434 6.532,-10.4922 11.0764,-15.1609 0.4676,-0.1537 0.8882,-0.2993 1.2461,-0.3462 z m -217.1678,4.2229 c 17.1876,13.138 34.6996,23.2719 52.4747,30.2526 2.2219,0.8726 4.4152,1.7183 6.6459,2.4922 15.615,5.4176 31.4577,8.3841 47.4903,8.8612 36.694,1.0916 74.4103,-10.9505 113.1184,-36.8985 l 5.8843,33.7832 c -79.5116,42.268 -156.7908,46.2039 -231.4288,-5.7459 z m 21.7375,19.1762 -20.5606,15.4378 4.4998,2.6306 4.4998,-3.5998 8.3073,4.8459 -1.0384,5.6075 4.569,2.6999 4.1537,-24.9913 z m 176.185,4.2921 -4.3614,2.2153 11.2842,20.5607 15.0224,-7.7536 -1.8691,-3.5306 -10.7304,5.5382 z m -176.9465,1.6615 -1.7307,9.138 -5.6767,-3.2537 z m 13.0841,1.7999 -9.8996,21.5299 4.1537,1.7306 6.4382,-13.984 2.4922,17.8608 4.4998,1.9384 9.8303,-21.4607 -4.1536,-1.7999 -6.5767,14.3302 -2.4922,-18.2762 z m 156.455,0.2077 -4.4306,2.0076 10.1765,21.2529 4.4306,-2.0076 z m -12.2533,5.0536 c -1.1862,0.096 -2.4607,0.4405 -3.8768,0.9692 -1.7373,0.6484 -3.1296,1.4556 -4.1537,2.423 -1.0256,0.964 -1.6717,2.0372 -1.9383,3.2537 -0.2652,1.2119 -0.1634,2.346 0.2769,3.4614 0.6864,1.7359 1.9441,2.9795 3.8075,3.669 1.3223,0.4891 3.3452,0.6005 6.0228,0.277 2.0812,-0.2507 3.4124,-0.3935 4.0152,-0.4154 0.8851,-0.02 1.5517,0.1006 2.0076,0.3461 0.4544,0.2476 0.7657,0.5903 0.9692,1.1077 0.3203,0.8081 0.2296,1.6795 -0.2769,2.5614 -0.5065,0.8787 -1.44,1.5969 -2.9075,2.1461 -1.3854,0.5143 -2.6543,0.58 -3.7384,0.2077 -1.0776,-0.3757 -2.0696,-1.2154 -2.9075,-2.5615 l -4.2229,2.0769 c 1.2638,2.3449 2.8797,3.8556 4.9152,4.569 2.0354,0.7115 4.4853,0.5081 7.3381,-0.5538 1.9598,-0.7307 3.537,-1.6082 4.6383,-2.6307 1.0998,-1.0239 1.7912,-2.2318 2.0768,-3.5998 0.2856,-1.3633 0.1509,-2.69 -0.3461,-3.946 -0.5459,-1.3854 -1.3141,-2.3991 -2.2845,-3.1153 -0.9688,-0.7179 -2.1157,-1.1685 -3.3922,-1.3153 -1.2734,-0.1438 -3.1193,-0.041 -5.5382,0.2769 -2.4173,0.3202 -3.947,0.326 -4.7075,0.069 -0.2975,-0.099 -0.5498,-0.2451 -0.7615,-0.4153 -0.2118,-0.1702 -0.3828,-0.3642 -0.4846,-0.6231 -0.224,-0.5647 -0.1429,-1.1425 0.2076,-1.6615 0.5381,-0.8049 1.4454,-1.4428 2.7692,-1.9383 1.2829,-0.4767 2.3482,-0.6019 3.1844,-0.3462 0.6261,0.1929 1.2139,0.6132 1.7307,1.2461 0.1723,0.211 0.3257,0.4292 0.4846,0.6923 l 4.4998,-1.8691 c -0.871,-1.9882 -2.246,-3.3415 -4.1536,-4.0153 -0.9523,-0.3331 -2.0676,-0.4421 -3.2537,-0.3461 z m -124.541,3.3229 -7.1305,22.4991 8.792,2.5614 c 1.7215,0.5114 3.1608,0.7615 4.2921,0.7615 1.5132,-0.02 2.8244,-0.3038 3.8768,-0.8307 1.3886,-0.6942 2.6448,-1.7236 3.7383,-3.1845 0.8899,-1.1993 1.6331,-2.7165 2.2153,-4.569 0.6627,-2.1048 0.952,-3.9525 0.8999,-5.5382 -0.052,-1.5858 -0.4543,-3.0819 -1.1076,-4.3614 -0.6564,-1.2734 -1.6077,-2.2569 -2.8384,-3.046 -0.9184,-0.5871 -2.2995,-1.229 -4.2229,-1.8 z m 103.7034,3.5999 -4.9844,1.3153 -2.8384,25.0605 4.9844,-1.3153 0.5539,-5.6075 9.3457,-2.4922 3.4614,4.6383 5.1229,-1.3153 z m -100.242,1.5922 2.0768,0.6231 c 1.9029,0.5648 3.1292,0.984 3.7383,1.3153 0.8157,0.4433 1.4685,1.0395 1.8692,1.7307 0.4055,0.6865 0.6009,1.5373 0.6231,2.5614 0.022,1.0226 -0.2172,2.418 -0.7616,4.1537 -0.5475,1.7373 -1.1687,3.0325 -1.7999,3.946 -0.6327,0.9105 -1.2316,1.5081 -1.8691,1.7999 -0.6343,0.2882 -1.4043,0.4561 -2.2153,0.4154 -0.6249,-0.034 -1.6059,-0.2367 -2.9076,-0.6231 l -3.4614,-1.0384 z m 16.7532,1.0384 -4.1537,23.1914 18.0685,3.1152 0.7615,-3.9459 -13.361,-2.2846 1.1769,-6.2997 11.9764,2.0768 0.6923,-3.8767 -11.9765,-2.0769 0.9692,-5.1228 12.8072,2.2153 0.6923,-3.946 z m 64.3127,1.9384 c -0.9458,0 -2.0418,0.1248 -3.323,0.2769 l -10.2457,1.1769 2.9768,23.3298 4.8459,-0.5538 -1.2461,-9.7611 0.9692,-0.069 c 1.1156,-0.1338 1.9557,-0.179 2.4922,-0.069 0.5301,0.1118 1.0732,0.4095 1.5923,0.8307 0.516,0.4134 1.5061,1.4523 2.9768,3.1153 l 4.1536,4.6383 5.8152,-0.6923 -3.5306,-4.2229 c -1.3838,-1.6756 -2.4838,-2.8303 -3.2537,-3.4614 -0.77,-0.6295 -1.7181,-1.1268 -2.8384,-1.5923 2.0655,-0.5492 3.583,-1.5037 4.4998,-2.7691 0.9105,-1.2672 1.2593,-2.7467 1.0384,-4.4998 -0.1752,-1.3776 -0.6915,-2.5412 -1.523,-3.5306 -0.8331,-0.9844 -1.8357,-1.6574 -3.046,-1.9384 -0.6067,-0.1398 -1.408,-0.2123 -2.3537,-0.2077 z m 18.0684,1.3846 5.5383,7.6151 -6.369,1.6614 z m -43.8212,0.3461 -9.6227,0.1385 0.4154,23.5375 8.2381,-0.1385 c 3.1084,-0.07 5.075,-0.1767 5.8844,-0.2769 1.297,-0.1578 2.378,-0.5568 3.2537,-1.1769 0.8726,-0.6171 1.5168,-1.4068 2.0076,-2.423 0.4907,-1.0148 0.7798,-2.1162 0.7615,-3.1844 -0.012,-0.6785 -0.1216,-1.2802 -0.3462,-1.8692 -0.1122,-0.2945 -0.256,-0.6284 -0.4153,-0.9 -0.1593,-0.2715 -0.3515,-0.5133 -0.5538,-0.7615 -0.8094,-0.9892 -1.9137,-1.6178 -3.3922,-2.0076 1.0367,-0.4779 1.8281,-1.2183 2.423,-2.146 0.5885,-0.9279 0.9181,-1.9431 0.8999,-3.0461 -0.018,-1.0144 -0.3258,-1.9578 -0.8307,-2.7691 -0.5081,-0.8062 -1.1197,-1.3894 -1.8692,-1.8691 -0.7511,-0.4765 -1.6194,-0.833 -2.5614,-0.9692 -0.942,-0.1398 -2.3781,-0.1724 -4.2921,-0.1385 z m 24.922,2.3538 c 0.8,0.032 1.4446,0.2598 1.9384,0.6923 0.486,0.4308 0.7329,1.0172 0.8307,1.7999 0.088,0.6988 -0.01,1.2934 -0.2769,1.7999 -0.2651,0.5033 -0.6215,0.9167 -1.1769,1.1769 -0.5522,0.2541 -2.0403,0.4837 -4.3613,0.7615 l -3.5999,0.4153 -0.6922,-5.8843 3.7383,-0.4846 c 1.9597,-0.2344 3.2006,-0.2769 3.5998,-0.2769 z m -29.6295,1.5922 2.8383,0 c 2.2957,-0.028 3.6693,-0.044 4.1537,0 0.8189,0.082 1.4479,0.3168 1.8692,0.7615 0.415,0.4452 0.6108,1.0759 0.623,1.7999 0.016,0.7591 -0.2221,1.3958 -0.6923,1.8692 -0.4654,0.4683 -1.1068,0.7231 -1.9384,0.8307 -0.4607,0.062 -1.6308,0.1086 -3.5306,0.1385 l -3.1845,0.069 -0.1384,-5.469 z m -15.3686,8.1689 -0.4154,4.4998 9.0689,0.7615 0.4153,-4.4998 z m 19.5223,1.1769 c 2.2216,-0.036 3.6199,0 4.2921,0.2077 0.6675,0.2113 1.1632,0.6231 1.523,1.1076 0.3598,0.4859 0.611,1.0271 0.6231,1.7307 0.014,0.8316 -0.2442,1.5057 -0.6923,2.0076 -0.4481,0.5017 -1.0096,0.829 -1.7307,0.9692 -0.4686,0.1 -1.6313,0.1769 -3.3922,0.2077 l -4.4998,0.069 -0.069,-6.2305 3.946,-0.069 z"
         id="path3823" />
      <path
         id="path3034"
         d="m 2531.887,2965.4524 -5.469,3.5998 c -47.6395,31.4958 -110.758,52.4462 -180.8232,56.6977 l -9.3458,0.5538 0,9.415 0,316.0945 c 0,107.3209 87.8703,194.4611 195.9149,194.4611 108.0461,0 195.9149,-87.1402 195.9149,-194.4611 l 0,-315.7484 0,-9.415 -9.3458,-0.5538 c -70.3174,-4.2669 -133.6099,-25.3576 -181.3078,-57.0438 z m -185.6692,180.5463 0.5538,0 9.415,0 351.8853,0 9.4843,0 0.5538,0 0,205.8145 c 0,101.8813 -83.2543,184.4923 -185.9461,184.4923 -102.6904,0 -185.9461,-82.611 -185.9461,-184.4923 z m 185.6692,13.0841 c -0.027,0 -0.044,0.057 -0.069,0.069 -0.02,0.02 -0.05,-0.014 -0.069,0 -0.018,0.02 -0.052,0.057 -0.069,0.069 -0.036,0.028 -0.038,0.037 -0.069,0.069 -0.01,0 -0.06,0.065 -0.069,0.069 -0.016,0.02 -0.055,0.051 -0.069,0.069 -0.014,0.02 0.012,0.049 0,0.069 -0.01,0.02 -0.062,-0.014 -0.069,0 l 0,0.069 c -0.012,0.024 0.01,0.045 0,0.069 -0.01,0.026 -0.062,0.043 -0.069,0.069 -24.6169,75.3804 -52.23,148.8052 -101.142,208.7913 -0.3731,0.461 -0.1492,1.1342 0.4154,1.3153 36.7046,11.7079 65.9206,30.8689 90.6193,54.6208 3.5284,3.3932 6.9622,6.8813 10.3149,10.4534 0.01,0 0.06,-0.01 0.069,0 0.03,0.03 0.035,0.045 0.069,0.069 0.012,0 0.057,0 0.069,0 0.012,0 -0.013,0.065 0,0.069 l 0.069,0 c 0.039,0.02 0.098,0.059 0.1384,0.069 0.037,0.02 0.1005,0 0.1385,0 0.014,4e-4 0.054,4e-4 0.069,0 0.014,4e-4 0.056,4e-4 0.069,0 l 0.1385,0 0.069,0 c 0.024,0 0.046,-0.065 0.069,-0.069 0.052,-0.02 0.092,-0.039 0.1385,-0.069 0.012,0 0.057,0.01 0.069,0 0.01,0 -0.01,-0.061 0,-0.069 0.018,-0.02 0.051,-0.051 0.069,-0.069 26.8222,-28.577 59.057,-51.6246 101.0035,-65.005 0.5646,-0.1817 0.7886,-0.8543 0.4154,-1.3153 -48.9272,-60.0066 -76.5895,-133.453 -101.2112,-208.8605 -0.053,-0.1558 -0.1469,-0.3143 -0.2769,-0.4154 -0.018,-0.02 -0.049,0.012 -0.069,0 -0.02,-0.02 -0.048,-0.057 -0.069,-0.069 -0.028,-0.02 -0.1095,-0.059 -0.1385,-0.069 -0.077,-0.028 -0.1264,0 -0.2077,0 l -0.069,0 c -0.045,0 -0.095,-0.02 -0.1385,0 -0.012,-2e-4 -0.057,-2e-4 -0.069,0 l -0.069,0 z m 1.1076,5.8151 c 21.1083,64.2143 44.7406,126.9387 82.2427,181.0309 1.3394,1.9319 2.7092,3.8364 4.0845,5.7459 4.1257,5.7286 8.4091,11.3761 12.8764,16.8916 -0.4074,0.1318 -0.8405,0.2814 -1.2461,0.4154 l -33.1602,0 c -3.4287,5.3513 -8.4731,10.5922 -14.7455,15.9916 -12.7535,10.9789 -30.7946,22.8462 -51.7132,37.8677 l 0,9.4842 c -25.5305,-26.8341 -55.9898,-48.8518 -94.9115,-62.3051 l 26.6528,0 c -0.5025,-0.7373 -0.9441,-1.4745 -1.3846,-2.2153 -3.0832,-5.1855 -4.6521,-10.4758 -4.2921,-16.1301 -0.2641,-17.8931 11.718,-30.2735 26.8604,-35.237 3.7936,-1.2434 7.8344,-2.0305 11.9072,-2.3537 1.4756,-0.1178 2.9442,-0.2197 4.4306,-0.2077 9.1041,0.077 18.2692,2.5851 26.1681,7.6843 1.1284,0.7285 2.2511,1.5195 3.323,2.3538 0.9551,-0.7433 1.9063,-1.4191 2.9075,-2.0769 z m -55.5207,37.3831 c -0.4753,-0.064 -0.8668,0.3046 -1.1769,0.8307 -0.1034,0.1753 -0.1884,0.3467 -0.2769,0.5538 l -0.069,0 0,0.1385 c -0.412,1.0078 -0.5908,2.1095 -0.6923,2.7691 l -0.4846,0.2769 -2.7691,0.4846 -6.6459,3.7383 -6.2305,4.9844 -6.369,5.3306 -6.7151,6.9228 -3.046,3.5998 -6.2997,7.892 -2.4923,3.3229 -3.1152,5.469 -4.9152,9.1381 -2.3537,4.2229 -3.7383,4.4306 -5.0537,4.2921 -3.8075,3.6691 -4.4306,4.1537 -4.4306,6.092 -2.0768,3.2537 -1.1769,4.1537 -0.6923,1.4538 -2.3537,0.9692 -2.9768,1.523 -3.1845,2.9076 -2.1461,2.9768 -1.1768,2.2845 -1.2461,1.9384 -0.1385,3.1152 -0.7615,8.792 -0.2769,4.9151 -1.1077,2.9768 -0.2076,3.323 1.4537,0.2769 1.3846,-3.046 3.3922,-3.0461 3.3229,-4.0152 3.946,-1.3153 3.5306,-2.2153 0.069,-8.7919 -0.2769,-7.269 0,-2.146 1.523,-1.0385 0.7616,-1.1768 1.1768,0.4153 2.4922,3.5307 2.6307,4.3613 2.423,3.7383 2.0076,3.7383 1.1769,5.1229 0.5538,1.1769 -0.069,4.2921 -0.4153,2.423 -0.6923,2.6999 -0.9692,4.3613 0.4846,2.6307 1.6615,2.0768 0.8307,3.5306 0.6923,4.3614 0.6923,3.3229 -0.1385,3.8768 0.6231,7.5458 0.2769,5.1229 2.4922,1.7999 2.6999,0.2077 0.4153,-0.4154 -0.069,-1.6614 -1.3846,-4.3614 -0.6922,-2.6307 -0.4846,-7.8919 0,-3.5307 0.3461,-3.9459 0.8307,-6.2306 1.1769,-5.192 1.0384,-5.3998 1.3154,-4.7075 2.5614,-8.3074 2.2153,-7.2689 0.9692,-4.2921 0.5538,-6.5074 1.1769,-3.7383 1.7307,-2.0077 3.3921,-3.046 3.8768,-2.3537 4.9152,-1.8 5.6767,-3.1844 1.7999,-1.5231 3.5998,-2.8383 6.2998,-5.0536 7.1997,-5.7459 3.1152,-3.0461 1.2461,-1.1768 1.3846,-0.4846 1.3153,0.8307 0.2077,0.9692 0.3461,1.1769 -0.6922,1.2461 -1.1769,1.8691 -1.7999,1.8692 -2.0076,0.7615 -2.0769,1.1076 -1.8691,0.6231 -1.523,0.5538 -0.6231,1.0384 -0.6923,1.7999 -2.0768,0.2077 -0.7615,0.1385 -0.1385,4.2921 0.6231,0.7615 1.6614,0 2.0077,-1.1076 1.0384,-1.4538 0.7615,-1.7307 0.9692,-0.7615 2.3537,-0.7615 2.4922,-0.7615 2.0076,-1.1769 1.9384,-1.2461 1.7999,-3.1153 2.2153,-2.6306 1.1077,-2.6999 0.2077,-2.3538 -0.3462,-1.1768 -0.9692,-1.0385 -2.9768,-0.3461 -5.469,-0.7615 -1.7999,-0.6231 -1.5922,-3.8767 -2.9076,-4.3614 -2.1461,-2.7691 -0.623,-2.5614 0.5538,-4.9152 3.1845,-6.992 3.4614,-4.569 1.3845,-0.7616 0.9692,-1.1768 3.0461,0.1384 1.9383,1.4538 2.9768,0.4154 3.6691,0.1384 6.6459,-0.2076 1.0384,0.9691 1.7999,0.4154 1.5923,-0.3461 1.1076,-0.8308 0.6231,-1.523 -0.069,-1.3845 -4.9844,-4.2922 -5.8151,-3.5998 -6.6459,-4.7075 -3.4614,-1.3153 c -0.9287,-2.7456 -0.6993,-3.6346 -0.5538,-3.8768 -0.089,0.026 -0.2513,-0.027 -0.5538,-0.069 z m 112.1491,0.1384 c 0.1389,0.2343 0.3307,1.0791 -0.5538,3.7383 l -3.4614,1.3154 -6.6459,4.7767 -5.8151,3.5998 -4.9844,4.2229 -0.069,1.4538 0.623,1.523 1.1077,0.8308 1.5922,0.3461 1.7999,-0.4154 1.0384,-0.9691 6.6459,0.2076 3.6691,-0.1384 2.9768,-0.4154 1.9384,-1.523 3.046,-0.069 0.9692,1.1768 1.3846,0.7616 3.4613,4.569 3.1845,6.9228 0.5539,4.9152 -0.6231,2.6306 -2.1461,2.7691 -2.9075,4.3614 -1.5923,3.8767 -1.7999,0.6231 -5.469,0.7615 -2.9768,0.2769 -0.9692,1.1077 -0.3461,1.1768 0.2077,2.3538 1.1076,2.6306 2.2153,2.6999 1.7999,3.1153 1.9384,1.2461 2.0076,1.1769 2.4922,0.7615 2.3538,0.7615 0.9691,0.7615 0.7616,1.6615 1.0384,1.523 2.0076,1.0384 1.6614,0 0.6231,-0.6923 -0.1385,-4.2921 -0.7615,-0.1385 -2.0768,-0.2077 -0.6923,-1.7999 -0.623,-1.1076 -1.523,-0.4846 -1.8692,-0.6231 -2.0768,-1.1076 -2.0076,-0.7615 -1.8,-1.9384 -1.1768,-1.7999 -0.6923,-1.2461 0.3461,-1.1769 0.2077,-0.9692 1.3153,-0.9 1.3846,0.5539 1.2461,1.1768 3.1152,2.9768 7.1997,5.8152 6.2998,4.9844 3.5998,2.9075 1.8,1.5231 5.6766,3.1844 4.9152,1.8 3.8768,2.3537 3.3922,2.9768 1.7306,2.0769 1.1769,3.7383 0.5538,6.5074 0.9692,4.2921 2.2153,7.2689 2.5615,8.3074 1.3153,4.7075 1.0384,5.3305 1.1769,5.2613 0.8307,6.2306 0.3462,3.9459 0,3.5307 -0.4846,7.8919 -0.6923,2.6307 -1.3846,4.3614 -0.069,1.6614 0.3461,0.4154 2.7692,-0.2077 2.4922,-1.7999 0.2769,-5.1229 0.623,-7.5458 -0.1384,-3.8768 0.6922,-3.3229 0.6923,-4.3614 0.7615,-3.5306 1.7307,-2.0768 0.4846,-2.6307 -0.9692,-4.3613 -0.6923,-2.7692 -0.4153,-2.3537 -0.1385,-4.2921 0.6231,-1.1769 1.1769,-5.1229 2.0076,-3.7383 2.4229,-3.7383 2.6307,-4.3613 2.4922,-3.5307 1.1769,-0.4153 0.7615,1.1768 1.523,1.0385 0,2.146 -0.2769,7.269 0.069,8.7919 3.5306,2.2153 3.946,1.3153 3.323,4.0152 3.3921,3.0461 1.3846,3.046 1.4538,-0.2769 -0.2077,-3.323 -1.1077,-2.9768 -0.2769,-4.9151 -0.7615,-8.792 -0.1384,-3.1152 -1.2461,-2.0076 -1.1769,-2.2153 -2.1461,-2.9768 -3.1845,-2.9768 -2.9768,-1.4538 -2.3537,-0.9692 -0.6923,-1.523 -1.1769,-4.0845 -2.0768,-3.2537 -4.4306,-6.092 -4.4306,-4.1537 -3.8075,-3.6691 -5.0536,-4.2921 -3.7383,-4.4306 -2.3538,-4.2229 -4.9152,-9.2073 -3.1152,-5.3998 -2.4922,-3.3229 -6.2998,-7.892 -3.046,-3.6691 -6.7151,-6.8535 -6.369,-5.3306 -6.2305,-4.9844 -6.6458,-3.7383 -2.7692,-0.5538 -0.4846,-0.2077 c -0.1112,-0.6757 -0.3344,-1.7272 -0.6922,-2.6307 l 0,-0.2769 -0.1385,0 c -0.3493,-0.7759 -0.7772,-1.3288 -1.3845,-1.2461 -0.3026,0.041 -0.4687,0.036 -0.5539,0 z m -202.9069,163.7932 1.1077,4.0152 c 3.5878,13.4828 7.9995,26.9495 13.2225,40.4291 l -34.9601,-16.3378 0.8308,2.0076 c 8.341,20.9675 24.4318,40.3717 47.7672,58.2207 l -1.2461,7.1997 0.4154,0.3461 c 54.224,37.9103 110.0591,46.4739 166.9776,32.3986 2.4747,-0.6119 4.9979,-1.2413 7.4766,-1.9383 19.8297,-5.5766 39.7538,-13.869 59.8129,-24.5759 l 0.4846,-0.3462 -1.3153,-7.6843 c 23.2147,-17.8001 41.7908,-38.3196 50.1209,-59.259 l 0.8308,-2.0076 -34.9601,16.3377 c 5.2219,-13.4778 9.6362,-27.0155 13.2225,-40.4983 l 1.1077,-4.0152 -2.5615,3.323 c -16.0943,20.5467 -35.3442,40.1883 -58.636,60.159 l -0.2769,0.2077 -0.3461,11.6995 c -30.0206,15.7788 -59.3364,23.0055 -87.9887,22.1529 -27.1768,-0.8087 -53.8152,-8.8823 -79.8197,-23.8836 l 0.2077,-9.2766 c 0.029,-0.022 0.04,-0.047 0.069,-0.069 l -0.069,-0.1384 0.069,-4.7768 -0.3461,-0.2769 c -23.2919,-19.9689 -42.4725,-39.6137 -58.5668,-60.159 l -2.6307,-3.2537 z m 3.946,7.5458 c 15.5602,19.3708 33.8893,38.035 55.8669,56.9053 l -0.069,3.323 c -2.2227,1.4665 -4.2677,1.7732 -6.8536,0.7615 -6.27,-11.4621 -7.5601,-11.2364 -11.4226,-16.0609 l -0.1384,-0.2077 -0.2077,-0.069 c -1.2365,-0.4434 -2.4131,-0.6159 -3.4614,-0.4154 -1.0483,0.2011 -2.0142,0.7193 -2.6999,1.5231 -1.1414,1.3375 -1.6324,3.3279 -1.5922,5.7459 l -0.1385,-0.069 -0.2769,1.3846 -4.6383,26.0297 c -21.9627,-16.9395 -37.1446,-35.1926 -45.4827,-54.7593 l 34.6139,16.1994 -0.7615,-2.0077 c -5.014,-12.7451 -9.1941,-25.5409 -12.7379,-38.283 z m 283.0036,4.3614 c -3.5431,12.7421 -7.7255,25.4699 -12.738,38.2138 l -0.7615,2.0076 34.5448,-16.1993 c -8.4566,19.5381 -25.8659,38.9418 -47.7673,55.8669 l -4.6383,-26.8605 0.069,0 c 0.3117,-3.0405 0.293,-5.4498 -0.6231,-7.1304 -0.4579,-0.8404 -1.1968,-1.509 -2.146,-1.7307 -0.9491,-0.2216 -2.0306,-0.024 -3.2537,0.4153 l -0.2077,0.069 -0.1385,0.1384 c -4.6205,4.8015 -4.9905,3.9115 -11.3534,15.4378 -2.7174,1.0918 -4.7127,1.2106 -6.9227,-0.2076 l 0.069,-3.1845 c 21.9695,-18.8635 40.3098,-37.4742 55.8669,-56.8361 z m -248.7358,41.5367 c 0.2621,-0.026 0.5281,-0.044 0.8307,0 0.4035,0.046 0.8328,0.1845 1.3154,0.3461 3.8359,4.705 4.9358,4.2305 11.2841,15.9225 l 0.1385,0.2769 0.2769,0.1384 c 2.7581,1.1476 5.2437,0.8906 7.6151,-0.3461 l -0.069,7.1997 c -8.1979,-4.8284 -16.3553,-10.3501 -24.4374,-16.5455 -0.2904,-2.8391 0.2029,-4.8935 1.1076,-5.9536 0.493,-0.5782 1.1519,-0.9607 1.9384,-1.0384 z m 213.3603,4.2921 c 0.358,-0.046 0.672,-0.044 0.9,0 0.4866,0.1139 0.7615,0.3919 1.0384,0.9 0.553,1.0148 0.7126,3.1824 0.4154,6.0921 -7.7614,5.2381 -15.4504,9.8705 -23.1221,13.984 l 0.1384,-4.846 c 1.244,0.5994 2.4928,0.8186 3.8076,0.7615 0.6573,-0.028 1.3318,-0.1095 2.0076,-0.2769 0.6757,-0.1674 1.3822,-0.4028 2.0768,-0.6923 l 0.2769,-0.1384 0.1385,-0.2769 c 6.5096,-11.8434 6.532,-10.4922 11.0764,-15.1609 0.4676,-0.1537 0.8882,-0.2993 1.2461,-0.3462 z m -217.1678,4.2229 c 17.1876,13.138 34.6996,23.2719 52.4747,30.2526 2.2219,0.8726 4.4152,1.7183 6.6459,2.4922 15.615,5.4176 31.4577,8.3841 47.4903,8.8612 36.694,1.0916 74.4103,-10.9505 113.1184,-36.8985 l 5.8843,33.7832 c -79.5116,42.268 -156.7908,46.2039 -231.4288,-5.7459 z m 21.7375,19.1762 -20.5606,15.4378 4.4998,2.6306 4.4998,-3.5998 8.3073,4.8459 -1.0384,5.6075 4.569,2.6999 4.1537,-24.9913 z m 176.185,4.2921 -4.3614,2.2153 11.2842,20.5607 15.0224,-7.7536 -1.8691,-3.5306 -10.7304,5.5382 z m -176.9465,1.6615 -1.7307,9.138 -5.6767,-3.2537 z m 13.0841,1.7999 -9.8996,21.5299 4.1537,1.7306 6.4382,-13.984 2.4922,17.8608 4.4998,1.9384 9.8303,-21.4607 -4.1536,-1.7999 -6.5767,14.3302 -2.4922,-18.2762 z m 156.455,0.2077 -4.4306,2.0076 10.1765,21.2529 4.4306,-2.0076 z m -12.2533,5.0536 c -1.1862,0.096 -2.4607,0.4405 -3.8768,0.9692 -1.7373,0.6484 -3.1296,1.4556 -4.1537,2.423 -1.0256,0.964 -1.6717,2.0372 -1.9383,3.2537 -0.2652,1.2119 -0.1634,2.346 0.2769,3.4614 0.6864,1.7359 1.9441,2.9795 3.8075,3.669 1.3223,0.4891 3.3452,0.6005 6.0228,0.277 2.0812,-0.2507 3.4124,-0.3935 4.0152,-0.4154 0.8851,-0.02 1.5517,0.1006 2.0076,0.3461 0.4544,0.2476 0.7657,0.5903 0.9692,1.1077 0.3203,0.8081 0.2296,1.6795 -0.2769,2.5614 -0.5065,0.8787 -1.44,1.5969 -2.9075,2.1461 -1.3854,0.5143 -2.6543,0.58 -3.7384,0.2077 -1.0776,-0.3757 -2.0696,-1.2154 -2.9075,-2.5615 l -4.2229,2.0769 c 1.2638,2.3449 2.8797,3.8556 4.9152,4.569 2.0354,0.7115 4.4853,0.5081 7.3381,-0.5538 1.9598,-0.7307 3.537,-1.6082 4.6383,-2.6307 1.0998,-1.0239 1.7912,-2.2318 2.0768,-3.5998 0.2856,-1.3633 0.1509,-2.69 -0.3461,-3.946 -0.5459,-1.3854 -1.3141,-2.3991 -2.2845,-3.1153 -0.9688,-0.7179 -2.1157,-1.1685 -3.3922,-1.3153 -1.2734,-0.1438 -3.1193,-0.041 -5.5382,0.2769 -2.4173,0.3202 -3.947,0.326 -4.7075,0.069 -0.2975,-0.099 -0.5498,-0.2451 -0.7615,-0.4153 -0.2118,-0.1702 -0.3828,-0.3642 -0.4846,-0.6231 -0.224,-0.5647 -0.1429,-1.1425 0.2076,-1.6615 0.5381,-0.8049 1.4454,-1.4428 2.7692,-1.9383 1.2829,-0.4767 2.3482,-0.6019 3.1844,-0.3462 0.6261,0.1929 1.2139,0.6132 1.7307,1.2461 0.1723,0.211 0.3257,0.4292 0.4846,0.6923 l 4.4998,-1.8691 c -0.871,-1.9882 -2.246,-3.3415 -4.1536,-4.0153 -0.9523,-0.3331 -2.0676,-0.4421 -3.2537,-0.3461 z m -124.541,3.3229 -7.1305,22.4991 8.792,2.5614 c 1.7215,0.5114 3.1608,0.7615 4.2921,0.7615 1.5132,-0.02 2.8244,-0.3038 3.8768,-0.8307 1.3886,-0.6942 2.6448,-1.7236 3.7383,-3.1845 0.8899,-1.1993 1.6331,-2.7165 2.2153,-4.569 0.6627,-2.1048 0.952,-3.9525 0.8999,-5.5382 -0.052,-1.5858 -0.4543,-3.0819 -1.1076,-4.3614 -0.6564,-1.2734 -1.6077,-2.2569 -2.8384,-3.046 -0.9184,-0.5871 -2.2995,-1.229 -4.2229,-1.8 z m 103.7034,3.5999 -4.9844,1.3153 -2.8384,25.0605 4.9844,-1.3153 0.5539,-5.6075 9.3457,-2.4922 3.4614,4.6383 5.1229,-1.3153 z m -100.242,1.5922 2.0768,0.6231 c 1.9029,0.5648 3.1292,0.984 3.7383,1.3153 0.8157,0.4433 1.4685,1.0395 1.8692,1.7307 0.4055,0.6865 0.6009,1.5373 0.6231,2.5614 0.022,1.0226 -0.2172,2.418 -0.7616,4.1537 -0.5475,1.7373 -1.1687,3.0325 -1.7999,3.946 -0.6327,0.9105 -1.2316,1.5081 -1.8691,1.7999 -0.6343,0.2882 -1.4043,0.4561 -2.2153,0.4154 -0.6249,-0.034 -1.6059,-0.2367 -2.9076,-0.6231 l -3.4614,-1.0384 z m 16.7532,1.0384 -4.1537,23.1914 18.0685,3.1152 0.7615,-3.9459 -13.361,-2.2846 1.1769,-6.2997 11.9764,2.0768 0.6923,-3.8767 -11.9765,-2.0769 0.9692,-5.1228 12.8072,2.2153 0.6923,-3.946 z m 64.3127,1.9384 c -0.9458,0 -2.0418,0.1248 -3.323,0.2769 l -10.2457,1.1769 2.9768,23.3298 4.8459,-0.5538 -1.2461,-9.7611 0.9692,-0.069 c 1.1156,-0.1338 1.9557,-0.179 2.4922,-0.069 0.5301,0.1118 1.0732,0.4095 1.5923,0.8307 0.516,0.4134 1.5061,1.4523 2.9768,3.1153 l 4.1536,4.6383 5.8152,-0.6923 -3.5306,-4.2229 c -1.3838,-1.6756 -2.4838,-2.8303 -3.2537,-3.4614 -0.77,-0.6295 -1.7181,-1.1268 -2.8384,-1.5923 2.0655,-0.5492 3.583,-1.5037 4.4998,-2.7691 0.9105,-1.2672 1.2593,-2.7467 1.0384,-4.4998 -0.1752,-1.3776 -0.6915,-2.5412 -1.523,-3.5306 -0.8331,-0.9844 -1.8357,-1.6574 -3.046,-1.9384 -0.6067,-0.1398 -1.408,-0.2123 -2.3537,-0.2077 z m 18.0684,1.3846 5.5383,7.6151 -6.369,1.6614 z m -43.8212,0.3461 -9.6227,0.1385 0.4154,23.5375 8.2381,-0.1385 c 3.1084,-0.07 5.075,-0.1767 5.8844,-0.2769 1.297,-0.1578 2.378,-0.5568 3.2537,-1.1769 0.8726,-0.6171 1.5168,-1.4068 2.0076,-2.423 0.4907,-1.0148 0.7798,-2.1162 0.7615,-3.1844 -0.012,-0.6785 -0.1216,-1.2802 -0.3462,-1.8692 -0.1122,-0.2945 -0.256,-0.6284 -0.4153,-0.9 -0.1593,-0.2715 -0.3515,-0.5133 -0.5538,-0.7615 -0.8094,-0.9892 -1.9137,-1.6178 -3.3922,-2.0076 1.0367,-0.4779 1.8281,-1.2183 2.423,-2.146 0.5885,-0.9279 0.9181,-1.9431 0.8999,-3.0461 -0.018,-1.0144 -0.3258,-1.9578 -0.8307,-2.7691 -0.5081,-0.8062 -1.1197,-1.3894 -1.8692,-1.8691 -0.7511,-0.4765 -1.6194,-0.833 -2.5614,-0.9692 -0.942,-0.1398 -2.3781,-0.1724 -4.2921,-0.1385 z m 24.922,2.3538 c 0.8,0.032 1.4446,0.2598 1.9384,0.6923 0.486,0.4308 0.7329,1.0172 0.8307,1.7999 0.088,0.6988 -0.01,1.2934 -0.2769,1.7999 -0.2651,0.5033 -0.6215,0.9167 -1.1769,1.1769 -0.5522,0.2541 -2.0403,0.4837 -4.3613,0.7615 l -3.5999,0.4153 -0.6922,-5.8843 3.7383,-0.4846 c 1.9597,-0.2344 3.2006,-0.2769 3.5998,-0.2769 z m -29.6295,1.5922 2.8383,0 c 2.2957,-0.028 3.6693,-0.044 4.1537,0 0.8189,0.082 1.4479,0.3168 1.8692,0.7615 0.415,0.4452 0.6108,1.0759 0.623,1.7999 0.016,0.7591 -0.2221,1.3958 -0.6923,1.8692 -0.4654,0.4683 -1.1068,0.7231 -1.9384,0.8307 -0.4607,0.062 -1.6308,0.1086 -3.5306,0.1385 l -3.1845,0.069 -0.1384,-5.469 z m -15.3686,8.1689 -0.4154,4.4998 9.0689,0.7615 0.4153,-4.4998 z m 19.5223,1.1769 c 2.2216,-0.036 3.6199,0 4.2921,0.2077 0.6675,0.2113 1.1632,0.6231 1.523,1.1076 0.3598,0.4859 0.611,1.0271 0.6231,1.7307 0.014,0.8316 -0.2442,1.5057 -0.6923,2.0076 -0.4481,0.5017 -1.0096,0.829 -1.7307,0.9692 -0.4686,0.1 -1.6313,0.1769 -3.3922,0.2077 l -4.4998,0.069 -0.069,-6.2305 3.946,-0.069 z"
         style="font-size:medium;font-style:normal;font-variant:normal;font-weight:normal;font-stretch:normal;text-indent:0;text-align:start;text-decoration:none;line-height:normal;letter-spacing:normal;word-spacing:normal;text-transform:none;direction:ltr;block-progression:tb;writing-mode:lr-tb;text-anchor:start;baseline-shift:baseline;color:#000000;fill:#172980;fill-opacity:1;fill-rule:evenodd;stroke:none;stroke-width:12.87992668;marker:none;visibility:visible;display:inline;overflow:visible;enable-background:accumulate;font-family:Sans;-inkscape-font-specification:Sans"
         inkscape:connector-curvature="0"
         class="vui_change_color"
         sodipodi:nodetypes="cccccssscccccccccccssscccccccccccccccscccscccccccsccccccccccccsscccccscccccccccccccccccccccccccccccccccccccccccccccccccccccccccccccccccccccccccccccccccccccccccccccccccccccccccccccccccccccccccccccccccccccccccccccccccccccccccccccccccccccccccccccccccccccccccccccccccccccccccccccccccccccccccccccccccccccccccccccccccccccccccccccccccccccccccccccccccccccccccccccccccccccccccccccccccccccccccccccccccccccccccccccccccccccccccccccccccccsccccccccccccccccccccccccccccccccccccccccccccccccccccccccccccccccccccccscsccccccccccccccccccccccccccccccccccccccccccccccccccccccccccccccccccccccccccccccccccccccccccccccccccccccccccccccccccccccccccccccccccccccccccccccccccccccccccccccccccccccccccccccccccccccccccccccccccccccccc" />
      <path
         inkscape:connector-curvature="0"
         style="color:#000000;fill:#feeb02;fill-opacity:1;fill-rule:nonzero;stroke:none;stroke-width:10;marker:none;visibility:visible;display:inline;overflow:visible;enable-background:accumulate"
         d="m 2972.4335,3054.42 c -0.2776,0.9255 -0.8432,1.3886 -1.6968,1.3886 -0.2879,0 -0.8322,-0.1498 -1.6343,-0.4485 l -0.9596,-0.3551 c -0.8741,-0.3298 -1.6779,-0.4915 -2.4184,-0.4915 -1.4192,0 -2.6953,0.9967 -3.8265,2.9919 l 2.4379,1.6187 c 0.4936,-1.0284 1.1191,-1.5408 1.8801,-1.5408 0.3599,0 0.9042,0.1458 1.6344,0.4447 l 1.1429,0.4486 c 0.8432,0.3393 1.6297,0.511 2.3598,0.511 0.5245,0 1.1326,-0.2089 1.8216,-0.6203 0.6891,-0.4112 1.2706,-1.1339 1.7436,-2.1726 l -2.4847,-1.7747 z m -114.1096,4.9655 c -1.5426,0 -2.8574,0.2528 -3.9475,0.7567 -1.0901,0.4937 -1.8819,1.1829 -2.3755,2.0674 -0.4833,0.8844 -0.7255,2.2841 -0.7255,4.197 0,1.3267 0.1678,2.4151 0.5071,3.2687 0.3496,0.8536 0.7861,1.5216 1.3106,2.0049 0.5245,0.4835 1.5957,1.2592 3.2102,2.3289 1.6146,1.0591 2.6273,1.8176 3.0386,2.2701 0.401,0.4524 0.6008,1.412 0.6008,2.8825 0,0.6684 -0.1079,1.1741 -0.3238,1.5134 -0.2057,0.3395 -0.5237,0.5073 -0.9557,0.5073 -0.4319,0 -0.7341,-0.1298 -0.9088,-0.398 -0.1646,-0.2673 -0.2497,-0.8702 -0.2497,-1.806 l 0,-3.0385 -6.0304,0 0,1.6343 c 0,1.8717 0.189,3.3154 0.5695,4.3335 0.3805,1.0182 1.1829,1.8578 2.4067,2.516 1.2341,0.6583 2.7205,0.9868 4.4585,0.9868 1.5837,0 2.9729,-0.2846 4.1659,-0.8502 1.1929,-0.5759 1.9953,-1.2825 2.4067,-2.1259 0.4216,-0.8432 0.6319,-2.1567 0.6319,-3.9358 0,-2.4474 -0.3766,-4.2201 -1.1273,-5.3205 -0.7507,-1.1002 -2.5711,-2.5108 -5.4609,-4.2282 -1.0079,-0.5965 -1.6174,-1.1036 -1.8333,-1.5252 -0.2263,-0.4216 -0.3394,-1.0511 -0.3394,-1.8841 0,-0.6478 0.097,-1.1283 0.2926,-1.4471 0.2056,-0.3179 0.5024,-0.4797 0.8932,-0.4797 0.36,0 0.6182,0.1178 0.7723,0.3549 0.1542,0.2365 0.2302,0.7861 0.2302,1.65 l 0,1.8528 6.0343,0 0,-0.9868 c 0,-1.985 -0.1981,-3.3899 -0.589,-4.2128 -0.3805,-0.833 -1.167,-1.5222 -2.3599,-2.0674 -1.1827,-0.545 -2.6158,-0.819 -4.3024,-0.819 z m 16.332,0 c -1.5426,0 -2.8574,0.2528 -3.9475,0.7567 -1.0901,0.4937 -1.8818,1.1829 -2.3754,2.0674 -0.4834,0.8844 -0.7256,2.2841 -0.7256,4.197 0,1.3267 0.1678,2.4151 0.5071,3.2687 0.3497,0.8536 0.7901,1.5216 1.3145,2.0049 0.5245,0.4835 1.5918,1.2592 3.2064,2.3289 1.6146,1.0591 2.6272,1.8176 3.0386,2.2701 0.401,0.4524 0.6007,1.412 0.6007,2.8825 0,0.6684 -0.1079,1.1741 -0.3238,1.5134 -0.2057,0.3395 -0.5237,0.5073 -0.9556,0.5073 -0.4319,0 -0.7341,-0.1298 -0.9089,-0.398 -0.1645,-0.2673 -0.2457,-0.8702 -0.2457,-1.806 l 0,-3.0385 -6.0343,0 0,1.6343 c 0,1.8717 0.1929,3.3154 0.5733,4.3335 0.3806,1.0182 1.183,1.8578 2.4068,2.516 1.234,0.6583 2.7165,0.9868 4.4545,0.9868 1.5837,0 2.973,-0.2846 4.1659,-0.8502 1.1929,-0.5759 1.9953,-1.2825 2.4067,-2.1259 0.4216,-0.8432 0.6319,-2.1567 0.6319,-3.9358 0,-2.4474 -0.3726,-4.2201 -1.1234,-5.3205 -0.7507,-1.1002 -2.5711,-2.5108 -5.4609,-4.2282 -1.0078,-0.5965 -1.6212,-1.1036 -1.8372,-1.5252 -0.2263,-0.4216 -0.3393,-1.0511 -0.3393,-1.8841 -10e-5,-0.6478 0.097,-1.1283 0.2925,-1.4471 0.2057,-0.3179 0.5063,-0.4797 0.8971,-0.4797 0.36,0 0.6143,0.1178 0.7685,0.3549 0.1543,0.2365 0.234,0.7861 0.234,1.65 l 0,1.8528 6.0304,0 0,-0.9868 c 0,-1.985 -0.1943,-3.3899 -0.5851,-4.2128 -0.3805,-0.833 -1.1669,-1.5222 -2.3599,-2.0674 -1.1826,-0.545 -2.6197,-0.819 -4.3063,-0.819 z m 17.1512,0 c -1.4089,0 -2.6425,0.2314 -3.7017,0.6942 -1.0593,0.4629 -1.9043,1.1294 -2.5316,1.9933 -0.617,0.8638 -0.9843,1.818 -1.1078,2.8669 -0.113,1.0387 -0.1715,2.8114 -0.1715,5.3206 l 0,4.275 c -10e-5,2.5711 0.064,4.3702 0.1871,5.3987 0.1234,1.0283 0.5067,1.9809 1.1546,2.8551 0.6479,0.8741 1.5035,1.5316 2.5627,1.9738 1.0696,0.4319 2.2712,0.6474 3.6081,0.6474 1.409,0 2.6425,-0.2314 3.7018,-0.6942 1.0592,-0.4627 1.8988,-1.1256 2.5159,-1.9893 0.6273,-0.864 0.9986,-1.8166 1.1117,-2.8553 0.1234,-1.0489 0.1833,-2.8268 0.1833,-5.3362 l 0,-4.275 c 0,-2.5709 -0.06,-4.3702 -0.1833,-5.3985 -0.1234,-1.0285 -0.5106,-1.9773 -1.1585,-2.8515 -0.6479,-0.8741 -1.5049,-1.53 -2.5744,-1.962 -1.0593,-0.4421 -2.2595,-0.663 -3.5965,-0.663 z m 17.3111,0 c -1.4089,0 -2.6585,0.2422 -3.7486,0.7255 -1.0798,0.473 -1.9262,1.129 -2.5432,1.962 -0.6067,0.833 -0.9727,1.7006 -1.0961,2.6057 -0.1232,0.8947 -0.1871,2.2414 -0.1871,4.041 l 0,7.2981 c 0,2.4477 0.2035,4.2801 0.6046,5.5039 0.4011,1.2135 1.2155,2.1663 2.4496,2.8553 1.2341,0.689 2.8056,1.0335 4.7081,1.0335 1.8305,0 3.3662,-0.4044 4.6106,-1.2168 1.2546,-0.8125 2.0623,-1.7599 2.4223,-2.8398 0.3701,-1.0798 0.5539,-2.9108 0.5539,-5.4921 l 0,-0.9712 -6.4946,0 0,3.1321 c 0,1.3679 -0.076,2.2354 -0.2302,2.6057 -0.144,0.3703 -0.4567,0.554 -0.94,0.554 -0.5039,0 -0.8273,-0.1837 -0.9713,-0.554 -0.144,-0.3703 -0.2184,-1.1619 -0.2184,-2.3754 l 0,-11.6006 c 0,-1.2649 0.074,-2.0886 0.2184,-2.4692 0.144,-0.3797 0.4833,-0.5694 1.0181,-0.5694 0.473,0 0.775,0.1618 0.9088,0.4797 0.144,0.3086 0.2146,1.095 0.2146,2.36 l 0,4.3492 6.4946,0 0,-2.3756 c 0,-2.3344 -0.1944,-4.0524 -0.5851,-5.1526 -0.3908,-1.1108 -1.2092,-2.0369 -2.4535,-2.7774 -1.2444,-0.7404 -2.8226,-1.1116 -4.7354,-1.1116 z m 42.6497,0 c -1.4089,0 -2.6584,0.2422 -3.7485,0.7255 -1.0799,0.473 -1.9262,1.129 -2.5433,1.962 -0.6067,0.833 -0.9726,1.7006 -1.0961,2.6057 -0.1232,0.8947 -0.1871,2.2414 -0.1871,4.041 l 0,7.2981 c 0,2.1597 0.1398,3.8137 0.4174,4.9655 0.2879,1.1415 0.9226,2.1117 1.8996,2.9138 0.9873,0.7919 2.3605,1.2718 4.1191,1.4355 l 0,1.5446 0.3979,0 c 0.4319,0 0.7538,0.082 0.9595,0.2459 0.2159,0.1757 0.3238,0.4329 0.3238,0.7723 0,0.3085 -0.08,0.5404 -0.2341,0.6942 -0.144,0.1537 -0.3702,0.2302 -0.6787,0.2302 -0.3702,0 -0.6244,-0.2157 -0.7684,-0.6474 l -2.2858,0 c 0.4422,1.6248 1.4655,2.4379 3.0698,2.4379 0.8844,0 1.6482,-0.2902 2.2858,-0.866 0.6376,-0.5658 0.9557,-1.239 0.9557,-2.0207 0,-0.6273 -0.2316,-1.1236 -0.6944,-1.4939 -0.4627,-0.3604 -0.9737,-0.5422 -1.529,-0.5422 l 0,-0.2926 c 1.8922,-0.1138 3.4052,-0.6081 4.5365,-1.4822 1.1415,-0.8844 1.8573,-1.8438 2.1453,-2.8825 0.2879,-1.0491 0.4291,-2.7722 0.4291,-5.1684 l 0,-0.9712 -6.4946,0 0,3.1321 c 0,1.3679 -0.076,2.2354 -0.2302,2.6057 -0.1439,0.3703 -0.4567,0.554 -0.94,0.554 -0.5039,0 -0.8273,-0.1837 -0.9713,-0.554 -0.144,-0.3703 -0.2184,-1.1619 -0.2184,-2.3754 l 0,-11.6006 c 0,-1.2649 0.075,-2.0886 0.2184,-2.4692 0.144,-0.3797 0.4833,-0.5694 1.0181,-0.5694 0.4731,0 0.7752,0.1618 0.9088,0.4797 0.144,0.3086 0.2146,1.095 0.2146,2.36 l 0,4.3492 6.4946,0 0,-2.3756 c 0,-2.3344 -0.1943,-4.0524 -0.5851,-5.1526 -0.3908,-1.1108 -1.2092,-2.0369 -2.4535,-2.7774 -1.2444,-0.7404 -2.8226,-1.1116 -4.7354,-1.1116 z m 33.491,0 c -1.4089,0 -2.6425,0.2314 -3.7017,0.6942 -1.0593,0.4629 -1.9043,1.1294 -2.5316,1.9933 -0.617,0.8638 -0.9882,1.818 -1.1117,2.8669 -0.113,1.0387 -0.1677,2.8114 -0.1677,5.3206 l 0,4.275 c 0,2.5711 0.06,4.3702 0.1833,5.3987 0.1234,1.0283 0.5106,1.9809 1.1585,2.8551 0.6479,0.8741 1.4996,1.5316 2.5588,1.9738 1.0696,0.4319 2.2751,0.6474 3.612,0.6474 1.409,0 2.6425,-0.2314 3.7018,-0.6942 1.0592,-0.4627 1.8988,-1.1256 2.5159,-1.9893 0.6273,-0.864 0.9947,-1.8166 1.1078,-2.8553 0.1232,-1.0489 0.1871,-2.8268 0.1871,-5.3362 l 0,-4.275 c 0,-2.5709 -0.064,-4.3702 -0.1871,-5.3985 -0.1235,-1.0285 -0.5067,-1.9773 -1.1546,-2.8515 -0.6479,-0.8741 -1.5088,-1.53 -2.5784,-1.962 -1.0592,-0.4421 -2.2555,-0.663 -3.5925,-0.663 z m 56.0094,0 c -1.4089,0 -2.6584,0.2422 -3.7485,0.7255 -1.0798,0.473 -1.9262,1.129 -2.5432,1.962 -0.6068,0.833 -0.9727,1.7006 -1.0961,2.6057 -0.1234,0.8947 -0.1833,2.2414 -0.1833,4.041 l 0,7.2981 c 0,2.4477 0.1997,4.2801 0.6007,5.5039 0.401,1.2135 1.2194,2.1663 2.4535,2.8553 1.234,0.689 2.8016,1.0335 4.7041,1.0335 1.8306,0 3.3662,-0.4044 4.6106,-1.2168 1.2547,-0.8125 2.0624,-1.7599 2.4223,-2.8398 0.3703,-1.0798 0.5578,-2.9108 0.5578,-5.4921 l 0,-0.9712 -6.4946,0 0,3.1321 c 0,1.3679 -0.08,2.2354 -0.234,2.6057 -0.144,0.3703 -0.4567,0.554 -0.9401,0.554 -0.5039,0 -0.8272,-0.1837 -0.9712,-0.554 -0.144,-0.3703 -0.2146,-1.1619 -0.2146,-2.3754 l 0,-11.6006 c 0,-1.2649 0.071,-2.0886 0.2146,-2.4692 0.144,-0.3797 0.4833,-0.5694 1.018,-0.5694 0.4731,0 0.7753,0.1618 0.9089,0.4797 0.144,0.3086 0.2184,1.095 0.2184,2.36 l 0,4.3492 6.4946,0 0,-2.3756 c 0,-2.3344 -0.1981,-4.0524 -0.589,-5.1526 -0.3908,-1.1108 -1.2052,-2.0369 -2.4496,-2.7774 -1.2443,-0.7404 -2.8265,-1.1116 -4.7393,-1.1116 z m 26.5401,0 c -1.409,0 -2.6425,0.2314 -3.7018,0.6942 -1.0592,0.4629 -1.9042,1.1294 -2.5315,1.9933 -0.617,0.8638 -0.9843,1.818 -1.1078,2.8669 -0.113,1.0387 -0.1715,2.8114 -0.1715,5.3206 l 0,4.275 c 0,2.5711 0.064,4.3702 0.1871,5.3987 0.1234,1.0283 0.5067,1.9809 1.1546,2.8551 0.6479,0.8741 1.5035,1.5316 2.5627,1.9738 1.0696,0.4319 2.2712,0.6474 3.6081,0.6474 1.4089,0 2.6425,-0.2314 3.7017,-0.6942 1.0593,-0.4627 1.8989,-1.1256 2.516,-1.9893 0.6273,-0.864 0.9986,-1.8166 1.1117,-2.8553 0.1234,-1.0489 0.1833,-2.8268 0.1833,-5.3362 l 0,-4.275 c 0,-2.5709 -0.06,-4.3702 -0.1833,-5.3985 -0.1235,-1.0285 -0.5107,-1.9773 -1.1585,-2.8515 -0.6479,-0.8741 -1.5049,-1.53 -2.5745,-1.962 -1.0592,-0.4421 -2.2594,-0.663 -3.5964,-0.663 z m -230.2243,0.5266 -3.2999,24.9758 6.7247,0 0.3862,-4.4896 2.3286,0 0.3238,4.4896 6.6506,0 -3.7173,-24.9758 -9.3967,0 z m 81.6485,0 0,24.9758 6.4945,0 0,-24.9758 -6.4945,0 z m 10.9179,0 -3.3,24.9758 6.7247,0 0.3862,-4.4896 2.3287,0 0.3237,4.4896 6.6507,0 -3.7174,-24.9758 -9.3966,0 z m 33.5534,0 -3.3039,24.9758 6.7247,0 0.3862,-4.4896 2.3287,0 0.3276,4.4896 6.6468,0 -3.7174,-24.9758 -9.3927,0 z m 37.0367,0 0,24.9758 5.4297,0 0,-11.3547 3.3779,11.3547 5.6911,0 0,-24.9758 -5.4297,0 0,11.2455 -3.6393,-11.2455 -5.4297,0 z m 18.9103,0 -3.2999,24.9758 6.7247,0 0.3861,-4.4896 2.3287,0 0.3238,4.4896 6.6506,0 -3.7173,-24.9758 -9.3967,0 z m 31.7318,0 0,24.9758 6.4946,0 0,-24.9758 -6.4946,0 z m 26.3489,0 0,24.9758 5.4297,0 0,-11.3547 3.378,11.3547 5.691,0 0,-24.9758 -5.4297,0 0,11.2455 -3.6393,-11.2455 -5.4297,0 z m 18.9104,0 -3.3,24.9758 6.7247,0 0.3862,-4.4896 2.3287,0 0.3238,4.4896 6.6505,0 -3.7173,-24.9758 -9.3966,0 z m 14.2295,0 0,24.9758 10.4421,0 0,-5.0007 -3.9475,0 0,-19.9751 -6.4946,0 z m -219.0332,3.7017 c 0.401,0 0.6645,0.1658 0.7879,0.4953 0.1336,0.3189 0.1989,1.0575 0.1989,2.2196 l 0,11.4755 c 0,1.4707 -0.06,2.4022 -0.1833,2.793 -0.1234,0.3915 -0.4082,0.5852 -0.8504,0.5852 -0.4319,0 -0.7074,-0.1678 -0.8308,-0.5073 -0.113,-0.3393 -0.1715,-1.2334 -0.1715,-2.6835 l 0,-11.6629 c 0,-1.2855 0.087,-2.0562 0.2613,-2.3131 0.1851,-0.268 0.4486,-0.4018 0.7879,-0.4018 z m 93.4518,0 c 0.401,0 0.6606,0.1658 0.784,0.4953 0.1338,0.3189 0.2028,1.0575 0.2028,2.2196 l 0,11.4755 c 0,1.4707 -0.064,2.4022 -0.1871,2.793 -0.1234,0.3915 -0.4042,0.5852 -0.8464,0.5852 -0.432,0 -0.7114,-0.1678 -0.8348,-0.5073 -0.1132,-0.3393 -0.1677,-1.2334 -0.1677,-2.6835 l 0,-11.6629 c 0,-1.2855 0.087,-2.0562 0.2613,-2.3131 0.1851,-0.268 0.4486,-0.4018 0.7879,-0.4018 z m 82.5495,0 c 0.401,0 0.6645,0.1658 0.7879,0.4953 0.1336,0.3189 0.1989,1.0575 0.1989,2.2196 l 0,11.4755 c 0,1.4707 -0.06,2.4022 -0.1833,2.793 -0.1235,0.3915 -0.4082,0.5852 -0.8504,0.5852 -0.4319,0 -0.7074,-0.1678 -0.8308,-0.5073 -0.1131,-0.3393 -0.1716,-1.2334 -0.1716,-2.6835 l 0,-11.6629 c 0,-1.2855 0.087,-2.0562 0.2614,-2.3131 0.1851,-0.268 0.4485,-0.4018 0.7879,-0.4018 z m -225.2861,1.8801 c 0.3291,4.1546 0.6579,7.649 0.9869,10.4772 l -2.2234,0 c 0.1646,-2.2111 0.5784,-5.7054 1.2365,-10.4772 z m 92.5664,0 c 0.3291,4.1546 0.6578,7.649 0.9869,10.4772 l -2.2234,0 c 0.1645,-2.2111 0.5783,-5.7054 1.2365,-10.4772 z m 33.5495,0 c 0.3291,4.1546 0.6578,7.649 0.9869,10.4772 l -2.2195,0 c 0.1645,-2.2111 0.5744,-5.7054 1.2326,-10.4772 z m 55.9509,0 c 0.3291,4.1546 0.6578,7.649 0.9869,10.4772 l -2.2234,0 c 0.1646,-2.2111 0.5784,-5.7054 1.2365,-10.4772 z m 76.9911,0 c 0.3291,4.1546 0.6578,7.649 0.9869,10.4772 l -2.2234,0 c 0.1646,-2.2111 0.5783,-5.7054 1.2365,-10.4772 z m -167.3847,25.4868 c -1.2033,0 -2.2971,0.1997 -3.2844,0.6008 -0.9873,0.401 -1.795,0.9985 -2.4223,1.7904 -0.6273,0.7815 -1.0464,1.6173 -1.2521,2.512 -0.1953,0.8843 -0.2926,2.1765 -0.2926,3.8732 l 0,7.7273 c 0,2.2418 0.1716,3.9278 0.511,5.0592 0.3394,1.121 1.0393,2.047 2.0986,2.7772 1.0592,0.7301 2.3247,1.1166 3.7953,1.1585 0,0.9359 0.081,1.5826 0.2458,1.9424 0.1747,0.3601 0.5035,0.6279 0.9868,0.8037 0.4834,0.1857 1.3177,0.277 2.5003,0.277 l 4.9032,0 0,-3.0231 -2.2507,0 c -0.7508,0 -1.2298,-0.07 -1.4355,-0.2145 -0.1953,-0.1438 -0.3086,-0.4941 -0.3393,-1.0493 1.0181,-0.2468 1.8311,-0.6021 2.4379,-1.0648 0.617,-0.4732 1.0322,-1.1078 1.2482,-1.8997 0.2159,-0.7919 0.3238,-2.2957 0.3238,-4.5169 l 0,-8.1174 c 0,-1.6145 -0.087,-2.8267 -0.2614,-3.6391 -0.1646,-0.8229 -0.5305,-1.6145 -1.0961,-2.3756 -0.5553,-0.7611 -1.4017,-1.3864 -2.5432,-1.8801 -1.1312,-0.4937 -2.4233,-0.7412 -3.8733,-0.7412 z m 34.7938,0 c -1.4089,0 -2.6425,0.2315 -3.7018,0.6944 -1.0592,0.4628 -1.9042,1.1254 -2.5315,1.9894 -0.617,0.8637 -0.9882,1.818 -1.1117,2.8669 -0.1132,1.0387 -0.1677,2.8151 -0.1677,5.3243 l 0,4.2713 c 0,2.5709 0.06,4.3701 0.1833,5.3984 0.1234,1.0284 0.5106,1.9812 1.1585,2.8553 0.6479,0.8742 1.4996,1.5316 2.5588,1.9738 1.0696,0.432 2.2751,0.6475 3.612,0.6475 1.4089,0 2.6425,-0.2315 3.7018,-0.6944 1.0592,-0.4628 1.8988,-1.125 2.5159,-1.9894 0.6273,-0.8637 0.9947,-1.8126 1.1078,-2.8513 0.1232,-1.0489 0.1871,-2.8307 0.1871,-5.3399 l 0,-4.2713 c 0,-2.5709 -0.064,-4.3701 -0.1871,-5.3984 -0.1235,-1.0284 -0.5067,-1.9812 -1.1546,-2.8553 -0.6479,-0.8742 -1.5088,-1.5262 -2.5784,-1.9582 -1.0592,-0.4422 -2.2555,-0.6631 -3.5925,-0.6631 z m -91.1115,0.5227 0,24.9759 8.1914,0 c 1.5529,0 2.7159,-0.082 3.4872,-0.2458 0.7713,-0.1758 1.418,-0.4755 1.9425,-0.8971 0.5245,-0.432 0.8904,-1.0242 1.0961,-1.7749 0.2159,-0.7609 0.3238,-2.2593 0.3238,-4.5013 l 0,-8.7491 c 0,-2.3654 -0.07,-3.9489 -0.2146,-4.7509 -0.144,-0.8125 -0.5045,-1.5458 -1.0805,-2.2039 -0.5759,-0.6582 -1.4208,-1.132 -2.5315,-1.4199 -1.1004,-0.2872 -3.2175,-0.433 -6.3541,-0.433 l -4.8603,0 z m 17.4711,0 0,24.9759 11.2611,0 0,-4.9968 -4.7666,0 0,-5.4921 4.0567,0 0,-4.751 -4.0567,0 0,-4.7354 4.3337,0 0,-5.0006 -10.8282,0 z m 18.6724,0 0,24.9759 11.2612,0 0,-4.9968 -4.7666,0 0,-5.4921 4.0566,0 0,-4.751 -4.0566,0 0,-4.7354 4.3336,0 0,-5.0006 -10.8282,0 z m 30.2651,0 0,14.7796 c 0,2.8177 0.053,4.6701 0.156,5.5546 0.1029,0.8741 0.4369,1.7045 1.0025,2.4964 0.5656,0.7919 1.4173,1.4371 2.5588,1.9308 1.1415,0.4935 2.4602,0.7372 3.9514,0.7372 1.3471,0 2.5116,-0.2049 3.4988,-0.6163 0.9976,-0.4216 1.8,-1.0312 2.4067,-1.8334 0.6068,-0.8124 0.9727,-1.5987 1.0961,-2.3598 0.1233,-0.7713 0.1872,-2.106 0.1872,-3.9983 l 0,-16.6908 -6.4946,0 0,18.4034 c 0,1.2442 -0.064,2.036 -0.1872,2.3754 -0.113,0.3297 -0.3726,0.4954 -0.784,0.4954 -0.3599,0 -0.6021,-0.1497 -0.7255,-0.4485 -0.1131,-0.3086 -0.1716,-1.0086 -0.1716,-2.0986 l 0,-18.7271 -6.4946,0 z m 33.5144,0 0,5.0006 3.8383,0 0,19.9753 6.4946,0 0,-19.9753 3.8577,0 0,-5.0006 -14.1906,0 z m 15.6728,0 0,24.9759 11.2612,0 0,-4.9968 -4.7666,0 0,-5.4921 4.0567,0 0,-4.751 -4.0567,0 0,-4.7354 4.3336,0 0,-5.0006 -10.8282,0 z m 13.1452,0 0,24.9759 6.4907,0 0,-11.2612 c 0.8947,0 1.4482,0.1618 1.6539,0.4797 0.2159,0.3189 0.3237,1.144 0.3237,2.4808 l 0,8.3007 6.0305,0 0,-6.5881 c 0,-2.0157 -0.059,-3.2444 -0.1716,-3.6861 -0.1028,-0.4528 -0.373,-0.9477 -0.8152,-1.4823 -0.4422,-0.5348 -1.3085,-0.9606 -2.594,-1.2796 1.4192,-0.1338 2.372,-0.5328 2.8553,-1.2012 0.4834,-0.6685 0.7255,-1.9766 0.7255,-3.9202 0,-2.1288 -0.3446,-3.6751 -1.0336,-4.6417 -0.6788,-0.977 -1.5624,-1.5852 -2.6525,-1.8216 -1.0798,-0.2373 -3.153,-0.3551 -6.2176,-0.3551 l -4.595,0 z m 18.8168,0 -3.3039,24.9759 6.7287,0 0.3822,-4.4897 2.3326,0 0.3238,4.4897 6.6467,0 -3.7174,-24.9759 -9.3927,0 z m 14.2257,0 0,24.9759 6.4945,0 0,-10.0597 1.7436,0 c 1.4192,0 2.5663,-0.1938 3.4404,-0.5852 0.8844,-0.3908 1.4925,-0.951 1.8216,-1.6812 0.3291,-0.7301 0.4915,-1.8931 0.4915,-3.4872 l 0,-2.1727 c 0,-1.5631 -0.087,-2.7155 -0.2614,-3.4558 -0.1645,-0.7509 -0.4879,-1.3908 -0.9712,-1.9152 -0.4731,-0.5245 -1.189,-0.9239 -2.1454,-1.2015 -0.9461,-0.2776 -2.3034,-0.4174 -4.0723,-0.4174 l -6.5413,0 z m 15.86,0 0,24.9759 6.4946,0 0,-24.9759 -6.4946,0 z m 10.9179,0 -3.2999,24.9759 6.7247,0 0.3862,-4.4897 2.3286,0 0.3238,4.4897 6.6506,0 -3.7173,-24.9759 -9.3967,0 z m -131.9512,3.7017 c 0.4011,0 0.6645,0.1657 0.7879,0.4955 0.1336,0.3187 0.1989,1.0572 0.1989,2.2194 l 0,11.4797 c 0,1.4705 -0.06,2.4019 -0.1833,2.7928 -0.1234,0.3914 -0.4082,0.5851 -0.8503,0.5851 -0.432,0 -0.7075,-0.1717 -0.8309,-0.511 -0.113,-0.3393 -0.1715,-1.2337 -0.1715,-2.6836 l 0,-11.663 c 0,-1.2856 0.087,-2.0561 0.2613,-2.3131 0.1851,-0.268 0.4486,-0.4018 0.7879,-0.4018 z m 34.5325,0 c 0.401,0 0.6606,0.1657 0.784,0.4955 0.1338,0.3187 0.2028,1.0572 0.2028,2.2194 l 0,11.4797 c 0,1.4705 -0.064,2.4019 -0.1871,2.7928 -0.1234,0.3914 -0.4042,0.5851 -0.8464,0.5851 -0.432,0 -0.7114,-0.1717 -0.8348,-0.511 -0.1132,-0.3393 -0.1677,-1.2337 -0.1677,-2.6836 l 0,-11.663 c 0,-1.2856 0.087,-2.0561 0.2613,-2.3131 0.1851,-0.268 0.4486,-0.4018 0.7879,-0.4018 z m -84.6481,0.5733 c 0.7096,0 1.194,0.076 1.4511,0.2303 0.2571,0.1438 0.4196,0.3755 0.4915,0.6942 0.072,0.319 0.1092,1.0455 0.1092,2.1767 l 0,9.7009 c 0,1.666 -0.1078,2.6893 -0.3238,3.0698 -0.2159,0.3702 -0.7921,0.554 -1.728,0.554 l 0,-16.4259 z m 128.7371,0 c 0.7507,0 1.267,0.1239 1.5447,0.3707 0.288,0.2469 0.4329,0.7645 0.4329,1.5564 l 0,1.373 c 0,1.1004 -0.1501,1.7525 -0.4485,1.9582 -0.2879,0.1937 -0.7989,0.2924 -1.5291,0.2924 l 0,-5.5507 z m 33.0463,0 c 0.8433,0 1.3982,0.1299 1.6656,0.3863 0.2674,0.257 0.4018,0.8118 0.4018,1.6654 l 0,2.0519 c 0,0.9256 -0.1184,1.5351 -0.355,1.8333 -0.2262,0.2872 -0.6361,0.433 -1.2326,0.433 -0.1336,0 -0.2946,4e-4 -0.4798,-0.02 l 0,-6.3503 z m -15.7547,1.3068 c 0.3291,4.1546 0.6578,7.6452 0.9869,10.4731 l -2.2195,0 c 0.1646,-2.211 0.5744,-5.7014 1.2326,-10.4731 z m 41.0076,0 c 0.3291,4.1546 0.6577,7.6452 0.9868,10.4731 l -2.2233,0 c 0.1645,-2.211 0.5783,-5.7014 1.2365,-10.4731 z"
         id="path3011" />
      <path
         inkscape:connector-curvature="0"
         style="fill:#e30318;fill-opacity:1;fill-rule:evenodd;stroke:none"
         d="m 2946.3421,3317.3513 c -1.4373,-0.02 -2.8705,0.036 -4.2946,0.1478 -3.7975,0.297 -7.5223,1.0331 -11.0467,2.1882 -14.0973,4.6208 -24.8129,15.6338 -24.5233,32.0399 a 1.7228646,1.7228646 0 0 1 -0,0.1398 c -0.6711,10.3341 6.0437,19.7488 18.5593,30.5225 12.2997,10.588 30.0798,22.3398 50.7085,37.1264 20.6283,-14.7858 38.4093,-26.539 50.7084,-37.1264 12.5156,-10.7737 19.2272,-20.1884 18.5554,-30.5225 a 1.7228646,1.7228646 0 0 1 -0,-0.1398 c 0.2902,-16.4067 -10.4222,-27.4191 -24.5195,-32.0399 -12.4499,-4.0807 -27.4122,-2.9242 -39.1586,4.361 l 3.7368,-0.1957 a 1.7228646,1.7228646 0 0 1 1.3379,2.9098 l -4.279,4.5053 c 1.4432,5.6227 2.0872,11.8189 -0.121,16.726 -0.7115,5.8752 0.2327,12.7431 3.4014,17.8534 a 1.7228646,1.7228646 0 0 1 0.1052,1.6149 c -1.8522,4.1232 -4.2216,6.6606 -7.2591,7.4229 -3.0375,0.7623 -6.2113,-0.2386 -9.7204,-1.9544 a 1.7228646,1.7228646 0 0 1 -0.9518,-1.3261 c -0.3433,-2.6546 -1.8859,-6.0377 -2.5354,-9.5137 -6.003,-4.7838 -12.0938,-8.8992 -15.704,-15.7312 a 1.7228646,1.7228646 0 0 1 -0.117,-0.2693 c -1.4992,-4.5976 0.1897,-9.2002 4.4116,-12.8098 a 1.7237309,1.7237309 0 1 1 2.239,2.6213 c -3.5219,3.0108 -4.4136,5.7038 -3.3741,9.0144 3.2145,5.9477 8.9022,9.8333 15.1267,14.8341 a 1.7228646,1.7228646 0 0 1 0.628,1.1078 c 0.354,2.5748 1.7904,5.8672 2.4574,9.233 2.8505,1.3051 5.1024,1.8521 6.7014,1.4509 1.6008,-0.4018 3.0791,-1.8384 4.5793,-4.8796 -3.2592,-5.8448 -4.1674,-12.9226 -3.4092,-19.1249 a 1.7228646,1.7228646 0 0 1 0.1678,-0.5578 c 1.9103,-3.8297 1.4464,-10.191 -0.117,-15.8289 a 1.7228646,1.7228646 0 0 1 0.4095,-1.6461 l 1.8879,-1.9853 -5.0903,0.2612 a 1.7228646,1.7228646 0 0 1 -1.6266,-0.8659 c -7.9538,-6.3953 -17.9829,-9.4724 -27.8662,-9.5643 z m 55.674,32.2972 c 3.453,0 6.5063,2.5304 6.5063,5.9058 0,2.8235 -2.1498,5.0307 -4.8719,5.6832 l 0,6.5608 a 1.7228646,1.7228646 0 0 1 0,1.6656 l 0,6.994 a 1.7228646,1.7228646 0 0 1 -1.7397,1.7239 l -15.5792,-0.1638 -4.9539,10.7971 0.277,0.1218 a 1.7228646,1.7228646 0 1 1 -1.3691,3.1595 l -6.5687,-2.8435 a 1.7228646,1.7228646 0 0 1 0.7021,-3.3155 1.7228646,1.7228646 0 0 1 0.667,0.1518 l 3.1322,1.3575 5.4493,-11.8814 a 1.7228646,1.7228646 0 0 1 1.5836,-1.0063 l 14.9551,0.1558 0,-4.3881 -10.7346,-0.1478 a 1.7242841,1.7242841 0 1 1 0.047,-3.4481 l 10.6878,0.1518 0,-5.691 c -2.6397,-0.7038 -4.6964,-2.8727 -4.6964,-5.6363 0,-3.3754 3.0522,-5.9058 6.5063,-5.9058 z m 5.734,18.302 a 1.7228646,1.7228646 0 0 1 1.2404,0.511 c 3.8397,3.7842 6.1917,7.8492 6.6662,12.0647 0.4745,4.2156 -1.0206,8.4425 -4.322,12.2285 a 1.7228646,1.7228646 0 0 1 -0.2808,0.2614 c -4.7795,3.4952 -9.73,4.696 -14.3076,3.8499 -4.5776,-0.846 -8.6732,-3.6594 -12.053,-7.7311 a 1.7228646,1.7228646 0 1 1 2.6486,-2.1999 c 3.0054,3.6206 6.435,5.8812 10.0285,6.5452 3.5402,0.6545 7.3521,-0.2037 11.4679,-3.1556 2.7146,-3.1803 3.7471,-6.2718 3.3936,-9.4123 -0.3598,-3.1963 -2.1979,-6.5854 -5.6598,-9.9973 a 1.7228646,1.7228646 0 0 1 1.178,-2.9645 z"
         id="path5034" />
    </g>
  </g>
</svg>
