<?xml version="1.0" encoding="UTF-8" standalone="no"?>
<!-- Created with Inkscape (http://www.inkscape.org/) -->

<svg
   xmlns:dc="http://purl.org/dc/elements/1.1/"
   xmlns:cc="http://creativecommons.org/ns#"
   xmlns:rdf="http://www.w3.org/1999/02/22-rdf-syntax-ns#"
   xmlns:svg="http://www.w3.org/2000/svg"
   xmlns="http://www.w3.org/2000/svg"
   xmlns:sodipodi="http://sodipodi.sourceforge.net/DTD/sodipodi-0.dtd"
   xmlns:inkscape="http://www.inkscape.org/namespaces/inkscape"
   version="1.1"
   width="220"
   height="269.23935"
   id="svg2"
   inkscape:version="0.48.4 r9939"
   sodipodi:docname="buscar-centro.svg">
  <sodipodi:namedview
     pagecolor="#ffffff"
     bordercolor="#666666"
     borderopacity="1"
     objecttolerance="10"
     gridtolerance="10"
     guidetolerance="10"
     inkscape:pageopacity="0"
     inkscape:pageshadow="2"
     inkscape:window-width="1920"
     inkscape:window-height="1017"
     id="namedview6"
     showgrid="true"
     inkscape:snap-bbox="true"
     fit-margin-top="0"
     fit-margin-left="0"
     fit-margin-right="0"
     fit-margin-bottom="0"
     inkscape:zoom="1.8782524"
     inkscape:cx="176.45587"
     inkscape:cy="164.37365"
     inkscape:window-x="-5"
     inkscape:window-y="26"
     inkscape:window-maximized="1"
     inkscape:current-layer="svg2">
    <inkscape:grid
       type="xygrid"
       id="grid3034"
       empspacing="5"
       visible="true"
       enabled="true"
       snapvisiblegridlinesonly="true"
       originx="101px"
       originy="126.00004px" />
  </sodipodi:namedview>
  <defs
     id="defs4" />
  <metadata
     id="metadata7">
    <rdf:RDF>
      <cc:Work
         rdf:about="">
        <dc:format>image/svg+xml</dc:format>
        <dc:type
           rdf:resource="http://purl.org/dc/dcmitype/StillImage" />
        <dc:title />
      </cc:Work>
    </rdf:RDF>
  </metadata>
  <path
     sodipodi:nodetypes="cccccc"
     id="path4770"
     d="m 0,269.23934 220,0 0,-100.00035 0,-99.999786 -220,0 z"
     style="color:#000000;fill:#ffcc00;fill-opacity:1;fill-rule:nonzero;stroke:none;stroke-width:1.49999988;marker:none;visibility:visible;display:inline;overflow:visible;enable-background:accumulate"
     inkscape:connector-curvature="0" />
  <g
     id="g3288">
    <path
       d="m 19.99994,109.83501 0,-19.939694 8.319282,0 0,2.769401 -4.287033,0 0,5.428027 3.035264,0 0,2.835866 -3.035264,0 0,6.137 4.287033,0 0,2.7694 -8.319282,0"
       style="font-size:22.68693733px;font-style:normal;font-variant:normal;font-weight:bold;font-stretch:normal;text-align:start;line-height:125%;letter-spacing:0px;word-spacing:0px;writing-mode:lr-tb;text-anchor:start;color:#000000;fill:#7d682c;fill-opacity:1;fill-rule:nonzero;stroke:none;marker:none;visibility:visible;display:inline;overflow:visible;enable-background:accumulate;font-family:Oswald;-inkscape-font-specification:'Oswald, Bold'"
       id="path3104"
       inkscape:connector-curvature="0" />
    <path
       d="m 29.604224,109.83501 0,-14.456279 3.733153,0 0,1.019139 c 0.354479,-0.406165 0.77912,-0.731107 1.273925,-0.974829 0.502178,-0.243693 1.022825,-0.365546 1.561943,-0.365561 0.509561,1.5e-5 0.963743,0.162486 1.362545,0.487415 0.40617,0.317572 0.705265,0.712673 0.897286,1.185304 0.199387,0.465272 0.299085,0.948993 0.299096,1.451166 l 0,11.653645 -3.733154,0 0,-11.000066 c -6e-6,-0.64249 -0.206788,-0.96374 -0.620346,-0.963752 -0.04432,1.2e-5 -0.09232,0.0074 -0.144009,0.02216 -0.04432,0.0074 -0.09232,0.02586 -0.144008,0.05539 -0.04432,0.02217 -0.08493,0.04432 -0.121854,0.06647 -0.03693,0.01478 -0.08124,0.04432 -0.132931,0.08862 -0.0517,0.04432 -0.09232,0.07756 -0.121854,0.0997 -0.02216,0.02217 -0.05909,0.06279 -0.110776,0.121854 -0.0517,0.05171 -0.08493,0.08863 -0.0997,0.110776 -0.01478,0.01478 -0.04431,0.04801 -0.08862,0.0997 l -0.07754,0.08862 0,11.210538 -3.733153,0"
       style="font-size:22.68693733px;font-style:normal;font-variant:normal;font-weight:bold;font-stretch:normal;text-align:start;line-height:125%;letter-spacing:0px;word-spacing:0px;writing-mode:lr-tb;text-anchor:start;color:#000000;fill:#7d682c;fill-opacity:1;fill-rule:nonzero;stroke:none;marker:none;visibility:visible;display:inline;overflow:visible;enable-background:accumulate;font-family:Oswald;-inkscape-font-specification:'Oswald, Bold'"
       id="path3106"
       inkscape:connector-curvature="0" />
    <path
       d="m 40.548898,106.13509 0,-6.203463 c -1e-6,-1.536083 0.36556,-2.732464 1.096683,-3.589145 0.73112,-0.864038 1.846264,-1.296065 3.345437,-1.296079 1.506548,1.4e-5 2.621692,0.428348 3.345437,1.285002 0.731113,0.856681 1.096674,2.056754 1.096683,3.600222 l 0,1.262843 -3.666687,0 0,-1.650559 c -6e-6,-0.576025 -0.0517,-0.996974 -0.155087,-1.262847 -0.09601,-0.273236 -0.302793,-0.40986 -0.620346,-0.409872 -0.472649,1.2e-5 -0.708971,0.365573 -0.708966,1.096683 l 0,7.156135 c -5e-6,0.81236 0.236317,1.21854 0.708966,1.21854 0.177237,0 0.317553,-0.0369 0.420949,-0.11078 0.110771,-0.0738 0.188314,-0.19939 0.23263,-0.37664 0.05169,-0.17724 0.08492,-0.35817 0.0997,-0.5428 0.01476,-0.19201 0.02215,-0.45787 0.02216,-0.79759 l 0,-1.53979 3.666687,0 0,2.16014 c -9e-6,0.79759 -0.206791,1.51025 -0.620346,2.13797 -0.413572,0.62035 -0.956374,1.0893 -1.628408,1.40686 -0.672048,0.31756 -1.403169,0.47634 -2.193366,0.47634 -1.21854,0 -2.263527,-0.36926 -3.134962,-1.10776 -0.87144,-0.74589 -1.307159,-1.71703 -1.307158,-2.91341"
       style="font-size:22.68693733px;font-style:normal;font-variant:normal;font-weight:bold;font-stretch:normal;text-align:start;line-height:125%;letter-spacing:0px;word-spacing:0px;writing-mode:lr-tb;text-anchor:start;color:#000000;fill:#7d682c;fill-opacity:1;fill-rule:nonzero;stroke:none;marker:none;visibility:visible;display:inline;overflow:visible;enable-background:accumulate;font-family:Oswald;-inkscape-font-specification:'Oswald, Bold'"
       id="path3108"
       inkscape:connector-curvature="0" />
    <path
       d="m 56.179402,106.12401 0,-7.156135 c -6e-6,-0.73111 -0.284331,-1.096671 -0.852976,-1.096683 -0.509575,1.2e-5 -0.764359,0.365573 -0.764355,1.096683 l 0,7.156135 c -4e-6,0.16247 0.0037,0.2991 0.01108,0.40987 0.01476,0.10339 0.04431,0.22894 0.08862,0.37664 0.04431,0.14032 0.121849,0.2474 0.232629,0.32125 0.110771,0.0739 0.25478,0.11078 0.432027,0.11078 0.568645,0 0.85297,-0.40618 0.852976,-1.21854 m -5.350484,-0.0443 0,-6.148073 c -10e-7,-1.543468 0.361867,-2.739849 1.085605,-3.589145 0.73112,-0.856653 1.868419,-1.284987 3.411903,-1.285002 1.543473,1.5e-5 2.688158,0.428349 3.434058,1.285002 0.745883,0.849296 1.118828,2.045677 1.118838,3.589145 l 0,6.148073 c -10e-6,1.20377 -0.446806,2.18598 -1.34039,2.94664 -0.893601,0.75328 -1.964436,1.12992 -3.212506,1.12992 -0.804977,0 -1.547176,-0.16247 -2.226599,-0.48742 -0.679429,-0.33233 -1.229616,-0.81235 -1.650563,-1.44009 -0.413565,-0.63511 -0.620347,-1.35146 -0.620346,-2.14905"
       style="font-size:22.68693733px;font-style:normal;font-variant:normal;font-weight:bold;font-stretch:normal;text-align:start;line-height:125%;letter-spacing:0px;word-spacing:0px;writing-mode:lr-tb;text-anchor:start;color:#000000;fill:#7d682c;fill-opacity:1;fill-rule:nonzero;stroke:none;marker:none;visibility:visible;display:inline;overflow:visible;enable-background:accumulate;font-family:Oswald;-inkscape-font-specification:'Oswald, Bold'"
       id="path3110"
       inkscape:connector-curvature="0" />
    <path
       d="m 61.773595,109.83501 0,-14.456279 3.733153,0 0,1.019139 c 0.354478,-0.406165 0.779119,-0.731107 1.273925,-0.974829 0.502178,-0.243693 1.022825,-0.365546 1.561942,-0.365561 0.509562,1.5e-5 0.963743,0.162486 1.362546,0.487415 0.406169,0.317572 0.705264,0.712673 0.897286,1.185304 0.199387,0.465272 0.299085,0.948993 0.299095,1.451166 l 0,11.653645 -3.733153,0 0,-11.000066 c -6e-6,-0.64249 -0.206788,-0.96374 -0.620346,-0.963752 -0.04432,1.2e-5 -0.09232,0.0074 -0.144009,0.02216 -0.04432,0.0074 -0.09232,0.02586 -0.144009,0.05539 -0.04432,0.02217 -0.08493,0.04432 -0.121853,0.06647 -0.03693,0.01478 -0.08124,0.04432 -0.132932,0.08862 -0.0517,0.04432 -0.09232,0.07756 -0.121853,0.0997 -0.02216,0.02217 -0.05909,0.06279 -0.110776,0.121854 -0.0517,0.05171 -0.08493,0.08863 -0.0997,0.110776 -0.01478,0.01478 -0.04431,0.04801 -0.08862,0.0997 l -0.07754,0.08862 0,11.210538 -3.733153,0"
       style="font-size:22.68693733px;font-style:normal;font-variant:normal;font-weight:bold;font-stretch:normal;text-align:start;line-height:125%;letter-spacing:0px;word-spacing:0px;writing-mode:lr-tb;text-anchor:start;color:#000000;fill:#7d682c;fill-opacity:1;fill-rule:nonzero;stroke:none;marker:none;visibility:visible;display:inline;overflow:visible;enable-background:accumulate;font-family:Oswald;-inkscape-font-specification:'Oswald, Bold'"
       id="path3112"
       inkscape:connector-curvature="0" />
    <path
       d="m 73.150294,104.87224 0,-7.001048 -1.063451,0 0,-2.492461 1.063451,0 0,-4.752293 3.733153,0 0,4.752293 1.794572,0 0,2.492461 -1.794572,0 0,7.898338 c -5e-6,0.39879 0.07384,0.69789 0.221552,0.89728 0.147696,0.19202 0.409866,0.28802 0.78651,0.28802 0.428328,0 0.790196,-0.0221 1.085605,-0.0665 l 0,2.89126 c -0.487421,0.1477 -1.27393,0.22155 -2.35953,0.22155 -0.435723,0 -0.830824,-0.0517 -1.185304,-0.15509 -0.347101,-0.10339 -0.642504,-0.24001 -0.886208,-0.40987 -0.236325,-0.17724 -0.443106,-0.39879 -0.620346,-0.66465 -0.169858,-0.26586 -0.306482,-0.53542 -0.409871,-0.80867 -0.09601,-0.28063 -0.173551,-0.60557 -0.23263,-0.97483 -0.0517,-0.36925 -0.08862,-0.71265 -0.110776,-1.03022 -0.01477,-0.31755 -0.02216,-0.67942 -0.02215,-1.0856"
       style="font-size:22.68693733px;font-style:normal;font-variant:normal;font-weight:bold;font-stretch:normal;text-align:start;line-height:125%;letter-spacing:0px;word-spacing:0px;writing-mode:lr-tb;text-anchor:start;color:#000000;fill:#7d682c;fill-opacity:1;fill-rule:nonzero;stroke:none;marker:none;visibility:visible;display:inline;overflow:visible;enable-background:accumulate;font-family:Oswald;-inkscape-font-specification:'Oswald, Bold'"
       id="path3114"
       inkscape:connector-curvature="0" />
    <path
       d="m 80.29535,109.83501 0,-14.456279 3.710998,0 0,1.174226 c 0.568645,-0.92312 1.233301,-1.384686 1.993969,-1.384701 0.21416,1.5e-5 0.550181,0.03694 1.008062,0.110776 l 0,3.14604 c -0.686818,-0.07384 -1.17054,-0.110764 -1.451166,-0.110776 -0.509576,1.2e-5 -0.897292,0.158791 -1.163149,0.476337 -0.258482,0.310184 -0.387721,0.75698 -0.387716,1.340387 l 0,9.70399 -3.710998,0"
       style="font-size:22.68693733px;font-style:normal;font-variant:normal;font-weight:bold;font-stretch:normal;text-align:start;line-height:125%;letter-spacing:0px;word-spacing:0px;writing-mode:lr-tb;text-anchor:start;color:#000000;fill:#7d682c;fill-opacity:1;fill-rule:nonzero;stroke:none;marker:none;visibility:visible;display:inline;overflow:visible;enable-background:accumulate;font-family:Oswald;-inkscape-font-specification:'Oswald, Bold'"
       id="path3116"
       inkscape:connector-curvature="0" />
    <path
       d="m 91.384034,100.96184 1.451166,0 0,-1.993965 c -6e-6,-0.73111 -0.247406,-1.096671 -0.7422,-1.096683 -0.472649,1.2e-5 -0.708971,0.365573 -0.708966,1.096683 l 0,1.993965 m -3.733154,5.11786 0,-6.148073 c 0,-1.536083 0.36556,-2.732464 1.096683,-3.589145 0.73112,-0.864038 1.846264,-1.296065 3.345437,-1.296079 1.506548,1.4e-5 2.621693,0.428348 3.345437,1.285002 0.731113,0.856681 1.096674,2.056754 1.096683,3.600222 l 0,2.990953 -5.151086,0 0,3.20143 c -5e-6,0.81236 0.236317,1.21854 0.708966,1.21854 0.51695,0 0.775427,-0.43572 0.775433,-1.30716 l 0,-1.5841 3.666687,0 0,1.62841 c -9e-6,1.20377 -0.435728,2.18598 -1.307157,2.94664 -0.871446,0.75328 -1.916432,1.12992 -3.134963,1.12992 -1.21854,0 -2.263527,-0.38033 -3.134962,-1.141 -0.87144,-0.76066 -1.307158,-1.73918 -1.307158,-2.93556"
       style="font-size:22.68693733px;font-style:normal;font-variant:normal;font-weight:bold;font-stretch:normal;text-align:start;line-height:125%;letter-spacing:0px;word-spacing:0px;writing-mode:lr-tb;text-anchor:start;color:#000000;fill:#7d682c;fill-opacity:1;fill-rule:nonzero;stroke:none;marker:none;visibility:visible;display:inline;overflow:visible;enable-background:accumulate;font-family:Oswald;-inkscape-font-specification:'Oswald, Bold'"
       id="path3118"
       inkscape:connector-curvature="0" />
    <path
       d="m 107.97829,106.12401 0,-7.156135 c -1e-5,-0.73111 -0.28434,-1.096671 -0.85298,-1.096683 -0.50958,1.2e-5 -0.76436,0.365573 -0.76436,1.096683 l 0,7.156135 c 0,0.16247 0.004,0.2991 0.0111,0.40987 0.0148,0.10339 0.0443,0.22894 0.0886,0.37664 0.0443,0.14032 0.12185,0.2474 0.23263,0.32125 0.11077,0.0739 0.25478,0.11078 0.43203,0.11078 0.56864,0 0.85297,-0.40618 0.85298,-1.21854 m -5.35049,-0.0443 0,-6.148073 c 0,-1.543468 0.36187,-2.739849 1.08561,-3.589145 0.73112,-0.856653 1.86842,-1.284987 3.4119,-1.285002 1.54347,1.5e-5 2.68816,0.428349 3.43406,1.285002 0.74588,0.849296 1.11883,2.045677 1.11884,3.589145 l 0,6.148073 c -1e-5,1.20377 -0.44681,2.18598 -1.34039,2.94664 -0.89361,0.75328 -1.96444,1.12992 -3.21251,1.12992 -0.80498,0 -1.54718,-0.16247 -2.2266,-0.48742 -0.67943,-0.33233 -1.22962,-0.81235 -1.65056,-1.44009 -0.41357,-0.63511 -0.62035,-1.35146 -0.62035,-2.14905"
       style="font-size:22.68693733px;font-style:normal;font-variant:normal;font-weight:bold;font-stretch:normal;text-align:start;line-height:125%;letter-spacing:0px;word-spacing:0px;writing-mode:lr-tb;text-anchor:start;color:#000000;fill:#7d682c;fill-opacity:1;fill-rule:nonzero;stroke:none;marker:none;visibility:visible;display:inline;overflow:visible;enable-background:accumulate;font-family:Oswald;-inkscape-font-specification:'Oswald, Bold'"
       id="path3120"
       inkscape:connector-curvature="0" />
    <path
       d="m 117.95921,106.13509 0,-6.203463 c 0,-1.536083 0.36556,-2.732464 1.09669,-3.589145 0.73112,-0.864038 1.84626,-1.296065 3.34543,-1.296079 1.50655,1.4e-5 2.6217,0.428348 3.34544,1.285002 0.73111,0.856681 1.09668,2.056754 1.09668,3.600222 l 0,1.262843 -3.66668,0 0,-1.650559 c -1e-5,-0.576025 -0.0517,-0.996974 -0.15509,-1.262847 -0.096,-0.273236 -0.30279,-0.40986 -0.62035,-0.409872 -0.47264,1.2e-5 -0.70897,0.365573 -0.70896,1.096683 l 0,7.156135 c -1e-5,0.81236 0.23632,1.21854 0.70896,1.21854 0.17724,0 0.31756,-0.0369 0.42095,-0.11078 0.11077,-0.0738 0.18832,-0.19939 0.23263,-0.37664 0.0517,-0.17724 0.0849,-0.35817 0.0997,-0.5428 0.0148,-0.19201 0.0221,-0.45787 0.0222,-0.79759 l 0,-1.53979 3.66668,0 0,2.16014 c 0,0.79759 -0.20679,1.51025 -0.62034,2.13797 -0.41357,0.62035 -0.95638,1.0893 -1.62841,1.40686 -0.67205,0.31756 -1.40317,0.47634 -2.19337,0.47634 -1.21854,0 -2.26352,-0.36926 -3.13496,-1.10776 -0.87144,-0.74589 -1.30716,-1.71703 -1.30716,-2.91341"
       style="font-size:22.68693733px;font-style:normal;font-variant:normal;font-weight:bold;font-stretch:normal;text-align:start;line-height:125%;letter-spacing:0px;word-spacing:0px;writing-mode:lr-tb;text-anchor:start;color:#000000;fill:#7d682c;fill-opacity:1;fill-rule:nonzero;stroke:none;marker:none;visibility:visible;display:inline;overflow:visible;enable-background:accumulate;font-family:Oswald;-inkscape-font-specification:'Oswald, Bold'"
       id="path3122"
       inkscape:connector-curvature="0" />
    <path
       d="m 131.97238,100.96184 1.45117,0 0,-1.993965 c -1e-5,-0.73111 -0.24741,-1.096671 -0.7422,-1.096683 -0.47265,1.2e-5 -0.70897,0.365573 -0.70897,1.096683 l 0,1.993965 m -3.73315,5.11786 0,-6.148073 c 0,-1.536083 0.36556,-2.732464 1.09668,-3.589145 0.73112,-0.864038 1.84627,-1.296065 3.34544,-1.296079 1.50655,1.4e-5 2.62169,0.428348 3.34544,1.285002 0.73111,0.856681 1.09667,2.056754 1.09668,3.600222 l 0,2.990953 -5.15109,0 0,3.20143 c 0,0.81236 0.23632,1.21854 0.70897,1.21854 0.51695,0 0.77543,-0.43572 0.77543,-1.30716 l 0,-1.5841 3.66669,0 0,1.62841 c -1e-5,1.20377 -0.43573,2.18598 -1.30716,2.94664 -0.87144,0.75328 -1.91643,1.12992 -3.13496,1.12992 -1.21854,0 -2.26353,-0.38033 -3.13496,-1.141 -0.87144,-0.76066 -1.30716,-1.73918 -1.30716,-2.93556"
       style="font-size:22.68693733px;font-style:normal;font-variant:normal;font-weight:bold;font-stretch:normal;text-align:start;line-height:125%;letter-spacing:0px;word-spacing:0px;writing-mode:lr-tb;text-anchor:start;color:#000000;fill:#7d682c;fill-opacity:1;fill-rule:nonzero;stroke:none;marker:none;visibility:visible;display:inline;overflow:visible;enable-background:accumulate;font-family:Oswald;-inkscape-font-specification:'Oswald, Bold'"
       id="path3124"
       inkscape:connector-curvature="0" />
    <path
       d="m 138.82942,109.83501 0,-14.456279 3.73315,0 0,1.019139 c 0.35448,-0.406165 0.77912,-0.731107 1.27393,-0.974829 0.50218,-0.243693 1.02282,-0.365546 1.56194,-0.365561 0.50956,1.5e-5 0.96374,0.162486 1.36255,0.487415 0.40616,0.317572 0.70526,0.712673 0.89728,1.185304 0.19939,0.465272 0.29909,0.948993 0.2991,1.451166 l 0,11.653645 -3.73316,0 0,-11.000066 c 0,-0.64249 -0.20678,-0.96374 -0.62034,-0.963752 -0.0443,1.2e-5 -0.0923,0.0074 -0.14401,0.02216 -0.0443,0.0074 -0.0923,0.02586 -0.14401,0.05539 -0.0443,0.02217 -0.0849,0.04432 -0.12185,0.06647 -0.0369,0.01478 -0.0812,0.04432 -0.13294,0.08862 -0.0517,0.04432 -0.0923,0.07756 -0.12185,0.0997 -0.0222,0.02217 -0.0591,0.06279 -0.11078,0.121854 -0.0517,0.05171 -0.0849,0.08863 -0.0997,0.110776 -0.0148,0.01478 -0.0443,0.04801 -0.0886,0.0997 l -0.0776,0.08862 0,11.210538 -3.73315,0"
       style="font-size:22.68693733px;font-style:normal;font-variant:normal;font-weight:bold;font-stretch:normal;text-align:start;line-height:125%;letter-spacing:0px;word-spacing:0px;writing-mode:lr-tb;text-anchor:start;color:#000000;fill:#7d682c;fill-opacity:1;fill-rule:nonzero;stroke:none;marker:none;visibility:visible;display:inline;overflow:visible;enable-background:accumulate;font-family:Oswald;-inkscape-font-specification:'Oswald, Bold'"
       id="path3126"
       inkscape:connector-curvature="0" />
    <path
       d="m 150.20613,104.87224 0,-7.001048 -1.06345,0 0,-2.492461 1.06345,0 0,-4.752293 3.73315,0 0,4.752293 1.79457,0 0,2.492461 -1.79457,0 0,7.898338 c 0,0.39879 0.0738,0.69789 0.22155,0.89728 0.1477,0.19202 0.40987,0.28802 0.78651,0.28802 0.42833,0 0.7902,-0.0221 1.08561,-0.0665 l 0,2.89126 c -0.48742,0.1477 -1.27393,0.22155 -2.35953,0.22155 -0.43572,0 -0.83082,-0.0517 -1.1853,-0.15509 -0.34711,-0.10339 -0.64251,-0.24001 -0.88621,-0.40987 -0.23633,-0.17724 -0.44311,-0.39879 -0.62035,-0.66465 -0.16986,-0.26586 -0.30648,-0.53542 -0.40987,-0.80867 -0.096,-0.28063 -0.17355,-0.60557 -0.23263,-0.97483 -0.0517,-0.36925 -0.0886,-0.71265 -0.11078,-1.03022 -0.0148,-0.31755 -0.0222,-0.67942 -0.0222,-1.0856"
       style="font-size:22.68693733px;font-style:normal;font-variant:normal;font-weight:bold;font-stretch:normal;text-align:start;line-height:125%;letter-spacing:0px;word-spacing:0px;writing-mode:lr-tb;text-anchor:start;color:#000000;fill:#7d682c;fill-opacity:1;fill-rule:nonzero;stroke:none;marker:none;visibility:visible;display:inline;overflow:visible;enable-background:accumulate;font-family:Oswald;-inkscape-font-specification:'Oswald, Bold'"
       id="path3128"
       inkscape:connector-curvature="0" />
    <path
       d="m 157.35119,109.83501 0,-14.456279 3.71099,0 0,1.174226 c 0.56865,-0.92312 1.2333,-1.384686 1.99397,-1.384701 0.21416,1.5e-5 0.55018,0.03694 1.00807,0.110776 l 0,3.14604 c -0.68682,-0.07384 -1.17055,-0.110764 -1.45117,-0.110776 -0.50958,1.2e-5 -0.89729,0.158791 -1.16315,0.476337 -0.25848,0.310184 -0.38772,0.75698 -0.38772,1.340387 l 0,9.70399 -3.71099,0"
       style="font-size:22.68693733px;font-style:normal;font-variant:normal;font-weight:bold;font-stretch:normal;text-align:start;line-height:125%;letter-spacing:0px;word-spacing:0px;writing-mode:lr-tb;text-anchor:start;color:#000000;fill:#7d682c;fill-opacity:1;fill-rule:nonzero;stroke:none;marker:none;visibility:visible;display:inline;overflow:visible;enable-background:accumulate;font-family:Oswald;-inkscape-font-specification:'Oswald, Bold'"
       id="path3130"
       inkscape:connector-curvature="0" />
    <path
       d="m 170.05719,106.12401 0,-7.156135 c -1e-5,-0.73111 -0.28433,-1.096671 -0.85298,-1.096683 -0.50957,1.2e-5 -0.76436,0.365573 -0.76435,1.096683 l 0,7.156135 c -1e-5,0.16247 0.004,0.2991 0.0111,0.40987 0.0148,0.10339 0.0443,0.22894 0.0886,0.37664 0.0443,0.14032 0.12185,0.2474 0.23263,0.32125 0.11077,0.0739 0.25478,0.11078 0.43202,0.11078 0.56865,0 0.85297,-0.40618 0.85298,-1.21854 m -5.35049,-0.0443 0,-6.148073 c 0,-1.543468 0.36187,-2.739849 1.08561,-3.589145 0.73112,-0.856653 1.86842,-1.284987 3.4119,-1.285002 1.54348,1.5e-5 2.68816,0.428349 3.43406,1.285002 0.74588,0.849296 1.11883,2.045677 1.11884,3.589145 l 0,6.148073 c -1e-5,1.20377 -0.44681,2.18598 -1.34039,2.94664 -0.8936,0.75328 -1.96444,1.12992 -3.21251,1.12992 -0.80497,0 -1.54717,-0.16247 -2.2266,-0.48742 -0.67943,-0.33233 -1.22961,-0.81235 -1.65056,-1.44009 -0.41356,-0.63511 -0.62035,-1.35146 -0.62035,-2.14905"
       style="font-size:22.68693733px;font-style:normal;font-variant:normal;font-weight:bold;font-stretch:normal;text-align:start;line-height:125%;letter-spacing:0px;word-spacing:0px;writing-mode:lr-tb;text-anchor:start;color:#000000;fill:#7d682c;fill-opacity:1;fill-rule:nonzero;stroke:none;marker:none;visibility:visible;display:inline;overflow:visible;enable-background:accumulate;font-family:Oswald;-inkscape-font-specification:'Oswald, Bold'"
       id="path3132"
       inkscape:connector-curvature="0" />
    <path
       d="m 180.04919,107.06561 0,-8.540839 c 0,-0.915737 0.28801,-1.724401 0.86405,-2.425996 0.57603,-0.701567 1.28869,-1.052358 2.13798,-1.052372 0.46525,1.4e-5 0.90467,0.121868 1.31823,0.365561 0.42095,0.236336 0.78282,0.550201 1.08561,0.941596 l 0,-6.458244 3.73315,0 0,19.939694 -3.73315,0 0,-1.08561 c -0.29541,0.43572 -0.66466,0.77913 -1.10776,1.03022 -0.44311,0.25109 -0.91206,0.37664 -1.40686,0.37664 -0.81974,0 -1.50655,-0.30648 -2.06043,-0.91944 -0.55388,-0.62035 -0.83082,-1.34408 -0.83082,-2.17121 m 5.40587,-0.52065 0,-7.842947 c -0.42096,-0.553869 -0.77175,-0.830809 -1.05237,-0.830821 -0.41357,1.2e-5 -0.62035,0.31757 -0.62035,0.952674 l 0,7.477384 c 0,0.1994 0.007,0.36556 0.0222,0.49849 0.0222,0.12555 0.0812,0.24741 0.17724,0.36556 0.10338,0.11817 0.2437,0.17725 0.42095,0.17725 0.31755,0 0.66834,-0.26586 1.05237,-0.79759"
       style="font-size:22.68693733px;font-style:normal;font-variant:normal;font-weight:bold;font-stretch:normal;text-align:start;line-height:125%;letter-spacing:0px;word-spacing:0px;writing-mode:lr-tb;text-anchor:start;color:#000000;fill:#7d682c;fill-opacity:1;fill-rule:nonzero;stroke:none;marker:none;visibility:visible;display:inline;overflow:visible;enable-background:accumulate;font-family:Oswald;-inkscape-font-specification:'Oswald, Bold'"
       id="path3134"
       inkscape:connector-curvature="0" />
    <path
       d="m 194.84887,100.96184 1.45117,0 0,-1.993965 c -1e-5,-0.73111 -0.24741,-1.096671 -0.7422,-1.096683 -0.47265,1.2e-5 -0.70897,0.365573 -0.70897,1.096683 l 0,1.993965 m -3.73315,5.11786 0,-6.148073 c 0,-1.536083 0.36556,-2.732464 1.09668,-3.589145 0.73112,-0.864038 1.84626,-1.296065 3.34544,-1.296079 1.50654,1.4e-5 2.62169,0.428348 3.34543,1.285002 0.73112,0.856681 1.09668,2.056754 1.09669,3.600222 l 0,2.990953 -5.15109,0 0,3.20143 c 0,0.81236 0.23632,1.21854 0.70897,1.21854 0.51695,0 0.77542,-0.43572 0.77543,-1.30716 l 0,-1.5841 3.66669,0 0,1.62841 c -10e-6,1.20377 -0.43573,2.18598 -1.30716,2.94664 -0.87145,0.75328 -1.91643,1.12992 -3.13496,1.12992 -1.21854,0 -2.26353,-0.38033 -3.13497,-1.141 -0.87144,-0.76066 -1.30715,-1.73918 -1.30715,-2.93556"
       style="font-size:22.68693733px;font-style:normal;font-variant:normal;font-weight:bold;font-stretch:normal;text-align:start;line-height:125%;letter-spacing:0px;word-spacing:0px;writing-mode:lr-tb;text-anchor:start;color:#000000;fill:#7d682c;fill-opacity:1;fill-rule:nonzero;stroke:none;marker:none;visibility:visible;display:inline;overflow:visible;enable-background:accumulate;font-family:Oswald;-inkscape-font-specification:'Oswald, Bold'"
       id="path3136"
       inkscape:connector-curvature="0" />
    <path
       d="m 20.000011,151.81645 0,-28.93632 12.072876,0 0,4.01893 -6.221309,0 0,7.87711 4.404751,0 0,4.11539 -4.404751,0 0,8.90596 6.221309,0 0,4.01893 -12.072876,0"
       style="font-size:32.92310333px;font-style:normal;font-variant:normal;font-weight:bold;font-stretch:normal;text-align:start;line-height:125%;letter-spacing:0px;word-spacing:0px;writing-mode:lr-tb;text-anchor:start;color:#000000;fill:#7d682c;fill-opacity:1;fill-rule:nonzero;stroke:none;marker:none;visibility:visible;display:inline;overflow:visible;enable-background:accumulate;font-family:Oswald;-inkscape-font-specification:'Oswald, Bold'"
       id="path3139"
       inkscape:connector-curvature="0" />
    <path
       d="m 44.965625,143.60175 0,-12.49084 c -1.2e-5,-0.52512 -0.03752,-1.01275 -0.11253,-1.4629 -0.06432,-0.46081 -0.187562,-0.91093 -0.369742,-1.35036 -0.182203,-0.45009 -0.460849,-0.80376 -0.835938,-1.061 -0.364394,-0.2679 -0.814514,-0.40186 -1.350362,-0.40189 -0.52515,3e-5 -0.97527,0.13399 -1.350361,0.40189 -0.375109,0.25724 -0.653755,0.61091 -0.835938,1.061 -0.171482,0.45015 -0.29473,0.90027 -0.369742,1.35036 -0.07503,0.45015 -0.112538,0.93778 -0.11253,1.4629 l 0,12.49084 c -8e-6,2.84005 0.889515,4.26008 2.668571,4.26007 1.779037,1e-5 2.66856,-1.42002 2.668572,-4.26007 m -11.188711,-1.30213 0,-9.72582 c -10e-7,-1.18959 0.08574,-2.28273 0.257212,-3.27945 0.18219,-0.99667 0.476912,-1.93442 0.884166,-2.81325 0.417966,-0.87879 0.948464,-1.61827 1.591497,-2.21846 0.643025,-0.60013 1.452169,-1.07168 2.427436,-1.41466 0.985971,-0.35364 2.105913,-0.53047 3.359828,-0.5305 1.253897,3e-5 2.36848,0.17686 3.343753,0.5305 0.985964,0.34298 1.800467,0.81453 2.443512,1.41466 0.643013,0.60019 1.168153,1.33967 1.575422,2.21846 0.417951,0.87883 0.712673,1.81658 0.884165,2.81325 0.182173,0.99672 0.273269,2.08986 0.273288,3.27945 l 0,9.58114 c -1.9e-5,3.96535 -1.141395,6.90721 -3.424132,8.82557 0.3215,0.69662 1.264608,1.04493 2.829329,1.04493 l 0,3.55273 c -2.915081,0 -5.05851,-1.08243 -6.430293,-3.24729 -0.460849,0.0536 -0.991348,0.0804 -1.591498,0.0804 -1.436107,0 -2.70073,-0.24649 -3.793873,-0.73948 -1.093155,-0.50371 -1.971961,-1.21104 -2.636421,-2.122 -0.664466,-0.91095 -1.162813,-1.97195 -1.495043,-3.18299 -0.332233,-1.21103 -0.498349,-2.56675 -0.498348,-4.06716"
       style="font-size:32.92310333px;font-style:normal;font-variant:normal;font-weight:bold;font-stretch:normal;text-align:start;line-height:125%;letter-spacing:0px;word-spacing:0px;writing-mode:lr-tb;text-anchor:start;color:#000000;fill:#7d682c;fill-opacity:1;fill-rule:nonzero;stroke:none;marker:none;visibility:visible;display:inline;overflow:visible;enable-background:accumulate;font-family:Oswald;-inkscape-font-specification:'Oswald, Bold'"
       id="path3141"
       inkscape:connector-curvature="0" />
    <path
       d="m 53.759051,141.06179 0,-18.18166 5.851567,0 0,18.00482 c -8e-6,1.02886 0.0054,1.77906 0.01608,2.25061 0.01071,0.46084 0.0375,1.02885 0.08038,1.70402 0.04286,0.66447 0.117881,1.13067 0.22506,1.39859 0.107164,0.26794 0.251846,0.5573 0.434045,0.86809 0.192901,0.3108 0.439395,0.51443 0.739484,0.61088 0.300071,0.0965 0.664454,0.14469 1.09315,0.14468 0.428676,1e-5 0.793059,-0.0482 1.09315,-0.14468 0.300069,-0.0965 0.541205,-0.29472 0.723408,-0.5948 0.192897,-0.31079 0.342937,-0.60016 0.45012,-0.86809 0.10716,-0.26793 0.18218,-0.72876 0.225061,-1.38252 0.04286,-0.66445 0.06965,-1.22174 0.08038,-1.67187 0.01071,-0.46083 0.01606,-1.20031 0.01608,-2.21845 -1.2e-5,-0.0429 -1.2e-5,-0.075 0,-0.0965 l 0,-18.00482 5.851567,0 0,18.18166 c -1.8e-5,0.92168 -0.02681,1.75762 -0.08038,2.50781 -0.0536,0.75021 -0.155417,1.5272 -0.305439,2.33098 -0.150058,0.80379 -0.353684,1.51648 -0.610878,2.13807 -0.257229,0.61089 -0.600178,1.20033 -1.028847,1.76834 -0.428702,0.55729 -0.937767,1.01813 -1.527195,1.38251 -0.578741,0.36438 -1.280714,0.65374 -2.105921,0.86809 -0.825233,0.21434 -1.752266,0.32151 -2.781102,0.32151 -1.028856,0 -1.955889,-0.10717 -2.781102,-0.32151 -0.825227,-0.21435 -1.5272,-0.50371 -2.105921,-0.86809 -0.578731,-0.36438 -1.082437,-0.82522 -1.511119,-1.38251 -0.42869,-0.56801 -0.771638,-1.15745 -1.028847,-1.76834 -0.257214,-0.62159 -0.466199,-1.33428 -0.626954,-2.13807 -0.150042,-0.80378 -0.251855,-1.58077 -0.305439,-2.33098 -0.05359,-0.75019 -0.08038,-1.58613 -0.08038,-2.50781"
       style="font-size:32.92310333px;font-style:normal;font-variant:normal;font-weight:bold;font-stretch:normal;text-align:start;line-height:125%;letter-spacing:0px;word-spacing:0px;writing-mode:lr-tb;text-anchor:start;color:#000000;fill:#7d682c;fill-opacity:1;fill-rule:nonzero;stroke:none;marker:none;visibility:visible;display:inline;overflow:visible;enable-background:accumulate;font-family:Oswald;-inkscape-font-specification:'Oswald, Bold'"
       id="path3143"
       inkscape:connector-curvature="0" />
    <path
       d="m 73.58043,142.29962 0,-9.72582 c -1e-6,-6.83752 2.818608,-10.25629 8.455836,-10.25632 5.647926,3e-5 8.471894,3.4188 8.471912,10.25632 l 0,9.58114 c -1.8e-5,1.15746 -0.08576,2.22917 -0.257212,3.21514 -0.171492,0.97527 -0.466214,1.9023 -0.884165,2.7811 -0.407269,0.87881 -0.932409,1.62901 -1.575422,2.25061 -0.632327,0.61088 -1.436113,1.09315 -2.41136,1.44681 -0.975274,0.35367 -2.089857,0.5305 -3.343753,0.5305 -1.243199,0 -2.352423,-0.17683 -3.327677,-0.5305 -0.975267,-0.34295 -1.779053,-0.80914 -2.41136,-1.39859 -0.632316,-0.60015 -1.157456,-1.32892 -1.575422,-2.1863 -0.407254,-0.86808 -0.701976,-1.78975 -0.884165,-2.76502 -0.171476,-0.97526 -0.257213,-2.04161 -0.257212,-3.19907 m 11.076181,1.31821 0,-12.50692 c -1.3e-5,-2.85074 -0.87346,-4.27612 -2.620345,-4.27615 -0.52515,3e-5 -0.969911,0.13399 -1.334286,0.40189 -0.364391,0.25724 -0.63232,0.61627 -0.803787,1.07708 -0.171482,0.45014 -0.294729,0.90026 -0.369742,1.35036 -0.06431,0.43943 -0.09646,0.9217 -0.09645,1.44682 l 0,12.50692 c -7e-6,2.84005 0.868082,4.26007 2.604269,4.26007 1.746885,0 2.620332,-1.42002 2.620345,-4.26007"
       style="font-size:32.92310333px;font-style:normal;font-variant:normal;font-weight:bold;font-stretch:normal;text-align:start;line-height:125%;letter-spacing:0px;word-spacing:0px;writing-mode:lr-tb;text-anchor:start;color:#000000;fill:#7d682c;fill-opacity:1;fill-rule:nonzero;stroke:none;marker:none;visibility:visible;display:inline;overflow:visible;enable-background:accumulate;font-family:Oswald;-inkscape-font-specification:'Oswald, Bold'"
       id="path3145"
       inkscape:connector-curvature="0" />
    <path
       d="m 95.990004,151.81645 0,-24.56372 -4.243993,0 0,-4.3726 14.259179,0 0,4.3726 -4.16362,0 0,24.56372 -5.851566,0"
       style="font-size:32.92310333px;font-style:normal;font-variant:normal;font-weight:bold;font-stretch:normal;text-align:start;line-height:125%;letter-spacing:0px;word-spacing:0px;writing-mode:lr-tb;text-anchor:start;color:#000000;fill:#7d682c;fill-opacity:1;fill-rule:nonzero;stroke:none;marker:none;visibility:visible;display:inline;overflow:visible;enable-background:accumulate;font-family:Oswald;-inkscape-font-specification:'Oswald, Bold'"
       id="path3147"
       inkscape:connector-curvature="0" />
    <path
       d="m 107.96643,151.81645 0,-28.93632 12.07287,0 0,4.01893 -6.22131,0 0,7.87711 4.40475,0 0,4.11539 -4.40475,0 0,8.90596 6.22131,0 0,4.01893 -12.07287,0"
       style="font-size:32.92310333px;font-style:normal;font-variant:normal;font-weight:bold;font-stretch:normal;text-align:start;line-height:125%;letter-spacing:0px;word-spacing:0px;writing-mode:lr-tb;text-anchor:start;color:#000000;fill:#7d682c;fill-opacity:1;fill-rule:nonzero;stroke:none;marker:none;visibility:visible;display:inline;overflow:visible;enable-background:accumulate;font-family:Oswald;-inkscape-font-specification:'Oswald, Bold'"
       id="path3149"
       inkscape:connector-curvature="0" />
    <path
       d="m 127.96464,134.92086 1.67187,0 c 0.45012,1e-5 0.83593,-0.15003 1.15746,-0.45013 0.3215,-0.30006 0.55192,-0.68052 0.69125,-1.14137 0.15003,-0.46082 0.25185,-0.88415 0.30544,-1.26999 0.0643,-0.38579 0.0965,-0.75018 0.0965,-1.09315 -1e-5,-0.34292 -0.0268,-0.69659 -0.0804,-1.06099 -0.0429,-0.36436 -0.12862,-0.76626 -0.25721,-1.20568 -0.1179,-0.4501 -0.32153,-0.81448 -0.61088,-1.09315 -0.27866,-0.28934 -0.62161,-0.43402 -1.02885,-0.43405 l -1.94516,0 0,7.74851 m -5.85157,16.89559 0,-28.93632 6.36599,0 c 1.44681,3e-5 2.71679,0.13935 3.80995,0.41797 1.10385,0.26796 2.0684,0.69664 2.89363,1.28606 0.82521,0.57875 1.45216,1.36646 1.88086,2.36313 0.42867,0.986 0.64302,2.17025 0.64303,3.55274 -1e-5,0.60018 -0.0214,1.13604 -0.0643,1.60757 -0.0429,0.47158 -0.1447,1.01279 -0.30544,1.62365 -0.15006,0.60018 -0.35904,1.13604 -0.62695,1.60757 -0.26795,0.46086 -0.65376,0.91634 -1.15746,1.36644 -0.50372,0.45014 -1.09852,0.82524 -1.7844,1.1253 1.73616,5.50863 3.24728,10.17059 4.53335,13.98589 l -6.06055,0 -3.3116,-13.32678 -0.96454,0 0,13.32678 -5.85157,0"
       style="font-size:32.92310333px;font-style:normal;font-variant:normal;font-weight:bold;font-stretch:normal;text-align:start;line-height:125%;letter-spacing:0px;word-spacing:0px;writing-mode:lr-tb;text-anchor:start;color:#000000;fill:#7d682c;fill-opacity:1;fill-rule:nonzero;stroke:none;marker:none;visibility:visible;display:inline;overflow:visible;enable-background:accumulate;font-family:Oswald;-inkscape-font-specification:'Oswald, Bold'"
       id="path3151"
       inkscape:connector-curvature="0" />
    <path
       d="m 145.93731,142.02633 2.99008,0 -1.46289,-10.73859 -1.52719,10.73859 m -7.33054,9.79012 6.25346,-28.93632 5.17639,0 6.23738,28.93632 -5.77119,0 -1.1896,-6.18916 -3.7778,0 -1.1253,6.18916 -5.80334,0"
       style="font-size:32.92310333px;font-style:normal;font-variant:normal;font-weight:bold;font-stretch:normal;text-align:start;line-height:125%;letter-spacing:0px;word-spacing:0px;writing-mode:lr-tb;text-anchor:start;color:#000000;fill:#7d682c;fill-opacity:1;fill-rule:nonzero;stroke:none;marker:none;visibility:visible;display:inline;overflow:visible;enable-background:accumulate;font-family:Oswald;-inkscape-font-specification:'Oswald, Bold'"
       id="path3153"
       inkscape:connector-curvature="0" />
    <path
       d="m 164.02252,135.30667 c 0.31079,2e-5 0.58407,-0.0161 0.81986,-0.0482 0.24648,-0.0429 0.46083,-0.0857 0.64303,-0.12861 0.18218,-0.0536 0.34294,-0.14466 0.48227,-0.27329 0.13931,-0.12859 0.25184,-0.24112 0.33759,-0.33759 0.0964,-0.0964 0.17682,-0.25183 0.24114,-0.46619 0.0643,-0.22505 0.11252,-0.40724 0.14468,-0.54658 0.0321,-0.1393 0.0536,-0.36436 0.0643,-0.67518 0.0214,-0.31078 0.0321,-0.55727 0.0322,-0.73948 -1e-5,-0.19289 -1e-5,-0.48761 0,-0.88417 -1e-5,-0.10715 -1e-5,-0.18753 0,-0.24114 -1e-5,-0.41794 -0.005,-0.7341 -0.0161,-0.94846 -1e-5,-0.21432 -0.0161,-0.48761 -0.0482,-0.81987 -0.0322,-0.3322 -0.0857,-0.5787 -0.16076,-0.73948 -0.0643,-0.17145 -0.16612,-0.36436 -0.30544,-0.57873 -0.12861,-0.21431 -0.28937,-0.36971 -0.48227,-0.46619 -0.19292,-0.0964 -0.43941,-0.18217 -0.73948,-0.25721 -0.28937,-0.075 -0.62696,-0.11251 -1.01277,-0.11253 l 0,8.26292 m -5.8998,16.50978 0,-28.93632 6.99295,0 c 2.51852,3e-5 4.35115,0.702 5.4979,2.10592 1.14672,1.40397 1.72008,3.43487 1.7201,6.09271 -2e-5,1.30751 -0.12862,2.44352 -0.38582,3.40805 -0.24651,0.96456 -0.59481,1.76299 -1.04492,2.39529 -0.45013,0.6216 -1.02886,1.12531 -1.73618,1.51111 -0.70734,0.37512 -1.47362,0.64305 -2.29883,0.80379 -0.82523,0.15005 -1.77906,0.23043 -2.86148,0.24114 l 0,12.37831 -5.88372,0"
       style="font-size:32.92310333px;font-style:normal;font-variant:normal;font-weight:bold;font-stretch:normal;text-align:start;line-height:125%;letter-spacing:0px;word-spacing:0px;writing-mode:lr-tb;text-anchor:start;color:#000000;fill:#7d682c;fill-opacity:1;fill-rule:nonzero;stroke:none;marker:none;visibility:visible;display:inline;overflow:visible;enable-background:accumulate;font-family:Oswald;-inkscape-font-specification:'Oswald, Bold'"
       id="path3155"
       inkscape:connector-curvature="0" />
    <path
       d="m 174.58427,151.81645 0,-28.93632 5.85157,0 0,28.93632 -5.85157,0"
       style="font-size:32.92310333px;font-style:normal;font-variant:normal;font-weight:bold;font-stretch:normal;text-align:start;line-height:125%;letter-spacing:0px;word-spacing:0px;writing-mode:lr-tb;text-anchor:start;color:#000000;fill:#7d682c;fill-opacity:1;fill-rule:nonzero;stroke:none;marker:none;visibility:visible;display:inline;overflow:visible;enable-background:accumulate;font-family:Oswald;-inkscape-font-specification:'Oswald, Bold'"
       id="path3157"
       inkscape:connector-curvature="0" />
    <path
       d="m 189.66331,142.02633 2.99009,0 -1.46289,-10.73859 -1.5272,10.73859 m -7.33053,9.79012 6.25346,-28.93632 5.17638,0 6.23739,28.93632 -5.77119,0 -1.1896,-6.18916 -3.7778,0 -1.1253,6.18916 -5.80334,0"
       style="font-size:32.92310333px;font-style:normal;font-variant:normal;font-weight:bold;font-stretch:normal;text-align:start;line-height:125%;letter-spacing:0px;word-spacing:0px;writing-mode:lr-tb;text-anchor:start;color:#000000;fill:#7d682c;fill-opacity:1;fill-rule:nonzero;stroke:none;marker:none;visibility:visible;display:inline;overflow:visible;enable-background:accumulate;font-family:Oswald;-inkscape-font-specification:'Oswald, Bold'"
       id="path3159"
       inkscape:connector-curvature="0" />
    <path
       d="m 19.791034,181.54448 0,-15.794 4.078605,0 0,1.12555 c 0.379211,-0.44375 0.831045,-0.8028 1.3555,-1.07714 0.524443,-0.27432 1.065029,-0.41148 1.62176,-0.4115 0.524441,2e-5 1.008548,0.16946 1.452322,0.50832 0.443755,0.33889 0.778596,0.76248 1.004523,1.27078 0.395343,-0.5325 0.87945,-0.96013 1.452322,-1.28288 0.580916,-0.3308 1.194119,-0.4962 1.839608,-0.49622 0.556709,2e-5 1.056953,0.17753 1.500733,0.53252 0.44375,0.35503 0.774556,0.79476 0.99242,1.3192 0.225901,0.51639 0.338859,1.04487 0.338876,1.58545 l 0,12.71992 -4.078605,0 0,-11.90904 c -1.3e-5,-0.14522 -0.004,-0.26222 -0.0121,-0.35098 -0.0081,-0.0968 -0.02825,-0.21784 -0.06051,-0.36308 -0.03229,-0.14522 -0.0928,-0.25414 -0.181541,-0.32677 -0.08876,-0.0807 -0.201723,-0.12102 -0.338875,-0.12103 -0.290476,1e-5 -0.661625,0.29855 -1.113447,0.8956 l 0,12.1753 -4.078605,0 0,-11.93325 c -6e-6,-0.75842 -0.185581,-1.13764 -0.556723,-1.13765 -0.306607,1e-5 -0.689859,0.30258 -1.149755,0.9077 l 0,12.1632 -4.066502,0"
       style="font-size:24.78629875px;font-style:normal;font-variant:normal;font-weight:bold;font-stretch:normal;text-align:start;line-height:125%;letter-spacing:0px;word-spacing:0px;writing-mode:lr-tb;text-anchor:start;color:#000000;fill:#7d682c;fill-opacity:1;fill-rule:nonzero;stroke:none;marker:none;visibility:visible;display:inline;overflow:visible;enable-background:accumulate;font-family:Oswald;-inkscape-font-specification:'Oswald, Bold'"
       id="path3162"
       inkscape:connector-curvature="0" />
    <path
       d="m 43.149217,177.97419 0,-3.88496 c -1.33937,1.08118 -2.009051,2.26724 -2.009046,3.55818 -5e-6,0.32275 0.06051,0.60111 0.18154,0.83509 0.12909,0.22592 0.342904,0.33888 0.641442,0.33888 0.169432,0 0.334836,-0.0524 0.496211,-0.15734 0.169431,-0.11296 0.290458,-0.20978 0.36308,-0.29046 0.07261,-0.0807 0.181534,-0.21381 0.326773,-0.39939 m 0.822982,3.57029 -0.399388,-1.63386 c -0.233993,0.73423 -0.617244,1.25061 -1.149756,1.54914 -0.532523,0.29046 -1.194136,0.4357 -1.98484,0.4357 -0.580932,0 -1.089244,-0.11296 -1.524938,-0.33888 -0.435699,-0.22591 -0.778608,-0.52848 -1.028728,-0.9077 -0.242055,-0.38728 -0.423595,-0.79877 -0.544621,-1.23447 -0.112959,-0.44377 -0.169439,-0.9077 -0.169438,-1.39181 -10e-7,-0.54865 0.05648,-1.05697 0.169438,-1.52494 0.112957,-0.46797 0.254155,-0.87946 0.423594,-1.23447 0.177504,-0.36308 0.419558,-0.71002 0.726161,-1.04084 0.314667,-0.33079 0.617234,-0.60916 0.907701,-0.83508 0.29853,-0.23398 0.677747,-0.472 1.137653,-0.71406 0.459897,-0.25011 0.871388,-0.45586 1.234473,-0.61724 0.363075,-0.16942 0.818943,-0.3671 1.367604,-0.59303 l 0,-1.33129 c -7e-6,-0.55671 -0.06859,-0.97224 -0.205746,-1.24658 -0.13717,-0.27431 -0.371155,-0.41148 -0.701956,-0.41149 -0.225922,1e-5 -0.411496,0.0484 -0.556723,0.14523 -0.137169,0.0888 -0.23399,0.22593 -0.290464,0.41149 -0.05648,0.18559 -0.09279,0.35503 -0.108925,0.50832 -0.01614,0.14524 -0.02421,0.34292 -0.02421,0.59303 l 0,0.8956 -3.957578,0 c -10e-7,-1.81539 0.455867,-3.2072 1.367603,-4.17543 0.911733,-0.97627 2.234959,-1.46441 3.969681,-1.46443 1.210261,2e-5 2.271262,0.43975 3.183006,1.3192 0.911726,0.87947 1.367593,1.92434 1.367604,3.13459 l 0,7.50367 c -1.1e-5,1.29902 0.173461,2.6989 0.520415,4.19963 l -3.727627,0"
       style="font-size:24.78629875px;font-style:normal;font-variant:normal;font-weight:bold;font-stretch:normal;text-align:start;line-height:125%;letter-spacing:0px;word-spacing:0px;writing-mode:lr-tb;text-anchor:start;color:#000000;fill:#7d682c;fill-opacity:1;fill-rule:nonzero;stroke:none;marker:none;visibility:visible;display:inline;overflow:visible;enable-background:accumulate;font-family:Oswald;-inkscape-font-specification:'Oswald, Bold'"
       id="path3164"
       inkscape:connector-curvature="0" />
    <path
       d="m 49.442612,164.37077 0,-3.81235 4.078605,0 0,3.81235 -4.078605,0 m 0,17.17371 0,-15.794 4.078605,0 0,15.794 -4.078605,0"
       style="font-size:24.78629875px;font-style:normal;font-variant:normal;font-weight:bold;font-stretch:normal;text-align:start;line-height:125%;letter-spacing:0px;word-spacing:0px;writing-mode:lr-tb;text-anchor:start;color:#000000;fill:#7d682c;fill-opacity:1;fill-rule:nonzero;stroke:none;marker:none;visibility:visible;display:inline;overflow:visible;enable-background:accumulate;font-family:Oswald;-inkscape-font-specification:'Oswald, Bold'"
       id="path3166"
       inkscape:connector-curvature="0" />
    <path
       d="m 55.130877,177.73213 3.122492,-1.11344 c 0.08068,0.24205 0.145229,0.43166 0.193643,0.56882 0.04841,0.1291 0.129092,0.32275 0.242054,0.58093 0.121023,0.25013 0.233981,0.44377 0.338875,0.58093 0.112954,0.13717 0.254152,0.26626 0.423594,0.38729 0.177501,0.11296 0.363076,0.16944 0.556724,0.16943 0.508307,1e-5 0.762463,-0.29853 0.762469,-0.89559 -6e-6,-0.21785 -0.05245,-0.43973 -0.157335,-0.66565 -0.09683,-0.23398 -0.201717,-0.43166 -0.31467,-0.59303 -0.104895,-0.16944 -0.294504,-0.38728 -0.568826,-0.65355 -0.266264,-0.26625 -0.472009,-0.46393 -0.617237,-0.59303 -0.145236,-0.12909 -0.399393,-0.34694 -0.762469,-0.65355 l -0.665648,-0.56882 c -0.863327,-0.75036 -1.541076,-1.48862 -2.033251,-2.21479 -0.492176,-0.72615 -0.738264,-1.533 -0.738264,-2.42054 0,-0.68581 0.141198,-1.30304 0.423594,-1.85171 0.290464,-0.55671 0.677749,-1.00451 1.161858,-1.3434 0.484105,-0.33886 1.024691,-0.59705 1.62176,-0.77457 0.60513,-0.18556 1.238503,-0.27835 1.900121,-0.27836 0.588992,1e-5 1.153783,0.12507 1.694376,0.37518 0.540579,0.25014 1.012584,0.58498 1.416015,1.00452 0.411482,0.41151 0.766494,0.87948 1.065036,1.40392 0.298523,0.51639 0.528474,1.06101 0.689853,1.63386 l -2.92885,1.00452 c -0.09683,-0.24204 -0.177513,-0.43972 -0.242054,-0.59303 -0.06455,-0.16136 -0.169444,-0.3671 -0.314669,-0.61724 -0.137171,-0.25818 -0.274334,-0.46392 -0.411492,-0.61723 -0.129101,-0.15329 -0.29047,-0.28642 -0.484107,-0.39939 -0.193649,-0.12102 -0.39536,-0.18153 -0.605134,-0.18154 -0.282401,1e-5 -0.504284,0.10086 -0.665648,0.30256 -0.153305,0.20173 -0.229955,0.43168 -0.229951,0.68986 -4e-6,0.35502 0.193638,0.75441 0.580929,1.19816 0.395349,0.43571 0.935935,0.93999 1.62176,1.51284 l 0.750366,0.66565 c 0.403415,0.36308 0.750358,0.70599 1.040831,1.02872 0.298524,0.31468 0.593023,0.67373 0.883496,1.07714 0.298523,0.40343 0.52444,0.82703 0.67775,1.27078 0.161359,0.44377 0.242044,0.88754 0.242054,1.3313 -1e-5,1.27482 -0.451843,2.32775 -1.355501,3.1588 -0.895606,0.83105 -1.980813,1.24658 -3.255622,1.24658 -1.234478,0 -2.299513,-0.38325 -3.195109,-1.14976 -0.8956,-0.7665 -1.51687,-1.77102 -1.863813,-3.01357"
       style="font-size:24.78629875px;font-style:normal;font-variant:normal;font-weight:bold;font-stretch:normal;text-align:start;line-height:125%;letter-spacing:0px;word-spacing:0px;writing-mode:lr-tb;text-anchor:start;color:#000000;fill:#7d682c;fill-opacity:1;fill-rule:nonzero;stroke:none;marker:none;visibility:visible;display:inline;overflow:visible;enable-background:accumulate;font-family:Oswald;-inkscape-font-specification:'Oswald, Bold'"
       id="path3168"
       inkscape:connector-curvature="0" />
    <path
       d="m 71.312166,186.03458 0,-20.2841 4.078605,0 0,1.06503 c 0.330801,-0.42761 0.722121,-0.77052 1.17396,-1.02873 0.459895,-0.26624 0.944002,-0.39937 1.452322,-0.39939 0.927864,2e-5 1.706469,0.38327 2.335818,1.14976 0.629329,0.76652 0.943999,1.65001 0.94401,2.65049 l 0,9.33117 c -1.1e-5,0.90367 -0.302578,1.69438 -0.907701,2.37212 -0.605144,0.66969 -1.35551,1.00453 -2.2511,1.00453 -0.540594,0 -1.05294,-0.13717 -1.537041,-0.41149 -0.484113,-0.27433 -0.887536,-0.64951 -1.210268,-1.12555 l 0,5.67616 -4.078605,0 m 5.90611,-8.35086 0,-8.16931 c -7e-6,-0.69387 -0.225924,-1.04082 -0.67775,-1.04083 -0.306608,1e-5 -0.689859,0.30258 -1.149755,0.9077 l 0,8.5687 c 0.419554,0.58093 0.802805,0.8714 1.149755,0.8714 0.193636,0 0.342902,-0.0645 0.447799,-0.19365 0.112951,-0.12909 0.177499,-0.26222 0.193643,-0.39939 0.0242,-0.14523 0.0363,-0.32677 0.03631,-0.54462"
       style="font-size:24.78629875px;font-style:normal;font-variant:normal;font-weight:bold;font-stretch:normal;text-align:start;line-height:125%;letter-spacing:0px;word-spacing:0px;writing-mode:lr-tb;text-anchor:start;color:#000000;fill:#7d682c;fill-opacity:1;fill-rule:nonzero;stroke:none;marker:none;visibility:visible;display:inline;overflow:visible;enable-background:accumulate;font-family:Oswald;-inkscape-font-specification:'Oswald, Bold'"
       id="path3170"
       inkscape:connector-curvature="0" />
    <path
       d="m 87.287709,171.85023 1.585452,0 0,-2.17848 c -7e-6,-0.79877 -0.2703,-1.19816 -0.81088,-1.19817 -0.516387,1e-5 -0.774577,0.3994 -0.774572,1.19817 l 0,2.17848 m -4.078605,5.59144 0,-6.71699 c -10e-7,-1.67823 0.399387,-2.98532 1.198166,-3.92127 0.798774,-0.94399 2.01711,-1.416 3.655011,-1.41602 1.645958,2e-5 2.864293,0.46799 3.655011,1.40392 0.798767,0.93595 1.198155,2.24707 1.198166,3.93337 l 0,3.26772 -5.627749,0 0,3.49768 c -5e-6,0.88753 0.258185,1.3313 0.774572,1.3313 0.564785,0 0.847181,-0.47604 0.847188,-1.42812 l 0,-1.73069 4.005989,0 0,1.7791 c -1.1e-5,1.31516 -0.47605,2.38826 -1.428117,3.21931 -0.952086,0.82299 -2.093772,1.23448 -3.42506,1.23448 -1.3313,0 -2.472985,-0.41553 -3.42506,-1.24658 -0.952079,-0.83105 -1.428118,-1.90012 -1.428117,-3.20721"
       style="font-size:24.78629875px;font-style:normal;font-variant:normal;font-weight:bold;font-stretch:normal;text-align:start;line-height:125%;letter-spacing:0px;word-spacing:0px;writing-mode:lr-tb;text-anchor:start;color:#000000;fill:#7d682c;fill-opacity:1;fill-rule:nonzero;stroke:none;marker:none;visibility:visible;display:inline;overflow:visible;enable-background:accumulate;font-family:Oswald;-inkscape-font-specification:'Oswald, Bold'"
       id="path3172"
       inkscape:connector-curvature="0" />
    <path
       d="m 94.779269,181.54448 0,-15.794 4.0544,0 0,1.28288 c 0.621265,-1.00854 1.347421,-1.51282 2.178481,-1.51284 0.23398,2e-5 0.60109,0.0404 1.10135,0.12103 l 0,3.43716 c -0.75038,-0.0807 -1.27886,-0.12101 -1.58546,-0.12102 -0.556725,10e-6 -0.980319,0.17348 -1.270777,0.52041 -0.282402,0.33889 -0.4236,0.82703 -0.423594,1.46443 l 0,10.60195 -4.0544,0"
       style="font-size:24.78629875px;font-style:normal;font-variant:normal;font-weight:bold;font-stretch:normal;text-align:start;line-height:125%;letter-spacing:0px;word-spacing:0px;writing-mode:lr-tb;text-anchor:start;color:#000000;fill:#7d682c;fill-opacity:1;fill-rule:nonzero;stroke:none;marker:none;visibility:visible;display:inline;overflow:visible;enable-background:accumulate;font-family:Oswald;-inkscape-font-specification:'Oswald, Bold'"
       id="path3174"
       inkscape:connector-curvature="0" />
    <path
       d="m 103.72316,176.12248 0,-7.6489 -1.16186,0 0,-2.7231 1.16186,0 0,-5.19206 4.0786,0 0,5.19206 1.96064,0 0,2.7231 -1.96064,0 0,8.62921 c 0,0.4357 0.0807,0.76248 0.24206,0.98032 0.16136,0.20978 0.44779,0.31467 0.85929,0.31467 0.46796,0 0.86331,-0.0242 1.18606,-0.0726 l 0,3.1588 c -0.53252,0.16136 -1.39181,0.24205 -2.57787,0.24205 -0.47604,0 -0.90771,-0.0565 -1.29499,-0.16944 -0.37922,-0.11296 -0.70196,-0.26222 -0.96821,-0.4478 -0.2582,-0.19364 -0.48411,-0.43569 -0.67775,-0.72616 -0.18558,-0.29046 -0.33485,-0.58496 -0.4478,-0.88349 -0.10489,-0.3066 -0.18961,-0.66162 -0.25416,-1.06504 -0.0565,-0.40342 -0.0968,-0.7786 -0.12103,-1.12555 -0.0161,-0.34694 -0.0242,-0.74229 -0.0242,-1.18606"
       style="font-size:24.78629875px;font-style:normal;font-variant:normal;font-weight:bold;font-stretch:normal;text-align:start;line-height:125%;letter-spacing:0px;word-spacing:0px;writing-mode:lr-tb;text-anchor:start;color:#000000;fill:#7d682c;fill-opacity:1;fill-rule:nonzero;stroke:none;marker:none;visibility:visible;display:inline;overflow:visible;enable-background:accumulate;font-family:Oswald;-inkscape-font-specification:'Oswald, Bold'"
       id="path3176"
       inkscape:connector-curvature="0" />
    <path
       d="m 117.18135,177.49008 0,-7.81833 c -10e-6,-0.79877 -0.31065,-1.19816 -0.93191,-1.19817 -0.55673,1e-5 -0.83509,0.3994 -0.83509,1.19817 l 0,7.81833 c 0,0.17751 0.004,0.32678 0.0121,0.4478 0.0161,0.11296 0.0484,0.25012 0.0968,0.41149 0.0484,0.1533 0.13312,0.2703 0.25415,0.35098 0.12103,0.0807 0.27836,0.12103 0.47201,0.12103 0.62126,0 0.9319,-0.44377 0.93191,-1.3313 m -5.8456,-0.0484 0,-6.71699 c 0,-1.6863 0.39535,-2.99338 1.18606,-3.92127 0.79878,-0.93593 2.04132,-1.4039 3.72763,-1.40391 1.6863,1e-5 2.93691,0.46798 3.75183,1.40391 0.8149,0.92789 1.22236,2.23497 1.22237,3.92127 l 0,6.71699 c -10e-6,1.31516 -0.48815,2.38826 -1.46442,3.21931 -0.97629,0.82299 -2.14622,1.23448 -3.50978,1.23448 -0.87947,0 -1.69035,-0.17751 -2.43264,-0.53252 -0.7423,-0.36308 -1.3434,-0.88753 -1.8033,-1.57335 -0.45184,-0.69388 -0.67775,-1.47652 -0.67775,-2.34792"
       style="font-size:24.78629875px;font-style:normal;font-variant:normal;font-weight:bold;font-stretch:normal;text-align:start;line-height:125%;letter-spacing:0px;word-spacing:0px;writing-mode:lr-tb;text-anchor:start;color:#000000;fill:#7d682c;fill-opacity:1;fill-rule:nonzero;stroke:none;marker:none;visibility:visible;display:inline;overflow:visible;enable-background:accumulate;font-family:Oswald;-inkscape-font-specification:'Oswald, Bold'"
       id="path3178"
       inkscape:connector-curvature="0" />
    <path
       d="m 128.09797,178.51881 0,-9.33117 c -1e-5,-1.00048 0.31466,-1.88397 0.944,-2.65049 0.62934,-0.76649 1.40795,-1.14974 2.33582,-1.14976 0.50831,2e-5 0.98838,0.13315 1.44022,0.39939 0.4599,0.25821 0.85525,0.60112 1.18607,1.02873 l 0,-7.05586 4.0786,0 0,21.78483 -4.0786,0 0,-1.18606 c -0.32275,0.47604 -0.72617,0.85122 -1.21027,1.12555 -0.48412,0.27432 -0.99646,0.41149 -1.53704,0.41149 -0.89561,0 -1.64597,-0.33484 -2.2511,-1.00453 -0.60514,-0.67774 -0.90771,-1.46845 -0.9077,-2.37212 m 5.90611,-0.56883 0,-8.5687 c -0.45991,-0.60512 -0.84316,-0.90769 -1.14976,-0.9077 -0.45184,1e-5 -0.67775,0.34696 -0.67775,1.04083 l 0,8.16931 c 0,0.21785 0.008,0.39939 0.0242,0.54462 0.0242,0.13717 0.0887,0.2703 0.19364,0.39939 0.11295,0.1291 0.26625,0.19365 0.4599,0.19365 0.34694,0 0.73019,-0.29047 1.14976,-0.8714"
       style="font-size:24.78629875px;font-style:normal;font-variant:normal;font-weight:bold;font-stretch:normal;text-align:start;line-height:125%;letter-spacing:0px;word-spacing:0px;writing-mode:lr-tb;text-anchor:start;color:#000000;fill:#7d682c;fill-opacity:1;fill-rule:nonzero;stroke:none;marker:none;visibility:visible;display:inline;overflow:visible;enable-background:accumulate;font-family:Oswald;-inkscape-font-specification:'Oswald, Bold'"
       id="path3180"
       inkscape:connector-curvature="0" />
    <path
       d="m 144.26715,171.85023 1.58545,0 0,-2.17848 c 0,-0.79877 -0.2703,-1.19816 -0.81088,-1.19817 -0.51638,1e-5 -0.77457,0.3994 -0.77457,1.19817 l 0,2.17848 m -4.0786,5.59144 0,-6.71699 c 0,-1.67823 0.39938,-2.98532 1.19816,-3.92127 0.79878,-0.94399 2.01711,-1.416 3.65501,-1.41602 1.64596,2e-5 2.8643,0.46799 3.65501,1.40392 0.79877,0.93595 1.19816,2.24707 1.19817,3.93337 l 0,3.26772 -5.62775,0 0,3.49768 c 0,0.88753 0.25819,1.3313 0.77457,1.3313 0.56479,0 0.84718,-0.47604 0.84719,-1.42812 l 0,-1.73069 4.00599,0 0,1.7791 c -1e-5,1.31516 -0.47605,2.38826 -1.42812,3.21931 -0.95208,0.82299 -2.09377,1.23448 -3.42506,1.23448 -1.3313,0 -2.47298,-0.41553 -3.42506,-1.24658 -0.95208,-0.83105 -1.42811,-1.90012 -1.42811,-3.20721"
       style="font-size:24.78629875px;font-style:normal;font-variant:normal;font-weight:bold;font-stretch:normal;text-align:start;line-height:125%;letter-spacing:0px;word-spacing:0px;writing-mode:lr-tb;text-anchor:start;color:#000000;fill:#7d682c;fill-opacity:1;fill-rule:nonzero;stroke:none;marker:none;visibility:visible;display:inline;overflow:visible;enable-background:accumulate;font-family:Oswald;-inkscape-font-specification:'Oswald, Bold'"
       id="path3182"
       inkscape:connector-curvature="0" />
    <path
       d="m 159.02032,181.54448 -3.27983,-15.794 3.82445,0 1.56125,10.66246 1.31919,-10.66246 3.82445,0 -3.1225,15.794 -4.12701,0"
       style="font-size:24.78629875px;font-style:normal;font-variant:normal;font-weight:bold;font-stretch:normal;text-align:start;line-height:125%;letter-spacing:0px;word-spacing:0px;writing-mode:lr-tb;text-anchor:start;color:#000000;fill:#7d682c;fill-opacity:1;fill-rule:nonzero;stroke:none;marker:none;visibility:visible;display:inline;overflow:visible;enable-background:accumulate;font-family:Oswald;-inkscape-font-specification:'Oswald, Bold'"
       id="path3184"
       inkscape:connector-curvature="0" />
    <path
       d="m 173.14416,177.49008 0,-7.81833 c -1e-5,-0.79877 -0.31064,-1.19816 -0.93191,-1.19817 -0.55673,1e-5 -0.83509,0.3994 -0.83508,1.19817 l 0,7.81833 c -1e-5,0.17751 0.004,0.32678 0.0121,0.4478 0.0161,0.11296 0.0484,0.25012 0.0968,0.41149 0.0484,0.1533 0.13313,0.2703 0.25416,0.35098 0.12102,0.0807 0.27835,0.12103 0.472,0.12103 0.62127,0 0.9319,-0.44377 0.93191,-1.3313 m -5.8456,-0.0484 0,-6.71699 c 0,-1.6863 0.39536,-2.99338 1.18607,-3.92127 0.79877,-0.93593 2.04131,-1.4039 3.72762,-1.40391 1.6863,1e-5 2.93691,0.46798 3.75184,1.40391 0.8149,0.92789 1.22236,2.23497 1.22237,3.92127 l 0,6.71699 c -1e-5,1.31516 -0.48816,2.38826 -1.46443,3.21931 -0.97629,0.82299 -2.14622,1.23448 -3.50978,1.23448 -0.87946,0 -1.69034,-0.17751 -2.43264,-0.53252 -0.7423,-0.36308 -1.3434,-0.88753 -1.8033,-1.57335 -0.45183,-0.69388 -0.67775,-1.47652 -0.67775,-2.34792"
       style="font-size:24.78629875px;font-style:normal;font-variant:normal;font-weight:bold;font-stretch:normal;text-align:start;line-height:125%;letter-spacing:0px;word-spacing:0px;writing-mode:lr-tb;text-anchor:start;color:#000000;fill:#7d682c;fill-opacity:1;fill-rule:nonzero;stroke:none;marker:none;visibility:visible;display:inline;overflow:visible;enable-background:accumulate;font-family:Oswald;-inkscape-font-specification:'Oswald, Bold'"
       id="path3186"
       inkscape:connector-curvature="0" />
    <path
       d="m 179.06237,177.50218 0,-6.7775 c 0,-1.67823 0.39939,-2.98532 1.19817,-3.92127 0.79877,-0.94399 2.01711,-1.416 3.65501,-1.41602 1.64596,2e-5 2.86429,0.46799 3.65501,1.40392 0.79877,0.93595 1.19815,2.24707 1.19817,3.93337 l 0,1.37971 -4.00599,0 0,-1.8033 c -1e-5,-0.62933 -0.0565,-1.08923 -0.16944,-1.37971 -0.1049,-0.29852 -0.33081,-0.44779 -0.67775,-0.4478 -0.51639,1e-5 -0.77458,0.3994 -0.77457,1.19817 l 0,7.81833 c -1e-5,0.88753 0.25818,1.3313 0.77457,1.3313 0.19364,0 0.34694,-0.0403 0.4599,-0.12103 0.12102,-0.0807 0.20574,-0.21785 0.25416,-0.41149 0.0565,-0.19364 0.0928,-0.39132 0.10892,-0.59303 0.0161,-0.20978 0.0242,-0.50024 0.0242,-0.8714 l 0,-1.68227 4.00599,0 0,2.36002 c -2e-5,0.8714 -0.22593,1.65 -0.67776,2.33582 -0.45184,0.67775 -1.04487,1.1901 -1.77909,1.53704 -0.73424,0.34695 -1.53301,0.52042 -2.39633,0.52042 -1.3313,0 -2.47299,-0.40343 -3.42506,-1.21027 -0.95208,-0.81491 -1.42812,-1.87591 -1.42812,-3.18301"
       style="font-size:24.78629875px;font-style:normal;font-variant:normal;font-weight:bold;font-stretch:normal;text-align:start;line-height:125%;letter-spacing:0px;word-spacing:0px;writing-mode:lr-tb;text-anchor:start;color:#000000;fill:#7d682c;fill-opacity:1;fill-rule:nonzero;stroke:none;marker:none;visibility:visible;display:inline;overflow:visible;enable-background:accumulate;font-family:Oswald;-inkscape-font-specification:'Oswald, Bold'"
       id="path3188"
       inkscape:connector-curvature="0" />
    <path
       d="m 194.37227,171.85023 1.58545,0 0,-2.17848 c -1e-5,-0.79877 -0.2703,-1.19816 -0.81088,-1.19817 -0.51639,1e-5 -0.77458,0.3994 -0.77457,1.19817 l 0,2.17848 m -4.07861,5.59144 0,-6.71699 c 0,-1.67823 0.39939,-2.98532 1.19817,-3.92127 0.79877,-0.94399 2.01711,-1.416 3.65501,-1.41602 1.64596,2e-5 2.86429,0.46799 3.65501,1.40392 0.79877,0.93595 1.19816,2.24707 1.19817,3.93337 l 0,3.26772 -5.62775,0 0,3.49768 c -10e-6,0.88753 0.25818,1.3313 0.77457,1.3313 0.56479,0 0.84718,-0.47604 0.84719,-1.42812 l 0,-1.73069 4.00599,0 0,1.7791 c -1e-5,1.31516 -0.47605,2.38826 -1.42812,3.21931 -0.95209,0.82299 -2.09377,1.23448 -3.42506,1.23448 -1.3313,0 -2.47298,-0.41553 -3.42506,-1.24658 -0.95208,-0.83105 -1.42812,-1.90012 -1.42812,-3.20721 m 0.64145,-13.28875 2.43264,-4.91369 3.50978,0 2.49315,4.91369 -3.32824,0 -0.9077,-2.44474 -0.8835,2.44474 -3.31613,0"
       style="font-size:24.78629875px;font-style:normal;font-variant:normal;font-weight:bold;font-stretch:normal;text-align:start;line-height:125%;letter-spacing:0px;word-spacing:0px;writing-mode:lr-tb;text-anchor:start;color:#000000;fill:#7d682c;fill-opacity:1;fill-rule:nonzero;stroke:none;marker:none;visibility:visible;display:inline;overflow:visible;enable-background:accumulate;font-family:Oswald;-inkscape-font-specification:'Oswald, Bold'"
       id="path3190"
       inkscape:connector-curvature="0" />
  </g>
  <path
     inkscape:connector-curvature="0"
     id="path5322"
     d="M 47.75804,0 C 32.27076,0 19.70758,12.5468 19.70758,28.034 c 0,6.068 1.97964,11.6372 5.25536,16.2259 L 0,69.2393 6.717,75.8085 31.69637,50.8291 c 4.57143,3.2348 10.03602,5.2554 16.06167,5.2554 15.48787,0 28.05047,-12.5623 28.05047,-28.0505 C 75.80851,12.5468 63.24591,0 47.75804,0 z m 0,9.3446 c 10.32544,0 18.68937,8.3649 18.68937,18.6894 0,10.3252 -8.36393,18.7058 -18.68937,18.7058 -10.32455,0 -18.70577,-8.3806 -18.70577,-18.7058 0,-10.3245 8.38122,-18.6894 18.70577,-18.6894 z"
     style="color:#000000;fill:#ffcc00;fill-opacity:1;fill-rule:nonzero;stroke:none;stroke-width:1.49999988;marker:none;visibility:visible;display:inline;overflow:visible;enable-background:accumulate" />
  <g
     id="g3274">
    <path
       d="m 88.479382,27.534812 2.267964,0 c 0.347005,9e-6 0.644443,-0.07435 0.892313,-0.223078 0.247859,-0.154906 0.439954,-0.365591 0.576286,-0.632056 0.136319,-0.272641 0.235465,-0.56698 0.297438,-0.883018 0.06196,-0.316017 0.09294,-0.663027 0.09295,-1.041033 -6e-6,-2.007692 -0.76219,-3.011544 -2.286553,-3.011558 l -1.840397,0 0,5.790743 m 0,8.049413 2.528222,0 c 0.322219,10e-7 0.604165,-0.06507 0.845839,-0.195194 0.241662,-0.136324 0.436855,-0.312927 0.585581,-0.529811 0.148712,-0.21688 0.266447,-0.489531 0.353207,-0.817954 0.09294,-0.328418 0.154909,-0.663035 0.185899,-1.003853 0.03717,-0.34081 0.05576,-0.721902 0.05577,-1.143277 -7e-6,-0.377989 -0.0155,-0.715704 -0.04647,-1.013148 -0.03099,-0.297432 -0.09296,-0.59177 -0.185899,-0.883018 -0.08676,-0.291235 -0.204495,-0.532902 -0.353207,-0.725005 -0.142529,-0.198285 -0.337723,-0.356298 -0.585581,-0.474042 -0.241674,-0.117728 -0.526719,-0.176596 -0.855134,-0.176604 l -2.528222,0 0,6.961906 m -1.41283,1.078212 0,-15.996581 3.439125,0 c 0.551494,1.6e-5 1.041027,0.07747 1.4686,0.232374 0.42756,0.154931 0.774571,0.359419 1.041033,0.613465 0.266447,0.254077 0.483328,0.560809 0.650645,0.920199 0.173497,0.359418 0.291233,0.725018 0.353207,1.096802 0.06816,0.37181 0.102236,0.771492 0.102245,1.199046 -9e-6,0.66305 -0.154924,1.310597 -0.464747,1.942641 -0.303642,0.632065 -0.725012,1.072025 -1.264111,1.319881 0.377987,0.154924 0.706408,0.384199 0.985263,0.687825 0.27884,0.297446 0.492623,0.632063 0.64135,1.003853 0.148711,0.371804 0.257152,0.743601 0.325323,1.115392 0.06815,0.365607 0.102236,0.731206 0.102245,1.096802 -9e-6,0.5577 -0.02789,1.050332 -0.08366,1.477895 -0.04958,0.427569 -0.154924,0.858234 -0.316028,1.291995 -0.154924,0.427569 -0.36251,0.780776 -0.62276,1.059623 -0.260266,0.278848 -0.613473,0.505025 -1.059623,0.67853 -0.446163,0.173506 -0.972875,0.260258 -1.580139,0.260258 l -3.717973,0"
       style="font-size:26.10004044px;font-style:normal;font-variant:normal;font-weight:300;font-stretch:normal;text-align:start;line-height:114.99999762%;letter-spacing:0px;word-spacing:0px;writing-mode:lr-tb;text-anchor:start;fill:#7d682c;fill-opacity:1;stroke:none;stroke-width:1.49999976;marker:none;font-family:Oswald;-inkscape-font-specification:Oswald Light"
       id="path3193"
       inkscape:connector-curvature="0" />
    <path
       d="m 96.231356,32.73068 0,-12.064824 1.412831,0 0,12.390147 c -3e-6,0.917103 0.207583,1.601829 0.62276,2.05418 0.41517,0.446158 1.115388,0.669236 2.100653,0.669236 0.92949,0 1.59253,-0.226176 1.98912,-0.678531 0.39657,-0.452351 0.59487,-1.133979 0.59487,-2.044885 l 0,-12.390147 1.40354,0 0,12.064824 c -1e-5,2.788482 -1.32918,4.18272 -3.98753,4.18272 -0.638255,0 -1.202147,-0.07436 -1.691676,-0.223078 -0.48334,-0.148719 -0.879923,-0.34701 -1.189751,-0.594876 -0.303637,-0.25406 -0.551502,-0.560793 -0.743595,-0.920198 -0.192097,-0.365599 -0.325324,-0.743593 -0.399683,-1.133982 -0.07436,-0.396581 -0.111539,-0.833442 -0.111539,-1.310586"
       style="font-size:26.10004044px;font-style:normal;font-variant:normal;font-weight:300;font-stretch:normal;text-align:start;line-height:114.99999762%;letter-spacing:0px;word-spacing:0px;writing-mode:lr-tb;text-anchor:start;fill:#7d682c;fill-opacity:1;stroke:none;stroke-width:1.49999976;marker:none;font-family:Oswald;-inkscape-font-specification:Oswald Light"
       id="path3195"
       inkscape:connector-curvature="0" />
    <path
       d="m 106.26988,32.805039 1.24553,-0.362502 c 0.0496,0.446161 0.13632,0.858236 0.26025,1.236226 0.13013,0.377997 0.30364,0.731204 0.52052,1.059623 0.21688,0.322226 0.50192,0.576287 0.85513,0.762185 0.3594,0.185899 0.76528,0.278848 1.21764,0.278848 0.725,0 1.28579,-0.201389 1.68238,-0.604171 0.39658,-0.402779 0.59487,-0.972867 0.59488,-1.710268 -1e-5,-0.613462 -0.18281,-1.205239 -0.5484,-1.775332 -0.35941,-0.570084 -0.89232,-1.226926 -1.59873,-1.970526 l -2.50034,-2.630467 c -0.5453,-0.576275 -0.96357,-1.115381 -1.25481,-1.617318 -0.29125,-0.501915 -0.43687,-1.028627 -0.43687,-1.580139 0,-1.047215 0.34392,-1.883758 1.03174,-2.509632 0.68782,-0.625843 1.57084,-0.938772 2.64906,-0.938788 1.04722,1.6e-5 1.88996,0.297454 2.52822,0.892313 0.63824,0.588694 1.06271,1.446926 1.27341,2.574697 l 0.0279,0.148719 -1.18975,0.371797 -0.0186,-0.130129 c -0.12394,-0.799351 -0.41208,-1.453094 -0.86443,-1.961231 -0.44616,-0.508108 -1.03174,-0.762169 -1.75674,-0.762184 -0.70642,1.5e-5 -1.27031,0.179717 -1.69168,0.539106 -0.41518,0.359418 -0.62276,0.889229 -0.62276,1.589434 0,0.421382 0.11154,0.836556 0.33462,1.245521 0.22927,0.408988 0.55459,0.842751 0.97596,1.30129 l 2.35162,2.556107 c 0.062,0.06817 0.21688,0.238578 0.46475,0.511221 0.24786,0.266462 0.40897,0.443066 0.48334,0.529812 0.0806,0.08676 0.22307,0.254068 0.42756,0.501926 0.21068,0.247871 0.3532,0.436868 0.42757,0.566991 0.0806,0.123939 0.19209,0.30364 0.33462,0.539106 0.14251,0.22928 0.23856,0.43067 0.28814,0.604171 0.0558,0.17351 0.10843,0.3749 0.15802,0.604171 0.0496,0.229278 0.0744,0.455455 0.0744,0.67853 0,1.14018 -0.35321,2.0201 -1.05962,2.639761 -0.70022,0.619662 -1.60803,0.929493 -2.72341,0.929493 -0.5701,0 -1.08751,-0.108441 -1.55226,-0.325322 -0.46475,-0.223078 -0.85823,-0.526713 -1.18045,-0.910904 -0.31603,-0.384189 -0.57629,-0.817952 -0.78078,-1.301291 -0.19829,-0.483333 -0.34081,-1.006947 -0.42757,-1.570844"
       style="font-size:26.10004044px;font-style:normal;font-variant:normal;font-weight:300;font-stretch:normal;text-align:start;line-height:114.99999762%;letter-spacing:0px;word-spacing:0px;writing-mode:lr-tb;text-anchor:start;fill:#7d682c;fill-opacity:1;stroke:none;stroke-width:1.49999976;marker:none;font-family:Oswald;-inkscape-font-specification:Oswald Light"
       id="path3197"
       inkscape:connector-curvature="0" />
    <path
       d="m 115.50905,32.024265 0,-6.701647 c 0,-0.570077 0.0372,-1.087495 0.11154,-1.552254 0.0744,-0.464733 0.20449,-0.907791 0.39039,-1.329175 0.19209,-0.421356 0.43686,-0.774563 0.7343,-1.059623 0.29743,-0.291226 0.67543,-0.5205 1.13398,-0.687825 0.46474,-0.167293 1.00075,-0.250947 1.60802,-0.250963 2.50343,1.6e-5 3.75515,1.626628 3.75516,4.87984 l 0,0.650645 -1.34777,0 0,-0.966673 c -1e-5,-0.514307 -0.0403,-0.969758 -0.12083,-1.366355 -0.0744,-0.39657 -0.2014,-0.752876 -0.3811,-1.068917 -0.17971,-0.32221 -0.43067,-0.566977 -0.75289,-0.7343 -0.31603,-0.173491 -0.70022,-0.260243 -1.15257,-0.260258 -0.40898,1.5e-5 -0.76529,0.05888 -1.06892,0.176604 -0.30363,0.111554 -0.5515,0.266469 -0.74359,0.464746 -0.1859,0.198306 -0.33772,0.446171 -0.45545,0.743595 -0.11154,0.297451 -0.189,0.61038 -0.23238,0.938788 -0.0434,0.322237 -0.0651,0.690936 -0.0651,1.106097 l 0,7.333703 c 0,0.526717 0.0372,0.985266 0.11154,1.37565 0.0744,0.384193 0.20139,0.740499 0.38109,1.068917 0.1859,0.322226 0.45235,0.570091 0.79937,0.743595 0.347,0.16731 0.77147,0.250964 1.2734,0.250964 0.45235,0 0.83654,-0.08365 1.15257,-0.250964 0.32222,-0.173504 0.57318,-0.421369 0.75289,-0.743595 0.1797,-0.322222 0.30673,-0.681625 0.3811,-1.078212 0.0805,-0.39658 0.12082,-0.852032 0.12083,-1.366355 l 0,-1.096802 1.34776,0 0,0.780774 c 0,0.563897 -0.0341,1.078216 -0.10224,1.542959 -0.0682,0.46475 -0.1921,0.910906 -0.3718,1.338471 -0.17351,0.421372 -0.39969,0.777677 -0.67853,1.068917 -0.27885,0.285045 -0.63826,0.51432 -1.07821,0.687825 -0.43997,0.167309 -0.94809,0.250963 -1.52437,0.250963 -0.61967,0 -1.16497,-0.08365 -1.63591,-0.250963 -0.46475,-0.173505 -0.84584,-0.40278 -1.14327,-0.687825 -0.29125,-0.29124 -0.52982,-0.647545 -0.71571,-1.068917 -0.17971,-0.427565 -0.30674,-0.870623 -0.3811,-1.329176 -0.0682,-0.464743 -0.10224,-0.982161 -0.10224,-1.552254"
       style="font-size:26.10004044px;font-style:normal;font-variant:normal;font-weight:300;font-stretch:normal;text-align:start;line-height:114.99999762%;letter-spacing:0px;word-spacing:0px;writing-mode:lr-tb;text-anchor:start;fill:#7d682c;fill-opacity:1;stroke:none;stroke-width:1.49999976;marker:none;font-family:Oswald;-inkscape-font-specification:Oswald Light"
       id="path3199"
       inkscape:connector-curvature="0" />
    <path
       d="m 126.88605,31.559519 3.34617,0 -1.68238,-9.425063 -1.66379,9.425063 m -0.98527,5.102918 -1.42212,0 3.16028,-15.996581 1.84039,0 3.16028,15.996581 -1.43142,0 -0.79936,-4.16413 -3.69009,0 -0.81796,4.16413"
       style="font-size:26.10004044px;font-style:normal;font-variant:normal;font-weight:300;font-stretch:normal;text-align:start;line-height:114.99999762%;letter-spacing:0px;word-spacing:0px;writing-mode:lr-tb;text-anchor:start;fill:#7d682c;fill-opacity:1;stroke:none;stroke-width:1.49999976;marker:none;font-family:Oswald;-inkscape-font-specification:Oswald Light"
       id="path3201"
       inkscape:connector-curvature="0" />
    <path
       d="m 135.84637,27.720711 2.84425,0 c 0.40277,9e-6 0.74358,-0.08055 1.02244,-0.241668 0.27884,-0.161103 0.48643,-0.390378 0.62276,-0.687825 0.14251,-0.297428 0.24166,-0.607259 0.29744,-0.929494 0.0558,-0.322213 0.0836,-0.690912 0.0837,-1.106097 -1e-5,-0.340802 -0.0186,-0.647534 -0.0558,-0.920198 -0.031,-0.272639 -0.093,-0.539093 -0.18591,-0.799365 -0.0868,-0.260244 -0.20449,-0.477125 -0.3532,-0.650645 -0.14873,-0.179688 -0.34392,-0.32221 -0.58558,-0.427567 -0.24168,-0.105328 -0.52363,-0.157999 -0.84584,-0.158014 l -2.84425,0 0,5.920873 m -1.41283,8.941726 0,-15.996581 4.26637,0 c 0.5391,1.6e-5 1.01314,0.07438 1.42213,0.223079 0.40897,0.148734 0.73739,0.347026 0.98526,0.594875 0.25405,0.241684 0.45854,0.545318 0.61346,0.910904 0.15491,0.359418 0.26025,0.734313 0.31603,1.124687 0.062,0.384203 0.0929,0.81177 0.093,1.282701 -1e-5,2.038698 -0.7436,3.330693 -2.23078,3.875987 l 2.47245,7.984348 -1.50578,0 -2.33303,-7.807744 -2.68623,0 0,7.807744 -1.41283,0"
       style="font-size:26.10004044px;font-style:normal;font-variant:normal;font-weight:300;font-stretch:normal;text-align:start;line-height:114.99999762%;letter-spacing:0px;word-spacing:0px;writing-mode:lr-tb;text-anchor:start;fill:#7d682c;fill-opacity:1;stroke:none;stroke-width:1.49999976;marker:none;font-family:Oswald;-inkscape-font-specification:Oswald Light"
       id="path3203"
       inkscape:connector-curvature="0" />
    <path
       d="m 147.85542,32.024265 0,-6.701647 c 0,-0.570077 0.0372,-1.087495 0.11154,-1.552254 0.0744,-0.464733 0.20449,-0.907791 0.39039,-1.329175 0.19209,-0.421356 0.43686,-0.774563 0.7343,-1.059623 0.29743,-0.291226 0.67543,-0.5205 1.13398,-0.687825 0.46474,-0.167293 1.00075,-0.250947 1.60802,-0.250963 2.50343,1.6e-5 3.75515,1.626628 3.75515,4.87984 l 0,0.650645 -1.34776,0 0,-0.966673 c -1e-5,-0.514307 -0.0403,-0.969758 -0.12083,-1.366355 -0.0744,-0.39657 -0.2014,-0.752876 -0.3811,-1.068917 -0.17971,-0.32221 -0.43067,-0.566977 -0.75289,-0.7343 -0.31603,-0.173491 -0.70022,-0.260243 -1.15257,-0.260258 -0.40898,1.5e-5 -0.76529,0.05888 -1.06892,0.176604 -0.30363,0.111554 -0.5515,0.266469 -0.74359,0.464746 -0.1859,0.198306 -0.33772,0.446171 -0.45545,0.743595 -0.11154,0.297451 -0.189,0.61038 -0.23238,0.938788 -0.0434,0.322237 -0.0651,0.690936 -0.0651,1.106097 l 0,7.333703 c 0,0.526717 0.0372,0.985266 0.11154,1.37565 0.0744,0.384193 0.20139,0.740499 0.38109,1.068917 0.1859,0.322226 0.45235,0.570091 0.79936,0.743595 0.34701,0.16731 0.77148,0.250964 1.27341,0.250964 0.45235,0 0.83654,-0.08365 1.15257,-0.250964 0.32222,-0.173504 0.57318,-0.421369 0.75289,-0.743595 0.1797,-0.322222 0.30673,-0.681625 0.38109,-1.078212 0.0805,-0.39658 0.12083,-0.852032 0.12084,-1.366355 l 0,-1.096802 1.34776,0 0,0.780774 c -1e-5,0.563897 -0.0341,1.078216 -0.10224,1.542959 -0.0682,0.46475 -0.1921,0.910906 -0.3718,1.338471 -0.17351,0.421372 -0.39969,0.777677 -0.67853,1.068917 -0.27885,0.285045 -0.63826,0.51432 -1.07821,0.687825 -0.43997,0.167309 -0.94809,0.250963 -1.52437,0.250963 -0.61967,0 -1.16497,-0.08365 -1.63591,-0.250963 -0.46475,-0.173505 -0.84584,-0.40278 -1.14327,-0.687825 -0.29125,-0.29124 -0.52982,-0.647545 -0.71571,-1.068917 -0.17971,-0.427565 -0.30674,-0.870623 -0.3811,-1.329176 -0.0682,-0.464743 -0.10224,-0.982161 -0.10224,-1.552254"
       style="font-size:26.10004044px;font-style:normal;font-variant:normal;font-weight:300;font-stretch:normal;text-align:start;line-height:114.99999762%;letter-spacing:0px;word-spacing:0px;writing-mode:lr-tb;text-anchor:start;fill:#7d682c;fill-opacity:1;stroke:none;stroke-width:1.49999976;marker:none;font-family:Oswald;-inkscape-font-specification:Oswald Light"
       id="path3205"
       inkscape:connector-curvature="0" />
    <path
       d="m 157.74523,36.662437 0,-15.996581 5.57696,0 0,1.133982 -4.16413,0 0,6.060297 2.97437,0 0,1.068917 -2.97437,0 0,6.599403 4.16413,0 0,1.133982 -5.57696,0"
       style="font-size:26.10004044px;font-style:normal;font-variant:normal;font-weight:300;font-stretch:normal;text-align:start;line-height:114.99999762%;letter-spacing:0px;word-spacing:0px;writing-mode:lr-tb;text-anchor:start;fill:#7d682c;fill-opacity:1;stroke:none;stroke-width:1.49999976;marker:none;font-family:Oswald;-inkscape-font-specification:Oswald Light"
       id="path3207"
       inkscape:connector-curvature="0" />
    <path
       d="m 165.144,36.662437 0,-15.996581 1.0875,0 5.06574,12.668995 0,-12.668995 1.19905,0 0,15.996581 -1.05963,0 -5.07503,-12.399441 0,12.399441 -1.21763,0"
       style="font-size:26.10004044px;font-style:normal;font-variant:normal;font-weight:300;font-stretch:normal;text-align:start;line-height:114.99999762%;letter-spacing:0px;word-spacing:0px;writing-mode:lr-tb;text-anchor:start;fill:#7d682c;fill-opacity:1;stroke:none;stroke-width:1.49999976;marker:none;font-family:Oswald;-inkscape-font-specification:Oswald Light"
       id="path3209"
       inkscape:connector-curvature="0" />
    <path
       d="m 176.64183,36.662437 0,-14.862599 -3.1138,0 0,-1.133982 7.66832,0 0,1.133982 -3.14169,0 0,14.862599 -1.41283,0"
       style="font-size:26.10004044px;font-style:normal;font-variant:normal;font-weight:300;font-stretch:normal;text-align:start;line-height:114.99999762%;letter-spacing:0px;word-spacing:0px;writing-mode:lr-tb;text-anchor:start;fill:#7d682c;fill-opacity:1;stroke:none;stroke-width:1.49999976;marker:none;font-family:Oswald;-inkscape-font-specification:Oswald Light"
       id="path3211"
       inkscape:connector-curvature="0" />
    <path
       d="m 183.62232,27.720711 2.84425,0 c 0.40277,9e-6 0.74359,-0.08055 1.02244,-0.241668 0.27884,-0.161103 0.48643,-0.390378 0.62276,-0.687825 0.14252,-0.297428 0.24167,-0.607259 0.29744,-0.929494 0.0558,-0.322213 0.0837,-0.690912 0.0837,-1.106097 -1e-5,-0.340802 -0.0186,-0.647534 -0.0558,-0.920198 -0.031,-0.272639 -0.093,-0.539093 -0.1859,-0.799365 -0.0868,-0.260244 -0.20449,-0.477125 -0.35321,-0.650645 -0.14872,-0.179688 -0.34391,-0.32221 -0.58557,-0.427567 -0.24168,-0.105328 -0.52363,-0.157999 -0.84584,-0.158014 l -2.84425,0 0,5.920873 m -1.41283,8.941726 0,-15.996581 4.26637,0 c 0.5391,1.6e-5 1.01314,0.07438 1.42212,0.223079 0.40898,0.148734 0.7374,0.347026 0.98527,0.594875 0.25405,0.241684 0.45854,0.545318 0.61347,0.910904 0.1549,0.359418 0.26024,0.734313 0.31602,1.124687 0.0619,0.384203 0.0929,0.81177 0.0929,1.282701 -10e-6,2.038698 -0.7436,3.330693 -2.23078,3.875987 l 2.47245,7.984348 -1.50578,0 -2.33303,-7.807744 -2.68623,0 0,7.807744 -1.41283,0"
       style="font-size:26.10004044px;font-style:normal;font-variant:normal;font-weight:300;font-stretch:normal;text-align:start;line-height:114.99999762%;letter-spacing:0px;word-spacing:0px;writing-mode:lr-tb;text-anchor:start;fill:#7d682c;fill-opacity:1;stroke:none;stroke-width:1.49999976;marker:none;font-family:Oswald;-inkscape-font-specification:Oswald Light"
       id="path3213"
       inkscape:connector-curvature="0" />
    <path
       d="m 191.83905,32.024265 0,-6.701647 c 0,-0.563881 0.0403,-1.081298 0.12084,-1.552254 0.0867,-0.47093 0.22927,-0.913988 0.42756,-1.329175 0.19829,-0.421356 0.44925,-0.774563 0.75289,-1.059623 0.30363,-0.291226 0.69093,-0.5205 1.16187,-0.687825 0.47094,-0.167293 1.01004,-0.250947 1.61732,-0.250963 0.60726,1.6e-5 1.14637,0.08367 1.61731,0.250963 0.47094,0.167325 0.85823,0.396599 1.16187,0.687825 0.30363,0.28506 0.55459,0.638267 0.75289,1.059623 0.19828,0.415187 0.33771,0.858245 0.41828,1.329175 0.0867,0.470956 0.13011,0.988373 0.13012,1.552254 l 0,6.701647 c -1e-5,3.259425 -1.36016,4.889135 -4.08047,4.889135 -2.72033,0 -4.08048,-1.62971 -4.08048,-4.889135 m 6.74812,0.316028 0,-7.333703 c -10e-6,-2.286539 -0.88922,-3.429815 -2.66764,-3.42983 -1.77844,1.5e-5 -2.66765,1.143291 -2.66765,3.42983 l 0,7.333703 c 0,2.292753 0.88921,3.439126 2.66765,3.439126 1.77842,0 2.66763,-1.146373 2.66764,-3.439126"
       style="font-size:26.10004044px;font-style:normal;font-variant:normal;font-weight:300;font-stretch:normal;text-align:start;line-height:114.99999762%;letter-spacing:0px;word-spacing:0px;writing-mode:lr-tb;text-anchor:start;fill:#7d682c;fill-opacity:1;stroke:none;stroke-width:1.49999976;marker:none;font-family:Oswald;-inkscape-font-specification:Oswald Light"
       id="path3215"
       inkscape:connector-curvature="0" />
  </g>
  <path
     style="color:#000000;fill:#2c4a89;fill-opacity:1;fill-rule:nonzero;stroke:none;stroke-width:1.49999988;marker:none;visibility:visible;display:inline;overflow:visible;enable-background:accumulate"
     d="m 95,212.2393 100.00002,0 c 2.77,0 5,2.23 5,5 l 0,30 c 0,2.77 -2.23,5 -5,5 L 95,252.2393 c -2.77,0 -5,-2.23 -5,-5 l 0,-30 c 0,-2.77 2.23,-5 5,-5 z"
     id="rect4547-0" />
  <path
     style="color:#000000;fill:#3a63b7;fill-opacity:1;fill-rule:nonzero;stroke:none;stroke-width:1.49999988;marker:none;visibility:visible;display:inline;overflow:visible;enable-background:accumulate"
     d="m 95,209.2393 100.00002,0 c 2.77,0 5,2.23 5,5 l 0,30 c 0,2.77 -2.23,5 -5,5 L 95,249.2393 c -2.77,0 -5,-2.23 -5,-5 l 0,-30 c 0,-2.77 2.23,-5 5,-5 z"
     id="rect5553" />
  <g
     id="g3333">
    <path
       d="m 116.65638,226.89934 c -1e-5,1.15626 -0.39584,2.04688 -1.1875,2.67188 -0.78647,0.61979 -1.91407,0.92969 -3.38281,0.92968 l -1.34375,0 0,4.49219 -1.32813,0 0,-11.42187 2.96094,0 c 2.85416,1e-5 4.28124,1.10938 4.28125,3.32812 m -5.91406,2.46094 1.19531,0 c 1.17708,0 2.02864,-0.1901 2.55469,-0.57031 0.52603,-0.38021 0.78905,-0.98958 0.78906,-1.82813 -1e-5,-0.7552 -0.2474,-1.3177 -0.74219,-1.6875 -0.4948,-0.36978 -1.26563,-0.55468 -2.3125,-0.55469 l -1.48437,0 0,4.64063"
       style="font-size:16px;font-style:normal;font-variant:normal;font-weight:normal;font-stretch:normal;text-align:start;line-height:114.99999762%;letter-spacing:0px;word-spacing:0px;writing-mode:lr-tb;text-anchor:start;fill:#ffffff;fill-opacity:1;stroke:none;font-family:Open Sans;-inkscape-font-specification:Open Sans"
       id="path3037"
       inkscape:connector-curvature="0" />
    <path
       d="m 122.46107,235.14934 c -1.26563,0 -2.26563,-0.38542 -3,-1.15625 -0.72917,-0.77083 -1.09375,-1.84114 -1.09375,-3.21094 0,-1.3802 0.33854,-2.47655 1.01562,-3.28906 0.68229,-0.81249 1.59635,-1.21874 2.74219,-1.21875 1.07291,1e-5 1.92187,0.35418 2.54688,1.0625 0.62499,0.70313 0.93749,1.63282 0.9375,2.78906 l 0,0.82032 -5.89844,0 c 0.026,1.00521 0.27864,1.76823 0.75781,2.28906 0.48437,0.52083 1.16406,0.78125 2.03906,0.78125 0.92187,0 1.83333,-0.19271 2.73438,-0.57813 l 0,1.15625 c -0.45834,0.19792 -0.89324,0.33855 -1.30469,0.42188 -0.40626,0.0885 -0.89844,0.13281 -1.47656,0.13281 m -0.35156,-7.78906 c -0.68751,1e-5 -1.23699,0.22396 -1.64844,0.67187 -0.40626,0.44793 -0.64584,1.06772 -0.71875,1.85938 l 4.47656,0 c -1e-5,-0.8177 -0.1823,-1.4427 -0.54687,-1.875 -0.36459,-0.43749 -0.88543,-0.65624 -1.5625,-0.65625"
       style="font-size:16px;font-style:normal;font-variant:normal;font-weight:normal;font-stretch:normal;text-align:start;line-height:114.99999762%;letter-spacing:0px;word-spacing:0px;writing-mode:lr-tb;text-anchor:start;fill:#ffffff;fill-opacity:1;stroke:none;font-family:Open Sans;-inkscape-font-specification:Open Sans"
       id="path3039"
       inkscape:connector-curvature="0" />
    <path
       d="m 133.33607,232.65715 c -1e-5,0.79688 -0.29688,1.41146 -0.89063,1.84375 -0.59375,0.4323 -1.42709,0.64844 -2.5,0.64844 -1.13542,0 -2.02083,-0.17969 -2.65625,-0.53906 l 0,-1.20313 c 0.41146,0.20834 0.85156,0.3724 1.32032,0.49219 0.47395,0.11979 0.92968,0.17969 1.36718,0.17969 0.67708,0 1.19791,-0.10677 1.5625,-0.32031 0.36458,-0.21875 0.54687,-0.54948 0.54688,-0.99219 -1e-5,-0.33333 -0.14584,-0.61719 -0.4375,-0.85156 -0.28647,-0.23958 -0.84897,-0.52083 -1.6875,-0.84375 -0.79688,-0.29687 -1.36459,-0.55469 -1.70313,-0.77344 -0.33333,-0.22395 -0.58333,-0.47656 -0.75,-0.75781 -0.16146,-0.28125 -0.24219,-0.61719 -0.24218,-1.00782 -1e-5,-0.69791 0.28385,-1.24738 0.85156,-1.64843 0.5677,-0.40625 1.34635,-0.60937 2.33594,-0.60938 0.92186,1e-5 1.82291,0.18751 2.70312,0.5625 l -0.46094,1.05469 c -0.85938,-0.35416 -1.63802,-0.53124 -2.33593,-0.53125 -0.61459,1e-5 -1.07813,0.0964 -1.39063,0.28906 -0.3125,0.19272 -0.46875,0.45834 -0.46875,0.79688 0,0.22917 0.0573,0.42448 0.17188,0.58593 0.11978,0.16147 0.30989,0.31511 0.57031,0.46094 0.26041,0.14584 0.76041,0.35678 1.5,0.63281 1.01562,0.3698 1.70051,0.7422 2.05469,1.11719 0.35936,0.375 0.53905,0.84636 0.53906,1.41406"
       style="font-size:16px;font-style:normal;font-variant:normal;font-weight:normal;font-stretch:normal;text-align:start;line-height:114.99999762%;letter-spacing:0px;word-spacing:0px;writing-mode:lr-tb;text-anchor:start;fill:#ffffff;fill-opacity:1;stroke:none;font-family:Open Sans;-inkscape-font-specification:Open Sans"
       id="path3041"
       inkscape:connector-curvature="0" />
    <path
       d="m 138.67201,234.0634 c 0.86457,0 1.49478,-0.23177 1.89062,-0.69531 0.39583,-0.46354 0.60676,-1.24479 0.63281,-2.34375 l 0,-0.28906 c -1e-5,-1.19791 -0.20313,-2.05989 -0.60937,-2.58594 -0.40626,-0.52603 -1.04949,-0.78905 -1.92969,-0.78906 -0.76042,1e-5 -1.34375,0.29688 -1.75,0.89062 -0.40104,0.58855 -0.60157,1.42188 -0.60156,2.5 -1e-5,1.07813 0.19791,1.90105 0.59375,2.46875 0.40104,0.5625 0.99218,0.84375 1.77344,0.84375 m -0.19532,1.08594 c -1.10417,0 -1.96615,-0.38802 -2.58593,-1.16406 -0.6198,-0.77604 -0.92969,-1.85937 -0.92969,-3.25 0,-1.40104 0.3125,-2.49479 0.9375,-3.28125 0.62499,-0.78645 1.49479,-1.17968 2.60937,-1.17969 1.17187,1e-5 2.07291,0.44272 2.70313,1.32813 l 0.0703,0 0.1875,-1.17188 1.02343,0 0,12.40625 -1.29687,0 0,-3.66406 c -1e-5,-0.52083 0.0286,-0.96354 0.0859,-1.32813 l -0.10156,0 c -0.59897,0.8698 -1.50001,1.30469 -2.70313,1.30469"
       style="font-size:16px;font-style:normal;font-variant:normal;font-weight:normal;font-stretch:normal;text-align:start;line-height:114.99999762%;letter-spacing:0px;word-spacing:0px;writing-mode:lr-tb;text-anchor:start;fill:#ffffff;fill-opacity:1;stroke:none;font-family:Open Sans;-inkscape-font-specification:Open Sans"
       id="path3043"
       inkscape:connector-curvature="0" />
    <path
       d="m 146.46888,226.43059 0,5.55469 c 0,0.69792 0.15885,1.21875 0.47656,1.5625 0.31771,0.34375 0.8151,0.51562 1.49219,0.51562 0.89583,0 1.54947,-0.24479 1.96094,-0.73437 0.41666,-0.48958 0.62499,-1.28906 0.625,-2.39844 l 0,-4.5 1.29687,0 0,8.5625 -1.07031,0 -0.1875,-1.14844 -0.0703,0 c -0.26563,0.42188 -0.63542,0.7448 -1.10938,0.96875 -0.46875,0.22396 -1.00521,0.33594 -1.60937,0.33594 -1.04167,0 -1.82292,-0.24739 -2.34375,-0.74219 -0.51563,-0.49479 -0.77344,-1.28645 -0.77344,-2.375 l 0,-5.60156 1.3125,0"
       style="font-size:16px;font-style:normal;font-variant:normal;font-weight:normal;font-stretch:normal;text-align:start;line-height:114.99999762%;letter-spacing:0px;word-spacing:0px;writing-mode:lr-tb;text-anchor:start;fill:#ffffff;fill-opacity:1;stroke:none;font-family:Open Sans;-inkscape-font-specification:Open Sans"
       id="path3045"
       inkscape:connector-curvature="0" />
    <path
       d="m 156.35951,234.99309 -1.29688,0 0,-8.5625 1.29688,0 0,8.5625 m -1.40625,-10.88281 c -1e-5,-0.29686 0.0729,-0.51301 0.21875,-0.64844 0.14583,-0.14061 0.32812,-0.21092 0.54687,-0.21094 0.20833,2e-5 0.38802,0.0703 0.53906,0.21094 0.15104,0.14064 0.22656,0.35678 0.22657,0.64844 -1e-5,0.29168 -0.0755,0.51043 -0.22657,0.65625 -0.15104,0.14063 -0.33073,0.21095 -0.53906,0.21094 -0.21875,1e-5 -0.40104,-0.0703 -0.54687,-0.21094 -0.14584,-0.14582 -0.21876,-0.36457 -0.21875,-0.65625"
       style="font-size:16px;font-style:normal;font-variant:normal;font-weight:normal;font-stretch:normal;text-align:start;line-height:114.99999762%;letter-spacing:0px;word-spacing:0px;writing-mode:lr-tb;text-anchor:start;fill:#ffffff;fill-opacity:1;stroke:none;font-family:Open Sans;-inkscape-font-specification:Open Sans"
       id="path3047"
       inkscape:connector-curvature="0" />
    <path
       d="m 164.64857,232.65715 c -1e-5,0.79688 -0.29688,1.41146 -0.89063,1.84375 -0.59375,0.4323 -1.42709,0.64844 -2.5,0.64844 -1.13542,0 -2.02083,-0.17969 -2.65625,-0.53906 l 0,-1.20313 c 0.41146,0.20834 0.85156,0.3724 1.32032,0.49219 0.47395,0.11979 0.92968,0.17969 1.36718,0.17969 0.67708,0 1.19791,-0.10677 1.5625,-0.32031 0.36458,-0.21875 0.54687,-0.54948 0.54688,-0.99219 -1e-5,-0.33333 -0.14584,-0.61719 -0.4375,-0.85156 -0.28647,-0.23958 -0.84897,-0.52083 -1.6875,-0.84375 -0.79688,-0.29687 -1.36459,-0.55469 -1.70313,-0.77344 -0.33333,-0.22395 -0.58333,-0.47656 -0.75,-0.75781 -0.16146,-0.28125 -0.24219,-0.61719 -0.24218,-1.00782 -1e-5,-0.69791 0.28385,-1.24738 0.85156,-1.64843 0.5677,-0.40625 1.34635,-0.60937 2.33594,-0.60938 0.92186,1e-5 1.82291,0.18751 2.70312,0.5625 l -0.46094,1.05469 c -0.85938,-0.35416 -1.63802,-0.53124 -2.33593,-0.53125 -0.61459,1e-5 -1.07813,0.0964 -1.39063,0.28906 -0.3125,0.19272 -0.46875,0.45834 -0.46875,0.79688 0,0.22917 0.0573,0.42448 0.17188,0.58593 0.11978,0.16147 0.30989,0.31511 0.57031,0.46094 0.26041,0.14584 0.76041,0.35678 1.5,0.63281 1.01562,0.3698 1.70051,0.7422 2.05469,1.11719 0.35936,0.375 0.53905,0.84636 0.53906,1.41406"
       style="font-size:16px;font-style:normal;font-variant:normal;font-weight:normal;font-stretch:normal;text-align:start;line-height:114.99999762%;letter-spacing:0px;word-spacing:0px;writing-mode:lr-tb;text-anchor:start;fill:#ffffff;fill-opacity:1;stroke:none;font-family:Open Sans;-inkscape-font-specification:Open Sans"
       id="path3049"
       inkscape:connector-curvature="0" />
    <path
       d="m 172.01576,234.99309 -0.25782,-1.21875 -0.0625,0 c -0.42709,0.53646 -0.85417,0.90104 -1.28125,1.09375 -0.42188,0.1875 -0.95052,0.28125 -1.58593,0.28125 -0.84897,0 -1.51563,-0.21875 -2,-0.65625 -0.47917,-0.4375 -0.71876,-1.05989 -0.71875,-1.86719 -1e-5,-1.72916 1.3828,-2.63541 4.14843,-2.71875 l 1.45313,-0.0469 0,-0.53125 c -1e-5,-0.67186 -0.14584,-1.16666 -0.4375,-1.48437 -0.28647,-0.32291 -0.7474,-0.48437 -1.38281,-0.48438 -0.71355,1e-5 -1.52084,0.21876 -2.42188,0.65625 l -0.39844,-0.99218 c 0.42187,-0.22916 0.88281,-0.40885 1.38282,-0.53907 0.5052,-0.1302 1.01041,-0.1953 1.51562,-0.19531 1.02083,1e-5 1.77603,0.22657 2.26563,0.67969 0.49478,0.45313 0.74217,1.17969 0.74218,2.17969 l 0,5.84375 -0.96093,0 m -2.92969,-0.91407 c 0.80728,0 1.4401,-0.22135 1.89844,-0.66406 0.46353,-0.44271 0.6953,-1.0625 0.69531,-1.85937 l 0,-0.77344 -1.29688,0.0547 c -1.03125,0.0365 -1.77604,0.19792 -2.23437,0.48437 -0.45313,0.28126 -0.67969,0.72136 -0.67969,1.32032 0,0.46875 0.14062,0.82552 0.42188,1.07031 0.28645,0.24479 0.68489,0.36719 1.19531,0.36719"
       style="font-size:16px;font-style:normal;font-variant:normal;font-weight:normal;font-stretch:normal;text-align:start;line-height:114.99999762%;letter-spacing:0px;word-spacing:0px;writing-mode:lr-tb;text-anchor:start;fill:#ffffff;fill-opacity:1;stroke:none;font-family:Open Sans;-inkscape-font-specification:Open Sans"
       id="path3051"
       inkscape:connector-curvature="0" />
    <path
       d="m 179.56263,226.27434 c 0.3802,1e-5 0.72135,0.0313 1.02344,0.0937 l -0.17969,1.20313 c -0.35417,-0.0781 -0.66667,-0.11718 -0.9375,-0.11719 -0.69271,1e-5 -1.28646,0.28126 -1.78125,0.84375 -0.48959,0.5625 -0.73438,1.26303 -0.73437,2.10156 l 0,4.59375 -1.29688,0 0,-8.5625 1.07031,0 0.14844,1.58594 0.0625,0 c 0.3177,-0.55729 0.70052,-0.98697 1.14844,-1.28906 0.44791,-0.30208 0.9401,-0.45312 1.47656,-0.45313"
       style="font-size:16px;font-style:normal;font-variant:normal;font-weight:normal;font-stretch:normal;text-align:start;line-height:114.99999762%;letter-spacing:0px;word-spacing:0px;writing-mode:lr-tb;text-anchor:start;fill:#ffffff;fill-opacity:1;stroke:none;font-family:Open Sans;-inkscape-font-specification:Open Sans"
       id="path3053"
       inkscape:connector-curvature="0" />
  </g>
</svg>
