<?xml version="1.0" encoding="UTF-8" standalone="no"?>
<!-- Created with Inkscape (http://www.inkscape.org/) -->
<svg xmlns:dc="http://purl.org/dc/elements/1.1/" xmlns:cc="http://creativecommons.org/ns#" xmlns:rdf="http://www.w3.org/1999/02/22-rdf-syntax-ns#" xmlns:svg="http://www.w3.org/2000/svg" xmlns="http://www.w3.org/2000/svg" xmlns:sodipodi="http://sodipodi.sourceforge.net/DTD/sodipodi-0.dtd" xmlns:inkscape="http://www.inkscape.org/namespaces/inkscape" id="svg2" height="48.0001" width="48" version="1.1" inkscape:version="0.48.4 r9939" sodipodi:docname="icon-image.svg">
  <defs id="defs8"/>
  <sodipodi:namedview pagecolor="#ffffff" bordercolor="#666666" borderopacity="1" objecttolerance="10" gridtolerance="10" guidetolerance="10" inkscape:pageopacity="0" inkscape:pageshadow="2" inkscape:window-width="1920" inkscape:window-height="1017" id="namedview6" showgrid="true" inkscape:zoom="9.833313" inkscape:cx="39.901638" inkscape:cy="22.256576" inkscape:window-x="-5" inkscape:window-y="26" inkscape:window-maximized="1" inkscape:current-layer="svg2" inkscape:snap-bbox="true">
    <inkscape:grid type="xygrid" id="grid2989"/>
  </sodipodi:namedview>
  <metadata id="metadata7">
    <rdf:RDF>
      <cc:Work rdf:about="">
        <dc:format>image/svg+xml</dc:format>
        <dc:type rdf:resource="http://purl.org/dc/dcmitype/StillImage"/>
        <dc:title/>
      </cc:Work>
    </rdf:RDF>
  </metadata>
  <path style="color:#000000;fill:#ffd61a;fill-opacity:1;fill-rule:nonzero;enable-background:accumulate" d="M 24,4 C 12.92,4 4,12.92 4,24 4,35.08 12.92,44 24,44 35.08,44 44,35.08 44,24 44,12.92 35.08,4 24,4 z m 2.46875,7.78125 c 1.6732,2.046 3.21045,4.1615 4.59375,6.375 l 1.03125,-0.3125 c 0.776,0.5514 1.27125,1.2543 1.28125,2.25 l -0.75,0.6875 c 1.2467,2.2829 2.3269,4.6817 3.1875,7.1875 -7.3123,-2.0921 -10.29565,-1.1582 -14.34375,0.875 0.5449,1.9002 1.3043,4.13605 2.125,5.21875 1.2198,1.6094 -4.1875,2.15625 -4.1875,2.15625 -0.8994,-0.5254 -1.514,-2.6813 -1.5,-5.5625 C 17.04155,31.08515 16.1055,31.5458 15.0625,32 l -0.5,-0.90625 -1.40625,0.28125 -0.96875,-1.65625 0.96875,-1.0625 -0.4375,-0.78125 c 7.6302,-5.2233 11.0745,-6.50955 13.75,-16.09375 z" id="path5853" inkscape:connector-curvature="0" sodipodi:nodetypes="sssssccccccccccccccccc" class="vui_change_color"/>
</svg>
