<?xml version="1.0" encoding="UTF-8" standalone="no"?>
<!-- Created with Inkscape (http://www.inkscape.org/) -->
<svg xmlns:dc="http://purl.org/dc/elements/1.1/" xmlns:cc="http://creativecommons.org/ns#" xmlns:rdf="http://www.w3.org/1999/02/22-rdf-syntax-ns#" xmlns:svg="http://www.w3.org/2000/svg" xmlns="http://www.w3.org/2000/svg" xmlns:sodipodi="http://sodipodi.sourceforge.net/DTD/sodipodi-0.dtd" xmlns:inkscape="http://www.inkscape.org/namespaces/inkscape" id="svg2" height="48.0001" width="48" version="1.1" inkscape:version="0.48.4 r9939" sodipodi:docname="icon-instagram.svg">
  <defs id="defs8"/>
  <sodipodi:namedview pagecolor="#ffffff" bordercolor="#666666" borderopacity="1" objecttolerance="10" gridtolerance="10" guidetolerance="10" inkscape:pageopacity="0" inkscape:pageshadow="2" inkscape:window-width="1920" inkscape:window-height="1017" id="namedview6" showgrid="true" inkscape:zoom="9.833313" inkscape:cx="32.964921" inkscape:cy="22.703649" inkscape:window-x="-5" inkscape:window-y="26" inkscape:window-maximized="1" inkscape:current-layer="svg2" inkscape:snap-bbox="true">
    <inkscape:grid type="xygrid" id="grid2989"/>
  </sodipodi:namedview>
  <metadata id="metadata7">
    <rdf:RDF>
      <cc:Work rdf:about="">
        <dc:format>image/svg+xml</dc:format>
        <dc:type rdf:resource="http://purl.org/dc/dcmitype/StillImage"/>
        <dc:title/>
      </cc:Work>
    </rdf:RDF>
  </metadata>
  <path style="color:#000000;fill:#e07529;fill-opacity:1;fill-rule:nonzero;enable-background:accumulate" d="M 24,4 C 18.479167,4 13.781247,5.9687335 9.875,9.875 5.9687467,13.781267 4,18.4792 4,24 4,29.5208 5.9687467,34.218733 9.875,38.125 13.781247,42.031267 18.479167,44 24,44 29.520833,44 34.218753,42.031267 38.125,38.125 42.031253,34.218733 44,29.5208 44,24 44,18.4792 42.031253,13.781267 38.125,9.875 34.218753,5.9687335 29.520833,4 24,4 z m -11.25,8.75 22.5,0 0,4 -2.5,0 0,2.1875 2.5,0 0,3.96875 -2.5,0 0,2.1875 2.5,0 0,3.96875 -2.5,0 0,2.1875 2.5,0 0,4 -22.5,0 z m 10.03125,4 c -0.911473,0 -1.6875,0.281317 -2.3125,0.90625 -0.624993,0.625067 -0.9375,1.39585 -0.9375,2.28125 0,1.354133 0.614587,2.302067 1.8125,2.875 l -4.15625,2.5 -0.0625,0 0,3.53125 11.3125,0 0,-3.53125 -0.0625,0 -4.125,-2.5 c 1.19792,-0.572933 1.78125,-1.520867 1.78125,-2.875 0,-0.8854 -0.3125,-1.656183 -0.9375,-2.28125 C 24.46875,17.031317 23.692723,16.75 22.78125,16.75 z" id="path5853" inkscape:connector-curvature="0" sodipodi:nodetypes="ssssssssscccccccccccccccccscsccccccccscs" class="vui_change_color"/>
</svg>
