<?xml version="1.0" encoding="UTF-8" standalone="no"?>
<!-- Created with Inkscape (http://www.inkscape.org/) -->
<svg xmlns:dc="http://purl.org/dc/elements/1.1/" xmlns:cc="http://creativecommons.org/ns#" xmlns:rdf="http://www.w3.org/1999/02/22-rdf-syntax-ns#" xmlns:svg="http://www.w3.org/2000/svg" xmlns="http://www.w3.org/2000/svg" xmlns:sodipodi="http://sodipodi.sourceforge.net/DTD/sodipodi-0.dtd" xmlns:inkscape="http://www.inkscape.org/namespaces/inkscape" id="svg2" height="48.0001" width="48" version="1.1" inkscape:version="0.48.4 r9939" sodipodi:docname="icon-calendar.svg">
  <defs id="defs8"/>
  <sodipodi:namedview pagecolor="#ffffff" bordercolor="#666666" borderopacity="1" objecttolerance="10" gridtolerance="10" guidetolerance="10" inkscape:pageopacity="0" inkscape:pageshadow="2" inkscape:window-width="1920" inkscape:window-height="1017" id="namedview6" showgrid="true" inkscape:zoom="9.833313" inkscape:cx="39.901638" inkscape:cy="22.256576" inkscape:window-x="-5" inkscape:window-y="26" inkscape:window-maximized="1" inkscape:current-layer="svg2" inkscape:snap-bbox="true">
    <inkscape:grid type="xygrid" id="grid2989"/>
  </sodipodi:namedview>
  <metadata id="metadata7">
    <rdf:RDF>
      <cc:Work rdf:about="">
        <dc:format>image/svg+xml</dc:format>
        <dc:type rdf:resource="http://purl.org/dc/dcmitype/StillImage"/>
        <dc:title/>
      </cc:Work>
    </rdf:RDF>
  </metadata>
  <path style="color:#000000;fill:#cc5c46;fill-opacity:1;fill-rule:nonzero;enable-background:accumulate" d="M 23.9375,3.90625 C 16.553691,3.9569662 9.4238939,8.0361067 5.9375,15.25 4.5748,18.0697 4.021,20.5287 4,23.8125 c -0.0093,1.4949 0.1114,3.2731 0.25,3.9375 1.7874,8.5714 8.2324,14.80265 16.8125,16.21875 1.7235,0.2844 6.0762,0.05095 7.8125,-0.40625 3.5836,-0.9435 6.3457,-2.44475 8.875,-4.84375 2.8602,-2.7129 4.5525,-5.45015 5.6875,-9.15625 C 43.9584,27.8633 44,27.52405 44,24.03125 44,20.53835 43.9579,20.1992 43.4375,18.5 c -0.6592,-2.1526 -1.7887,-4.553201 -3,-6.25 C 39.3712,10.7565 36.79045,8.27485 35.28125,7.28125 31.753619,4.9589781 27.80521,3.8796843 23.9375,3.90625 z m 0.125,13.28125 8.4375,2.59375 c 4.6461,1.4272 8.5015,2.65775 8.5625,2.71875 0.2186,0.2186 -0.1713,0.3651 -3.8125,1.3125 l -3.6875,0.9375 -0.125,1.96875 C 33.3473,28.24275 33.32,29.5713 33,30 l -1,0 -8,0 -8,0 c -0.664,0 -0.982,-0.6549 -1,-2 l 0,-2 4,0 c 4.8086,-0.1393 3.9113,-1.0351 -1.0625,-1.1875 -2.7511,-0.0843 -4.25525,-0.23735 -5.03125,-0.46875 -1.9136,-0.5709 -1.8125,-0.68595 -1.8125,2.28125 0,1.4324 0.10565,2.85875 0.21875,3.15625 0.1458,0.3843 0.13235,0.6153 -0.03125,0.8125 -0.2685,0.3237 -1.01515,0.34125 -1.40625,0.09375 -0.2381,-0.1509 -0.22805,-0.343 -0.03125,-1 C 10.17535,28.5826 10.1477,24.12195 9.8125,23.84375 9.672,23.72715 9.5994,23.4945 8.875,23.3125 7.4541,22.9556 6.9199,22.7051 7.125,22.5 c 0.0713,-0.0713 3.90935,-1.29615 8.53125,-2.71875 z" id="path5853" inkscape:connector-curvature="0" sodipodi:nodetypes="ssccccscscccsccsccccccscccscsccccccscc" class="vui_change_color"/>
</svg>
