<?xml version="1.0" encoding="UTF-8" standalone="no"?>
<!-- Created with Inkscape (http://www.inkscape.org/) -->
<svg id="svg2" xmlns:rdf="http://www.w3.org/1999/02/22-rdf-syntax-ns#" xmlns="http://www.w3.org/2000/svg" height="55.98191" width="131.3186" version="1.1" xmlns:cc="http://creativecommons.org/ns#" xmlns:xlink="http://www.w3.org/1999/xlink" xmlns:dc="http://purl.org/dc/elements/1.1/">
	<defs id="defs4">
		<linearGradient id="linearGradient9755">
			<stop id="stop9757" stop-color="#792000" offset="0"/>
			<stop id="stop9759" stop-color="#ca3500" offset="0.25"/>
			<stop id="stop9761" stop-color="#a22300" offset="0.5"/>
			<stop id="stop9763" stop-color="#ff400a" offset="0.75"/>
			<stop id="stop9765" stop-color="#ff6d39" offset="1"/>
		</linearGradient>
		<linearGradient id="linearGradient3404" y2="52.36312" xlink:href="#linearGradient9755" gradientUnits="userSpaceOnUse" x2="145.1955" gradientTransform="matrix(32.214684,0,0,32.214684,-4537.1192,-1658.4061)" y1="52.78014" x1="145.1955"/>
		<linearGradient id="linearGradient3406" y2="52.36312" xlink:href="#linearGradient9755" gradientUnits="userSpaceOnUse" x2="145.1955" gradientTransform="matrix(32.214684,0,0,32.214684,-4538.2867,-1658.4061)" y1="52.78014" x1="145.1955"/>
		<linearGradient id="linearGradient3408" y2="52.36312" xlink:href="#linearGradient9755" gradientUnits="userSpaceOnUse" x2="145.1955" gradientTransform="matrix(32.214684,0,0,32.214684,-4538.8705,-1658.4061)" y1="52.78014" x1="145.1955"/>
		<linearGradient id="linearGradient3410" y2="52.36312" xlink:href="#linearGradient9755" gradientUnits="userSpaceOnUse" x2="145.1955" gradientTransform="matrix(32.214684,0,0,32.214684,-4539.7462,-1658.4061)" y1="52.78014" x1="145.1955"/>
		<linearGradient id="linearGradient3412" y2="52.36312" xlink:href="#linearGradient9755" gradientUnits="userSpaceOnUse" x2="145.1955" gradientTransform="matrix(32.214684,0,0,32.214684,-4540.33,-1658.4061)" y1="52.78014" x1="145.1955"/>
		<linearGradient id="linearGradient3414" y2="52.36312" xlink:href="#linearGradient9755" gradientUnits="userSpaceOnUse" x2="145.1955" gradientTransform="matrix(32.214684,0,0,32.214684,-4541.4975,-1658.4061)" y1="52.78014" x1="145.1955"/>
		<linearGradient id="linearGradient3416" y2="52.36312" xlink:href="#linearGradient9755" gradientUnits="userSpaceOnUse" x2="145.1955" gradientTransform="matrix(32.214684,0,0,32.214684,-4543.3947,-1658.4061)" y1="52.78014" x1="145.1955"/>
		<linearGradient id="linearGradient3418" y2="52.36312" xlink:href="#linearGradient9755" gradientUnits="userSpaceOnUse" x2="145.1955" gradientTransform="matrix(32.214684,0,0,32.214684,-4545.4379,-1658.4061)" y1="52.78014" x1="145.1955"/>
		<linearGradient id="linearGradient3420" y2="52.36312" xlink:href="#linearGradient9755" gradientUnits="userSpaceOnUse" x2="145.1955" gradientTransform="matrix(32.214684,0,0,32.214684,-4547.9189,-1658.4061)" y1="52.78014" x1="145.1955"/>
		<linearGradient id="linearGradient3422" y2="52.36312" xlink:href="#linearGradient9755" gradientUnits="userSpaceOnUse" x2="145.1955" gradientTransform="matrix(32.214684,0,0,32.214684,-4549.3783,-1658.4061)" y1="52.78014" x1="145.1955"/>
		<linearGradient id="linearGradient3428" y2="44.39846" xlink:href="#linearGradient9755" gradientUnits="userSpaceOnUse" x2="136.4571" gradientTransform="matrix(16.389136,0,0,21.852272,-2195.7373,-950.87895)" y1="45.08318" x1="136.4571"/>
	</defs>
	<metadata id="metadata7">
		<rdf:RDF>
			<cc:Work rdf:about="">
				<dc:format>image/svg+xml</dc:format>
				<dc:type rdf:resource="http://purl.org/dc/dcmitype/StillImage"/>
				<dc:title/>
			</cc:Work>
		</rdf:RDF>
	</metadata>
	<path id="path4911" fill-rule="nonzero" fill="url(#linearGradient3428)" d="m78.99083,0c-1.70423,0-3.08183,1.377551-3.08183,3.081829,0,1.704525,1.3776,3.081829,3.08183,3.081829s3.11645-1.377633,3.11645-3.081829c0-1.704278-1.41222-3.081829-3.11645-3.081829zm-3.39348,8.31055c-0.44902-0.0068-0.91151,0.0075-1.38509,0.03463-2.83826,0.177392-5.7496,0.901967-8.58757,3.739747l-18.31783,18.35246c-1.127704,1.128082-2.112504,1.767179-3.081829,2.389284-2.283922-1.972173-4.553741-6.185319-8.899214-13.71241h-7.54875c6.458023,11.18555,8.131106,15.06287,12.01567,15.06287h7.860395c3.521232,0,4.75225-1.289356,7.202477-3.739748l18.31782-18.35246c2.83829-2.837944,5.36026-3.562356,8.2413-3.739747h-4.46692c-0.47357,0-0.90144-0.02785-1.35047-0.03463zm8.06816,3.254966c-3.52122,0-4.75224,1.323983-7.20247,3.774375l-15.0975,15.09749c-2.838272,2.838027-5.325945,3.562273-8.206668,3.739748h4.432293c0.947151,0,1.823041,0.05421,2.770183,0,2.838282-0.177393,5.714983-0.901885,8.552943-3.739748l15.09749-15.0975c1.12772-1.128,2.11252-1.767097,3.08183-2.389283,2.28393,1.972255,4.55343,6.185318,8.89922,13.71241h7.548749c-6.458019-11.18564-8.096469-15.0975-11.98105-15.0975h-7.89502z"/>
	<g id="g3392" transform="translate(-71.281352,14.274893)">
		<path id="path4913" d="m79.75868,24.74506c3.84304,0.158238,5.764563,1.751954,5.764585,4.781222-0.000022,3.775246-2.475392,5.662832-7.426139,5.662832h-1.390283v-2.611032h1.627646c1.514605,0,2.565792-0.226054,3.153569-0.678161,0.587747-0.474713,0.881624-1.254635,0.881639-2.339768-0.000015-0.700766-0.259984-1.22069-0.779915-1.559845-0.519953-0.361686-1.186834-0.542529-2.00065-0.542529-1.605048,0-2.870994,0.565209-3.797844,1.695478-0.904252,1.130343-1.356374,2.486665-1.356366,4.069115-0.000008,1.672872,0.486023,3.029269,1.458098,4.069116,0.994666,1.039921,2.283217,1.559845,3.86566,1.559845,1.424183,0,2.588397-0.35042,3.492656-1.051187l2.034558,2.000613c-1.559837,1.265975-3.402242,1.898925-5.527214,1.898925-2.577116,0-4.63428-0.757317-6.17149-2.271877-1.537224-1.514634-2.305837-3.47011-2.305837-5.866354,0-2.667508,0.757303-4.826433,2.271922-6.476625,1.514612-1.650267,3.583078-2.430189,6.205405-2.339768" style="text-align:start;" fill="url(#linearGradient3404)"/>
		<path id="path4915" style="text-align:start;" d="m87.77579,34.91785,0-9.833709,3.051837,0,0,9.833709c0,0.813793,0.09042,1.480689,0.271279,2.000612,0.203448,0.497393,0.508628,0.859079,0.915547,1.085132,0.406904,0.203449,0.802513,0.339081,1.186827,0.406897,0.384299,0.06745,0.892934,0.101761,1.525922,0.101761v2.848352c-2.531906,0-4.329092-0.486053-5.391582-1.458084-1.039892-0.972105-1.55983-2.633637-1.55983-4.98467" fill="url(#linearGradient3406)"/>
		<path id="path4917" d="m104.3003,24.74506c3.84304,0.158238,5.76456,1.751954,5.76457,4.781222-0.00001,3.775246-2.47539,5.662832-7.42613,5.662832h-1.39028v-2.611032h1.62765c1.5146,0,2.56579-0.226054,3.15356-0.678161,0.58775-0.474713,0.88163-1.254635,0.88164-2.339768-0.00001-0.700766-0.25998-1.22069-0.77991-1.559845-0.51996-0.361686-1.18684-0.542529-2.00065-0.542529-1.60505,0-2.871,0.565209-3.79785,1.695478-0.904247,1.130343-1.35637,2.486665-1.356362,4.069115-0.000008,1.672872,0.486023,3.029269,1.458102,4.069116,0.99466,1.039921,2.28321,1.559845,3.86566,1.559845,1.42417,0,2.58839-0.35042,3.49265-1.051187l2.03456,2.000613c-1.55984,1.265975-3.40224,1.898925-5.52721,1.898925-2.57712,0-4.634284-0.757317-6.171501-2.271877-1.537225-1.514634-2.30583-3.47011-2.30583-5.866354,0-2.667508,0.757303-4.826433,2.271922-6.476625,1.514612-1.650267,3.583079-2.430189,6.205409-2.339768" style="text-align:start;" fill="url(#linearGradient3408)"/>
		<path id="path4919" style="text-align:start;" d="m110.9139,27.93249,3.01781-2.848129,7.62971,0,0,2.848129-4.57776,0,0,6.985358c0,0.791188,0.12433,1.446818,0.37301,1.966741,0.27126,0.519924,0.65557,0.89295,1.15291,1.119003,0.49733,0.203449,0.96076,0.339081,1.39028,0.406897,0.45212,0.06745,1.00597,0.101761,1.66156,0.101761v2.848352c-2.59972,0-4.52125-0.497319-5.76458-1.492029-1.24335-0.994637-1.86502-2.644903-1.86501-4.950725l-0.00012-6.985358h-3.01781" fill="url(#linearGradient3410)"/>
		<path id="path4921" d="m123.7031,41.3606,0-9.257235c0-2.599692,0.48603-4.396856,1.4581-5.391567,0.47472-0.497318,1.05118-0.870344,1.72937-1.119003,0.67818-0.248659,1.26594-0.395631,1.76329-0.440842,0.51993-0.04521,1.22073-0.06744,2.10237-0.06744h2.98402v2.848351h-3.59438c-0.45213,0.000074-0.80253,0.01112-1.05119,0.03409-0.24867,0.02298-0.54256,0.101762-0.88165,0.237394s-0.63298,0.35042-0.88164,0.644216c-0.42952,0.542603-0.64428,1.627661-0.64427,3.255322v9.257234h-2.98402" style="text-align:start;" fill="url(#linearGradient3412)"/>
		<path id="path4923" style="text-align:start;" fill="url(#linearGradient3414)" d="m142.5716,24.7412c-2.14446,0-3.97214,0.677124-5.47285,2.024997l5.4546-0.784443,5.38164,0.784443c-0.6346-0.553572-1.34873-1.010571-2.15266-1.350022-0.99468-0.452108-2.05783-0.674975-3.21073-0.674975zm-0.0182,2.827673-6.49444,0.291869c-1.2004,1.486989-1.80604,3.276001-1.80604,5.363403,0,1.17548,0.21334,2.280327,0.62025,3.320174,0.42952,1.017316,1.00531,1.913081,1.75131,2.681664,0.746,0.768657,1.6323,1.372183,2.62697,1.824291,1.01727,0.429576,2.12206,0.656742,3.3202,0.656742,1.1755,0,2.26641-0.227166,3.2837-0.656742,1.01727-0.452108,1.89919-1.055634,2.64521-1.824291,0.74599-0.768583,1.32614-1.664348,1.73307-2.681664,0.4295-1.039847,0.63848-2.144694,0.6385-3.320174-0.00002-1.175553-0.209-2.266467-0.6385-3.283708-0.31682-0.767027-0.73672-1.458751-1.24051-2.079695l-5.83771-0.255404c1.33256,0.118438,2.41644,0.657483,3.24722,1.58712,0.94945,1.039921,1.42293,2.381421,1.42295,4.031687-0.00002,1.650267-0.4735,3.005626-1.42295,4.068152-0.94947,1.039847-2.22596,1.550655-3.83098,1.550655-1.58245,0-2.85894-0.510808-3.831-1.550655-0.94946-1.039921-1.42295-2.39528-1.42294-4.068152-0.00001-1.672872,0.47348-3.028231,1.42294-4.068152,0.97206-1.039921,2.24855-1.568887,3.831-1.568887,0.20062,0,0.3934,0,0.58376,0.01853l-0.60201-0.03632z"/>
		<path id="path4925" d="m152.7091,25.08414,5.86631,0c2.50928,0,4.30647,0.373026,5.39158,1.119003,0.97205,0.65563,1.58242,1.446818,1.8311,2.373639,0.27126,0.904289,0.40689,2.102374,0.40691,3.594402v9.189419h-2.98402v-9.155474c-0.00001-0.40697-0.0113-0.746051-0.0339-1.017316-0.0226-0.293869-0.10174-0.655555-0.23736-1.085057-0.13565-0.452182-0.32781-0.813868-0.57647-1.085133-0.24868-0.293869-0.61037-0.542529-1.08509-0.745977-0.47475-0.226054-1.0512-0.339081-1.72938-0.339155h-3.86566v13.42811h-2.98402v-16.27646" style="text-align:start;" fill="url(#linearGradient3416)"/>
		<path id="path4927" style="text-align:start;" d="m172.6539,41.3606-2.98402,0,0-13.42811-2.78056,0,1.35638-2.848351,4.4082,0,0,16.27646" fill="url(#linearGradient3418)"/>
		<path id="path4929" d="m185.8279,37.80014,2.03456,2.000613c-1.55985,1.265975-3.34574,1.898925-5.35768,1.898925-2.50929,0-4.52124-0.802528-6.03585-2.407509-1.51462-1.627661-2.27193-3.650953-2.27193-6.069803,0-2.373638,0.79122-4.374251,2.37366-6.001912,1.60503-1.650266,3.58307-2.4754,5.93412-2.4754,2.01194,0,3.79783,0.632951,5.35768,1.898926l-2.00065,2.034558c-0.94948-0.723372-2.06848-1.085132-3.35703-1.085132-1.55983,0-2.80317,0.519997-3.73002,1.559845-0.90425,1.017316-1.35637,2.373638-1.35637,4.069115,0,1.695478,0.45212,3.06314,1.35637,4.103061,0.92685,1.017242,2.17019,1.5259,3.73002,1.5259,1.31115,0,2.41885-0.35042,3.32312-1.051187" style="text-align:start;" fill="url(#linearGradient3420)"/>
		<path id="path4931" d="m198.3274,31.79816,0,3.051873c-0.85904-0.655555-1.91023-0.98337-3.15356-0.98337-1.0625,0-1.88763,0.214788-2.47538,0.64429-0.58777,0.406897-0.88165,0.994636-0.88165,1.763293,0,1.491955,1.1077,2.238006,3.32312,2.238006h4.47603v-6.476699c-0.00002-2.735324-1.33378-4.102987-4.0013-4.103061h-5.42549v-2.848351h5.59503c2.1928,0,3.87696,0.542603,5.05249,1.627661,1.17551,1.085132,1.76327,2.644903,1.76328,4.679461v9.969341h-7.56177c-1.92153,0-3.44745-0.429503-4.57776-1.288581-1.13031-0.859004-1.69547-2.113639-1.69546-3.763906-0.00001-1.650266,0.59906-2.904902,1.79719-3.763906,1.19812-0.859078,2.70144-1.28858,4.50994-1.28858,1.01727,0,2.10237,0.180843,3.25529,0.542529" style="text-align:start;" fill="url(#linearGradient3422)"/>
	</g>
</svg>
