<?xml version="1.0" encoding="UTF-8" standalone="no"?>
<!-- Created with Inkscape (http://www.inkscape.org/) -->

<svg
   xmlns:dc="http://purl.org/dc/elements/1.1/"
   xmlns:cc="http://creativecommons.org/ns#"
   xmlns:rdf="http://www.w3.org/1999/02/22-rdf-syntax-ns#"
   xmlns:svg="http://www.w3.org/2000/svg"
   xmlns="http://www.w3.org/2000/svg"
   version="1.1"
   width="16"
   height="16"
   id="svg2">
  <defs
     id="defs4" />
  <metadata
     id="metadata7">
    <rdf:RDF>
      <cc:Work
         rdf:about="">
        <dc:format>image/svg+xml</dc:format>
        <dc:type
           rdf:resource="http://purl.org/dc/dcmitype/StillImage" />
        <dc:title></dc:title>
      </cc:Work>
    </rdf:RDF>
  </metadata>
  <path
     d="M 8,2 C 6.464466,2 4.9215729,2.5784271 3.75,3.75 c -2.3431454,2.3431454 -2.3431457,6.156854 0,8.5 1.568951,1.56895 3.807852,2.094662 5.8125,1.5625 L 7.71875,11.96875 C 6.7823041,11.90464 5.8668304,11.55433 5.15625,10.84375 3.5941528,9.2816528 3.5941528,6.7183472 5.15625,5.15625 5.9372986,4.3752014 6.9763107,4 8,4 c 1.0236893,0 2.062701,0.3752014 2.84375,1.15625 0.71058,0.7105804 1.06089,1.6260541 1.125,2.5625 L 13.8125,9.5625 C 14.344662,7.557852 13.818951,5.3189509 12.25,3.75 11.078427,2.5784271 9.535534,2 8,2 z m 0,5 c -0.2559224,0 -0.5234878,0.085988 -0.71875,0.28125 -0.3905244,0.3905244 -0.3905244,1.0469756 0,1.4375 L 12.25,13.65625 10.84375,15 15,15 15,10.84375 13.65625,12.25 8.71875,7.28125 C 8.5234878,7.0859878 8.2559224,7 8,7 z"
     id="path3001"
     style="fill:#000000;fill-opacity:1;fill-rule:nonzero;stroke:none" />
</svg>
